<?xml version="1.0" encoding="UTF-8"?>
<svg xmlns="http://www.w3.org/2000/svg" id="Layer_1" data-name="Layer 1" viewBox="0 0 24 24" width="512" height="512"><path d="M16.5,8c.83,0,1.5,.67,1.5,1.5v4c0,.83-.67,1.5-1.5,1.5s-1.5-.67-1.5-1.5v-4c0-.83,.67-1.5,1.5-1.5Zm4,0c-.83,0-1.5,.67-1.5,1.5v4c0,.83,.67,1.5,1.5,1.5s1.5-.67,1.5-1.5v-4c0-.83-.67-1.5-1.5-1.5Zm-1.5,8.66v.84c0,1.93-1.57,3.5-3.5,3.5h-5.23c-1.4,0-2.74-.53-3.76-1.49l-1.92-1.8,2.77-2.9c.8-.8,.8-2.09,0-2.89h0c-.8-.8-2.09-.8-2.89,0l-2.46,2.57h0c-.65,.66-1,1.53-1,2.46s.36,1.81,1.06,2.51l2.39,2.25c1.58,1.48,3.65,2.3,5.82,2.3h5.23c3.58,0,6.5-2.92,6.5-6.5v-.84c-.45,.22-.96,.34-1.5,.34s-1.05-.12-1.5-.34ZM7.57,9.83c.45,.2,.88,.48,1.25,.85,.65,.65,1.03,1.47,1.15,2.32h.97c.91,0,1.7-.61,1.93-1.48L15.45,1.88c.21-.8-.27-1.62-1.08-1.83-.81-.21-1.62,.27-1.83,1.08l-2.07,7.88L8.45,1.12c-.21-.8-1.03-1.29-1.83-1.08-.8,.21-1.28,1.03-1.08,1.83l2.02,7.96Z"/></svg>
