<?xml version="1.0" encoding="UTF-8"?>
<svg xmlns="http://www.w3.org/2000/svg" id="Layer_1" data-name="Layer 1" viewBox="0 0 24 24" width="512" height="512"><path d="M8.13,3.293L11.293,.293c.391-.391,1.024-.391,1.414,0l3.163,3c.63,.63,.184,1.707-.707,1.707h-1.663v2.5c0,.829-.672,1.5-1.5,1.5s-1.5-.671-1.5-1.5v-2.5h-1.663c-.891,0-1.337-1.077-.707-1.707Zm7.034,15.707h-1.663v-2.5c0-.829-.672-1.5-1.5-1.5s-1.5,.671-1.5,1.5v2.5h-1.663c-.891,0-1.337,1.077-.707,1.707l3.163,3c.391,.391,1.024,.391,1.414,0l3.163-3c.63-.63,.184-1.707-.707-1.707Zm6.837-8.5c-.828,0-1.5,.672-1.5,1.5s.672,1.5,1.5,1.5,1.5-.672,1.5-1.5-.672-1.5-1.5-1.5Zm-11.5,1.5c0,.828,.672,1.5,1.5,1.5s1.5-.672,1.5-1.5-.672-1.5-1.5-1.5-1.5,.672-1.5,1.5Zm6.5-1.5c-.828,0-1.5,.672-1.5,1.5s.672,1.5,1.5,1.5,1.5-.672,1.5-1.5-.672-1.5-1.5-1.5Zm-8.5,1.5c0-.828-.672-1.5-1.5-1.5s-1.5,.672-1.5,1.5,.672,1.5,1.5,1.5,1.5-.672,1.5-1.5Zm-6.5-1.5c-.828,0-1.5,.672-1.5,1.5s.672,1.5,1.5,1.5,1.5-.672,1.5-1.5-.672-1.5-1.5-1.5Z"/></svg>
