<?xml version="1.0" encoding="UTF-8"?>
<svg xmlns="http://www.w3.org/2000/svg" id="Layer_1" data-name="Layer 1" viewBox="0 0 24 24">
  <path d="m5.5,12c-3.032,0-5.5,2.467-5.5,5.5s2.468,5.5,5.5,5.5,5.5-2.467,5.5-5.5-2.468-5.5-5.5-5.5Zm0,8c-1.379,0-2.5-1.122-2.5-2.5s1.121-2.5,2.5-2.5,2.5,1.122,2.5,2.5-1.121,2.5-2.5,2.5ZM24,6.5c0-3.033-2.468-5.5-5.5-5.5h-5c-2.833,0-5.173,2.154-5.468,4.911L2.561.439C1.975-.146,1.025-.146.439.439-.146,1.025-.146,1.975.439,2.561l21,21c.293.293.677.439,1.061.439s.768-.146,1.061-.439c.586-.585.586-1.536,0-2.121l-.65-.65c.703-.939,1.09-2.085,1.09-3.289V6.5Zm-13,0c0-1.378,1.121-2.5,2.5-2.5h5c1.379,0,2.5,1.122,2.5,2.5v6.102c-.751-.385-1.6-.602-2.5-.602-1.205,0-2.35.387-3.289,1.09l-4.211-4.211v-2.379Zm6.384,8.763c.342-.171.722-.263,1.116-.263,1.379,0,2.5,1.122,2.5,2.5,0,.394-.092.775-.263,1.116l-3.354-3.354Z"/>
</svg>
