<?xml version="1.0" encoding="UTF-8"?>
<svg xmlns="http://www.w3.org/2000/svg" id="Layer_1" data-name="Layer 1" viewBox="0 0 24 24" width="512" height="512"><path d="m6,2.5c0-1.379,1.121-2.5,2.5-2.5s2.5,1.121,2.5,2.5-1.121,2.5-2.5,2.5-2.5-1.121-2.5-2.5Zm14.5,18.5h-1.369l-1.275-4.463c-.427-1.493-1.811-2.537-3.365-2.537h-3.991c-.276,0-.5-.225-.5-.5v-1.5h5.5c.829,0,1.5-.672,1.5-1.5s-.671-1.5-1.5-1.5h-5.5v-1.5c0-.828-.671-1.5-1.5-1.5s-1.5.672-1.5,1.5v6c0,1.93,1.57,3.5,3.5,3.5h3.991c.222,0,.42.149.481.362l1.378,4.825c.306,1.067,1.294,1.812,2.404,1.812h1.746c.829,0,1.5-.672,1.5-1.5s-.671-1.5-1.5-1.5Zm-8-2h-2c-3.033,0-5.5-2.468-5.5-5.5v-6c0-.828-.671-1.5-1.5-1.5s-1.5.672-1.5,1.5v6c0,4.687,3.813,8.5,8.5,8.5h2c.829,0,1.5-.672,1.5-1.5s-.671-1.5-1.5-1.5Z"/></svg>
