<?xml version="1.0" encoding="UTF-8"?>
<svg xmlns="http://www.w3.org/2000/svg" id="Layer_1" data-name="Layer 1" viewBox="0 0 24 24" width="512" height="512"><path d="m12,0C5.383,0,0,5.383,0,12s5.383,12,12,12,12-5.383,12-12S18.617,0,12,0Zm0,21c-4.963,0-9-4.037-9-9S7.037,3,12,3s9,4.037,9,9-4.037,9-9,9Zm4.684-11.829l-3.184,4.093v3.236c0,.828-.672,1.5-1.5,1.5s-1.5-.672-1.5-1.5v-3.236l-3.184-4.093c-.509-.654-.392-1.597.263-2.104.652-.509,1.597-.392,2.104.263l2.316,2.978,2.316-2.978c.507-.654,1.451-.771,2.104-.263.654.508.771,1.45.263,2.104Z"/></svg>
