<?xml version="1.0" encoding="UTF-8"?>
<svg xmlns="http://www.w3.org/2000/svg" id="Layer_1" data-name="Layer 1" viewBox="0 0 24 24" width="512" height="512"><path d="m17.153,16.032c.531-.903.837-1.956.837-3.08v-1.903c0-3.335-2.687-6.048-5.989-6.048s-6.011,2.713-6.011,6.048v1.903c0,3.335,2.696,6.048,6.011,6.048,1.109,0,2.148-.306,3.04-.839l.399.399c.293.293.677.439,1.061.439s.768-.146,1.061-.439c.586-.586.586-1.535,0-2.121l-.408-.408Zm-5.153-.032c-1.66,0-3.011-1.367-3.011-3.048v-1.903c0-1.681,1.351-3.048,3.011-3.048,1.676,0,2.989,1.339,2.989,3.048v1.903c0,.283-.037.555-.104.812l-.325-.325c-.586-.586-1.535-.586-2.121,0s-.586,1.535,0,2.121l.339.339c-.247.066-.508.101-.778.101ZM18.5,0H5.5C2.468,0,0,2.467,0,5.5v13c0,3.032,2.468,5.5,5.5,5.5h13c3.032,0,5.5-2.468,5.5-5.5V5.5c0-3.033-2.468-5.5-5.5-5.5Zm2.5,18.5c0,1.379-1.121,2.5-2.5,2.5H5.5c-1.379,0-2.5-1.121-2.5-2.5V5.5c0-1.378,1.121-2.5,2.5-2.5h13c1.379,0,2.5,1.122,2.5,2.5v13Z"/></svg>
