<?xml version="1.0" encoding="UTF-8"?>
<svg xmlns="http://www.w3.org/2000/svg" id="Layer_1" data-name="Layer 1" viewBox="0 0 24 24" width="512" height="512"><path d="M19.79,10.4c-.5-.66-.36-1.6,.3-2.1,.66-.5,1.6-.36,2.1,.3,.76,1.02,1.35,2.18,1.74,3.46,.25,.79-.2,1.63-.99,1.88-.15,.05-.3,.07-.45,.07-.64,0-1.23-.41-1.43-1.06-.29-.95-.72-1.8-1.28-2.55Zm1.29,6.61s0,0,0,0h0Zm1.42-1.01c-.65,0-1.21,.43-1.42,1.01-.38,1.1-1.5,1.99-2.58,1.99-.48,0-.95-.15-1.4-.39,1.23-1.55,1.9-3.33,1.9-4.61,0-2.21-1.79-4-4-4s-4,1.79-4,4c0,1.25,.61,2.96,1.67,4.48-.65,.32-1.37,.52-2.17,.52-1.07,0-2.14-.65-3.13-1.66,2.26-3.27,3.63-7.41,3.63-9.84,0-3.03-2.47-5.5-5.5-5.5S0,4.47,0,7.5c0,2.33,1.3,6.55,3.53,9.85-.78,.82-1.63,1.44-2.51,1.73-.79,.26-1.21,1.11-.95,1.9,.21,.63,.79,1.03,1.42,1.03,.16,0,.32-.02,.47-.08,1.26-.42,2.43-1.22,3.48-2.26,1.45,1.41,3.16,2.34,5.05,2.34,1.65,0,3.1-.51,4.31-1.29,1.07,.78,2.31,1.29,3.69,1.29,2.29,0,4.55-1.67,5.37-3.9,.08-.18,.13-.39,.13-.6,0-.83-.67-1.5-1.5-1.5ZM3,7.5c0-1.38,1.12-2.5,2.5-2.5s2.5,1.12,2.5,2.5c0,1.7-1.01,4.73-2.55,7.28-1.46-2.46-2.45-5.43-2.45-7.28Zm11.96,9c-.59-.91-.96-1.86-.96-2.5,0-.55,.45-1,1-1s1,.45,1,1c0,.62-.37,1.58-1.04,2.5Z"/></svg>
