<?xml version="1.0" encoding="UTF-8"?>
<svg xmlns="http://www.w3.org/2000/svg" id="Layer_1" data-name="Layer 1" viewBox="0 0 24 24">
  <path d="m22.5,1c-.829,0-1.5.672-1.5,1.5v5.154l-5.039-3.846c-.723-.528-1.567-.808-2.443-.808-.816,0-1.472.243-1.887.451-.999.507-1.758,1.481-2.094,2.609l-2.924-2.253c-.723-.528-1.567-.808-2.443-.808-.816,0-1.472.243-1.887.451-1.43.726-2.284,2.113-2.284,3.71v9.677c0,1.597.851,2.982,2.282,3.71,1.391.697,3.056.578,4.362-.379l2.854-2.198c.303,1.105,1.052,2.028,2.132,2.577.59.296,1.243.452,1.889.452.876,0,1.722-.28,2.468-.827l5.014-3.828v5.155c0,.828.671,1.5,1.5,1.5s1.5-.672,1.5-1.5V2.5c0-.828-.671-1.5-1.5-1.5Zm-1.996,11.95l-6.314,4.82c-.407.298-.974.216-1.208.1-.409-.208-.634-.574-.634-1.032v-1.801c0-.571-.325-1.094-.838-1.346-.21-.104-.437-.154-.662-.154-.325,0-.648.105-.916.312l-5.09,3.922c-.407.298-.974.216-1.208.1-.409-.208-.634-.574-.634-1.032V7.161c0-.457.228-.825.635-1.032.19-.095.819-.184,1.178.078l5.12,3.944c.453.349,1.065.41,1.578.157.513-.252.838-.774.838-1.346v-1.611c0-.513.276-1.04.635-1.223.19-.095.812-.188,1.183.082l6.363,4.856c.304.224.472.555.472.933s-.168.709-.496.95Z"/>
</svg>
