<?xml version="1.0" encoding="UTF-8"?>
<svg xmlns="http://www.w3.org/2000/svg" id="Layer_1" data-name="Layer 1" viewBox="0 0 24 24" width="512" height="512"><path d="M21.83,18.54c-1.77,3.42-5.05,5.46-8.79,5.46h-.95c-5.56,0-10.09-4.53-10.09-10.09v-3.82C2,4.53,6.53,0,12.09,0h.95c3.76,0,7.05,2.1,8.8,5.6,.37,.74,.07,1.64-.68,2.01-.74,.37-1.64,.07-2.01-.67-1.24-2.5-3.47-3.94-6.11-3.94h-.95c-3.91,0-7.09,3.18-7.09,7.09v3.82c0,2.8,1.63,5.23,4,6.38V11.5c0-.83,.67-1.5,1.5-1.5,.68,0,1.25,.45,1.44,1.07,1.02-.67,2.25-1.07,3.56-1.07h1c.83,0,1.5,.67,1.5,1.5s-.67,1.5-1.5,1.5h-1c-1.93,0-3.5,1.57-3.5,3.5v4.5s.06,0,.09,0h.95c2.59,0,4.88-1.44,6.12-3.84,.38-.74,1.28-1.02,2.02-.64,.74,.38,1.02,1.29,.64,2.02Z"/></svg>
