<?xml version="1.0" encoding="UTF-8"?>
<svg xmlns="http://www.w3.org/2000/svg" id="Layer_1" data-name="Layer 1" viewBox="0 0 24 24">
  <path d="m21.925,14.263c-3.755-.674-6.529.78-8.425,2.76v-2.101c.532-.732,1.002-1.665,1.002-2.682,0-.063-.009-.124-.012-.186,1.141.621,2.537.527,3.534.328.769-.153,1.223-.953.987-1.7-.273-.864-.771-1.958-1.646-2.679.876-.72,1.373-1.815,1.646-2.679.237-.747-.218-1.547-.987-1.7-.997-.199-2.395-.293-3.536.329.005-.073.014-.145.014-.218,0-1.348-.824-2.549-1.526-3.328-.519-.576-1.432-.576-1.952,0-.702.779-1.526,1.98-1.526,3.328,0,.074.009.146.014.218-1.141-.623-2.538-.528-3.535-.33-.768.153-1.223.952-.987,1.699.272.859.765,1.946,1.632,2.667-.867.721-1.36,1.808-1.632,2.667-.236.747.219,1.546.987,1.699.997.199,2.394.293,3.535-.329-.005.071-.014.141-.014.212,0,1.017.469,1.951,1.002,2.682v2.047c-1.896-2.005-4.669-3.478-8.429-2.803C.78,14.396-.126,15.58.008,16.862c.219,2.1,1.122,3.792,2.684,5.029,3.217,2.55,8.23,2.119,9.3,2.017.314.034.969.092,1.82.092,2.043,0,5.213-.24,7.486-2.024,1.564-1.227,2.469-2.915,2.688-5.019.133-1.278-.773-2.462-2.062-2.694Zm-17.375,5.273c-.792-.63-1.28-1.446-1.483-2.486,3.626-.416,5.695,2.144,6.704,4.016-1.587-.054-3.757-.365-5.221-1.529Zm7.45-13.536c1.105,0,2,.895,2,2s-.895,2-2,2-2-.895-2-2,.895-2,2-2Zm7.453,13.61c-1.464,1.152-3.638,1.44-5.224,1.478.934-1.707,2.769-3.988,5.909-3.988.254,0,.519.016.79.047-.203,1.035-.688,1.845-1.476,2.464Z"/>
</svg>
