<?xml version="1.0" encoding="UTF-8"?>
<svg xmlns="http://www.w3.org/2000/svg" id="Layer_1" data-name="Layer 1" viewBox="0 0 24 24">
  <path d="m16.5,13.5c0,.828-.671,1.5-1.5,1.5h-1.5v1.5c0,.828-.671,1.5-1.5,1.5s-1.5-.672-1.5-1.5v-1.5h-1.5c-.829,0-1.5-.672-1.5-1.5s.671-1.5,1.5-1.5h1.5v-1.5c0-.828.671-1.5,1.5-1.5s1.5.672,1.5,1.5v1.5h1.5c.829,0,1.5.672,1.5,1.5Zm6.5-9c0,.828-.671,1.5-1.5,1.5h-.5v12.5c0,3.032-2.467,5.5-5.5,5.5h-7c-3.033,0-5.5-2.468-5.5-5.5V6h-.5c-.829,0-1.5-.672-1.5-1.5s.671-1.5,1.5-1.5h3.757c.619-1.746,2.287-3,4.243-3h3c1.956,0,3.624,1.254,4.243,3h3.757c.829,0,1.5.672,1.5,1.5Zm-5,1.5H6v12.5c0,1.379,1.122,2.5,2.5,2.5h7c1.378,0,2.5-1.121,2.5-2.5V6Z"/>
</svg>
