<?xml version="1.0" encoding="UTF-8"?>
<svg xmlns="http://www.w3.org/2000/svg" id="Layer_1" data-name="Layer 1" viewBox="0 0 24 24" width="512" height="512"><path d="M9.5,19c1.381,0,2.5,1.119,2.5,2.5s-1.119,2.5-2.5,2.5-2.5-1.119-2.5-2.5,1.119-2.5,2.5-2.5Zm8.5,2.5c0,1.381,1.119,2.5,2.5,2.5s2.5-1.119,2.5-2.5-1.119-2.5-2.5-2.5-2.5,1.119-2.5,2.5Zm4.5-5.5H8.5c-1.379,0-2.5-1.122-2.5-2.5V4.5C6,2.019,3.981,0,1.5,0,.672,0,0,.671,0,1.5s.672,1.5,1.5,1.5,1.5,.673,1.5,1.5V13.5c0,3.033,2.468,5.5,5.5,5.5h14c.828,0,1.5-.671,1.5-1.5s-.672-1.5-1.5-1.5Zm1.5-8.5v2c0,2.481-2.019,4.5-4.5,4.5h-7c-2.481,0-4.5-2.019-4.5-4.5v-2c0-2.312,1.753-4.223,4-4.472v-.528c0-1.378,1.121-2.5,2.5-2.5h3c1.379,0,2.5,1.122,2.5,2.5v.528c2.247,.25,4,2.16,4,4.472Zm-3,0c0-.827-.673-1.5-1.5-1.5h-7c-.827,0-1.5,.673-1.5,1.5v2c0,.827,.673,1.5,1.5,1.5h7c.827,0,1.5-.673,1.5-1.5v-2Z"/></svg>
