<?xml version="1.0" encoding="UTF-8"?>
<svg xmlns="http://www.w3.org/2000/svg" id="Layer_1" data-name="Layer 1" viewBox="0 0 24 24">
  <path d="m22.261,2.025c-1.025-.253-2.081.228-2.567,1.164-1.986,3.824-4.782,5.514-6.693,6.254v-.943c0-.828-.671-1.5-1.5-1.5s-1.5.672-1.5,1.5v1.5h-2v-1.5c0-.828-.671-1.5-1.5-1.5s-1.5.672-1.5,1.5v1.5H1.5c-.829,0-1.5.672-1.5,1.5s.671,1.5,1.5,1.5h1.102c-.385.751-.602,1.6-.602,2.5,0,3.032,2.467,5.5,5.5,5.5h3c3.033,0,5.5-2.468,5.5-5.5,0-.079-.002-.157-.005-.234,1.28,1,2.593,2.435,3.671,4.493.404.771,1.194,1.233,2.034,1.233.183,0,.369-.021.553-.067,1.044-.257,1.747-1.152,1.747-2.229V4.239c0-1.054-.715-1.964-1.739-2.214Zm-11.761,15.975h-3c-1.378,0-2.5-1.121-2.5-2.5s1.122-2.5,2.5-2.5h3c1.378,0,2.5,1.121,2.5,2.5s-1.122,2.5-2.5,2.5Zm10.5-1.789c-1.673-2.338-3.606-3.799-5.317-4.711,1.71-.912,3.644-2.373,5.317-4.71v9.421Z"/>
</svg>
