<?xml version="1.0" encoding="UTF-8"?>
<svg xmlns="http://www.w3.org/2000/svg" id="Layer_1" data-name="Layer 1" viewBox="0 0 24 24" width="512" height="512"><path d="M23.15,9.21c-.57-.66-1.36-1.08-2.22-1.18C20.44,3.52,16.62,0,11.99,0S3.53,3.52,3.04,8.03c-.84,.11-1.62,.53-2.19,1.18C.19,9.98-.11,11,.04,12.01l1.01,6.86c.43,2.92,2.98,5.13,5.94,5.13h10.04c2.96,0,5.51-2.21,5.94-5.13l1.01-6.86c.15-1.01-.15-2.03-.82-2.8ZM11.99,3c2.96,0,5.43,2.17,5.91,5H6.07c.48-2.83,2.95-5,5.91-5Zm9.01,8.57l-1.01,6.86c-.21,1.46-1.49,2.56-2.97,2.56H6.98c-1.48,0-2.75-1.1-2.97-2.56l-1.01-6.86c-.03-.2,.06-.33,.12-.4,.06-.06,.18-.17,.38-.17H20.5c.2,0,.32,.11,.38,.17,.06,.06,.15,.2,.12,.4Z"/></svg>
