<?xml version="1.0" encoding="UTF-8"?>
<svg xmlns="http://www.w3.org/2000/svg" id="Layer_1" data-name="Layer 1" viewBox="0 0 24 24" width="512" height="512"><path d="M20,14h-6.5v-4h1.16c.75,0,1.12-.91,.59-1.43l-2.66-2.66c-.33-.33-.86-.33-1.19,0l-2.66,2.66c-.53,.53-.15,1.43,.59,1.43h1.16v4H4c-2.21,0-4,1.79-4,4v2c0,2.21,1.79,4,4,4H20c2.21,0,4-1.79,4-4v-2c0-2.21-1.79-4-4-4Zm1,6c0,.55-.45,1-1,1H4c-.55,0-1-.45-1-1v-2c0-.55,.45-1,1-1H20c.55,0,1,.45,1,1v2Zm3-16v2c0,2.21-1.79,4-4,4h-2.64c.31-1,.06-2.1-.7-2.85l-2.66-2.66c-1.11-1.11-2.91-1.11-4.02,0l-2.66,2.66c-.75,.75-1.01,1.85-.7,2.85h-2.64C1.79,10,0,8.21,0,6v-2C0,1.79,1.79,0,4,0H20c2.21,0,4,1.79,4,4Z"/></svg>
