<?xml version="1.0" encoding="UTF-8"?>
<svg xmlns="http://www.w3.org/2000/svg" id="Layer_1" data-name="Layer 1" viewBox="0 0 24 24" width="512" height="512"><path d="m18.508,8.957c-.787-2.854-3.406-4.957-6.508-4.957s-5.72,2.103-6.508,4.957C1.992,10.012,0,11.843,0,14.035c0,3.916,6.037,5.965,12,5.965s12-2.049,12-5.965c0-2.192-1.992-4.023-5.492-5.078Zm-6.508-1.957c1.921,0,3.509,1.452,3.725,3.316-.541.281-1.673.684-3.725.684-2.073,0-3.208-.41-3.726-.675.211-1.868,1.802-3.325,3.726-3.325Zm0,10c-5.583,0-9-1.92-9-2.965,0-.461.831-1.295,2.646-1.967.409.457,2.061,1.932,6.354,1.932s5.945-1.475,6.354-1.932c1.815.671,2.646,1.506,2.646,1.967,0,1.045-3.417,2.965-9,2.965Z"/></svg>
