<?xml version="1.0" encoding="UTF-8"?>
<svg xmlns="http://www.w3.org/2000/svg" id="Layer_1" data-name="Layer 1" viewBox="0 0 24 24" width="512" height="512"><path d="M24,12c0,6.617-5.383,12-12,12S0,18.617,0,12c0-.367,.017-.73,.049-1.089,.074-.825,.807-1.433,1.629-1.359,.825,.075,1.434,.804,1.359,1.629-.024,.27-.037,.543-.037,.82,0,4.962,4.038,9,9,9s9-4.038,9-9c0-.276-.013-.55-.037-.82-.074-.825,.535-1.554,1.359-1.629,.826-.072,1.555,.534,1.629,1.359,.032,.359,.049,.722,.049,1.089ZM15.192,6.212l3.287,.548c.302,.05,.521,.309,.521,.616,0,.344-.28,.624-.624,.624h-2.644c-.356,0-.688-.192-.867-.5-.277-.479-.89-.642-1.366-.365-.479,.277-.642,.888-.365,1.366,.535,.925,1.53,1.499,2.598,1.499h.268c0,.552,.448,1,1,1s1-.448,1-1h.376c1.447,0,2.624-1.177,2.624-2.624,0-1.288-.922-2.377-2.192-2.588l-3.287-.548c-.302-.05-.521-.309-.521-.616,0-.344,.28-.624,.624-.624h2.644c.356,0,.688,.192,.867,.5,.277,.479,.89,.642,1.366,.365,.479-.277,.642-.888,.365-1.366-.535-.925-1.531-1.5-2.598-1.5h-.268c0-.552-.448-1-1-1s-1,.448-1,1h-.376c-1.447,0-2.624,1.177-2.624,2.624,0,1.288,.922,2.377,2.192,2.588Zm-10,0l3.287,.548c.302,.05,.521,.309,.521,.616,0,.344-.28,.624-.624,.624h-2.644c-.356,0-.688-.192-.867-.5-.277-.479-.889-.642-1.366-.365-.479,.277-.642,.888-.365,1.366,.535,.925,1.53,1.499,2.598,1.499h.268c0,.552,.448,1,1,1s1-.448,1-1h.376c1.447,0,2.624-1.177,2.624-2.624,0-1.288-.922-2.377-2.192-2.588l-3.287-.548c-.302-.05-.521-.309-.521-.616,0-.344,.28-.624,.624-.624h2.644c.356,0,.688,.192,.867,.5,.277,.479,.889,.642,1.366,.365,.479-.277,.642-.888,.365-1.366-.535-.925-1.531-1.5-2.598-1.5h-.268c0-.552-.448-1-1-1s-1,.448-1,1h-.376c-1.447,0-2.624,1.177-2.624,2.624,0,1.288,.922,2.377,2.192,2.588Zm11.308,6.788H7.5c-.829,0-1.5,.671-1.5,1.5s.671,1.5,1.5,1.5h1.549c.232,1.579,1.352,3,2.951,3s2.719-1.421,2.951-3h1.549c.829,0,1.5-.671,1.5-1.5s-.671-1.5-1.5-1.5Z"/></svg>
