<?xml version="1.0" encoding="UTF-8"?>
<svg xmlns="http://www.w3.org/2000/svg" id="Layer_1" data-name="Layer 1" viewBox="0 0 24 24">
  <path d="m19.046,9.046c-.777,0-1.463-.551-1.632-1.311l-.219-.994c-.878-3.969-4.33-6.742-8.395-6.742C3.948,0,0,3.948,0,8.8v10.2c0,2.757,2.243,5,5,5h14c2.757,0,5-2.243,5-5v-5c0-2.731-2.222-4.954-4.954-4.954ZM8.8,3c2.646,0,4.894,1.805,5.465,4.389l.22.995h0c.477,2.157,2.353,3.663,4.561,3.663,1.077,0,1.954.876,1.954,1.954H3v-5.2c0-3.198,2.602-5.8,5.8-5.8Zm10.2,18H5c-1.103,0-2-.897-2-2v-2h2v1.5c0,.829.671,1.5,1.5,1.5s1.5-.671,1.5-1.5v-1.5h2v1.5c0,.829.671,1.5,1.5,1.5s1.5-.671,1.5-1.5v-1.5h3v1.5c0,.829.671,1.5,1.5,1.5s1.5-.671,1.5-1.5v-1.5h2v2c0,1.103-.897,2-2,2Z"/>
</svg>
