<?xml version="1.0" encoding="UTF-8"?>
<svg xmlns="http://www.w3.org/2000/svg" id="Layer_1" data-name="Layer 1" viewBox="0 0 24 24" width="512" height="512"><path d="m21.385,6.43l-1.205-2.978c-.848-2.097-2.868-3.452-5.146-3.452h-6.068c-2.277,0-4.298,1.355-5.146,3.452l-1.205,2.979c-.646,1.599-.788,3.331-.41,5.009l1.855,8.258c.57,2.533,2.795,4.303,5.411,4.303h5.057c2.616,0,4.841-1.77,5.412-4.304l1.854-8.256c.379-1.679.237-3.411-.409-5.01Zm-2.518,4.352l-1.854,8.256c-.261,1.155-1.282,1.962-2.485,1.962h-5.057c-1.203,0-2.225-.807-2.484-1.961l-1.855-8.258c-.243-1.081-.151-2.196.265-3.226l1.205-2.978c.388-.958,1.315-1.577,2.364-1.577h6.068c1.049,0,1.977.619,2.364,1.577l1.205,2.978c.416,1.03.508,2.146.264,3.228Z"/></svg>
