<?xml version="1.0" encoding="UTF-8"?>
<svg xmlns="http://www.w3.org/2000/svg" id="Layer_1" data-name="Layer 1" viewBox="0 0 24 24" width="512" height="512"><path d="m22.041.989c-1.246-.937-2.818-1.227-4.312-.79l-7.7,2.229c-.717.208-1.521.374-2.457.508-1.575.226-2.698.663-3.337,1.302h0c-.639.64-1.077,1.762-1.303,3.339-.134.935-.3,1.738-.508,2.456L.196,17.732c-.433,1.496-.145,3.067.791,4.312.936,1.245,2.365,1.959,3.922,1.959h6.121c.182,0,4.493-.049,8.707-4.263,4.214-4.214,4.263-8.526,4.263-8.708v-6.121c0-1.557-.714-2.987-1.959-3.923Zm-3.478,2.091c.581-.167,1.191-.057,1.675.308.484.364.762.919.762,1.524v3.457l-4.648-4.648,2.211-.64ZM3.385,20.242c-.363-.483-.476-1.095-.307-1.676l.64-2.211,4.648,4.648h-3.456c-.605,0-1.161-.277-1.524-.762Zm14.231-2.622c-2.014,2.014-3.982,2.827-5.236,3.157l-7.711-7.711.636-2.199c.247-.854.442-1.791.596-2.866.145-1.011.371-1.514.456-1.64.127-.085.629-.312,1.641-.456,1.075-.154,2.012-.349,2.865-.596l2.199-.637,7.71,7.71c-.331,1.257-1.144,3.224-3.156,5.237Zm-4.056-7.056l-3,3c-.293.293-.677.439-1.061.439s-.768-.146-1.061-.439c-.586-.586-.586-1.535,0-2.121l3-3c.586-.586,1.535-.586,2.121,0s.586,1.535,0,2.121Zm3.5,1.379c.586.586.586,1.535,0,2.121l-3,3c-.293.293-.677.439-1.061.439s-.768-.146-1.061-.439c-.586-.586-.586-1.535,0-2.121l3-3c.586-.586,1.535-.586,2.121,0Z"/></svg>
