<?xml version="1.0" encoding="UTF-8"?>
<svg xmlns="http://www.w3.org/2000/svg" id="Layer_1" data-name="Layer 1" viewBox="0 0 24 24" width="512" height="512"><path d="m24,4.086c0-1.091-.425-2.117-1.197-2.889h0c-1.594-1.593-4.187-1.592-5.776-.002L7.896,10.288l-3.457,1.156c-1.142.457-1.994,1.396-2.34,2.575L.102,20.83c-.255.868-.016,1.805.624,2.445.47.471,1.101.724,1.747.724.232,0,.467-.033.696-.1l6.812-1.999c1.18-.346,2.117-1.199,2.595-2.391l1.313-3.656,8.914-8.878c.772-.771,1.197-1.798,1.197-2.89Zm-14.229,14.358c-.112.282-.344.492-.634.577l-3.866,1.134,2.437-2.45c.39-.392.388-1.025-.004-1.414-.392-.39-1.024-.388-1.414.004l-2.458,2.471,1.145-3.904c.085-.29.295-.521.493-.603l3.17-1.058,2.216,2.216-1.086,3.028Zm10.912-13.593l-8.091,8.058-1.536-1.536L19.146,3.318c.423-.422,1.111-.424,1.536,0h0c.205.206.318.479.318.768s-.112.562-.316.766Z"/></svg>
