<?xml version="1.0" encoding="UTF-8"?>
<svg xmlns="http://www.w3.org/2000/svg" id="Layer_1" data-name="Layer 1" viewBox="0 0 24 24" width="512" height="512"><path d="M12,8c-1.1,0-2-.9-2-2V3H5.5c-1.38,0-2.5,1.12-2.5,2.5v11c0,1.38,1.12,2.5,2.5,2.5h2c.83,0,1.5,.67,1.5,1.5s-.67,1.5-1.5,1.5h-2c-3.03,0-5.5-2.47-5.5-5.5V5.5C0,2.47,2.47,0,5.5,0h4.76c1.18,0,2.34,.48,3.18,1.32l3.24,3.24c.75,.75,1.22,1.76,1.3,2.82,.07,.83-.55,1.55-1.37,1.62-.04,0-.08,0-.12,0-.64,0-1.2-.41-1.41-1h-3.08Zm12,9.5c0,3.59-2.91,6.5-6.5,6.5s-6.5-2.91-6.5-6.5,2.91-6.5,6.5-6.5,6.5,2.91,6.5,6.5Zm-5,1c0-.83-.67-1.5-1.5-1.5s-1.5,.67-1.5,1.5v1c0,.83,.67,1.5,1.5,1.5s1.5-.67,1.5-1.5v-1Zm0-4c0-.83-.67-1.5-1.5-1.5s-1.5,.67-1.5,1.5,.67,1.5,1.5,1.5,1.5-.67,1.5-1.5Z"/></svg>
