<?xml version="1.0" encoding="UTF-8"?>
<svg xmlns="http://www.w3.org/2000/svg" id="Layer_1" data-name="Layer 1" viewBox="0 0 24 24" width="512" height="512"><path d="M8.609,5.426c-.78-.78-.78-2.049,0-2.829l1.988-1.988c.779-.78,2.049-.78,2.828,0l1.988,1.988c.78,.78,.78,2.049,0,2.829l-1.988,1.988c-.39,.39-.902,.585-1.414,.585s-1.024-.195-1.414-.585l-1.988-1.988Zm12.891-1.426c-1.379,0-2.5,1.122-2.5,2.5v3.605c-1.239-.278-2.589,.055-3.551,1.017l-3.482,3.482c-.155-.177-.313-.354-.486-.527l-2.877-2.875c-.986-.987-2.349-1.362-3.604-1.099v-3.603c0-1.378-1.121-2.5-2.5-2.5S0,5.122,0,6.5v11.015c0,2.004,.78,3.888,2.197,5.303l.742,.743c.292,.293,.677,.439,1.061,.439s.768-.146,1.061-.439c.586-.585,.586-1.535,0-2.122l-.742-.743c-.851-.849-1.318-1.979-1.318-3.182v-1.119l2.443,2.425c.589,.583,1.538,.58,2.121-.008,.584-.588,.58-1.538-.008-2.122l-2.449-2.431c-.102-.167-.141-.362-.11-.559,.024-.158,.105-.383,.35-.556,.312-.223,.813-.146,1.137,.178l2.877,2.875c1.095,1.095,1.627,2.237,1.627,3.492v2.81c0,.829,.672,1.5,1.5,1.5s1.5-.671,1.5-1.5v-2.81c0-.842-.149-1.654-.429-2.436l4.012-4.012c.324-.323,.85-.324,1.174,0,.271,.271,.317,.694,.123,1.017l-2.424,2.405c-.588,.583-.592,1.533-.008,2.122,.293,.295,.679,.443,1.064,.443,.382,0,.764-.145,1.057-.435l2.443-2.424v1.144c0,1.203-.468,2.333-1.318,3.182l-.742,.743c-.586,.586-.586,1.536,0,2.122,.293,.292,.677,.439,1.061,.439s.769-.146,1.061-.439l.742-.742c1.417-1.416,2.197-3.299,2.197-5.304V6.5c0-1.378-1.121-2.5-2.5-2.5Z"/></svg>
