<?xml version="1.0" encoding="UTF-8"?>
<svg xmlns="http://www.w3.org/2000/svg" id="Layer_1" data-name="Layer 1" viewBox="0 0 24 24">
  <path d="m23.043,11.951l-1.13-.676,1.281-.668c.487-.254.796-.753.806-1.302.01-.549-.28-1.06-.758-1.332L10.235.572C9.176-.021,7.95-.16,6.785.179c-1.166.338-2.125,1.112-2.703,2.18-.001.002-.003.005-.004.008l-1.024,1.92c-1.166,2.155-.374,4.878,1.755,6.065l5.181,2.947-.997,2.992c-.341,1.022-1.294,1.709-2.372,1.709h-3.62v-1.5c0-.829-.671-1.5-1.5-1.5s-1.5.671-1.5,1.5v6c0,.829.671,1.5,1.5,1.5s1.5-.671,1.5-1.5v-1.5h3.62c2.371,0,4.468-1.511,5.217-3.761l.81-2.429,2.047,1.164c.58.33,1.22.498,1.869.498.348,0,.698-.048,1.043-.146.384-.109.732-.29,1.055-.504l1.624.971c.235.141.501.213.77.213.134,0,.268-.018.399-.054.395-.109.728-.375.922-.736l1.218-2.268c.379-.706.137-1.586-.551-1.998Zm-6.865,1.417L6.281,7.738c-.713-.398-.977-1.306-.584-2.032l1.026-1.923c.193-.354.512-.611.899-.724.389-.113.797-.066,1.14.125l10.656,6.064c-.125.113-.23.247-.311.396l-1.843,3.413c-.139.253-.359.348-.479.382-.12.034-.357.069-.608-.073Z"/>
</svg>
