<?xml version="1.0" encoding="UTF-8"?>
<svg xmlns="http://www.w3.org/2000/svg" id="Layer_1" data-name="Layer 1" viewBox="0 0 24 24" width="512" height="512"><path d="m22.125,16.452c.125.032.252.048.376.048.667,0,1.277-.448,1.451-1.125.208-.802-.275-1.62-1.077-1.827l-.959-.248c.055-.426.084-.859.084-1.3s-.029-.874-.084-1.3l.959-.248c.802-.207,1.285-1.025,1.077-1.827-.207-.803-1.026-1.281-1.827-1.077l-1.043.269c-.286-.618-.633-1.202-1.033-1.745l1.098-1.098c.116.016.234.025.354.025,1.381,0,2.5-1.119,2.5-2.5s-1.119-2.5-2.5-2.5-2.5,1.119-2.5,2.5c0,.12.009.238.025.354l-1.098,1.098c-.542-.401-1.127-.748-1.745-1.034l.27-1.043c.208-.802-.274-1.62-1.077-1.827-.8-.205-1.62.274-1.828,1.077l-.248.959c-.426-.055-.859-.084-1.3-.084s-.874.029-1.3.084l-.248-.959c-.207-.803-1.022-1.282-1.828-1.077-.802.207-1.284,1.025-1.077,1.827l.27,1.043c-.618.286-1.203.633-1.745,1.034l-1.098-1.098c.016-.116.025-.234.025-.354,0-1.381-1.119-2.5-2.5-2.5S0,1.119,0,2.5s1.119,2.5,2.5,2.5c.12,0,.238-.009.354-.025l1.098,1.098c-.401.542-.748,1.127-1.033,1.745l-1.043-.27c-.804-.204-1.62.274-1.828,1.077-.208.802.274,1.62,1.077,1.827l.96.248c-.055.426-.084.859-.084,1.3,0,.443.029.879.085,1.306l-.951.239c-.804.202-1.292,1.017-1.09,1.82.171.681.782,1.135,1.454,1.135.121,0,.244-.015.366-.045l1.056-.265c.285.615.631,1.197,1.03,1.738l-1.098,1.098c-.116-.016-.234-.025-.354-.025-1.381,0-2.5,1.119-2.5,2.5s1.119,2.5,2.5,2.5,2.5-1.119,2.5-2.5c0-.12-.009-.238-.025-.354l1.098-1.098c.542.401,1.127.748,1.745,1.034l-.27,1.043c-.208.802.274,1.62,1.077,1.827.126.032.252.048.376.048.667,0,1.276-.448,1.451-1.125l.248-.959c.426.055.859.084,1.3.084s.874-.029,1.3-.084l.248.959c.175.677.784,1.125,1.451,1.125.124,0,.25-.016.376-.048.802-.207,1.284-1.025,1.077-1.827l-.27-1.043c.618-.286,1.202-.633,1.745-1.033l1.098,1.098c-.016.116-.025.234-.025.354,0,1.381,1.119,2.5,2.5,2.5s2.5-1.119,2.5-2.5-1.119-2.5-2.5-2.5c-.12,0-.238.009-.354.025l-1.098-1.098c.401-.542.748-1.127,1.033-1.745l1.043.269Zm-10.125,2.548c-3.866,0-7-3.134-7-7s3.134-7,7-7,7,3.134,7,7-3.134,7-7,7Zm1.5-3.464c0,.828-.672,1.5-1.5,1.5s-1.5-.672-1.5-1.5.672-1.5,1.5-1.5,1.5.672,1.5,1.5Zm2.036-2.036c-.828,0-1.5-.672-1.5-1.5s.672-1.5,1.5-1.5,1.5.672,1.5,1.5-.672,1.5-1.5,1.5Zm-2.036-5.5c0,.828-.672,1.5-1.5,1.5s-1.5-.672-1.5-1.5.672-1.5,1.5-1.5,1.5.672,1.5,1.5Zm-3.536,4c0,.828-.672,1.5-1.5,1.5s-1.5-.672-1.5-1.5.672-1.5,1.5-1.5,1.5.672,1.5,1.5Z"/></svg>
