<?xml version="1.0" encoding="UTF-8"?>
<svg xmlns="http://www.w3.org/2000/svg" id="Layer_1" data-name="Layer 1" viewBox="0 0 24 24" width="512" height="512"><path d="M6.152,2.185c-.377-.737-.085-1.641,.652-2.019,.743-.38,1.642-.086,2.019,.652l1.049,2.072-1.651,3.261-2.069-3.966Zm5.666,7.28c.051,.051,.087,.111,.134,.164l3.883-7.443c.377-.737,.085-1.641-.652-2.019-.743-.38-1.642-.086-2.019,.652l-3.799,7.501c.925,.093,1.787,.479,2.453,1.145Zm3.183,.035v4c0,.829,.672,1.5,1.5,1.5s1.5-.671,1.5-1.5v-4c0-.829-.672-1.5-1.5-1.5s-1.5,.671-1.5,1.5Zm5.5-1.5c-.828,0-1.5,.671-1.5,1.5v4c0,.829,.672,1.5,1.5,1.5s1.5-.671,1.5-1.5v-4c0-.829-.672-1.5-1.5-1.5Zm-1.5,8.662v.838c0,1.93-1.57,3.5-3.5,3.5h-3.23c-1.403,0-2.739-.529-3.763-1.489l-1.92-1.8,3.764-3.906c.797-.797,.797-2.089,0-2.886h0c-.797-.797-2.089-.797-2.886,0l-3.465,3.569,.004,.009c-.646,.658-1.004,1.525-1.004,2.449,0,.935,.364,1.814,1.06,2.508l2.395,2.246c1.581,1.484,3.646,2.301,5.815,2.301h3.23c3.584,0,6.5-2.916,6.5-6.5v-.838c-.455,.217-.964,.338-1.5,.338s-1.045-.122-1.5-.338Z"/></svg>
