<?xml version="1.0" encoding="UTF-8"?>
<svg xmlns="http://www.w3.org/2000/svg" id="Layer_1" data-name="Layer 1" viewBox="0 0 24 24" width="512" height="512"><path d="m17.5,0H6.5C3.467,0,1,2.467,1,5.5v14c0,2.481,2.019,4.5,4.5,4.5h12c3.033,0,5.5-2.467,5.5-5.5V5.5c0-3.033-2.467-5.5-5.5-5.5ZM6.5,3h11c1.378,0,2.5,1.122,2.5,2.5v9.5H5.5c-.526,0-1.031.091-1.5.257V5.5c0-1.378,1.122-2.5,2.5-2.5Zm11,18H5.5c-.827,0-1.5-.673-1.5-1.5s.673-1.5,1.5-1.5h14.5v.5c0,1.378-1.122,2.5-2.5,2.5ZM5,6.952c.006-.307.198-.579.484-.687l1.299-.492.52-1.301c.114-.285.39-.472.697-.472s.583.187.697.472l.523,1.308,1.308.523c.285.114.472.39.472.697s-.187.583-.472.697l-1.308.523-.523,1.308c-.114.285-.39.472-.697.472s-.583-.187-.697-.472l-.526-1.316-1.318-.555c-.283-.119-.464-.398-.459-.705Zm7,3.492c.007-.358.231-.675.565-.802l1.515-.574.607-1.518c.133-.332.455-.55.813-.55s.68.218.813.55l.611,1.527,1.527.611c.332.133.55.455.55.813s-.218.68-.55.813l-1.527.611-.611,1.527c-.133.332-.455.55-.813.55s-.68-.218-.813-.55l-.614-1.536-1.538-.648c-.33-.139-.542-.464-.535-.822Z"/></svg>
