<?xml version="1.0" encoding="UTF-8"?>
<svg xmlns="http://www.w3.org/2000/svg" id="Layer_1" data-name="Layer 1" viewBox="0 0 24 24" width="512" height="512"><path d="M8.5,5c.83,0,1.5,.67,1.5,1.5s-.67,1.5-1.5,1.5-1.5-.67-1.5-1.5,.67-1.5,1.5-1.5Zm5.03,1.76l-.35,1.41-1.4,.32c-.45,.1-.77,.5-.77,.96,0,.46,.3,.86,.74,.98l1.43,.39,.36,1.43c.11,.44,.51,.76,.97,.76s.86-.31,.97-.76l.35-1.42,1.42-.35c.44-.11,.76-.51,.76-.97s-.31-.86-.76-.97l-1.42-.35-.35-1.42c-.11-.44-.51-.76-.97-.76s-.86,.31-.97,.76Zm3.08-1.88l1.76,.74,.7,1.75c.15,.38,.52,.63,.93,.63s.78-.25,.93-.63l.7-1.74,1.74-.7c.38-.15,.63-.52,.63-.93s-.25-.78-.63-.93l-1.74-.7-.7-1.74c-.15-.38-.52-.63-.93-.63s-.78,.25-.93,.63l-.69,1.73-1.73,.66c-.38,.14-.64,.51-.65,.92,0,.41,.23,.78,.61,.94Zm7.39,5.62v8c0,3.03-2.47,5.5-5.5,5.5H5.5c-3.03,0-5.5-2.47-5.5-5.5V5.5C0,2.47,2.47,0,5.5,0H13.5c.83,0,1.5,.67,1.5,1.5s-.67,1.5-1.5,1.5H5.5c-1.38,0-2.5,1.12-2.5,2.5v5.04c1.51-.89,3.5-.68,4.79,.61l5.58,5.58c.35,.35,.92,.35,1.26,0l.58-.58c1.54-1.54,4.04-1.54,5.58,0l.21,.21v-5.86c0-.83,.67-1.5,1.5-1.5s1.5,.67,1.5,1.5Zm-3.55,9.56l-1.78-1.78c-.37-.37-.97-.37-1.34,0l-.58,.58c-1.52,1.52-3.99,1.52-5.51,0l-5.58-5.58c-.37-.37-.97-.37-1.34,0l-1.33,1.33v3.89c0,1.38,1.12,2.5,2.5,2.5h13c.79,0,1.49-.37,1.95-.94Z"/></svg>
