<?xml version="1.0" encoding="UTF-8"?>
<svg xmlns="http://www.w3.org/2000/svg" id="Layer_1" data-name="Layer 1" viewBox="0 0 24 24" width="512" height="512"><path d="m22.385,6.615c-1.041-1.042-2.421-1.615-3.887-1.615h-.521c-.254-2.799-2.613-5-5.478-5h-7c-1.465,0-2.845.573-3.887,1.615C.572,2.656,0,4.037,0,5.503l.004,11.624c.002,1.03.84,1.868,1.868,1.868.169,0,.339-.023.505-.069.061-.017,3.694-1.537,3.694-1.537.426,2.611,2.698,4.611,5.428,4.611h5.5s4.562,1.909,4.622,1.926c.166.046.336.069.505.069,1.029,0,1.867-.84,1.867-1.87l.005-11.622c0-1.466-.572-2.847-1.613-3.888ZM3,5.501c0-.663.261-1.29.735-1.765.474-.475,1.101-.736,1.765-.736h7c1.378,0,2.5,1.121,2.5,2.5v6c0,1.379-1.122,2.5-2.501,2.5h-5.802c-.199,0-.396.04-.58.117l-3.113,1.306-.004-9.922Zm17.994,14.922l-3.113-1.306c-.184-.077-.381-.117-.58-.117h-5.802c-1.207,0-2.217-.86-2.45-2h3.45c3.032,0,5.5-2.468,5.5-5.5v-3.5h.499c.664,0,1.291.262,1.765.736.475.475.735,1.102.735,1.765l-.004,9.922Zm-10.994-8.423c0,.552-.448,1-1,1s-1-.448-1-1,.448-1,1-1,1,.448,1,1Zm-4-5c0-.889.391-1.727,1.072-2.299.681-.572,1.577-.814,2.463-.653,1.209.211,2.204,1.205,2.417,2.417.223,1.272-.382,2.543-1.506,3.164-.396.218-.715.553-.718.556-.197.208-.462.313-.729.313-.246,0-.491-.09-.684-.271-.401-.377-.424-1.007-.048-1.409.053-.058.542-.572,1.213-.941.29-.159.595-.535.502-1.066-.069-.392-.402-.725-.793-.793-.306-.056-.602.022-.832.216-.228.19-.358.47-.358.767,0,.553-.448,1-1,1s-1-.447-1-1Z"/></svg>
