<?xml version="1.0" encoding="UTF-8"?>
<svg xmlns="http://www.w3.org/2000/svg" id="Layer_1" data-name="Layer 1" viewBox="0 0 24 24" width="512" height="512"><path d="m16,11v1.5c0,.828-.672,1.5-1.5,1.5s-1.5-.672-1.5-1.5v-1.5h-1.5c-.828,0-1.5-.672-1.5-1.5s.672-1.5,1.5-1.5h1.5v-1.5c0-.828.672-1.5,1.5-1.5s1.5.672,1.5,1.5v1.5h1.5c.828,0,1.5.672,1.5,1.5s-.672,1.5-1.5,1.5h-1.5Zm8-5.5v8.172c0,.935-.364,1.813-1.025,2.475l-1.828,1.828c-.661.661-1.54,1.025-2.475,1.025h-8.172c-3.032,0-5.5-2.468-5.5-5.5V5.5C5,2.468,7.468,0,10.5,0h8c3.032,0,5.5,2.468,5.5,5.5Zm-13.5,10.5h7.5v-1c0-1.105.895-2,2-2h1v-7.5c0-1.379-1.121-2.5-2.5-2.5h-8c-1.379,0-2.5,1.121-2.5,2.5v8c0,1.379,1.121,2.5,2.5,2.5Zm6.5,5H5.5c-1.379,0-2.5-1.121-2.5-2.5V6.5c0-.828-.672-1.5-1.5-1.5s-1.5.672-1.5,1.5v12c0,3.032,2.468,5.5,5.5,5.5h11.5c.828,0,1.5-.672,1.5-1.5s-.672-1.5-1.5-1.5Z"/></svg>
