<?xml version="1.0" encoding="UTF-8"?>
<svg xmlns="http://www.w3.org/2000/svg" id="Layer_1" data-name="Layer 1" viewBox="0 0 24 24" width="512" height="512"><path d="M20.5,5h-.204c-.16-.233-.306-.432-.414-.563C17.395,1.116,13.295-.521,9.184,.153,4.952,.852,1.5,3.97,.389,8.099c-.897,3.335-.168,6.85,2.003,9.641,.277,.357,.608,.932,.608,1.636v.11c0,2.489,2.019,4.515,4.5,4.515h5c1.971,0,3.649-1.273,4.257-3.04,1.702-.207,3.235-1.206,4.104-2.71,.414-.717,.169-1.635-.549-2.049-.717-.414-1.635-.17-2.049,.549-.445,.771-1.275,1.25-2.166,1.25h-.598c-.828,0-1.5,.672-1.5,1.5s-.673,1.5-1.5,1.5H7.5c-.827,0-1.5-.68-1.5-1.515v-.11c0-1.229-.429-2.432-1.239-3.477-.722-.928-1.742-2.639-1.756-4.898h6.252c.619,1.746,2.287,3,4.243,3h7c1.93,0,3.5-1.57,3.5-3.5v-2c0-1.93-1.57-3.5-3.5-3.5Zm-10.828-1.886c2.428-.403,4.843,.301,6.658,1.886h-2.829c-1.956,0-3.624,1.254-4.243,3H3.581c1.025-2.523,3.372-4.438,6.091-4.886Zm11.328,7.386c0,.275-.225,.5-.5,.5h-7c-.827,0-1.5-.673-1.5-1.5s.673-1.5,1.5-1.5h7c.275,0,.5,.225,.5,.5v2Z"/></svg>
