<?xml version="1.0" encoding="UTF-8"?>
<svg xmlns="http://www.w3.org/2000/svg" id="Layer_1" data-name="Layer 1" viewBox="0 0 24 24" width="512" height="512"><path d="m21.5,0c-1.208,0-2.217.86-2.449,2H4.949c-.232-1.14-1.242-2-2.449-2C1.121,0,0,1.122,0,2.5v19c0,1.378,1.121,2.5,2.5,2.5,1.208,0,2.217-.86,2.449-2h14.101c.232,1.14,1.242,2,2.449,2,1.379,0,2.5-1.122,2.5-2.5V2.5c0-1.378-1.121-2.5-2.5-2.5ZM5,5h14v14H5V5Z"/><path d="m17.92,8.761c-.088-.158-.255-.255-.436-.255h-3.373l-1.684-2.766c-.182-.298-.672-.298-.854,0l-1.684,2.766h-3.373c-.181,0-.348.098-.436.255-.089.157-.086.351.009.505l1.67,2.738-1.67,2.741c-.095.154-.098.348-.009.505.088.157.255.255.436.255h3.378l1.68,2.755c.091.149.252.24.427.24s.336-.091.427-.24l1.68-2.755h3.378c.181,0,.348-.098.436-.255.089-.158.086-.351-.009-.505l-1.67-2.741,1.67-2.738c.095-.154.098-.348.009-.505Zm-5.92-1.799l.94,1.544h-1.881l.94-1.544Zm1.549,2.544l1.521,2.498-1.526,2.502h-3.09l-1.526-2.502,1.521-2.498h3.099Zm-6.143,0h1.874l-.936,1.537-.937-1.537Zm0,5l.939-1.541.94,1.541h-1.878Zm4.595,2.534l-.935-1.534h1.871l-.935,1.534Zm4.595-2.534h-1.878l.94-1.541.939,1.541Zm-.938-3.463l-.936-1.537h1.874l-.937,1.537Z"/></svg>
