<?xml version="1.0" encoding="UTF-8"?>
<svg xmlns="http://www.w3.org/2000/svg" id="Layer_1" data-name="Layer 1" viewBox="0 0 24 24" width="512" height="512"><path d="M24,12c0,.731-.066,1.465-.198,2.181-.15,.814-.936,1.349-1.746,1.204-.815-.15-1.354-.932-1.204-1.747,.099-.536,.148-1.088,.148-1.638,0-4.963-4.038-9-9-9S3,7.037,3,12s4.038,9,9,9c.144,0,.287-.003,.429-.01,.841-.023,1.53,.601,1.569,1.428s-.6,1.529-1.428,1.568c-.189,.009-.379,.014-.571,.014C5.383,24,0,18.617,0,12S5.383,0,12,0s12,5.383,12,12ZM7.5,17c1.078,0,2.442,.189,3.429,1.671,.289,.434,.765,.668,1.25,.668,.286,0,.575-.081,.831-.252,.689-.459,.875-1.391,.416-2.08-1.33-1.995-3.324-3.007-5.925-3.007-.829,0-1.5,.672-1.5,1.5s.671,1.5,1.5,1.5Zm1.5-8c0-1.105-.895-2-2-2s-2,.895-2,2,.895,2,2,2,2-.895,2-2Zm9.969,1.197c.02,.098,.031,12.303,.031,12.303,0,.828-.671,1.5-1.5,1.5s-1.5-.672-1.5-1.5v-7.776c-.471,.168-.971,.276-1.5,.276-2.481,0-4.5-2.019-4.5-4.5s2.019-4.5,4.5-4.5c2.378,0,4.31,1.859,4.469,4.197Zm-2.969,.303c0-.827-.673-1.5-1.5-1.5s-1.5,.673-1.5,1.5,.673,1.5,1.5,1.5,1.5-.673,1.5-1.5Z"/></svg>
