<?xml version="1.0" encoding="UTF-8"?>
<svg xmlns="http://www.w3.org/2000/svg" id="Layer_1" data-name="Layer 1" viewBox="0 0 24 24" width="512" height="512"><path d="m23.902,23.033c-.228.599-.797.967-1.402.967-.177,0-.357-.032-.533-.099l-9.967-3.791-9.967,3.791c-.175.067-.355.099-.533.099-.605,0-1.175-.368-1.402-.967-.294-.774.094-1.641.869-1.935l6.814-2.592L.967,15.915c-.774-.294-1.163-1.161-.869-1.935.294-.774,1.163-1.164,1.935-.869l9.967,3.791,9.967-3.791c.774-.295,1.641.094,1.935.869s-.094,1.641-.869,1.935l-6.814,2.592,6.814,2.592c.774.294,1.163,1.161.869,1.935ZM6,8.627v-2.421C6,3.157,8.187.438,11.212.051c3.659-.469,6.788,2.382,6.788,5.949v3c0,1.105-.895,2-2,2h-1v1c0,1.105-.895,2-2,2h-2c-1.105,0-2-.895-2-2v-1h-1c-1.105,0-2-.891-2-2.373Zm7-1.127c0,.828.672,1.5,1.5,1.5s1.5-.672,1.5-1.5-.672-1.5-1.5-1.5-1.5.672-1.5,1.5Zm-5,0c0,.828.672,1.5,1.5,1.5s1.5-.672,1.5-1.5-.672-1.5-1.5-1.5-1.5.672-1.5,1.5Z"/></svg>
