<?xml version="1.0" encoding="UTF-8"?>
<svg xmlns="http://www.w3.org/2000/svg" id="Layer_1" data-name="Layer 1" viewBox="0 0 24 24" width="512" height="512"><path d="m23.229,9.219l-3.223-5.5c-.983-1.677-2.802-2.719-4.745-2.719h-6.551c-1.944,0-3.762,1.042-4.745,2.719L.742,9.219c-1.005,1.716-1.005,3.847,0,5.562l3.223,5.5c.983,1.677,2.801,2.719,4.745,2.719h6.551c1.943,0,3.762-1.042,4.745-2.719l3.223-5.5c1.005-1.716,1.005-3.847,0-5.562Zm-2.588,4.045l-3.223,5.5c-.447.763-1.274,1.236-2.157,1.236h-6.551c-.884,0-1.71-.474-2.157-1.236l-3.223-5.5c-.457-.779-.457-1.748,0-2.527l3.223-5.5c.447-.763,1.273-1.236,2.157-1.236h6.551c.883,0,1.71.474,2.157,1.236l3.223,5.5c.457.779.457,1.748,0,2.527Zm-7.142-5.764v5c0,.828-.671,1.5-1.5,1.5s-1.5-.672-1.5-1.5v-5c0-.828.671-1.5,1.5-1.5s1.5.672,1.5,1.5Zm0,9c0,.828-.672,1.5-1.5,1.5s-1.5-.672-1.5-1.5.672-1.5,1.5-1.5,1.5.672,1.5,1.5Z"/></svg>
