<?xml version="1.0" encoding="UTF-8"?>
<svg xmlns="http://www.w3.org/2000/svg" id="Layer_1" data-name="Layer 1" viewBox="0 0 24 24" width="512" height="512"><path d="m23,15.5c0,.829-.671,1.5-1.5,1.5h-1.879l-3.061,3.061c-.293.293-.677.439-1.061.439s-.768-.146-1.061-.439l-3.061-3.061H2.5c-.829,0-1.5-.671-1.5-1.5s.671-1.5,1.5-1.5h19c.829,0,1.5.671,1.5,1.5ZM1.573,11.097c-.476-.57-.672-1.314-.54-2.041C1.992,3.808,6.604,0,12,0s10.032,3.812,10.969,9.063c.129.727-.069,1.469-.545,2.038-.479.572-1.18.899-1.924.899H3.5c-.746,0-1.448-.329-1.927-.903Zm2.544-2.097h15.77c-.906-3.511-4.13-6-7.887-6-3.675,0-6.959,2.54-7.883,6Zm17.383,10h-1.05l-2.475,2.475c-.661.661-1.54,1.025-2.475,1.025s-1.813-.364-2.475-1.025l-2.475-2.475H2.5c-.829,0-1.5.671-1.5,1.5v.5c0,1.654,1.346,3,3,3h16c1.654,0,3-1.346,3-3v-.5c0-.829-.671-1.5-1.5-1.5Z"/></svg>
