<?xml version="1.0" encoding="UTF-8"?>
<svg xmlns="http://www.w3.org/2000/svg" id="Layer_1" data-name="Layer 1" viewBox="0 0 24 24" width="512" height="512"><path d="m22,18.184V5.816c1.163-.413,2-1.512,2-2.816,0-1.657-1.343-3-3-3-1.304,0-2.403.837-2.816,2H5.846C5.461.788,4.34-.097,3-.097,1.343-.097,0,1.246,0,2.903c0,1.304.837,2.403,2,2.816v12.464c-1.163.413-2,1.512-2,2.816,0,1.657,1.343,3,3,3,1.304,0,2.403-.837,2.816-2h12.367c.413,1.163,1.512,2,2.816,2,1.657,0,3-1.343,3-3,0-1.304-.837-2.403-2-2.816Zm-3.221.816H5.221c-.07-.078-.143-.151-.221-.221V5.125c.047-.042.098-.08.142-.125h13.637c.07.078.143.151.221.221v13.557c-.078.07-.151.143-.221.221Zm-6.779-6h-4c-1.105,0-2-.895-2-2v-2c0-1.105.895-2,2-2h4c1.105,0,2,.895,2,2v2c0,1.105-.895,2-2,2Zm6,0v2c0,1.105-.895,2-2,2h-4c-1.105,0-2-.895-2-2h2c2.209,0,4-1.791,4-4,1.105,0,2,.895,2,2Z"/></svg>
