<?xml version="1.0" encoding="UTF-8"?>
<svg xmlns="http://www.w3.org/2000/svg" id="Layer_1" data-name="Layer 1" viewBox="0 0 24 24" width="512" height="512"><path d="M21.5,13h-1c-.804,0-1.579-.127-2.306-.362,1.74-1.875,2.806-4.384,2.806-7.138,0-3.032-2.468-5.5-5.5-5.5s-5.5,2.468-5.5,5.5c0,2.754,1.065,5.263,2.806,7.138-.727,.235-1.502,.362-2.306,.362-4.136,0-7.5-3.364-7.5-7.5,0-.828-.672-1.5-1.5-1.5s-1.5,.672-1.5,1.5V22.5c0,.828,.672,1.5,1.5,1.5s1.5-.672,1.5-1.5V12.841c.598,.611,1.269,1.149,2,1.6v8.059c0,.828,.672,1.5,1.5,1.5s1.5-.672,1.5-1.5v-6.802c.646,.158,1.314,.257,2,.289v6.512c0,.828,.672,1.5,1.5,1.5s1.5-.672,1.5-1.5v-6.801c.696-.171,1.366-.411,2-.713v7.514c0,.828,.672,1.5,1.5,1.5s1.5-.672,1.5-1.5v-6.801c.646,.158,1.314,.257,2,.289v6.512c0,.828,.672,1.5,1.5,1.5s1.5-.672,1.5-1.5V14.5c0-.828-.672-1.5-1.5-1.5Zm-6-1.914c-1.533-1.375-2.5-3.369-2.5-5.586,0-1.379,1.121-2.5,2.5-2.5s2.5,1.121,2.5,2.5c0,2.217-.967,4.211-2.5,5.586Z"/></svg>
