<?xml version="1.0" encoding="UTF-8"?>
<svg xmlns="http://www.w3.org/2000/svg" id="Layer_1" data-name="Layer 1" viewBox="0 0 24 24">
  <path d="m1,2.5C1,1.119,2.119,0,3.5,0s2.5,1.119,2.5,2.5-1.119,2.5-2.5,2.5S1,3.881,1,2.5Zm.5,16c-.829,0-1.5.672-1.5,1.5v2.5c0,.828.671,1.5,1.5,1.5s1.5-.672,1.5-1.5v-2.5c0-.828-.671-1.5-1.5-1.5Zm22.461-.457c-.187-.808-.992-1.311-1.8-1.122l-6.813,1.579-2.86-12.339c-.187-.808-.993-1.311-1.8-1.122-.807.187-1.31.993-1.123,1.8l.733,3.161h-1.966l-1.325-2.121c-.736-1.177-2.004-1.879-3.392-1.879h-.614c-1.654,0-3,1.346-3,3v4.085c0,1.396.744,2.71,1.942,3.43l3.058,1.835v4.15c0,.828.671,1.5,1.5,1.5s1.5-.672,1.5-1.5v-4.434c0-.873-.465-1.695-1.213-2.144l-1.787-1.072v-4.52l.935,1.497c.461.734,1.253,1.173,2.119,1.173h2.939l1.446,6.236c-.85.399-1.439,1.262-1.439,2.264,0,1.381,1.119,2.5,2.5,2.5s2.5-1.119,2.5-2.5c0-.024-.001-.048-.002-.072l6.841-1.586c.807-.187,1.31-.992,1.123-1.8Zm-7.531-3.408c.201.859,1.062,1.391,1.92,1.187l2.907-.691c.854-.203,1.383-1.059,1.183-1.914l-.7-2.986c-.201-.859-1.062-1.391-1.92-1.187l-2.907.691c-.854.203-1.383,1.059-1.183,1.914l.7,2.986Z"/>
</svg>
