<?xml version="1.0" encoding="UTF-8"?>
<svg xmlns="http://www.w3.org/2000/svg" id="Layer_1" data-name="Layer 1" viewBox="0 0 24 24" width="512" height="512"><path d="M13.78,8.2l-1.6,8c-.09,.48-.51,.8-.98,.8-.06,0-.13,0-.2-.02-.54-.11-.89-.63-.78-1.18l1.6-8c.11-.54,.63-.89,1.18-.78,.54,.11,.89,.63,.78,1.18Zm-4.57,1.23c-.39-.39-1.02-.39-1.41,0l-1.21,1.21c-.78,.78-.78,2.04,0,2.81l1.21,1.21c.2,.2,.45,.29,.71,.29s.51-.1,.71-.29c.39-.39,.39-1.02,0-1.41l-1.21-1.19,1.21-1.21c.39-.39,.39-1.02,0-1.41Zm8.21,1.21l-1.21-1.21c-.39-.39-1.02-.39-1.41,0s-.39,1.02,0,1.41l1.21,1.2-1.21,1.21c-.39,.39-.39,1.02,0,1.41,.2,.2,.45,.29,.71,.29s.51-.1,.71-.29l1.21-1.21c.78-.78,.78-2.04,0-2.81Zm4.95,7.4c-.28,.48-.78,.75-1.3,.75-.26,0-.52-.07-.75-.2l-.53-.31c-1.54,1.91-3.76,3.24-6.29,3.62v.61c0,.83-.67,1.5-1.5,1.5s-1.5-.67-1.5-1.5v-.61c-2.53-.38-4.75-1.71-6.29-3.62l-.53,.31c-.24,.14-.5,.2-.75,.2-.52,0-1.02-.27-1.3-.75-.42-.72-.17-1.63,.54-2.05l.53-.31c-.45-1.14-.7-2.38-.7-3.68s.25-2.54,.7-3.68l-.53-.31c-.72-.42-.96-1.33-.54-2.05,.42-.72,1.33-.96,2.05-.54l.53,.31c1.54-1.91,3.76-3.24,6.29-3.62v-.61c0-.83,.67-1.5,1.5-1.5s1.5,.67,1.5,1.5v.61c2.53,.38,4.75,1.71,6.29,3.62l.53-.31c.72-.42,1.63-.17,2.05,.54,.42,.72,.17,1.63-.54,2.05l-.53,.31c.45,1.14,.7,2.38,.7,3.68s-.25,2.54-.7,3.68l.53,.31c.72,.42,.96,1.33,.54,2.05Zm-3.37-6.04c0-3.86-3.14-7-7-7s-7,3.14-7,7,3.14,7,7,7,7-3.14,7-7Z"/></svg>
