<?xml version="1.0" encoding="UTF-8"?>
<svg xmlns="http://www.w3.org/2000/svg" id="Layer_1" data-name="Layer 1" viewBox="0 0 24 24" width="512" height="512"><path d="M13.5,10.166v-1.166h1c.828,0,1.5-.671,1.5-1.5s-.672-1.5-1.5-1.5h-1v-1h1.563c.863,0,1.295-1.043,.685-1.653L12.685,.284c-.378-.378-.991-.378-1.369,0l-3.063,3.063c-.61,.61-.178,1.653,.685,1.653h1.563v1h-1c-.828,0-1.5,.671-1.5,1.5s.672,1.5,1.5,1.5h1v1.166c-3.14,.689-5.5,3.49-5.5,6.834,0,3.86,3.141,7,7,7s7-3.14,7-7c0-3.345-2.359-6.145-5.5-6.834Zm-1.5,10.834c-2.206,0-4-1.794-4-4s1.794-4,4-4,4,1.794,4,4-1.794,4-4,4Z"/></svg>
