<?xml version="1.0" encoding="UTF-8"?>
<svg xmlns="http://www.w3.org/2000/svg" id="Layer_1" data-name="Layer 1" viewBox="0 0 24 24" width="512" height="512"><path d="m15.561,13.561l-1.439,1.439,1.439,1.439c.586.586.586,1.535,0,2.121-.293.293-.677.439-1.061.439s-.768-.146-1.061-.439l-1.439-1.439-1.439,1.439c-.293.293-.677.439-1.061.439s-.768-.146-1.061-.439c-.586-.586-.586-1.535,0-2.121l1.439-1.439-1.439-1.439c-.586-.586-.586-1.535,0-2.121s1.535-.586,2.121,0l1.439,1.439,1.439-1.439c.586-.586,1.535-.586,2.121,0s.586,1.535,0,2.121Zm8.439-6.061v11c0,3.032-2.467,5.5-5.5,5.5H5.5c-3.033,0-5.5-2.468-5.5-5.5V7.5C0,4.468,2.467,2,5.5,2h.5v-.5c0-.828.671-1.5,1.5-1.5s1.5.672,1.5,1.5v.5h6v-.5c0-.828.671-1.5,1.5-1.5s1.5.672,1.5,1.5v.5h.5c3.033,0,5.5,2.468,5.5,5.5Zm-3,11v-9.5H3v9.5c0,1.379,1.122,2.5,2.5,2.5h13c1.378,0,2.5-1.121,2.5-2.5Z"/></svg>
