<?xml version="1.0" encoding="UTF-8"?>
<svg xmlns="http://www.w3.org/2000/svg" id="Layer_1" data-name="Layer 1" viewBox="0 0 24 24" width="512" height="512"><path d="m23.968,9.101c-.468-2.877-2.163-5.629-4.652-7.551-.565-.435-1.292-.609-1.991-.483-.697.129-1.311.548-1.68,1.15l-2.042,3.317c-.434.705-.215,1.628.489,2.062,1.071.661,1.777,1.797,1.889,3.038.069.772.718,1.365,1.494,1.365h4.019c.736,0,1.433-.322,1.911-.885.476-.559.681-1.294.563-2.015Zm-5.264-.101c-.345-1.147-.983-2.194-1.847-3.03l1.047-1.701c1.497,1.291,2.556,2.97,2.984,4.731h-2.185Zm-2.591,5.94c-.205-.342-.537-.588-.923-.684-.389-.098-.795-.035-1.136.169-1.25.752-2.859.752-4.109,0-.341-.204-.749-.267-1.136-.169-.386.096-.718.342-.923.684l-2.036,3.394c-.363.605-.454,1.341-.249,2.017.206.677.689,1.238,1.328,1.54,1.604.758,3.31,1.142,5.07,1.142s3.468-.384,5.069-1.142c.64-.302,1.124-.862,1.329-1.539.206-.676.115-1.411-.248-2.017l-2.037-3.395Zm-7.401,4.456l1.058-1.765c1.436.486,3.025.486,4.461,0l1.059,1.765c-2.103.844-4.475.845-6.577,0Zm-.692-8.762c.11-1.233.81-2.364,1.868-3.025.7-.437.916-1.356.483-2.059l-2.051-3.332c-.37-.604-.983-1.023-1.681-1.152-.699-.126-1.426.048-1.992.483C2.144,3.483.502,6.165.025,9.1c-.117.722.088,1.457.563,2.016.479.562,1.175.885,1.911.885h4.025c.776,0,1.425-.593,1.494-1.365Zm-4.916-1.635c.429-1.772,1.477-3.451,2.956-4.731l1.061,1.724c-.852.832-1.482,1.87-1.824,3.008h-2.192Zm8.896,0c1.105,0,2,.895,2,2s-.895,2-2,2-2-.895-2-2,.895-2,2-2Z"/></svg>
