<?xml version="1.0" encoding="UTF-8"?>
<svg xmlns="http://www.w3.org/2000/svg" id="Layer_1" data-name="Layer 1" viewBox="0 0 24 24" width="512" height="512"><path d="M17,22.5c0,.83-.67,1.5-1.5,1.5-2.48,0-4.5-2.02-4.5-4.5,0-.83,.67-1.5,1.5-1.5s1.5,.67,1.5,1.5,.67,1.5,1.5,1.5,1.5,.67,1.5,1.5Zm-1-17.58v4.58c0,.83,.67,1.5,1.5,1.5s1.5-.67,1.5-1.5V1.5c0-.61-.37-1.15-.93-1.39-.56-.23-1.21-.1-1.63,.33l-2,2c-.59,.59-.59,1.54,0,2.12,.42,.42,1.03,.54,1.56,.35Zm-7.93,8.2c-.56-.23-1.21-.1-1.63,.33l-2,2c-.59,.59-.59,1.54,0,2.12,.42,.42,1.03,.54,1.56,.35v4.58c0,.83,.67,1.5,1.5,1.5s1.5-.67,1.5-1.5V14.5c0-.61-.37-1.15-.93-1.39Zm15.49,10.45c-.29,.29-.68,.44-1.06,.44s-.77-.15-1.06-.44L.44,2.56C-.15,1.97-.15,1.03,.44,.44S1.97-.15,2.56,.44l1.36,1.36c.82-1.09,2.11-1.8,3.58-1.8,2.48,0,4.5,2.02,4.5,4.5v2c0,.94-.29,1.83-.81,2.57l3.96,3.96c.12,0,.23-.03,.35-.03,2.48,0,4.5,2.02,4.5,4.5v.38l3.56,3.56c.59,.59,.59,1.54,0,2.12ZM6.1,3.98l2.86,2.86c.03-.11,.04-.22,.04-.34v-2c0-.83-.67-1.5-1.5-1.5-.64,0-1.19,.41-1.4,.98Z"/></svg>
