<?xml version="1.0" encoding="UTF-8"?>
<svg xmlns="http://www.w3.org/2000/svg" id="Layer_1" data-name="Layer 1" viewBox="0 0 24 24" width="512" height="512"><path d="m10.5,3C4.71,3,0,7.71,0,13.5s4.71,10.5,10.5,10.5,10.5-4.71,10.5-10.5S16.29,3,10.5,3Zm0,18c-4.136,0-7.5-3.364-7.5-7.5,0-1.038.212-2.027.594-2.926l.034.036c.237.249.566.39.909.39h1.942c.333,0,.652.132.887.368l.265.265c.235.235.368.555.368.887v.96c0,.333.132.652.368.887l1.265,1.265c.235.235.368.555.368.887v1.225c0,.693.562,1.255,1.255,1.255.459,0,.882-.251,1.102-.654l2.077-3.808c.318-.583.127-1.313-.437-1.665l-2.533-1.583c-.303-.19-.654-.29-1.012-.29h-1.388c-.361,0-.708-.144-.963-.399l-.435-.435c-.368-.368-.368-.964,0-1.332l.354-.354c.287-.287.725-.358,1.087-.176l.786.393c.363.181.801.11,1.087-.176.306-.306.364-.78.142-1.151l-.82-1.367c.066-.002.132-.003.198-.003,4.136,0,7.5,3.364,7.5,7.5s-3.364,7.5-7.5,7.5ZM24,2.5c0,1.381-1.119,2.5-2.5,2.5s-2.5-1.119-2.5-2.5,1.119-2.5,2.5-2.5,2.5,1.119,2.5,2.5Z"/></svg>
