<?xml version="1.0" encoding="UTF-8"?>
<svg xmlns="http://www.w3.org/2000/svg" id="Layer_1" data-name="Layer 1" viewBox="0 0 24 24" width="512" height="512"><path d="m17.298,6.191c-.184-.086-.298-.259-.298-.449v-2.742h.5c.828,0,1.5-.671,1.5-1.5s-.672-1.5-1.5-1.5H6.5c-.828,0-1.5.671-1.5,1.5s.672,1.5,1.5,1.5h.5v2.742c0,.19-.114.363-.299.45C2.567,8.144,0,12.094,0,16.5c0,1.447.28,2.86.834,4.204.827,2.002,2.807,3.296,5.043,3.296h12.246c2.236,0,4.216-1.294,5.043-3.297.554-1.342.834-2.756.834-4.203,0-4.406-2.567-8.356-6.702-10.309Zm3.095,13.367c-.355.862-1.268,1.442-2.27,1.442H5.877c-1.002,0-1.914-.58-2.27-1.441-.403-.978-.607-2.007-.607-3.059,0-3.234,1.909-6.144,4.981-7.595,1.227-.579,2.019-1.82,2.019-3.163v-2.742h4v2.742c0,1.343.792,2.584,2.018,3.163,3.073,1.452,4.982,4.362,4.982,7.596,0,1.052-.204,2.082-.607,3.058Zm-8.791-9.539c-2.078.202-3.601,2.07-3.601,4.158v1.822c0,.552.448,1,1,1h1v1c0,.552.448,1,1,1h2c.552,0,1-.448,1-1v-1h1c.552,0,1-.448,1-1v-2c0-2.337-2.014-4.212-4.399-3.981Zm-1.353,5.231c-.69,0-1.25-.56-1.25-1.25s.56-1.25,1.25-1.25,1.25.56,1.25,1.25-.56,1.25-1.25,1.25Zm3.492,0c-.69,0-1.25-.56-1.25-1.25s.56-1.25,1.25-1.25,1.25.56,1.25,1.25-.56,1.25-1.25,1.25Z"/></svg>
