<?xml version="1.0" encoding="UTF-8"?>
<svg xmlns="http://www.w3.org/2000/svg" id="Layer_1" data-name="Layer 1" viewBox="0 0 24 24" width="512" height="512"><path d="m22.496,10.497h-.104c-.256-1.777-.958-3.412-1.989-4.786l.078-.078c.585-.586.585-1.536-.002-2.121-.588-.586-1.536-.584-2.121.002l-.077.077c-1.375-1.029-3.01-1.729-4.787-1.984v-.107c0-.829-.672-1.5-1.5-1.5s-1.5.671-1.5,1.5v.109c-1.776.256-3.409.958-4.783,1.989l-.08-.08c-.586-.586-1.535-.586-2.121,0-.586.585-.586,1.536,0,2.121l.081.081c-1.029,1.374-1.729,3.008-1.983,4.784h-.111C.668,10.503-.003,11.174-.003,12.003s.671,1.5,1.5,1.5h.111c.256,1.775.956,3.409,1.986,4.783l-.081.081c-.586.585-.586,1.536,0,2.121.293.293.677.439,1.061.439s.768-.146,1.061-.439l.081-.081c1.374,1.03,3.008,1.731,4.784,1.986v.108c0,.828.671,1.5,1.5,1.5s1.5-.671,1.5-1.5v-.107c1.777-.255,3.412-.956,4.786-1.987l.077.077c.293.293.677.439,1.061.439s.768-.146,1.061-.439c.586-.586.586-1.536,0-2.121l-.077-.077c1.031-1.375,1.732-3.01,1.986-4.788h.104c.829,0,1.5-.673,1.499-1.502,0-.828-.672-1.499-1.5-1.499Zm-3.147.003l-2.579.002c-.089-.283-.203-.555-.338-.814l1.821-1.824c.523.788.901,1.679,1.096,2.636Zm-7.349,3.5c-1.103,0-2-.897-2-2s.897-2,2-2,2,.897,2,2-.897,2-2,2Zm4.131-8.256l-1.82,1.824c-.26-.136-.533-.25-.817-.339v-2.578c.958.194,1.849.572,2.637,1.094Zm-5.638-1.092v2.58c-.282.089-.552.203-.81.338l-1.822-1.822c.786-.522,1.676-.901,2.632-1.096Zm-4.752,3.219l1.823,1.823c-.134.258-.247.528-.336.809h-2.579c.194-.956.571-1.845,1.092-2.632Zm-1.091,5.632h2.58c.089.281.202.552.337.809l-1.822,1.822c-.521-.786-.899-1.676-1.094-2.631Zm3.216,4.752l1.822-1.822c.258.135.529.248.811.337v2.579c-.956-.195-1.846-.572-2.633-1.094Zm5.633,1.094v-2.579c.282-.089.554-.202.812-.338l1.822,1.822c-.787.522-1.678.9-2.634,1.095Zm4.755-3.216l-1.822-1.822c.135-.258.248-.528.337-.809l2.58-.002c-.195.956-.572,1.847-1.094,2.634Z"/></svg>
