<?xml version="1.0" encoding="UTF-8"?>
<svg xmlns="http://www.w3.org/2000/svg" id="Layer_1" data-name="Layer 1" viewBox="0 0 24 24" width="512" height="512"><path d="m12,0C5.383,0,0,5.383,0,12s5.383,12,12,12,12-5.383,12-12S18.617,0,12,0Zm0,21c-4.963,0-9-4.037-9-9S7.037,3,12,3s9,4.038,9,9-4.037,9-9,9Zm5.647-9.013l.939-.939c.586-.585.586-1.536,0-2.121-.586-.586-1.535-.586-2.121,0l-.939.939-1.404-1.404.914-.914c.586-.585.586-1.535,0-2.121s-1.535-.586-2.121,0l-.914.914-.92-.92c-.586-.586-1.535-.586-2.121,0s-.586,1.536,0,2.121l.92.92-1.405,1.404-.894-.894c-.586-.586-1.535-.586-2.121,0-.586.585-.586,1.536,0,2.121l.894.894-.901.901c-.586.586-.586,1.535,0,2.121.293.293.677.439,1.061.439s.768-.146,1.061-.439l.901-.901,1.405,1.405-.914.914c-.586.586-.586,1.535,0,2.121.293.293.677.439,1.061.439s.768-.146,1.061-.439l.914-.914.92.92c.293.293.677.439,1.061.439s.768-.146,1.061-.439c.586-.586.586-1.535,0-2.121l-.92-.92,1.405-1.405.933.933c.293.293.677.439,1.061.439s.768-.146,1.061-.439c.586-.586.586-1.535,0-2.121l-.933-.933Zm-5.647,1.405l-1.405-1.405,1.405-1.405,1.405,1.404-1.405,1.405Z"/></svg>
