<?xml version="1.0" encoding="UTF-8"?>
<svg xmlns="http://www.w3.org/2000/svg" id="Layer_1" data-name="Layer 1" viewBox="0 0 24 24">
  <path d="m22.5,0h-.524c-1.544,0-2.888.991-3.344,2.465-.021.067-.042.136-.064.206-.441-.14-.804-.258-1.015-.33-.789-.269-1.637.152-1.904.936-.268.784.151,1.637.936,1.904.226.077.62.204,1.097.356-.153.495-.314,1.011-.478,1.541-.491-.155-.896-.286-1.125-.364-.79-.268-1.637.152-1.904.936-.268.784.151,1.637.936,1.904.241.082.673.221,1.195.386-.918,2.661-2.819,6.06-4.304,6.06-.265,0-.968,0-1-1v-1.485c0-.054.038-1.319.917-1.574.718-.208,1.173-.912,1.068-1.651-.105-.74-.738-1.29-1.485-1.29H1.5c-.747,0-1.38.55-1.485,1.29-.104.739.351,1.443,1.068,1.651.879.254.916,1.52.917,1.579l.031,2.32c0,3.161,1.31,5.747,3.594,7.096,1.202.71,2.541,1.072,3.883,1.072.876,0,1.753-.154,2.593-.465,2.129-.789,3.769-2.472,4.499-4.618.718-2.109,4.758-15.115,4.899-15.573.064-.21.256-.351.477-.351h.524c.828,0,1.5-.671,1.5-1.5s-.672-1.5-1.5-1.5Zm-11.44,20.729c-1.297.479-2.685.346-3.909-.376-1.913-1.129-2.119-3.532-2.119-4.533l-.031-2.32c0-.419-.065-.949-.233-1.5h3.467c-.168.551-.233,1.081-.233,1.5v1.5c0,1.608,1.065,4,4,4,.492,0,.96-.09,1.403-.251-.52.907-1.342,1.609-2.344,1.98ZM1.025,5.936c.223-.987.817-2.063,1.292-2.677.326-.422.992-.308,1.183.189.178.46,0,1.581,1,1.581.964,0,.393-2.69,1.312-4.511.303-.6,1.033-.709,1.551-.281,1.677,1.384,4.118,3.382,4.617,5.737.118.558-.307,1.025-.877,1.025H1.896c-.598,0-1.003-.481-.871-1.064Z"/>
</svg>
