<?xml version="1.0" encoding="UTF-8"?>
<svg xmlns="http://www.w3.org/2000/svg" id="Layer_1" data-name="Layer 1" viewBox="0 0 24 24" width="512" height="512"><path d="M24,22.5c0,.83-.67,1.5-1.5,1.5H5.5c-3.03,0-5.5-2.47-5.5-5.5V1.5C0,.67,.67,0,1.5,0s1.5,.67,1.5,1.5V18.5c0,1.38,1.12,2.5,2.5,2.5H22.5c.83,0,1.5,.67,1.5,1.5Zm-8-6c0,.83,.67,1.5,1.5,1.5h5c.83,0,1.5-.67,1.5-1.5s-.67-1.5-1.5-1.5h-5c-.83,0-1.5,.67-1.5,1.5Zm-7-6c0,.83,.67,1.5,1.5,1.5h8c.83,0,1.5-.67,1.5-1.5s-.67-1.5-1.5-1.5H10.5c-.83,0-1.5,.67-1.5,1.5Zm-2.5-4.5h5c.83,0,1.5-.67,1.5-1.5s-.67-1.5-1.5-1.5H6.5c-.83,0-1.5,.67-1.5,1.5s.67,1.5,1.5,1.5Z"/></svg>
