<?xml version="1.0" encoding="UTF-8"?>
<svg xmlns="http://www.w3.org/2000/svg" id="Layer_1" data-name="Layer 1" viewBox="0 0 24 24" width="512" height="512"><path d="M22.27,11.68l-3.52-2.08V5.41c0-1.23-.66-2.39-1.72-3.01L13.78,.48c-1.1-.65-2.46-.65-3.55,0l-3.25,1.91c-1.06,.63-1.72,1.78-1.72,3.01v4.19l-3.52,2.08C.67,12.3,.01,13.46,.01,14.69v3.9c0,1.23,.66,2.39,1.72,3.02l3.25,1.91c.55,.32,1.16,.48,1.78,.48s1.23-.16,1.78-.48l3.47-2.04,3.47,2.04c.55,.32,1.16,.48,1.78,.48s1.23-.16,1.78-.48l3.25-1.91c1.06-.63,1.72-1.78,1.72-3.01v-3.9c0-1.23-.66-2.39-1.72-3.02Zm-5.02,3.8l-2.78-1.64,2.78-1.64,2.78,1.64-2.78,1.64Zm-10.49,0l-2.78-1.64,2.78-1.64,2.78,1.64-2.78,1.64Zm4.25-7.55v3.28l-2.75-1.62v-3.28l2.75,1.62Zm4.75-1.62v3.28l-2.75,1.62v-3.28l2.75-1.62Zm-4-3.25c.16-.09,.35-.09,.51,0l2.53,1.49-2.78,1.64-2.78-1.64,2.53-1.49ZM3.26,19.03c-.15-.09-.25-.25-.25-.43v-3l2.74,1.62v3.28l-2.5-1.47Zm4.5,1.47v-3.28l2.75-1.62v3.28l-2.75,1.62Zm5.75-1.62v-3.28l2.75,1.62v3.28l-2.75-1.62Zm7.24,.15l-2.5,1.47v-3.28l2.74-1.62v3c0,.18-.09,.34-.25,.43Z"/></svg>
