<?xml version="1.0" encoding="UTF-8"?>
<svg xmlns="http://www.w3.org/2000/svg" id="Layer_1" data-name="Layer 1" viewBox="0 0 24 24">
  <path d="m14.5,9.25c0-.967.784-1.75,1.75-1.75s1.75.783,1.75,1.75-.784,1.75-1.75,1.75-1.75-.784-1.75-1.75Zm9.5-6.258v18.051c0,1.082-.561,2.048-1.5,2.582-.456.259-.965.389-1.475.389-.53,0-1.061-.141-1.532-.421-2.771-1.648-5.433-2.557-7.493-2.557s-4.722.908-7.493,2.557c-.922.549-2.075.561-3.007.032-.939-.534-1.5-1.5-1.5-2.582V2.992C0,1.91.561.945,1.5.411c.931-.528,2.083-.517,3.007.032,2.771,1.648,5.433,2.557,7.493,2.557s4.722-.908,7.493-2.557c.923-.549,2.075-.561,3.007-.032.939.534,1.5,1.499,1.5,2.581Zm-21.027.029l.018,11.988,3.432-3.432c1.423-1.423,3.731-1.423,5.154,0l9.418,9.418s.003.002.005.003V2.992c-2.257,1.388-5.677,3.008-9,3.008s-6.743-1.62-9.027-2.979Z"/>
</svg>
