<?xml version="1.0" encoding="UTF-8"?>
<svg xmlns="http://www.w3.org/2000/svg" id="Layer_1" data-name="Layer 1" viewBox="0 0 24 24" width="512" height="512"><path d="M9,22c0,1.1-.9,2-2,2s-2-.9-2-2,.9-2,2-2,2,.9,2,2Zm3.83-9.13c.39,.39,1.02,.39,1.41,0l3.16-3.16c.63-.63,.18-1.71-.71-1.71h-1.67c0-1.7-.02-5.19-.02-6.51,0-.83-.68-1.49-1.51-1.49h0c-.83,0-1.5,.68-1.49,1.5,0,1.32,.02,4.8,.02,6.5h-1.65c-.89,0-1.34,1.08-.71,1.71l3.16,3.16Zm10.49-6.53c-.67-.86-1.67-1.35-2.76-1.35-.83,0-1.5,.67-1.5,1.5s.67,1.5,1.5,1.5c.21,0,.34,.12,.39,.19,.06,.07,.14,.22,.09,.43l-1.12,4.49c-.28,1.11-1.28,1.89-2.43,1.89H7.25c-.25,0-.46-.19-.5-.43l-.88-6.57h.62c.83,0,1.5-.67,1.5-1.5s-.67-1.5-1.5-1.5h-1.02l-.26-1.96c-.23-1.73-1.72-3.04-3.47-3.04h-.25C.67,0,0,.67,0,1.5s.67,1.5,1.5,1.5h.25c.25,0,.46,.19,.5,.43l1.54,11.53c.23,1.73,1.72,3.04,3.47,3.04h10.25c2.53,0,4.72-1.71,5.34-4.17l1.12-4.49c.26-1.05,.03-2.15-.64-3Zm-6.32,13.65c-1.1,0-2,.9-2,2s.9,2,2,2,2-.9,2-2-.9-2-2-2Z"/></svg>
