<?xml version="1.0" encoding="UTF-8"?>
<svg xmlns="http://www.w3.org/2000/svg" id="Layer_1" data-name="Layer 1" viewBox="0 0 24 24" width="512" height="512"><path d="m21.5,16h-12.536c-4.108,0-8.125,2.638-8.294,2.75C.251,19.029,0,19.499,0,20.002c0,.503.253.972.673,1.25.17.112,4.209,2.748,8.291,2.748h12.536c1.378,0,2.5-1.122,2.5-2.5v-3c0-1.378-1.122-2.5-2.5-2.5Zm-16.764,3.999c1.261-.53,2.796-.999,4.228-.999h1.915l2,2h-3.915c-1.475,0-3.007-.483-4.228-1.001Zm16.264,1.001h-3.879l-2-2h5.879v2ZM11,4.856v-1.356c0-.829.671-1.5,1.5-1.5s1.5.671,1.5,1.5v1.356c0,.873.465,1.695,1.214,2.144l1.602.961c1.347.808,2.185,2.287,2.185,3.858v.68c0,.829-.671,1.5-1.5,1.5s-1.5-.671-1.5-1.5v-.68c0-.524-.279-1.017-.728-1.286l-1.602-.961c-1.647-.989-2.67-2.796-2.67-4.716Zm13,5.408v.235c0,.829-.671,1.5-1.5,1.5s-1.5-.671-1.5-1.5v-.235c0-.873-.465-1.694-1.213-2.144l-2.088-1.252c-1.048-.629-1.699-1.779-1.699-3.001V1.5c0-.829.671-1.5,1.5-1.5s1.5.671,1.5,1.5v2.368c0,.175.093.339.243.429l2.087,1.252c1.647.988,2.67,2.795,2.67,4.716Z"/></svg>
