<?xml version="1.0" encoding="UTF-8"?>
<svg xmlns="http://www.w3.org/2000/svg" id="Layer_1" data-name="Layer 1" viewBox="0 0 24 24" width="512" height="512"><path d="m20.389,4.268l-2.656-2.657c-1.039-1.039-2.42-1.611-3.89-1.611h-6.343C4.468,0,2,2.467,2,5.5v13c0,3.033,2.468,5.5,5.5,5.5h9c3.032,0,5.5-2.467,5.5-5.5v-10.343c0-1.469-.572-2.85-1.611-3.889Zm-3.889,16.732H7.5c-1.379,0-2.5-1.122-2.5-2.5V5.5c0-1.378,1.121-2.5,2.5-2.5h5.5v4c0,1.105.895,2,2,2h4v9.5c0,1.378-1.121,2.5-2.5,2.5Zm-.752-5.346l-3.063,3.063c-.378.378-.991.378-1.369,0l-3.063-3.063c-.61-.61-.178-1.653.685-1.653h1.563v-2.501c0-.829.672-1.5,1.5-1.5s1.5.671,1.5,1.5v2.501h1.563c.863,0,1.295,1.043.685,1.653Z"/></svg>
