<?xml version="1.0" encoding="UTF-8"?>
<svg xmlns="http://www.w3.org/2000/svg" id="Layer_1" data-name="Layer 1" viewBox="0 0 24 24" width="512" height="512"><path d="M17.8,21.21c.42,.72,.17,1.63-.55,2.05-.83,.48-1.78,.74-2.75,.74H5.5c-3.03,0-5.5-2.47-5.5-5.5V5.5C0,2.47,2.47,0,5.5,0h6.34c1.45,0,2.87,.59,3.89,1.61l2.66,2.66c.82,.82,1.35,1.85,1.54,2.99,.14,.82-.42,1.61-1.23,1.75-.06,.01-5.69,0-5.69,0-1.1,0-2-.9-2-2V3H5.5c-1.38,0-2.5,1.12-2.5,2.5v13c0,1.38,1.12,2.5,2.5,2.5H14.5c.44,0,.87-.12,1.25-.33,.71-.41,1.63-.17,2.05,.55Zm5.91-6.42l-3-3.16c-.63-.63-1.71-.18-1.71,.71v1.66h-5.5c-.83,0-1.5,.67-1.5,1.5s.67,1.5,1.5,1.5h5.5v1.66c0,.89,1.08,1.34,1.71,.71l3-3.16c.39-.39,.39-1.02,0-1.41Z"/></svg>
