<?xml version="1.0" encoding="UTF-8"?>
<svg xmlns="http://www.w3.org/2000/svg" id="Layer_1" data-name="Layer 1" viewBox="0 0 24 24">
  <path d="m21.884,17.006l-3.873-3.727c2.759-3.139,2.642-7.94-.354-10.937-1.512-1.51-3.521-2.342-5.657-2.342-2.063,0-4.021.782-5.514,2.204-1.554,1.479-2.461,3.589-2.487,5.788-.025,1.99.672,3.925,1.947,5.421l-3.845,3.608c-.673.667-1.04,1.555-1.036,2.501.005.946.381,1.832,1.06,2.492l1.02.992c.681.663,1.569.991,2.453.991.889,0,1.773-.333,2.434-.993l3.984-3.763,3.925,3.732c.68.68,1.577,1.02,2.476,1.02.882,0,1.765-.328,2.44-.986l1.021-.993c.679-.66,1.055-1.546,1.06-2.492.004-.946-.363-1.834-1.052-2.517Zm-7.644-7.355c.92-.856,1.986-2.041,2.48-3.299.562,1.618.27,3.468-.875,4.844l-1.606-1.545Zm-2.24-6.651c1.103,0,2,.897,2,2,0,.48-.888,1.612-2,2.626-1.112-1.014-2-2.146-2-2.626,0-1.103.897-2,2-2Zm-6.061,17.854c-.192.192-.508.194-.703.004l-1.021-.993c-.131-.127-.15-.277-.151-.355,0-.078.019-.229.118-.328l3.91-3.668,1.744,1.659-3.898,3.682Zm13.845-.989l-1.021.994c-.193.188-.51.188-.729-.031l-9.563-9.095c-.953-.953-1.489-2.304-1.473-3.703.007-.581.105-1.143.285-1.667.77,1.943,2.9,3.714,3.741,4.358l8.764,8.432c.129.128.147.278.147.356,0,.078-.021.229-.151.355Z"/>
</svg>
