<?xml version="1.0" encoding="UTF-8"?>
<svg xmlns="http://www.w3.org/2000/svg" id="Layer_1" data-name="Layer 1" viewBox="0 0 24 24" width="512" height="512"><path d="M14,20H7.5c-1.38,0-2.5-1.12-2.5-2.5v-1.53c.17,.02,.34,.03,.52,.03,.83,0,1.5-.67,1.5-1.5s-.67-1.5-1.5-1.5c-.47,0-.91-.22-1.19-.6-.28-.38-.37-.86-.23-1.31,.24-.79-.21-1.63-1-1.87-.79-.24-1.63,.21-1.87,1-.42,1.37-.17,2.82,.69,3.97,.02,.03,.05,.06,.08,.09v3.22c0,3.03,2.47,5.5,5.5,5.5h6.5c.83,0,1.5-.67,1.5-1.5s-.67-1.5-1.5-1.5Z"/><path d="M23.56,21.44l-1.94-1.94c.25-.63,.38-1.31,.38-2v-3.22s.05-.06,.08-.09c.85-1.15,1.1-2.6,.71-3.9l-1.4-5.59c-.39-2.15-2.24-3.7-4.43-3.7H7.04c-1.06,0-2.08,.38-2.88,1.04L2.56,.44C1.97-.15,1.03-.15,.44,.44-.15,1.02-.15,1.98,.44,2.56L21.44,23.56c.29,.29,.68,.44,1.06,.44s.77-.15,1.06-.44c.59-.59,.59-1.54,0-2.12ZM7.04,4h.96v.5c0,.83,.67,1.5,1.5,1.5s1.5-.67,1.5-1.5v-.5h2v.5c0,.83,.67,1.5,1.5,1.5s1.5-.67,1.5-1.5v-.5h.96c.74,0,1.36,.53,1.48,1.25,0,.04,.01,.08,.02,.12l1.43,5.72c.14,.45,.06,.93-.23,1.31-.28,.38-.71,.6-1.19,.6-.82,0-1.48-.66-1.48-1.48s-.67-1.5-1.5-1.5-1.5,.67-1.5,1.5c0,.11-.01,.22-.04,.32L6.32,4.19c.22-.12,.47-.19,.73-.19Z"/></svg>
