<?xml version="1.0" encoding="UTF-8"?>
<svg xmlns="http://www.w3.org/2000/svg" id="Layer_1" data-name="Layer 1" viewBox="0 0 24 24" width="512" height="512"><path d="m21.5,3h-3.757c-.619-1.746-2.287-3-4.243-3h-3c-1.956,0-3.624,1.254-4.243,3h-3.757c-.829,0-1.5.671-1.5,1.5s.671,1.5,1.5,1.5h.5v12.5c0,3.033,2.467,5.5,5.5,5.5h7c3.033,0,5.5-2.467,5.5-5.5V6h.5c.829,0,1.5-.671,1.5-1.5s-.671-1.5-1.5-1.5Zm-3.5,15.5c0,1.378-1.122,2.5-2.5,2.5h-7c-1.378,0-2.5-1.122-2.5-2.5V6h12v12.5Zm-2.252-6.154c.61.61.178,1.653-.685,1.653h-1.563v2.501c0,.829-.671,1.5-1.5,1.5s-1.5-.671-1.5-1.5v-2.501h-1.563c-.863,0-1.295-1.043-.685-1.653l3.063-3.063c.378-.378.991-.378,1.369,0l3.063,3.063Z"/></svg>
