<?xml version="1.0" encoding="UTF-8"?>
<svg xmlns="http://www.w3.org/2000/svg" id="Layer_1" data-name="Layer 1" viewBox="0 0 24 24" width="512" height="512"><path d="m3,12.5c0,.828-.672,1.5-1.5,1.5s-1.5-.672-1.5-1.5.672-1.5,1.5-1.5,1.5.672,1.5,1.5Zm-1.5,3.5c-.828,0-1.5.672-1.5,1.5s.672,1.5,1.5,1.5,1.5-.672,1.5-1.5-.672-1.5-1.5-1.5Zm0,5c-.828,0-1.5.672-1.5,1.5s.672,1.5,1.5,1.5,1.5-.672,1.5-1.5-.672-1.5-1.5-1.5Zm4-7.5c-.828,0-1.5.672-1.5,1.5s.672,1.5,1.5,1.5,1.5-.672,1.5-1.5-.672-1.5-1.5-1.5Zm0,5c-.828,0-1.5.672-1.5,1.5s.672,1.5,1.5,1.5,1.5-.672,1.5-1.5-.672-1.5-1.5-1.5Zm17.471-9.706c-.001.006-.003.012-.004.019l-1.835,8.809c-.529,2.537-2.793,4.378-5.384,4.378h-3.748c-1.654,0-3-1.346-3-3v-3c0-1.654,1.346-3,3-3h.062l2.119-10.228c.349-1.612,1.788-2.772,3.423-2.772h2.895c1.055,0,2.042.468,2.71,1.285s.93,1.878.719,2.912l-.958,4.597Zm-5.855-5.4l-.747,3.606h3.912l.71-3.408c.04-.195-.048-.34-.104-.409-.056-.069-.181-.184-.387-.184h-2.895c-.234,0-.439.166-.489.394Zm2.54,6.606h-3.909l-.995,4.804c-.144.696-.758,1.196-1.469,1.196h-1.283v3h3.748c1.178,0,2.207-.837,2.448-1.99l1.46-7.01Z"/></svg>
