<?xml version="1.0" encoding="UTF-8"?>
<svg xmlns="http://www.w3.org/2000/svg" id="Layer_1" data-name="Layer 1" viewBox="0 0 24 24" width="512" height="512"><path d="M10,14.5v3c0,.829-.672,1.5-1.5,1.5s-1.5-.671-1.5-1.5v-3c0-.829,.672-1.5,1.5-1.5s1.5,.671,1.5,1.5ZM24,5.5v13c0,3.033-2.468,5.5-5.5,5.5H5.5c-3.032,0-5.5-2.467-5.5-5.5V5.5C0,2.467,2.468,0,5.5,0h13c3.032,0,5.5,2.467,5.5,5.5ZM5.5,3c-.12,0-.238,.009-.353,.025l3.234,3.234c.821-.789,1.932-1.259,3.12-1.259h1.5c2.757,0,5,2.243,5,5,0,1.58-.753,3.02-1.935,3.944l4.91,4.91c.016-.116,.025-.233,.025-.353V5.5c0-1.378-1.121-2.5-2.5-2.5H5.5Zm9.5,7c0-1.103-.897-2-2-2h-1.5c-.376,0-.729,.141-.998,.381l3.403,3.403c.653-.334,1.096-1.017,1.096-1.783Zm3.5,11c.12,0,.238-.009,.353-.025L3.025,5.147c-.016,.116-.025,.233-.025,.353v13c0,1.378,1.121,2.5,2.5,2.5h13Z"/></svg>
