<?xml version="1.0" encoding="UTF-8"?>
<svg xmlns="http://www.w3.org/2000/svg" id="Layer_1" data-name="Layer 1" viewBox="0 0 24 24" width="512" height="512"><path d="M12,0C5.383,0,0,5.383,0,12s5.383,12,12,12,12-5.383,12-12S18.617,0,12,0Zm0,21c-4.962,0-9-4.037-9-9S7.038,3,12,3s9,4.037,9,9-4.037,9-9,9Zm5-6.5c0,2.481-2.019,4.5-4.5,4.5h-3c-.829,0-1.5-.672-1.5-1.5s.671-1.5,1.5-1.5h3c.827,0,1.5-.673,1.5-1.5s-.673-1.5-1.5-1.5h-2c-.829,0-1.5-.672-1.5-1.5s.671-1.5,1.5-1.5h1.5c.551,0,1-.448,1-1s-.449-1-1-1h-2.5c-.829,0-1.5-.672-1.5-1.5s.671-1.5,1.5-1.5h2.5c2.206,0,4,1.794,4,4,0,.76-.213,1.471-.582,2.077,.968,.826,1.582,2.054,1.582,3.423Z"/></svg>
