<?xml version="1.0" encoding="UTF-8"?>
<svg xmlns="http://www.w3.org/2000/svg" id="Layer_1" data-name="Layer 1" viewBox="0 0 24 24" width="512" height="512"><path d="m10.998,18.713c.043,1.712-.671,3.514-1.91,4.819-.295.311-.691.468-1.089.468-.371,0-.742-.137-1.032-.412-.601-.57-.626-1.52-.056-2.12.684-.721,1.11-1.772,1.087-2.681-.035-1.387-.354-1.962-.663-2.341-.523-.643-.426-1.587.217-2.11.642-.521,1.587-.425,2.11.218.878,1.08,1.29,2.362,1.334,4.159Zm1.502-7.713c-.828,0-1.5.672-1.5,1.5s.672,1.5,1.5,1.5,1.5-.672,1.5-1.5-.672-1.5-1.5-1.5Zm-10,7c-.828,0-1.5.672-1.5,1.5s.672,1.5,1.5,1.5,1.5-.672,1.5-1.5-.672-1.5-1.5-1.5ZM20.5,5c.828,0,1.5-.672,1.5-1.5s-.672-1.5-1.5-1.5-1.5.672-1.5,1.5.672,1.5,1.5,1.5Zm3.096,1.977c-.565-.605-1.515-.638-2.12-.073-1.03.962-1.678,1.095-2.226,1.095-1.072,0-1.739-.633-2.226-1.094-.604-.565-1.554-.532-2.12.071-.566.605-.534,1.555.071,2.12.618.586,2.006,1.902,4.274,1.902,1.526,0,2.884-.604,4.274-1.901.605-.565.638-1.515.072-2.12Zm-1.096,14.023c-.828,0-1.5.672-1.5,1.5s.672,1.5,1.5,1.5,1.5-.672,1.5-1.5-.672-1.5-1.5-1.5Zm0-8c-.828,0-1.5.672-1.5,1.5s.672,1.5,1.5,1.5,1.5-.672,1.5-1.5-.672-1.5-1.5-1.5Zm-5.022,2.459c-.587-.565-1.504-.548-2.084.026-.579.573-.582,1.518-.021,2.109.025.027.628.679.628,1.905,0,.844-.2,1.448-.69,2.087-.504.657-.38,1.599.277,2.103.272.21.593.311.912.311.45,0,.896-.202,1.191-.587.894-1.164,1.31-2.407,1.31-3.913,0-2.501-1.367-3.892-1.522-4.041Zm-3.511-12.237c.146.981-.186,1.985-.885,2.685l-7.175,7.175c-.591.591-1.399.919-2.227.919-.152,0-.306-.012-.458-.034-.962-.143-1.774-.71-2.227-1.556C-.77,9.112-.177,5.117,2.47,2.47S9.111-.771,12.41.995c.846.452,1.414,1.264,1.557,2.227Zm-2.976.413c-.794-.424-1.667-.629-2.537-.629-1.416,0-2.822.545-3.862,1.585-1.679,1.68-2.07,4.312-.952,6.403.011.008.092.018.146-.034l7.175-7.175c.053-.054.042-.133.031-.15Z"/></svg>
