<?xml version="1.0" encoding="UTF-8"?>
<svg xmlns="http://www.w3.org/2000/svg" id="Layer_1" data-name="Layer 1" viewBox="0 0 24 24" width="512" height="512"><path d="M14.32,14.92c-1.37,.17-2.77,.07-4.04-.28-.41-.92-1.59-3.46-2.6-4.47-.72-.72-1.66-1.13-2.68-1.17,0,0,0,0,0,0,0-3.31,3.59-6,8-6s8,2.69,8,6c0,.93-.28,1.83-.84,2.67-.46,.69-.28,1.62,.41,2.08,.26,.17,.55,.25,.83,.25,.48,0,.96-.23,1.25-.67,.88-1.32,1.35-2.82,1.35-4.33C24,4.04,19.07,0,13,0S2,4.04,2,9c0,.38,.03,.75,.08,1.12-.02,.02-1.22,1.38-1.22,2.87,0,.8,.24,1.57,.67,2.22-.8,.93-1.54,2.28-1.54,4.29,0,3.3,2.69,4.5,4.5,4.5,.82,0,1.48-.66,1.49-1.48,.01-.82-.65-1.5-1.47-1.52-.69-.02-1.52-.29-1.52-1.5,0-1.44,.6-2.19,1.22-2.75,.98,.19,2.13,.26,3.25,.26,.17,0,.33,0,.5,0,1.55,.65,3.28,.99,5.04,.99,.56,0,1.13-.04,1.68-.1,.82-.1,1.41-.85,1.3-1.67-.1-.82-.85-1.41-1.67-1.3Zm8.82,6.23l-1.55,.44-.44,1.55c-.33,1.15-1.96,1.15-2.29,0l-.44-1.55-1.55-.44c-1.15-.33-1.15-1.96,0-2.29l1.55-.44,.44-1.55c.33-1.15,1.96-1.15,2.29,0l.44,1.55,1.55,.44c1.15,.33,1.15,1.96,0,2.29Zm-5.89-12.65c1.01,.29,1.01,1.72,0,2l-1.36,.39-.39,1.36c-.29,1.01-1.72,1.01-2,0l-.39-1.36-1.36-.39c-1.01-.29-1.01-1.72,0-2l1.36-.39,.39-1.36c.29-1.01,1.72-1.01,2,0l.39,1.36,1.36,.39Z"/></svg>
