<?xml version="1.0" encoding="UTF-8"?>
<svg xmlns="http://www.w3.org/2000/svg" id="Layer_1" data-name="Layer 1" viewBox="0 0 24 24" width="512" height="512"><path d="m5.439,15.439c.586-.586,1.535-.586,2.121,0l1,1c.586.585.586,1.536,0,2.121-.293.293-.677.439-1.061.439s-.768-.146-1.061-.439l-1-1c-.586-.585-.586-1.536,0-2.121Zm4,.121c.293.293.677.439,1.061.439s.768-.146,1.061-.439c.586-.585.586-1.536,0-2.121l-1-1c-.586-.586-1.535-.586-2.121,0-.586.585-.586,1.536,0,2.121l1,1Zm12.845-7.571h-5.285v.5c0,1.674-.142,3.158-.384,4.5h.587c1.137,0,1.937.921,1.776,2.047-.16,1.12-1.119,1.953-2.251,1.953h-1.334c-2.353,5.078-6.92,6.676-11.124,7.001-.079.006-1.509.247-3.003-1.247C.384,21.86-.077,20.646.011,19.408c.189-2.669.974-5.572,2.997-7.904.041-3.147,2.256-5.898,5.36-6.461.041-.007.364-.053.482-.053,1.168,0,2.151.987,2.151,2.202v.177c1.343-.239,2.826-.379,4.5-.379h.5V1.705C16,.688,16.832-.01,17.722-.01c.35,0,.708.108,1.029.346.968.72,1.586,1.676,1.82,3.082,1.407.234,2.362.852,3.082,1.82.845,1.137.047,2.751-1.369,2.751Zm-8.331,2.046c-4.953-.036-7.96,2.604-7.96,2.604l-.719.829c-1.326,1.529-2.09,3.598-2.27,6.15-.026.368.113.732.381.998.28.279.547.382.649.382,4.326-.334,7.15-2.058,8.639-5.271,0,0,1.327-3.229,1.28-5.692Z"/></svg>
