<?xml version="1.0" encoding="UTF-8"?>
<svg xmlns="http://www.w3.org/2000/svg" id="Layer_1" data-name="Layer 1" viewBox="0 0 24 24" width="512" height="512"><path d="M16,2.5c0-1.38,1.12-2.5,2.5-2.5s2.5,1.12,2.5,2.5-1.12,2.5-2.5,2.5-2.5-1.12-2.5-2.5Zm8,8v3c0,1.56-.79,2.93-2,3.74v5.26c0,.83-.67,1.5-1.5,1.5s-1.5-.67-1.5-1.5v-4.5h-1v4.5c0,.83-.67,1.5-1.5,1.5s-1.5-.67-1.5-1.5v-5.26c-1.21-.81-2-2.18-2-3.74v-3c0-2.48,2.02-4.5,4.5-4.5h2c2.48,0,4.5,2.02,4.5,4.5Zm-8,3c0,.83,.67,1.5,1.5,1.5h2c.83,0,1.5-.67,1.5-1.5v-3c0-.83-.67-1.5-1.5-1.5h-2c-.83,0-1.5,.67-1.5,1.5v3ZM5.5,5c1.38,0,2.5-1.12,2.5-2.5S6.88,0,5.5,0,3,1.12,3,2.5s1.12,2.5,2.5,2.5Zm5.5,5.5v3c0,1.56-.79,2.93-2,3.74v5.26c0,.83-.67,1.5-1.5,1.5s-1.5-.67-1.5-1.5v-4.5h-1v4.5c0,.83-.67,1.5-1.5,1.5s-1.5-.67-1.5-1.5v-5.26c-1.21-.81-2-2.18-2-3.74v-3c0-2.48,2.02-4.5,4.5-4.5h2c2.48,0,4.5,2.02,4.5,4.5ZM3,13.5c0,.83,.67,1.5,1.5,1.5h2c.83,0,1.5-.67,1.5-1.5v-3c0-.83-.67-1.5-1.5-1.5h-2c-.83,0-1.5,.67-1.5,1.5v3Z"/></svg>
