<?xml version="1.0" encoding="UTF-8"?>
<svg xmlns="http://www.w3.org/2000/svg" id="Layer_1" data-name="Layer 1" viewBox="0 0 24 24" width="512" height="512"><path d="M20.742,15.174c-.793-2.473-3.11-4.174-5.743-4.174-1.061,0-2.106,.288-2.976,.832-.917-.544-1.963-.832-3.024-.832-2.632,0-4.95,1.701-5.743,4.174C1.249,15.747-.104,17.624,.006,19.74c.125,2.389,2.171,4.26,4.659,4.26h14.67c2.487,0,4.534-1.872,4.659-4.261,.11-2.115-1.243-3.993-3.251-4.565Zm-1.407,5.826H4.665c-.876,0-1.622-.636-1.663-1.417-.039-.738,.454-1.389,1.172-1.548,.932-.207,1.658-.893,1.896-1.792,.348-1.321,1.553-2.243,2.93-2.243,.53,0,1.033,.139,1.495,.413,.929,.549,2.083,.55,3.012,0,.461-.273,.964-.412,1.494-.412,1.377,0,2.583,.922,2.931,2.242,.237,.899,.963,1.586,1.896,1.793h0c.717,.159,1.209,.81,1.171,1.547-.041,.782-.787,1.417-1.663,1.417ZM5.085,10.035c-.05-.335-.085-.675-.085-1.024v-.012l.002-.02c0-3.879,2.483-5.36,2.483-5.36,.123-.078,.26-.135,.417-.135,.438,0,.793,.355,.793,.792,0,.245-.194,.519-.194,.973,0,.828,.481,1.75,1.759,1.75s1.741-.922,1.741-1.75c0-1-1-1.454-1-2.954,0-.435,.19-1.339,.404-1.753,.277-.535,.961-.705,1.464-.374l1.456,1.373c.78,.513,4.665,3.282,4.674,7.45v.015h0c0,.351-.034,.692-.085,1.029l-.005,.005c-1.166-.658-2.498-1.041-3.909-1.041-1.028,0-2.048,.203-3,.593-.952-.39-1.972-.593-3-.593-1.411,0-2.743,.383-3.909,1.041l-.005-.005Z"/></svg>
