<?xml version="1.0" encoding="UTF-8"?>
<svg xmlns="http://www.w3.org/2000/svg" id="Layer_1" data-name="Layer 1" viewBox="0 0 24 24" width="512" height="512"><path d="m17.071,12.962c.571.59.568,1.525-.016,2.104-.2.198-2.04,1.934-5.056,1.934s-4.855-1.736-5.056-1.934c-.589-.583-.593-1.533-.01-2.122.581-.588,1.53-.593,2.121-.01.035.033,1.146,1.066,2.944,1.066s2.909-1.033,2.956-1.077c.595-.565,1.542-.551,2.115.04Zm-8.571-1.962c.828,0,1.5-.672,1.5-1.5s-.672-1.5-1.5-1.5-1.5.672-1.5,1.5.672,1.5,1.5,1.5Zm7,0c.828,0,1.5-.672,1.5-1.5s-.672-1.5-1.5-1.5-1.5.672-1.5,1.5.672,1.5,1.5,1.5Zm8.5,1.325v6.357c0,2.933-2.386,5.318-5.318,5.318h-5.647C6.061,24,.471,19.208.03,12.853c-.241-3.475,1.026-6.876,3.479-9.332C5.96,1.066,9.354-.206,12.835.028c6.261.426,11.165,5.827,11.165,12.296Zm-3,0c0-4.898-3.676-8.984-8.368-9.303-.206-.014-.412-.021-.617-.021-2.392,0-4.689.944-6.383,2.64-1.84,1.842-2.79,4.395-2.609,7.004h0c.336,4.841,4.546,8.355,10.012,8.355h5.647c1.278,0,2.318-1.04,2.318-2.318v-6.357Z"/></svg>
