<?xml version="1.0" encoding="UTF-8"?>
<svg xmlns="http://www.w3.org/2000/svg" id="Layer_1" data-name="Layer 1" viewBox="0 0 24 24" width="512" height="512"><path d="m13.121,11l2,2h7.379c.829,0,1.5.671,1.5,1.5s-.671,1.5-1.5,1.5h-4.379l2,2h2.379c.829,0,1.5.671,1.5,1.5,0,.644-.408,1.189-.978,1.401l.538.538c.586.585.586,1.536,0,2.121-.293.293-.677.439-1.061.439s-.768-.146-1.061-.439L.439,2.561C-.146,1.975-.146,1.025.439.439,1.025-.146,1.975-.146,2.561.439l2.561,2.561h17.379c.829,0,1.5.671,1.5,1.5s-.671,1.5-1.5,1.5h-14.379l2,2h12.379c.829,0,1.5.671,1.5,1.5s-.671,1.5-1.5,1.5h-9.379Zm-11.621,0h1c.829,0,1.5-.671,1.5-1.5s-.671-1.5-1.5-1.5h-1c-.829,0-1.5.671-1.5,1.5s.671,1.5,1.5,1.5Zm0,5h6c.829,0,1.5-.671,1.5-1.5s-.671-1.5-1.5-1.5H1.5c-.829,0-1.5.671-1.5,1.5s.671,1.5,1.5,1.5Zm11,2H1.5c-.829,0-1.5.671-1.5,1.5s.671,1.5,1.5,1.5h11c.829,0,1.5-.671,1.5-1.5s-.671-1.5-1.5-1.5Z"/></svg>
