<?xml version="1.0" encoding="UTF-8"?>
<svg xmlns="http://www.w3.org/2000/svg" id="Layer_1" data-name="Layer 1" viewBox="0 0 24 24" width="512" height="512"><path d="M17.917,5.628c-1.141-1.385-2.321-2.817-3.077-4.335C14.422,.452,13.57-.07,12.655-.007c-.901,.051-1.658,.624-1.974,1.495-.339,.934-.681,2.635-.681,4.328,0,2.276,.738,3.692,1.332,4.829,.49,.94,.743,1.466,.674,2.22-.058,.646-.661,1.148-1.354,1.148-1.345-.016-2.099-.757-2.233-4.624-.039-1.102-.779-2.029-1.842-2.308-1.063-.28-2.157,.166-2.728,1.104-.86,1.411-1.849,3.336-1.849,5.717,0,5.562,4.462,10.087,9.946,10.087,5.509-.034,10.053-4.56,10.053-10.062,.055-3.275-2.048-5.829-4.082-8.3Zm1.082,8.274c0,3.884-3.188,7.062-7.053,7.087-3.83,0-6.946-3.179-6.946-7.087,0-.808,.175-1.618,.552-2.511,.293,2.405,1.294,5.578,5.066,5.622,2.233,0,4.178-1.694,4.375-3.878,.151-1.666-.461-2.841-1.002-3.877-.51-.978-.992-1.901-.992-3.442,0-.516,.042-1.047,.109-1.541,.759,1.155,1.636,2.22,2.493,3.26,1.843,2.238,3.435,4.172,3.398,6.367Z"/></svg>
