<?xml version="1.0" encoding="UTF-8"?>
<svg xmlns="http://www.w3.org/2000/svg" id="Layer_1" data-name="Layer 1" viewBox="0 0 24 24" width="512" height="512"><path d="M18.5,0H5.5C2.47,0,0,2.47,0,5.5v13c0,3.03,2.47,5.5,5.5,5.5h13c3.03,0,5.5-2.47,5.5-5.5V5.5c0-3.03-2.47-5.5-5.5-5.5Zm2.5,18.5c0,1.38-1.12,2.5-2.5,2.5H5.5c-1.38,0-2.5-1.12-2.5-2.5V5.5c0-1.38,1.12-2.5,2.5-2.5h13c1.38,0,2.5,1.12,2.5,2.5v13ZM5,7.5c0-1.38,1.12-2.5,2.5-2.5s2.5,1.12,2.5,2.5-1.12,2.5-2.5,2.5-2.5-1.12-2.5-2.5Zm9,1.5v-3c0-.55,.45-1,1-1h3c.55,0,1,.45,1,1v3c0,.55-.45,1-1,1h-3c-.55,0-1-.45-1-1Zm-3.83,6.34c.39,.39,.39,1.02,0,1.41l-2,2c-.39,.39-1.02,.39-1.41,0l-2-2c-.39-.39-.39-1.02,0-1.41l2-2c.39-.39,1.02-.39,1.41,0l2,2Zm9.28,2.19c.4,.64-.06,1.47-.81,1.47h-4.28c-.75,0-1.21-.83-.81-1.47l2.14-3.42c.38-.6,1.25-.6,1.63,0l2.14,3.42Z"/></svg>
