<?xml version="1.0" encoding="UTF-8"?>
<svg xmlns="http://www.w3.org/2000/svg" id="Layer_1" data-name="Layer 1" viewBox="0 0 24 24" width="512" height="512"><path d="M12,0C5.383,0,0,5.383,0,12s5.383,12,12,12,12-5.383,12-12S18.617,0,12,0Zm0,21c-4.963,0-9-4.037-9-9S7.037,3,12,3s9,4.037,9,9-4.037,9-9,9Zm3.842-2.329c-.263,.525-.793,.829-1.343,.829-.226,0-.454-.051-.67-.158,0,0-.743-.342-1.829-.342-1.092,0-1.837,.346-1.844,.349-.745,.354-1.639,.042-1.997-.697-.359-.738-.065-1.625,.67-1.993,.135-.067,1.369-.658,3.171-.658s3.036,.591,3.171,.658c.741,.371,1.041,1.271,.671,2.013Zm-1.655-12.09c-.321-.449-.217-1.074,.232-1.395,.449-.321,1.075-.218,1.395,.232,.484,.678,1.496,1.344,2.462,1.62,.53,.151,.838,.705,.686,1.236-.125,.438-.525,.725-.96,.725-.092,0-.185-.013-.276-.039-1.404-.401-2.793-1.336-3.538-2.38Zm-9.147,1.694c-.152-.531,.154-1.085,.686-1.236,.965-.276,1.978-.943,2.462-1.621,.321-.448,.945-.553,1.396-.231,.449,.321,.553,.946,.231,1.396-.746,1.043-2.136,1.978-3.538,2.379-.092,.026-.185,.039-.275,.039-.436,0-.836-.286-.961-.725Zm10.961,.724c-.304,0-.592,.059-.869,.144,.512,.239,.869,.755,.869,1.356,0,.828-.672,1.5-1.5,1.5-.602,0-1.117-.357-1.356-.869-.085,.277-.144,.565-.144,.869,0,1.654,1.346,3,3,3s3-1.346,3-3-1.346-3-3-3Zm1,5c-.552,0-1-.448-1-1s.448-1,1-1,1,.448,1,1-.448,1-1,1Zm-6-2c0-1.654-1.346-3-3-3-.304,0-.592,.059-.869,.144,.512,.239,.869,.755,.869,1.356,0,.828-.672,1.5-1.5,1.5-.602,0-1.117-.357-1.356-.869-.085,.277-.144,.565-.144,.869,0,1.654,1.346,3,3,3s3-1.346,3-3Zm-2,2c-.552,0-1-.448-1-1s.448-1,1-1,1,.448,1,1-.448,1-1,1Z"/></svg>
