<?xml version="1.0" encoding="UTF-8"?>
<svg xmlns="http://www.w3.org/2000/svg" id="Layer_1" data-name="Layer 1" viewBox="0 0 24 24" width="512" height="512"><path d="M20.78,17.42c-1.35,2.6-3.9,4.3-6.78,4.55v.53c0,.83-.67,1.5-1.5,1.5s-1.5-.67-1.5-1.5v-.52c-4.41-.29-7.9-3.96-7.9-8.44v-3.09C3.1,5.98,6.59,2.3,11,2.02v-.52c0-.83,.67-1.5,1.5-1.5s1.5,.67,1.5,1.5v.53c2.93,.25,5.51,1.99,6.84,4.66,.37,.74,.07,1.64-.68,2.01-.74,.37-1.64,.07-2.01-.67-.93-1.87-2.8-3.03-4.89-3.03h-1.72c-3.01,0-5.45,2.45-5.45,5.45v3.09c0,3.01,2.45,5.45,5.45,5.45h1.72c2.05,0,3.91-1.13,4.85-2.95,.38-.74,1.29-1.03,2.02-.64,.74,.38,1.02,1.29,.64,2.02Z"/></svg>
