<?xml version="1.0" encoding="UTF-8"?>
<svg xmlns="http://www.w3.org/2000/svg" id="Layer_1" data-name="Layer 1" viewBox="0 0 24 24" width="512" height="512"><path d="m20.389,4.268l-2.656-2.656c-1.039-1.039-2.42-1.611-3.89-1.611h-6.343C4.468,0,2,2.468,2,5.5v13c0,3.032,2.467,5.5,5.5,5.5h9c3.033,0,5.5-2.468,5.5-5.5v-10.343c0-1.47-.572-2.851-1.611-3.89Zm-11.723,15.658c-.335.628-1.003,1.058-1.772,1.058-1.08,0-1.956-.876-1.956-1.956l-.008-2.055c0-1.08.876-1.956,1.956-1.956.768,0,1.437.429,1.772,1.058.221.415-.08.916-.55.916-.227,0-.439-.121-.545-.322-.124-.236-.379-.402-.665-.407-.399.007-.721.331-.72.732,0,.095.008,1.875.008,2.013-.001.401.321.725.72.732.287-.005.541-.171.665-.407.106-.201.318-.322.545-.322.47,0,.771.501.55.916Zm5.447-.485c-.159.894-1.013,1.543-2.029,1.543-.822,0-1.594-.331-2.118-.909-.231-.254-.212-.647.042-.877h0c.254-.231.647-.212.877.042h0c.285.314.732.501,1.197.501.446,0,.759-.264.805-.519.061-.343-.449-.559-.607-.618-.748-.276-1.422-.577-1.422-.577-.596-.38-.859-.963-.773-1.57.093-.646.565-1.172,1.232-1.373,1.31-.395,2.394.496,2.438.534l.003.002c.261.22.295.61.075.871l-.005.005c-.22.261-.609.295-.87.075-.025-.02-.629-.492-1.283-.298-.291.088-.349.281-.36.359-.008.059-.013.204.129.301.016,0,.611.262,1.265.504,1.216.449,1.521,1.328,1.4,2.002Zm4.6-3.697l-.964,4.619c-.075.362-.394.621-.764.621-.358,0-.67-.243-.757-.59l-1.165-4.626c-.096-.381.192-.751.585-.751.277,0,.518.188.585.456l.706,2.807.58-2.783c.058-.28.305-.48.591-.48h.012c.383,0,.669.352.591.727Zm-13.714-3.743v-6.5c0-1.379,1.121-2.5,2.5-2.5h5.5v4c0,1.105.895,2,2,2h4v3H5Z"/></svg>
