<?xml version="1.0" encoding="UTF-8"?>
<svg xmlns="http://www.w3.org/2000/svg" id="Layer_1" data-name="Layer 1" viewBox="0 0 24 24" width="512" height="512"><path d="M0,12c0-.86,.21-1.72,.63-2.51L3.71,3.79c.93-1.72,2.72-2.79,4.69-2.79h7.23c1.97,0,3.76,1.07,4.69,2.8l3.06,5.7c.84,1.57,.84,3.43,0,5l-3.06,5.7c-.93,1.73-2.72,2.8-4.69,2.8h-7.23c-1.96,0-3.76-1.07-4.68-2.79L.63,14.51C.21,13.73,0,12.87,0,12Zm21,0c0-.37-.09-.74-.27-1.08l-3.06-5.7c-.4-.75-1.19-1.22-2.05-1.22h-7.23c-.86,0-1.64,.47-2.04,1.22l-3.07,5.7c-.37,.68-.37,1.49,0,2.17l3.07,5.7c.4,.75,1.19,1.21,2.04,1.21h7.23c.86,0,1.64-.47,2.05-1.22t0,0l3.06-5.7c.18-.34,.27-.71,.27-1.08Z"/></svg>
