<?xml version="1.0" encoding="UTF-8"?>
<svg xmlns="http://www.w3.org/2000/svg" id="Layer_1" data-name="Layer 1" viewBox="0 0 24 24" width="512" height="512"><path d="M22,8.16c0-1.47-.57-2.85-1.61-3.89l-2.66-2.66c-1.04-1.04-2.42-1.61-3.89-1.61H7.5C4.47,0,2,2.47,2,5.5v6.5h0v6.5c0,3.03,2.47,5.5,5.5,5.5h9c3.03,0,5.5-2.47,5.5-5.5v-4.5s0,0,0,0v-5.84Zm-5.53,7.09l-1.42,5.66c-.15,.61-.68,1.05-1.31,1.09-.62,.03-1.21-.32-1.44-.91l-.55-1.38-.55,1.38c-.22,.56-.75,.91-1.34,.91-.03,0-.07,0-.1,0-.63-.04-1.15-.48-1.31-1.1l-1.41-5.66c-.13-.54,.19-1.08,.73-1.21,.53-.13,1.08,.19,1.21,.73l1,4,.85-2.13c.15-.38,.52-.63,.93-.63h0c.41,0,.78,.25,.93,.63l.84,2.13,1.01-4c.13-.54,.68-.86,1.21-.73,.54,.13,.86,.68,.73,1.21Zm-11.47-3.24V5.5c0-1.38,1.12-2.5,2.5-2.5h5.5V7c0,1.1,.9,2,2,2h4v3H5Z"/></svg>
