<?xml version="1.0" encoding="UTF-8"?>
<svg xmlns="http://www.w3.org/2000/svg" id="Layer_1" data-name="Layer 1" viewBox="0 0 24 24" width="512" height="512"><path d="M1.5,13c.829,0,1.5-.672,1.5-1.5,0-3.032,2.467-5.5,5.5-5.5h10.5v1.663c0,.891,1.077,1.337,1.707,.707l3-3.163c.391-.391,.391-1.024,0-1.414l-3-3.163c-.63-.63-1.707-.184-1.707,.707v1.663H8.5C3.813,3,0,6.813,0,11.5c0,.828,.671,1.5,1.5,1.5Zm21-2c-.828,0-1.5,.672-1.5,1.5,0,3.032-2.468,5.5-5.5,5.5H5v-1.663c0-.891-1.077-1.337-1.707-.707L.293,18.793c-.391,.391-.391,1.024,0,1.414l3,3.163c.63,.63,1.707,.184,1.707-.707v-1.663H15.5c4.687,0,8.5-3.813,8.5-8.5,0-.828-.672-1.5-1.5-1.5Z"/><path d="M12.5,8c-.338,0-.646,.116-.897,.304h-.01l-2.894,2.411c-.53,.441-.602,1.229-.16,1.76,.248,.297,.603,.45,.961,.45,.282,0,.566-.095,.8-.29l.7-.583v2.448c0,.828,.671,1.5,1.5,1.5s1.5-.672,1.5-1.5v-5c0-.828-.672-1.5-1.5-1.5Z"/></svg>
