<?xml version="1.0" encoding="UTF-8"?>
<svg xmlns="http://www.w3.org/2000/svg" id="Layer_1" data-name="Layer 1" viewBox="0 0 24 24" width="512" height="512"><path d="M14,19c0,1.1-.9,2-2,2s-2-.9-2-2,.9-2,2-2,2,.9,2,2ZM23.59,7.96l-.27-.28c-1.51-1.51-3.28-2.69-5.25-3.5-.76-.31-1.64,.05-1.96,.82-.31,.77,.05,1.64,.82,1.96,1.6,.65,3.03,1.61,4.26,2.84l.22,.23c.29,.31,.69,.46,1.09,.46,.37,0,.75-.14,1.04-.41,.6-.57,.62-1.52,.05-2.12ZM7.89,5.01c-.31-.77-1.19-1.13-1.96-.82-1.97,.8-3.73,1.98-5.25,3.5l-.27,.28c-.57,.6-.55,1.55,.05,2.12,.29,.28,.66,.41,1.04,.41,.4,0,.79-.16,1.09-.46l.22-.23c1.23-1.23,2.67-2.19,4.26-2.84,.77-.31,1.13-1.19,.82-1.96Zm4.11,9.99c.83,0,1.5-.67,1.5-1.5V4.5c0-.83-.67-1.5-1.5-1.5s-1.5,.67-1.5,1.5V13.5c0,.83,.67,1.5,1.5,1.5Zm-6.06-3.06l-.5,.5c-.29,.29-.44,.68-.44,1.06s.15,.77,.44,1.06,.68,.44,1.06,.44,.77-.15,1.06-.44l.5-.5c.29-.29,.44-.68,.44-1.06s-.15-.77-.44-1.06c-.59-.59-1.54-.59-2.12,0Zm12.12,0c-.59-.59-1.54-.59-2.12,0-.29,.29-.44,.68-.44,1.06s.15,.77,.44,1.06l.5,.5c.29,.29,.68,.44,1.06,.44s.77-.15,1.06-.44,.44-.68,.44-1.06-.15-.77-.44-1.06l-.5-.5Z"/></svg>
