<?xml version="1.0" encoding="UTF-8"?>
<svg xmlns="http://www.w3.org/2000/svg" id="Layer_1" data-name="Layer 1" viewBox="0 0 24 24" width="512" height="512"><path d="M18.5,21H5.5c-3.033,0-5.5-2.467-5.5-5.5v-.5c0-.829,.671-1.5,1.5-1.5,.853,0,1.521-.668,1.521-1.521,0-.843-.654-1.479-1.521-1.479-.829,0-1.5-.671-1.5-1.5v-.5C0,5.467,2.467,3,5.5,3h13c3.033,0,5.5,2.467,5.5,5.5v.5c0,.829-.671,1.5-1.5,1.5s-1.5,.673-1.5,1.5,.673,1.5,1.5,1.5,1.5,.671,1.5,1.5v.5c0,3.033-2.467,5.5-5.5,5.5ZM3.102,16.207c.306,1.035,1.265,1.793,2.398,1.793h13c1.134,0,2.093-.758,2.398-1.794-1.693-.646-2.898-2.288-2.898-4.206s1.206-3.559,2.898-4.206c-.305-1.036-1.265-1.794-2.398-1.794H5.5c-1.128,0-2.085,.751-2.395,1.78,1.72,.629,2.915,2.25,2.915,4.199,0,1.929-1.214,3.58-2.919,4.228Z"/></svg>
