<?xml version="1.0" encoding="UTF-8"?>
<svg xmlns="http://www.w3.org/2000/svg" id="Layer_1" data-name="Layer 1" viewBox="0 0 24 24">
  <path d="m17,8.5c0,1.379-1.121,2.5-2.5,2.5s-2.5-1.121-2.5-2.5,1.121-2.5,2.5-2.5,2.5,1.121,2.5,2.5Zm7-2v5c0,3.032-2.467,5.5-5.5,5.5h-8c-3.033,0-5.5-2.468-5.5-5.5v-5c0-3.032,2.467-5.5,5.5-5.5h8c3.033,0,5.5,2.468,5.5,5.5Zm-3,0c0-1.379-1.122-2.5-2.5-2.5h-8c-1.378,0-2.5,1.121-2.5,2.5v5c0,1.325,1.036,2.411,2.34,2.494.563-1.179,1.766-1.994,3.16-1.994h2c1.394,0,2.597.815,3.16,1.994,1.304-.083,2.34-1.169,2.34-2.494v-5Zm-4.5,12.5H5.5c-1.378,0-2.5-1.121-2.5-2.5v-7c0-.828-.671-1.5-1.5-1.5s-1.5.672-1.5,1.5v7c0,3.032,2.467,5.5,5.5,5.5h11c.829,0,1.5-.672,1.5-1.5s-.671-1.5-1.5-1.5Z"/>
</svg>
