<?xml version="1.0" encoding="UTF-8"?>
<svg xmlns="http://www.w3.org/2000/svg" id="Layer_1" data-name="Layer 1" viewBox="0 0 24 24" width="512" height="512"><path d="M12.5,19h-4c-.829,0-1.5-.672-1.5-1.5s.671-1.5,1.5-1.5h4c.416,0,.802-.166,1.088-.468,.286-.302,.431-.697,.409-1.114-.041-.782-.789-1.418-1.667-1.418h-3.83c-.829,0-1.5-.671-1.5-1.5V7.5c0-1.378,1.122-2.5,2.5-2.5h5c.829,0,1.5,.671,1.5,1.5s-.671,1.5-1.5,1.5h-4.5v2h2.33c2.49,0,4.539,1.872,4.664,4.261,.065,1.247-.371,2.432-1.229,3.336-.846,.892-2.036,1.403-3.265,1.403Zm11.5-.5V5.5c0-3.033-2.467-5.5-5.5-5.5H5.5C2.467,0,0,2.467,0,5.5v13c0,3.032,2.467,5.5,5.5,5.5h13c3.033,0,5.5-2.468,5.5-5.5ZM18.5,3c1.378,0,2.5,1.122,2.5,2.5v13c0,1.379-1.122,2.5-2.5,2.5H5.5c-1.378,0-2.5-1.121-2.5-2.5V5.5c0-1.378,1.122-2.5,2.5-2.5h13Z"/></svg>
