<?xml version="1.0" encoding="UTF-8"?>
<svg xmlns="http://www.w3.org/2000/svg" id="Layer_1" data-name="Layer 1" viewBox="0 0 24 24" width="512" height="512"><path d="M22,22.5c0,.83-.67,1.5-1.5,1.5H3.5c-.83,0-1.5-.67-1.5-1.5s.67-1.5,1.5-1.5c.74,0,1.5-.76,1.5-1.5v-5.5h-1.5c-.83,0-1.5-.67-1.5-1.5s.67-1.5,1.5-1.5h1.5v-3C5,3.51,8.51,0,13,0c4.25,0,7.45,3.33,7.59,3.47,.57,.6,.55,1.55-.05,2.12-.6,.57-1.55,.55-2.12-.05-.02-.02-2.47-2.53-5.41-2.53s-5,2.2-5,5v3h8.5c.83,0,1.5,.67,1.5,1.5s-.67,1.5-1.5,1.5H8v5.5c0,.52-.1,1.03-.28,1.5h12.78c.83,0,1.5,.67,1.5,1.5Z"/></svg>
