<?xml version="1.0" encoding="UTF-8"?>
<svg xmlns="http://www.w3.org/2000/svg" id="Layer_1" data-name="Layer 1" viewBox="0 0 24 24" width="512" height="512"><path d="M23.82,14.99l-1.38-4.96c-.99-3.55-4.25-6.03-7.94-6.03-3.89,0-7.2,2.65-8.02,6.37l-1.36,4.86c-.31,1.41,.03,2.87,.93,3.99,.9,1.13,2.25,1.77,3.7,1.77h1.36c.22,1.69,1.65,3,3.4,3s3.18-1.31,3.4-3h1.36c1.49,0,2.87-.68,3.78-1.87,.9-1.19,1.19-2.7,.79-4.14Zm-3.18,2.32c-.33,.44-.84,.69-1.38,.69H9.74c-.53,0-1.03-.24-1.36-.65-.33-.41-.46-.95-.36-1.39l1.36-4.86c.54-2.42,2.64-4.1,5.12-4.1,2.35,0,4.42,1.58,5.05,3.84l1.38,4.96c.15,.54,.04,1.07-.29,1.52ZM3.02,11.96c-.09,.44,.03,.97,.36,1.39,.05,.06,.1,.12,.16,.17,.6,.57,.62,1.52,.04,2.12-.29,.31-.69,.46-1.08,.46s-.75-.14-1.04-.42c-.15-.14-.29-.3-.42-.46C.14,14.1-.2,12.64,.11,11.23L1.47,6.37C2.3,2.65,5.61,0,9.5,0,9.91,0,10.32,.03,10.72,.09c.82,.12,1.38,.89,1.26,1.71-.12,.82-.88,1.38-1.71,1.26-.26-.04-.52-.06-.78-.06-2.47,0-4.58,1.69-5.12,4.1l-1.36,4.86Z"/></svg>
