<?xml version="1.0" encoding="UTF-8"?>
<svg xmlns="http://www.w3.org/2000/svg" id="Layer_1" data-name="Layer 1" viewBox="0 0 24 24">
  <path d="m10,3.329c0,.414-.128.817-.367,1.155l-.633.895v8.121c0,.829-.671,1.5-1.5,1.5s-1.5-.671-1.5-1.5v-2.364c-1.318.264-2,.872-2,1.474,0,.267.086.528.195.858.136.412.305.925.305,1.532,0,.877-.429,1.578-.808,2.196-.371.607-.692,1.13-.692,1.804,0,.817,1.424,2,4,2,.829,0,1.5.671,1.5,1.5s-.671,1.5-1.5,1.5c-3.991,0-7-2.149-7-5,0-1.519.655-2.589,1.134-3.37.145-.236.343-.56.371-.681-.004-.074-.079-.302-.159-.542-.146-.442-.346-1.049-.346-1.797,0-2.021,1.56-4.058,5-4.515v-2.695l-.627-.878c-.242-.339-.373-.746-.373-1.162v-1.359c0-1.105.895-2,2-2h1c1.105,0,2,.895,2,2v1.329Zm14,17.171c0,2.405-2.333,3.5-4.5,3.5h-5c-2.167,0-4.5-1.095-4.5-3.5,0-1.746.725-2.919,1.308-3.861.442-.716.692-1.145.692-1.639,0-.72-.176-1.427-.38-2.246-.26-1.042-.58-2.327-.61-3.999-.007-.173-.003-.291,0-.336.044-.811.719-1.451,1.539-1.418.812.022,1.459.687,1.459,1.5,0,.059,0,.116.001.173.016.252.107.97.63,1.507.225.23.513.412.861.545v-4.983c-.77-.302-1.5-1.065-1.5-1.243,0-1.233,1.238-3.088,1.678-3.709.276-.513.84-.846,1.476-.783.784.078,1.346.807,1.346,1.595v9.26c.89-.23,1.399-.749,1.516-1.551,0,0,0-.002,0-.002,0,0-.016-1.309,1.465-1.309.84,0,1.521.684,1.519,1.524v.005c0,2.006-.371,3.058-.669,3.903-.199.564-.331.937-.331,1.567,0,.494.25.923.692,1.639.583.942,1.308,2.116,1.308,3.861Zm-3,0c0-.894-.379-1.507-.859-2.284-.535-.865-1.141-1.845-1.141-3.216,0-.457.043-.852.109-1.205-.55.132-1.165.205-1.85.205-.871,0-1.661-.105-2.367-.313.066.42.109.855.109,1.313,0,1.371-.606,2.351-1.141,3.216-.48.777-.859,1.391-.859,2.284,0,.263.926.494,1.507.5h4.993c.574-.006,1.5-.237,1.5-.5Z"/>
</svg>
