<?xml version="1.0" encoding="UTF-8"?>
<svg xmlns="http://www.w3.org/2000/svg" id="Layer_1" data-name="Layer 1" viewBox="0 0 24 24">
  <path d="m22.61,9.095c-1.024-3.734-3.971-6.681-7.705-7.705-.258-.806-1.013-1.39-1.905-1.39h-2c-.892,0-1.647.584-1.905,1.39-3.734,1.024-6.681,3.971-7.705,7.705-.806.258-1.39,1.013-1.39,1.905v2c0,.892.584,1.647,1.39,1.905,1.024,3.734,3.971,6.681,7.705,7.705.258.806,1.013,1.39,1.905,1.39h2c.892,0,1.647-.584,1.905-1.39,3.734-1.024,6.681-3.971,7.705-7.705.806-.258,1.39-1.013,1.39-1.905v-2c0-.892-.584-1.647-1.39-1.905Zm-7.688,10.352c-.24-.836-1.009-1.447-1.922-1.447h-2c-.913,0-1.682.612-1.922,1.447-2.065-.813-3.712-2.461-4.525-4.525.836-.24,1.447-1.009,1.447-1.922v-2c0-.913-.612-1.682-1.447-1.922.813-2.065,2.461-3.712,4.525-4.525.24.836,1.009,1.447,1.922,1.447h2c.913,0,1.682-.612,1.922-1.447,2.065.813,3.712,2.461,4.525,4.525-.836.24-1.447,1.009-1.447,1.922v2c0,.913.612,1.682,1.447,1.922-.813,2.065-2.461,3.712-4.525,4.525Z"/>
</svg>
