<?xml version="1.0" encoding="UTF-8"?>
<svg xmlns="http://www.w3.org/2000/svg" id="Layer_1" data-name="Layer 1" viewBox="0 0 24 24" width="512" height="512"><path d="m18.5,6H5.5c-3.032,0-5.5,2.467-5.5,5.5v7c0,3.033,2.468,5.5,5.5,5.5h13c3.032,0,5.5-2.467,5.5-5.5v-7c0-3.033-2.468-5.5-5.5-5.5Zm2.5,12.5c0,.816-.393,1.542-1,1.999,0-1.932-1.567-3.499-3.5-3.499s-3.5,1.567-3.5,3.5v.5h-2v-.5c0-1.933-1.567-3.5-3.5-3.5s-3.499,1.566-3.5,3.499c-.607-.457-1-1.183-1-1.999v-7c0-1.378,1.121-2.5,2.5-2.5h13c1.379,0,2.5,1.122,2.5,2.5v7Zm-11-5c0,1.381-1.119,2.5-2.5,2.5s-2.5-1.119-2.5-2.5,1.119-2.5,2.5-2.5,2.5,1.119,2.5,2.5Zm9,0c0,1.381-1.119,2.5-2.5,2.5s-2.5-1.119-2.5-2.5,1.119-2.5,2.5-2.5,2.5,1.119,2.5,2.5ZM4.502,2.677L6.952.227c.303-.302.793-.302,1.096,0l2.451,2.451c.488.488.142,1.323-.548,1.323h-4.901c-.69,0-1.036-.834-.548-1.323Zm9-1.355c-.488-.488-.142-1.322.548-1.322h4.901c.69,0,1.036.834.548,1.322l-2.451,2.451c-.303.303-.793.303-1.096,0l-2.451-2.451Z"/></svg>
