<?xml version="1.0" encoding="UTF-8"?>
<svg xmlns="http://www.w3.org/2000/svg" id="Layer_1" data-name="Layer 1" viewBox="0 0 24 24" width="512" height="512"><path d="m21.153,1.403c-1.615-.567-3.217-.964-4.761-1.181C14.853.007,13.201-.052,11.486.046c-1.997.116-3.653,1.619-3.937,3.573l-.213,1.465c-1.478.222-3.008.608-4.552,1.149C.893,6.897-.273,8.803.012,10.764l.954,6.557c.473,3.249,4.306,5.295,7.438,6.44.44.161.897.24,1.349.24.801,0,1.59-.249,2.25-.73,1.482-1.082,3.475-2.782,4.568-4.745,2.886-1.198,5.979-3.14,6.401-6.037l.954-6.556c.285-1.962-.881-3.867-2.772-4.53Zm-10.918,19.443c-.223.163-.522.198-.801.097-3.198-1.169-5.305-2.723-5.499-4.055l-.954-6.556c-.081-.554.247-1.075.796-1.268,1.035-.363,2.091-.653,3.105-.856l-.286,1.965c-.022.15-.036.299-.043.448-.144-.031-.292-.038-.441-.016-.689.1-1.187.765-1.373,1.638-.062.29.185.553.478.511l1.619-.231c.243.72.627,1.417,1.101,2.08-1.025.528-1.757,1.514-2.086,2.678-.124.44.376.791.756.537,1.035-.692,1.997-1.111,3.026-1.287.731.701,1.519,1.337,2.273,1.889.218.159.448.293.688.402-.822.851-1.743,1.574-2.361,2.026Zm10.722-15.345l-.954,6.556c-.194,1.332-2.301,2.886-5.499,4.055-.279.103-.587.06-.826-.114-2.73-1.999-4.307-4.064-4.114-5.391l.954-6.556c.08-.551.561-.976,1.142-1.01.479-.028.953-.042,1.417-.042,1.007,0,1.978.065,2.898.194,1.329.187,2.776.546,4.185,1.041.549.192.877.713.796,1.267Zm-2.751,5.85c-.909,1.22-2.317,1.949-3.818,1.736-1.501-.212-2.645-1.306-3.177-2.729-.165-.442.325-.842.736-.611,1.931,1.084,3.568,1.317,5.726.816.457-.106.813.412.532.788Zm.836-3.828c.062.29-.185.553-.478.511l-2.356-.337c-.293-.042-.457-.363-.316-.624.423-.786,1.088-1.287,1.777-1.188.689.1,1.187.765,1.373,1.638Zm-7.606-1.087c.423-.786,1.088-1.287,1.777-1.188.689.1,1.187.765,1.373,1.638.062.29-.185.553-.478.511l-2.356-.337c-.293-.042-.457-.363-.316-.624Z"/></svg>
