<?xml version="1.0" encoding="UTF-8"?>
<svg xmlns="http://www.w3.org/2000/svg" id="Layer_1" data-name="Layer 1" viewBox="0 0 24 24" width="512" height="512"><path d="M10,20.5c0,.83-.67,1.5-1.5,1.5h-3c-3.03,0-5.5-2.47-5.5-5.5V5.5C0,2.47,2.47,0,5.5,0h11c3.03,0,5.5,2.47,5.5,5.5v3c0,.83-.67,1.5-1.5,1.5s-1.5-.67-1.5-1.5v-3c0-1.38-1.12-2.5-2.5-2.5H5.5c-1.38,0-2.5,1.12-2.5,2.5v11c0,1.38,1.12,2.5,2.5,2.5h3c.83,0,1.5,.67,1.5,1.5Zm.06-12.94c.43-.43,.56-1.07,.33-1.63s-.78-.93-1.39-.93h-2.5c-.83,0-1.5,.67-1.5,1.5V14.5c0,1.38,1.12,2.5,2.5,2.5h5c.83,0,1.5-.67,1.5-1.5s-.67-1.5-1.5-1.5h-4.5v-4.38l2.06-2.06Zm5.44,5.44c.83,0,1.5-.67,1.5-1.5v-3.5c0-1.65-1.35-3-3-3h-.5c-.83,0-1.5,.67-1.5,1.5s.67,1.5,1.5,1.5h.5v3.5c0,.83,.67,1.5,1.5,1.5Zm8.01-.15c-.88-1.07-2.46-1.13-3.41-.18l-6.81,6.81c-.81,.81-1.27,1.92-1.27,3.06v.95c0,.28,.22,.5,.5,.5h.95c1.15,0,2.25-.46,3.06-1.27l6.71-6.71c.85-.85,1.01-2.24,.25-3.17Z"/></svg>
