<?xml version="1.0" encoding="UTF-8"?>
<svg xmlns="http://www.w3.org/2000/svg" id="Layer_1" data-name="Layer 1" viewBox="0 0 24 24" width="512" height="512"><path d="m22.5,8h-5.966c.299-.668.466-1.414.466-2.198v-.802h.5c.828,0,1.5-.672,1.5-1.5s-.672-1.5-1.5-1.5h-1.26c-.808-1.205-2.183-2-3.74-2h-1c-1.557,0-2.932.795-3.74,2h-1.26c-.828,0-1.5.672-1.5,1.5s.672,1.5,1.5,1.5h.5v1c0,.693.147,1.374.42,2H1.5c-.828,0-1.5.672-1.5,1.5s.672,1.5,1.5,1.5h.5v1.5c0,1.76,1.306,3.221,3,3.465v2.535c0,1.93,1.57,3.5,3.5,3.5h2v.5c0,.828.672,1.5,1.5,1.5s1.5-.672,1.5-1.5v-.5h2c1.93,0,3.5-1.57,3.5-3.5v-2.535c1.694-.244,3-1.705,3-3.465v-1.5h.5c.828,0,1.5-.672,1.5-1.5s-.672-1.5-1.5-1.5Zm-12.5-3h4v1c0,1.105-.895,2-2,2s-2-.895-2-2v-1Zm9,7.5c0,.275-.225.5-.5.5h-1c-.828,0-1.5.672-1.5,1.5v4c0,.275-.225.5-.5.5h-7c-.275,0-.5-.225-.5-.5v-4c0-.828-.672-1.5-1.5-1.5h-1c-.275,0-.5-.225-.5-.5v-1.5h14v1.5Z"/></svg>
