<?xml version="1.0" encoding="UTF-8"?>
<svg xmlns="http://www.w3.org/2000/svg" id="Layer_1" data-name="Layer 1" viewBox="0 0 24 24" width="512" height="512"><path d="m20,22.5c0,.828-.671,1.5-1.5,1.5H5.5c-.829,0-1.5-.672-1.5-1.5s.671-1.5,1.5-1.5h13c.829,0,1.5.672,1.5,1.5Zm-11.5-11.5c-.829,0-1.5.672-1.5,1.5s.671,1.5,1.5,1.5h7c.829,0,1.5-.672,1.5-1.5s-.671-1.5-1.5-1.5h-7Zm-1-2h9c.829,0,1.5-.672,1.5-1.5s-.671-1.5-1.5-1.5H7.5c-.829,0-1.5.672-1.5,1.5s.671,1.5,1.5,1.5Zm3-5h3c.829,0,1.5-.672,1.5-1.5s-.671-1.5-1.5-1.5h-3c-.829,0-1.5.672-1.5,1.5s.671,1.5,1.5,1.5Zm12.743,10.53l-1.418-.354-.354-1.418c-.111-.445-.511-.757-.97-.757s-.859.312-.97.757l-.351,1.406-1.404.325c-.447.103-.767.498-.775.956-.008.459.297.865.74.984l1.432.385.357,1.43c.111.445.511.757.97.757s.859-.312.97-.757l.354-1.418,1.418-.354c.445-.111.757-.511.757-.97s-.313-.859-.757-.97ZM5.528,3.697c.285-.114.472-.39.472-.697s-.187-.583-.472-.697l-1.308-.523-.523-1.308c-.114-.285-.39-.472-.697-.472s-.583.187-.697.472l-.52,1.301-1.299.492C.198,2.373.006,2.645,0,2.952c-.005.307.176.586.459.705l1.318.556.526,1.316c.114.285.39.472.697.472s.583-.187.697-.472l.523-1.308,1.308-.523Z"/></svg>
