<?xml version="1.0" encoding="UTF-8"?>
<svg xmlns="http://www.w3.org/2000/svg" id="Layer_1" data-name="Layer 1" viewBox="0 0 24 24">
  <path d="m24,9.5c0,.828-.671,1.5-1.5,1.5h-6c-.829,0-1.5-.672-1.5-1.5s.671-1.5,1.5-1.5h6c.829,0,1.5.672,1.5,1.5Zm-3.5,3.5h-4c-.829,0-1.5.672-1.5,1.5s.671,1.5,1.5,1.5h4c.829,0,1.5-.672,1.5-1.5s-.671-1.5-1.5-1.5Zm-2,5h-2c-.829,0-1.5.672-1.5,1.5s.671,1.5,1.5,1.5h2c.829,0,1.5-.672,1.5-1.5s-.671-1.5-1.5-1.5Zm-6,3h-5c-1.378,0-2.5-1.121-2.5-2.5V6h15.5c.829,0,1.5-.672,1.5-1.5s-.671-1.5-1.5-1.5h-3.757c-.619-1.746-2.287-3-4.243-3h-3c-1.956,0-3.624,1.254-4.243,3H1.5c-.829,0-1.5.672-1.5,1.5s.671,1.5,1.5,1.5h.5v12.5c0,3.032,2.467,5.5,5.5,5.5h5c.829,0,1.5-.672,1.5-1.5s-.671-1.5-1.5-1.5Z"/>
</svg>
