<?xml version="1.0" encoding="UTF-8"?>
<svg xmlns="http://www.w3.org/2000/svg" id="Layer_1" data-name="Layer 1" viewBox="0 0 24 24" width="512" height="512"><path d="M18.5,24H5.5c-3.033,0-5.5-2.467-5.5-5.5V5.5C0,2.467,2.467,0,5.5,0h13c3.032,0,5.5,2.467,5.5,5.5v13c0,3.033-2.468,5.5-5.5,5.5ZM5.5,3c-1.378,0-2.5,1.122-2.5,2.5v13c0,1.378,1.122,2.5,2.5,2.5h13c1.379,0,2.5-1.122,2.5-2.5V5.5c0-1.378-1.121-2.5-2.5-2.5H5.5Zm11.5,14.5c0-.829-.672-1.5-1.5-1.5h-4.55c.423-.263,.904-.522,1.378-.778,2.08-1.122,4.668-2.517,4.668-5.426,0-2.645-2.241-4.796-4.996-4.796s-5,2.243-5,5c0,.829,.671,1.5,1.5,1.5s1.5-.671,1.5-1.5c0-1.103,.897-2,2-2,1.082,0,1.996,.823,1.996,1.796,0,1.04-1.224,1.778-3.092,2.785-1.216,.656-2.474,1.334-3.307,2.317-.639,.753-.779,1.776-.365,2.669,.409,.884,1.27,1.433,2.246,1.433h6.022c.828,0,1.5-.671,1.5-1.5Z"/></svg>
