<?xml version="1.0" encoding="UTF-8"?>
<svg xmlns="http://www.w3.org/2000/svg" id="Layer_1" data-name="Layer 1" viewBox="0 0 24 24" width="512" height="512"><path d="M0,11.5C0,6.813,3.813,3,8.5,3h10.5V1.337C19,.446,20.077,0,20.707,.63l3,3.163c.391,.391,.39,1.024,0,1.414l-3,3.163c-.63,.63-1.707,.184-1.707-.707v-1.663H8.5c-3.033,0-5.5,2.468-5.5,5.5,0,.828-.671,1.5-1.5,1.5s-1.5-.672-1.5-1.5Zm22.5-.5c-.829,0-1.5,.672-1.5,1.5,0,3.032-2.467,5.5-5.5,5.5H5v-1.663c0-.891-1.077-1.337-1.707-.707L.293,18.793c-.391,.391-.391,1.024,0,1.414l3,3.163c.63,.63,1.707,.184,1.707-.707v-1.663H15.5c4.687,0,8.5-3.813,8.5-8.5,0-.828-.671-1.5-1.5-1.5Z"/></svg>
