<?xml version="1.0" encoding="UTF-8"?>
<svg xmlns="http://www.w3.org/2000/svg" id="Layer_1" data-name="Layer 1" viewBox="0 0 24 24" width="512" height="512"><path d="m23.674,7.674c-.453-.735-1.271-1.124-2.128-1.021-1.292.158-3.48.515-5.568,1.274-.562-2.491-1.432-5.192-1.991-6.621-.323-.821-1.102-1.352-1.984-1.352s-1.665.532-1.989,1.357c-.549,1.4-1.418,4.159-1.984,6.631-2.006-.729-4.161-1.148-5.628-1.295-.843-.086-1.641.311-2.082,1.036-.44.726-.425,1.617.04,2.327.617.942,1.738,2.246,2.986,3.505-.211.075-.979.353-.979.353-.816.292-1.353,1.041-1.365,1.908-.013.865.5,1.627,1.305,1.942.877.343,2.275.72,4.005.975-.096.245-.178.479-.234.681-.203.737.014,1.523.564,2.051.39.373.901.572,1.424.572.211,0,.425-.033.633-.1.514-.166,1.143-.451,1.804-.856v1.456c0,.829.672,1.5,1.5,1.5s1.5-.671,1.5-1.5v-1.432c.649.397,1.263.674,1.764.834.721.229,1.509.047,2.055-.479.549-.527.763-1.311.561-2.045-.051-.185-.128-.412-.219-.659,1.76-.242,3.196-.609,4.076-.974.803-.334,1.298-1.111,1.263-1.98-.035-.87-.593-1.605-1.421-1.873,0,0-.824-.275-.923-.308,1.291-1.333,2.388-2.67,2.98-3.564.476-.716.49-1.616.039-2.347Zm-6.932,5.499c-.428.373-.608.953-.468,1.502.131.513.521.916,1.022,1.066-1.099.153-2.389.259-3.797.259v-1.5c0-.829-.672-1.5-1.5-1.5s-1.5.671-1.5,1.5v1.5c-1.492,0-2.846-.132-3.978-.312.552-.124,1.066-.567,1.205-1.116.138-.549-.045-1.129-.474-1.5-1.182-1.023-2.293-2.156-3.135-3.117,1.354.282,2.98.743,4.343,1.429.426.215.929.215,1.354-.002.426-.216.723-.622.801-1.093.271-1.652.846-3.798,1.388-5.54.541,1.723,1.109,3.836,1.377,5.529.075.478.376.89.808,1.107.432.216.942.213,1.37-.012,1.342-.704,2.996-1.148,4.345-1.419-.87,1.022-2.004,2.208-3.162,3.218Z"/></svg>
