<?xml version="1.0" encoding="UTF-8"?>
<svg xmlns="http://www.w3.org/2000/svg" id="Layer_1" data-name="Layer 1" viewBox="0 0 24 24" width="512" height="512"><path d="M24,22.5c0,.829-.672,1.5-1.5,1.5H1.5c-.828,0-1.5-.671-1.5-1.5s.672-1.5,1.5-1.5H22.5c.828,0,1.5,.671,1.5,1.5ZM3,16v-5h-.5c-.828,0-1.5-.671-1.5-1.5s.672-1.5,1.5-1.5h.854c.95-3.282,3.723-5.798,7.146-6.374v-.126c0-.829,.672-1.5,1.5-1.5s1.5,.671,1.5,1.5v.126c3.423,.577,6.196,3.092,7.146,6.374h.854c.828,0,1.5,.671,1.5,1.5s-.672,1.5-1.5,1.5h-.5v5h.5c.828,0,1.5,.671,1.5,1.5s-.672,1.5-1.5,1.5H2.5c-.828,0-1.5-.671-1.5-1.5s.672-1.5,1.5-1.5h.5Zm8-5v5h2v-5h-2Zm7,0h-2v5h2v-5Zm-11.454-3h10.907c-.95-2.064-3.037-3.5-5.454-3.5s-4.504,1.436-5.454,3.5Zm-.546,8h2v-5h-2v5Z"/></svg>
