<?xml version="1.0" encoding="UTF-8"?>
<svg xmlns="http://www.w3.org/2000/svg" id="Layer_1" data-name="Layer 1" viewBox="0 0 24 24" width="512" height="512"><path d="m6,2.5c0-1.381,1.119-2.5,2.5-2.5s2.5,1.119,2.5,2.5-1.119,2.5-2.5,2.5-2.5-1.119-2.5-2.5Zm18,7c0,2.32-1.715,4.205-3.919,4.468l-10.23,8.525c-1.166.971-2.644,1.506-4.161,1.506h-1.189c-2.481,0-4.5-2.019-4.5-4.5,0-2.32,1.715-4.205,3.919-4.468l1.081-.901v-4.631c0-1.933,1.567-3.5,3.5-3.5h0c1.562,0,2.884,1.023,3.335,2.435l2.315-1.929c1.165-.972,2.644-1.507,4.161-1.507h1.189c2.481,0,4.5,2.019,4.5,4.5Zm-3,.048c0-.875-.673-1.548-1.5-1.548h-1.189c-.817,0-1.613.288-2.24.812l-10.61,8.841c-.27.225-.609.348-.96.348-.85,0-1.5.651-1.5,1.452,0,.875.673,1.548,1.5,1.548h1.189c.817,0,1.613-.288,2.241-.811l10.609-8.841c.27-.225.609-.348.96-.348.85,0,1.5-.651,1.5-1.452Z"/></svg>
