<?xml version="1.0" encoding="UTF-8"?>
<svg xmlns="http://www.w3.org/2000/svg" id="Layer_1" data-name="Layer 1" viewBox="0 0 24 24">
  <path d="m23.919,22.018l-2.431-7.172c-.385-1.122-1.363-1.847-2.489-1.847s-2.104.725-2.492,1.853l-2.429,7.166c-.266.784.154,1.636.939,1.902.785.266,1.637-.154,1.902-.939l.013-.039h4.133l.013.039c.212.625.795,1.019,1.42,1.019.16,0,.322-.025.481-.079.785-.267,1.205-1.118.939-1.902Zm-6.615-1.518l1.695-5,1.695,5h-3.39Zm-1.705-10.746c-.592-1.117-1.746-1.812-3.011-1.812l-2.704-.002,1.058-4.59c.376-1.318-.186-2.66-1.336-3.191-1.094-.505-2.36-.105-3.102,1.008L.589,10.62c-.71,1.047-.784,2.392-.191,3.51.592,1.118,1.747,1.812,3.012,1.812h2.702l-1.057,4.588c-.376,1.317.185,2.659,1.335,3.191.315.146.645.216.972.216.808,0,1.602-.431,2.129-1.224l5.914-9.449c.71-1.047.784-2.392.191-3.51Zm-2.704,1.872l-4.288,6.85.853-3.697c.103-.445-.003-.913-.288-1.271-.285-.358-.717-.566-1.174-.566H3.41c-.204,0-.309-.118-.362-.218-.052-.099-.091-.252.053-.467l4.288-6.853-.853,3.696c-.103.445.003.913.287,1.271s.716.566,1.173.566l4.587.004h.001c.204,0,.309.118.362.218.052.099.091.252-.053.467Z"/>
</svg>
