<?xml version="1.0" encoding="UTF-8"?>
<svg xmlns="http://www.w3.org/2000/svg" id="Layer_1" data-name="Layer 1" viewBox="0 0 24 24">
  <path d="m22.625,9.862c.887,1.005,1.375,2.297,1.375,3.638v4c0,3.033-2.468,5.5-5.5,5.5H5.5c-3.032,0-5.5-2.467-5.5-5.5v-4c0-3.033,2.468-5.5,5.5-5.5h4c.828,0,1.5.671,1.5,1.5s-.672,1.5-1.5,1.5h-4c-1.379,0-2.5,1.122-2.5,2.5v4c0,1.378,1.121,2.5,2.5,2.5h13c1.379,0,2.5-1.122,2.5-2.5v-4c0-.609-.222-1.196-.625-1.653-.548-.621-.488-1.569.133-2.117.621-.549,1.569-.489,2.117.133ZM5,15.5c0,.828.672,1.5,1.5,1.5s1.5-.672,1.5-1.5-.672-1.5-1.5-1.5-1.5.672-1.5,1.5Zm5,0c0,.828.672,1.5,1.5,1.5s1.5-.672,1.5-1.5-.672-1.5-1.5-1.5-1.5.672-1.5,1.5Zm3.526-4.5h.955c1.149,0,2.252-.457,3.064-1.269l5.715-5.715c.85-.85,1.013-2.236.252-3.167-.875-1.07-2.456-1.129-3.409-.176l-5.808,5.808c-.813.813-1.269,1.915-1.269,3.064v.955c0,.276.224.5.5.5Z"/>
</svg>
