<?xml version="1.0" encoding="UTF-8"?>
<svg xmlns="http://www.w3.org/2000/svg" id="Layer_1" data-name="Layer 1" viewBox="0 0 24 24" width="512" height="512"><path d="M20,10c0-.441,.465-1.032,.875-1.553,.137-.173,.269-.342,.389-.506,.691-.944,.91-2.146,.599-3.298-.265-.979-1.131-2.621-3.951-2.621-.539,0-1.667-.045-1.884-.022-.411-.008-.943-.453-1.413-.846-.249-.208-.483-.401-.705-.555-1.161-.805-2.659-.804-3.82,.003-.22,.152-.453,.344-.699,.55-.471,.394-1.004,.839-1.416,.847,0,0-1.489,.029-1.896,.029-1.962,0-3.506,1.022-3.941,2.627-.31,1.147-.092,2.342,.597,3.277,.119,.162,.25,.328,.384,.498,.414,.525,.884,1.121,.884,1.569,0,.593-.425,1.423-.835,2.226-.546,1.067-1.165,2.276-1.165,3.592,0,5.007,5.071,6.773,7.796,7.723,.268,.093,.516,.179,.739,.262,.465,.172,1.117,.197,1.465,.197,.28,0,.983-.02,1.476-.202,.218-.08,.46-.164,.722-.255,2.727-.949,7.803-2.714,7.803-7.725,0-1.316-.619-2.525-1.165-3.592-.41-.803-.835-1.633-.835-2.226ZM5.039,5.418c.064-.24,.589-.389,1.038-.389,.423,0,1.95-.029,1.95-.029,1.471-.027,2.563-.94,3.286-1.545,.173-.145,.334-.282,.488-.389,.127-.088,.271-.088,.398,0,.154,.107,.315,.245,.489,.39,.723,.604,1.814,1.517,3.311,1.544,.223,0,1.345,.022,1.911,.022,.946,0,1.018,.264,1.056,.404,.071,.262,.025,.54-.123,.742-.101,.137-.212,.278-.325,.422-.312,.396-.68,.863-.975,1.409H6.459c-.298-.553-.671-1.026-.986-1.426-.113-.143-.223-.282-.323-.418-.143-.193-.187-.461-.11-.737Zm8.172,15.292c-.279,.097-.54,.188-.702,.251-.144,.032-.785,.026-.915,.025-.013,0-.02,0-.02,.002-.237-.088-.504-.181-.791-.281-2.927-1.019-5.783-2.236-5.783-4.889,0-.593,.425-1.423,.835-2.226,.405-.791,.849-1.66,1.052-2.592h10.226c.203,.933,.648,1.802,1.052,2.592,.41,.803,.835,1.633,.835,2.226,0,2.656-2.859,3.873-5.789,4.892Z"/></svg>
