<?xml version="1.0" encoding="UTF-8"?>
<svg xmlns="http://www.w3.org/2000/svg" id="Layer_1" data-name="Layer 1" viewBox="0 0 24 24" width="512" height="512"><path d="M10.005,24c-.948,0-1.868-.332-2.596-.952-.896-.762-1.41-1.873-1.41-3.048v-5.397l-3.804-3.968c-.76-.755-1.194-1.795-1.196-2.904s.429-2.15,1.212-2.934l2.308-2.308C6.125,.884,8.26,0,10.531,0h5.969c3.033,0,5.5,2.467,5.5,5.5v4.721c0,2.613-1.859,4.881-4.421,5.393l-3.579,.716v3.537c0,2.016-1.436,3.77-3.339,4.08-.219,.036-.438,.053-.656,.053Zm-1.005-4c0,.294,.129,.572,.353,.763,.132,.112,.417,.29,.826,.223,.46-.075,.821-.566,.821-1.119v-4.766c0-.715,.505-1.331,1.206-1.471l4.785-.957c1.165-.233,2.01-1.264,2.01-2.452V5.5c0-1.378-1.122-2.5-2.5-2.5h-5.969c-1.469,0-2.851,.572-3.889,1.611l-2.309,2.308c-.215,.216-.334,.502-.333,.808,0,.305,.12,.591,.336,.807l1.664,1.735v-1.268c0-.829,.671-1.5,1.5-1.5s1.5,.671,1.5,1.5v11Z"/></svg>
