<?xml version="1.0" encoding="UTF-8"?>
<svg xmlns="http://www.w3.org/2000/svg" id="Layer_1" data-name="Layer 1" viewBox="0 0 24 24" width="512" height="512"><path d="m18.5,0H5.5C2.467,0,0,2.468,0,5.5v13c0,3.032,2.467,5.5,5.5,5.5h13c3.033,0,5.5-2.468,5.5-5.5V5.5c0-3.032-2.467-5.5-5.5-5.5Zm2.5,18.5c0,1.379-1.122,2.5-2.5,2.5H5.5c-1.378,0-2.5-1.121-2.5-2.5V5.5c0-1.379,1.122-2.5,2.5-2.5h13c1.378,0,2.5,1.121,2.5,2.5v13Zm-3-1c0,.828-.671,1.5-1.5,1.5h-8c-1.022,0-1.935-.61-2.327-1.554-.392-.944-.178-2.021.544-2.744l7.499-6.702h-6.716c-.829,0-1.5-.672-1.5-1.5s.671-1.5,1.5-1.5h7.979c1.022,0,1.935.61,2.327,1.554.392.944.178,2.021-.544,2.744l-7.499,6.702h6.737c.829,0,1.5.672,1.5,1.5Z"/></svg>
