<?xml version="1.0" encoding="UTF-8"?>
<svg xmlns="http://www.w3.org/2000/svg" id="Layer_1" data-name="Layer 1" viewBox="0 0 24 24" width="512" height="512"><path d="M13,5h-1.5c-2.481,0-4.5,2.019-4.5,4.5v8c0,.829,.672,1.5,1.5,1.5s1.5-.671,1.5-1.5v-2.5h3c2.757,0,5-2.243,5-5s-2.243-5-5-5Zm0,7h-3v-2.5c0-.827,.673-1.5,1.5-1.5h1.5c1.103,0,2,.897,2,2s-.897,2-2,2ZM18.5,0H5.5C2.468,0,0,2.467,0,5.5v13c0,3.033,2.468,5.5,5.5,5.5h13c3.032,0,5.5-2.467,5.5-5.5V5.5c0-3.033-2.468-5.5-5.5-5.5Zm2.5,18.5c0,1.378-1.121,2.5-2.5,2.5H5.5c-1.379,0-2.5-1.122-2.5-2.5V5.5c0-1.378,1.121-2.5,2.5-2.5h13c1.379,0,2.5,1.122,2.5,2.5v13Z"/></svg>
