<?xml version="1.0" encoding="UTF-8"?>
<svg xmlns="http://www.w3.org/2000/svg" id="Layer_1" data-name="Layer 1" viewBox="0 0 24 24" width="512" height="512"><path d="M24,22.5c0,.829-.671,1.5-1.5,1.5H1.5c-.829,0-1.5-.671-1.5-1.5s.671-1.5,1.5-1.5H22.5c.829,0,1.5,.671,1.5,1.5ZM2,17.5c0-.829,.671-1.5,1.5-1.5h1.405l1.198-10.184c.117-1,.575-1.944,1.287-2.656l2.135-2.135c1.321-1.322,3.627-1.322,4.95,0l2.135,2.135c.712,.712,1.17,1.656,1.287,2.657l1.198,10.183h1.405c.829,0,1.5,.671,1.5,1.5s-.671,1.5-1.5,1.5H3.5c-.829,0-1.5-.671-1.5-1.5Zm14.074-1.5l-1.157-9.833c-.007-.056-.017-.112-.03-.167h-1.388v10h2.574Zm-8.149,0h2.574V6h-1.388c-.013,.055-.023,.11-.03,.167l-1.157,9.833Z"/></svg>
