<?xml version="1.0" encoding="UTF-8"?>
<svg xmlns="http://www.w3.org/2000/svg" id="Layer_1" data-name="Layer 1" viewBox="0 0 24 24" width="512" height="512"><path d="M17,12.5v5c0,.83-.67,1.5-1.5,1.5h-7c-.83,0-1.5-.67-1.5-1.5v-5c0-.83,.67-1.5,1.5-1.5h7c.83,0,1.5,.67,1.5,1.5Zm-8.5-3.5h1c.83,0,1.5-.67,1.5-1.5s-.67-1.5-1.5-1.5h-1c-.83,0-1.5,.67-1.5,1.5s.67,1.5,1.5,1.5Zm13.5-.84v10.34c0,3.03-2.47,5.5-5.5,5.5H7.5c-3.03,0-5.5-2.47-5.5-5.5V5.5C2,2.47,4.47,0,7.5,0h6.34c1.47,0,2.85,.57,3.89,1.61l2.66,2.66c1.04,1.04,1.61,2.42,1.61,3.89Zm-3,10.34V9h-4c-1.1,0-2-.9-2-2V3H7.5c-1.38,0-2.5,1.12-2.5,2.5v13c0,1.38,1.12,2.5,2.5,2.5h9c1.38,0,2.5-1.12,2.5-2.5Z"/></svg>
