<?xml version="1.0" encoding="UTF-8"?>
<svg xmlns="http://www.w3.org/2000/svg" id="Layer_1" data-name="Layer 1" viewBox="0 0 24 24" width="512" height="512"><path d="M14.74,24h-5.38c-1.47,0-2.85-.57-3.89-1.61l-3.81-3.81C.62,17.54,.05,16.16,.05,14.69v-5.38C.05,7.84,.62,6.46,1.66,5.42L5.47,1.61c1.04-1.04,2.42-1.61,3.89-1.61h5.38c1.47,0,2.85,.57,3.89,1.61l3.81,3.81c1.04,1.04,1.61,2.42,1.61,3.89v5.38c0,1.47-.57,2.85-1.61,3.89l-3.81,3.81c-1.04,1.04-2.42,1.61-3.89,1.61ZM9.36,3c-.67,0-1.3,.26-1.77,.73l-3.81,3.81c-.47,.47-.73,1.1-.73,1.77v5.38c0,.67,.26,1.3,.73,1.77l3.81,3.81c.47,.47,1.1,.73,1.77,.73h5.38c.67,0,1.3-.26,1.77-.73l3.81-3.81c.47-.47,.73-1.1,.73-1.77v-5.38c0-.67-.26-1.3-.73-1.77l-3.81-3.81c-.47-.47-1.1-.73-1.77-.73h-5.38Z"/></svg>
