<?xml version="1.0" encoding="UTF-8"?>
<svg xmlns="http://www.w3.org/2000/svg" id="Layer_1" data-name="Layer 1" viewBox="0 0 24 24" width="512" height="512"><path d="M12,0C5.383,0,0,5.383,0,12s5.383,12,12,12,12-5.383,12-12S18.617,0,12,0Zm0,21c-4.963,0-9-4.037-9-9S7.037,3,12,3s9,4.037,9,9-4.037,9-9,9Zm6-11.5c0,1.381-1.119,2.5-2.5,2.5s-2.5-1.119-2.5-2.5,1.119-2.5,2.5-2.5,2.5,1.119,2.5,2.5Zm-11.5,1.5c-.828,0-1.5-.672-1.5-1.5s.672-1.5,1.5-1.5h3c.828,0,1.5,.672,1.5,1.5s-.672,1.5-1.5,1.5h-3Zm11.5,3.5c0,.828-.672,1.5-1.5,1.5h-1.549c-.232,1.579-1.352,3-2.951,3s-2.719-1.421-2.951-3h-1.549c-.828,0-1.5-.672-1.5-1.5s.672-1.5,1.5-1.5h9c.828,0,1.5,.672,1.5,1.5Z"/></svg>
