<?xml version="1.0" encoding="UTF-8"?>
<svg xmlns="http://www.w3.org/2000/svg" id="Layer_1" data-name="Layer 1" viewBox="0 0 24 24" width="512" height="512"><path d="M23.23,9.22l-3.22-5.5c-.98-1.68-2.8-2.72-4.75-2.72h-6.55c-1.94,0-3.76,1.04-4.75,2.72L.74,9.22c-1.01,1.72-1.01,3.85,0,5.56l3.22,5.5c.98,1.68,2.8,2.72,4.75,2.72h6.55c1.94,0,3.76-1.04,4.75-2.72l3.22-5.5c1.01-1.72,1.01-3.85,0-5.56Zm-2.59,4.04l-3.22,5.5c-.45,.76-1.27,1.24-2.16,1.24h-6.55c-.88,0-1.71-.47-2.16-1.24l-3.22-5.5c-.46-.78-.46-1.75,0-2.53l3.22-5.5c.45-.76,1.27-1.24,2.16-1.24h6.55c.88,0,1.71,.47,2.16,1.24l3.22,5.5c.46,.78,.46,1.75,0,2.53Zm-3.99-.65l-2.69-4.71c.03-.13,.04-.27,.04-.4,0-1.1-.9-2-2-2s-2,.9-2,2c0,.14,.01,.27,.04,.4l-2.69,4.71c-.78,.27-1.35,1.01-1.35,1.88,0,1.1,.9,2,2,2,.5,0,.96-.19,1.31-.5h5.38c.35,.31,.81,.5,1.31,.5,1.1,0,2-.9,2-2,0-.88-.57-1.61-1.35-1.88Zm-3.24,.38h-2.83l1.42-2.48,1.42,2.48Z"/></svg>
