<?xml version="1.0" encoding="UTF-8"?>
<svg xmlns="http://www.w3.org/2000/svg" id="Layer_1" data-name="Layer 1" viewBox="0 0 24 24" width="512" height="512"><path d="M19.87,4.42C17.38,1.11,13.29-.52,9.18,.15,4.95,.85,1.5,3.97,.39,8.1c-.9,3.33-.17,6.85,2,9.64,.28,.36,.61,.93,.61,1.64v1.12c0,1.93,1.57,3.5,3.5,3.5h7c1.78,0,3.26-1.34,3.47-3.07,2.38-.38,4.28-2.29,4.59-4.74l.15-1.19c1.48-.09,2.28-1.3,2.28-2.45,0-1.65-3.1-6.83-4.13-8.13Zm.53,7.58c-.76,0-1.39,.56-1.49,1.31l-.32,2.5c-.16,1.25-1.22,2.19-2.48,2.19h-.61c-.83,0-1.5,.67-1.5,1.5v1c0,.28-.22,.5-.5,.5H6.5c-.28,0-.5-.22-.5-.5v-1.12c0-1.23-.43-2.43-1.24-3.48-.93-1.2-2.37-3.71-1.47-7.02,.79-2.95,3.36-5.27,6.38-5.76,.45-.07,.9-.11,1.34-.11,2.53,0,4.93,1.17,6.47,3.23,.01,.01,.02,.03,.03,.04,.96,1.19,2.65,4.25,3.27,5.72h-.39Zm-5.39-1.84c0,1.77-2.45,3.86-3.51,4.68-.29,.22-.68,.22-.97,0-1.07-.82-3.51-2.91-3.51-4.68,0-1.19,.9-2.16,2-2.16s2,.81,2,2c0-1.19,.9-2,2-2s2,.97,2,2.16Z"/></svg>
