<?xml version="1.0" encoding="UTF-8"?>
<svg xmlns="http://www.w3.org/2000/svg" id="Layer_1" data-name="Layer 1" viewBox="0 0 24 24" width="512" height="512"><path d="M12,8c-.552,0-1-.448-1-1v-1c0-.552,.448-1,1-1h1c.552,0,1,.448,1,1v1c0,.552-.448,1-1,1h-1Zm5,0h1c.552,0,1-.448,1-1v-1c0-.552-.448-1-1-1h-1c-.552,0-1,.448-1,1v1c0,.552,.448,1,1,1Zm-1,4c0,.552,.448,1,1,1h1c.552,0,1-.448,1-1v-1c0-.552-.448-1-1-1h-1c-.552,0-1,.448-1,1v1ZM18.5,0h-7c-3.032,0-5.5,2.468-5.5,5.5,0,.828,.672,1.5,1.5,1.5s1.5-.672,1.5-1.5c0-1.379,1.121-2.5,2.5-2.5h7c1.379,0,2.5,1.121,2.5,2.5v13c0,1.379-1.121,2.5-2.5,2.5h-1c-.828,0-1.5,.672-1.5,1.5s.672,1.5,1.5,1.5h1c3.032,0,5.5-2.468,5.5-5.5V5.5c0-3.032-2.468-5.5-5.5-5.5Zm-3.5,15.94v3.56c0,2.481-2.019,4.5-4.5,4.5H4.5c-2.481,0-4.5-2.019-4.5-4.5v-3.56c0-1.525,.689-2.939,1.891-3.881l2.572-2.013c1.787-1.398,4.286-1.399,6.075,0l2.57,2.011c1.202,.942,1.892,2.356,1.892,3.882Zm-3,0c0-.597-.27-1.15-.74-1.52l-2.57-2.011c-.351-.274-.771-.411-1.189-.411s-.839,.137-1.188,.41l-2.572,2.013c-.47,.368-.739,.922-.739,1.519v3.56c0,.827,.673,1.5,1.5,1.5h6c.827,0,1.5-.673,1.5-1.5v-3.56Zm-4,.06h-1c-.552,0-1,.448-1,1v1c0,.552,.448,1,1,1h1c.552,0,1-.448,1-1v-1c0-.552-.448-1-1-1Z"/></svg>
