<?xml version="1.0" encoding="UTF-8"?>
<svg xmlns="http://www.w3.org/2000/svg" id="Layer_1" data-name="Layer 1" viewBox="0 0 24 24" width="512" height="512"><path d="m19,0h-6c-2.757,0-5,2.243-5,5v10c0,2.206,1.794,4,4,4h7c2.757,0,5-2.243,5-5V5c0-2.757-2.243-5-5-5Zm-6,3h6c1.103,0,2,.897,2,2v6h-9c-.345,0-.68.044-1,.127v-6.127c0-1.103.897-2,2-2Zm6,13h-7c-.551,0-1-.448-1-1s.449-1,1-1h9c0,1.103-.897,2-2,2Zm-3,6.5c0,.828-.671,1.5-1.5,1.5H4c-2.206,0-4-1.794-4-4v-9.626c0-2.511,1.697-4.701,4.126-5.326.805-.212,1.621.276,1.827,1.078.207.802-.276,1.62-1.079,1.826-1.104.284-1.874,1.28-1.874,2.422v5.753c.32-.083.655-.127,1-.127h1c.829,0,1.5.672,1.5,1.5s-.671,1.5-1.5,1.5h-1c-.551,0-1,.448-1,1s.449,1,1,1h10.5c.829,0,1.5.672,1.5,1.5Z"/></svg>
