<?xml version="1.0" encoding="UTF-8"?>
<svg xmlns="http://www.w3.org/2000/svg" id="Layer_1" data-name="Layer 1" viewBox="0 0 24 24" width="512" height="512"><path d="M23.56,23.56c-.29,.29-.68,.44-1.06,.44s-.77-.15-1.06-.44L.44,2.56C-.15,1.98-.15,1.02,.44,.44,1.03-.15,1.97-.15,2.56,.44L12.13,10c.47,.03,.93,.22,1.29,.58s.55,.82,.58,1.29l1.69,1.69c.62-1.46,.33-3.21-.85-4.39-.59-.59-.59-1.54,0-2.12,.59-.59,1.54-.59,2.12,0,2.37,2.37,2.68,6.02,.95,8.72l1.44,1.44c2.5-3.51,2.18-8.43-.97-11.58-.59-.59-.59-1.54,0-2.12,.59-.59,1.54-.59,2.12,0,4.32,4.32,4.65,11.14,.99,15.84l2.08,2.08c.59,.59,.59,1.54,0,2.12ZM8.15,13.09c-.22-.8-1.06-1.26-1.85-1.04-.8,.23-1.26,1.05-1.04,1.85,.32,1.15,.94,2.2,1.79,3.04,.29,.29,.68,.44,1.06,.44s.77-.15,1.06-.44c.59-.59,.59-1.54,0-2.12-.48-.48-.84-1.08-1.02-1.74Zm-4.78-3.67c.24-.79-.22-1.63-1.01-1.87-.8-.23-1.63,.22-1.87,1.01-1.26,4.23-.1,8.79,3.02,11.91,.29,.29,.68,.44,1.06,.44s.77-.15,1.06-.44c.59-.59,.59-1.54,0-2.12-2.34-2.34-3.21-5.76-2.26-8.94Z"/></svg>
