<?xml version="1.0" encoding="UTF-8"?>
<svg xmlns="http://www.w3.org/2000/svg" id="Layer_1" data-name="Layer 1" viewBox="0 0 24 24" width="512" height="512"><path d="m21.16,2.84C17.929-.392,13.21-.93,10.639,1.64c-2.642,2.659-4.216,6.556-4.624,11.529-.065.791.103,1.562.432,2.262l-3.099,3.1c-.356-.327-.827-.531-1.348-.531-1.105,0-2,.895-2,2s.895,2,2,2c0,1.105.895,2,2,2s2-.895,2-2c0-.521-.204-.992-.531-1.348l3.092-3.093c1.17.633,2.27.426,2.27.426,3.427-.281,8.33-1.426,11.53-4.625,2.569-2.57,2.031-7.29-1.201-10.521Zm-10.574,12.155c-.433.04-.856-.117-1.159-.42-.304-.305-.458-.728-.422-1.16.128-1.565.382-2.989.755-4.276.474,1.071,1.164,2.106,2.079,3.021.888.888,1.905,1.587,2.979,2.073-1.595.456-3.13.672-4.233.762Zm9.653-3.756c-.62.62-1.573.872-2.679.715-1.267-.181-2.545-.861-3.6-1.916-2.027-2.027-2.576-4.902-1.2-6.278.514-.515,1.238-.76,2.048-.76,1.358,0,2.961.69,4.23,1.959,2.027,2.027,2.576,4.902,1.2,6.278Zm-2.839-4.639c.663.663.797,1.603.3,2.1s-1.437.363-2.1-.3-.797-1.603-.3-2.1c.497-.497,1.437-.363,2.1.3Z"/></svg>
