<?xml version="1.0" encoding="UTF-8"?>
<svg xmlns="http://www.w3.org/2000/svg" id="Layer_1" data-name="Layer 1" viewBox="0 0 24 24" width="512" height="512"><path d="m13.82,17.201c.165.812-.36,1.604-1.172,1.769-.101.021-.201.03-.3.03-.699,0-1.324-.49-1.469-1.201-.479-2.362-2.316-4.199-4.678-4.679-.812-.165-1.336-.956-1.172-1.769.165-.812.955-1.339,1.769-1.171,3.545.72,6.301,3.476,7.021,7.021Zm-7.32-1.201c-.828,0-1.5.672-1.5,1.5s.672,1.5,1.5,1.5,1.5-.672,1.5-1.5-.672-1.5-1.5-1.5ZM24,5.5v13c0,3.032-2.467,5.5-5.5,5.5H5.5c-3.033,0-5.5-2.468-5.5-5.5V5.5C0,2.468,2.467,0,5.5,0h13c3.033,0,5.5,2.468,5.5,5.5Zm-3,0c0-1.379-1.122-2.5-2.5-2.5H5.5c-1.378,0-2.5,1.121-2.5,2.5v13c0,1.379,1.122,2.5,2.5,2.5h13c1.378,0,2.5-1.121,2.5-2.5V5.5Zm-14.322-.4c-.823-.102-1.569.488-1.667,1.312-.099.822.489,1.568,1.311,1.667,5.053.604,9.001,4.556,9.601,9.609.091.763.828,1.312,1.578,1.312,1,0,1.5-.844,1.402-1.666-.764-6.435-5.791-11.465-12.224-12.234Z"/></svg>
