<?xml version="1.0" encoding="UTF-8"?>
<svg xmlns="http://www.w3.org/2000/svg" id="Layer_1" data-name="Layer 1" viewBox="0 0 24 24" width="512" height="512"><path d="M15.5,7h-7c-.83,0-1.5,.67-1.5,1.5v7c0,.83,.67,1.5,1.5,1.5h7c.83,0,1.5-.67,1.5-1.5v-7c0-.83-.67-1.5-1.5-1.5Zm-1.5,7h-4v-4h4v4Zm8.5-.5c.83,0,1.5-.67,1.5-1.5s-.67-1.5-1.5-1.5h-.5v-2.5h.5c.83,0,1.5-.67,1.5-1.5s-.67-1.5-1.5-1.5h-1.11c-.53-1.03-1.37-1.87-2.39-2.39V1.5c0-.83-.67-1.5-1.5-1.5s-1.5,.67-1.5,1.5v.5h-2.5v-.5c0-.83-.67-1.5-1.5-1.5s-1.5,.67-1.5,1.5v.5h-2.5v-.5c0-.83-.67-1.5-1.5-1.5s-1.5,.67-1.5,1.5v1.11c-1.03,.53-1.87,1.37-2.39,2.39H1.5c-.83,0-1.5,.67-1.5,1.5s.67,1.5,1.5,1.5h.5v2.5h-.5c-.83,0-1.5,.67-1.5,1.5s.67,1.5,1.5,1.5h.5v2.5h-.5c-.83,0-1.5,.67-1.5,1.5s.67,1.5,1.5,1.5h1.11c.53,1.03,1.37,1.87,2.39,2.39v1.11c0,.83,.67,1.5,1.5,1.5s1.5-.67,1.5-1.5v-.5h2.5v.5c0,.83,.67,1.5,1.5,1.5s1.5-.67,1.5-1.5v-.5h2.5v.5c0,.83,.67,1.5,1.5,1.5s1.5-.67,1.5-1.5v-1.11c1.03-.53,1.87-1.37,2.39-2.39h1.11c.83,0,1.5-.67,1.5-1.5s-.67-1.5-1.5-1.5h-.5v-2.5h.5Zm-6,5.5H7.5c-1.38,0-2.5-1.12-2.5-2.5V7.5c0-1.38,1.12-2.5,2.5-2.5h9c1.38,0,2.5,1.12,2.5,2.5v9c0,1.38-1.12,2.5-2.5,2.5Z"/></svg>
