<?xml version="1.0" encoding="UTF-8"?>
<svg xmlns="http://www.w3.org/2000/svg" id="Layer_1" data-name="Layer 1" viewBox="0 0 24 24">
  <path d="m20,10c0-2.673-1.318-5.043-3.337-6.497.394-.284.765-.606,1.109-.964.574-.598.554-1.548-.043-2.121-.597-.573-1.547-.555-2.121.043-.953.992-2.234,1.539-3.608,1.539s-2.656-.547-3.608-1.539c-.574-.598-1.524-.616-2.121-.043-.598.573-.617,1.523-.043,2.121.344.359.716.68,1.109.964-2.019,1.454-3.337,3.824-3.337,6.497,0,3.898,2.803,7.154,6.5,7.858v1.142h-1c-.829,0-1.5.672-1.5,1.5s.671,1.5,1.5,1.5h1v.5c0,.828.671,1.5,1.5,1.5s1.5-.672,1.5-1.5v-.5h1c.829,0,1.5-.672,1.5-1.5s-.671-1.5-1.5-1.5h-1v-1.142c3.697-.704,6.5-3.96,6.5-7.858Zm-13,0c0-2.757,2.243-5,5-5s5,2.243,5,5-2.243,5-5,5-5-2.243-5-5Z"/>
</svg>
