<?xml version="1.0" encoding="UTF-8"?>
<svg xmlns="http://www.w3.org/2000/svg" id="Layer_1" data-name="Layer 1" viewBox="0 0 24 24" width="512" height="512"><path d="m18.5,0H5.5C2.467,0,0,2.468,0,5.5v13c0,3.032,2.467,5.5,5.5,5.5h13c3.033,0,5.5-2.468,5.5-5.5V5.5c0-3.032-2.467-5.5-5.5-5.5Zm2.5,18.5c0,1.379-1.122,2.5-2.5,2.5H5.5c-1.378,0-2.5-1.121-2.5-2.5V5.5c0-1.379,1.122-2.5,2.5-2.5h13c1.378,0,2.5,1.121,2.5,2.5v13Zm-3-3.407c0,2.154-1.753,3.907-3.907,3.907h-4.22c-1.912,0-3.531-1.366-3.852-3.248-.139-.816.41-1.592,1.227-1.73.817-.138,1.592.409,1.73,1.227.074.436.451.752.895.752h4.22c.5,0,.907-.407.907-.907,0-.402-.27-.761-.657-.872l-5.505-1.562c-1.671-.476-2.838-2.02-2.838-3.756,0-2.152,1.751-3.903,3.903-3.903h4.224c1.912,0,3.531,1.366,3.852,3.248.139.816-.41,1.592-1.227,1.73-.813.144-1.591-.409-1.73-1.227-.074-.436-.451-.752-.895-.752h-4.224c-.498,0-.903.405-.903.903,0,.402.271.76.657.87l5.51,1.562c1.67.481,2.833,2.025,2.833,3.757Z"/></svg>
