<?xml version="1.0" encoding="UTF-8"?>
<svg xmlns="http://www.w3.org/2000/svg" id="Layer_1" data-name="Layer 1" viewBox="0 0 24 24" width="512" height="512"><path d="m22.5,0H7.5c-.828,0-1.5.671-1.5,1.5s.672,1.5,1.5,1.5h.5v5.251c0,.66-.423,1.235-1.053,1.432l-1.842.576C1.613,11.35-.569,14.917.136,18.379c.664,3.258,3.551,5.623,6.862,5.623.708,0,1.411-.108,2.09-.32l6.245-1.952c3.988-1.247,6.667-4.89,6.667-9.067V3h.5c.828,0,1.5-.671,1.5-1.5s-.672-1.5-1.5-1.5Zm-3.5,12.662c0,2.858-1.833,5.351-4.562,6.204l-6.246,1.952c-.389.122-.791.184-1.194.184-1.893,0-3.542-1.355-3.923-3.222-.402-1.974.883-4.02,2.925-4.658l1.842-.576c1.889-.589,3.158-2.315,3.158-4.295V3h8v9.662Z"/></svg>
