<?xml version="1.0" encoding="UTF-8"?>
<svg xmlns="http://www.w3.org/2000/svg" id="Layer_1" data-name="Layer 1" viewBox="0 0 24 24" width="512" height="512"><path d="M18.695,11.406c-.756,.997-1.872,1.591-2.99,1.591h-.018c-1.104-.007-2.132-.576-2.893-1.604-.493-.666-.353-1.605,.313-2.099,.665-.491,1.604-.353,2.098,.313,.18,.243,.367,.389,.5,.39h0c.142,0,.389-.126,.599-.403,.5-.659,1.442-.789,2.102-.289,.66,.501,.79,1.441,.289,2.102Zm-10.733,1.591c1.067,0,2.111-.627,2.795-1.68,.451-.694,.254-1.624-.44-2.075-.694-.451-1.624-.254-2.075,.44-.1,.154-.198,.242-.26,.285-.05-.047-.126-.132-.215-.271-.443-.699-1.371-.906-2.07-.463-.7,.444-.907,1.371-.463,2.07,.93,1.465,2.1,1.689,2.714,1.693h.015Zm16.009-.997c0,6.617-5.383,12-12,12S-.029,18.617-.029,12,5.354,0,11.971,0s12,5.383,12,12Zm-3,0c0-4.963-4.038-9-9-9S2.971,7.037,2.971,12s4.038,9,9,9,9-4.037,9-9Zm-14.548-3.5c.253,0,.507-.096,.702-.288,.613-.604,1.425-1.09,2.069-1.237,.538-.123,.875-.659,.751-1.197-.123-.538-.657-.879-1.198-.752-1.01,.23-2.142,.89-3.027,1.763-.393,.388-.398,1.021-.01,1.414,.196,.198,.454,.298,.712,.298Zm8.325-1.525c.644,.147,1.456,.633,2.069,1.237,.195,.192,.448,.288,.702,.288,.258,0,.516-.1,.712-.298,.388-.394,.383-1.026-.01-1.414-.885-.873-2.016-1.531-3.027-1.763-.541-.127-1.075,.214-1.198,.752-.124,.538,.213,1.074,.751,1.197Zm.7,7.456c-.016,.016-1.63,1.569-3.448,1.569s-3.432-1.554-3.443-1.564c-.588-.583-1.538-.581-2.121,.008-.583,.588-.58,1.537,.008,2.121,.1,.1,2.488,2.436,5.557,2.436s5.457-2.336,5.557-2.436c.586-.582,.589-1.525,.01-2.114-.579-.588-1.526-.596-2.119-.02Z"/></svg>
