<?xml version="1.0" encoding="UTF-8"?>
<svg xmlns="http://www.w3.org/2000/svg" id="Layer_1" data-name="Layer 1" viewBox="0 0 24 24" width="512" height="512"><path d="M18.5,24H5.5c-3.03,0-5.5-2.47-5.5-5.5V5.5C0,2.47,2.47,0,5.5,0h13c3.03,0,5.5,2.47,5.5,5.5v13c0,3.03-2.47,5.5-5.5,5.5ZM5.5,3c-1.38,0-2.5,1.12-2.5,2.5v13c0,1.38,1.12,2.5,2.5,2.5h13c1.38,0,2.5-1.12,2.5-2.5V5.5c0-1.38-1.12-2.5-2.5-2.5H5.5Zm9,5c-1.38,0-2.5,1.23-2.5,2.75,0-1.52-1.12-2.75-2.5-2.75s-2.5,1.23-2.5,2.75c0,2.16,2.82,4.7,4.22,5.82,.45,.36,1.1,.36,1.55,0,1.4-1.13,4.22-3.66,4.22-5.82,0-1.52-1.12-2.75-2.5-2.75Z"/></svg>
