<?xml version="1.0" encoding="UTF-8"?>
<svg xmlns="http://www.w3.org/2000/svg" id="Layer_1" data-name="Layer 1" viewBox="0 0 24 24" width="512" height="512"><path d="M13.5,24h-3c-1.93,0-3.5-1.57-3.5-3.5v-7.5h-1.64c-1.37,0-2.59-.82-3.1-2.08s-.23-2.7,.73-3.66L8.96,1.26c1.68-1.67,4.4-1.68,6.08,0,0,0,5.97,6,5.97,6,.96,.96,1.25,2.4,.73,3.66-.52,1.26-1.73,2.08-3.1,2.08h-1.65v7.5c0,1.93-1.57,3.5-3.5,3.5Zm-5-14c.83,0,1.5,.67,1.5,1.5v9c0,.28,.22,.5,.5,.5h3c.27,0,.5-.23,.5-.5V11.5c0-.83,.67-1.5,1.5-1.5h3.14c.15,0,.27-.08,.33-.23s.03-.28-.08-.4L12.92,3.38c-.51-.5-1.33-.5-1.83,0l-5.97,6c-.12,.12-.14,.25-.08,.4,.06,.15,.17,.22,.34,.23h3.13Z"/></svg>
