<?xml version="1.0" encoding="UTF-8"?>
<svg xmlns="http://www.w3.org/2000/svg" id="Layer_1" data-name="Layer 1" viewBox="0 0 24 24" width="512" height="512"><path d="M24,12c0,6.62-5.38,12-12,12S0,18.62,0,12,5.38,0,12,0c.19,0,.38,0,.57,.01,.83,.04,1.47,.74,1.43,1.57-.04,.83-.72,1.45-1.57,1.43-.14,0-.29-.01-.43-.01C7.04,3,3,7.04,3,12s4.04,9,9,9,9-4.04,9-9c0-.14,0-.29-.01-.43-.04-.83,.6-1.53,1.43-1.57,.85-.03,1.53,.6,1.57,1.43,0,.19,.01,.38,.01,.57Zm-13.09-3.85c.8-.23,1.26-1.05,1.04-1.85s-1.06-1.26-1.85-1.04c-3,.85-5.09,3.62-5.09,6.74,0,3.86,3.14,7,7,7,3.12,0,5.89-2.09,6.74-5.09,.23-.8-.24-1.63-1.04-1.85-.8-.23-1.63,.24-1.85,1.04-.48,1.71-2.07,2.91-3.85,2.91-2.21,0-4-1.79-4-4,0-1.78,1.2-3.37,2.91-3.85Zm.03,2.79c-.59,.59-.59,1.54,0,2.12,.29,.29,.68,.44,1.06,.44s.77-.15,1.06-.44l5.06-5.06h2.38c.4,0,.78-.16,1.06-.44l2-2c.43-.43,.56-1.07,.33-1.63-.23-.56-.78-.93-1.39-.93h-1.5V1.5c0-.61-.37-1.15-.93-1.39-.56-.23-1.21-.1-1.63,.33l-2,2c-.28,.28-.44,.66-.44,1.06v2.38l-5.06,5.06Z"/></svg>
