<?xml version="1.0" encoding="UTF-8"?>
<svg xmlns="http://www.w3.org/2000/svg" id="Layer_1" data-name="Layer 1" viewBox="0 0 24 24" width="512" height="512"><path d="M12,0C5.383,0,0,5.383,0,12s5.383,12,12,12,12-5.383,12-12S18.617,0,12,0Zm0,21c-4.962,0-9-4.037-9-9S7.038,3,12,3s9,4.037,9,9-4.037,9-9,9Zm4-12c0-2.206-1.794-4-4-4s-4,1.794-4,4c0,.885,.298,1.696,.787,2.359-.793,.812-1.287,1.919-1.287,3.141,0,2.481,2.019,4.5,4.5,4.5s4.5-2.019,4.5-4.5c0-1.222-.493-2.329-1.287-3.141,.488-.663,.787-1.474,.787-2.359Zm-4-1.5c.828,0,1.5,.673,1.5,1.5s-.672,1.5-1.5,1.5-1.5-.673-1.5-1.5,.672-1.5,1.5-1.5Zm0,8.5c-.827,0-1.5-.673-1.5-1.5s.673-1.5,1.5-1.5,1.5,.673,1.5,1.5-.673,1.5-1.5,1.5Z"/></svg>
