<?xml version="1.0" encoding="UTF-8"?>
<svg xmlns="http://www.w3.org/2000/svg" id="Layer_1" data-name="Layer 1" viewBox="0 0 24 24" width="512" height="512"><path d="M24,5.5c0-3.03-2.47-5.5-5.5-5.5H5.5C2.47,0,0,2.47,0,5.5v1c0,.95,.38,1.81,1,2.44v9.56c0,3.03,2.47,5.5,5.5,5.5h11c3.03,0,5.5-2.47,5.5-5.5V8.94c.62-.63,1-1.49,1-2.44v-1ZM3,5.5c0-1.38,1.12-2.5,2.5-2.5h13c1.38,0,2.5,1.12,2.5,2.5v1c0,.28-.22,.5-.5,.5H3.5c-.28,0-.5-.22-.5-.5v-1Zm14.5,15.5H6.5c-1.38,0-2.5-1.12-2.5-2.5V10H20v8.5c0,1.38-1.12,2.5-2.5,2.5Zm-5.5,0c-.55,0-1-.45-1-1h-.27c-1.07,0-2.06-.57-2.6-1.5-.28-.48-.11-1.09,.37-1.37,.48-.28,1.09-.11,1.37,.36,.18,.31,.51,.5,.87,.5h2.64c.34,0,.62-.28,.62-.62,0-.31-.22-.57-.52-.62l-3.29-.55c-1.27-.21-2.19-1.3-2.19-2.59,0-1.45,1.18-2.62,2.62-2.62h.38c0-.55,.45-1,1-1s1,.45,1,1h.27c1.07,0,2.06,.57,2.6,1.5,.28,.48,.11,1.09-.36,1.37-.48,.28-1.09,.11-1.37-.36-.18-.31-.51-.5-.87-.5h-2.64c-.34,0-.62,.28-.62,.62,0,.31,.22,.56,.52,.62l3.29,.55c1.27,.21,2.19,1.3,2.19,2.59,0,1.45-1.18,2.62-2.62,2.62h-.38c0,.55-.45,1-1,1Z"/></svg>
