<?xml version="1.0" encoding="UTF-8"?>
<svg xmlns="http://www.w3.org/2000/svg" id="Layer_1" data-name="Layer 1" viewBox="0 0 24 24" width="512" height="512"><path d="m19,3.261v-1.761c0-.829-.672-1.5-1.5-1.5s-1.5.671-1.5,1.5v.523c-.165-.015-.331-.023-.5-.023h-7c-.169,0-.335.008-.5.023v-.523c0-.829-.672-1.5-1.5-1.5s-1.5.671-1.5,1.5v1.761c-1.221,1.01-2,2.535-2,4.239v9c0,1.704.779,3.23,2,4.239v1.761c0,.829.672,1.5,1.5,1.5s1.5-.671,1.5-1.5v-.523c.165.015.331.023.5.023h7c.169,0,.335-.008.5-.023v.523c0,.829.672,1.5,1.5,1.5s1.5-.671,1.5-1.5v-1.761c1.221-1.01,2-2.535,2-4.239V7.5c0-1.704-.779-3.23-2-4.239Zm-10.5,15.739c-1.379,0-2.5-1.122-2.5-2.5V7.5c0-1.378,1.121-2.5,2.5-2.5h7c1.379,0,2.5,1.122,2.5,2.5v9c0,1.378-1.121,2.5-2.5,2.5h-7Zm1.5-7v1c0,.552-.447,1-1,1s-1-.448-1-1v-1c0-.552.447-1,1-1s1,.448,1,1Zm3,0v1c0,.552-.447,1-1,1s-1-.448-1-1v-1c0-.552.447-1,1-1s1,.448,1,1Zm3,0v1c0,.552-.447,1-1,1s-1-.448-1-1v-1c0-.552.447-1,1-1s1,.448,1,1Zm-6,4v1c0,.552-.447,1-1,1s-1-.448-1-1v-1c0-.552.447-1,1-1s1,.448,1,1Zm3,0v1c0,.552-.447,1-1,1s-1-.448-1-1v-1c0-.552.447-1,1-1s1,.448,1,1Zm3,0v1c0,.552-.447,1-1,1s-1-.448-1-1v-1c0-.552.447-1,1-1s1,.448,1,1Zm0-7.5c0,.829-.672,1.5-1.5,1.5h-5c-.828,0-1.5-.671-1.5-1.5s.672-1.5,1.5-1.5h5c.828,0,1.5.671,1.5,1.5Z"/></svg>
