<?xml version="1.0" encoding="UTF-8"?>
<svg xmlns="http://www.w3.org/2000/svg" id="Layer_1" data-name="Layer 1" viewBox="0 0 24 24" width="512" height="512"><path d="m12,18c-.829,0-1.5-.671-1.5-1.5v-5c0-.829.671-1.5,1.5-1.5s1.5.671,1.5,1.5v5c0,.829-.671,1.5-1.5,1.5Zm1.5,2.5h0c0-.828-.672-1.5-1.5-1.5h0c-.828,0-1.5.672-1.5,1.5h0c0,.828.672,1.5,1.5,1.5h0c.828,0,1.5-.672,1.5-1.5Zm5.768,2.064c1.28-.922,1.813-2.552,1.331-4.047l-1.176-3.709,3.085-2.255c1.291-.944,1.803-2.536,1.307-4.049-.485-1.497-1.871-2.503-3.447-2.503h-3.779l-1.139-3.485C14.956.987,13.601,0,11.997,0,10.414,0,9.026,1.012,8.546,2.511l-1.141,3.489h-3.779c-1.601,0-2.955.984-3.447,2.502-.489,1.491.035,3.118,1.305,4.049l3.087,2.256-1.174,3.702c-.493,1.526.029,3.118,1.33,4.056.63.454,1.364.694,2.124.694.425,0,.906-.161,1.428-.478.706-.429.93-1.346.503-2.054-.425-.708-1.347-.937-2.056-.514-.005.003-.018.011-.036.021-.071-.021-.141-.056-.208-.104-.235-.169-.318-.424-.227-.708l1.503-4.737c.195-.614-.024-1.284-.544-1.665l-3.956-2.891c-.233-.171-.315-.424-.226-.699.089-.274.306-.432.595-.432h4.867c.649,0,1.224-.417,1.426-1.034l1.481-4.532c.178-.552,1.013-.558,1.195.007l1.479,4.524c.202.617.777,1.034,1.426,1.034h4.867c.289,0,.505.156.595.433.089.273.007.528-.226.698l-3.955,2.892c-.52.38-.739,1.05-.544,1.665l1.505,4.745c.089.276.006.53-.23.701-.066.048-.134.083-.204.104-.687-.44-1.601-.249-2.055.432-.459.689-.273,1.621.416,2.081.287.191.86.512,1.475.512.761,0,1.497-.241,2.125-.696Zm-12.71-2.263h0Z"/></svg>
