<?xml version="1.0" encoding="UTF-8"?>
<svg xmlns="http://www.w3.org/2000/svg" id="Layer_1" data-name="Layer 1" viewBox="0 0 24 24" width="512" height="512"><path d="m23.562,9.059l-12.588,12.622c-.852.852-1.981,1.319-3.183,1.319h-.009c-1.206-.003-2.337-.476-3.187-1.331L.445,17.566c-.589-.582-.595-1.532-.012-2.121.583-.59,1.532-.595,2.122-.012l4.16,4.112c.293.295.67.453,1.073.454h.003c.4,0,.777-.156,1.061-.439l12.587-12.62c.584-.588,1.535-.588,2.121-.003.587.585.588,1.535.003,2.121Zm-18.538,2.708c.786.793,1.834,1.23,2.95,1.233h.009c1.113,0,2.159-.434,2.952-1.226L19.066,3.555c.583-.589.578-1.539-.011-2.122-.589-.582-1.538-.576-2.122.011l-8.126,8.213c-.22.221-.513.342-.825.342h-.002c-.313,0-.606-.123-.813-.332l-3.589-3.711c-.576-.596-1.525-.611-2.121-.035-.595.576-.611,1.525-.035,2.121l3.603,3.724Z"/></svg>
