<?xml version="1.0" encoding="UTF-8"?>
<svg xmlns="http://www.w3.org/2000/svg" id="Layer_1" data-name="Layer 1" viewBox="0 0 24 24" width="512" height="512"><path d="M24,12v10.5c0,.828-.671,1.5-1.5,1.5s-1.5-.672-1.5-1.5V12c0-4.963-4.038-9-9-9S3,7.037,3,12v10.5c0,.828-.671,1.5-1.5,1.5s-1.5-.672-1.5-1.5V12C0,5.383,5.383,0,12,0s12,5.383,12,12Zm-5,0v5c0,1.374-.693,2.586-1.748,3.306l.864,1.411c.433,.706,.21,1.63-.496,2.062-.245,.149-.515,.221-.782,.221-.505,0-.998-.255-1.281-.717l-1.225-2c-.056-.091-.101-.186-.135-.283h-4.058c-.034,.097-.079,.192-.135,.283l-1.225,2c-.283,.462-.776,.717-1.281,.717-.267,0-.538-.071-.782-.221-.706-.433-.928-1.356-.496-2.062l.77-1.257c-1.191-.693-1.991-1.983-1.991-3.459v-5c0-2.761,2.239-5,5-5h4c2.761,0,5,2.239,5,5Zm-8,5.5c0-.828-.672-1.5-1.5-1.5s-1.5,.672-1.5,1.5,.672,1.5,1.5,1.5,1.5-.672,1.5-1.5Zm5,0c0-.828-.672-1.5-1.5-1.5s-1.5,.672-1.5,1.5,.672,1.5,1.5,1.5,1.5-.672,1.5-1.5Zm0-5.5c0-1.105-.895-2-2-2h-4c-1.105,0-2,.895-2,2v2h8v-2Z"/></svg>
