<?xml version="1.0" encoding="UTF-8"?>
<svg xmlns="http://www.w3.org/2000/svg" id="Layer_1" data-name="Layer 1" viewBox="0 0 24 24" width="512" height="512"><path d="M22.822,8.699l-4.839-5.199C13.647-.743,9.254-.221,7.019,.472c-.979,.304-1.704,1.077-1.94,2.069-.233,.978,.055,1.979,.77,2.684l4.982,5.124L.571,20.601c-.773,.789-.759,2.056,.031,2.828,.789,.773,2.056,.759,2.828-.031L13.619,13.217l2.273,2.338c.792,.791,1.842,1.225,2.96,1.225h.025c1.127-.006,2.183-.453,2.972-1.259l.955-.977c1.589-1.624,1.583-4.261,.018-5.845Zm-6.986-3.105l1.49,1.602-2.717,2.736L8.133,3.271c1.95-.534,4.803-.512,7.702,2.323Zm4.824,6.852l-.955,.976c-.224,.229-.524,.356-.845,.358h-.007c-.318,0-.616-.123-.826-.332l-1.327-1.365,2.671-2.689,1.285,1.381c.454,.46,.456,1.21,.004,1.671Z"/></svg>
