<?xml version="1.0" encoding="UTF-8"?>
<svg xmlns="http://www.w3.org/2000/svg" id="Layer_1" data-name="Layer 1" viewBox="0 0 24 24" width="512" height="512"><path d="m23.368,1.151l-.526-.526c-.837-.837-2.194-.839-3.032-.003l-.581.583c-.708.711-1.118,1.651-1.198,2.644l-5.537,5.537c-1.282-.874-2.828-1.386-4.493-1.386C3.589,8,0,11.589,0,16s3.589,8,8,8,8-3.589,8-8c0-1.665-.512-3.211-1.386-4.493l5.538-5.538c.994-.083,1.935-.496,2.644-1.208l.568-.57c.841-.838.843-2.199.003-3.039Zm-15.368,19.849c-2.757,0-5-2.243-5-5s2.243-5,5-5,5,2.243,5,5-2.243,5-5,5Zm1.561-4.561c.586.586.586,1.535,0,2.121-.293.293-.677.439-1.061.439s-.768-.146-1.061-.439l-2-2c-.586-.586-.586-1.535,0-2.121s1.535-.586,2.121,0l2,2Z"/></svg>
