<?xml version="1.0" encoding="UTF-8"?>
<svg xmlns="http://www.w3.org/2000/svg" id="Layer_1" data-name="Layer 1" viewBox="0 0 24 24" width="512" height="512"><path d="M24,12c0,1.372-.23,2.718-.684,4-.276,.781-1.136,1.191-1.914,.914-.781-.276-1.19-1.133-.914-1.914,.339-.96,.512-1.97,.512-3,0-4.962-4.038-9-9-9S3,7.038,3,12s4.038,9,9,9c.144,0,.287-.003,.429-.01,.852-.034,1.53,.601,1.569,1.428,.039,.828-.6,1.53-1.428,1.569-.189,.009-.379,.013-.571,.013C5.383,24,0,18.617,0,12S5.383,0,12,0s12,5.383,12,12Zm-6.231,2.731l-.014,.007c-.059-.098-.104-.202-.188-.287-.579-.588-1.526-.596-2.119-.02-.016,.016-1.63,1.569-3.448,1.569s-3.432-1.554-3.443-1.564c-.588-.583-1.538-.581-2.121,.008-.583,.588-.58,1.538,.008,2.121,.1,.1,2.488,2.436,5.557,2.436,.884,0,1.7-.203,2.432-.482,.748,1.219,2.302,1.944,3.526,1.204,1.231-.744,1.307-2.47,.563-3.701l-.752-1.291Zm-9.801-3.924c.01-.046,.02-.09,.032-.133,.012,.043,.022,.087,.032,.133,.148,.708,.771,1.194,1.467,1.194,.102,0,.205-.011,.308-.032,.811-.169,1.331-.964,1.162-1.775-.321-1.538-1.387-3.193-2.968-3.193s-2.647,1.655-2.968,3.193c-.169,.811,.351,1.605,1.162,1.775,.809,.165,1.605-.351,1.775-1.162Zm8.032-3.807c-1.581,0-2.647,1.655-2.968,3.193-.169,.811,.351,1.605,1.162,1.775,.809,.165,1.605-.351,1.775-1.162,.01-.046,.02-.09,.032-.133,.012,.043,.022,.087,.032,.133,.148,.708,.771,1.194,1.467,1.194,.102,0,.205-.011,.308-.032,.811-.169,1.331-.964,1.162-1.775-.321-1.538-1.387-3.193-2.968-3.193Z"/></svg>
