<?xml version="1.0" encoding="UTF-8"?>
<svg xmlns="http://www.w3.org/2000/svg" id="Layer_1" data-name="Layer 1" viewBox="0 0 24 24" width="512" height="512"><path d="M24,5.5v6c0,.83-.67,1.5-1.5,1.5s-1.5-.67-1.5-1.5V5.5c0-1.38-1.12-2.5-2.5-2.5H5.5c-1.38,0-2.5,1.12-2.5,2.5v13c0,1.38,1.12,2.5,2.5,2.5h7c.83,0,1.5,.67,1.5,1.5s-.67,1.5-1.5,1.5H5.5c-3.03,0-5.5-2.47-5.5-5.5V5.5C0,2.47,2.47,0,5.5,0h13c3.03,0,5.5,2.47,5.5,5.5Zm-13.5,6.5c0,.83,.67,1.5,1.5,1.5s1.5-.67,1.5-1.5-.67-1.5-1.5-1.5-1.5,.67-1.5,1.5Zm12,6h-1.5v-1.5c0-.83-.67-1.5-1.5-1.5s-1.5,.67-1.5,1.5v1.5h-1.5c-.83,0-1.5,.67-1.5,1.5s.67,1.5,1.5,1.5h1.5v1.5c0,.83,.67,1.5,1.5,1.5s1.5-.67,1.5-1.5v-1.5h1.5c.83,0,1.5-.67,1.5-1.5s-.67-1.5-1.5-1.5Zm-6.52-6.37c.07,.82,.79,1.43,1.63,1.36,.83-.07,1.43-.8,1.36-1.63-.33-3.63-3.33-6.37-6.97-6.37-3.86,0-7,3.14-7,7,0,3.65,2.74,6.64,6.37,6.97,.05,0,.09,0,.14,0,.77,0,1.42-.59,1.49-1.37,.07-.83-.53-1.55-1.36-1.63-2.07-.19-3.63-1.9-3.63-3.98,0-2.21,1.79-4,4-4,2.08,0,3.8,1.56,3.98,3.63Z"/></svg>
