<?xml version="1.0" encoding="UTF-8"?>
<svg xmlns="http://www.w3.org/2000/svg" id="Layer_1" data-name="Layer 1" viewBox="0 0 24 24" width="512" height="512"><path d="m22.5,10.5c.828,0,1.5-.672,1.5-1.5v-.5c0-3.032-2.468-5.5-5.5-5.5H5.5C2.468,3,0,5.468,0,8.5v7c0,3.032,2.468,5.5,5.5,5.5h13c3.032,0,5.5-2.468,5.5-5.5v-.5c0-.828-.672-1.5-1.5-1.5s-1.5-.673-1.5-1.5.673-1.5,1.5-1.5Zm-1.602,5.706c-.305,1.035-1.265,1.794-2.398,1.794H5.5c-1.379,0-2.5-1.121-2.5-2.5v-7c0-1.379,1.121-2.5,2.5-2.5h13c1.134,0,2.094.759,2.398,1.794-1.693.647-2.898,2.288-2.898,4.206s1.205,3.559,2.898,4.206Zm-5.898-4.206c0,.552-.448,1-1,1h-1.5l-1.911,2.421c-.195.357-.569.579-.975.579h-.32c-.382,0-.644-.384-.506-.74l.879-2.26h-2.32c-.442,0-.862-.195-1.147-.533l-1.096-1.3c-.297-.52.078-1.167.677-1.167.207,0,.405.082.551.228l1.11.772h2.241l-.891-2.258c-.141-.356.122-.742.505-.742h.298c.407,0,.781.222.975.579l1.929,2.421h1.5c.552,0,1,.448,1,1Z"/></svg>
