<?xml version="1.0" encoding="UTF-8"?>
<svg xmlns="http://www.w3.org/2000/svg" id="Layer_1" data-name="Layer 1" viewBox="0 0 24 24" width="512" height="512"><path d="m14.826,19.594c-2.977-1.753-4.826-4.663-4.826-7.594s1.849-5.839,4.822-7.592c.894-.526,1.343-1.549,1.119-2.546-.223-.988-1.151-1.7-2.192-1.814C7.409-.467,1.782,3.333.36,9.084c-.882,3.564-.102,7.25,2.14,10.114,2.389,3.052,6.038,4.802,10.013,4.802.448,0,.878-.015,1.3-.051,1.047-.09,1.903-.823,2.13-1.823.225-.989-.224-2.006-1.116-2.531Zm-9.964-2.245c-1.693-2.164-2.258-4.843-1.59-7.544.921-3.726,4.254-6.356,8.265-6.753-2.84,2.323-4.537,5.605-4.537,8.948s1.701,6.631,4.545,8.955c-2.663-.25-5.061-1.533-6.683-3.605Zm18.841-5.853l-1.971,1.606.815,2.484c.112.336-.002.706-.282.922-.281.216-.667.231-.964.038l-2.295-1.495-2.257,1.51c-.14.094-.302.141-.463.141-.176,0-.352-.056-.5-.166-.283-.212-.401-.58-.295-.917l.784-2.513-1.981-1.612c-.267-.226-.364-.594-.243-.922.12-.328.433-.546.782-.546h2.501l.885-2.483c.121-.326.433-.542.781-.542s.66.216.781.542l.885,2.483h2.501c.35,0,.663.219.783.548.12.329.022.698-.246.923Z"/></svg>
