<?xml version="1.0" encoding="UTF-8"?>
<svg xmlns="http://www.w3.org/2000/svg" id="Layer_1" data-name="Layer 1" viewBox="0 0 24 24" width="512" height="512"><path d="m17.823,4.552c-.65-2.611-3.014-4.552-5.823-4.552s-5.173,1.941-5.823,4.552C2.182,5.366,0,6.927,0,9c0,3.454,6.027,5,12,5s12-1.546,12-5c0-2.073-2.182-3.634-6.177-4.448Zm-5.823-1.552c1.441,0,2.648,1.021,2.935,2.379-.443.263-1.339.621-2.935.621-1.612,0-2.511-.365-2.937-.613.284-1.36,1.493-2.387,2.937-2.387Zm0,8c-5.381,0-8.434-1.354-8.955-1.999.294-.353,1.469-1.048,3.802-1.523.763.653,2.312,1.522,5.153,1.522s4.389-.868,5.153-1.522c2.334.475,3.508,1.169,3.802,1.523-.521.645-3.574,1.999-8.955,1.999Zm-4.615,6.077l-2.5,6c-.24.576-.798.923-1.385.923-.192,0-.388-.037-.577-.115-.765-.318-1.126-1.197-.808-1.962l2.5-6c.319-.766,1.195-1.126,1.962-.808.765.318,1.126,1.197.808,1.962Zm14.5,4.846c.318.765-.043,1.644-.808,1.962-.189.078-.384.115-.577.115-.587,0-1.145-.347-1.385-.923l-2.5-6c-.318-.765.043-1.644.808-1.962.765-.318,1.643.042,1.962.808l2.5,6Z"/></svg>
