<?xml version="1.0" encoding="UTF-8"?>
<svg xmlns="http://www.w3.org/2000/svg" id="Layer_1" data-name="Layer 1" viewBox="0 0 24 24" width="512" height="512"><path d="m15.581,13.186c-.45-.321-1.074-.217-1.395.233l-.972,1.36-1.606-2.249c.836-.533,1.392-1.468,1.392-2.531,0-1.654-1.346-3-3-3h-1c-1.654,0-3,1.346-3,3v5c0,.552.448,1,1,1s1-.448,1-1v-2h1.485l2.5,3.5-1.371,1.919c-.321.449-.217,1.074.233,1.395.176.125.379.186.58.186.312,0,.62-.146.815-.419l.972-1.36.972,1.36c.195.273.503.419.815.419.201,0,.404-.061.58-.186.45-.321.554-.946.233-1.395l-1.371-1.919,1.371-1.919c.321-.449.217-1.074-.233-1.395Zm-7.581-3.186c0-.551.449-1,1-1h1c.551,0,1,.449,1,1,0,.548-.444.995-.991,1-.014,0-.027,0-.041,0h-1.968v-1Zm12.389-5.732l-2.657-2.657c-1.039-1.039-2.419-1.611-3.889-1.611h-6.343C4.467,0,2,2.467,2,5.5v13c0,3.033,2.467,5.5,5.5,5.5h9c3.033,0,5.5-2.467,5.5-5.5v-10.343c0-1.469-.572-2.85-1.611-3.889Zm-3.889,16.732H7.5c-1.378,0-2.5-1.122-2.5-2.5V5.5c0-1.378,1.122-2.5,2.5-2.5h5.5v4c0,1.105.895,2,2,2h4v9.5c0,1.378-1.122,2.5-2.5,2.5Z"/></svg>
