<?xml version="1.0" encoding="UTF-8"?>
<svg xmlns="http://www.w3.org/2000/svg" id="Layer_1" data-name="Layer 1" viewBox="0 0 24 24">
  <path d="m20.485,3.515c.586.585.586,1.535,0,2.121l-2.828,2.829c-.586.586-1.535.586-2.121,0-1.949-1.949-5.123-1.949-7.072,0-1.949,1.95-1.949,5.122,0,7.071.586.586.586,1.535,0,2.121l-2.828,2.829c-.293.293-.677.439-1.061.439s-.768-.146-1.061-.439c-.586-.585-.586-1.535,0-2.121l1.867-1.868c-.625-.919-1.032-1.942-1.231-2.997H1.5c-.828,0-1.5-.671-1.5-1.5s.672-1.5,1.5-1.5h2.649c.2-1.054.611-2.075,1.235-2.994l-1.87-1.87c-.586-.586-.586-1.536,0-2.121.586-.586,1.535-.586,2.121,0l1.869,1.87c.919-.625,1.94-1.036,2.995-1.236V1.5c0-.829.672-1.5,1.5-1.5s1.5.671,1.5,1.5v2.65c1.055.2,2.077.607,2.997,1.232l1.867-1.868c.586-.586,1.535-.586,2.121,0Zm-4.985,17.485c-.828,0-1.5.672-1.5,1.5s.672,1.5,1.5,1.5,1.5-.672,1.5-1.5-.672-1.5-1.5-1.5Zm7-11.5c.828,0,1.5-.672,1.5-1.5s-.672-1.5-1.5-1.5-1.5.672-1.5,1.5.672,1.5,1.5,1.5Zm-14,11.5c-.828,0-1.5.672-1.5,1.5s.672,1.5,1.5,1.5,1.5-.672,1.5-1.5-.672-1.5-1.5-1.5Zm14,0c-.828,0-1.5.672-1.5,1.5s.672,1.5,1.5,1.5,1.5-.672,1.5-1.5-.672-1.5-1.5-1.5Zm0-6.97c-.828,0-1.5.672-1.5,1.5s.672,1.5,1.5,1.5,1.5-.672,1.5-1.5-.672-1.5-1.5-1.5Zm-3.5,3.47c-.828,0-1.5.672-1.5,1.5s.672,1.5,1.5,1.5,1.5-.672,1.5-1.5-.672-1.5-1.5-1.5Zm-7,0c-.828,0-1.5.672-1.5,1.5s.672,1.5,1.5,1.5,1.5-.672,1.5-1.5-.672-1.5-1.5-1.5Zm3.5-3.5c-.828,0-1.5.672-1.5,1.5s.672,1.5,1.5,1.5,1.5-.672,1.5-1.5-.672-1.5-1.5-1.5Zm3.5-3.5c-.828,0-1.5.672-1.5,1.5s.672,1.5,1.5,1.5,1.5-.672,1.5-1.5-.672-1.5-1.5-1.5Z"/>
</svg>
