<?xml version="1.0" encoding="UTF-8"?>
<svg xmlns="http://www.w3.org/2000/svg" id="Layer_1" data-name="Layer 1" viewBox="0 0 24 24" width="512" height="512"><path d="m12,5.5v13c0,.828-.672,1.5-1.5,1.5s-1.5-.672-1.5-1.5v-5.5H3v5.5c0,.828-.672,1.5-1.5,1.5s-1.5-.672-1.5-1.5V5.5c0-.828.672-1.5,1.5-1.5s1.5.672,1.5,1.5v4.5h6v-4.5c0-.828.672-1.5,1.5-1.5s1.5.672,1.5,1.5Zm10.132,5.634c.54-.742.868-1.648.868-2.634,0-2.481-2.019-4.5-4.5-4.5h-3c-.828,0-1.5.672-1.5,1.5s.672,1.5,1.5,1.5h3c.827,0,1.5.673,1.5,1.5s-.673,1.5-1.5,1.5h-1c-.828,0-1.5.672-1.5,1.5s.672,1.5,1.5,1.5h1.5c1.103,0,2,.897,2,2s-.897,2-2,2h-3.5c-.828,0-1.5.672-1.5,1.5s.672,1.5,1.5,1.5h3.5c2.757,0,5-2.243,5-5,0-1.566-.738-2.948-1.868-3.866Z"/></svg>
