<?xml version="1.0" encoding="UTF-8"?>
<svg xmlns="http://www.w3.org/2000/svg" id="Layer_1" data-name="Layer 1" viewBox="0 0 24 24" width="512" height="512"><path d="m21.5,13H2.5c-1.378,0-2.5,1.121-2.5,2.5v3c0,3.032,2.467,5.5,5.5,5.5h13c3.033,0,5.5-2.468,5.5-5.5v-3c0-1.379-1.122-2.5-2.5-2.5Zm-.5,5.5c0,1.379-1.122,2.5-2.5,2.5H5.5c-1.378,0-2.5-1.121-2.5-2.5v-1c0,.828.673,1.5,1.5,1.5s1.5-.672,1.5-1.5v-1.5h2v1.5c0,.828.673,1.5,1.5,1.5s1.5-.672,1.5-1.5v-1.5h2v1.5c0,.828.673,1.5,1.5,1.5s1.5-.672,1.5-1.5v-1.5h2v1.5c0,.828.673,1.5,1.5,1.5s1.5-.672,1.5-1.5v1ZM18.5,0H5.5C2.467,0,0,2.468,0,5.5v3c0,1.379,1.122,2.5,2.5,2.5h19c1.378,0,2.5-1.121,2.5-2.5v-3c0-3.032-2.467-5.5-5.5-5.5Zm2.5,6.5c0-.828-.673-1.5-1.5-1.5s-1.5.672-1.5,1.5v1.5h-2v-2.5c0-.828-.673-1.5-1.5-1.5s-1.5.672-1.5,1.5v2.5h-2v-2.5c0-.828-.673-1.5-1.5-1.5s-1.5.672-1.5,1.5v2.5h-2v-1.5c0-.828-.673-1.5-1.5-1.5s-1.5.672-1.5,1.5v-1c0-1.379,1.122-2.5,2.5-2.5h13c1.378,0,2.5,1.121,2.5,2.5v1Z"/></svg>
