<?xml version="1.0" encoding="UTF-8"?>
<svg xmlns="http://www.w3.org/2000/svg" id="Layer_1" data-name="Layer 1" viewBox="0 0 24 24" width="512" height="512"><path d="M18.171,8.562c.518,.647,.413,1.591-.234,2.108l-2.5,2c-.276,.222-.607,.329-.936,.329-.44,0-.876-.192-1.172-.562-.518-.647-.413-1.591,.234-2.108l2.5-2c.647-.518,1.591-.412,2.108,.233Zm-8.672,4.438c.44,0,.876-.192,1.172-.562,.518-.647,.413-1.591-.234-2.108l-2.5-2c-.646-.518-1.591-.412-2.108,.233-.518,.647-.413,1.591,.234,2.108l2.5,2c.276,.222,.607,.329,.936,.329Zm14.501-.999c0,6.617-5.383,12-12,12S0,18.618,0,12.001c0-1.836,.426-3.569,1.166-5.127L.017,1.185C-.052,.818,.089,.444,.383,.214,.677-.018,1.076-.065,1.414,.09L5.447,1.961C7.333,.726,9.582,0,12,0s4.667,.725,6.553,1.96L22.586,.09c.338-.155,.737-.108,1.03,.123,.294,.23,.435,.604,.366,.972l-1.149,5.689c.74,1.557,1.167,3.291,1.167,5.127Zm-3,0c0-4.963-4.038-9-9-9S3,7.038,3,12.001s4.038,9,9,9,9-4.037,9-9Zm-4.66,3.256c-1.182-.799-2.764-1.257-4.34-1.257s-3.158,.458-4.34,1.257c-.687,.464-.867,1.396-.403,2.083,.463,.687,1.396,.867,2.083,.403,1.377-.932,3.943-.932,5.32,0,.257,.174,.549,.257,.838,.257,.481,0,.955-.231,1.244-.66,.464-.687,.284-1.619-.403-2.083Z"/></svg>
