<?xml version="1.0" encoding="UTF-8"?>
<svg xmlns="http://www.w3.org/2000/svg" id="Layer_1" data-name="Layer 1" viewBox="0 0 24 24" width="512" height="512"><path d="m18.992,13.572c.097-.385,1.027-1.409,1.644-2.086,1.576-1.733,3.363-3.698,3.363-5.986,0-3.248-2.679-3.5-3.5-3.5-1.353,0-2.467.591-3.45,1.113-.896.476-1.669.887-2.55.887-.616,0-1.551-.95-2.302-1.713C11.091,1.162,9.946-.001,8.388-.001c-.331-.005-.779,0-1.279.183-1.474.542-1.812,2.043-1.955,2.683-.158.7-.164,1.841-.156,3.048l.002.36c0,.308-1.232,1.008-1.759,1.307-1.443.821-3.24,1.843-3.24,3.863,0,1.918,1.66,2.696,2.759,3.211.636.298,1.169.564,1.233.778-.06.204-.271.71-.967,1.96,0,0-.711,1.448-.854,2.062-.287,1.222.094,2.426.97,3.065,1.024.749,2.226.433,2.74.297.901-.238,1.738-.839,2.624-1.477.829-.596,1.86-1.338,2.444-1.341.346.053,1.644.743,3.654,2.367.757.611,2.281,1.635,3.985,1.635,2.071,0,3.409-1.338,3.409-3.409,0-1.935-1.01-3.404-1.822-4.585-.632-.919-1.178-1.713-1.185-2.434Zm-.025,7.371s-.097.057-.377.057c-.562,0-1.349-.363-2.101-.97-3.754-3.03-5.016-3.03-5.49-3.03-1.6,0-3.005,1.011-4.245,1.903-.574.413-1.223.88-1.597,1,.088-.273.489-1.052.489-1.052.987-1.773,1.341-2.644,1.353-3.327.033-2.181-1.845-3.061-2.967-3.587-.318-.149-.829-.389-1.018-.552.141-.306,1.268-.947,1.709-1.198,1.459-.83,3.275-1.862,3.275-3.915l-.002-.38c-.004-.582-.013-1.945.083-2.368.063-.284.115-.441.151-.528h.019c.047,0,.103,0,.153.002.332.047,1.16.89,1.655,1.393,1.144,1.162,2.566,2.609,4.44,2.609,1.628,0,2.919-.686,3.957-1.237.771-.41,1.438-.763,2.043-.763.299,0,.45.055.449.035.015.029.051.131.051.465,0,1.127-1.432,2.702-2.583,3.967-1.297,1.426-2.417,2.658-2.417,4.033,0,1.724.906,3.042,1.706,4.206.694,1.01,1.294,1.882,1.294,2.885,0,.253-.032.341-.032.353Zm-9.468-9.943c-.828,0-1.5-.672-1.5-1.5s.672-1.5,1.5-1.5,1.5.672,1.5,1.5-.672,1.5-1.5,1.5Zm6.5-.5c0,.828-.672,1.5-1.5,1.5s-1.5-.672-1.5-1.5.672-1.5,1.5-1.5,1.5.672,1.5,1.5Zm-4,4c0,.828-.672,1.5-1.5,1.5s-1.5-.672-1.5-1.5.672-1.5,1.5-1.5,1.5.672,1.5,1.5Z"/></svg>
