<?xml version="1.0" encoding="UTF-8"?>
<svg xmlns="http://www.w3.org/2000/svg" id="Layer_1" data-name="Layer 1" viewBox="0 0 24 24" width="512" height="512"><path d="M11.52,8.03h0c-2.11-2.11-6.14-.69-8.66,1.83-2.52,2.52-3.94,6.55-1.83,8.66,3.33,3.33,8.35,4.79,11.98,5.43,.2,.03,.39,.05,.59,.05,.89,0,1.76-.35,2.4-.99,.78-.78,1.13-1.9,.94-3-.64-3.63-2.1-8.65-5.43-11.98Zm-6.54,3.95c1.39-1.39,2.99-1.99,3.86-1.99,.26,0,.45,.05,.55,.16,.58,.58,1.09,1.23,1.54,1.92-1.08,.65-2.2,1.59-3.23,2.63-1.03,1.03-1.97,2.15-2.63,3.23-.69-.45-1.35-.96-1.92-1.54-.44-.44,.03-2.61,1.83-4.41Zm8.9,8.9c-.07,.07-.18,.14-.35,.11-1.04-.18-2.44-.49-3.93-.97,.47-.62,1.02-1.23,1.6-1.82s1.2-1.13,1.82-1.6c.48,1.49,.79,2.88,.97,3.93,.03,.17-.04,.29-.11,.35ZM24,4.7c0,4.05-2.08,8.02-3.82,10.63-.29,.43-.76,.67-1.25,.67-.29,0-.58-.08-.83-.25-.69-.46-.88-1.39-.42-2.08,.32-.49,.66-1.03,.99-1.61-.47-.05-.96-.08-1.45-.1-.43-.01-.8-.27-.99-.65-.57-1.13-1.25-2.22-2.05-3.23-.3-.38-.08-.95,.4-.99,.67-.06,1.36-.09,2.05-.09,1.4,0,2.8,.11,3.99,.39,.22-.89,.36-1.79,.36-2.69,0-.49-1.79-1.7-4.5-1.7-1.96,0-3.75,.74-4.35,1.46-.53,.63-1.48,.72-2.11,.19-.64-.53-.72-1.48-.19-2.11,1.27-1.52,3.94-2.54,6.65-2.54,3.69,0,7.5,1.76,7.5,4.7Z"/></svg>
