<?xml version="1.0" encoding="UTF-8"?>
<svg xmlns="http://www.w3.org/2000/svg" id="Layer_1" data-name="Layer 1" viewBox="0 0 24 24" width="512" height="512"><path d="m5,11v2h2.5c.828,0,1.5.672,1.5,1.5s-.672,1.5-1.5,1.5h-2.5v2.5c0,1.379,1.121,2.5,2.5,2.5.828,0,1.5.672,1.5,1.5s-.672,1.5-1.5,1.5c-3.032,0-5.5-2.468-5.5-5.5V4.95c-1.141-.232-2-1.24-2-2.45C0,1.119,1.119,0,2.5,0h17c1.381,0,2.5,1.119,2.5,2.5,0,1.209-.859,2.218-2,2.45v1.55c0,.828-.672,1.5-1.5,1.5s-1.5-.672-1.5-1.5v-1.5H5v3h2.5c.828,0,1.5.672,1.5,1.5s-.672,1.5-1.5,1.5h-2.5Zm19,6c0,3.859-3.141,7-7,7s-7-3.141-7-7,3.141-7,7-7,7,3.141,7,7Zm-11,0c0,.554.113,1.082.317,1.562l5.244-5.244c-.48-.204-1.008-.317-1.562-.317-2.206,0-4,1.794-4,4Zm8,0c0-.554-.113-1.082-.317-1.562l-5.244,5.244c.48.204,1.008.317,1.562.317,2.206,0,4-1.794,4-4Z"/></svg>
