<?xml version="1.0" encoding="UTF-8"?>
<svg xmlns="http://www.w3.org/2000/svg" id="Layer_1" data-name="Layer 1" viewBox="0 0 24 24">
  <path d="m16,22.5c0,.828-.671,1.5-1.5,1.5h-6c-3.033,0-5.5-2.468-5.5-5.5v-7c0-.828.671-1.5,1.5-1.5s1.5.672,1.5,1.5v7c0,1.379,1.122,2.5,2.5,2.5h6c.829,0,1.5.672,1.5,1.5Zm7.561,1.061c-.293.293-.677.439-1.061.439s-.768-.146-1.061-.439L.439,2.561C-.146,1.975-.146,1.025.439.439S1.975-.146,2.561.439l2.561,2.561h1.136c.619-1.746,2.287-3,4.243-3h3c1.956,0,3.624,1.254,4.243,3h3.757c.829,0,1.5.672,1.5,1.5s-.671,1.5-1.5,1.5h-.5v12.879l2.561,2.561c.586.586.586,1.535,0,2.121Zm-5.561-17.561h-9.879l9.879,9.879V6Zm2.987,12.866l.002.002c0-.009-.001-.01-.002-.002Z"/>
</svg>
