<?xml version="1.0" encoding="UTF-8"?>
<svg xmlns="http://www.w3.org/2000/svg" id="Layer_1" data-name="Layer 1" viewBox="0 0 24 24" width="512" height="512"><path d="M15.204,13.767l.245,.339,.317-.459c.472-.683,1.406-.85,2.087-.381,.681,.471,.852,1.406,.38,2.087l-1.275,1.844c-.353,.504-.888,.792-1.474,.797h-.016c-.579,0-1.112-.278-1.466-.765l-.267-.37-.02,.028c-.486,.673-1.423,.825-2.095,.339-.672-.484-.823-1.422-.339-2.094l.985-1.366c.704-.976,2.231-.976,2.936,0Zm-6.463,.251L.807,15.687c-.683,.125-.985,.935-.551,1.477l1.43,1.787-.532,1.72c-.416,1.344,.837,2.607,2.184,2.203l1.705-.511,1.793,1.434c.543,.434,1.352,.132,1.477-.552l1.67-7.987c.134-.734-.508-1.375-1.241-1.24Zm1.66-6.218l-2-1.5c-.664-.496-1.603-.362-2.101,.3-.497,.663-.362,1.603,.3,2.1l.4,.3-.4,.3c-.662,.497-.797,1.438-.3,2.1,.295,.393,.745,.6,1.201,.6,.313,0,.629-.098,.899-.3l2-1.5c.377-.284,.6-.728,.6-1.2s-.223-.917-.6-1.2Zm7.3-1.2c-.498-.663-1.437-.796-2.101-.3l-2,1.5c-.377,.284-.6,.728-.6,1.2s.223,.917,.6,1.2l2,1.5c.271,.202,.586,.3,.899,.3,.456,0,.906-.207,1.201-.6,.497-.663,.362-1.603-.3-2.1l-.4-.3,.4-.3c.662-.497,.797-1.438,.3-2.1ZM12,0C5.579,0,.313,5.021,.014,11.43c-.039,.828,.601,1.53,1.428,1.569,.024,0,.048,.001,.071,.001,.796,0,1.46-.626,1.497-1.43C3.235,6.765,7.184,3,12,3c4.963,0,9,4.038,9,9,0,4.816-3.765,8.765-8.57,8.99-.827,.039-1.467,.741-1.428,1.569,.037,.804,.701,1.43,1.497,1.43,.023,0,.047,0,.071-.001,6.409-.3,11.43-5.565,11.43-11.987C24,5.383,18.617,0,12,0Z"/></svg>
