<?xml version="1.0" encoding="UTF-8"?>
<svg xmlns="http://www.w3.org/2000/svg" id="Layer_1" data-name="Layer 1" viewBox="0 0 24 24" width="512" height="512"><path d="M17.566,14.451c.579,.588,.576,1.532-.01,2.114-.1,.1-2.488,2.436-5.557,2.436s-5.457-2.336-5.557-2.436c-.588-.583-.592-1.533-.008-2.121,.583-.588,1.534-.592,2.121-.008,.012,.011,1.626,1.564,3.443,1.564s3.432-1.554,3.448-1.569c.59-.575,1.539-.569,2.118,.02Zm-9.004-1.779c.277,.221,.608,.329,.937,.329,.44,0,.876-.193,1.172-.563,.518-.647,.413-1.591-.233-2.108l-2.5-2c-.649-.519-1.593-.411-2.108,.234-.518,.647-.413,1.591,.233,2.108l2.5,2Zm15.438-.671c0,6.617-5.383,12-12,12S0,18.617,0,12c0-1.836,.426-3.569,1.166-5.126L.017,1.185C-.052,.818,.089,.444,.383,.214,.677-.018,1.076-.065,1.414,.09L5.446,1.961C7.332,.725,9.582,0,12,0s4.668,.725,6.554,1.96L22.586,.09c.338-.155,.737-.108,1.03,.123,.294,.23,.435,.604,.366,.972l-1.149,5.689c.74,1.557,1.166,3.291,1.166,5.127Zm-3,0c0-4.962-4.037-9-9-9S3,7.038,3,12s4.037,9,9,9,9-4.038,9-9Zm-4.938-3.672l-2.5,2c-.646,.518-.751,1.461-.233,2.108,.296,.371,.731,.563,1.172,.563,.328,0,.659-.107,.937-.329l2.5-2c.646-.518,.751-1.461,.233-2.108-.516-.646-1.458-.752-2.108-.234Z"/></svg>
