<?xml version="1.0" encoding="UTF-8"?>
<svg xmlns="http://www.w3.org/2000/svg" id="Layer_1" data-name="Layer 1" viewBox="0 0 24 24" width="512" height="512"><path d="m23.885,9.925L20.148.925c-.318-.766-1.196-1.128-1.96-.811-.765.318-1.128,1.196-.81,1.961l.289.695L5.528,7.837c-1.546.66-2.464,2.191-2.427,3.781l-2.208,1.021c-.752.348-1.08,1.239-.732,1.991.253.548.795.87,1.362.87.21,0,.425-.044.628-.139l2.143-.991c.37.363.811.653,1.306.853.486.196.995.295,1.502.295.53,0,1.058-.107,1.555-.319l2.069-.863-3.581,7.52c-.356.748-.039,1.643.709,1.999.749.354,1.643.039,2-.71l3.646-7.655,3.646,7.655c.257.54.795.855,1.355.855.216,0,.436-.047.644-.146.748-.356,1.065-1.251.709-1.999l-4.5-9.451,5.38-2.245.38.916c.24.577.798.925,1.386.925.192,0,.387-.036.575-.114.765-.318,1.128-1.196.81-1.961Zm-16.395,2.51c-.246.106-.518.108-.767.008-.249-.101-.442-.291-.546-.538-.213-.506.024-1.093.518-1.304l12.122-5.059.767,1.847-12.094,5.046Z"/></svg>
