<?xml version="1.0" encoding="UTF-8"?>
<svg xmlns="http://www.w3.org/2000/svg" id="Layer_1" data-name="Layer 1" viewBox="0 0 24 24" width="512" height="512"><path d="M16,2.5c0-1.38,1.12-2.5,2.5-2.5s2.5,1.12,2.5,2.5-1.12,2.5-2.5,2.5-2.5-1.12-2.5-2.5Zm3.5,3.5c-.83,0-1.5,.67-1.5,1.5s.67,1.5,1.5,1.5,1.5,.67,1.5,1.5v3c0,.83-.67,1.5-1.5,1.5h-1c-1.93,0-3.5,1.57-3.5,3.5v4c0,.83,.67,1.5,1.5,1.5s1.5-.67,1.5-1.5v-4c0-.28,.22-.5,.5-.5h.5v4.5c0,.83,.67,1.5,1.5,1.5s1.5-.67,1.5-1.5v-5.26c1.21-.81,2-2.18,2-3.74v-3c0-2.48-2.02-4.5-4.5-4.5Zm-1.41,6.09c.33-.33,.33-.86,0-1.19l-2.66-2.66c-.53-.53-1.43-.15-1.43,.59v1.16h-4v-1.16c0-.75-.91-1.12-1.43-.59l-2.66,2.66c-.33,.33-.33,.86,0,1.19l2.66,2.66c.53,.53,1.43,.15,1.43-.59v-1.16h4v1.16c0,.75,.91,1.12,1.43,.59l2.66-2.66ZM5.5,5c1.38,0,2.5-1.12,2.5-2.5S6.88,0,5.5,0,3,1.12,3,2.5s1.12,2.5,2.5,2.5Zm0,10h-1c-.83,0-1.5-.67-1.5-1.5v-3c0-.83,.67-1.5,1.5-1.5s1.5-.67,1.5-1.5-.67-1.5-1.5-1.5C2.02,6,0,8.02,0,10.5v3c0,1.56,.79,2.93,2,3.74v5.26c0,.83,.67,1.5,1.5,1.5s1.5-.67,1.5-1.5v-4.5h.5c.28,0,.5,.22,.5,.5v4c0,.83,.67,1.5,1.5,1.5s1.5-.67,1.5-1.5v-4c0-1.93-1.57-3.5-3.5-3.5Z"/></svg>
