<?xml version="1.0" encoding="UTF-8"?>
<svg xmlns="http://www.w3.org/2000/svg" id="Layer_1" data-name="Layer 1" viewBox="0 0 24 24" width="512" height="512"><path d="m24,12c0,6.778-5.647,12.26-12.483,11.99C5.353,23.747-.031,18.107,0,11.938.037,4.589,6.714-1.218,14.326.22c1.972.373,3.788,1.301,5.339,2.57,1.038.849,1.081,2.427.143,3.384l-6.737,6.875h0c-.272.277-.651.45-1.07.45-.828,0-1.5-.672-1.5-1.5,0-.409.164-.778.43-1.049h0s.01-.012.01-.012c0,0,0,0,0,0l2.582-2.635c-.138-.057-1.021-.304-1.521-.304-2.519,0-4.501,2.339-3.887,4.961.339,1.449,1.527,2.617,2.98,2.939,2.003.444,3.809-.626,4.544-2.278.161-.361.48-.627.854-.756,1.245-.43,2.425.845,1.871,2.04-.823,1.774-2.374,3.142-4.265,3.741-.445-.688-1.216-1.146-2.097-1.146s-1.652.458-2.097,1.146c-2.832-.896-4.903-3.521-4.903-6.646,0-1.165.304-2.253.811-3.219.804.175,1.675-.046,2.3-.67s.845-1.497.67-2.3c.966-.507,2.054-.811,3.219-.811,2,0,3.401.874,3.711,1.069l1.429-1.459c-1.499-1.046-3.279-1.61-5.141-1.61-1.607,0-3.103.445-4.41,1.187-.956-.553-2.196-.43-3.015.388s-.941,2.058-.388,3.015c-.742,1.307-1.187,2.803-1.187,4.41,0,4.132,2.801,7.616,6.602,8.669.294,1.054,1.251,1.831,2.398,1.831s2.104-.778,2.398-1.831c3.801-1.053,6.602-4.537,6.602-8.669,0-.93-.146-1.825-.411-2.669-.234-.743.174-1.582.987-1.857.817-.277,1.675.266,1.923,1.092.326,1.088.501,2.241.501,3.434Z"/></svg>
