<?xml version="1.0" encoding="UTF-8"?>
<svg xmlns="http://www.w3.org/2000/svg" id="Layer_1" data-name="Layer 1" viewBox="0 0 24 24" width="512" height="512"><path d="m18.5,0H5.5C2.467,0,0,2.468,0,5.5v9c0,3.032,2.467,5.5,5.5,5.5h1.241l3.598,3.03c.479.426,1.08.636,1.675.636.583,0,1.158-.201,1.606-.601l3.708-3.065h1.172c3.033,0,5.5-2.468,5.5-5.5V5.5c0-3.032-2.467-5.5-5.5-5.5Zm2.5,14.5c0,1.379-1.122,2.5-2.5,2.5h-1.711c-.349,0-.687.122-.956.344l-3.83,3.167-3.749-3.158c-.271-.228-.613-.353-.966-.353h-1.789c-1.378,0-2.5-1.121-2.5-2.5V5.5c0-1.379,1.122-2.5,2.5-2.5h13c1.378,0,2.5,1.121,2.5,2.5v9Zm-5.13-6.207c.63.63.184,1.707-.707,1.707h-1.663v4.5c0,.828-.671,1.5-1.5,1.5s-1.5-.672-1.5-1.5v-4.5h-1.663c-.891,0-1.337-1.077-.707-1.707l3.163-3.163c.391-.391,1.024-.391,1.414,0l3.163,3.163Z"/></svg>
