<?xml version="1.0" encoding="UTF-8"?>
<svg xmlns="http://www.w3.org/2000/svg" id="Layer_1" data-name="Layer 1" viewBox="0 0 24 24" width="512" height="512"><path d="M12,0C5.38,0,0,5.38,0,12s5.38,12,12,12,12-5.38,12-12S18.62,0,12,0Zm0,21c-4.96,0-9-4.04-9-9S7.04,3,12,3s9,4.04,9,9-4.04,9-9,9Zm3.75-9.39c.37,.68,.33,1.51-.1,2.16l-2.88,4.54c-.29,.45-.77,.7-1.27,.7-.27,0-.55-.08-.8-.23-.7-.44-.91-1.37-.46-2.07l2.03-3.2h-2.15c-.67,0-1.3-.32-1.7-.85-.4-.54-.52-1.24-.33-1.87,.04-.13,.1-.25,.17-.37l2.97-4.71c.44-.7,1.37-.91,2.07-.47,.7,.44,.91,1.37,.47,2.07l-2.02,3.2h2.15c.78,0,1.49,.42,1.85,1.11Z"/></svg>
