<?xml version="1.0" encoding="UTF-8"?>
<svg xmlns="http://www.w3.org/2000/svg" id="Layer_1" data-name="Layer 1" viewBox="0 0 24 24" width="512" height="512"><path d="m12,0C5.383,0,0,5.383,0,12s5.383,12,12,12,12-5.383,12-12S18.617,0,12,0Zm0,21c-4.962,0-9-4.038-9-9S7.038,3,12,3s9,4.038,9,9-4.037,9-9,9Zm3.838-10.552c.105-.339.162-.699.162-1.073,0-1.999-1.626-3.625-3.625-3.625h-1.875c-1.93,0-3.5,1.57-3.5,3.5v5.25c0,1.93,1.57,3.5,3.5,3.5h3.5c2.206,0,4-1.794,4-4,0-1.543-.879-2.885-2.162-3.552Zm-5.838-1.198c0-.276.224-.5.5-.5h1.875c.345,0,.625.28.625.625s-.28.625-.625.625h-2.375v-.75Zm4,5.75h-3.5c-.276,0-.5-.224-.5-.5v-1.5h4c.552,0,1,.449,1,1s-.448,1-1,1Z"/></svg>
