<?xml version="1.0" encoding="UTF-8"?>
<svg xmlns="http://www.w3.org/2000/svg" id="Layer_1" data-name="Layer 1" viewBox="0 0 24 24" width="512" height="512"><path d="M24,12v8.5c0,.828-.671,1.5-1.5,1.5s-1.5-.672-1.5-1.5V12c0-4.963-4.038-9-9-9S3,7.037,3,12v7.5c0,.828-.671,1.5-1.5,1.5s-1.5-.672-1.5-1.5v-7.5C0,5.383,5.383,0,12,0s12,5.383,12,12Zm-12.43,8.99c-1.526-.072-3.051-.524-4.296-1.274-.71-.429-1.632-.2-2.059,.51-.428,.709-.199,1.631,.51,2.059,1.664,1.004,3.689,1.608,5.704,1.702,.024,0,.048,.002,.071,.002,.796,0,1.459-.626,1.498-1.43,.039-.827-.601-1.53-1.428-1.568Zm-3.57-9.99c1.105,0,2-.895,2-2s-.895-2-2-2-2,.895-2,2,.895,2,2,2Zm8-4c-1.105,0-2,.895-2,2s.895,2,2,2,2-.895,2-2-.895-2-2-2Zm1.987,8.242c-.13-1.301-1.322-2.242-2.63-2.242h-.357v.5c0,.552-.448,1-1,1s-1-.448-1-1v-.5h-2v.5c0,.552-.448,1-1,1s-1-.448-1-1v-.5h-.357c-1.308,0-2.499,.941-2.63,2.242-.15,1.496,1.021,2.758,2.487,2.758h.5v-.5c0-.552,.448-1,1-1s1,.448,1,1v.5h2v-.5c0-.552,.448-1,1-1s1,.448,1,1v5c0,.828,.671,1.5,1.5,1.5s1.5-.672,1.5-1.5c0,0-.009-7.217-.013-7.258Z"/></svg>
