<?xml version="1.0" encoding="UTF-8"?>
<svg xmlns="http://www.w3.org/2000/svg" id="Layer_1" data-name="Layer 1" viewBox="0 0 24 24" width="512" height="512"><path d="m24,12c0,.828-.671,1.5-1.5,1.5h-9v9c0,.828-.671,1.5-1.5,1.5s-1.5-.672-1.5-1.5v-9H1.5c-.829,0-1.5-.672-1.5-1.5s.671-1.5,1.5-1.5h9V1.5c0-.828.671-1.5,1.5-1.5s1.5.672,1.5,1.5v9h9c.829,0,1.5.672,1.5,1.5Zm-1.5,4h-6c-.829,0-1.5.672-1.5,1.5s.671,1.5,1.5,1.5h6c.829,0,1.5-.672,1.5-1.5s-.671-1.5-1.5-1.5Zm0,5h-6c-.829,0-1.5.672-1.5,1.5s.671,1.5,1.5,1.5h6c.829,0,1.5-.672,1.5-1.5s-.671-1.5-1.5-1.5ZM1.5,6h6c.829,0,1.5-.672,1.5-1.5s-.671-1.5-1.5-1.5H1.5c-.829,0-1.5.672-1.5,1.5s.671,1.5,1.5,1.5Zm15,0h1.5v1.5c0,.828.671,1.5,1.5,1.5s1.5-.672,1.5-1.5v-1.5h1.5c.829,0,1.5-.672,1.5-1.5s-.671-1.5-1.5-1.5h-1.5v-1.5c0-.828-.671-1.5-1.5-1.5s-1.5.672-1.5,1.5v1.5h-1.5c-.829,0-1.5.672-1.5,1.5s.671,1.5,1.5,1.5Zm-8.939,10.439c-.586-.586-1.535-.586-2.121,0l-1.439,1.439-1.439-1.439c-.586-.586-1.535-.586-2.121,0s-.586,1.535,0,2.121l1.439,1.439-1.439,1.439c-.586.586-.586,1.535,0,2.121.293.293.677.439,1.061.439s.768-.146,1.061-.439l1.439-1.439,1.439,1.439c.293.293.677.439,1.061.439s.768-.146,1.061-.439c.586-.586.586-1.535,0-2.121l-1.439-1.439,1.439-1.439c.586-.586.586-1.535,0-2.121Z"/></svg>
