<?xml version="1.0" encoding="UTF-8"?>
<svg xmlns="http://www.w3.org/2000/svg" id="Layer_1" data-name="Layer 1" viewBox="0 0 24 24" width="512" height="512"><path d="M23,15.76v-2.26c0-2.48-2.02-4.5-4.5-4.5s-4.5,2.02-4.5,4.5v2.26c-.61,.55-1,1.35-1,2.24v3c0,1.66,1.34,3,3,3h5c1.66,0,3-1.34,3-3v-3c0-.89-.39-1.69-1-2.24Zm-4.5-3.76c.83,0,1.5,.67,1.5,1.5v1.5h-3v-1.5c0-.83,.67-1.5,1.5-1.5Zm0,9c-.83,0-1.5-.67-1.5-1.5s.67-1.5,1.5-1.5,1.5,.67,1.5,1.5-.67,1.5-1.5,1.5ZM11,6c-1.65,0-3,1.35-3,3,0,1,.47,2.01,.96,2.85-.29,.1-.6,.15-.96,.15-.61,0-1.24-.32-1.83-.84,1.2-2.13,1.83-4.78,1.83-7.16C8,1.79,6.21,0,4,0S0,1.79,0,4s.87,5.07,2.34,7.28c-.4,.37-.83,.64-1.29,.79-.79,.25-1.23,1.09-.98,1.88,.2,.64,.79,1.05,1.43,1.05,.15,0,.3-.02,.45-.07,.88-.28,1.67-.76,2.36-1.39,1.08,.9,2.33,1.46,3.68,1.46,3.71,0,6-3.11,6-6,0-1.65-1.35-3-3-3Zm-6.84,2.39c-.71-1.42-1.16-3.04-1.16-4.39,0-.55,.45-1,1-1s1,.45,1,1c0,1.43-.3,3.01-.84,4.39Zm10.3-3c-.6-.57-.62-1.52-.04-2.12,.57-.6,1.52-.62,2.12-.04,.63,.61,1.16,1.31,1.56,2.08,.38,.73,.1,1.64-.64,2.02-.22,.12-.46,.17-.69,.17-.54,0-1.06-.29-1.33-.81-.25-.48-.58-.92-.98-1.3Zm-3.46,13.11c0,.83-.67,1.5-1.5,1.5H1.5c-.83,0-1.5-.67-1.5-1.5s.67-1.5,1.5-1.5H9.5c.83,0,1.5,.67,1.5,1.5Z"/></svg>
