<?xml version="1.0" encoding="UTF-8"?>
<svg xmlns="http://www.w3.org/2000/svg" id="Layer_1" data-name="Layer 1" viewBox="0 0 24 24" width="512" height="512"><path d="m22.375,1.287c-.605-.818-1.536-1.287-2.554-1.287h-3.229C5.802,0,1.598,7.935,1.153,8.839c-.279.57-.17,1.255.273,1.709.445.454,1.126.58,1.703.313l.301-.139c1.737-.807,3.706-1.722,6.047-1.722h8.698l-1.259,4h-4.417c-.828,0-1.5.671-1.5,1.5s.672,1.5,1.5,1.5h3.473l-1.904,6.05c-.249.79.19,1.632.98,1.881.149.047.302.07.45.07.638,0,1.229-.41,1.431-1.05l5.93-18.844c.297-.974.12-2.001-.485-2.819Zm-2.38,1.931l-.876,2.782h-9.642c-.85,0-1.65.089-2.405.236,2.021-1.673,5.095-3.236,9.521-3.236h3.229c.022,0,.089,0,.143.072s.034.137.031.146Z"/></svg>
