<?xml version="1.0" encoding="UTF-8"?>
<svg xmlns="http://www.w3.org/2000/svg" id="Layer_1" data-name="Layer 1" viewBox="0 0 24 24" width="512" height="512"><path d="m17.5,0H6.5C3.468,0,1,2.467,1,5.5v14c0,2.481,2.019,4.5,4.5,4.5h12c3.032,0,5.5-2.467,5.5-5.5V5.5c0-3.033-2.468-5.5-5.5-5.5ZM6.5,3h11c1.379,0,2.5,1.122,2.5,2.5v9.5H5.5c-.526,0-1.031.091-1.5.257V5.5c0-1.378,1.121-2.5,2.5-2.5Zm11,18H5.5c-.827,0-1.5-.673-1.5-1.5s.673-1.5,1.5-1.5h14.5v.5c0,1.378-1.121,2.5-2.5,2.5Zm-5.899-15.981c-2.078.202-3.601,2.07-3.601,4.158v1.822c0,.552.448,1,1,1h1v1c0,.552.448,1,1,1h2c.552,0,1-.448,1-1v-1h1c.552,0,1-.448,1-1v-2c0-2.337-2.014-4.212-4.399-3.981Zm-1.353,5.231c-.69,0-1.25-.56-1.25-1.25s.56-1.25,1.25-1.25,1.25.56,1.25,1.25-.56,1.25-1.25,1.25Zm3.492,0c-.69,0-1.25-.56-1.25-1.25s.56-1.25,1.25-1.25,1.25.56,1.25,1.25-.56,1.25-1.25,1.25Z"/></svg>
