<?xml version="1.0" encoding="UTF-8"?>
<svg xmlns="http://www.w3.org/2000/svg" id="Layer_1" data-name="Layer 1" viewBox="0 0 24 24" width="512" height="512"><path d="M10.884,15.42c.319,.765-.042,1.643-.807,1.962-1.87,.78-3.078,2.592-3.078,4.618v.5c0,.829-.671,1.5-1.5,1.5s-1.5-.671-1.5-1.5v-.5c0-3.24,1.932-6.139,4.922-7.386,.766-.317,1.644,.042,1.962,.807Zm12.676,8.14c-.293,.293-.677,.439-1.061,.439s-.768-.146-1.061-.439L.439,2.561C-.146,1.975-.146,1.025,.439,.439,1.025-.146,1.975-.146,2.561,.439l3.728,3.728C7.065,1.753,9.331,0,12,0c3.309,0,6,2.691,6,6,0,2.669-1.753,4.935-4.168,5.711l9.728,9.728c.586,.585,.586,1.536,0,2.121ZM9.084,6.963l1.954,1.954c.119-.005,.759,.083,.962,.083,1.654,0,3-1.346,3-3s-1.346-3-3-3-3,1.346-3,3c0,.204,.089,.844,.084,.963Z"/></svg>
