<?xml version="1.0" encoding="UTF-8"?>
<svg xmlns="http://www.w3.org/2000/svg" id="Layer_1" data-name="Layer 1" viewBox="0 0 24 24" width="512" height="512"><path d="m17,14.5v2c0,.829-.672,1.5-1.5,1.5s-1.5-.671-1.5-1.5v-2c0-.276-.225-.5-.5-.5h-1.5v1.597c0,.863-1.043,1.295-1.653.685l-3.063-3.063c-.378-.378-.378-.991,0-1.369l3.063-3.063c.61-.61,1.653-.178,1.653.685v1.53h1.5c1.93,0,3.5,1.57,3.5,3.5Zm6-10c0,.829-.672,1.5-1.5,1.5h-.5v12.5c0,3.033-2.468,5.5-5.5,5.5h-7c-3.032,0-5.5-2.467-5.5-5.5V6h-.5c-.828,0-1.5-.671-1.5-1.5s.672-1.5,1.5-1.5h3.757c.619-1.746,2.287-3,4.243-3h3c1.956,0,3.624,1.254,4.243,3h3.757c.828,0,1.5.671,1.5,1.5Zm-5,1.5H6v12.5c0,1.378,1.121,2.5,2.5,2.5h7c1.379,0,2.5-1.122,2.5-2.5V6Z"/></svg>
