<?xml version="1.0" encoding="UTF-8"?>
<svg xmlns="http://www.w3.org/2000/svg" id="Layer_1" data-name="Layer 1" viewBox="0 0 24 24" width="512" height="512"><path d="M22,9.5c0-.828-.671-1.5-1.5-1.5h-1.5v-3.5c0-2.481-2.019-4.5-4.5-4.5h-5c-2.481,0-4.5,2.019-4.5,4.5v3.5h-1.5c-.829,0-1.5,.672-1.5,1.5s.671,1.5,1.5,1.5h.447c-.613,1.237-.947,2.607-.947,4,0,4.963,4.038,9,9,9s9-4.037,9-9c0-1.393-.334-2.763-.947-4h.447c.829,0,1.5-.672,1.5-1.5ZM8,4.5c0-.827,.673-1.5,1.5-1.5h5c.827,0,1.5,.673,1.5,1.5v3.5H8v-3.5Zm4,16.5c-3.309,0-6-2.691-6-6,0-2.577,1.433-3.913,1.478-4h9.044c.045,.087,1.478,1.692,1.478,4,0,3.309-2.691,6-6,6Zm-2-6.5c0,.828-.672,1.5-1.5,1.5s-1.5-.672-1.5-1.5,.672-1.5,1.5-1.5,1.5,.672,1.5,1.5Zm7,0c0,.828-.672,1.5-1.5,1.5s-1.5-.672-1.5-1.5,.672-1.5,1.5-1.5,1.5,.672,1.5,1.5Zm-3.5,1.995c0,.398-.192,1.818-.71,2.958-.339,.747-1.248,.75-1.581,0-.517-1.166-.71-2.56-.71-2.958,0-.826,.672-1.495,1.5-1.495s1.5,.669,1.5,1.495Z"/></svg>
