<?xml version="1.0" encoding="UTF-8"?>
<svg xmlns="http://www.w3.org/2000/svg" id="Layer_1" data-name="Layer 1" viewBox="0 0 24 24" width="512" height="512"><path d="M10.5,1.5c0-.83,.67-1.5,1.5-1.5s1.5,.67,1.5,1.5-.67,1.5-1.5,1.5-1.5-.67-1.5-1.5Zm6.5,1.5c.83,0,1.5-.67,1.5-1.5s-.67-1.5-1.5-1.5-1.5,.67-1.5,1.5,.67,1.5,1.5,1.5ZM22,0c-.83,0-1.5,.67-1.5,1.5s.67,1.5,1.5,1.5,1.5-.67,1.5-1.5-.67-1.5-1.5-1.5ZM7,3c.83,0,1.5-.67,1.5-1.5s-.67-1.5-1.5-1.5-1.5,.67-1.5,1.5,.67,1.5,1.5,1.5ZM2,0C1.17,0,.5,.67,.5,1.5s.67,1.5,1.5,1.5,1.5-.67,1.5-1.5-.67-1.5-1.5-1.5Zm14.96,16.42l-3.46,3.33V6.5c0-.83-.67-1.5-1.5-1.5s-1.5,.67-1.5,1.5v13.25l-3.46-3.33c-.6-.58-1.55-.56-2.12,.04-.57,.6-.56,1.55,.04,2.12l4.56,4.39c.66,.66,1.54,1.03,2.48,1.03s1.81-.36,2.45-1.01l4.59-4.41c.6-.57,.62-1.52,.04-2.12-.57-.6-1.52-.62-2.12-.04Z"/></svg>
