<?xml version="1.0" encoding="UTF-8"?>
<svg xmlns="http://www.w3.org/2000/svg" id="Layer_1" data-name="Layer 1" viewBox="0 0 24 24" width="512" height="512"><path d="M20,0H7.5C4.416,0,2,3.514,2,8v9.5c0,.462-.441,.628-.656,.781-.835,.594-1.344,1.537-1.344,2.565,0,1.738,1.415,3.153,3.153,3.153H13.5c3.032,0,5.5-2.468,5.5-5.5v-2.5h1c2.209,0,4-3.582,4-8S22.209,0,20,0Zm-4,18.5c0,1.379-1.121,2.5-2.5,2.5H3.153c-.085,0-.153-.068-.153-.153,0-.068,.087-.134,.169-.167,1.471-.588,1.973-2.083,1.831-3.281V8c0-2.861,1.32-5,2.5-5h9.378c-.549,1.37-.878,3.108-.878,5v10.5Zm4-7c-.552,0-1-1.567-1-3.5s.448-3.5,1-3.5,1,1.567,1,3.5-.448,3.5-1,3.5Z"/></svg>
