<?xml version="1.0" encoding="UTF-8"?>
<svg xmlns="http://www.w3.org/2000/svg" id="Layer_1" data-name="Layer 1" viewBox="0 0 24 24" width="512" height="512"><path d="M16.5,24h-6c-2.481,0-4.5-2.019-4.5-4.5v-1.4l-3.814-3.957c-1.599-1.663-1.566-4.334,.071-5.957l3.743-3.711v-.216c0-1.302,.585-2.512,1.605-3.321C8.627,.128,9.939-.165,11.206,.133l7.55,1.771c2.499,.586,4.244,2.789,4.244,5.355v2.893c0,1.087-.205,2.149-.608,3.157l-1.392,3.479v2.711c0,2.481-2.019,4.5-4.5,4.5ZM6,8.7l-1.632,1.618c-.479,.476-.489,1.258-.021,1.745l4.233,4.391c.27,.279,.42,.653,.42,1.041v2.005c0,.827,.673,1.5,1.5,1.5h6c.827,0,1.5-.673,1.5-1.5v-3c0-.191,.036-.38,.107-.557l1.499-3.749c.261-.652,.394-1.339,.394-2.042v-2.893c0-1.167-.793-2.167-1.93-2.434l-7.55-1.771c-.369-.088-.752-.001-1.052,.235-.298,.236-.469,.59-.469,.97v6.241c0,.829-.672,1.5-1.5,1.5s-1.5-.671-1.5-1.5v-1.8Z"/></svg>
