<?xml version="1.0" encoding="UTF-8"?>
<svg xmlns="http://www.w3.org/2000/svg" id="Layer_1" data-name="Layer 1" viewBox="0 0 24 24" width="512" height="512"><path d="M12,0C5.383,0,0,5.383,0,12s5.383,12,12,12,12-5.383,12-12S18.617,0,12,0Zm0,21c-4.963,0-9-4.038-9-9S7.037,3,12,3s9,4.038,9,9-4.037,9-9,9Zm-4-7c-1.105,0-2-.895-2-2s.895-2,2-2,2,.895,2,2-.895,2-2,2Zm10-2c0,1.105-.895,2-2,2s-2-.895-2-2,.895-2,2-2,2,.895,2,2Zm-11.218-3.376c-.198,.248-.489,.376-.783,.376-.218,0-.438-.071-.622-.218-.433-.344-.503-.973-.159-1.405,.91-1.141,2.307-2.064,3.559-2.351,.536-.124,1.074,.212,1.198,.751s-.213,1.075-.751,1.198c-.812,.187-1.816,.864-2.441,1.649Zm11.841,.158c-.184,.147-.404,.218-.622,.218-.294,0-.585-.129-.783-.376-.625-.785-1.629-1.462-2.441-1.649-.538-.124-.875-.66-.751-1.198s.66-.878,1.198-.751c1.252,.287,2.648,1.21,3.559,2.351,.344,.432,.273,1.061-.159,1.405Zm-1.881,7.832c.801,.958-.15,2.366-1.335,1.974-.817-.271-1.832-.587-3.369-.588-1.537,0-2.552,.317-3.368,.588-1.185,.393-2.137-1.017-1.335-1.974,.995-1.188,2.503-2.613,4.703-2.613s3.711,1.426,4.704,2.614Z"/></svg>
