<?xml version="1.0" encoding="UTF-8"?>
<svg xmlns="http://www.w3.org/2000/svg" id="Layer_1" data-name="Layer 1" viewBox="0 0 24 24">
  <path d="m16.5,13.5c0,.828-.672,1.5-1.5,1.5h-1.5v1.5c0,.828-.672,1.5-1.5,1.5s-1.5-.672-1.5-1.5v-1.5h-1.5c-.828,0-1.5-.672-1.5-1.5s.672-1.5,1.5-1.5h1.5v-1.5c0-.828.672-1.5,1.5-1.5s1.5.672,1.5,1.5v1.5h1.5c.828,0,1.5.672,1.5,1.5Zm7.5-9c0,.828-.672,1.5-1.5,1.5h-.619l-1.08,12.957c-.236,2.828-2.644,5.043-5.481,5.043h-6.639c-2.838,0-5.245-2.215-5.481-5.043l-1.08-12.957h-.619c-.828,0-1.5-.672-1.5-1.5s.672-1.5,1.5-1.5h4.757c.619-1.746,2.287-3,4.243-3h3c1.956,0,3.624,1.254,4.243,3h4.757c.828,0,1.5.672,1.5,1.5Zm-5.131,1.5H5.131l1.059,12.707c.106,1.286,1.201,2.293,2.491,2.293h6.639c1.29,0,2.385-1.007,2.491-2.293l1.059-12.707Z"/>
</svg>
