<?xml version="1.0" encoding="UTF-8"?>
<svg xmlns="http://www.w3.org/2000/svg" id="Layer_1" data-name="Layer 1" viewBox="0 0 24 24" width="512" height="512"><path d="m5.5,18c.828,0,1.5-.672,1.5-1.5v-1.5h10v1.5c0,.828.672,1.5,1.5,1.5s1.5-.672,1.5-1.5V5.5c0-1.379,1.121-2.5,2.5-2.5.828,0,1.5-.672,1.5-1.5s-.672-1.5-1.5-1.5c-3.032,0-5.5,2.468-5.5,5.5v.5H7v-.5c0-1.379,1.121-2.5,2.5-2.5.828,0,1.5-.672,1.5-1.5s-.672-1.5-1.5-1.5c-3.032,0-5.5,2.468-5.5,5.5v11c0,.828.672,1.5,1.5,1.5Zm11.5-9v3H7v-3h10Zm6.798,12.346c.415.717.171,1.634-.546,2.05-.682.396-1.461.604-2.252.604-.983,0-1.977-.32-2.796-.903-.131-.092-.277-.093-.406,0-1.643,1.168-3.955,1.167-5.594,0-.131-.092-.277-.093-.406,0-1.643,1.168-3.955,1.167-5.594,0-.131-.092-.277-.093-.406,0-1.484,1.055-3.525,1.186-5.052.299-.716-.416-.959-1.334-.543-2.051.416-.716,1.334-.958,2.051-.543.529.308,1.265.233,1.806-.149,1.16-.827,2.723-.825,3.883,0,.621.441,1.492.442,2.117,0,1.16-.827,2.723-.825,3.883,0,.621.441,1.492.442,2.117,0,1.161-.827,2.724-.825,3.883,0,.541.384,1.267.459,1.806.147.715-.412,1.635-.172,2.05.546Z"/></svg>
