<?xml version="1.0" encoding="UTF-8"?>
<svg xmlns="http://www.w3.org/2000/svg" id="Layer_1" data-name="Layer 1" viewBox="0 0 24 24">
  <path d="m10.5,8c0-.552.672-1,1.5-1s1.5.448,1.5,1-.672,1-1.5,1-1.5-.448-1.5-1Zm12.215,6.562c1.49,1.37,1.666,3.765.4,5.45l-.741.988c-1.409,1.878-3.652,3-6,3H7.625c-2.348,0-4.591-1.122-6-3.001l-.74-.985c-1.266-1.688-1.09-4.083.401-5.453.226-.207.475-.38.737-.529l-1.224-1.631c-.641-.854-.911-1.908-.76-2.966.151-1.059.705-1.994,1.56-2.635,1.053-.789,2.37-.967,3.545-.617.123-.553.329-1.078.593-1.571-.998-1.079-.981-2.758.067-3.807,1.074-1.074,2.815-1.074,3.889,0,.153.153.262.306.347.458.622-.169,1.278-.264,1.958-.264.626,0,1.23.084,1.808.228.06-.097.115-.194.203-.293,1.003-1.141,2.74-1.253,3.881-.25,1.116.981,1.24,2.663.305,3.804.297.524.521,1.089.655,1.686,1.168-.343,2.49-.166,3.546.626.856.641,1.41,1.576,1.561,2.635.151,1.058-.119,2.111-.76,2.966l-1.223,1.63c.263.149.512.323.738.531ZM12,4c-2.206,0-4,1.57-4,3.5,0,1.115.667,3.5,4,3.5,3.205,0,4-2.256,4-3.5,0-1.93-1.794-3.5-4-3.5Zm-4.723,16.986c-.346-1.215-.973-2.08-.981-2.092l-1.496-1.994c-.395-.395-.766-.4-.8-.4-.176,0-.44.046-.684.27-.364.334-.377.981-.031,1.443l.74.986c.775,1.035,1.972,1.687,3.252,1.787Zm9.567-5.942c.376-.502.901-.892,1.494-1.162l2.462-3.283c.161-.213.228-.477.19-.741-.038-.265-.176-.498-.39-.658-.44-.33-1.07-.241-1.4.2l-1.267,1.534c-1.238,1.837-3.431,3.066-5.932,3.066-2.218,0-4.194-.966-5.477-2.464-.025-.027-1.694-2.098-1.694-2.098-.359-.478-.987-.566-1.429-.237-.214.16-.352.394-.39.658-.038.265.03.528.19.741l2.465,3.286c.597.275,1.133.678,1.535,1.214l1.5,2c.061.081,1.243,1.681,1.658,3.9h3.23c.31-2.526,1.354-3.765,1.784-4.176l1.473-1.78Zm3.84,1.727c-.29-.266-.608-.283-.775-.266-.286.026-.538.167-.709.396,0,0-1.729,2.074-1.815,2.141h0c.005,0-.523.539-.766,1.952,1.319-.073,2.559-.731,3.355-1.793l.741-.989c.346-.461.332-1.107-.031-1.44Z"/>
</svg>
