<?xml version="1.0" encoding="UTF-8"?>
<svg xmlns="http://www.w3.org/2000/svg" id="Layer_1" data-name="Layer 1" viewBox="0 0 24 24" width="512" height="512"><path d="m22.5,21h-.5v-11C22,4.486,17.514,0,12,0S2,4.486,2,10v11h-.5c-.829,0-1.5.672-1.5,1.5s.671,1.5,1.5,1.5h21c.829,0,1.5-.672,1.5-1.5s-.671-1.5-1.5-1.5ZM5,10c0-3.859,3.14-7,7-7s7,3.141,7,7v11H5v-11Zm11,0c0,.828-.671,1.5-1.5,1.5h-1v4c0,.828-.671,1.5-1.5,1.5s-1.5-.672-1.5-1.5v-4h-1c-.829,0-1.5-.672-1.5-1.5s.671-1.5,1.5-1.5h1v-1c0-.828.671-1.5,1.5-1.5s1.5.672,1.5,1.5v1h1c.829,0,1.5.672,1.5,1.5Z"/></svg>
