<?xml version="1.0" encoding="UTF-8"?>
<svg xmlns="http://www.w3.org/2000/svg" id="Layer_1" data-name="Layer 1" viewBox="0 0 24 24" width="512" height="512"><path d="m24,12c0,.828-.671,1.5-1.5,1.5H1.5c-.829,0-1.5-.672-1.5-1.5s.671-1.5,1.5-1.5h2.489c-1.176-1.127-1.894-2.707-1.894-4.404C2.095,2.734,4.83,0,8.191,0h7.809c3.361,0,6.095,2.734,6.095,6.096v.404c0,.828-.671,1.5-1.5,1.5s-1.5-.672-1.5-1.5v-.404c0-1.707-1.389-3.096-3.095-3.096h-7.809c-1.707,0-3.096,1.389-3.096,3.096,0,1.372.921,2.595,2.24,2.975l4.97,1.43h10.194c.829,0,1.5.672,1.5,1.5Zm-3.553,4.006c-.825.072-1.436.8-1.363,1.625.008.091.012.182.012.273,0,1.707-1.389,3.096-3.095,3.096h-7.809c-1.707,0-3.096-1.389-3.096-3.096v-.404c0-.828-.671-1.5-1.5-1.5s-1.5.672-1.5,1.5v.404c0,3.361,2.734,6.096,6.096,6.096h7.809c3.361,0,6.095-2.734,6.095-6.096,0-.18-.008-.358-.023-.535-.072-.825-.794-1.44-1.625-1.363Z"/></svg>
