<?xml version="1.0" encoding="UTF-8"?>
<svg xmlns="http://www.w3.org/2000/svg" id="Layer_1" data-name="Layer 1" viewBox="0 0 24 24" width="512" height="512"><path d="m12,0C5.383,0,0,5.383,0,12s5.383,12,12,12,12-5.383,12-12S18.617,0,12,0Zm0,21c-4.963,0-9-4.037-9-9S7.037,3,12,3s9,4.037,9,9-4.037,9-9,9Zm-1.5-9c0-.828.672-1.5,1.5-1.5s1.5.672,1.5,1.5-.672,1.5-1.5,1.5-1.5-.672-1.5-1.5Zm7.412,0h-1.528c-.479,0-.867-.345-.978-.811-.143-.601-.442-1.141-.851-1.577-.33-.352-.41-.868-.145-1.271l.843-1.281c.348-.528,1.081-.595,1.542-.162.392.368.747.786,1.055,1.255.557.846.904,1.768,1.058,2.707.098.6-.388,1.141-.996,1.141Zm-8.466-2.388c-.409.436-.707.976-.851,1.577-.111.466-.499.811-.978.811h-1.528c-.608,0-1.095-.541-.996-1.141.153-.939.501-1.861,1.058-2.707.308-.468.663-.887,1.055-1.255.461-.433,1.195-.366,1.542.162l.843,1.281c.265.403.185.919-.145,1.271Zm5.663,7.408c.318.514.12,1.208-.437,1.442-.822.345-1.723.539-2.671.539s-1.849-.194-2.671-.539c-.557-.234-.755-.928-.437-1.442l.791-1.278c.243-.393.727-.599,1.162-.443.361.129.749.201,1.154.201s.794-.072,1.154-.201c.435-.156.919.05,1.162.443l.791,1.278Z"/></svg>
