<?xml version="1.0" encoding="UTF-8"?>
<svg xmlns="http://www.w3.org/2000/svg" id="Layer_1" data-name="Layer 1" viewBox="0 0 24 24" width="512" height="512"><path d="m5.264,13.908c-.226-.797.238-1.626,1.035-1.852.795-.226,1.626.238,1.852,1.035.375,1.326,1.432,2.383,2.758,2.758.797.226,1.261,1.055,1.035,1.852-.187.661-.789,1.092-1.442,1.092-.135,0-.273-.019-.409-.057-2.321-.657-4.171-2.507-4.828-4.828Zm18.297,7.531c.586.585.586,1.536,0,2.121-.293.293-.677.439-1.061.439s-.768-.146-1.061-.439L.439,2.561C-.146,1.975-.146,1.025.439.439,1.025-.146,1.975-.146,2.561.439l3.277,3.277c1.189-2.231,3.519-3.716,6.162-3.716,3.86,0,7,3.14,7,7v5c0,1.353-.387,2.656-1.104,3.774l1.859,1.859c.807-1.217,1.245-2.645,1.245-4.134,0-.829.671-1.5,1.5-1.5s1.5.671,1.5,1.5c0,2.29-.742,4.475-2.097,6.282l1.657,1.657ZM8.137,6.016l7.541,7.541c.207-.488.322-1.014.322-1.557v-1h-1.5c-.829,0-1.5-.671-1.5-1.5s.671-1.5,1.5-1.5h1.5v-1c0-2.206-1.794-4-4-4-1.841,0-3.417,1.256-3.863,3.016Zm7.177,14.934c-.267.033-.538.05-.813.05h-3c-4.344,0-8.082-3.359-8.507-7.648-.082-.824-.82-1.418-1.641-1.344-.824.082-1.426.816-1.344,1.641.586,5.901,5.527,10.352,11.493,10.352h3c.397,0,.796-.025,1.187-.074.822-.103,1.405-.853,1.302-1.675-.102-.822-.847-1.403-1.675-1.302Z"/></svg>
