<?xml version="1.0" encoding="UTF-8"?>
<svg xmlns="http://www.w3.org/2000/svg" id="Layer_1" data-name="Layer 1" viewBox="0 0 24 24" width="512" height="512"><path d="m8.5,21h-4c-.827,0-1.5-.673-1.5-1.5s.673-1.5,1.5-1.5h3c.829,0,1.5-.672,1.5-1.5V3h7.5c1.378,0,2.5,1.122,2.5,2.5v2c0,.829.671,1.5,1.5,1.5s1.5-.671,1.5-1.5v-2c0-3.033-2.467-5.5-5.5-5.5H5.5C2.467,0,0,2.467,0,5.5v14c0,2.481,2.019,4.5,4.5,4.5h4c.829,0,1.5-.672,1.5-1.5s-.671-1.5-1.5-1.5ZM5.5,3h.5v12h-1.5c-.526,0-1.031.091-1.5.257V5.5c0-1.378,1.122-2.5,2.5-2.5Zm12,8c-3.59,0-6.5,2.91-6.5,6.5s2.91,6.5,6.5,6.5,6.5-2.91,6.5-6.5-2.91-6.5-6.5-6.5Zm3.063,6.999h-1.563v2.501c0,.828-.671,1.5-1.5,1.5s-1.5-.672-1.5-1.5v-2.501h-1.563c-.863,0-1.295-1.043-.685-1.653l3.063-3.063c.378-.378.991-.378,1.369,0l3.063,3.063c.61.61.178,1.653-.685,1.653Z"/></svg>
