<?xml version="1.0" encoding="UTF-8"?>
<svg xmlns="http://www.w3.org/2000/svg" id="Layer_1" data-name="Layer 1" viewBox="0 0 24 24" width="512" height="512"><path d="m20.682,2.061l-.742-.742c-.85-.85-1.98-1.318-3.182-1.318h-3.257c-2.864,0-5.224,2.201-5.477,5h-.523c-3.033,0-5.5,2.467-5.5,5.5v8c0,3.033,2.467,5.5,5.5,5.5h4c3.033,0,5.5-2.467,5.5-5.5v-.523c2.799-.254,5-2.613,5-5.477v-7.257c0-1.202-.468-2.332-1.318-3.182Zm-9.182,18.939h-4c-1.378,0-2.5-1.122-2.5-2.5v-8c0-1.378,1.122-2.5,2.5-2.5h.5v4.5c0,3.033,2.467,5.5,5.5,5.5h.5v.5c0,1.378-1.122,2.5-2.5,2.5Zm5-6h-3c-1.378,0-2.5-1.122-2.5-2.5v-7c0-1.378,1.122-2.5,2.5-2.5h2.5v1c0,1.105.895,2,2,2h1v6.5c0,1.378-1.122,2.5-2.5,2.5Zm1.5-5c0,.552-.448,1-1,1h-1v1c0,.552-.448,1-1,1s-1-.448-1-1v-1h-1c-.552,0-1-.448-1-1s.448-1,1-1h1v-1c0-.552.448-1,1-1s1,.448,1,1v1h1c.552,0,1,.448,1,1Z"/></svg>
