<?xml version="1.0" encoding="UTF-8"?>
<svg xmlns="http://www.w3.org/2000/svg" id="Layer_1" data-name="Layer 1" viewBox="0 0 24 24">
  <path d="m12,0C5.373,0,0,5.373,0,12s5.373,12,12,12,12-5.373,12-12S18.627,0,12,0Zm1.856,3.193c1.906.401,3.592,1.407,4.847,2.807h-6.558l1.711-2.807Zm-3.487-.044l-3.511,5.759-1.607-2.855c1.308-1.483,3.096-2.532,5.118-2.904ZM3,12c0-1.032.175-2.024.496-2.948l3.347,5.948h-3.329c-.333-.939-.515-1.948-.515-3Zm7.144,8.807c-1.906-.401-3.592-1.407-4.847-2.807h6.558l-1.711,2.807Zm.142-5.807l-1.742-3.095,1.771-2.905h3.372l1.824,3.003-1.827,2.997h-3.398Zm3.345,5.852l3.634-5.961,1.701,2.802c-1.324,1.617-3.199,2.767-5.335,3.16Zm3.566-11.852h3.288c.333.939.515,1.948.515,3,0,.911-.136,1.791-.389,2.62l-3.413-5.62Z"/>
</svg>
