<?xml version="1.0" encoding="UTF-8"?>
<svg xmlns="http://www.w3.org/2000/svg" id="Layer_1" data-name="Layer 1" viewBox="0 0 24 24" width="512" height="512"><path d="M11.5,11H2.5c-1.381,0-2.5,1.119-2.5,2.5v1c0,1.209,.859,2.218,2,2.45v2.05h-.5c-.829,0-1.5,.672-1.5,1.5s.671,1.5,1.5,1.5h.5v.5c0,.828,.671,1.5,1.5,1.5s1.5-.672,1.5-1.5v-.5h4v.5c0,.828,.671,1.5,1.5,1.5s1.5-.672,1.5-1.5v-.5h.5c.829,0,1.5-.672,1.5-1.5s-.671-1.5-1.5-1.5h-.5v-2.05c1.141-.232,2-1.24,2-2.45v-1c0-1.381-1.119-2.5-2.5-2.5Zm-6.5,8v-2h4v2H5Zm18.889-5.502c-.497,2.231-2.552,3.7-4.889,3.479v5.522c0,.828-.671,1.5-1.5,1.5s-1.5-.672-1.5-1.5v-5.64c0-.815,.347-1.595,.952-2.139,.618-.557,1.453-.826,2.291-.734,.841,.081,1.554-.401,1.718-1.141,.079-.354,.04-.69-.117-1-.195-.376-.668-1.286-.011-2.671,.113-.237,.168-.459,.168-.676,0-.489-.232-.933-.638-1.215-.879-.614-1.389-1.644-1.363-2.752,.005-.206-.035-.41-.121-.624-.168-.414-.528-.739-.939-.85-.293-.08-.583-.08-.879,0-.41,.11-.77,.436-.938,.85-.087,.214-.126,.418-.122,.622,.026,1.11-.483,2.14-1.361,2.753-.259,.181-.45,.43-.554,.72-.278,.781-1.138,1.187-1.917,.909-.78-.278-1.187-1.137-.909-1.917,.314-.882,.889-1.633,1.662-2.172,.073-.051,.082-.161,.08-.223-.015-.613,.1-1.225,.34-1.817,.521-1.288,1.621-2.269,2.942-2.623,.803-.213,1.631-.213,2.431,0,1.323,.354,2.423,1.335,2.944,2.623,.24,.593,.354,1.204,.339,1.819-.001,.06,.007,.17,.081,.222,1.202,.838,1.92,2.213,1.92,3.675,0,.663-.154,1.324-.458,1.964l-.017,.037c.468,.929,.594,1.966,.365,2.997Z"/></svg>
