<?xml version="1.0" encoding="UTF-8"?>
<svg xmlns="http://www.w3.org/2000/svg" id="Layer_1" data-name="Layer 1" viewBox="0 0 24 24">
  <path d="m11.112,16.491c.586.586.586,1.535,0,2.121l-3.777,3.776c-1.04,1.039-2.421,1.611-3.889,1.611h-1.946c-.829,0-1.5-.672-1.5-1.5v-1.946c0-1.469.572-2.85,1.611-3.889l3.88-3.88c.586-.586,1.535-.586,2.121,0s.586,1.535,0,2.121l-3.499,3.499,1.482,1.482,3.396-3.396c.586-.586,1.535-.586,2.121,0Zm12.448,7.069c-.293.293-.677.439-1.061.439s-.768-.146-1.061-.439L.439,2.561C-.146,1.975-.146,1.025.439.439S1.975-.146,2.561.439l7.638,7.638,6.892-6.892c.764-.765,1.78-1.186,2.862-1.186s2.098.421,2.862,1.186c1.578,1.578,1.578,4.146,0,5.725l-6.893,6.891,7.638,7.638c.586.586.586,1.535,0,2.121ZM19.212,3.307l-1.751,1.751,1.482,1.482,1.751-1.751c.408-.408.408-1.074,0-1.482-.396-.396-1.085-.396-1.481,0Zm-6.893,6.892l1.482,1.482,3.02-3.02-1.482-1.482-3.02,3.02Z"/>
</svg>
