<?xml version="1.0" encoding="UTF-8"?>
<svg xmlns="http://www.w3.org/2000/svg" id="Layer_1" data-name="Layer 1" viewBox="0 0 24 24" width="512" height="512"><path d="M22.032,10.22c-.761-1.102-1.032-1.869-1.032-2.22v-2.435C21,2.746,18.897,.396,16.109,.099c-.916-.098-1.581-.099-1.609-.099h-5c-.028,0-.693,0-1.609,.099C5.103,.396,3,2.746,3,5.565v2.435c0,.351-.271,1.118-1.032,2.219-.633,.917-.968,1.994-.968,3.115v5.166c0,3.033,2.468,5.5,5.5,5.5h11c3.032,0,5.5-2.467,5.5-5.5v-5.166c0-1.121-.335-2.198-.968-3.114Zm-10.032-2.433l-1.824-4.787h3.647l-1.824,4.787ZM4,18.5v-.5h2.5c.828,0,1.5-.671,1.5-1.5s-.672-1.5-1.5-1.5h-2.5v-1.666c0-.509,.15-.996,.437-1.409,1.037-1.502,1.563-2.822,1.563-3.925v-2.435c0-.882,.45-1.663,1.141-2.108l3.359,8.817v8.725H6.5c-1.379,0-2.5-1.122-2.5-2.5Zm13.5,2.5h-4V12.275l3.359-8.817c.691,.445,1.141,1.225,1.141,2.108v2.435c0,1.103,.526,2.423,1.563,3.925,.286,.413,.437,.9,.437,1.409v1.666h-2.5c-.828,0-1.5,.671-1.5,1.5s.672,1.5,1.5,1.5h2.5v.5c0,1.378-1.121,2.5-2.5,2.5Z"/></svg>
