<?xml version="1.0" encoding="UTF-8"?>
<svg xmlns="http://www.w3.org/2000/svg" id="Layer_1" data-name="Layer 1" viewBox="0 0 24 24" width="512" height="512"><path d="m.439,6.561c-.586-.585-.586-1.536,0-2.121l2-2c.43-.43,1.075-.558,1.635-.325.561.232.926.779.926,1.386v9c0,.829-.672,1.5-1.5,1.5s-1.5-.671-1.5-1.5v-5.585c-.527.186-1.139.067-1.561-.354Zm14.561,1.439v-4c0-2.206,1.794-4,4-4s4,1.794,4,4v4c0,2.206-1.794,4-4,4s-4-1.794-4-4Zm3,0c0,.551.448,1,1,1s1-.449,1-1v-4c0-.551-.448-1-1-1s-1,.449-1,1v4Zm-12,1v-4c0-2.206,1.794-4,4-4s4,1.794,4,4v4c0,2.206-1.794,4-4,4s-4-1.794-4-4Zm3,0c0,.551.448,1,1,1s1-.449,1-1v-4c0-.551-.448-1-1-1s-1,.449-1,1v4Zm14.974,5.219c-.154-.814-.947-1.349-1.754-1.193L1.22,17.026c-.814.155-1.349.94-1.193,1.754.137.719.766,1.22,1.472,1.22.094,0,.188-.009.282-.027l21-4c.814-.155,1.349-.94,1.193-1.754Zm-1.757,4.308l-13,2.5c-.813.157-1.347.943-1.189,1.756.138.718.766,1.217,1.471,1.217.094,0,.189-.009.285-.027l13-2.5c.813-.157,1.347-.943,1.189-1.756-.156-.813-.942-1.347-1.756-1.19Z"/></svg>
