<?xml version="1.0" encoding="UTF-8"?>
<svg xmlns="http://www.w3.org/2000/svg" id="Layer_1" data-name="Layer 1" viewBox="0 0 24 24" width="512" height="512"><path d="M19,1c0-.552,.447-1,1-1h3c.379,0,.725,.214,.895,.553,.169,.339,.133,.744-.095,1.047l-1.8,2.4h1c.553,0,1,.448,1,1s-.447,1-1,1h-3c-.379,0-.725-.214-.895-.553-.169-.339-.133-.744,.095-1.047l1.8-2.4h-1c-.553,0-1-.448-1-1Zm-6,3h1l-1.8,2.4c-.228,.303-.264,.708-.095,1.047,.17,.339,.516,.553,.895,.553h3c.553,0,1-.448,1-1s-.447-1-1-1h-1l1.8-2.4c.228-.303,.264-.708,.095-1.047-.17-.339-.516-.553-.895-.553h-3c-.553,0-1,.448-1,1s.447,1,1,1Zm-3,13c0,1.105,.895,2,2,2s2-.895,2-2-.895-2-2-2-2,.895-2,2Zm6.242-6.317c-.101,.154-.198,.242-.26,.285-.051-.046-.127-.131-.216-.271-.445-.699-1.373-.906-2.07-.462-.699,.444-.906,1.371-.463,2.07,.931,1.465,2.1,1.689,2.715,1.692h.015c1.066,0,2.111-.627,2.795-1.679,.451-.695,.254-1.624-.44-2.075-.695-.451-1.624-.255-2.075,.44Zm-5.925-.44c-.695-.451-1.624-.255-2.075,.44-.101,.154-.198,.242-.26,.285-.051-.046-.127-.131-.216-.271-.445-.699-1.373-.906-2.07-.462-.699,.444-.906,1.371-.463,2.07,.931,1.465,2.1,1.689,2.715,1.692h.015c1.066,0,2.111-.627,2.795-1.679,.451-.695,.254-1.624-.44-2.075Zm11.379-2.549c-.798,.226-1.261,1.055-1.035,1.852,.225,.794,.339,1.62,.339,2.455,0,4.962-4.037,9-9,9S3,16.962,3,12c0-4.01,2.691-7.572,6.545-8.662,.797-.226,1.261-1.055,1.035-1.852-.225-.798-1.056-1.261-1.852-1.035C3.589,1.905,0,6.654,0,12c0,6.617,5.383,12,12,12s12-5.383,12-12c0-1.111-.152-2.212-.452-3.272-.227-.798-1.062-1.258-1.852-1.035Z"/></svg>
