<?xml version="1.0" encoding="UTF-8"?>
<svg xmlns="http://www.w3.org/2000/svg" id="Layer_1" data-name="Layer 1" viewBox="0 0 24 24" width="512" height="512"><path d="M21,13.13V7.5c0-3.03-2.47-5.5-5.5-5.5h-7c-3.03,0-5.5,2.47-5.5,5.5v5.63c-1.72,.45-3,2.01-3,3.87v1c0,2.21,1.79,4,4,4H20c2.21,0,4-1.79,4-4v-1c0-1.86-1.28-3.43-3-3.87ZM6,7.5c0-1.38,1.12-2.5,2.5-2.5h7c1.38,0,2.5,1.12,2.5,2.5v9.5H6V7.5Zm2.44,4.94l1.44-1.44-1.44-1.44c-.59-.59-.59-1.54,0-2.12,.59-.59,1.54-.59,2.12,0l1.44,1.44,1.44-1.44c.59-.59,1.54-.59,2.12,0,.59,.59,.59,1.54,0,2.12l-1.44,1.44,1.44,1.44c.59,.59,.59,1.54,0,2.12-.29,.29-.68,.44-1.06,.44s-.77-.15-1.06-.44l-1.44-1.44-1.44,1.44c-.29,.29-.68,.44-1.06,.44s-.77-.15-1.06-.44c-.59-.59-.59-1.54,0-2.12Z"/></svg>
