<?xml version="1.0" encoding="UTF-8"?>
<svg xmlns="http://www.w3.org/2000/svg" id="Layer_1" data-name="Layer 1" viewBox="0 0 24 24" width="512" height="512"><path d="M17.5,11c-3.59,0-6.5,2.91-6.5,6.5s2.91,6.5,6.5,6.5,6.5-2.91,6.5-6.5-2.91-6.5-6.5-6.5Zm3.06,7.44c.59,.59,.59,1.54,0,2.12-.29,.29-.68,.44-1.06,.44s-.77-.15-1.06-.44l-.94-.94-.94,.94c-.29,.29-.68,.44-1.06,.44s-.77-.15-1.06-.44c-.59-.59-.59-1.54,0-2.12l.94-.94-.94-.94c-.59-.59-.59-1.54,0-2.12,.59-.59,1.54-.59,2.12,0l.94,.94,.94-.94c.59-.59,1.54-.59,2.12,0,.59,.59,.59,1.54,0,2.12l-.94,.94,.94,.94Zm-11.56,2.06c0,.83-.67,1.5-1.5,1.5h-2c-3.03,0-5.5-2.47-5.5-5.5V5.5C0,2.47,2.47,0,5.5,0H15.26c.93,0,1.83,.38,2.49,1.04l3.24,3.26c.65,.66,1.01,1.53,1.01,2.46v.73c0,.83-.67,1.5-1.5,1.5s-1.5-.67-1.5-1.5v-.73c0-.13-.05-.26-.14-.35l-3.24-3.27c-.09-.09-.22-.15-.35-.15h-.26v2.5c0,.83-.67,1.5-1.5,1.5H6.5c-.83,0-1.5-.67-1.5-1.5V3.05c-1.14,.23-2,1.24-2,2.45v11c0,1.38,1.12,2.5,2.5,2.5h2c.83,0,1.5,.67,1.5,1.5Zm.66-6.29c-.37,.87-1.58,.99-2.09,.2-.49-.74-.7-1.68-.49-2.67,.27-1.28,1.29-2.33,2.56-2.64,.62-.15,1.22-.13,1.76,.02,.9,.24,1.15,1.42,.45,2.04-.94,.84-1.69,1.88-2.19,3.05Z"/><path d="M17.5,11c-3.59,0-6.5,2.91-6.5,6.5s2.91,6.5,6.5,6.5,6.5-2.91,6.5-6.5-2.91-6.5-6.5-6.5Zm3.06,7.44c.59,.59,.59,1.54,0,2.12-.29,.29-.68,.44-1.06,.44s-.77-.15-1.06-.44l-.94-.94-.94,.94c-.29,.29-.68,.44-1.06,.44s-.77-.15-1.06-.44c-.59-.59-.59-1.54,0-2.12l.94-.94-.94-.94c-.59-.59-.59-1.54,0-2.12,.59-.59,1.54-.59,2.12,0l.94,.94,.94-.94c.59-.59,1.54-.59,2.12,0,.59,.59,.59,1.54,0,2.12l-.94,.94,.94,.94Zm-11.56,2.06c0,.83-.67,1.5-1.5,1.5h-2c-3.03,0-5.5-2.47-5.5-5.5V5.5C0,2.47,2.47,0,5.5,0H15.26c.93,0,1.83,.38,2.49,1.04l3.24,3.26c.65,.66,1.01,1.53,1.01,2.46v.73c0,.83-.67,1.5-1.5,1.5s-1.5-.67-1.5-1.5v-.73c0-.13-.05-.26-.14-.35l-3.24-3.27c-.09-.09-.22-.15-.35-.15h-.26v2.5c0,.83-.67,1.5-1.5,1.5H6.5c-.83,0-1.5-.67-1.5-1.5V3.05c-1.14,.23-2,1.24-2,2.45v11c0,1.38,1.12,2.5,2.5,2.5h2c.83,0,1.5,.67,1.5,1.5Zm.66-6.29c-.37,.87-1.58,.99-2.09,.2-.49-.74-.7-1.68-.49-2.67,.27-1.28,1.29-2.33,2.56-2.64,.62-.15,1.22-.13,1.76,.02,.9,.24,1.15,1.42,.45,2.04-.94,.84-1.69,1.88-2.19,3.05Z"/></svg>
