<?xml version="1.0" encoding="UTF-8"?>
<svg xmlns="http://www.w3.org/2000/svg" id="Layer_1" data-name="Layer 1" viewBox="0 0 24 24" width="512" height="512"><path d="M18.5,1H5.5C2.47,1,0,3.47,0,6.5v11c0,3.03,2.47,5.5,5.5,5.5h13c3.03,0,5.5-2.47,5.5-5.5V6.5c0-3.03-2.47-5.5-5.5-5.5Zm2.5,5.5V15h-2V4.05c1.14,.23,2,1.24,2,2.45ZM7,11.5h2v3.5h-2v-3.5Zm8,0h2v3.5h-2v-3.5Zm2-7.5v4.5h-2V4h2Zm-4,0V15h-2V4h2Zm-4,0v4.5h-2V4h2Zm-4,.05V15H3V6.5c0-1.21,.86-2.22,2-2.45Zm.5,15.95c-1.21,0-2.22-.86-2.45-2h7.95v2H5.5Zm13,0h-5.5v-2h7.95c-.23,1.14-1.24,2-2.45,2Z"/></svg>
