<?xml version="1.0" encoding="UTF-8"?>
<svg xmlns="http://www.w3.org/2000/svg" id="Layer_1" data-name="Layer 1" viewBox="0 0 24 24" width="512" height="512"><path d="m1.43,12.998c-.828-.038-1.467-.74-1.428-1.568C.302,5.021,5.572,0,12,0c2.967,0,5.796,1.1,7.97,3.03l1.323-1.323c.63-.63,1.707-.184,1.707.707v4.586c0,.552-.448,1-1,1h-4.586c-.891,0-1.337-1.077-.707-1.707l1.137-1.137c-1.612-1.375-3.679-2.156-5.844-2.156C7.177,3,3.224,6.765,2.999,11.57c-.038.804-.701,1.43-1.498,1.43-.023,0-.047,0-.071-.002Zm21.141-1.996c-.834-.026-1.53.601-1.569,1.428-.225,4.806-4.179,8.57-9.001,8.57-2.165,0-4.232-.781-5.844-2.156l1.137-1.137c.63-.63.184-1.707-.707-1.707H2c-.552,0-1,.448-1,1v4.586c0,.891,1.077,1.337,1.707.707l1.323-1.323c2.174,1.93,5.003,3.03,7.97,3.03,6.428,0,11.698-5.021,11.999-11.43.039-.828-.601-1.53-1.428-1.568Zm-9.07-3.502c0-.828-.671-1.5-1.5-1.5s-1.5.672-1.5,1.5v5c0,.828.671,1.5,1.5,1.5s1.5-.672,1.5-1.5v-5Zm-1.5,7.5c-.828,0-1.5.672-1.5,1.5s.672,1.5,1.5,1.5,1.5-.672,1.5-1.5-.672-1.5-1.5-1.5Z"/></svg>
