<?xml version="1.0" encoding="UTF-8"?>
<svg xmlns="http://www.w3.org/2000/svg" id="Layer_1" data-name="Layer 1" viewBox="0 0 24 24" width="512" height="512"><path d="M6,11c-.483,0-.946,.086-1.375,.244,1.543-5.195,5.959-7.896,13.375-8.212v2.469c0,.828,.671,1.5,1.5,1.5s1.5-.672,1.5-1.5V2.518c0-.673-.277-1.328-.761-1.798-.487-.474-1.111-.728-1.802-.705C8.045,.298,2.116,4.911,1.143,13.402c-.687,.446-1.143,1.219-1.143,2.098v6c0,1.379,1.122,2.5,2.5,2.5s2.5-1.121,2.5-2.5v-2.627c.32,.083,.655,.127,1,.127,2.206,0,4-1.794,4-4s-1.794-4-4-4Zm0,5.5c-.827,0-1.5-.672-1.5-1.5s.673-1.5,1.5-1.5,1.5,.672,1.5,1.5-.673,1.5-1.5,1.5Zm16.492,6.375c.043,.341-.092,.681-.358,.898-.181,.148-.406,.227-.634,.227-.106,0-.213-.017-.316-.052l-1.684-.562-1.684,.562c-.327,.11-.685,.042-.951-.175-.266-.218-.401-.558-.358-.898l.095-.753c.195-1.55,1.344-2.648,1.772-3.009-1.023-1.051-2.374-2.816-2.374-4.818s1.353-3.771,2.377-4.821c.616-.632,1.63-.632,2.246,0,1.024,1.05,2.377,2.818,2.377,4.821s-1.351,3.767-2.374,4.818c.428,.361,1.576,1.46,1.772,3.009l.095,.753Z"/></svg>
