<?xml version="1.0" encoding="UTF-8"?>
<svg xmlns="http://www.w3.org/2000/svg" id="Layer_1" data-name="Layer 1" viewBox="0 0 24 24" width="512" height="512"><path d="M18.5,10h-1.15l.62-6.21c.11-.96-.2-1.93-.84-2.66-.65-.72-1.57-1.14-2.54-1.14H3.41C2.44,.01,1.51,.43,.87,1.15,.22,1.88-.09,2.84,.02,3.79l1.55,15.43c.27,2.73,2.55,4.79,5.29,4.79h11.64c3.03,0,5.5-2.47,5.5-5.5v-3c0-3.03-2.47-5.5-5.5-5.5Zm2.45,5H11.55c.23-1.14,1.24-2,2.45-2h4.5c1.21,0,2.22,.86,2.45,2ZM3.1,3.15c.06-.06,.15-.14,.31-.14H14.59c.15-.01,.25,.06,.3,.12s.12,.17,.1,.34l-.15,1.53H3.16l-.15-1.53c-.02-.15,.05-.25,.1-.32Zm1.45,15.76l-1.1-10.91H14.54l-.2,2h-.34c-3.03,0-5.5,2.47-5.5,5.5v3c0,.9,.22,1.75,.61,2.5h-2.24c-1.2,0-2.19-.9-2.31-2.09Zm13.94,2.09h-4.5c-1.38,0-2.5-1.12-2.5-2.5v-.5h2.05l2.62,1.75c.25,.17,.54,.25,.83,.25s.58-.08,.83-.25l2.62-1.75h.55v.5c0,1.38-1.12,2.5-2.5,2.5Z"/></svg>
