<?xml version="1.0" encoding="UTF-8"?>
<svg xmlns="http://www.w3.org/2000/svg" id="Layer_1" data-name="Layer 1" viewBox="0 0 24 24" width="512" height="512"><path d="m2,3c0-1.657,1.343-3,3-3s3,1.343,3,3-1.343,3-3,3-3-1.343-3-3Zm5,8c0,1.657,1.343,3,3,3s3-1.343,3-3-1.343-3-3-3-3,1.343-3,3Zm8-5c1.657,0,3-1.343,3-3s-1.343-3-3-3-3,1.343-3,3,1.343,3,3,3Zm-9.047,2.126c-.207-.802-1.022-1.292-1.827-1.078C1.735,7.663,0,9.956,0,12.5c0,.828.671,1.5,1.5,1.5s1.5-.672,1.5-1.5c0-1.177.806-2.272,1.874-2.548.802-.206,1.285-1.024,1.079-1.826Zm11.047,4.374c0,.828.671,1.5,1.5,1.5s1.5-.672,1.5-1.5c0-2.544-1.735-4.837-4.126-5.452-.802-.214-1.62.275-1.827,1.078-.207.802.276,1.62,1.079,1.826,1.068.275,1.874,1.371,1.874,2.548Zm5.5,5.5h-1.5v-1.5c0-.828-.671-1.5-1.5-1.5s-1.5.672-1.5,1.5v1.5h-1.5c-.829,0-1.5.672-1.5,1.5s.671,1.5,1.5,1.5h1.5v1.5c0,.828.671,1.5,1.5,1.5s1.5-.672,1.5-1.5v-1.5h1.5c.829,0,1.5-.672,1.5-1.5s-.671-1.5-1.5-1.5Zm-10.55-2.703c-.626-.197-1.282-.297-1.95-.297-3.309,0-6,2.468-6,5.5,0,.828.671,1.5,1.5,1.5s1.5-.672,1.5-1.5c0-1.379,1.346-2.5,3-2.5.362,0,.715.054,1.05.158.793.252,1.632-.19,1.881-.981.248-.79-.191-1.632-.981-1.88Z"/></svg>
