<?xml version="1.0" encoding="UTF-8"?>
<svg xmlns="http://www.w3.org/2000/svg" id="Layer_1" data-name="Layer 1" viewBox="0 0 24 24">
  <path d="m20.831,8.505c-.472-.354-.96-.719-1.172-.952-.202-.355-.251-1.745-.28-2.575-.072-2.1-.148-4.271-1.885-4.85-1.469-.492-2.871.469-4.232,1.394-.959.652-2.045,1.39-2.925,1.486-.772.082-1.841-.391-2.888-.849-1.726-.755-3.68-1.609-5.35-.36C-.01,3.382,1.144,5.909,1.906,7.581c.441.965.94,2.06.851,2.716-.118.862-.623,1.5-1.208,2.238-.727.915-1.549,1.953-1.549,3.465,0,2.886,2.849,3.101,4.55,3.229,1.097.083,2.23.168,3.07.603.922.477,1.433,1.142,1.974,1.845.796,1.035,1.786,2.323,3.906,2.323s2.801-2.365,3.398-4.452c.192-.673.515-1.799.72-2.049.245-.229,1.287-.58,1.978-.812,1.962-.661,4.404-1.482,4.404-3.687,0-2.121-1.831-3.493-3.169-4.495Zm-2.192,5.339c-1.319.444-2.564.863-3.269,1.67-.65.746-.993,1.942-1.356,3.209-.198.695-.516,1.802-.788,2.256-.401-.071-.65-.346-1.254-1.13-.649-.845-1.458-1.896-2.971-2.681-1.384-.717-2.96-.835-4.226-.931-.586-.044-1.444-.109-1.775-.244.003-.443.344-.896.899-1.595.713-.899,1.601-2.019,1.83-3.695.207-1.517-.484-3.032-1.094-4.368-.31-.678-.828-1.814-.735-2.136.265-.203,1.672.413,2.346.708,1.341.587,2.863,1.252,4.417,1.083,1.622-.178,3.037-1.139,4.285-1.987.39-.265.915-.623,1.309-.833.077.546.105,1.361.124,1.912.062,1.76.119,3.422.996,4.412.451.509,1.036.947,1.655,1.411.769.576,1.8,1.349,1.949,1.952-.394.33-1.646.751-2.343.986Z"/>
</svg>
