<?xml version="1.0" encoding="UTF-8"?>
<svg xmlns="http://www.w3.org/2000/svg" id="Layer_1" data-name="Layer 1" viewBox="0 0 24 24" width="512" height="512"><path d="m23.561,21.439l-2.25-2.25c3.738-4.316,3.568-10.868-.532-14.967-.586-.586-1.535-.586-2.121,0-.586.585-.586,1.536,0,2.121,2.93,2.93,3.107,7.585.532,10.725l-1.922-1.922c.863-.778,1.415-1.893,1.415-3.146,0-1.792-1.113-3.318-2.682-3.943V1.5c0-.448-.2-.872-.545-1.157-.347-.285-.801-.404-1.239-.316-2.895.559-5.721,2.272-7.564,4.503L2.561.439C1.975-.146,1.025-.146.439.439-.146,1.025-.146,1.975.439,2.561l21,21c.293.293.677.439,1.061.439s.768-.146,1.061-.439c.586-.585.586-1.536,0-2.121ZM13,3.511v7.368l-4.22-4.22c1.023-1.331,2.558-2.467,4.22-3.148Zm2.973,19.273c-.139.718-.767,1.216-1.471,1.216-.095,0-.19-.009-.286-.028-2.877-.555-5.765-2.276-7.573-4.473h-1.143c-3.032,0-5.5-2.467-5.5-5.5v-3.5c0-.464.059-.926.173-1.373.206-.802,1.021-1.286,1.826-1.08.803.206,1.286,1.023,1.08,1.826-.053.204-.079.415-.079.627v3.5c0,1.378,1.121,2.5,2.5,2.5h1.885c.49,0,.949.239,1.229.641,1.302,1.863,3.781,3.425,6.17,3.886.813.157,1.346.944,1.188,1.757Z"/></svg>
