<?xml version="1.0" encoding="UTF-8"?>
<svg xmlns="http://www.w3.org/2000/svg" id="Layer_1" data-name="Layer 1" viewBox="0 0 24 24" width="512" height="512"><path d="m19.5,5h-5.5v-.5c0-2.481-2.019-4.5-4.5-4.5h-5C2.019,0,0,2.019,0,4.5v15c0,2.481,2.019,4.5,4.5,4.5h15c2.481,0,4.5-2.019,4.5-4.5v-10c0-2.481-2.019-4.5-4.5-4.5ZM3,19.5V4.5c0-.827.673-1.5,1.5-1.5h5c.827,0,1.5.673,1.5,1.5v16.5h-6.5c-.827,0-1.5-.673-1.5-1.5Zm18,0c0,.827-.673,1.5-1.5,1.5h-5.5v-13h5.5c.827,0,1.5.673,1.5,1.5v10ZM7,3c.553,0,1,.448,1,1v1h1c.553,0,1,.448,1,1s-.447,1-1,1h-1v1c0,.552-.447,1-1,1s-1-.448-1-1v-1h-1c-.553,0-1-.448-1-1s.447-1,1-1h1v-1c0-.552.447-1,1-1Zm7,8c0-.552.447-1,1-1h1v-1c0-.552.447-1,1-1s1,.448,1,1v1h1c.553,0,1,.448,1,1s-.447,1-1,1h-1v1c0,.552-.447,1-1,1s-1-.448-1-1v-1h-1c-.553,0-1-.448-1-1Zm-7,3c-.828,0-1.5-.672-1.5-1.5s.672-1.5,1.5-1.5,1.5.672,1.5,1.5-.672,1.5-1.5,1.5Zm0,5c-.828,0-1.5-.672-1.5-1.5s.672-1.5,1.5-1.5,1.5.672,1.5,1.5-.672,1.5-1.5,1.5Zm11.5-1.5c0,.828-.672,1.5-1.5,1.5s-1.5-.672-1.5-1.5.672-1.5,1.5-1.5,1.5.672,1.5,1.5Z"/></svg>
