<?xml version="1.0" encoding="UTF-8"?>
<svg xmlns="http://www.w3.org/2000/svg" id="Layer_1" data-name="Layer 1" viewBox="0 0 24 24" width="512" height="512"><path d="M18.5,24h-6c-3.03,0-5.5-2.47-5.5-5.5v-1.5h-1.5c-3.03,0-5.5-2.47-5.5-5.5V5.5C0,2.47,2.47,0,5.5,0h6c3.03,0,5.5,2.47,5.5,5.5v1.5h1.5c3.03,0,5.5,2.47,5.5,5.5v6c0,3.03-2.47,5.5-5.5,5.5ZM5.5,3c-1.38,0-2.5,1.12-2.5,2.5v6c0,1.38,1.12,2.5,2.5,2.5h3c.83,0,1.5,.67,1.5,1.5v3c0,1.38,1.12,2.5,2.5,2.5h6c1.38,0,2.5-1.12,2.5-2.5v-6c0-1.38-1.12-2.5-2.5-2.5h-3c-.83,0-1.5-.67-1.5-1.5v-3c0-1.38-1.12-2.5-2.5-2.5H5.5Zm4.81,8.29c.23-.41,.57-.75,.98-.98,.72-.4,.98-1.32,.58-2.04-.4-.72-1.31-.98-2.04-.58-.9,.5-1.64,1.24-2.15,2.15-.4,.72-.14,1.64,.58,2.04,.23,.13,.48,.19,.73,.19,.53,0,1.04-.28,1.31-.77Zm3.85,5.02c.9-.5,1.65-1.24,2.15-2.15,.4-.72,.14-1.64-.58-2.04-.73-.4-1.64-.14-2.04,.58-.23,.41-.57,.75-.98,.98-.72,.4-.99,1.31-.58,2.04,.27,.5,.79,.77,1.31,.77,.25,0,.5-.06,.73-.19Z"/></svg>
