<?xml version="1.0" encoding="UTF-8"?>
<svg xmlns="http://www.w3.org/2000/svg" id="Layer_1" data-name="Layer 1" viewBox="0 0 24 24" width="512" height="512"><path d="M11,15.2c0-1.215,.895-2.2,2-2.2s2,.985,2,2.2c0-1.215,.895-2.2,2-2.2s2,.985,2,2.2c0,1.73-2.256,3.68-3.38,4.582-.362,.29-.879,.29-1.24,0-1.123-.902-3.38-2.852-3.38-4.582Zm6.5-4.2c.828,0,1.5-.671,1.5-1.5V1.5c0-.829-.672-1.5-1.5-1.5s-1.5,.671-1.5,1.5V9.5c0,.829,.672,1.5,1.5,1.5Zm-5,0c.828,0,1.5-.671,1.5-1.5V1.5c0-.829-.672-1.5-1.5-1.5s-1.5,.671-1.5,1.5V9.5c0,.829,.672,1.5,1.5,1.5ZM22.5,2c-.828,0-1.5,.671-1.5,1.5v14c0,1.93-1.57,3.5-3.5,3.5h-6.155c-1.517,0-2.98-.635-4.016-1.742l-.45-.481c.058-.021,.115-.042,.173-.066,1.184-.491,1.948-1.635,1.948-2.917V3.5c0-.829-.672-1.5-1.5-1.5s-1.5,.671-1.5,1.5V15.794c0,.039,0,.104-.097,.145-.101,.041-.144-.006-.167-.029l-2.343-2.363c-.067-.067-.141-.128-.219-.182-.699-.478-1.815-.556-2.596,.225-.799,.799-.687,1.937-.164,2.646,.035,.047,.072,.092,.111,.134l4.61,4.937c1.602,1.711,3.864,2.693,6.208,2.693h6.155c3.584,0,6.5-2.916,6.5-6.5V3.5c0-.829-.672-1.5-1.5-1.5Z"/></svg>
