<?xml version="1.0" encoding="UTF-8"?>
<svg xmlns="http://www.w3.org/2000/svg" id="Layer_1" data-name="Layer 1" viewBox="0 0 24 24" width="512" height="512"><path d="M22.389,6.611c-.673-.673-1.498-1.126-2.389-1.378V3c0-1.654-1.346-3-3-3s-3,1.346-3,3v2h-4V3c0-1.654-1.346-3-3-3s-3,1.346-3,3v2.214C1.695,5.869,0,7.988,0,10.5v8c0,3.033,2.467,5.5,5.5,5.5s5.5-2.467,5.5-5.5v-4.5c0-.551,.449-1,1-1s1,.449,1,1v4.5c0,3.033,2.467,5.5,5.5,5.5s5.5-2.467,5.5-5.5V10.5c0-1.469-.572-2.85-1.611-3.889ZM5.5,21c-1.378,0-2.5-1.122-2.5-2.5s1.122-2.5,2.5-2.5,2.5,1.122,2.5,2.5-1.122,2.5-2.5,2.5Zm6.5-11c-2.077,0-3.77,1.598-3.962,3.625-.76-.397-1.622-.625-2.538-.625-.901,0-1.749,.222-2.5,.607v-3.107c0-1.378,1.122-2.5,2.5-2.5h13.001c.667,0,1.295,.26,1.767,.732s.732,1.1,.732,1.768v3.107c-.751-.385-1.599-.607-2.5-.607-.916,0-1.778,.228-2.538,.625-.192-2.028-1.885-3.625-3.962-3.625Zm6.5,11c-1.378,0-2.5-1.122-2.5-2.5s1.122-2.5,2.5-2.5,2.5,1.122,2.5,2.5-1.122,2.5-2.5,2.5Z"/></svg>
