<?xml version="1.0" encoding="UTF-8"?>
<svg xmlns="http://www.w3.org/2000/svg" id="Layer_1" data-name="Layer 1" viewBox="0 0 24 24" width="512" height="512"><path d="M16,9c0,1.1-.9,2-2,2-.25,0-2.51,0-2.51,0-.14,.19-.31,.35-.49,.49,0,0,0,0,0,0v6c0,.83-.67,1.5-1.5,1.5s-1.5-.67-1.5-1.5v-4.77c-.29,.17-.63,.27-1,.27-1.1,0-2-.9-2-2,0-.79,.46-1.46,1.12-1.79-.07-.23-.12-.46-.12-.71,0-1.3,1-2.36,2.26-2.48,.34-.61,.99-1.02,1.74-1.02,.79,0,1.46,.46,1.79,1.12,.23-.07,.46-.12,.71-.12,.86,0,1.61,.43,2.06,1.09,.83,.24,1.44,1,1.44,1.91Zm8,3.55c0,1.15-.8,2.36-2.28,2.45l-.15,1.19c-.31,2.45-2.22,4.36-4.59,4.74-.21,1.73-1.69,3.07-3.47,3.07H6.5c-1.93,0-3.5-1.57-3.5-3.5v-1.12c0-.71-.33-1.28-.61-1.64C.22,14.95-.51,11.43,.39,8.1,1.5,3.97,4.95,.85,9.18,.15c4.11-.68,8.2,.95,10.69,4.26,1.04,1.3,4.13,6.48,4.13,8.13Zm-3.22-.55c-.61-1.47-2.3-4.53-3.27-5.72-.01-.01-.02-.03-.03-.04-1.54-2.06-3.94-3.23-6.47-3.23-.45,0-.89,.04-1.34,.11-3.03,.5-5.59,2.82-6.38,5.76-.89,3.31,.54,5.82,1.47,7.02,.81,1.05,1.24,2.25,1.24,3.48v1.12c0,.28,.22,.5,.5,.5h7c.28,0,.5-.22,.5-.5v-1c0-.83,.67-1.5,1.5-1.5h.61c1.26,0,2.32-.94,2.48-2.19l.32-2.5c.09-.75,.73-1.31,1.49-1.31h.39Z"/></svg>
