<?xml version="1.0" encoding="UTF-8"?>
<svg xmlns="http://www.w3.org/2000/svg" id="Layer_1" data-name="Layer 1" viewBox="0 0 24 24" width="512" height="512"><path d="M16,21.5c0,.83-.67,1.5-1.5,1.5H6.5c-3.03,0-5.5-2.47-5.5-5.5V9.5c0-.83,.67-1.5,1.5-1.5s1.5,.67,1.5,1.5v8c0,1.38,1.12,2.5,2.5,2.5H14.5c.83,0,1.5,.67,1.5,1.5ZM7.5,13c-.83,0-1.5,.67-1.5,1.5v1c0,1.38,1.12,2.5,2.5,2.5h1c.83,0,1.5-.67,1.5-1.5s-.67-1.5-1.5-1.5h-.5v-.5c0-.83-.67-1.5-1.5-1.5Zm16.06,10.56c-.29,.29-.68,.44-1.06,.44s-.77-.15-1.06-.44L.44,2.56C-.15,1.98-.15,1.02,.44,.44,1.03-.15,1.97-.15,2.56,.44l1.26,1.26c.81-.45,1.73-.7,2.68-.7h11c3.03,0,5.5,2.47,5.5,5.5v11c0,.95-.24,1.87-.7,2.68l1.26,1.26c.59,.59,.59,1.54,0,2.12ZM6.15,4.03l1.97,1.97h1.88c.61,0,1.15,.37,1.39,.93s.1,1.21-.33,1.63l-.19,.19,4.13,4.13v-3.88h-.5c-.83,0-1.5-.67-1.5-1.5s.67-1.5,1.5-1.5h.5c1.65,0,3,1.35,3,3v6.5c0,.12,0,.24-.03,.35l2,2c.02-.12,.03-.23,.03-.35V6.5c0-1.38-1.12-2.5-2.5-2.5H6.5c-.12,0-.24,0-.35,.03Z"/></svg>
