<?xml version="1.0" encoding="UTF-8"?>
<svg xmlns="http://www.w3.org/2000/svg" id="Layer_1" data-name="Layer 1" viewBox="0 0 24 24" width="512" height="512"><path d="m18.5,0H5.5C2.467,0,0,2.468,0,5.5v9c0,3.032,2.467,5.5,5.5,5.5h1.241l3.598,3.03c.479.426,1.08.636,1.675.636.583,0,1.158-.201,1.606-.601l3.708-3.065h1.172c3.033,0,5.5-2.468,5.5-5.5V5.5c0-3.032-2.467-5.5-5.5-5.5ZM5.5,3h13c1.207,0,2.217.86,2.45,2H3.05c.232-1.14,1.242-2,2.45-2Zm13.096,7.601c-.744-.274-1.414-.574-1.414-.574-.593-.378-.855-.958-.769-1.562.093-.642.562-1.165,1.226-1.365,1.303-.393,2.381.493,2.425.531l.003.002c.26.219.293.606.075.866l-.005.005c-.218.26-.606.293-.866.075-.025-.02-.626-.49-1.276-.296-.29.087-.347.279-.358.357-.008.058-.013.203.128.299.015,0,.607.26,1.258.501,1.209.446,1.512,1.321,1.393,1.991-.158.889-1.007,1.535-2.017,1.535-.817,0-1.585-.329-2.106-.904l-.002-.002c-.228-.251-.21-.64.042-.868l.005-.005c.251-.228.64-.209.868.042l.002.002c.283.312.728.498,1.191.498.443,0,.755-.262.801-.516.061-.341-.446-.556-.604-.614Zm-6.22-.104c-.245.265-.664.265-.909,0l-1.274-1.38-.002,3.233c0,.341-.277.618-.618.618s-.618-.277-.618-.618v-4.463c0-.471.382-.852.852-.852.246,0,.48.106.642.292l1.473,1.686,1.473-1.686c.162-.185.396-.292.642-.292.471,0,.852.382.852.852v4.463c0,.341-.277.618-.618.618h-.003c-.341,0-.618-.277-.618-.618v-3.231l-1.273,1.379Zm-6.351.137c-.744-.274-1.414-.574-1.414-.574-.593-.378-.855-.958-.769-1.562.093-.642.562-1.165,1.226-1.365,1.303-.393,2.381.493,2.425.531l.003.002c.26.219.293.606.075.866l-.005.005c-.218.26-.606.293-.866.075-.025-.02-.626-.49-1.276-.296-.29.087-.347.279-.358.357-.008.058-.013.203.128.299.016,0,.607.26,1.258.501,1.209.446,1.512,1.321,1.393,1.991-.158.889-1.007,1.535-2.017,1.535-.817,0-1.585-.329-2.106-.904l-.002-.002c-.228-.251-.21-.64.042-.868l.005-.005c.251-.228.64-.209.868.042l.002.002c.283.312.728.498,1.191.498.443,0,.755-.262.801-.516.061-.341-.446-.556-.604-.614Zm12.475,6.366h-1.711c-.349,0-.687.122-.956.344l-3.83,3.167-3.749-3.158c-.271-.228-.613-.353-.966-.353h-1.789c-1.207,0-2.217-.86-2.45-2h17.899c-.232,1.14-1.242,2-2.45,2Z"/></svg>
