<?xml version="1.0" encoding="UTF-8"?>
<svg xmlns="http://www.w3.org/2000/svg" id="Layer_1" data-name="Layer 1" viewBox="0 0 24 24" width="512" height="512"><path d="m16,13c0,.828-.671,1.5-1.5,1.5h-1v1c0,.828-.671,1.5-1.5,1.5s-1.5-.672-1.5-1.5v-1h-1c-.829,0-1.5-.672-1.5-1.5s.671-1.5,1.5-1.5h1v-1c0-.828.671-1.5,1.5-1.5s1.5.672,1.5,1.5v1h1c.829,0,1.5.672,1.5,1.5Zm5-8.05v13.55c0,3.032-2.467,5.5-5.5,5.5h-7c-3.033,0-5.5-2.468-5.5-5.5V4.95c-1.141-.232-2-1.24-2-2.45C1,1.119,2.119,0,3.5,0h17c1.381,0,2.5,1.119,2.5,2.5,0,1.209-.859,2.218-2,2.45Zm-3,13.55V5H6v13.5c0,1.379,1.122,2.5,2.5,2.5h7c1.378,0,2.5-1.121,2.5-2.5Z"/></svg>
