<?xml version="1.0" encoding="UTF-8"?>
<svg xmlns="http://www.w3.org/2000/svg" id="Layer_1" data-name="Layer 1" viewBox="0 0 24 24" width="512" height="512"><path d="M18.5,3h-5.53c-.08,0-.15-.02-.22-.05l-3.16-1.58c-.48-.24-1.02-.37-1.56-.37h-2.53C2.47,1,0,3.47,0,6.5v11c0,3.03,2.47,5.5,5.5,5.5h13c3.03,0,5.5-2.47,5.5-5.5V8.5c0-3.03-2.47-5.5-5.5-5.5Zm2.5,14.5c0,1.38-1.12,2.5-2.5,2.5H5.5c-1.38,0-2.5-1.12-2.5-2.5V8H20.95c.03,.16,.05,.33,.05,.5v9Zm-5.44-4.94l-1.44,1.44,1.44,1.44c.59,.59,.59,1.54,0,2.12-.29,.29-.68,.44-1.06,.44s-.77-.15-1.06-.44l-1.44-1.44-1.44,1.44c-.29,.29-.68,.44-1.06,.44s-.77-.15-1.06-.44c-.59-.59-.59-1.54,0-2.12l1.44-1.44-1.44-1.44c-.59-.59-.59-1.54,0-2.12,.59-.59,1.54-.59,2.12,0l1.44,1.44,1.44-1.44c.59-.59,1.54-.59,2.12,0,.59,.59,.59,1.54,0,2.12Z"/></svg>
