<?xml version="1.0" encoding="UTF-8"?>
<svg xmlns="http://www.w3.org/2000/svg" id="Layer_1" data-name="Layer 1" viewBox="0 0 24 24" width="512" height="512"><path d="m20,9.5h-1c0-1.64-1.138-3.01-2.663-3.388l.106-.112c.248-.34.387-.744.387-1.172,0-.535-.208-1.037-.586-1.414l-2.829-2.83c-.78-.78-2.049-.778-2.828,0l-2.829,2.829c-.704.704-.766,1.804-.198,2.585h-2.192c-.419-1.37-.105-2.918.976-4L8.312.031c-.102-.016-.205-.031-.312-.031h-4c-1.103,0-2,.897-2,2v4.351c-1.178.564-2,1.758-2,3.149v9c0,3.033,2.467,5.5,5.5,5.5h8c2.327,0,4.316-1.454,5.118-3.5h1.382c2.206,0,4-1.794,4-4v-3c0-2.206-1.794-4-4-4Zm-6.5,11.5H5.5c-1.378,0-2.5-1.122-2.5-2.5v-9c0-.276.224-.5.5-.5h12c.276,0,.5.224.5.5v9c0,1.378-1.122,2.5-2.5,2.5Zm7.5-4.5c0,.551-.449,1-1,1h-1v-5h1c.551,0,1,.449,1,1v3Z"/></svg>
