<?xml version="1.0" encoding="UTF-8"?>
<svg xmlns="http://www.w3.org/2000/svg" id="Layer_1" data-name="Layer 1" viewBox="0 0 24 24" width="512" height="512"><path d="M14.37,22c-.43,0-.87-.08-1.28-.25-1.26-.52-2.08-1.73-2.08-3.1v-1.65H3.5c-1.93,0-3.5-1.57-3.5-3.5v-3c0-1.93,1.57-3.5,3.5-3.5h7.5v-1.64c0-1.37,.82-2.59,2.08-3.1,1.26-.52,2.7-.23,3.66,.73l6,5.97c1.68,1.68,1.68,4.4,0,6.08,0,0-6,5.97-6,5.97-.64,.64-1.5,.99-2.38,.99ZM3.5,10c-.28,0-.5,.22-.5,.5v3c0,.27,.23,.5,.5,.5H12.5c.83,0,1.5,.67,1.5,1.5v3.14c0,.15,.08,.27,.23,.33,.15,.06,.28,.04,.4-.08l6-5.97c.5-.5,.5-1.33,0-1.83l-6-5.97c-.12-.12-.25-.14-.4-.08-.15,.06-.22,.17-.23,.33v3.13c0,.83-.67,1.5-1.5,1.5H3.5Z"/></svg>
