<?xml version="1.0" encoding="UTF-8"?>
<svg xmlns="http://www.w3.org/2000/svg" id="Layer_1" data-name="Layer 1" viewBox="0 0 24 24" width="512" height="512"><path d="m12.823,8.883l-.294.235c-.315.251-.764.252-1.08.002l-.3-.237c-1.026-.812-1.732-1.684-2.099-2.592-.108-.268-.076-.572.085-.811.162-.239.431-.383.72-.383h2.132s2.131,0,2.131,0c.289,0,.559.144.72.383.161.239.193.543.085.811-.366.904-1.073,1.777-2.1,2.593Zm8.129,10.242c.186,1.236-.18,2.493-1.001,3.447-.834.968-2.043,1.523-3.319,1.523H7.368c-1.275,0-2.485-.556-3.318-1.523-.823-.956-1.188-2.213-1.002-3.452.382-2.542,1.704-4.899,3.936-7.025-2.232-2.125-3.554-4.482-3.936-7.025-.186-1.238.179-2.496,1.002-3.451C4.883.652,6.093.097,7.368.097h9.264c1.275,0,2.485.555,3.319,1.522.822.955,1.187,2.211,1.001,3.448-.379,2.535-1.702,4.894-3.94,7.029,2.238,2.136,3.562,4.494,3.94,7.03Zm-2.967.444c-.334-2.234-1.745-4.354-4.191-6.3-.358-.284-.566-.717-.566-1.174s.208-.89.566-1.174c2.447-1.946,3.857-4.065,4.191-6.299.076-.51-.16-.875-.308-1.046-.263-.306-.644-.481-1.045-.481H7.368c-.401,0-.782.176-1.045.481-.148.172-.385.537-.308,1.048.337,2.244,1.747,4.362,4.189,6.294.359.284.569.718.569,1.176s-.21.892-.569,1.176c-2.442,1.933-3.852,4.05-4.189,6.294-.077.512.16.876.309,1.048.263.306.644.481,1.045.481h9.264c.401,0,.782-.175,1.045-.48.148-.171.384-.536.308-1.045Z"/></svg>
