<?xml version="1.0" encoding="UTF-8"?>
<svg xmlns="http://www.w3.org/2000/svg" id="Layer_1" data-name="Layer 1" viewBox="0 0 24 24" width="512" height="512"><path d="M9.5,2.5c0-1.381,1.119-2.5,2.5-2.5s2.5,1.119,2.5,2.5-1.119,2.5-2.5,2.5-2.5-1.119-2.5-2.5Zm-1.5,9v-1.5c0-2.206,1.794-4,4-4s4,1.794,4,4v1.5c0,1.393-.819,2.599-2,3.162v2.838c0,.829-.672,1.5-1.5,1.5h-1c-.828,0-1.5-.671-1.5-1.5v-2.838c-1.181-.563-2-1.769-2-3.162Zm3,0c0,.276,.225,.5,.5,.5h1c.275,0,.5-.224,.5-.5v-1.5c0-.551-.448-1-1-1s-1,.449-1,1v1.5Zm7.865,3.545c-.806-.203-1.619,.286-1.82,1.09-.201,.803,.286,1.618,1.09,1.82,1.698,.426,2.497,.936,2.777,1.203-.67,.642-3.674,1.842-8.912,1.842s-8.242-1.2-8.912-1.842c.28-.268,1.079-.777,2.777-1.203,.804-.202,1.291-1.017,1.09-1.82-.202-.804-1.02-1.292-1.82-1.09-3.312,.832-5.135,2.293-5.135,4.114,0,3.344,6.027,4.841,12,4.841s12-1.497,12-4.841c0-1.821-1.823-3.283-5.135-4.114Z"/></svg>
