<?xml version="1.0" encoding="UTF-8"?>
<svg xmlns="http://www.w3.org/2000/svg" id="Layer_1" data-name="Layer 1" viewBox="0 0 24 24" width="512" height="512"><path d="M10,6.5c0-.83,.67-1.5,1.5-1.5s1.5,.67,1.5,1.5-.67,1.5-1.5,1.5-1.5-.67-1.5-1.5Zm14-1v5c0,3.03-2.47,5.5-5.5,5.5H10.5c-3.03,0-5.5-2.47-5.5-5.5V5.5C5,2.47,7.47,0,10.5,0h8c3.03,0,5.5,2.47,5.5,5.5ZM8,10.5c0,1,.59,1.86,1.43,2.26l4.28-4.28c.62-.62,1.64-.62,2.26,0l1.04,1.04c.62,.62,1.64,.62,2.26,0l1.72-1.72v-2.29c0-1.38-1.12-2.5-2.5-2.5H10.5c-1.38,0-2.5,1.12-2.5,2.5v5Zm9.55,7.52c-.8-.16-1.6,.36-1.76,1.18l-.02,.11c-.17,.57-.55,1.05-1.07,1.35-.54,.3-1.16,.38-1.75,.22l-8.25-2.26c-1.22-.34-1.95-1.61-1.61-2.84l.51-1.88c.22-.8-.26-1.62-1.06-1.84-.8-.22-1.62,.26-1.84,1.06l-.51,1.88c-.38,1.37-.2,2.8,.5,4.03,.7,1.23,1.84,2.12,3.21,2.49l8.25,2.26c.47,.13,.94,.19,1.41,.19,.91,0,1.81-.24,2.62-.7,1.23-.7,2.12-1.84,2.49-3.21,0-.03,.06-.27,.06-.27,.16-.81-.36-1.6-1.18-1.76Z"/></svg>
