<?xml version="1.0" encoding="UTF-8"?>
<svg xmlns="http://www.w3.org/2000/svg" id="Layer_1" data-name="Layer 1" viewBox="0 0 24 24" width="512" height="512"><path d="M12,0C5.383,0,0,5.383,0,12s5.383,12,12,12,12-5.383,12-12S18.617,0,12,0Zm0,21c-4.962,0-9-4.038-9-9S7.038,3,12,3s9,4.038,9,9-4.038,9-9,9Zm7-11c0,1.105-.895,2-2,2s-2-.895-2-2h-1c-.552,0-1-.448-1-1s.448-1,1-1h3c1.105,0,2,.895,2,2Zm-10,2c-1.105,0-2-.895-2-2h-1c-.552,0-1-.448-1-1s.448-1,1-1h3c1.105,0,2,.895,2,2s-.895,2-2,2Zm8.763,2.532c.447,.697,.245,1.625-.453,2.073-1.423,.913-2.914,1.396-4.31,1.396h-3.5c-.829,0-1.5-.671-1.5-1.5s.671-1.5,1.5-1.5h3.5c.821,0,1.751-.318,2.69-.921,.696-.447,1.625-.245,2.073,.453Z"/></svg>
