<?xml version="1.0" encoding="UTF-8"?>
<svg xmlns="http://www.w3.org/2000/svg" id="Layer_1" data-name="Layer 1" viewBox="0 0 24 24" width="512" height="512"><path d="M10.5,16H5.5c-3.03,0-5.5-2.47-5.5-5.5V5.5C0,2.47,2.47,0,5.5,0h5c3.03,0,5.5,2.47,5.5,5.5v5c0,3.03-2.47,5.5-5.5,5.5ZM5.5,3c-1.38,0-2.5,1.12-2.5,2.5v5c0,1.38,1.12,2.5,2.5,2.5h5c1.38,0,2.5-1.12,2.5-2.5V5.5c0-1.38-1.12-2.5-2.5-2.5H5.5Zm18.5,15.5v-5.13c0-2.51-1.7-4.7-4.13-5.33-.8-.2-1.62,.28-1.83,1.08-.21,.8,.28,1.62,1.08,1.83,1.1,.28,1.87,1.28,1.87,2.42v5.13c0,1.38-1.12,2.5-2.5,2.5h-5.13c-1.14,0-2.14-.77-2.42-1.87-.21-.8-1.02-1.28-1.83-1.08-.8,.21-1.29,1.02-1.08,1.83,.62,2.43,2.82,4.13,5.33,4.13h5.13c3.03,0,5.5-2.47,5.5-5.5Z"/></svg>
