<?xml version="1.0" encoding="UTF-8"?>
<svg xmlns="http://www.w3.org/2000/svg" id="Layer_1" data-name="Layer 1" viewBox="0 0 24 24" width="512" height="512"><path d="m23.988,21.809c-.056-.436-.175-.76-.27-1.021-.122-.333-.218-.595-.218-1.287,0-.341.04-.438.145-.698.086-.21.203-.498.291-.89.284-1.262-.407-2.55-1.607-2.998-.347-.129-1.268-.472-1.766-.972-.355-.356-.611-.889-.79-1.347.461-.757.727-1.645.727-2.595,0-2.237-1.477-4.135-3.506-4.772.003-.076.006-.152.006-.228,0-2.757-2.243-5-5-5s-5,2.243-5,5c0,.076.002.152.006.228-2.029.637-3.506,2.535-3.506,4.772,0,.949.266,1.838.727,2.595-.18.458-.436.991-.79,1.347-.498.5-1.419.843-1.766.972-1.2.448-1.891,1.736-1.607,2.998.088.393.205.68.291.891.105.26.145.357.145.698,0,.692-.096.955-.218,1.287-.095.261-.214.586-.27,1.022-.047.366-.145,1.128.454,1.726.401.401.876.489,1.256.489.186,0,.349-.021.47-.037.435-.056.759-.175,1.02-.27.333-.122.595-.218,1.288-.218.335,0,.421.036.676.141.208.086.493.205.887.294,1.262.288,2.553-.405,2.996-1.609.287-.776.644-1.404,1.005-1.768.472-.474,1.064-.843,1.763-1.1.545.149,1.523.509,2.111,1.1.362.364.719.992,1.005,1.768.443,1.204,1.732,1.899,2.998,1.609.392-.089.677-.208.885-.294.254-.105.34-.141.676-.141.692,0,.955.096,1.288.218.261.095.585.214,1.02.27.121.016.284.037.47.037.38,0,.855-.088,1.256-.489.599-.598.501-1.36.454-1.727Zm-8.488-9.809c-1.103,0-2-.897-2-2s.897-2,2-2,2,.897,2,2-.897,2-2,2Zm-3.5-9c1.103,0,2,.897,2,2,0,.079-.005.157-.014.234-.755.241-1.433.656-1.986,1.199-.553-.543-1.231-.958-1.986-1.199-.009-.077-.014-.156-.014-.234,0-1.103.897-2,2-2Zm-3.5,5c1.103,0,2,.897,2,2s-.897,2-2,2-2-.897-2-2,.897-2,2-2Zm-.563,10.442c-.604.607-1.122,1.433-1.542,2.458-.023-.01-.961-.399-1.895-.399-.421,0-.772.027-1.07.07.043-.298.07-.649.07-1.07,0-.928-.391-1.889-.404-1.921.804-.322,1.733-.784,2.467-1.521.437-.439.773-.946,1.032-1.435.587.243,1.231.377,1.905.377.711,0,1.387-.149,2-.418v2.173c-.988.403-1.848.967-2.563,1.687Zm12.563,1.058c0,.421.027.772.07,1.07-.298-.043-.649-.07-1.07-.07-.934,0-1.872.39-1.895.399-.42-1.025-.938-1.85-1.542-2.458-.784-.788-1.773-1.287-2.563-1.589v-2.271c.613.269,1.289.418,2,.418.674,0,1.317-.134,1.905-.377.259.489.596.997,1.032,1.435.734.737,1.663,1.199,2.467,1.521-.013.032-.404.993-.404,1.921Z"/></svg>
