<?xml version="1.0" encoding="UTF-8"?>
<svg xmlns="http://www.w3.org/2000/svg" id="Layer_1" data-name="Layer 1" viewBox="0 0 24 24" width="512" height="512"><path d="M6.01,2.5c0-1.38,1.12-2.5,2.5-2.5s2.5,1.12,2.5,2.5-1.12,2.5-2.5,2.5-2.5-1.12-2.5-2.5Zm.41,15.56c-.79-.23-1.63,.23-1.86,1.02l-.87,3c-.23,.8,.23,1.63,1.02,1.86,.14,.04,.28,.06,.42,.06,.65,0,1.25-.43,1.44-1.08l.87-3c.23-.8-.23-1.63-1.02-1.86Zm17.39,3.71l-4.5-8c-.1-.18-.24-.34-.41-.46l-3.85-2.89-1.84-2.3c-1-1.5-2.17-2.12-3.99-2.12h-.96c-1.9,0-3.03,.62-4.01,2.17L1.25,12.67c-.46,.69-.27,1.62,.42,2.08,.69,.46,1.62,.27,2.08-.42l2.25-3.38v2.18c0,1.53,.77,2.94,2.05,3.77l3.25,2.11,1.83,4.1c.25,.56,.8,.89,1.37,.89,.2,0,.41-.04,.61-.13,.76-.34,1.1-1.23,.76-1.98l-2.01-4.5c-.12-.26-.31-.49-.55-.65l-2.31-1.5v-5.09l1.83,2.29c.08,.1,.17,.19,.27,.26l3.75,2.81,4.34,7.72c.28,.49,.78,.77,1.31,.77,.25,0,.5-.06,.73-.19,.72-.41,.98-1.32,.57-2.04Z"/></svg>
