<?xml version="1.0" encoding="UTF-8"?>
<svg xmlns="http://www.w3.org/2000/svg" id="Layer_1" data-name="Layer 1" viewBox="0 0 24 24" width="512" height="512"><path d="m17.958,2.269C16.029.549,13.552-.235,10.977.06,6.924.527,3.61,3.844,3.097,7.946c-.372,2.969.643,5.835,2.783,7.863.95.901,1.142,2.188,1.142,3.97v.153c0,2.243,1.805,4.067,4.022,4.067h1.956c2.218,0,4.021-1.825,4.021-4.067v-.524c0-1.669.15-2.708.942-3.415,1.943-1.734,3.058-4.233,3.058-6.857s-1.116-5.131-3.063-6.867Zm-1.992,11.486c-1.36,1.215-1.774,2.748-1.896,4.245h-4.136c-.172-1.576-.662-3.109-1.991-4.368-1.44-1.365-2.122-3.301-1.87-5.313.344-2.748,2.551-4.968,5.247-5.278.236-.027.472-.041.705-.041,1.454,0,2.831.523,3.937,1.508,1.309,1.167,2.06,2.854,2.06,4.628s-.749,3.454-2.056,4.619Zm-5.466-3.255v-4c0-.829.672-1.5,1.5-1.5s1.5.671,1.5,1.5v4c0,.829-.672,1.5-1.5,1.5s-1.5-.671-1.5-1.5Zm3,4c0,.828-.672,1.5-1.5,1.5s-1.5-.672-1.5-1.5.672-1.5,1.5-1.5,1.5.672,1.5,1.5Z"/></svg>
