<?xml version="1.0" encoding="UTF-8"?>
<svg xmlns="http://www.w3.org/2000/svg" id="Layer_1" data-name="Layer 1" viewBox="0 0 24 24" width="512" height="512"><path d="M8.1,24c-1.09,0-2.15-.36-3.02-1.02-.79-.61-1.37-1.45-1.67-2.39-.94-.3-1.77-.88-2.39-1.67-.86-1.11-1.2-2.56-.93-3.96,.37-1.93,1.91-3.47,3.83-3.85,1.08-.22,2.19-.07,3.16,.41l4.42-4.42c-.48-.97-.62-2.08-.41-3.16,.38-1.92,1.93-3.46,3.85-3.83,1.4-.27,2.85,.07,3.96,.93,.79,.62,1.37,1.45,1.67,2.39,.94,.3,1.77,.88,2.39,1.67,.86,1.11,1.2,2.56,.94,3.96-.37,1.93-1.91,3.48-3.83,3.86-1.08,.21-2.19,.07-3.16-.41l-4.42,4.42c.48,.97,.63,2.08,.41,3.16-.38,1.92-1.93,3.46-3.86,3.83-.31,.06-.63,.09-.94,.09Zm-3.19-10c-.13,0-.26,.01-.41,.04-.72,.14-1.33,.75-1.47,1.48-.11,.56,.02,1.12,.36,1.56,.34,.44,.84,.7,1.39,.74,.75,.05,1.35,.65,1.4,1.4,.03,.54,.3,1.05,.74,1.39,.44,.34,.99,.47,1.56,.36,.73-.14,1.33-.74,1.48-1.47,.12-.61-.05-1.08-.22-1.37-.59-1-.44-2.26,.35-3.05l4.98-4.98c.8-.8,2.05-.94,3.05-.35,.29,.17,.75,.34,1.37,.22,.72-.14,1.33-.75,1.47-1.48,.11-.56-.02-1.12-.36-1.56-.34-.43-.84-.7-1.39-.74-.75-.05-1.35-.65-1.4-1.4-.03-.54-.3-1.05-.74-1.39-.44-.34-1-.47-1.56-.36-.73,.14-1.33,.74-1.48,1.47-.12,.61,.05,1.08,.22,1.37,.59,1,.44,2.26-.36,3.05l-4.98,4.98c-.8,.8-2.05,.94-3.05,.35-.22-.13-.54-.26-.96-.26Z"/></svg>
