<?xml version="1.0" encoding="UTF-8"?>
<svg xmlns="http://www.w3.org/2000/svg" id="Layer_1" data-name="Layer 1" viewBox="0 0 24 24">
  <path d="m22.5,7h-.5v-.5c0-.829-.671-1.5-1.5-1.5s-1.5.671-1.5,1.5v1.25l-1.419,1.064c-.247-.631-.6-1.216-1.049-1.733.293-.636.468-1.336.468-2.081,0-2.757-2.243-5-5-5s-5,2.243-5,5c0,.745.174,1.445.468,2.081-.449.517-.802,1.102-1.049,1.733l-1.419-1.064v-1.25c0-.829-.671-1.5-1.5-1.5s-1.5.671-1.5,1.5v.5h-.5c-.829,0-1.5.671-1.5,1.5s.671,1.5,1.5,1.5h1.5l3.165,2.374c.044.185.095.367.156.546-.853,1.184-1.321,2.601-1.321,4.08,0,3.86,3.14,7,7,7s7-3.14,7-7c0-1.462-.482-2.878-1.328-4.06.063-.185.118-.374.163-.567l3.165-2.374h1.5c.829,0,1.5-.671,1.5-1.5s-.671-1.5-1.5-1.5Zm-13.5,4c0-.611.197-1.187.531-1.678.731.42,1.567.678,2.469.678s1.737-.259,2.469-.678c.335.491.531,1.068.531,1.678,0,1.654-1.346,3-3,3s-3-1.346-3-3Zm3-8c1.103,0,2,.897,2,2s-.897,2-2,2-2-.897-2-2,.897-2,2-2Zm0,18c-2.206,0-4-1.794-4-4,0-.461.089-.908.239-1.332,1.03.831,2.337,1.332,3.761,1.332s2.737-.503,3.768-1.337c.151.427.232.879.232,1.337,0,2.206-1.794,4-4,4Z"/>
</svg>
