<?xml version="1.0" encoding="UTF-8"?>
<svg xmlns="http://www.w3.org/2000/svg" id="Layer_1" data-name="Layer 1" viewBox="0 0 24 24" width="512" height="512"><path d="M19.29,17.17l2-5.34,2.27-2.27c.59-.59,.59-1.54,0-2.12-.59-.59-1.54-.59-2.12,0l-1.44,1.44-4.88-4.88,1.44-1.44c.59-.59,.59-1.54,0-2.12-.59-.59-1.54-.59-2.12,0l-2.27,2.27-5.34,2L2.56,.44C1.97-.15,1.03-.15,.44,.44-.15,1.02-.15,1.98,.44,2.56L21.44,23.56c.29,.29,.68,.44,1.06,.44s.77-.15,1.06-.44c.59-.59,.59-1.54,0-2.12l-4.27-4.27ZM12.62,5.74l5.63,5.63-1.3,3.46-7.8-7.8,3.46-1.3Zm1.82,13.61c.23,.8-.24,1.63-1.03,1.85l-9.4,2.67c-.29,.08-.58,.12-.87,.12-.82,0-1.62-.32-2.21-.92-.81-.81-1.12-2-.79-3.1L2.8,10.59c.23-.8,1.05-1.26,1.85-1.03,.8,.23,1.26,1.06,1.03,1.85l-1.9,6.68,2.22-2.22c0-.65,.3-1.23,.77-1.61,.5-.41,1.25-.33,1.7,.13l1.13,1.13c.46,.46,.54,1.2,.13,1.7-.38,.47-.96,.77-1.61,.77l-2.22,2.22,6.69-1.9c.79-.23,1.63,.24,1.85,1.03Z"/></svg>
