<?xml version="1.0" encoding="UTF-8"?>
<svg xmlns="http://www.w3.org/2000/svg" id="Layer_1" data-name="Layer 1" viewBox="0 0 24 24" width="512" height="512"><path d="m12.853.029c-3.481-.238-6.882,1.03-9.338,3.485C1.059,5.971-.211,9.375.029,12.853c.441,6.354,6.044,11.147,13.033,11.147h5.62c3.081,0,5.317-2.577,5.317-6.127v-5.551C24,5.863,19.104.463,12.853.029Zm8.147,17.844c0,1.899-.91,3.127-2.317,3.127h-5.62c-5.482,0-9.705-3.514-10.04-8.354-.181-2.612.771-5.167,2.614-7.009,1.694-1.694,3.99-2.636,6.379-2.636.209,0,.419.007.629.022,4.685.325,8.355,4.41,8.355,9.3v5.551Zm-4-5.873c0,.829-.671,1.5-1.5,1.5h-2v2c0,.829-.671,1.5-1.5,1.5s-1.5-.671-1.5-1.5v-2h-2c-.829,0-1.5-.671-1.5-1.5s.671-1.5,1.5-1.5h2v-2c0-.829.671-1.5,1.5-1.5s1.5.671,1.5,1.5v2h2c.829,0,1.5.671,1.5,1.5Z"/></svg>
