<?xml version="1.0" encoding="UTF-8"?>
<svg xmlns="http://www.w3.org/2000/svg" id="Layer_1" data-name="Layer 1" viewBox="0 0 24 24">
  <path d="m23.561,21.439l-4.43-4.43c1.819-1.856,2.87-4.378,2.87-7.009C22,4.486,17.514,0,12,0c-2.64,0-5.146,1.036-7.01,2.869L2.561.439C1.975-.146,1.025-.146.439.439-.146,1.025-.146,1.975.439,2.561l21,21c.293.293.677.439,1.061.439s.768-.146,1.061-.439c.586-.585.586-1.536,0-2.121ZM12,3c3.86,0,7,3.14,7,7,0,1.833-.729,3.59-1.991,4.888l-1.415-1.415c.887-.922,1.406-2.169,1.406-3.473,0-2.757-2.243-5-5-5-1.311,0-2.554.523-3.472,1.406l-1.416-1.416c1.303-1.272,3.049-1.99,4.888-1.99Zm-1.352,5.527c.364-.332.845-.527,1.352-.527,1.103,0,2,.897,2,2,0,.513-.19.99-.526,1.353l-2.826-2.826Zm6.377,13.456c.742.738.226,2.006-.82,2.015l-9.261.002c-1.307,0-2.282-1.232-1.834-2.404.424-1.108,1.134-2.086,2.045-2.851-2.935-1.632-4.98-4.698-5.155-8.245,0-.828.672-1.5,1.5-1.5s1.5.672,1.5,1.5c.228,3.386,2.889,6.099,6.239,6.459.551.059,1.055.327,1.449.717,1.021,1.01,4.329,4.299,4.338,4.307Z"/>
</svg>
