<?xml version="1.0" encoding="UTF-8"?>
<svg xmlns="http://www.w3.org/2000/svg" id="Layer_1" data-name="Layer 1" viewBox="0 0 24 24" width="512" height="512"><path d="M13.5,11c-2.48,0-4.5,2.02-4.5,4.5,0,1.56,.79,2.93,2,3.74v3.86c0,.8,.97,1.21,1.54,.64l.96-.96,.96,.96c.57,.57,1.54,.17,1.54-.64v-3.86c1.21-.81,2-2.18,2-3.74,0-2.48-2.02-4.5-4.5-4.5Zm0,3c.83,0,1.5,.67,1.5,1.5s-.67,1.5-1.5,1.5-1.5-.67-1.5-1.5,.67-1.5,1.5-1.5Zm8.5-5.8v10.34c0,1.34-.49,2.63-1.38,3.64-.55,.62-1.5,.68-2.12,.13-.62-.55-.68-1.5-.13-2.12,.4-.46,.62-1.04,.62-1.65V9.04h-4c-1.1,0-2-.9-2-2V3.04H7.5c-1.38,0-2.5,1.12-2.5,2.5v13c0,1.38,1.12,2.5,2.5,2.5,.83,0,1.5,.67,1.5,1.5s-.67,1.5-1.5,1.5c-3.03,0-5.5-2.47-5.5-5.5V5.54C2,2.51,4.47,.04,7.5,.04h6.34c1.47,0,2.85,.57,3.89,1.61l2.66,2.66c1.04,1.04,1.61,2.42,1.61,3.89Z"/></svg>
