<?xml version="1.0" encoding="UTF-8"?>
<svg xmlns="http://www.w3.org/2000/svg" id="Layer_1" data-name="Layer 1" viewBox="0 0 24 24" width="512" height="512"><path d="M24,19.5c0,1.93-1.57,3.5-3.5,3.5H3.5c-1.93,0-3.5-1.57-3.5-3.5,0-.83,.67-1.5,1.5-1.5s1.5,.67,1.5,1.5c0,.28,.22,.5,.5,.5H20.5c.28,0,.5-.22,.5-.5,0-.83,.67-1.5,1.5-1.5s1.5,.67,1.5,1.5ZM1.5,7c.83,0,1.5-.67,1.5-1.5s.67-1.5,1.5-1.5h15c.83,0,1.5,.67,1.5,1.5s.67,1.5,1.5,1.5,1.5-.67,1.5-1.5c0-2.48-2.02-4.5-4.5-4.5H4.5C2.02,1,0,3.02,0,5.5c0,.83,.67,1.5,1.5,1.5ZM0,16v-5.5c0-1.38,1.12-2.5,2.5-2.5h1.5c1.65,0,3,1.35,3,3s-1.35,3-3,3H2v2c0,.55-.45,1-1,1s-1-.45-1-1Zm2-4h2c.55,0,1-.45,1-1s-.45-1-1-1h-1.5c-.28,0-.5,.22-.5,.5v1.5Zm11.57,1.55l1.26,1.89c.31,.46,.18,1.08-.28,1.39-.17,.11-.36,.17-.55,.17-.32,0-.64-.16-.83-.45l-1.7-2.55h-1.46v2c0,.55-.45,1-1,1s-1-.45-1-1v-5.5c0-1.38,1.12-2.5,2.5-2.5h1.5c1.65,0,3,1.35,3,3,0,1.08-.57,2.03-1.43,2.55Zm-3.57-1.55h1.98s.02,0,.04,0c.55,0,.99-.45,.99-1s-.45-1-1-1h-1.5c-.28,0-.5,.22-.5,.5v1.5Zm14-.5v2c0,1.93-1.57,3.5-3.5,3.5s-3.5-1.57-3.5-3.5v-2c0-1.93,1.57-3.5,3.5-3.5s3.5,1.57,3.5,3.5Zm-2,0c0-.83-.67-1.5-1.5-1.5s-1.5,.67-1.5,1.5v2c0,.83,.67,1.5,1.5,1.5s1.5-.67,1.5-1.5v-2Z"/></svg>
