<?xml version="1.0" encoding="UTF-8"?>
<svg xmlns="http://www.w3.org/2000/svg" id="Layer_1" data-name="Layer 1" viewBox="0 0 24 24" width="512" height="512"><path d="m12,0C6.486,0,2,4.475,2,9.976c0,5.146,4.428,10.245,7.068,12.827.822.803,1.876,1.205,2.932,1.205s2.11-.402,2.932-1.206c2.64-2.582,7.068-7.681,7.068-12.827C22,4.475,17.514,0,12,0Zm.835,20.658c-.469.457-1.202.458-1.669,0-3.918-3.832-6.166-7.726-6.166-10.682,0-3.847,3.14-6.976,7-6.976s7,3.129,7,6.976c0,2.957-2.247,6.85-6.165,10.682Zm5.163-11.545c-.054.905-.27,2.152-1.002,2.883-.732.732-1.978.948-2.883,1.002-.628.037-1.148-.482-1.111-1.111.054-.905.27-2.152,1.002-2.883.732-.732,1.978-.948,2.883-1.002.628-.037,1.148.482,1.111,1.111Zm-7,2.775c.037.628-.482,1.148-1.111,1.111-.905-.054-2.152-.27-2.883-1.002-.732-.732-.948-1.978-1.002-2.883-.037-.628.482-1.148,1.111-1.111.905.054,2.152.27,2.883,1.002.732.732.948,1.978,1.002,2.883Z"/></svg>
