<?xml version="1.0" encoding="UTF-8"?>
<svg xmlns="http://www.w3.org/2000/svg" id="Layer_1" data-name="Layer 1" viewBox="0 0 24 24" width="512" height="512"><path d="M2.5,4.67c.63-.81,1.36-1.54,2.17-2.17,.66-.51,1.6-.39,2.1,.27,.51,.66,.39,1.6-.27,2.1-.61,.47-1.16,1.02-1.63,1.63-.29,.38-.74,.58-1.19,.58-.32,0-.64-.1-.92-.31-.66-.51-.78-1.45-.27-2.1Zm4.01,14.46c-.61-.47-1.16-1.02-1.63-1.63-.51-.66-1.45-.78-2.1-.27-.66,.51-.78,1.45-.27,2.1,.63,.81,1.36,1.54,2.17,2.17,.27,.21,.6,.31,.92,.31,.45,0,.89-.2,1.19-.58,.51-.66,.39-1.6-.27-2.1Zm-3.42-5.84c-.06-.42-.09-.86-.09-1.29s.03-.86,.09-1.29c.12-.82-.46-1.58-1.27-1.7-.83-.11-1.58,.46-1.7,1.27-.08,.56-.12,1.14-.12,1.71s.04,1.14,.12,1.71c.11,.75,.75,1.29,1.48,1.29,.07,0,.14,0,.21-.01,.82-.12,1.39-.88,1.27-1.7Zm18.14,3.94c-.66-.51-1.6-.39-2.1,.27-.47,.61-1.02,1.16-1.63,1.63-.66,.51-.78,1.45-.27,2.1,.3,.38,.74,.58,1.19,.58,.32,0,.64-.1,.92-.31,.81-.63,1.54-1.36,2.17-2.17,.51-.66,.39-1.6-.27-2.1Zm-7.95,3.68c-.42,.06-.86,.09-1.29,.09s-.86-.03-1.29-.09c-.83-.11-1.58,.46-1.7,1.27-.12,.82,.46,1.58,1.27,1.7,.56,.08,1.14,.12,1.71,.12s1.14-.04,1.71-.12c.82-.12,1.39-.88,1.27-1.7-.12-.82-.87-1.39-1.7-1.27ZM13.71,.12c-.56-.08-1.14-.12-1.71-.12s-1.14,.04-1.71,.12c-.82,.12-1.39,.88-1.27,1.7,.11,.75,.75,1.29,1.48,1.29,.07,0,1.07-.11,1.5-.11s1.43,.11,1.5,.11c.74,0,1.38-.54,1.48-1.29,.12-.82-.46-1.58-1.27-1.7Zm3.79,4.75c.61,.47,1.16,1.02,1.63,1.63,.3,.38,.74,.58,1.19,.58,.32,0,.64-.1,.92-.31,.66-.51,.78-1.45,.27-2.1-.63-.81-1.36-1.54-2.17-2.17-.66-.51-1.6-.39-2.1,.27-.51,.66-.39,1.6,.27,2.1Zm6.39,5.42c-.12-.82-.87-1.39-1.7-1.27-.82,.12-1.39,.88-1.27,1.7,.06,.42,.09,.86,.09,1.29s-.03,.86-.09,1.29c-.12,.82,.46,1.58,1.27,1.7,.07,0,.14,.01,.21,.01,.74,0,1.38-.54,1.48-1.29,.08-.56,.12-1.14,.12-1.71s-.04-1.14-.12-1.71Z"/></svg>
