<?xml version="1.0" encoding="UTF-8"?>
<svg xmlns="http://www.w3.org/2000/svg" id="Layer_1" data-name="Layer 1" viewBox="0 0 24 24" width="512" height="512"><path d="M24,12.95v2.86c0,4.51-3.67,8.18-8.18,8.18h-.95c-.63,0-1.2-.4-1.41-.99l-2.73-7.62L3.25,9c-.82,3.25,.58,5.71,1.51,6.9,.81,1.04,1.24,2.25,1.24,3.48v1.12c0,.28,.22,.5,.5,.5h3c.83,0,1.5,.67,1.5,1.5s-.67,1.5-1.5,1.5h-3c-1.93,0-3.5-1.57-3.5-3.5v-1.12c0-.71-.33-1.28-.61-1.64C.22,14.95-.51,11.43,.39,8.1,1.5,3.97,4.95,.85,9.18,.15c4.12-.68,8.22,.96,10.7,4.28,1.17,1.45,4.12,6.92,4.12,8.52Zm-3.88-2.12c-.78-1.62-1.89-3.67-2.6-4.55-1.85-2.46-4.84-3.66-7.85-3.17-2.03,.33-3.85,1.48-5.07,3.09l7.95,6.79h1.04c2.34,0,4.65-.77,6.53-2.17Zm.88,3.03c-2.06,1.29-4.45,2.03-6.87,2.13l1.79,5.01c2.81-.05,5.08-2.36,5.08-5.18v-1.96Z"/></svg>
