<?xml version="1.0" encoding="UTF-8"?>
<svg xmlns="http://www.w3.org/2000/svg" id="Layer_1" data-name="Layer 1" viewBox="0 0 24 24" width="512" height="512"><path d="M12,3C7.489,3,3.613,6.315,2.985,10.712c-.117,.82-.885,1.39-1.697,1.272-.82-.117-1.391-.877-1.273-1.697C.854,4.423,6.006,0,12,0s11.146,4.423,11.985,10.288c.117,.82-.453,1.58-1.273,1.697-.071,.01-.144,.015-.214,.015-.734,0-1.376-.54-1.483-1.288-.628-4.397-4.504-7.712-9.015-7.712Zm5,7c0-.401-.121-.773-.324-1.087l.876-.579c.461-.305,.587-.925,.282-1.386-.306-.461-.926-.587-1.386-.282l-2.381,1.575c-.632,.336-1.067,.993-1.067,1.759,0,1.105,.895,2,2,2s2-.895,2-2Zm-6,0c0-.638-.305-1.2-.77-1.567-.05-.05-2.69-1.775-2.69-1.775-.465-.299-1.083-.164-1.382,.302-.298,.465-.163,1.083,.302,1.382l.871,.559c-.208,.316-.331,.693-.331,1.099,0,1.105,.895,2,2,2s2-.895,2-2Zm-5.193,7.788l-3.285-.548c-.302-.05-.521-.309-.521-.616,0-.344,.28-.624,.624-.624h2.644c.356,0,.688,.192,.867,.5,.275,.478,.886,.642,1.366,.365,.478-.277,.642-.888,.364-1.366-.534-.925-1.53-1.499-2.598-1.499h-.268c0-.553-.447-1-1-1s-1,.448-1,1h0s-.376,0-.376,0c-1.447,0-2.624,1.177-2.624,2.624,0,1.288,.923,2.377,2.193,2.588l3.285,.548c.302,.05,.521,.309,.521,.616,0,.344-.28,.624-.624,.624H2.732c-.356,0-.688-.192-.867-.5-.275-.479-.887-.643-1.366-.365-.478,.277-.642,.888-.364,1.366,.534,.925,1.53,1.499,2.598,1.499h.268c0,.553,.447,1,1,1s1-.448,1-1h0s.376,0,.376,0c1.447,0,2.624-1.177,2.624-2.624,0-1.288-.923-2.377-2.193-2.588Zm5.193-3.788c-.553,0-1,.448-1,1v5c0,.552,.447,1,1,1s1-.448,1-1v-5c0-.552-.447-1-1-1Zm13,7c0,.552-.447,1-1,1h-1v1c0,.552-.447,1-1,1s-1-.448-1-1v-1h-2v1c0,.552-.447,1-1,1s-1-.448-1-1v-1h-1c-.553,0-1-.448-1-1s.447-1,1-1h1v-2h-1c-.553,0-1-.448-1-1s.447-1,1-1h1v-1c0-.552,.447-1,1-1s1,.448,1,1v1h2v-1c0-.552,.447-1,1-1s1,.448,1,1v1h1c.553,0,1,.448,1,1s-.447,1-1,1h-1v2h1c.553,0,1,.448,1,1Zm-4-1v-2h-2v2h2Zm-9,2c-.552,0-1,.448-1,1s.448,1,1,1,1-.448,1-1-.448-1-1-1Z"/></svg>
