<?xml version="1.0" encoding="UTF-8"?>
<svg xmlns="http://www.w3.org/2000/svg" id="Layer_1" data-name="Layer 1" viewBox="0 0 24 24" width="512" height="512"><path d="M7.98,16.54c0,.47-.41,.86-.89,.86h-.83s0-1.72,0-1.72h.84c.48,0,.89,.39,.89,.86Zm4.11-.86h-.84v3.5s.84,0,.84,0c.48,0,.89-.39,.89-.86v-1.78c0-.47-.41-.86-.89-.86Zm9.91-7.52v10.34c0,3.03-2.47,5.5-5.5,5.5H7.5c-3.03,0-5.5-2.47-5.5-5.5V5.5C2,2.47,4.47,0,7.5,0h6.34c1.47,0,2.85,.57,3.89,1.61l2.66,2.66c1.04,1.04,1.61,2.42,1.61,3.89Zm-12.77,8.38c0-1.16-.96-2.11-2.14-2.11h-1.09c-.55,0-1,.45-1,1v4.44c0,.35,.28,.62,.62,.62s.62-.28,.62-.62v-1.22h.84c1.18,0,2.14-.95,2.14-2.11Zm5,0c0-1.16-.96-2.11-2.14-2.11h-1.09c-.55,0-1,.45-1,1v4.44c0,.35,.28,.56,.62,.56s1.46,0,1.46,0c1.18,0,2.14-.95,2.14-2.11v-1.78Zm4.69-1.57c-.07-.27-.31-.47-.61-.47h-2.31c-.35,0-.62,.28-.62,.62v4.81c0,.35,.28,.62,.62,.62s.62-.28,.62-.62v-1.8h1.24c.35,0,.62-.28,.62-.62s-.28-.62-.62-.62h-1.24v-1.14h1.69c.29,0,.54-.2,.61-.47v-.3Zm.08-2.97v-3h-4c-1.1,0-2-.9-2-2V3H7.5c-1.38,0-2.5,1.12-2.5,2.5v6.5h14Z"/></svg>
