<?xml version="1.0" encoding="UTF-8"?>
<svg xmlns="http://www.w3.org/2000/svg" id="Layer_1" data-name="Layer 1" viewBox="0 0 24 24" width="512" height="512"><path d="M19,0c-2.41,0-4.43,1.72-4.9,4H5.5c-1.93,0-3.5,1.57-3.5,3.5v2c0,.83,.67,1.5,1.5,1.5s1.5-.67,1.5-1.5v-2c0-.28,.22-.5,.5-.5h1.5v2.5c0,.83,.67,1.5,1.5,1.5s1.5-.67,1.5-1.5v-2.5h4.1c.46,2.28,2.48,4,4.9,4,2.76,0,5-2.24,5-5v-1c0-2.76-2.24-5-5-5Zm2,6c0,1.1-.9,2-2,2s-2-.9-2-2v-1c0-1.1,.9-2,2-2s2,.9,2,2v1Zm-.5,7c-.83,0-1.5,.67-1.5,1.5v2c0,.28-.22,.5-.5,.5h-1.5v-2.5c0-.83-.67-1.5-1.5-1.5s-1.5,.67-1.5,1.5v2.5h-4.1c-.46-2.28-2.48-4-4.9-4-2.76,0-5,2.24-5,5v1c0,2.76,2.24,5,5,5,2.41,0,4.43-1.72,4.9-4h8.6c1.93,0,3.5-1.57,3.5-3.5v-2c0-.83-.67-1.5-1.5-1.5Zm-13.5,6c0,1.1-.9,2-2,2s-2-.9-2-2v-1c0-1.1,.9-2,2-2s2,.9,2,2v1Z"/></svg>
