<?xml version="1.0" encoding="UTF-8"?>
<svg xmlns="http://www.w3.org/2000/svg" id="Layer_1" data-name="Layer 1" viewBox="0 0 24 24" width="512" height="512"><path d="M23.99,3.9c-.06-1.17-.61-2.26-1.52-3-1.62-1.33-4.1-1.16-5.65,.39l-1.25,1.25c-2.15-2.08-5.59-2.06-7.71,.06l-2.84,2.84c-.59,.59-.59,1.54,0,2.12,.59,.59,1.54,.59,2.12,0l2.84-2.84c.96-.96,2.49-.97,3.47-.06L2.21,15.94c-.78,.78-1.21,1.82-1.21,2.93,0,.58,.12,1.15,.35,1.67l-.91,.91c-.59,.59-.59,1.54,0,2.12,.29,.29,.68,.44,1.06,.44s.77-.15,1.06-.44l.91-.91c.52,.23,1.09,.35,1.67,.35,1.11,0,2.15-.43,2.93-1.21L22.79,7.04c.83-.83,1.27-1.97,1.21-3.13ZM5.94,19.67c-.43,.43-1.18,.43-1.61,0-.22-.21-.33-.5-.33-.81s.12-.59,.33-.81L15.58,6.78l1.61,1.61L5.94,19.67Z"/></svg>
