<?xml version="1.0" encoding="UTF-8"?>
<svg xmlns="http://www.w3.org/2000/svg" id="Layer_1" data-name="Layer 1" viewBox="0 0 24 24" width="512" height="512"><path d="M17.83,4.582c-.714-2.743-3.051-4.582-5.83-4.582S6.885,1.838,6.17,4.58C2.643,5.107,0,8.166,0,11.75c0,3.998,3.252,7.25,7.25,7.25h3.25v3.5c0,.828,.671,1.5,1.5,1.5s1.5-.672,1.5-1.5v-3.5h3.25c3.998,0,7.25-3.252,7.25-7.25,0-3.557-2.602-6.595-6.17-7.168Zm-1.08,11.418h-3.25v-.319l3.488-3.052c.624-.546,.687-1.493,.141-2.116-.545-.625-1.494-.688-2.117-.142l-1.512,1.323v-2.194c0-.828-.671-1.5-1.5-1.5s-1.5,.672-1.5,1.5v2.194l-1.512-1.323c-.624-.546-1.572-.481-2.117,.142-.545,.623-.482,1.57,.141,2.116l3.488,3.052v.319h-3.25c-2.343,0-4.25-1.906-4.25-4.25,0-2.128,1.588-3.939,3.716-4.217,1.621-.203,2.168-1.445,2.35-2.167,.362-1.438,1.514-2.366,2.934-2.366s2.572,.929,2.934,2.366c.182,.722,.729,1.964,2.373,2.17,2.105,.274,3.693,2.086,3.693,4.214,0,2.344-1.907,4.25-4.25,4.25Z"/></svg>
