<?xml version="1.0" encoding="UTF-8"?>
<svg xmlns="http://www.w3.org/2000/svg" id="Layer_1" data-name="Layer 1" viewBox="0 0 24 24" width="512" height="512"><path d="M24,12c0,.83-.67,1.5-1.5,1.5H1.5c-.83,0-1.5-.67-1.5-1.5s.67-1.5,1.5-1.5H22.5c.83,0,1.5,.67,1.5,1.5ZM5.65,3.83c-.66-.72-.82-1.67-.46-2.48,.36-.82,1.17-1.34,2.06-1.34h9.5c.89,0,1.7,.53,2.06,1.34,.36,.82,.2,1.77-.4,2.42l-4.53,4.43c-.43,.48-1.13,.8-1.88,.8s-1.45-.32-1.94-.87L5.65,3.83Zm3.44-.83l2.91,2.84,2.91-2.84h-5.82Zm9.26,17.17c.66,.72,.82,1.67,.46,2.48-.36,.82-1.17,1.34-2.06,1.34H7.25c-.89,0-1.7-.53-2.06-1.34-.36-.82-.2-1.77,.4-2.42l4.53-4.43c.43-.48,1.13-.8,1.88-.8s1.45,.32,1.94,.87l4.41,4.3Z"/></svg>
