<?xml version="1.0" encoding="UTF-8"?>
<svg xmlns="http://www.w3.org/2000/svg" id="Layer_1" data-name="Layer 1" viewBox="0 0 24 24" width="512" height="512"><path d="M12,0C5.38,0,0,5.38,0,12s5.38,12,12,12,12-5.38,12-12S18.62,0,12,0Zm0,21c-4.96,0-9-4.04-9-9S7.04,3,12,3s9,4.04,9,9-4.04,9-9,9Zm-2-15c0-1.1,.9-2,2-2s2,.9,2,2-.9,2-2,2-2-.9-2-2Zm7.88,2.41c.33,.76-.03,1.64-.79,1.97l-3.09,1.32v1.9l1.8,3.15c.41,.72,.16,1.64-.56,2.05-.23,.13-.49,.2-.74,.2-.52,0-1.03-.27-1.3-.76l-1.2-2.1-1.2,2.1c-.28,.48-.78,.76-1.3,.76-.25,0-.51-.06-.74-.2-.72-.41-.97-1.33-.56-2.05l1.8-3.15v-1.9l-3.09-1.32c-.76-.33-1.11-1.21-.79-1.97,.33-.76,1.21-1.12,1.97-.79l3.22,1.38h1.38l3.22-1.38c.76-.33,1.64,.03,1.97,.79Z"/></svg>
