<?xml version="1.0" encoding="UTF-8"?>
<svg xmlns="http://www.w3.org/2000/svg" id="Layer_1" data-name="Layer 1" viewBox="0 0 24 24">
  <path d="m18.5,2H5.5C2.468,2,0,4.467,0,7.5v9c0,3.033,2.468,5.5,5.5,5.5h13c3.032,0,5.5-2.467,5.5-5.5V7.5c0-3.033-2.468-5.5-5.5-5.5Zm2.5,14.5c0,1.378-1.121,2.5-2.5,2.5H5.5c-1.379,0-2.5-1.122-2.5-2.5V7.5c0-1.378,1.121-2.5,2.5-2.5h13c1.379,0,2.5,1.122,2.5,2.5v9Zm-7-8.5v8c0,.552-.447,1-1,1s-1-.448-1-1v-8c0-.552.447-1,1-1s1,.448,1,1Zm6,0c0,.552-.447,1-1,1h-1.5c-.275,0-.5.224-.5.5v1.5h1c.553,0,1,.448,1,1s-.447,1-1,1h-1v3c0,.552-.447,1-1,1s-1-.448-1-1v-6.5c0-1.378,1.121-2.5,2.5-2.5h1.5c.553,0,1,.448,1,1Zm-13,2v4c0,.551.448,1,1,1s1-.449,1-1c-.553,0-1-.448-1-1s.447-1,1-1c1.299,0,2,1.03,2,2,0,1.654-1.346,3-3,3s-3-1.346-3-3v-4c0-1.654,1.346-3,3-3s3,1.346,3,3c0,.552-.447,1-1,1s-1-.448-1-1-.448-1-1-1-1,.449-1,1Z"/>
</svg>
