<?xml version="1.0" encoding="UTF-8"?>
<svg xmlns="http://www.w3.org/2000/svg" id="Layer_1" data-name="Layer 1" viewBox="0 0 24 24" width="512" height="512"><path d="M12,0C5.383,0,0,5.383,0,12s5.383,12,12,12,12-5.383,12-12S18.617,0,12,0Zm0,21c-4.962,0-9-4.038-9-9S7.038,3,12,3s9,4.038,9,9-4.038,9-9,9Zm-1.44-11.424c-.949,.922-2.228,1.424-3.584,1.424-.216,0-.433-.013-.651-.039-.823-.097-1.411-.842-1.314-1.665,.097-.823,.841-1.406,1.665-1.314,.41,.048,1.181,.039,1.794-.558,.595-.576,1.544-.563,2.121,.03,.578,.594,.564,1.544-.03,2.121Zm7.116,1.386c-.218,.026-.436,.039-.651,.039-1.346,0-2.618-.496-3.563-1.404-.598-.574-.617-1.523-.042-2.121,.574-.598,1.524-.616,2.121-.042,.613,.589,1.382,.597,1.785,.549,.823-.093,1.568,.491,1.666,1.314,.097,.823-.491,1.568-1.314,1.666Zm-.971,4.653c.801,.958-.15,2.366-1.335,1.974-.817-.271-1.832-.587-3.369-.588-1.537,0-2.552,.317-3.368,.588-1.185,.393-2.137-1.017-1.335-1.974,.995-1.188,2.503-2.613,4.703-2.613s3.711,1.426,4.704,2.614Z"/></svg>
