<?xml version="1.0" encoding="UTF-8"?>
<svg xmlns="http://www.w3.org/2000/svg" id="Layer_1" data-name="Layer 1" viewBox="0 0 24 24" width="512" height="512"><path d="m18.5,0H5.5C2.467,0,0,2.467,0,5.5v13c0,3.032,2.467,5.5,5.5,5.5h13c3.033,0,5.5-2.468,5.5-5.5V5.5c0-3.033-2.467-5.5-5.5-5.5Zm2.5,18.5c0,1.379-1.122,2.5-2.5,2.5H5.5c-1.378,0-2.5-1.121-2.5-2.5V5.5c0-1.378,1.122-2.5,2.5-2.5h13c1.378,0,2.5,1.122,2.5,2.5v13Zm-2-11.256v10.256c0,.828-.671,1.5-1.5,1.5s-1.5-.672-1.5-1.5v-7.513l-2.724,4.414c-.273.442-.756.712-1.276.712s-1.003-.27-1.276-.712l-2.724-4.411v7.51c0,.828-.671,1.5-1.5,1.5s-1.5-.672-1.5-1.5V7.244c0-1.009.6-1.85,1.527-2.142.932-.293,1.944.056,2.516.873l2.957,4.785,2.91-4.713c.618-.888,1.63-1.238,2.563-.944.928.292,1.527,1.133,1.527,2.142Z"/></svg>
