<?xml version="1.0" encoding="UTF-8"?>
<svg xmlns="http://www.w3.org/2000/svg" id="Layer_1" data-name="Layer 1" viewBox="0 0 24 24" width="512" height="512"><path d="m21.222,2.778C16.993-1.45,9.417-.753,4.333,4.333-.752,9.418-1.449,16.994,2.778,21.222c1.859,1.859,4.365,2.766,7.023,2.766,3.386,0,7.017-1.472,9.865-4.32,5.085-5.085,5.782-12.661,1.555-16.889ZM3.05,13.256c.258-2.448,1.467-4.864,3.404-6.802s4.354-3.146,6.802-3.404c.32-.034.635-.051.944-.051,1.612,0,3.061.46,4.219,1.322-.298,1.227-1.579,4.595-6.866,6.247-4.742,1.481-7.005,4.17-8.082,6.28-.404-1.076-.558-2.291-.421-3.593Zm17.9-2.512c-.258,2.448-1.467,4.864-3.404,6.802s-4.354,3.146-6.802,3.404c-1.989.211-3.784-.243-5.163-1.27.297-1.226,1.578-4.596,6.867-6.249,4.742-1.481,7.005-4.17,8.082-6.28.404,1.076.558,2.291.421,3.593Z"/></svg>
