<?xml version="1.0" encoding="UTF-8"?>
<svg xmlns="http://www.w3.org/2000/svg" id="Layer_1" data-name="Layer 1" viewBox="0 0 24 24" width="512" height="512"><path d="M18.5,1H10.5c-3.03,0-5.5,2.47-5.5,5.5v5c0,3.03,2.47,5.5,5.5,5.5h8c3.03,0,5.5-2.47,5.5-5.5V6.5c0-3.03-2.47-5.5-5.5-5.5Zm0,3c.55,0,1.05,.18,1.46,.48l-3.79,3.79c-.95,.95-2.59,.95-3.54,0l-3.71-3.71c.43-.35,.98-.56,1.57-.56h8Zm0,10H10.5c-1.38,0-2.5-1.12-2.5-2.5v-3.63l2.52,2.52c1.04,1.04,2.42,1.61,3.89,1.61s2.85-.57,3.89-1.61l2.71-2.71v3.82c0,1.38-1.12,2.5-2.5,2.5Zm-.5,6.5c0,.83-.67,1.5-1.5,1.5H5.5c-3.03,0-5.5-2.47-5.5-5.5V7.5c0-.83,.67-1.5,1.5-1.5s1.5,.67,1.5,1.5v9c0,1.38,1.12,2.5,2.5,2.5h11c.83,0,1.5,.67,1.5,1.5Z"/></svg>
