<?xml version="1.0" encoding="UTF-8"?>
<svg xmlns="http://www.w3.org/2000/svg" id="Layer_1" data-name="Layer 1" viewBox="0 0 24 24" width="512" height="512"><path d="m12,0C5.383,0,0,5.383,0,12s5.383,12,12,12,12-5.383,12-12S18.617,0,12,0Zm0,21c-4.962,0-9-4.037-9-9S7.038,3,12,3s9,4.038,9,9-4.038,9-9,9Zm4.5-13.5c0,.829-.671,1.5-1.5,1.5h-4c-.276,0-.5.224-.5.5v1.5h2.5c.829,0,1.5.671,1.5,1.5s-.671,1.5-1.5,1.5h-2.5v2.5c0,.828-.671,1.5-1.5,1.5s-1.5-.672-1.5-1.5v-7c0-1.93,1.57-3.5,3.5-3.5h4c.829,0,1.5.671,1.5,1.5Z"/></svg>
