<?xml version="1.0" encoding="UTF-8"?>
<svg xmlns="http://www.w3.org/2000/svg" id="Layer_1" data-name="Layer 1" viewBox="0 0 24 24" width="512" height="512"><path d="M1.5,24c-.83,0-1.5-.67-1.5-1.5V5.5C0,2.47,2.47,0,5.5,0H22.5c.83,0,1.5,.67,1.5,1.5s-.67,1.5-1.5,1.5H5.5c-1.38,0-2.5,1.12-2.5,2.5V22.5c0,.83-.67,1.5-1.5,1.5Zm17.5-1.5c0-.83-.67-1.5-1.5-1.5s-1.5,.67-1.5,1.5,.67,1.5,1.5,1.5,1.5-.67,1.5-1.5Zm-11,0c0-.83-.67-1.5-1.5-1.5s-1.5,.67-1.5,1.5,.67,1.5,1.5,1.5,1.5-.67,1.5-1.5Zm16,0c0-.83-.67-1.5-1.5-1.5s-1.5,.67-1.5,1.5,.67,1.5,1.5,1.5,1.5-.67,1.5-1.5Zm0-5c0-.83-.67-1.5-1.5-1.5s-1.5,.67-1.5,1.5,.67,1.5,1.5,1.5,1.5-.67,1.5-1.5Zm0-5.5c0-.83-.67-1.5-1.5-1.5s-1.5,.67-1.5,1.5,.67,1.5,1.5,1.5,1.5-.67,1.5-1.5Zm0-5.5c0-.83-.67-1.5-1.5-1.5s-1.5,.67-1.5,1.5,.67,1.5,1.5,1.5,1.5-.67,1.5-1.5ZM13.5,22.5c0-.83-.67-1.5-1.5-1.5s-1.5,.67-1.5,1.5,.67,1.5,1.5,1.5,1.5-.67,1.5-1.5Z"/></svg>
