<?xml version="1.0" encoding="UTF-8"?>
<svg xmlns="http://www.w3.org/2000/svg" id="Layer_1" data-name="Layer 1" viewBox="0 0 24 24" width="512" height="512"><path d="m18.5,0H5.5C2.467,0,0,2.467,0,5.5v13c0,3.033,2.467,5.5,5.5,5.5h13c3.033,0,5.5-2.467,5.5-5.5V5.5c0-3.033-2.467-5.5-5.5-5.5Zm2.5,18.5c0,1.378-1.122,2.5-2.5,2.5H5.5c-1.378,0-2.5-1.122-2.5-2.5V5.5c0-1.378,1.122-2.5,2.5-2.5h13c1.378,0,2.5,1.122,2.5,2.5v13Zm-5.319-7.935c.205-.481.319-1.01.319-1.565,0-2.206-1.794-4-4-4h-2.5c-1.93,0-3.5,1.57-3.5,3.5v7c0,1.93,1.57,3.5,3.5,3.5h4c2.481,0,4.5-2.019,4.5-4.5,0-1.69-.937-3.166-2.319-3.935Zm-6.681-2.065c0-.276.224-.5.5-.5h2.5c.551,0,1,.449,1,1s-.449,1-1,1h-3v-1.5Zm4.5,7.5h-4c-.276,0-.5-.224-.5-.5v-2.5h4.5c.827,0,1.5.673,1.5,1.5s-.673,1.5-1.5,1.5Z"/></svg>
