<?xml version="1.0" encoding="UTF-8"?>
<svg xmlns="http://www.w3.org/2000/svg" id="Layer_1" data-name="Layer 1" viewBox="0 0 24 24">
  <path d="m24,10.531v5.969c0,3.033-2.467,5.5-5.5,5.5h-3.5c-2.671,0-4.902-1.931-5.425-4.696l-.682-3.484-7.153,1.161c-.815.128-1.588-.422-1.721-1.24-.133-.817.422-1.588,1.24-1.721l8.586-1.394c.8-.13,1.557.398,1.712,1.192l.962,4.919c.261,1.378,1.233,2.263,2.479,2.263h3.5c1.378,0,2.5-1.122,2.5-2.5v-5.969c0-1.469-.572-2.851-1.611-3.889l-2.308-2.309c-.215-.215-.501-.333-.806-.333h-.002c-.305,0-.591.12-.807.336l-2.512,2.408,1.773.273c.819.126,1.38.892,1.254,1.71-.114.742-.753,1.272-1.48,1.272-.076,0-.153-.005-.23-.018L1.272,7.982C.453,7.856-.108,7.091.018,6.272c.125-.82.896-1.385,1.71-1.254l7.491,1.153,4.145-3.974c.755-.76,1.795-1.194,2.904-1.196h.007c1.105,0,2.145.43,2.926,1.212l2.308,2.308c1.605,1.604,2.49,3.739,2.49,6.01Z"/>
</svg>
