<?xml version="1.0" encoding="UTF-8"?>
<svg xmlns="http://www.w3.org/2000/svg" id="Layer_1" data-name="Layer 1" viewBox="0 0 24 24" width="512" height="512"><path d="m22.385,6.613c-1.042-1.042-2.421-1.615-3.887-1.615h-.521c-.115-1.28-.668-2.469-1.588-3.389C15.35.57,13.969-.002,12.5-.002h-7C4.035-.002,2.655.571,1.613,1.613.572,2.654,0,4.035,0,5.501l.004,11.624c.002,1.03.84,1.869,1.868,1.869.184,0,.366-.027.542-.081.048-.015,3.657-1.526,3.657-1.526.426,2.611,2.698,4.611,5.428,4.611h5.5s4.537,1.9,4.585,1.915c.176.054.358.081.542.081,1.03,0,1.867-.84,1.867-1.871l.005-11.622c0-1.466-.572-2.847-1.613-3.888ZM3,5.499c0-.663.261-1.29.735-1.765.474-.475,1.101-.736,1.765-.736h7c.668,0,1.296.26,1.768.732s.732,1.101.732,1.769v5.999c0,1.379-1.122,2.5-2.5,2.5h-5.802c-.199,0-.396.04-.58.117l-3.113,1.306-.004-9.922Zm17.994,14.922l-3.113-1.306c-.184-.077-.381-.117-.58-.117h-5.802c-1.207,0-2.217-.86-2.45-2h3.45c3.033,0,5.5-2.468,5.5-5.5v-3.5h.499c.664,0,1.291.262,1.765.736.475.475.736,1.102.735,1.765l-.004,9.922Z"/></svg>
