<?xml version="1.0" encoding="UTF-8"?>
<svg xmlns="http://www.w3.org/2000/svg" id="Layer_1" data-name="Layer 1" viewBox="0 0 24 24" width="512" height="512"><path d="m13.044,11.577l-1.862,1.805c-.412.412-.959.619-1.509.619-.556,0-1.114-.211-1.538-.636l-.674-.647c-.598-.574-.617-1.523-.042-2.121.575-.598,1.525-.616,2.121-.042l.125.12,1.292-1.252c.594-.577,1.543-.562,2.121.033.577.595.562,1.544-.033,2.121Zm2.456,4.423h-2c-.829,0-1.5.671-1.5,1.5s.671,1.5,1.5,1.5h2c.829,0,1.5-.671,1.5-1.5s-.671-1.5-1.5-1.5Zm0-11h-2c-.829,0-1.5.671-1.5,1.5s.671,1.5,1.5,1.5h2c.829,0,1.5-.671,1.5-1.5s-.671-1.5-1.5-1.5Zm-7,11c-.828,0-1.5.672-1.5,1.5s.672,1.5,1.5,1.5,1.5-.672,1.5-1.5-.672-1.5-1.5-1.5Zm0-8c.828,0,1.5-.672,1.5-1.5s-.672-1.5-1.5-1.5-1.5.672-1.5,1.5.672,1.5,1.5,1.5Zm7,3c-.828,0-1.5.672-1.5,1.5s.672,1.5,1.5,1.5,1.5-.672,1.5-1.5-.672-1.5-1.5-1.5Zm6.5-5.5v13c0,3.033-2.467,5.5-5.5,5.5H7.5c-3.033,0-5.5-2.467-5.5-5.5V5.5C2,2.467,4.467,0,7.5,0h9c3.033,0,5.5,2.467,5.5,5.5Zm-3,0c0-1.378-1.122-2.5-2.5-2.5H7.5c-1.378,0-2.5,1.122-2.5,2.5v13c0,1.378,1.122,2.5,2.5,2.5h9c1.378,0,2.5-1.122,2.5-2.5V5.5Z"/></svg>
