<?xml version="1.0" encoding="UTF-8"?>
<svg xmlns="http://www.w3.org/2000/svg" id="Layer_1" data-name="Layer 1" viewBox="0 0 24 24" width="512" height="512"><path d="M19.79,10.4c-.5-.66-.36-1.6,.3-2.1,.66-.5,1.6-.36,2.1,.3,.76,1.02,1.35,2.18,1.74,3.46,.25,.79-.2,1.63-.99,1.88-.15,.05-.3,.07-.45,.07-.64,0-1.23-.41-1.43-1.06-.29-.95-.72-1.8-1.28-2.55Zm-7.38,8.21c-.61,.26-1.25,.4-1.91,.4-1.06,0-2.14-.64-3.14-1.65,.54-.78,.97-1.53,1.3-2.14,.39-.73,.11-1.64-.62-2.03-.73-.39-1.64-.11-2.03,.62-.19,.35-.38,.69-.57,1.01-1.24-2.06-2.14-4.52-2.39-6.49-.1-.82-.85-1.4-1.67-1.3-.82,.1-1.41,.85-1.3,1.67,.3,2.4,1.53,5.86,3.45,8.66-.83,.86-1.68,1.46-2.5,1.73-.79,.26-1.21,1.11-.95,1.9,.21,.63,.79,1.03,1.42,1.03,.16,0,.32-.02,.47-.08,1.32-.44,2.49-1.28,3.48-2.27,1.46,1.41,3.17,2.34,5.05,2.34,1.06,0,2.1-.21,3.09-.64,.76-.33,1.11-1.21,.79-1.97-.33-.76-1.21-1.12-1.97-.79Zm8.67-1.6s0,0,0,0h0Zm1.35,3.3l1.14,1.14c.59,.59,.59,1.54,0,2.12-.29,.29-.68,.44-1.06,.44s-.77-.15-1.06-.44L.44,2.56C-.15,1.98-.15,1.02,.44,.44,1.03-.15,1.97-.15,2.56,.44l1.7,1.7c.4-.09,.82-.14,1.24-.14,3.03,0,5.5,2.47,5.5,5.5,0,.39-.03,.82-.1,1.28l1.89,1.89c.65-.43,1.42-.67,2.21-.67,2.21,0,4,1.79,4,4,0,.71-.19,1.52-.53,2.35l1.84,1.84c.34-.33,.62-.74,.77-1.18,.21-.57,.77-1.01,1.42-1.01,.83,0,1.5,.67,1.5,1.5,0,.21-.05,.42-.13,.6-.31,.83-.82,1.58-1.45,2.2Zm-6.43-6.43c-.06-.45-.41-.8-.86-.86l.86,.86Z"/></svg>
