<?xml version="1.0" encoding="UTF-8"?>
<svg xmlns="http://www.w3.org/2000/svg" id="Layer_1" data-name="Layer 1" viewBox="0 0 24 24" width="512" height="512"><path d="M11.5,18H5.5c-.61,0-.98-.34-1.15-.54-.17-.2-.43-.63-.33-1.23l1.1-6.18c.21-1.19,1.25-2.06,2.46-2.06h8.83c1.21,0,2.25,.87,2.46,2.06l.3,1.7c.15,.82,.92,1.36,1.74,1.21,.82-.15,1.36-.92,1.21-1.74l-.3-1.7c-.44-2.48-2.49-4.31-4.96-4.51,.09-.33,.13-.67,.13-1.02,0-2.21-1.79-4-4-4h-2c-2.21,0-4,1.79-4,4,0,.35,.05,.69,.13,1.02-2.47,.2-4.52,2.04-4.96,4.51l-1.1,6.18c-.23,1.32,.12,2.66,.98,3.68,.86,1.02,2.12,1.61,3.45,1.61h2.73c.22,.64,.59,1.23,1.09,1.71,1.07,1.03,1.97,1.31,2.79,1.28,.5-.02,.9-.44,.9-.94v-3.56c0-.83-.67-1.5-1.5-1.5Zm-.5-15h2c.55,0,1,.45,1,1s-.45,1-1,1h-2c-.55,0-1-.45-1-1s.45-1,1-1Zm13,16.5c0,.83-.67,1.5-1.5,1.5h-1.5v1.5c0,.83-.67,1.5-1.5,1.5s-1.5-.67-1.5-1.5v-1.5h-1.5c-.83,0-1.5-.67-1.5-1.5s.67-1.5,1.5-1.5h1.5v-1.5c0-.83,.67-1.5,1.5-1.5s1.5,.67,1.5,1.5v1.5h1.5c.83,0,1.5,.67,1.5,1.5Z"/></svg>
