<?xml version="1.0" encoding="UTF-8"?>
<svg xmlns="http://www.w3.org/2000/svg" id="Layer_1" data-name="Layer 1" viewBox="0 0 24 24" width="512" height="512"><path d="m13,9c-1.105,0-2-.895-2-2V3h-5.5c-1.378,0-2.5,1.122-2.5,2.5v13c0,1.378,1.122,2.5,2.5,2.5h3c.829,0,1.5.671,1.5,1.5s-.671,1.5-1.5,1.5h-3c-3.033,0-5.5-2.467-5.5-5.5V5.5C0,2.467,2.467,0,5.5,0h6.343c1.469,0,2.85.572,3.889,1.611l2.657,2.657c1.039,1.039,1.611,2.419,1.611,3.889v1.343c0,.829-.671,1.5-1.5,1.5s-1.5-.671-1.5-1.5v-.5h-4Zm10.512,3.849c-.875-1.07-2.456-1.129-3.409-.176l-6.808,6.808c-.813.813-1.269,1.915-1.269,3.064v.955c0,.276.224.5.5.5h.955c1.149,0,2.252-.457,3.064-1.269l6.715-6.715c.85-.85,1.013-2.236.252-3.167Z"/></svg>
