<?xml version="1.0" encoding="UTF-8"?>
<svg xmlns="http://www.w3.org/2000/svg" id="Layer_1" data-name="Layer 1" viewBox="0 0 24 24" width="512" height="512"><path d="M6.5,0h-2C2.02,0,0,2.02,0,4.5v2c0,2.48,2.02,4.5,4.5,4.5h2c2.48,0,4.5-2.02,4.5-4.5v-2C11,2.02,8.98,0,6.5,0Zm1.5,6.5c0,.83-.67,1.5-1.5,1.5h-2c-.83,0-1.5-.67-1.5-1.5v-2c0-.83,.67-1.5,1.5-1.5h2c.83,0,1.5,.67,1.5,1.5v2Zm11.5,6.5h-2c-2.48,0-4.5,2.02-4.5,4.5v2c0,2.48,2.02,4.5,4.5,4.5h2c2.48,0,4.5-2.02,4.5-4.5v-2c0-2.48-2.02-4.5-4.5-4.5Zm1.5,6.5c0,.83-.67,1.5-1.5,1.5h-2c-.83,0-1.5-.67-1.5-1.5v-2c0-.83,.67-1.5,1.5-1.5h2c.83,0,1.5,.67,1.5,1.5v2ZM6.5,13h-2c-2.48,0-4.5,2.02-4.5,4.5v2c0,2.48,2.02,4.5,4.5,4.5h2c2.48,0,4.5-2.02,4.5-4.5v-2c0-2.48-2.02-4.5-4.5-4.5Zm1.5,6.5c0,.83-.67,1.5-1.5,1.5h-2c-.83,0-1.5-.67-1.5-1.5v-2c0-.83,.67-1.5,1.5-1.5h2c.83,0,1.5,.67,1.5,1.5v2ZM13,3.02c0-1.67,1.23-3.02,2.75-3.02,1.34,0,2.5,1.05,2.74,2.44h0c.25-1.39,1.42-2.44,2.76-2.44,1.52,0,2.75,1.35,2.75,3.02,0,2.38-3.1,5.44-4.65,6.68-.5,.4-1.21,.4-1.71,0-1.54-1.24-4.65-4.3-4.65-6.68Z"/></svg>
