<?xml version="1.0" encoding="UTF-8"?>
<svg xmlns="http://www.w3.org/2000/svg" id="Layer_1" data-name="Layer 1" viewBox="0 0 24 24" width="512" height="512"><path d="M15,6c0-3.309-2.691-6-6-6S3,2.691,3,6s2.691,6,6,6,6-2.691,6-6Zm-6,3c-1.654,0-3-1.346-3-3s1.346-3,3-3,3,1.346,3,3-1.346,3-3,3Zm-.012,6.314c.103,.822-.48,1.571-1.303,1.674-2.627,.328-4.686,2.749-4.686,5.512,0,.829-.671,1.5-1.5,1.5s-1.5-.671-1.5-1.5c0-4.249,3.213-7.977,7.314-8.488,.818-.106,1.571,.48,1.674,1.303Zm14.012,3.184l-.638-.376c.084-.362,.138-.735,.138-1.123s-.054-.76-.138-1.123l.638-.376c.714-.42,.952-1.34,.531-2.054-.421-.714-1.34-.95-2.054-.531l-.648,.382c-.523-.471-1.144-.825-1.83-1.043v-.755c0-.829-.671-1.5-1.5-1.5s-1.5,.671-1.5,1.5v.755c-.686,.218-1.307,.572-1.83,1.043l-.648-.382c-.713-.418-1.632-.183-2.054,.531-.42,.714-.183,1.633,.531,2.054l.638,.376c-.084,.362-.138,.735-.138,1.123s.054,.76,.138,1.123l-.638,.376c-.714,.42-.952,1.34-.531,2.054,.28,.475,.78,.739,1.294,.739,.259,0,.521-.067,.76-.208l.648-.382c.523,.471,1.144,.825,1.83,1.043v.755c0,.829,.671,1.5,1.5,1.5s1.5-.671,1.5-1.5v-.755c.686-.218,1.307-.572,1.83-1.043l.648,.382c.239,.141,.501,.208,.76,.208,.514,0,1.014-.264,1.294-.739,.42-.714,.183-1.633-.531-2.054Zm-5.5,.001c-.827,0-1.5-.673-1.5-1.5s.673-1.5,1.5-1.5,1.5,.673,1.5,1.5-.673,1.5-1.5,1.5Z"/></svg>
