<?xml version="1.0" encoding="UTF-8"?>
<svg xmlns="http://www.w3.org/2000/svg" id="Layer_1" data-name="Layer 1" viewBox="0 0 24 24" width="512" height="512"><path d="m23.561,21.439l-.561-.561V3.5c0-1.93-1.57-3.5-3.5-3.5h-1c-1.93,0-3.5,1.57-3.5,3.5v.535c-.164-.023-.33-.035-.5-.035h-1c-1.93,0-3.5,1.57-3.5,3.5v.379L2.561.439C1.975-.146,1.025-.146.439.439S-.146,1.975.439,2.561l21,21c.293.293.677.439,1.061.439s.768-.146,1.061-.439c.586-.586.586-1.535,0-2.121ZM18.5,3h1c.276,0,.5.225.5.5v14.379l-2-2V3.5c0-.275.224-.5.5-.5Zm-5.5,4.5c0-.275.224-.5.5-.5h1c.276,0,.5.225.5.5v5.379l-2-2v-3.379Zm2.5,13.5h-2.5v-2.5c0-.828-.671-1.5-1.5-1.5s-1.5.672-1.5,1.5v2.5h-2v-7.5c0-.828-.671-1.5-1.5-1.5s-1.5.672-1.5,1.5v.551c-.165-.024-.329-.051-.5-.051h-1c-1.93,0-3.5,1.57-3.5,3.5v3c0,1.93,1.57,3.5,3.5,3.5h12c.829,0,1.5-.672,1.5-1.5s-.671-1.5-1.5-1.5Zm-12.5-.5v-3c0-.275.224-.5.5-.5h1c.276,0,.5.225.5.5v3.5h-1.5c-.276,0-.5-.225-.5-.5Z"/></svg>
