<?xml version="1.0" encoding="UTF-8"?>
<svg xmlns="http://www.w3.org/2000/svg" id="Layer_1" data-name="Layer 1" viewBox="0 0 24 24" width="512" height="512"><path d="M24,12c0,1.65-1.35,3-3,3h-5c-1.65,0-3-1.35-3-3s1.35-3,3-3h5c1.65,0,3,1.35,3,3Zm-8-6h5c1.65,0,3-1.35,3-3s-1.35-3-3-3h-5c-1.65,0-3,1.35-3,3s1.35,3,3,3Zm5,12h-5c-1.65,0-3,1.35-3,3s1.35,3,3,3h5c1.65,0,3-1.35,3-3s-1.35-3-3-3Zm-10-1v3c0,2.21-1.79,4-4,4h-3c-2.21,0-4-1.79-4-4v-3c0-2.21,1.79-4,4-4h3c2.21,0,4,1.79,4,4Zm-3,0c0-.55-.45-1-1-1h-3c-.55,0-1,.45-1,1v3c0,.55,.45,1,1,1h3c.55,0,1-.45,1-1v-3Zm3-13v3c0,2.21-1.79,4-4,4h-3C1.79,11,0,9.21,0,7v-3C0,1.79,1.79,0,4,0h3c2.21,0,4,1.79,4,4Zm-3,0c0-.55-.45-1-1-1h-3c-.55,0-1,.45-1,1v3c0,.55,.45,1,1,1h3c.55,0,1-.45,1-1v-3Z"/></svg>
