<?xml version="1.0" encoding="UTF-8"?>
<svg xmlns="http://www.w3.org/2000/svg" id="Layer_1" data-name="Layer 1" viewBox="0 0 24 24" width="512" height="512"><path d="M22.449,8.256L15.744,1.551c-2.064-2.063-5.424-2.065-7.488,0L1.551,8.256c-2.063,2.064-2.063,5.424,0,7.488l6.705,6.705c1.032,1.032,2.388,1.548,3.744,1.548s2.712-.516,3.744-1.548l6.705-6.705c2.063-2.064,2.063-5.424,0-7.488Zm-2.121,5.367l-6.705,6.705c-.895,.895-2.352,.895-3.246,0L3.672,13.623c-.894-.895-.894-2.352,0-3.246L10.377,3.672c.895-.895,2.352-.895,3.246,0l6.705,6.705c.894,.895,.894,2.352,0,3.246Zm-2.612-2.808c.378,.378,.378,.991,0,1.369l-3.063,3.063c-.61,.61-1.653,.178-1.653-.685v-1.563h-1.5c-.275,0-.5,.225-.5,.5v1c0,.828-.672,1.5-1.5,1.5s-1.5-.672-1.5-1.5v-1c0-1.93,1.57-3.5,3.5-3.5h1.5v-1.563c0-.863,1.043-1.295,1.653-.685l3.063,3.063Z"/></svg>
