<?xml version="1.0" encoding="UTF-8"?>
<svg xmlns="http://www.w3.org/2000/svg" id="Layer_1" data-name="Layer 1" viewBox="0 0 24 24" width="512" height="512"><path d="m22.876,16.469c.082.337.124.681.124,1.031,0,2.481-2.019,4.5-4.5,4.5-2.226,0-4.08-1.625-4.438-3.75l-2.062-.589-2.063.589c-.358,2.126-2.211,3.75-4.437,3.75-2.481,0-4.5-2.019-4.5-4.5,0-.35.042-.694.124-1.031-.717-.81-1.124-1.857-1.124-2.969,0-2.481,2.019-4.5,4.5-4.5,1.303,0,2.524.571,3.365,1.521l1.223-.35c.792-.227,1.626.233,1.854,1.03.228.796-.234,1.627-1.03,1.854l-2.273.649c-.716.203-1.471-.146-1.778-.822-.244-.537-.778-.884-1.361-.884-.827,0-1.5.673-1.5,1.5,0,.512.263.984.703,1.263.675.428.896,1.311.502,2.006-.136.24-.205.486-.205.731,0,.827.673,1.5,1.5,1.5s1.5-.673,1.5-1.5l-.037-.188c-.098-.737.359-1.436,1.075-1.64l3.55-1.015c.27-.077.555-.077.824,0l3.55,1.015c.715.205,1.173.903,1.075,1.64l-.03.188c-.007.827.666,1.5,1.493,1.5s1.5-.673,1.5-1.5c0-.245-.069-.491-.205-.731-.394-.695-.173-1.578.502-2.006.44-.279.703-.751.703-1.263,0-.827-.673-1.5-1.5-1.5-.583,0-1.117.347-1.361.884-.308.675-1.061,1.024-1.778.822l-2.273-.649c-.796-.228-1.258-1.058-1.03-1.854.228-.797,1.06-1.256,1.854-1.03l1.223.35c.841-.951,2.062-1.521,3.365-1.521,2.481,0,4.5,2.019,4.5,4.5,0,1.112-.406,2.159-1.124,2.969ZM12,7c.829,0,1.5-.671,1.5-1.5v-3c0-.829-.671-1.5-1.5-1.5s-1.5.671-1.5,1.5v3c0,.829.671,1.5,1.5,1.5Zm3.228.786c.242.145.508.214.771.214.51,0,1.006-.26,1.288-.728l1.5-2.5c.426-.71.196-1.632-.514-2.058-.71-.427-1.632-.196-2.058.514l-1.5,2.5c-.426.71-.196,1.632.514,2.058Zm-8.514-.514c.281.469.778.728,1.288.728.263,0,.529-.069.771-.214.71-.426.94-1.348.514-2.058l-1.5-2.5c-.426-.71-1.348-.941-2.058-.514-.71.426-.94,1.348-.514,2.058l1.5,2.5Z"/></svg>
