<?xml version="1.0" encoding="UTF-8"?>
<svg xmlns="http://www.w3.org/2000/svg" id="Layer_1" data-name="Layer 1" viewBox="0 0 24 24" width="512" height="512"><path d="M11.86,24c-1.5,0-3-.29-4.46-.87-2.97-1.18-5.36-3.57-6.54-6.54C-.44,13.3-.26,9.76,1.37,6.62,3.06,3.36,6.16,.93,9.65,.1c1.06-.25,2.17-.01,3.02,.67,.84,.67,1.32,1.66,1.32,2.73v6.51h6.5c1.07,0,2.07,.49,2.74,1.33,.67,.85,.92,1.95,.66,3.01-.83,3.5-3.27,6.59-6.52,8.28-1.75,.91-3.63,1.37-5.52,1.37ZM10.48,3s-.09,0-.14,.02c-2.66,.63-5.02,2.5-6.31,4.98-1.23,2.36-1.36,5.01-.38,7.48,.88,2.21,2.65,3.98,4.86,4.86,2.47,.98,5.12,.85,7.48-.38,2.49-1.29,4.36-3.65,4.99-6.32,.05-.22-.04-.38-.1-.46-.07-.09-.19-.19-.39-.19h-8c-.83,0-1.5-.68-1.5-1.51V3.5c0-.19-.1-.31-.18-.38-.06-.05-.17-.12-.33-.12Z"/></svg>
