<?xml version="1.0" encoding="UTF-8"?>
<svg xmlns="http://www.w3.org/2000/svg" id="Layer_1" data-name="Layer 1" viewBox="0 0 24 24" width="512" height="512"><path d="M12,0C5.383,0,0,5.383,0,12s5.383,12,12,12,12-5.383,12-12S18.617,0,12,0Zm0,21c-4.962,0-9-4.038-9-9S7.038,3,12,3s9,4.038,9,9-4.038,9-9,9Zm6-7c0,1.105-.895,2-2,2s-2-.895-2-2,.895-2,2-2,2,.895,2,2Zm-8,0c0,1.105-.895,2-2,2s-2-.895-2-2,.895-2,2-2,2,.895,2,2Zm5.448-4.431c-.032-.03-1.639-1.569-3.448-1.569s-3.432,1.554-3.448,1.569c-.592,.577-1.54,.568-2.119-.02-.579-.588-.576-1.532,.01-2.114,.1-.1,2.488-2.436,5.557-2.436s5.457,2.336,5.557,2.436c.588,.583,.591,1.533,.008,2.121-.293,.295-.679,.443-1.064,.443-.38,0-.76-.144-1.052-.431Z"/></svg>
