<?xml version="1.0" encoding="UTF-8"?>
<svg xmlns="http://www.w3.org/2000/svg" id="Layer_1" data-name="Layer 1" viewBox="0 0 24 24">
  <path d="m10.181,22.5c0,.828-.672,1.5-1.5,1.5-2.838,0-5.245-2.215-5.481-5.043l-1.08-12.957h-.619c-.828,0-1.5-.672-1.5-1.5s.672-1.5,1.5-1.5h4.757c.619-1.746,2.287-3,4.243-3h3c1.956,0,3.624,1.254,4.243,3h4.757c.828,0,1.5.672,1.5,1.5s-.672,1.5-1.5,1.5h-.619l-.135,1.625c-.065.783-.74,1.467-1.62,1.37-1.125-.123-1.438-.794-1.37-1.62l.115-1.375H5.131l1.059,12.707c.106,1.286,1.201,2.293,2.491,2.293.828,0,1.5.672,1.5,1.5Zm13.819-5c0,3.59-2.91,6.5-6.5,6.5s-6.5-2.91-6.5-6.5,2.91-6.5,6.5-6.5,6.5,2.91,6.5,6.5Zm-4.156.223l-.844-.844v-1.379c0-.828-.672-1.5-1.5-1.5s-1.5.672-1.5,1.5v1.793c0,.53.211,1.039.586,1.414l1.137,1.137c.586.586,1.535.586,2.121,0,.586-.586.586-1.535,0-2.121Z"/>
</svg>
