<?xml version="1.0" encoding="UTF-8"?>
<svg xmlns="http://www.w3.org/2000/svg" id="Layer_1" data-name="Layer 1" viewBox="0 0 24 24" width="512" height="512"><path d="m12,0C5.383,0,0,5.383,0,12s5.383,12,12,12,12-5.383,12-12S18.617,0,12,0Zm0,21c-4.962,0-9-4.037-9-9S7.038,3,12,3s9,4.037,9,9-4.037,9-9,9Zm6.232-12.272l-1.09,7.088c-.23,1.248-1.061,2.083-2.123,2.175-1.021.096-1.967-.558-2.4-1.65l-.62-1.317-.62,1.317c-.406,1.026-1.255,1.658-2.211,1.658-1.169,0-2.081-.935-2.304-2.137l-1.097-7.134c-.126-.818.436-1.584,1.254-1.71.817-.122,1.585.436,1.71,1.255l.771,5.011,1.14-2.422c.248-.525.776-.861,1.357-.861s1.109.336,1.357.861l1.139,2.42.771-5.009c.126-.82.894-1.378,1.71-1.255.819.126,1.381.892,1.255,1.71Z"/></svg>
