<?xml version="1.0" encoding="UTF-8"?>
<svg xmlns="http://www.w3.org/2000/svg" id="Layer_1" data-name="Layer 1" viewBox="0 0 24 24" width="512" height="512"><path d="m17.5,0H6.5C4.019,0,2,2.019,2,4.5v14c0,3.032,2.467,5.5,5.5,5.5h9c3.033,0,5.5-2.468,5.5-5.5V4.5c0-2.481-2.019-4.5-4.5-4.5Zm-1,21H7.5c-1.378,0-2.5-1.121-2.5-2.5V5h14v13.5c0,1.379-1.122,2.5-2.5,2.5Zm.5-12.5c0,.828-.671,1.5-1.5,1.5h-7c-.829,0-1.5-.672-1.5-1.5s.671-1.5,1.5-1.5h7c.829,0,1.5.672,1.5,1.5Zm-4,5c0,.828-.671,1.5-1.5,1.5h-3c-.829,0-1.5-.672-1.5-1.5s.671-1.5,1.5-1.5h3c.829,0,1.5.672,1.5,1.5Z"/></svg>
