<?xml version="1.0" encoding="UTF-8"?>
<svg xmlns="http://www.w3.org/2000/svg" id="Layer_1" data-name="Layer 1" viewBox="0 0 24 24">
  <path d="m23.377,21.482c-.876,1.576-2.477,2.518-4.28,2.518H4.903c-1.804,0-3.404-.941-4.28-2.518s-.832-3.432.121-4.965l7.625-11.508c.499-.804,1.253-1.409,2.132-1.734v-1.775c0-.828.671-1.5,1.5-1.5s1.5.672,1.5,1.5v1.777c.331.123.646.286.939.488.682.471.853,1.404.382,2.086-.469.683-1.402.855-2.086.383-.216-.148-.474-.229-.746-.23-.199,0-.748.065-1.097.626l-7.625,11.508c-.345.558-.363,1.276-.023,1.887.339.611.959.976,1.658.976h14.194c.699,0,1.319-.364,1.658-.976.34-.61.322-1.329-.046-1.923l-1.838-2.773c-.458-.69-.269-1.621.422-2.078.691-.458,1.621-.271,2.079.422l1.862,2.81c.976,1.569,1.021,3.425.144,5.001Zm-10.377-8.482c-1.657,0-3,1.343-3,3s1.343,3,3,3,3-1.343,3-3c0-.529-.137-1.025-.377-1.456l6.163-10.272c.426-.71.196-1.632-.514-2.058-.71-.428-1.632-.195-2.058.515l-6.164,10.273c-.017,0-.033-.001-.05-.001Z"/>
</svg>
