<?xml version="1.0" encoding="UTF-8"?>
<svg xmlns="http://www.w3.org/2000/svg" id="Layer_1" data-name="Layer 1" viewBox="0 0 24 24" width="512" height="512"><path d="M20.39,4.27l-2.66-2.66c-1.04-1.04-2.42-1.61-3.89-1.61H7.5C4.47,0,2,2.47,2,5.5v13c0,3.03,2.47,5.5,5.5,5.5h9c3.03,0,5.5-2.47,5.5-5.5V8.16c0-1.47-.57-2.85-1.61-3.89ZM7.5,3h5.5V7c0,1.1,.9,2,2,2h4v4.86l-1.06-1.06c-1.06-1.06-2.79-1.06-3.85,0l-2.07,2.07-2.07-2.07c-1.06-1.06-2.79-1.06-3.85,0l-1.09,1.09V5.5c0-1.38,1.12-2.5,2.5-2.5Zm9,18H7.5c-1.38,0-2.5-1.12-2.5-2.5v-.38s.04-.04,.06-.06l2.95-2.95,2.07,2.07c1.06,1.06,2.79,1.06,3.85,0l2.07-2.07,2.94,2.94s.03,.03,.05,.05v.4c0,1.38-1.12,2.5-2.5,2.5Z"/></svg>
