<?xml version="1.0" encoding="UTF-8"?>
<svg xmlns="http://www.w3.org/2000/svg" id="Layer_1" data-name="Layer 1" viewBox="0 0 24 24" width="512" height="512"><path d="M12,24c-2.206,0-4-1.794-4-4v-6h-2c-2.206,0-4-1.794-4-4s1.794-4,4-4h2v-2c0-2.206,1.794-4,4-4s4,1.794,4,4v2h2c2.206,0,4,1.794,4,4s-1.794,4-4,4h-2v6c0,2.206-1.794,4-4,4ZM6,9c-.551,0-1,.448-1,1s.449,1,1,1h3.5c.829,0,1.5,.672,1.5,1.5v7.5c0,.552,.449,1,1,1s1-.448,1-1v-7.5c0-.828,.671-1.5,1.5-1.5h3.5c.551,0,1-.448,1-1s-.449-1-1-1h-3.5c-.829,0-1.5-.672-1.5-1.5v-3.5c0-.552-.449-1-1-1s-1,.448-1,1v3.5c0,.828-.671,1.5-1.5,1.5h-3.5Z"/></svg>
