<?xml version="1.0" encoding="UTF-8"?>
<svg xmlns="http://www.w3.org/2000/svg" id="Layer_1" data-name="Layer 1" viewBox="0 0 24 24" width="512" height="512"><path d="m12,0C5.383,0,0,5.383,0,12s5.383,12,12,12,12-5.383,12-12S18.617,0,12,0Zm0,21c-4.963,0-9-4.037-9-9S7.037,3,12,3s9,4.037,9,9-4.037,9-9,9Zm4-12.662v-.838c0-.828-.672-1.5-1.5-1.5s-1.5.672-1.5,1.5v.5h-2v-.5c0-.828-.672-1.5-1.5-1.5s-1.5.672-1.5,1.5v.838c-1.181.563-2,1.769-2,3.162v2c0,1.93,1.57,3.5,3.5,3.5h5c1.93,0,3.5-1.57,3.5-3.5v-2c0-1.393-.819-2.599-2-3.162Zm-1.5,5.662h-5c-.275,0-.5-.225-.5-.5v-1.5h6v1.5c0,.275-.225.5-.5.5Z"/></svg>
