<?xml version="1.0" encoding="UTF-8"?>
<svg xmlns="http://www.w3.org/2000/svg" id="Layer_1" data-name="Layer 1" viewBox="0 0 24 24" width="512" height="512"><path d="m12.224,2.002c-3.232-.042-6.314,1.161-8.631,3.436C1.276,7.713,0,10.753,0,14v3.5c0,2.481,2.019,4.5,4.5,4.5h15c2.481,0,4.5-2.019,4.5-4.5v-3.151c0-6.689-5.283-12.228-11.776-12.347Zm3.776,12.998v4h-2v-3c0-1.105-.895-2-2-2s-2,.895-2,2v3h-2v-4c0-1.978.323-3.776.882-5h6.236c.559,1.224.882,3.022.882,5Zm-4.001-10c.057,0,.113,0,.17.002,2.019.037,3.882.78,5.372,1.998h-1.522c-.011,0-.021,0-.032,0h-7.975c-.011,0-.021,0-.032,0h-1.639c1.599-1.298,3.574-2,5.657-2ZM3,17.5v-3.5c0-1.412.323-2.773.933-4h1.748c-.445,1.43-.68,3.133-.68,5v4h-.5c-.827,0-1.5-.673-1.5-1.5Zm18,0c0,.827-.673,1.5-1.5,1.5h-.5v-4c0-1.867-.236-3.57-.68-5h1.636c.666,1.303,1.044,2.784,1.044,4.349v3.151Z"/></svg>
