<?xml version="1.0" encoding="UTF-8"?>
<svg xmlns="http://www.w3.org/2000/svg" id="Layer_1" data-name="Layer 1" viewBox="0 0 24 24" width="512" height="512"><path d="M18,12.5c0,1.381-1.119,2.5-2.5,2.5s-2.5-1.119-2.5-2.5,1.119-2.5,2.5-2.5,2.5,1.119,2.5,2.5Zm-7,0c0-1.381-1.119-2.5-2.5-2.5s-2.5,1.119-2.5,2.5,1.119,2.5,2.5,2.5,2.5-1.119,2.5-2.5Zm13-.5c0,6.617-5.383,12-12,12S0,18.617,0,12,5.383,0,12,0s12,5.383,12,12Zm-3,0c0-4.963-4.037-9-9-9S3,7.037,3,12s4.037,9,9,9,9-4.037,9-9ZM9.223,6.975c.539-.123,.875-.659,.752-1.197-.123-.54-.669-.878-1.197-.752-1.252,.286-2.649,1.209-3.56,2.352-.344,.432-.272,1.061,.159,1.405,.184,.146,.404,.218,.622,.218,.294,0,.586-.129,.783-.377,.625-.784,1.629-1.463,2.44-1.648Zm9.56,.402c-.91-1.143-2.308-2.065-3.56-2.352-.53-.126-1.075,.212-1.197,.752-.123,.538,.213,1.074,.752,1.197,.812,.186,1.815,.864,2.44,1.648,.197,.248,.489,.377,.783,.377,.218,0,.438-.071,.622-.218,.432-.345,.503-.974,.159-1.405Zm-6.782,8.623c-1.44,0-2.597,1.148-2.972,2.22-.134,.383,.168,.78,.573,.78,1.158,0,3.638,0,4.788,0,.403,0,.706-.393,.576-.775-.365-1.074-1.53-2.224-2.965-2.224Z"/></svg>
