<?xml version="1.0" encoding="UTF-8"?>
<svg xmlns="http://www.w3.org/2000/svg" id="Layer_1" data-name="Layer 1" viewBox="0 0 24 24" width="512" height="512"><path d="m21,18c-.221,0-.434.027-.642.072l-4.525-5.128c.1-.299.167-.612.167-.945s-.067-.646-.167-.945l4.525-5.128c.207.045.421.072.642.072,1.657,0,3-1.343,3-3s-1.343-3-3-3c-1.304,0-2.403.837-2.816,2H5.816c-.413-1.163-1.512-2-2.816-2C1.343,0,0,1.343,0,3c0,1.304.837,2.403,2,2.816v12.367c-1.163.413-2,1.512-2,2.816,0,1.657,1.343,3,3,3,1.304,0,2.403-.837,2.816-2h12.367c.413,1.163,1.512,2,2.816,2,1.657,0,3-1.343,3-3s-1.343-3-3-3Zm-16,.779V5.221c.078-.07.151-.143.221-.221h11.955l-3.582,4.06c-.192-.039-.39-.06-.594-.06-1.657,0-3,1.343-3,3s1.343,3,3,3c.203,0,.402-.021.594-.06l3.582,4.06H5.221c-.07-.078-.143-.151-.221-.221Z"/></svg>
