<?xml version="1.0" encoding="UTF-8"?>
<svg xmlns="http://www.w3.org/2000/svg" id="Layer_1" data-name="Layer 1" viewBox="0 0 24 24">
  <path d="m16,9.5V1.5c0-.829.672-1.5,1.5-1.5s1.5.671,1.5,1.5v8c0,.829-.672,1.5-1.5,1.5s-1.5-.671-1.5-1.5Zm-3.5,1.5c.828,0,1.5-.671,1.5-1.5V1.5c0-.829-.672-1.5-1.5-1.5s-1.5.671-1.5,1.5v8c0,.829.671,1.5,1.5,1.5ZM22.5,2c-.828,0-1.5.671-1.5,1.5v10c0,.829.672,1.5,1.5,1.5s1.5-.671,1.5-1.5V3.5c0-.829-.672-1.5-1.5-1.5Zm-5.972,13.303l-1.308-.523-.523-1.308c-.114-.285-.39-.472-.697-.472s-.583.187-.697.472l-.52,1.301-1.299.492c-.287.108-.479.381-.484.687-.005.307.176.586.459.705l1.318.556.526,1.316c.114.285.39.472.697.472s.583-.187.697-.472l.523-1.308,1.308-.523c.285-.114.472-.39.472-.697s-.187-.583-.472-.697Zm6.921,4.384l-1.526-.611-.611-1.526c-.133-.332-.455-.55-.813-.55s-.68.218-.813.55l-.607,1.518-1.515.574c-.335.126-.558.444-.565.802-.006.358.206.684.535.822l1.538.648.614,1.536c.133.332.455.55.813.55s.68-.218.813-.55l.611-1.527,1.526-.61c.332-.133.55-.455.55-.813s-.218-.68-.55-.813ZM.382,7.047l1.099.463.438,1.097c.095.237.325.393.58.393s.485-.156.58-.393l.436-1.09,1.09-.436c.237-.095.393-.325.393-.58s-.156-.486-.393-.58l-1.09-.436-.436-1.09c-.095-.237-.325-.393-.58-.393s-.486.156-.58.393l-.433,1.084-1.082.41C.165,5.977.005,6.204,0,6.46c-.005.256.147.488.382.587Zm13.156,13.953h-2.193c-1.517,0-2.98-.635-4.016-1.742l-.45-.482c.058-.02.116-.042.172-.065,1.184-.491,1.949-1.635,1.949-2.917V3.5c0-.829-.671-1.5-1.5-1.5s-1.5.671-1.5,1.5v12.294c0,.039,0,.105-.097.145-.098.039-.144-.006-.167-.029,0,0-2.483-2.492-2.562-2.545-.701-.479-1.817-.556-2.593.223-.802.8-.69,1.938-.166,2.649.034.046,4.722,5.07,4.722,5.07,1.601,1.711,3.863,2.693,6.207,2.693h2.193c.828,0,1.5-.671,1.5-1.5s-.672-1.5-1.5-1.5Z"/>
</svg>
