<?xml version="1.0" encoding="UTF-8"?>
<svg xmlns="http://www.w3.org/2000/svg" id="Layer_1" data-name="Layer 1" viewBox="0 0 24 24" width="512" height="512"><path d="M22.631,1.723c-.862-.664-1.959-.885-3.007-.607-.37,.098-.765,.239-1.175,.387-.674,.244-1.37,.497-1.949,.497-1.274,0-2.748-.454-4.309-.934-1.704-.524-3.466-1.066-5.191-1.066C4.854,0,2.965,.834,1.758,1.534c-1.084,.629-1.758,1.792-1.758,3.037V22.5c0,.829,.672,1.5,1.5,1.5s1.5-.671,1.5-1.5v-6.211c.794-.493,2.332-1.289,4-1.289,1.274,0,2.748,.454,4.309,.934,1.704,.524,3.466,1.066,5.191,1.066,1.996,0,4.076-.503,5.563-1.346,1.194-.678,1.937-1.948,1.937-3.315V4.503c0-1.098-.499-2.111-1.369-2.78Zm-3.159,2.601c.322-.117,.63-.231,.921-.308,.185-.046,.325,.019,.409,.084,.074,.057,.198,.185,.198,.403v2.301c-.879,.422-2.43,1.057-4,1.176v-3.019c.915-.089,1.768-.382,2.472-.637Zm-5.472,.359v2.908c-.586-.156-1.188-.334-1.809-.525-.722-.222-1.456-.44-2.191-.626V3.543c.428,.123,.864,.254,1.309,.39,.886,.273,1.787,.546,2.691,.749Zm-10.737-.554c.889-.515,2.258-1.129,3.737-1.129v3c-1.513,0-2.902,.421-4,.905v-2.334c0-.181,.099-.346,.263-.441Zm-.263,8.775v-2.612c.788-.492,2.319-1.293,4-1.293v3c-1.513,0-2.902,.42-4,.904Zm7-.464v-2.898c.428,.123,.864,.254,1.309,.39,.886,.273,1.787,.546,2.691,.749v2.908c-.586-.156-1.188-.334-1.809-.525-.722-.222-1.456-.44-2.191-.626Zm10.584,.603c-.737,.418-2.036,.858-3.584,.939v-3c1.469-.079,2.885-.487,4-.916v2.272c0,.29-.16,.56-.416,.705Z"/></svg>
