<?xml version="1.0" encoding="UTF-8"?>
<svg xmlns="http://www.w3.org/2000/svg" id="Layer_1" data-name="Layer 1" viewBox="0 0 24 24" width="512" height="512"><path d="M22.19,11.44c.51-.84,.81-1.85,.81-2.94,0-2.7-1.81-4.88-4.29-5.39,.14-.09,.27-.2,.39-.32,.63-.63,.83-1.51,.89-2.12,.04-.38-.29-.71-.67-.67-.61,.06-1.49,.27-2.12,.89-.18,.18-.32,.37-.44,.58-.6-.67-1.25-1.1-1.47-1.24-.7-.44-1.62-.24-2.06,.46-.45,.7-.24,1.62,.45,2.07,.11,.07,.22,.15,.33,.24h-.05c-.76,0-1.5,.16-2.18,.45-.59-.26-1.24-.42-1.93-.45,.08-.07,.17-.14,.24-.21,.63-.63,.83-1.51,.89-2.12,.04-.38-.29-.71-.67-.67-.61,.06-1.49,.27-2.12,.89-.18,.18-.32,.37-.44,.58-.6-.67-1.25-1.1-1.47-1.24C5.61-.21,4.68,0,4.24,.69c-.45,.7-.24,1.62,.45,2.07,.16,.1,.33,.23,.49,.37C2.76,3.68,1,5.84,1,8.5c0,1.09,.3,2.09,.81,2.94-1.08,.6-1.81,1.75-1.81,3.06v4c0,3.03,2.47,5.5,5.5,5.5h13c3.03,0,5.5-2.47,5.5-5.5v-4c0-1.32-.73-2.47-1.81-3.06Zm-2.19-2.94c0,1.43-1.03,2.5-2.4,2.5h-3.17c.37-.75,.57-1.59,.57-2.5s-.2-1.75-.57-2.5h3.17c1.37,0,2.4,1.07,2.4,2.5ZM6.4,6h3.21c1.37,0,2.4,1.07,2.4,2.5s-1.03,2.5-2.4,2.5h-3.21c-1.37,0-2.4-1.07-2.4-2.5s1.03-2.5,2.4-2.5Zm14.6,12.5c0,1.38-1.12,2.5-2.5,2.5H5.5c-1.21,0-2.22-.86-2.45-2h14.45c.83,0,1.5-.67,1.5-1.5s-.67-1.5-1.5-1.5H3v-1.5c0-.28,.22-.5,.5-.5H20.5c.28,0,.5,.22,.5,.5v4Z"/></svg>
