<?xml version="1.0" encoding="UTF-8"?>
<svg xmlns="http://www.w3.org/2000/svg" id="Layer_1" data-name="Layer 1" viewBox="0 0 24 24" width="512" height="512"><path d="m13.5,12c0,.828-.672,1.5-1.5,1.5s-1.5-.672-1.5-1.5.672-1.5,1.5-1.5,1.5.672,1.5,1.5Zm10.5,1.784h0c0,.866-.488,1.634-1.273,2.004-.773.364-1.66.256-2.315-.285-.465-.383-.89-.709-1.314-.979-.033.934-.179,1.897-.365,2.651-1.027,4.161-4.45,6.957-8.517,6.958h-.002c-.864,0-1.631-.487-2.002-1.272-.365-.773-.256-1.661.284-2.316.376-.457.699-.939.967-1.445-.943-.03-1.897-.185-2.64-.369C2.68,17.709,0,14.366,0,10.216c0-.866.488-1.634,1.273-2.004.772-.364,1.66-.255,2.315.285.465.383.89.709,1.314.979.033-.934.179-1.897.365-2.651C6.291,2.68,9.634,0,13.784,0c.866,0,1.634.488,2.004,1.273.364.772.255,1.66-.285,2.315-.382.463-.687.891-.933,1.312.932.033,1.872.186,2.606.368,4.144,1.023,6.822,4.366,6.823,8.517Zm-3.271-1.774c-.597-1.876-2.145-3.305-4.272-3.831-1.084-.268-2.375-.359-3.073-.22-.693.144-1.392-.089-1.866-.616-.475-.527-.637-1.276-.424-1.957.233-.745.545-1.438.965-2.132-1.9.585-3.349,2.141-3.879,4.288-.265,1.072-.361,2.46-.22,3.16.141.694-.089,1.392-.616,1.867-.526.474-1.275.637-1.957.424-.788-.248-1.484-.601-2.117-1.004.597,1.876,2.145,3.305,4.272,3.831,1.085.268,2.377.361,3.073.22.134-.027.269-.041.401-.041.554,0,1.083.231,1.465.656.475.527.637,1.276.424,1.957-.248.79-.582,1.547-.999,2.267,1.902-.597,3.364-2.203,3.913-4.422.265-1.072.361-2.46.22-3.16-.141-.694.089-1.392.616-1.867.527-.474,1.274-.636,1.957-.424.788.248,1.484.601,2.117,1.004Z"/></svg>
