<?xml version="1.0" encoding="UTF-8"?>
<svg xmlns="http://www.w3.org/2000/svg" id="Layer_1" data-name="Layer 1" viewBox="0 0 24 24" width="512" height="512"><path d="m9,7.5c0-.828.672-1.5,1.5-1.5s1.5.672,1.5,1.5-.672,1.5-1.5,1.5-1.5-.672-1.5-1.5Zm14.827,7.967c-.677,2.314-1.903,4.403-3.548,6.041-1.59,1.584-3.834,2.492-6.157,2.492h-4.244c-2.323,0-4.567-.908-6.157-2.493-1.645-1.637-2.871-3.726-3.547-6.039-.382-1.309-.134-2.683.682-3.77.337-.449.75-.812,1.212-1.09-.039-.242-.067-.485-.067-.733,0-1.538.78-2.961,2.021-3.81.212-2.202,2.018-3.945,4.247-4.06.817-1.233,2.204-2.006,3.732-2.006s2.915.772,3.732,2.006c2.085.106,3.799,1.638,4.186,3.637,1.289.842,2.082,2.271,2.082,3.857,0,.362-.047.721-.13,1.072.487.282.923.658,1.275,1.127.815,1.087,1.063,2.461.683,3.769ZM5,9.875c0,.043.02.082.023.125h8.069c-.056-.157-.092-.324-.092-.5,0-.828.672-1.5,1.5-1.5s1.5.672,1.5,1.5c0,.176-.036.343-.092.5h3.004c.052-.16.088-.326.088-.5,0-.673-.411-1.266-1.046-1.51-.597-.229-.982-.81-.962-1.447,0-.027.003-.064.007-.103-.031-.8-.691-1.44-1.499-1.44-.098,0-.206.014-.33.042-.755.167-1.516-.264-1.756-1-.202-.623-.771-1.042-1.414-1.042s-1.212.419-1.414,1.042c-.24.737-1.003,1.168-1.756,1-.124-.028-.232-.042-.33-.042-.827,0-1.5.673-1.5,1.5,0,.073.017.144.026.214.107.703-.293,1.399-.961,1.646-.647.239-1.065.834-1.065,1.515Zm15.744,3.623c-.14-.187-.454-.498-.996-.498H4.252c-.542,0-.856.312-.996.498-.243.324-.317.735-.202,1.129.526,1.803,1.515,3.491,2.784,4.754,1.032,1.029,2.505,1.619,4.04,1.619h4.244c1.535,0,3.008-.59,4.04-1.618,1.27-1.264,2.258-2.952,2.785-4.756.114-.393.04-.804-.203-1.128Z"/></svg>
