<?xml version="1.0" encoding="UTF-8"?>
<svg xmlns="http://www.w3.org/2000/svg" id="Layer_1" data-name="Layer 1" viewBox="0 0 24 24" width="512" height="512"><path d="m16.581,13.186c-.449-.32-1.075-.217-1.395.233l-.972,1.36-1.606-2.249c.836-.533,1.392-1.468,1.392-2.531,0-1.654-1.346-3-3-3h-1c-1.654,0-3,1.346-3,3v5c0,.552.448,1,1,1s1-.448,1-1v-2h1.485l2.5,3.5-1.371,1.919c-.321.449-.217,1.074.233,1.395.176.125.379.186.58.186.312,0,.62-.146.815-.419l.972-1.36.972,1.36c.195.273.503.419.815.419.201,0,.404-.061.58-.186.45-.321.554-.946.233-1.395l-1.371-1.919,1.371-1.919c.321-.449.217-1.074-.233-1.395Zm-7.581-3.186c0-.551.449-1,1-1h1c.551,0,1,.449,1,1s-.449,1-1,1h-2v-1Zm7.663-7.998c-.562-1.183-1.769-2.002-3.163-2.002h-3c-1.395,0-2.601.819-3.163,2.002-2.958.086-5.337,2.52-5.337,5.498v11c0,3.033,2.467,5.5,5.5,5.5h9c3.033,0,5.5-2.467,5.5-5.5V7.5c0-2.978-2.379-5.411-5.337-5.498Zm2.337,16.498c0,1.378-1.122,2.5-2.5,2.5H7.5c-1.378,0-2.5-1.122-2.5-2.5V7.5c0-1.378,1.122-2.5,2.5-2.5h1c.829,0,1.5-.671,1.5-1.5,0-.276.224-.5.5-.5h3c.276,0,.5.224.5.5,0,.829.671,1.5,1.5,1.5h1c1.378,0,2.5,1.122,2.5,2.5v11Z"/></svg>
