<?xml version="1.0" encoding="UTF-8"?>
<svg xmlns="http://www.w3.org/2000/svg" id="Layer_1" data-name="Layer 1" viewBox="0 0 24 24" width="512" height="512"><path d="M19,18c-1.65,0-3-1.35-3-3s1.35-3,3-3,3,1.35,3,3-1.35,3-3,3Zm4,6H15c-.31,0-.6-.14-.79-.39-.19-.24-.26-.56-.18-.86,.56-2.17,2.65-3.75,4.97-3.75s4.41,1.58,4.97,3.75c.08,.3,.01,.62-.18,.86-.19,.24-.48,.39-.79,.39Zm-11-1.5c0-.83-.67-1.5-1.5-1.5H5.5c-1.38,0-2.5-1.12-2.5-2.5V5.5c0-1.38,1.12-2.5,2.5-2.5h13c1.38,0,2.5,1.12,2.5,2.5v4c0,.83,.67,1.5,1.5,1.5s1.5-.67,1.5-1.5V5.5c0-3.03-2.47-5.5-5.5-5.5H5.5C2.47,0,0,2.47,0,5.5v13c0,3.03,2.47,5.5,5.5,5.5h5c.83,0,1.5-.67,1.5-1.5Zm.63-3.53c.83-.07,1.43-.8,1.36-1.63s-.81-1.43-1.63-1.36c-.12,.01-.24,.02-.37,.02-2.21,0-4-1.79-4-4s1.79-4,4-4c1.2,0,2.32,.53,3.09,1.46,.53,.64,1.47,.73,2.11,.2,.64-.53,.73-1.47,.2-2.11-1.33-1.62-3.3-2.54-5.4-2.54-3.86,0-7,3.14-7,7s3.14,7,7,7c.21,0,.42,0,.63-.03Zm-.63-5.47c.83,0,1.5-.67,1.5-1.5s-.67-1.5-1.5-1.5-1.5,.67-1.5,1.5,.67,1.5,1.5,1.5Z"/></svg>
