<?xml version="1.0" encoding="UTF-8"?>
<svg xmlns="http://www.w3.org/2000/svg" id="Layer_1" data-name="Layer 1" viewBox="0 0 24 24" width="512" height="512"><path d="M23.715,6.937l-1.022-2.236c-.453-.753-1.14-1.337-1.956-1.663L14.223,.43c-.716-.286-1.473-.43-2.23-.43s-1.517,.144-2.234,.431L3.261,3.038c-.815,.327-1.5,.91-1.953,1.662L.285,6.937c-.657,1.095-.131,2.517,1.08,2.92l6.971,3.124c.208,.069,.422,.103,.632,.103,.688,0,1.346-.356,1.715-.971l1.306-2.448,1.326,2.448c.369,.615,1.028,.971,1.715,.971,.211,0,.424-.033,.632-.103l6.971-3.124c1.211-.404,1.737-1.825,1.08-2.92Zm-5.218-1.565l-6.496,2.407-6.498-2.407,5.374-2.156c.357-.143,.733-.216,1.117-.216s.759,.072,1.115,.215l5.388,2.157Zm3.502,6.96l-.003,4.925c-.002,2.273-1.452,4.282-3.608,5.001l-4.126,1.375c-.73,.244-1.498,.365-2.266,.365s-1.535-.122-2.265-.365l-4.122-1.374c-2.161-.72-3.61-2.733-3.608-5.009v-4.917l3,1.344v3.574c0,.983,.625,1.851,1.557,2.162l3.939,1.313,.002-5.968c.573-.236,1.094-.594,1.502-1.066,.409,.473,.927,.83,1.498,1.069l-.002,5.964,3.943-1.313c.93-.31,1.556-1.177,1.557-2.158l.002-3.582,3.001-1.34Z"/></svg>
