<?xml version="1.0" encoding="UTF-8"?>
<svg xmlns="http://www.w3.org/2000/svg" id="Layer_1" data-name="Layer 1" viewBox="0 0 24 24">
  <path d="m24,7.5v9c0,3.033-2.467,5.5-5.5,5.5h-2c-.829,0-1.5-.671-1.5-1.5s.671-1.5,1.5-1.5h2c1.378,0,2.5-1.122,2.5-2.5V7.5c0-1.378-1.122-2.5-2.5-2.5H5.5c-.89,0-1.72.479-2.167,1.251-.415.716-1.332.962-2.049.547-.717-.415-.962-1.332-.547-2.049.98-1.696,2.806-2.749,4.763-2.749h13c3.033,0,5.5,2.467,5.5,5.5ZM1.5,19c-.828,0-1.5.672-1.5,1.5s.672,1.5,1.5,1.5,1.5-.672,1.5-1.5-.672-1.5-1.5-1.5Zm0-5c-.829,0-1.5.671-1.5,1.5s.671,1.5,1.5,1.5c1.93,0,3.5,1.57,3.5,3.5,0,.829.671,1.5,1.5,1.5s1.5-.671,1.5-1.5c0-3.584-2.916-6.5-6.5-6.5Zm0-5c-.829,0-1.5.671-1.5,1.5s.671,1.5,1.5,1.5c4.687,0,8.5,3.813,8.5,8.5,0,.829.671,1.5,1.5,1.5s1.5-.671,1.5-1.5c0-6.341-5.159-11.5-11.5-11.5Z"/>
</svg>
