<?xml version="1.0" encoding="UTF-8"?>
<svg xmlns="http://www.w3.org/2000/svg" id="Layer_1" data-name="Layer 1" viewBox="0 0 24 24" width="512" height="512"><path d="m23.561,2.561l-9,9c-.293.293-.677.439-1.061.439s-.768-.146-1.061-.439c-.586-.586-.586-1.535,0-2.121L21.439.439c.586-.586,1.535-.586,2.121,0s.586,1.535,0,2.121Zm-15.061,6.439c.384,0,.768-.146,1.061-.439l4-4c.586-.586.586-1.535,0-2.121s-1.535-.586-2.121,0l-4,4c-.586.586-.586,1.535,0,2.121.293.293.677.439,1.061.439Zm10.939,1.439l-4,4c-.586.586-.586,1.535,0,2.121.293.293.677.439,1.061.439s.768-.146,1.061-.439l4-4c.586-.586.586-1.535,0-2.121s-1.535-.586-2.121,0Zm-7.523,4.561h-3.251l-1.151-3.09c-.158-.424-.563-.705-1.015-.705s-.857.281-1.015.705l-1.151,3.09H1.083c-.454,0-.86.284-1.017.71-.157.426-.031.905.316,1.199l2.576,2.096-1.019,3.267c-.138.438.016.917.384,1.192.192.144.421.216.65.216.21,0,.42-.061.603-.183l2.934-1.964,2.983,1.943c.385.25.887.231,1.253-.05.365-.281.512-.762.367-1.199l-1.06-3.229,2.563-2.088c.348-.293.476-.773.32-1.2-.156-.427-.563-.712-1.018-.712Z"/></svg>
