<?xml version="1.0" encoding="UTF-8"?>
<svg xmlns="http://www.w3.org/2000/svg" id="Layer_1" data-name="Layer 1" viewBox="0 0 24 24" width="512" height="512"><path d="M8.01,11c-.55,0-1-.45-1-1h-.27c-1.07,0-2.06-.57-2.6-1.5-.28-.48-.11-1.09,.37-1.37,.48-.28,1.09-.11,1.37,.36,.18,.31,.51,.5,.87,.5h2.64c.34,0,.62-.28,.62-.62,0-.31-.22-.57-.52-.62l-3.29-.55c-1.27-.21-2.19-1.3-2.19-2.59,0-1.45,1.18-2.62,2.62-2.62h.38c0-.55,.45-1,1-1s1,.45,1,1h.27c1.07,0,2.06,.57,2.6,1.5,.28,.48,.11,1.09-.36,1.37-.48,.28-1.09,.11-1.37-.36-.18-.31-.51-.5-.87-.5h-2.64c-.34,0-.62,.28-.62,.62,0,.31,.22,.56,.52,.62l3.29,.55c1.27,.21,2.19,1.3,2.19,2.59,0,1.45-1.18,2.62-2.62,2.62h-.38c0,.55-.45,1-1,1Zm15.01,3.47l-5.2,5.94c-1.99,2.28-4.88,3.59-7.91,3.59H4.51C2.02,24,0,21.98,0,19.5v-4C0,13.02,2.02,11,4.51,11h7.86c.94,0,1.8,.36,2.45,.95l2.44-2.68c.7-.77,1.65-1.22,2.69-1.26,1.03-.05,2.03,.31,2.8,1.01,1.57,1.43,1.69,3.87,.28,5.46Zm-2.3-3.24c-.17-.16-.4-.23-.64-.23-.24,.01-.45,.11-.61,.29l-3.5,3.84c-.22,1.59-1.48,2.88-3.09,3.12l-5.16,.74c-.82,.11-1.58-.45-1.7-1.27s.45-1.58,1.27-1.7l5.16-.74c.31-.04,.55-.32,.55-.63,0-.35-.29-.64-.64-.64H4.51c-.83,0-1.5,.67-1.5,1.5v4c0,.83,.67,1.5,1.5,1.5h5.41c2.16,0,4.22-.93,5.65-2.56l5.21-5.95c.33-.37,.3-.93-.05-1.25Z"/></svg>
