<?xml version="1.0" encoding="UTF-8"?>
<svg xmlns="http://www.w3.org/2000/svg" id="Layer_1" data-name="Layer 1" viewBox="0 0 24 24" width="512" height="512"><path d="M18.5,16v1c0,.552-.448,1-1,1h-1c-.552,0-1-.448-1-1v-1c0-.552,.448-1,1-1h1c.552,0,1,.448,1,1Zm-1-11h-1c-.552,0-1,.448-1,1v1c0,.552,.448,1,1,1h1c.552,0,1-.448,1-1v-1c0-.552-.448-1-1-1Zm0,5h-1c-.552,0-1,.448-1,1v1c0,.552,.448,1,1,1h1c.552,0,1-.448,1-1v-1c0-.552-.448-1-1-1Zm6.5-4.5v13c0,3.033-2.467,5.5-5.5,5.5H5.5c-3.033,0-5.5-2.467-5.5-5.5V10.157c0-1.469,.572-2.85,1.611-3.889l2.122-2.122c1.479-1.479,4.057-1.479,5.535,0l.764,.764c.295-2.756,2.635-4.91,5.469-4.91h3c3.033,0,5.5,2.467,5.5,5.5Zm-14,4.657c0-.658-.267-1.302-.732-1.768l-2.122-2.122c-.17-.17-.406-.268-.646-.268s-.476,.098-.646,.268l-2.122,2.122c-.465,.465-.732,1.109-.732,1.768v8.343c0,1.378,1.122,2.5,2.5,2.5h4.5V10.157Zm11-4.657c0-1.378-1.122-2.5-2.5-2.5h-3c-1.378,0-2.5,1.122-2.5,2.5v15.5h5.5c1.378,0,2.5-1.122,2.5-2.5V5.5ZM7,10h-1c-.552,0-1,.448-1,1v1c0,.552,.448,1,1,1h1c.552,0,1-.448,1-1v-1c0-.552-.448-1-1-1Zm0,5h-1c-.552,0-1,.448-1,1v1c0,.552,.448,1,1,1h1c.552,0,1-.448,1-1v-1c0-.552-.448-1-1-1Z"/></svg>
