<?xml version="1.0" encoding="UTF-8"?>
<svg xmlns="http://www.w3.org/2000/svg" id="Layer_1" data-name="Layer 1" viewBox="0 0 24 24" width="512" height="512"><path d="m10,10.5c0,.828-.672,1.5-1.5,1.5s-1.5-.672-1.5-1.5.672-1.5,1.5-1.5,1.5.672,1.5,1.5Zm5.5-1.5c-.828,0-1.5.672-1.5,1.5s.672,1.5,1.5,1.5,1.5-.672,1.5-1.5-.672-1.5-1.5-1.5Zm6.5,1v12.5c0,.763-.573,1.425-1.331,1.511-.76.087-1.46-.389-1.631-1.133-.098-.425-.612-.877-1.372-.877s-1.273.452-1.371.877c-.157.681-.763,1.164-1.462,1.164s-1.305-.482-1.462-1.164c-.098-.425-.612-.877-1.372-.877s-1.274.452-1.372.877c-.157.681-.763,1.164-1.462,1.164s-1.305-.482-1.462-1.164c-.098-.425-.612-.877-1.371-.877s-1.274.452-1.372.877c-.158.688-.77,1.164-1.46,1.164-.057,0-.113-.003-.171-.01-.758-.086-1.331-.728-1.331-1.49v-12.541C2,4.486,6.486,0,12,0s10,4.486,10,10Zm-3,0c0-3.86-3.14-7-7-7s-7,3.14-7,7v9.193c.423-.126.872-.193,1.333-.193,1.064,0,2.06.359,2.833.961.773-.603,1.77-.961,2.833-.961s2.06.359,2.833.961c1.109-.863,2.766-1.184,4.167-.768v-9.193Z"/></svg>
