<?xml version="1.0" encoding="UTF-8"?>
<svg xmlns="http://www.w3.org/2000/svg" id="Layer_1" data-name="Layer 1" viewBox="0 0 24 24" width="512" height="512"><path d="M18.5,2H5.5C2.47,2,0,4.47,0,7.5v9c0,2.13,1.22,3.99,3,4.9v1.1c0,.83,.67,1.5,1.5,1.5s1.5-.67,1.5-1.5v-.5h12v.5c0,.83,.67,1.5,1.5,1.5s1.5-.67,1.5-1.5v-1.1c1.78-.91,3-2.77,3-4.9V7.5c0-3.03-2.47-5.5-5.5-5.5Zm2.5,14.5c0,1.38-1.12,2.5-2.5,2.5H5.5c-1.21,0-2.22-.86-2.45-2h.45c.83,0,1.5-.67,1.5-1.5s-.67-1.5-1.5-1.5h-.5v-4h.5c.83,0,1.5-.67,1.5-1.5s-.67-1.5-1.5-1.5h-.45c.23-1.14,1.24-2,2.45-2h13c1.38,0,2.5,1.12,2.5,2.5v9Zm-8-4.5c0,.83,.67,1.5,1.5,1.5h3.25c-.64,2.02-2.51,3.5-4.75,3.5-3.12,0-5.57-2.85-4.88-6.09,.41-1.92,1.98-3.45,3.91-3.82,2.65-.5,4.99,1.1,5.72,3.41h-3.25c-.83,0-1.5,.67-1.5,1.5Z"/></svg>
