<?xml version="1.0" encoding="UTF-8"?>
<svg xmlns="http://www.w3.org/2000/svg" id="Layer_1" data-name="Layer 1" viewBox="0 0 24 24">
  <path d="m12.756,19.007l-.181.502c-.477,1.192-1.414,2.044-2.593,2.391l-6.813,1.999c-.229.067-.464.1-.696.1-.646,0-1.277-.253-1.747-.724-.64-.64-.879-1.577-.624-2.445l1.998-6.812c.346-1.179,1.198-2.118,2.34-2.575l.587-.198c.786-.262,1.635.164,1.896.949.262.786-.163,1.636-.949,1.897l-.503.167c-.197.082-.407.312-.492.603l-1.145,3.904,2.458-2.471c.39-.392,1.022-.393,1.414-.004s.394,1.022.004,1.414l-2.437,2.45,3.866-1.134c.29-.085.521-.295.634-.577l.162-.452c.28-.78,1.14-1.183,1.919-.904.779.28,1.184,1.14.903,1.919Zm10.805,2.432c.586.585.586,1.536,0,2.121-.293.293-.677.439-1.061.439s-.768-.146-1.061-.439L.439,2.561C-.146,1.975-.146,1.025.439.439,1.025-.146,1.975-.146,2.561.439l7.593,7.593,6.873-6.839c1.592-1.591,4.184-1.589,5.775.003.772.771,1.197,1.798,1.197,2.889s-.425,2.118-1.197,2.89l-6.87,6.836,7.628,7.628Zm-9.749-9.749l6.873-6.839c.203-.203.315-.475.315-.765s-.113-.562-.318-.768c-.423-.423-1.111-.425-1.536,0l-6.87,6.836,1.536,1.536Z"/>
</svg>
