<?xml version="1.0" encoding="UTF-8"?>
<svg xmlns="http://www.w3.org/2000/svg" id="Layer_1" data-name="Layer 1" viewBox="0 0 24 24" width="512" height="512"><path d="M11.914,11.829c-.218,.616-.796,1-1.414,1-.166,0-.335-.027-.5-.086-.565-.2-1.072-.506-1.501-.891-.797,.713-1.848,1.148-2.999,1.148h-1c-.169,0-.336-.01-.5-.028v3.028h5.5c.828,0,1.5,.672,1.5,1.5s-.672,1.5-1.5,1.5H4v.5c0,.827,.673,1.5,1.5,1.5h4c.828,0,1.5,.672,1.5,1.5s-.672,1.5-1.5,1.5H5.5c-2.481,0-4.5-2.019-4.5-4.5,0,0,.003-8.11,.009-8.164-.63-.775-1.009-1.762-1.009-2.836,0-.133,1.183-4.568,1.183-4.568C1.912,1.56,4.024,0,6.454,0h11.092c2.43,0,4.542,1.56,5.257,3.882l.604,2.227c.216,.8-.257,1.623-1.057,1.84-.799,.212-1.624-.257-1.84-1.057l-.589-2.177c-.311-1.006-1.271-1.715-2.375-1.715h-.546v.5c0,.828-.672,1.5-1.5,1.5s-1.5-.672-1.5-1.5v-.5h-4v.5c0,.828-.672,1.5-1.5,1.5s-1.5-.672-1.5-1.5v-.5h-.546c-1.104,0-2.064,.709-2.39,1.765l-1.056,3.901c.083,.749,.72,1.334,1.491,1.334h1c.827,0,1.5-.673,1.5-1.5s.672-1.5,1.5-1.5,1.5,.672,1.5,1.5c0,.635,.402,1.203,1,1.415,.781,.276,1.19,1.133,.914,1.914Zm12.086,6.171v3c0,1.657-1.343,3-3,3h-5c-1.657,0-3-1.343-3-3v-3c0-.888,.386-1.686,1-2.235v-2.265c0-2.481,2.019-4.5,4.5-4.5s4.5,2.019,4.5,4.5v2.265c.614,.549,1,1.347,1,2.235Zm-4,1.5c0-.828-.672-1.5-1.5-1.5s-1.5,.672-1.5,1.5,.672,1.5,1.5,1.5,1.5-.672,1.5-1.5Zm0-6c0-.827-.673-1.5-1.5-1.5s-1.5,.673-1.5,1.5v1.5h3v-1.5Z"/></svg>
