<?xml version="1.0" encoding="UTF-8"?>
<svg xmlns="http://www.w3.org/2000/svg" id="Layer_1" data-name="Layer 1" viewBox="0 0 24 24" width="512" height="512"><path d="M12,0C5.383,0,0,5.383,0,12c0,1.372,.23,2.718,.684,4,.276,.781,1.134,1.19,1.914,.914,.781-.276,1.19-1.133,.914-1.914-.205-.58-.341-1.18-.423-1.791l1.912,1.912v3.477c0,1.601,.837,3.11,2.185,3.939,1.551,.957,3.216,1.463,4.815,1.463s3.264-.506,4.814-1.462c1.349-.83,2.186-2.34,2.186-3.94v-3.477l1.912-1.912c-.082,.61-.218,1.21-.423,1.791-.276,.781,.133,1.638,.914,1.914,.165,.059,.334,.086,.5,.086,.618,0,1.196-.384,1.414-1,.454-1.282,.684-2.628,.684-4C24,5.383,18.617,0,12,0Zm0,3c4.02,0,7.432,2.65,8.583,6.296l-3.704,3.704H7.121l-3.704-3.704c1.151-3.645,4.563-6.296,8.583-6.296Zm4,15.598c0,.566-.291,1.098-.76,1.387-.751,.463-1.923,1.016-3.24,1.016s-2.489-.553-3.242-1.017c-.468-.288-.758-.819-.758-1.386v-2.598h8v2.598ZM5.758,8.159c.119-.176,1.226-1.727,3.474-2.135,.81-.148,1.596,.393,1.744,1.207,.148,.815-.392,1.597-1.208,1.744-1.009,.184-1.521,.859-1.526,.865-.29,.429-.762,.659-1.243,.659-.29,0-.582-.083-.84-.258-.686-.465-.865-1.397-.4-2.083Zm7.266-.928c.148-.814,.936-1.355,1.744-1.207,2.248,.408,3.355,1.959,3.474,2.135,.465,.686,.285,1.618-.4,2.083-.258,.174-.55,.258-.84,.258-.481,0-.954-.23-1.243-.659-.006-.006-.512-.681-1.526-.865-.815-.147-1.356-.929-1.208-1.744Z"/></svg>
