<?xml version="1.0" encoding="UTF-8"?>
<svg xmlns="http://www.w3.org/2000/svg" id="Layer_1" data-name="Layer 1" viewBox="0 0 24 24" width="512" height="512"><path d="m22.5,15c-.828,0-1.5.671-1.5,1.5,0,.276-.225.5-.5.5s-.5-.224-.5-.5v-3.485s0-.006,0-.009c0-.003,0-.005,0-.008,0-1.383.655-2.998,2.5-2.998.828,0,1.5-.671,1.5-1.5s-.672-1.5-1.5-1.5c-2.073,0-3.771,1.072-4.708,2.775-.567-.364-1.215-.714-1.946-1.008l1.56-2.808c1.463-.2,2.594-1.441,2.594-2.959,0-1.657-1.343-3-3-3s-3,1.343-3,3c0,.68.235,1.299.616,1.802l-1.805,3.248c-.267-.022-.533-.044-.811-.044s-.545.023-.811.044l-1.805-3.248c.381-.503.616-1.123.616-1.803,0-1.657-1.343-3-3-3s-3,1.343-3,3c0,1.518,1.131,2.759,2.594,2.959l1.56,2.808c-.731.294-1.379.644-1.946,1.008-.938-1.703-2.636-2.775-4.708-2.775-.828,0-1.5.671-1.5,1.5s.672,1.5,1.5,1.5c1.846,0,2.5,1.616,2.5,3v3.5c0,.276-.225.5-.5.5s-.5-.224-.5-.5c0-.829-.672-1.5-1.5-1.5s-1.5.671-1.5,1.5c0,1.93,1.57,3.5,3.5,3.5,1.864,0,3.378-1.468,3.48-3.307.464.251.972.481,1.52.68v1.127c0,2.5-1.051,2.5-1.5,2.5-.828,0-1.5.671-1.5,1.5s.672,1.5,1.5,1.5c2.817,0,4.5-2.056,4.5-5.5v-.521c.167.008.328.027.5.027s.333-.019.5-.027v.521c0,3.187,2.103,5.5,5,5.5.828,0,1.5-.671,1.5-1.5s-.672-1.5-1.5-1.5c-1.903,0-2-2.083-2-2.5v-1.127c.548-.199,1.056-.429,1.52-.68.103,1.838,1.617,3.306,3.48,3.306,1.93,0,3.5-1.57,3.5-3.5,0-.829-.672-1.5-1.5-1.5Zm-10.5.006c-2.16,0-3.877-.996-4.937-1.832h0c-.047-.037-.062-.111-.062-.168s.016-.132.062-.168c1.06-.835,2.776-1.832,4.937-1.832s3.878.996,4.937,1.832c.045.035.061.105.063.162v.013c-.001.056-.017.127-.063.162-1.06.835-2.776,1.832-4.937,1.832Z"/></svg>
