<?xml version="1.0" encoding="UTF-8"?>
<svg xmlns="http://www.w3.org/2000/svg" id="Layer_1" data-name="Layer 1" viewBox="0 0 24 24" width="512" height="512"><path d="m22,7.05V1.5c0-.78-.599-1.431-1.376-1.495-.775-.063-1.475.479-1.603,1.249-.398,2.39-3.63,2.747-5.521,2.747H5.5C2.467,4,0,6.467,0,9.5c0,1.899.967,3.576,2.434,4.564l3.88,8.73c.326.733,1.053,1.206,1.855,1.206.646,0,1.296-.186,1.795-.596,1.008-.828,1.293-2.156.797-3.272l-2.281-5.132h5.019c1.891,0,5.122.357,5.521,2.747.121.729.752,1.253,1.478,1.253,1.001,0,1.501-.72,1.501-1.5v-5.55c1.141-.232,2-1.24,2-2.45s-.859-2.218-2-2.45Zm-15,4.95h-1.5c-1.378,0-2.5-1.122-2.5-2.5s1.122-2.5,2.5-2.5h1.5v5Zm12,1.175c-1.411-.768-3.27-1.175-5.5-1.175h-3.5v-5h3.5c2.23,0,4.089-.408,5.5-1.175v7.351Z"/></svg>
