<?xml version="1.0" encoding="UTF-8"?>
<svg xmlns="http://www.w3.org/2000/svg" id="Layer_1" data-name="Layer 1" viewBox="0 0 24 24" width="512" height="512"><path d="M10.56,15.56L2.56,23.56c-.29,.29-.68,.44-1.06,.44s-.77-.15-1.06-.44c-.59-.59-.59-1.54,0-2.12L8.44,13.44c.59-.59,1.54-.59,2.12,0,.59,.59,.59,1.54,0,2.12ZM23.56,.44c-.59-.59-1.54-.59-2.12,0l-2.44,2.44C17.45,1.35,15.4,.32,13.15,.06c-2.78-.31-5.47,.5-7.59,2.29-2.09,1.76-3.38,4.34-3.54,7.06-.05,.83,.58,1.54,1.41,1.58,.83,.05,1.54-.58,1.58-1.41,.11-1.91,1.01-3.71,2.48-4.94,1.48-1.25,3.37-1.82,5.32-1.6,3.16,.35,5.74,2.9,6.13,6.06,.22,1.79-.24,3.57-1.28,4.99-.41,.42-1.67,1.68-1.67,3.77s-1.76,3.13-3.5,3.13c-.83,0-1.5,.67-1.5,1.5s.67,1.5,1.5,1.5c3.71,0,6.5-2.63,6.5-6.13,0-.86,.5-1.36,.8-1.66,.14-.14,.23-.25,.29-.32,1.5-2.05,2.15-4.59,1.84-7.14-.15-1.23-.54-2.39-1.11-3.44l2.74-2.74c.59-.59,.59-1.54,0-2.12ZM13.51,13.62c.29,.25,.64,.38,.99,.38,.42,0,.83-.17,1.13-.51,.84-.95,1.38-2.32,1.38-3.49,0-2.76-2.24-5-5-5-2.49,0-4.64,1.84-4.98,4.29-.12,.82,.45,1.58,1.27,1.7,.82,.12,1.58-.45,1.7-1.27,.14-.98,1.01-1.71,2.02-1.71,1.1,0,2,.9,2,2,0,.46-.27,1.1-.62,1.51-.55,.62-.49,1.57,.13,2.12Z"/></svg>
