<?xml version="1.0" encoding="UTF-8"?>
<svg xmlns="http://www.w3.org/2000/svg" id="Layer_1" data-name="Layer 1" viewBox="0 0 24 24" width="512" height="512"><path d="m22.833,2.476c-.852-.938-2.066-1.476-3.333-1.476H4.5c-1.267,0-2.481.538-3.333,1.476C.316,3.414-.102,4.675.021,5.935l1.087,11.193c.325,3.347,3.106,5.872,6.47,5.872h8.844c3.363,0,6.145-2.524,6.47-5.872l1.087-11.193c.123-1.261-.295-2.521-1.146-3.459ZM3.39,4.492c.287-.317.682-.492,1.11-.492h15c.429,0,.823.175,1.11.492.288.317.424.726.382,1.153l-.714,7.355H3.722l-.714-7.355c-.042-.426.094-.835.382-1.152Zm13.032,15.508H7.578c-1.811,0-3.309-1.359-3.483-3.162l-.081-.838h15.973l-.081.838c-.175,1.802-1.673,3.162-3.483,3.162Z"/></svg>
