<?xml version="1.0" encoding="UTF-8"?>
<svg xmlns="http://www.w3.org/2000/svg" id="Layer_1" data-name="Layer 1" viewBox="0 0 24 24">
  <path d="m16,19.5c0,.679-.454,1.246-1.072,1.431.299.566.231,1.275-.246,1.751-.293.293-.677.439-1.061.439-.241,0-.472-.078-.69-.194-.185.619-.752,1.073-1.431,1.073s-1.246-.454-1.431-1.073c-.218.115-.45.194-.69.194-.384,0-.768-.146-1.061-.439-.477-.476-.545-1.185-.246-1.751-.619-.185-1.072-.752-1.072-1.431s.454-1.246,1.072-1.431c-.299-.566-.231-1.275.246-1.751.477-.477,1.185-.545,1.751-.246.185-.619.752-1.073,1.431-1.073s1.246.454,1.431,1.073c.566-.299,1.274-.231,1.751.246.477.476.545,1.185.246,1.751.619.185,1.072.752,1.072,1.431Zm2.5,1.5c-.828,0-1.5.672-1.5,1.5s.672,1.5,1.5,1.5,1.5-.672,1.5-1.5-.672-1.5-1.5-1.5Zm-14,0c-.828,0-1.5.672-1.5,1.5s.672,1.5,1.5,1.5,1.5-.672,1.5-1.5-.672-1.5-1.5-1.5ZM17.431,4.066c-1.051-2.442-3.453-4.066-6.181-4.066-3.313,0-6.04,2.338-6.623,5.493-2.181.929-3.627,3.061-3.627,5.507,0,2.007.997,3.872,2.666,4.989.688.46,1.621.276,2.081-.412.461-.688.276-1.62-.412-2.081-.835-.559-1.334-1.492-1.334-2.496,0-1.41.963-2.611,2.342-2.92.671-.151,1.154-.738,1.171-1.426.052-2.049,1.694-3.654,3.737-3.654,1.729,0,3.222,1.18,3.631,2.869.167.688.782,1.168,1.498,1.146.063-.002.125-.007.19-.015,1.898.037,3.431,1.593,3.431,3.5,0,1.392-.825,2.652-2.101,3.209-.759.332-1.105,1.216-.774,1.975.246.563.797.9,1.375.9.2,0,.404-.041.6-.126,2.369-1.035,3.899-3.374,3.899-5.958,0-3.268-2.424-5.98-5.569-6.434Z"/>
</svg>
