<?xml version="1.0" encoding="UTF-8"?>
<svg xmlns="http://www.w3.org/2000/svg" id="Layer_1" data-name="Layer 1" viewBox="0 0 24 24">
  <path d="m23.561,23.561c-.293.293-.677.439-1.061.439s-.768-.146-1.061-.439L.439,2.561C-.146,1.975-.146,1.025.439.439S1.975-.146,2.561.439l9.439,9.439v-4.879c0-2.757,2.243-5,5-5h2.5c.828,0,1.5.672,1.5,1.5s-.672,1.5-1.5,1.5h-2.5c-1.103,0-2,.897-2,2v7.879l8.561,8.561c.586.586.586,1.535,0,2.121Zm-9.834-4.436c-.725-.399-1.637-.139-2.039.586-.44.795-1.278,1.289-2.187,1.289-1.379,0-2.5-1.121-2.5-2.5,0-.909.494-1.747,1.289-2.188.725-.401.987-1.314.586-2.039-.402-.726-1.314-.984-2.039-.586-1.749.97-2.836,2.813-2.836,4.812,0,3.032,2.468,5.5,5.5,5.5,1.999,0,3.843-1.087,4.812-2.836.401-.725.139-1.638-.586-2.039Z"/>
</svg>
