<?xml version="1.0" encoding="UTF-8"?>
<svg xmlns="http://www.w3.org/2000/svg" id="Layer_1" data-name="Layer 1" viewBox="0 0 24 24" width="512" height="512"><path d="M12,24c-1.506,0-2.928-.583-4.003-1.64l-3.734-3.466C-.066,14.548-.066,7.543,4.219,3.238,6.296,1.15,9.06,0,12,0s5.703,1.15,7.78,3.238c4.285,4.305,4.285,11.31,0,15.615l-3.808,3.537c-1.046,1.028-2.468,1.61-3.973,1.61Zm0-21c-2.136,0-4.144,.836-5.654,2.354-3.124,3.138-3.124,8.245,0,11.383l3.723,3.455c1.085,1.063,2.81,1.035,3.833,.029l3.796-3.524c3.081-3.097,3.081-8.204-.042-11.342-1.511-1.518-3.519-2.354-5.654-2.354Zm4.561,10.111c.586-.586,.586-1.536,0-2.122-.586-.586-1.536-.585-2.122,0-1.304,1.304-3.575,1.303-4.879,0-.586-.586-1.535-.586-2.121,0-.586,.585-.586,1.536,0,2.121,1.218,1.218,2.838,1.889,4.561,1.889s3.342-.671,4.561-1.889Zm-7.061-7.111c-.828,0-1.5,.672-1.5,1.5s.672,1.5,1.5,1.5,1.5-.672,1.5-1.5-.672-1.5-1.5-1.5Zm5,0c-.828,0-1.5,.672-1.5,1.5s.672,1.5,1.5,1.5,1.5-.672,1.5-1.5-.672-1.5-1.5-1.5Z"/></svg>
