<?xml version="1.0" encoding="UTF-8"?>
<svg xmlns="http://www.w3.org/2000/svg" id="Layer_1" data-name="Layer 1" viewBox="0 0 24 24" width="512" height="512"><path d="m23.478,7.089l-1.516-1.241s-.008-.007-.011-.01c-.004-.003-.008-.006-.011-.009l-1.516-1.241c-.643-.525-1.586-.43-2.111.21-.524.641-.43,1.586.211,2.111l.367.3-1.031,1.261c-.584-.392-1.206-.733-1.858-1.013V2.914c.582-.206,1-.761,1-1.414,0-.829-.672-1.5-1.5-1.5h-7c-.828,0-1.5.671-1.5,1.5,0,.653.418,1.208,1,1.414v4.544c-4.114,1.768-7,5.936-7,10.352.02,3.413,2.884,6.19,6.386,6.19h9.229c3.502,0,6.366-2.777,6.386-6.25,0-2.678-1.089-5.282-2.882-7.302l1.093-1.337.366.3c.279.229.615.339.949.339.435,0,.865-.188,1.162-.55.524-.641.43-1.586-.211-2.111Zm-6.863,13.911H7.386c-1.857,0-3.376-1.438-3.386-3.25,0-.588.077-1.175.222-1.75h10.278c.828,0,1.5-.671,1.5-1.5s-.672-1.5-1.5-1.5H5.679c1.065-1.412,2.562-2.532,4.27-3.069.626-.197,1.051-.776,1.051-1.431V3h2v5.5c0,.655.425,1.234,1.051,1.431,3.392,1.066,5.949,4.427,5.949,7.862-.01,1.768-1.528,3.207-3.386,3.207Z"/></svg>
