<?xml version="1.0" encoding="UTF-8"?>
<svg xmlns="http://www.w3.org/2000/svg" id="Layer_1" data-name="Layer 1" viewBox="0 0 24 24" width="512" height="512"><path d="m23.229,9.219l-3.224-5.5c-.982-1.677-2.801-2.719-4.745-2.719h-6.551c-1.943,0-3.761,1.042-4.745,2.719L.742,9.219c-1.006,1.715-1.006,3.847,0,5.562l3.223,5.501c.984,1.677,2.802,2.718,4.745,2.718h6.551c1.944,0,3.763-1.042,4.745-2.719l3.224-5.5c1.005-1.715,1.005-3.846,0-5.561Zm-2.588,4.045l-3.224,5.5c-.447.762-1.273,1.236-2.157,1.236h-6.551c-.883,0-1.71-.474-2.157-1.236l-3.223-5.5c-.457-.779-.457-1.748,0-2.528l3.223-5.499c.447-.763,1.274-1.237,2.157-1.237h6.551c.884,0,1.71.474,2.157,1.236l3.224,5.5c.456.78.456,1.749,0,2.529Zm-4.831-2.954l-1.689,1.689,1.689,1.689c.586.585.586,1.536,0,2.121-.293.293-.677.439-1.061.439s-.768-.146-1.061-.439l-1.689-1.689-1.689,1.689c-.293.293-.677.439-1.061.439s-.768-.146-1.061-.439c-.586-.585-.586-1.536,0-2.121l1.689-1.689-1.689-1.689c-.586-.585-.586-1.536,0-2.121.586-.586,1.535-.586,2.121,0l1.689,1.689,1.689-1.689c.586-.586,1.535-.586,2.121,0,.586.585.586,1.536,0,2.121Z"/></svg>
