<?xml version="1.0" encoding="UTF-8"?>
<svg xmlns="http://www.w3.org/2000/svg" id="Layer_1" data-name="Layer 1" viewBox="0 0 24 24" width="512" height="512"><path d="m16,8.5c0,.828-.672,1.5-1.5,1.5s-1.5-.672-1.5-1.5.672-1.5,1.5-1.5,1.5.672,1.5,1.5Zm-3.5,2.5c-.828,0-1.5.672-1.5,1.5s.672,1.5,1.5,1.5,1.5-.672,1.5-1.5-.672-1.5-1.5-1.5Zm-4,2c-.828,0-1.5.672-1.5,1.5s.672,1.5,1.5,1.5,1.5-.672,1.5-1.5-.672-1.5-1.5-1.5Zm15.5-4.5c0,.829-.671,1.5-1.5,1.5h-.551c-.076.64-.238,1.261-.479,1.849l.591.591c.586.585.586,1.536,0,2.121-.293.293-.677.439-1.061.439s-.768-.146-1.061-.439l-.202-.202-1.629,1.629.452.452c.586.585.586,1.536,0,2.121-.293.293-.677.439-1.061.439s-.768-.146-1.061-.439l-.451-.451-1.629,1.629.201.201c.586.585.586,1.536,0,2.121-.293.293-.677.439-1.061.439s-.768-.146-1.061-.439l-.594-.594c-.595.243-1.216.402-1.846.478v.555c0,.829-.671,1.5-1.5,1.5s-1.5-.671-1.5-1.5v-.829c-.605-.189-1.19-.46-1.736-.814l-.703.703c-.293.293-.677.439-1.061.439s-.768-.146-1.061-.439c-.586-.585-.586-1.536,0-2.121l.704-.704c-.353-.546-.624-1.131-.813-1.736h-.83c-.829,0-1.5-.671-1.5-1.5s.671-1.5,1.5-1.5h.556c.076-.629.235-1.25.478-1.845l-.594-.594c-.586-.585-.586-1.536,0-2.121.586-.586,1.535-.586,2.121,0l.202.202,1.629-1.629-.452-.452c-.586-.585-.586-1.536,0-2.121.586-.586,1.535-.586,2.121,0l.452.452,1.629-1.629-.202-.202c-.586-.585-.586-1.536,0-2.121.586-.586,1.535-.586,2.121,0l.594.594c.595-.243,1.216-.402,1.846-.478v-.555c0-.829.671-1.5,1.5-1.5s1.5.671,1.5,1.5v.829c.605.189,1.189.46,1.736.814l.704-.704c.586-.586,1.535-.586,2.121,0,.586.585.586,1.536,0,2.121l-.703.703c.351.541.625,1.124.817,1.737h.825c.829,0,1.5.671,1.5,1.5Zm-6.212,3.567c.782-.782,1.212-1.821,1.212-2.927s-.431-2.145-1.212-2.927-1.821-1.212-2.927-1.212-2.145.43-2.927,1.212l-5.721,5.721c-1.613,1.614-1.613,4.24,0,5.854,1.614,1.613,4.24,1.613,5.854,0l5.721-5.721Z"/></svg>
