<?xml version="1.0" encoding="UTF-8"?>
<svg xmlns="http://www.w3.org/2000/svg" id="Layer_1" data-name="Layer 1" viewBox="0 0 24 24" width="512" height="512"><path d="M23.946,13.591c-.188-1.339-.964-2.486-2.133-3.158l-3.073-2.036-.374-1.872c-.09-.449-.441-.8-.889-.889l-1.872-.374-2.035-3.072C12.896,1.018,11.748,.241,10.409,.054c-1.363-.188-2.699,.257-3.669,1.229l-2.48,2.479c-.971,.972-1.419,2.31-1.229,3.67,.188,1.338,.962,2.485,2.13,3.157,0,0,3.643,2.438,3.673,2.455l-5.98,5.98c-.116-.016-.234-.025-.354-.025-1.381,0-2.5,1.119-2.5,2.5s1.119,2.5,2.5,2.5,2.5-1.119,2.5-2.5c0-.12-.009-.238-.025-.354l5.98-5.98c.017,.03,2.456,3.673,2.456,3.673,.672,1.168,1.819,1.942,3.157,2.13,.206,.028,.411,.043,.615,.043,1.142,0,2.23-.447,3.055-1.272l2.48-2.479c.971-.972,1.419-2.31,1.229-3.67ZM6.677,8.001c-.371-.206-.617-.564-.676-.984-.059-.42,.079-.833,.379-1.133l2.48-2.479c.299-.3,.71-.446,1.132-.379,.42,.059,.779,.305,.984,.676,.019,.034,2.461,3.722,2.461,3.722l-2.997,3.094-.027-.019s-3.701-2.477-3.737-2.497Zm13.918,7.139l-2.479,2.479c-.3,.3-.711,.437-1.133,.38-.419-.06-.778-.306-.984-.676-.02-.036-2.449-3.666-2.449-3.666l3.069-3.069s3.647,2.415,3.681,2.435c.371,.205,.617,.564,.675,.983,.059,.42-.079,.833-.379,1.133Z"/></svg>
