<?xml version="1.0" encoding="UTF-8"?>
<svg xmlns="http://www.w3.org/2000/svg" id="Layer_1" data-name="Layer 1" viewBox="0 0 24 24" width="512" height="512"><path d="M12,0C5.383,0,0,5.383,0,12s5.383,12,12,12,12-5.383,12-12S18.617,0,12,0Zm0,3c3.114,0,5.862,1.59,7.478,4h-3.831c-.98,0-1.913,.367-2.653,1h-1.988c-.74-.633-1.673-1-2.653-1h-3.831c1.617-2.41,4.365-4,7.478-4Zm0,18c-4.861,0-8.823-3.875-8.985-8.697,.598,.435,1.325,.697,2.109,.697h2.115c1.387,0,2.615-.798,3.214-2h3.094c.599,1.202,1.827,2,3.214,2h2.115c.784,0,1.511-.262,2.109-.697-.162,4.821-4.124,8.697-8.985,8.697Zm4.742-5.34c.465,.686,.284,1.619-.401,2.083-1.182,.799-2.764,1.257-4.341,1.257s-3.159-.458-4.341-1.257c-.686-.464-.866-1.397-.401-2.083,.465-.687,1.399-.864,2.083-.402,1.373,.931,3.945,.931,5.318,0,.686-.464,1.618-.285,2.083,.402Z"/></svg>
