<?xml version="1.0" encoding="UTF-8"?>
<svg xmlns="http://www.w3.org/2000/svg" id="Layer_1" data-name="Layer 1" viewBox="0 0 24 24">
  <path d="m22.5,0h-1.5c-2.757,0-5,2.243-5,5v8.602c-.751-.385-1.6-.602-2.5-.602-3.032,0-5.5,2.467-5.5,5.5s2.468,5.5,5.5,5.5,5.5-2.467,5.5-5.5V5c0-1.103.897-2,2-2h1.5c.828,0,1.5-.671,1.5-1.5s-.672-1.5-1.5-1.5Zm-9,21c-1.379,0-2.5-1.122-2.5-2.5s1.121-2.5,2.5-2.5,2.5,1.122,2.5,2.5-1.121,2.5-2.5,2.5ZM0,1.5C0,.671.672,0,1.5,0h10c.828,0,1.5.671,1.5,1.5s-.672,1.5-1.5,1.5H1.5c-.828,0-1.5-.671-1.5-1.5Zm0,6c0-.829.672-1.5,1.5-1.5h10c.828,0,1.5.671,1.5,1.5s-.672,1.5-1.5,1.5H1.5c-.828,0-1.5-.671-1.5-1.5Zm8,6c0,.829-.672,1.5-1.5,1.5H1.5c-.828,0-1.5-.671-1.5-1.5s.672-1.5,1.5-1.5h5c.828,0,1.5.671,1.5,1.5Z"/>
</svg>
