<?xml version="1.0" encoding="UTF-8"?>
<svg xmlns="http://www.w3.org/2000/svg" id="Layer_1" data-name="Layer 1" viewBox="0 0 24 24" width="512" height="512"><path d="m21.455,14.646c.347-.639.545-1.369.545-2.146,0-1.688-.934-3.162-2.313-3.932.202-.485.313-1.017.313-1.568,0-2.191-1.771-3.977-3.958-4-1.003-1.601-2.714-3-4.542-3-.829,0-1.5.672-1.5,1.5,0,.565-.069,1.067-.206,1.5h-1.794c-2.206,0-4,1.794-4,4,0,.555.114,1.084.319,1.564-1.382.77-2.319,2.245-2.319,3.936,0,.776.198,1.507.545,2.146-1.518.859-2.545,2.489-2.545,4.354,0,2.757,2.243,5,5,5h14c2.757,0,5-2.243,5-5,0-1.865-1.027-3.495-2.545-4.354Zm-2.455,6.354H5c-1.103,0-2-.897-2-2s.897-2,2-2h5.5c.829,0,1.5-.672,1.5-1.5s-.671-1.5-1.5-1.5h-4c-.827,0-1.5-.673-1.5-1.5s.673-1.5,1.5-1.5h4c.829,0,1.5-.672,1.5-1.5s-.671-1.5-1.5-1.5h-2.5c-.551,0-1-.448-1-1s.449-1,1-1h2.746c.517,0,.997-.266,1.271-.704.311-.496.548-1.046.712-1.645.403.372.791.879,1.046,1.456.241.543.778.893,1.372.893h.853c.551,0,1,.448,1,1,0,.486-.351.938-.799,1.03-.755.153-1.271.854-1.193,1.62.078.767.723,1.35,1.493,1.35h1c.827,0,1.5.673,1.5,1.5s-.673,1.5-1.5,1.5h-1c-.829,0-1.5.672-1.5,1.5s.671,1.5,1.5,1.5h2.5c1.103,0,2,.897,2,2s-.897,2-2,2Z"/></svg>
