<?xml version="1.0" encoding="UTF-8"?>
<svg xmlns="http://www.w3.org/2000/svg" id="Layer_1" data-name="Layer 1" viewBox="0 0 24 24">
  <path d="m22,10C22,4.486,17.514,0,12,0S2,4.486,2,10c0,3.758,2.083,7.037,5.155,8.745-.91.765-1.62,1.742-2.045,2.851-.449,1.172.527,2.404,1.834,2.404h10.111c1.307,0,2.282-1.232,1.834-2.404-.424-1.108-1.134-2.086-2.045-2.851,3.072-1.708,5.155-4.988,5.155-8.745Zm-10,7c-3.86,0-7-3.14-7-7s3.14-7,7-7,7,3.14,7,7-3.14,7-7,7Zm0-12c-2.757,0-5,2.243-5,5s2.243,5,5,5,5-2.243,5-5-2.243-5-5-5Zm0,7c-1.103,0-2-.897-2-2s.897-2,2-2,2,.897,2,2-.897,2-2,2Z"/>
</svg>
