<?xml version="1.0" encoding="UTF-8"?>
<svg xmlns="http://www.w3.org/2000/svg" id="Layer_1" data-name="Layer 1" viewBox="0 0 24 24">
  <path d="m20.295,6h1.705c1.105,0,2-.895,2-2v-2c0-1.105-.895-2-2-2h-2c-1.105,0-2,.895-2,2H6c0-1.105-.895-2-2-2h-2C.895,0,0,.895,0,2v2c0,1.105.895,2,2,2v12c-1.105,0-2,.895-2,2v2c0,1.105.895,2,2,2h2c1.105,0,2-.895,2-2h12c0,1.105.895,2,2,2h2c1.105,0,2-.895,2-2v-2c0-1.105-.895-2-2-2h-1.705l-4.295-4.867v-2.266l4.295-4.867Zm-14.563,13c-.176-.303-.428-.556-.732-.732V5.732c.303-.176.556-.428.732-.732h11.444l-3.529,4h-1.647c-1.105,0-2,.895-2,2v2c0,1.105.895,2,2,2h1.647l3.529,4H5.732Zm10.264-5.872s0-.001,0,0h0Zm0-2.256h0s0,.002,0,0Z"/>
</svg>
