<?xml version="1.0" encoding="UTF-8"?>
<svg xmlns="http://www.w3.org/2000/svg" id="Layer_1" data-name="Layer 1" viewBox="0 0 24 24" width="512" height="512"><path d="M17.5,0H6.5C3.47,0,1,2.47,1,5.5v14c0,2.48,2.02,4.5,4.5,4.5h12c3.03,0,5.5-2.47,5.5-5.5V5.5c0-3.03-2.47-5.5-5.5-5.5Zm2.5,5.5V15H10V3h7.5c1.38,0,2.5,1.12,2.5,2.5ZM6.5,3h.5V15h-1.5c-.53,0-1.03,.09-1.5,.26V5.5c0-1.38,1.12-2.5,2.5-2.5Zm11,18H5.5c-.83,0-1.5-.67-1.5-1.5s.67-1.5,1.5-1.5h14.5v.5c0,1.38-1.12,2.5-2.5,2.5Zm-5.35-7.5c.42,0,.8-.27,.95-.67l.3-.83h3.22l.3,.83c.14,.4,.52,.67,.95,.67h0c.7,0,1.18-.69,.95-1.34l-2.39-6.66c-.22-.6-.77-.99-1.41-.99s-1.19,.39-1.41,1l-2.39,6.66c-.23,.65,.25,1.34,.95,1.34Zm3.75-3.5h-1.79l.9-2.51,.9,2.51Z"/></svg>
