<?xml version="1.0" encoding="UTF-8"?>
<svg xmlns="http://www.w3.org/2000/svg" id="Layer_1" data-name="Layer 1" viewBox="0 0 24 24" width="512" height="512"><path d="M12,0C5.383,0,0,5.383,0,12s5.383,12,12,12,12-5.383,12-12S18.617,0,12,0Zm0,21c-4.962,0-9-4.037-9-9S7.038,3,12,3s9,4.037,9,9-4.038,9-9,9Zm-3.5-7c-1.381,0-2.5-1.119-2.5-2.5s1.119-2.5,2.5-2.5,2.5,1.119,2.5,2.5-1.119,2.5-2.5,2.5Zm9.5-2.5c0,1.381-1.119,2.5-2.5,2.5s-2.5-1.119-2.5-2.5,1.119-2.5,2.5-2.5,2.5,1.119,2.5,2.5Zm-1.696,4.596c-.085,.119-.304,.51-.304,.904s.22,.789,.305,.906c.32,.444,.227,1.069-.215,1.395-.18,.132-.389,.196-.596,.196-.301,0-.597-.136-.792-.395-.049-.065-.349-.487-.541-1.103h-4.322c-.192,.615-.492,1.038-.541,1.103-.196,.26-.496,.397-.799,.397-.209,0-.421-.065-.601-.201-.441-.333-.529-.96-.196-1.401,.079-.108,.298-.501,.298-.897s-.22-.789-.305-.906c-.32-.444-.227-1.069,.215-1.395,.44-.324,1.059-.238,1.388,.198,.049,.065,.349,.487,.541,1.103h4.322c.192-.615,.492-1.038,.541-1.103,.332-.439,.958-.529,1.4-.196,.439,.331,.528,.953,.202,1.395Zm2.658-7.821c-.125,.439-.526,.726-.961,.726-.091,0-.183-.013-.275-.038-1.404-.401-2.793-1.336-3.54-2.381-.321-.449-.216-1.074,.233-1.395,.45-.322,1.075-.216,1.395,.232,.484,.678,1.496,1.344,2.46,1.619,.531,.152,.839,.705,.687,1.236Zm-12.687,.688c-.092,.025-.184,.038-.275,.038-.435,0-.835-.286-.961-.726-.152-.531,.156-1.084,.687-1.236,.965-.275,1.977-.941,2.46-1.619,.321-.449,.945-.554,1.395-.232,.449,.32,.554,.945,.233,1.395-.746,1.045-2.135,1.979-3.54,2.381Z"/></svg>
