<?xml version="1.0" encoding="UTF-8"?>
<svg xmlns="http://www.w3.org/2000/svg" id="Layer_1" data-name="Layer 1" viewBox="0 0 24 24" width="512" height="512"><path d="M22.05,3.98c-1.23-1.28-2.94-1.98-4.82-1.98-.01,0-.02,0-.03,0-2.06,.04-3.99,1.05-5.2,2.69-1.22-1.63-3.14-2.65-5.23-2.69-1.88,0-3.59,.71-4.83,1.99C.63,5.34-.07,7.28,0,9.24c0,4.42,4.41,9.15,8.12,12.34,1.11,.95,2.5,1.43,3.89,1.43s2.8-.48,3.91-1.44c3.02-2.6,8.07-7.66,8.07-12.23,.08-2.04-.63-3.98-1.94-5.34Zm-8.09,15.3c-.14,.12-.3,.23-.46,.32V9.23c0-1.59,.62-2.29,.65-2.34,.62-1.13,1.81-1.85,3.1-1.88,1.06,0,1.97,.37,2.64,1.07,.75,.78,1.15,1.92,1.1,3.21,0,2.47-2.63,6.21-7.03,10.02Z"/></svg>
