<?xml version="1.0" encoding="UTF-8"?>
<svg xmlns="http://www.w3.org/2000/svg" id="Layer_1" data-name="Layer 1" viewBox="0 0 24 24">
  <path d="m24,18.177c0,3.211-2.612,5.823-5.823,5.823h-.677c-.828,0-1.5-.672-1.5-1.5s.672-1.5,1.5-1.5h.677c1.557,0,2.823-1.267,2.823-2.823,0-.767-.308-1.486-.865-2.025-.448-.434-.582-1.099-.337-1.671.135-.312.202-.642.202-.98,0-.92-.518-1.763-1.351-2.2-.631-.331-.941-1.061-.743-1.745.063-.222.094-.398.094-.555,0-1.103-.897-2-2-2h-.526c-.73,0-1.355-.526-1.479-1.247-.129-.754-.67-1.557-1.262-2.1-.414,1.536-1.241,2.478-1.968,3.036-.263.201-.584.311-.914.311h-1.852c-1.103,0-2,.897-2,2,0,.156.03.333.094.555.198.685-.112,1.414-.743,1.745-.833.438-1.351,1.28-1.351,2.2,0,.339.067.669.202.98.245.572.111,1.237-.337,1.671-.558.539-.865,1.259-.865,2.025,0,1.557,1.267,2.823,2.823,2.823.828,0,1.5.672,1.5,1.5s-.672,1.5-1.5,1.5c-3.211,0-5.823-2.612-5.823-5.823,0-1.261.398-2.457,1.138-3.452-.092-.399-.138-.809-.138-1.225,0-1.657.749-3.197,2.009-4.229-.006-.091-.009-.181-.009-.271,0-2.757,2.243-5,5-5h1.265c.482-.564.735-1.418.735-2.5,0-.828.672-1.5,1.5-1.5,2.185,0,4.24,1.947,5.098,4.035,2.477.297,4.402,2.41,4.402,4.965,0,.09-.003.18-.009.271,1.26,1.032,2.009,2.572,2.009,4.229,0,.416-.046.825-.138,1.225.739.995,1.138,2.191,1.138,3.452Zm-8.407-2.189h-3.093l.933-2.641c.252-.655-.232-1.359-.933-1.359h-1.894c-.426,0-.806.27-.945.674l-2.12,6.137c-.179.592.264,1.19.883,1.19h3.077l-.963,2.897c-.271.949.996,1.546,1.556.734l4.254-6.225c.399-.602-.032-1.406-.754-1.406Z"/>
</svg>
