<?xml version="1.0" encoding="UTF-8"?>
<svg xmlns="http://www.w3.org/2000/svg" id="Layer_1" data-name="Layer 1" viewBox="0 0 24 24" width="512" height="512"><path d="m3,10.5c0-1.933,1.567-3.5,3.5-3.5s3.5,1.567,3.5,3.5-1.567,3.5-3.5,3.5-3.5-1.567-3.5-3.5Zm3.5,5.5c-3.584,0-6.5,2.916-6.5,6.5,0,.828.671,1.5,1.5,1.5s1.5-.672,1.5-1.5c0-1.93,1.57-3.5,3.5-3.5s3.5,1.57,3.5,3.5c0,.828.671,1.5,1.5,1.5s1.5-.672,1.5-1.5c0-3.584-2.916-6.5-6.5-6.5ZM18.5,0h-8.535c-1.958,0-3.783,1.054-4.763,2.749-.415.717-.17,1.635.547,2.05.716.415,1.635.169,2.049-.548.446-.771,1.276-1.251,2.167-1.251h8.535c1.378,0,2.5,1.121,2.5,2.5v8c0,1.379-1.122,2.5-2.5,2.5h-.5v-.5c0-.828-.671-1.5-1.5-1.5h-2c-.829,0-1.5.672-1.5,1.5v2c0,.828.671,1.5,1.5,1.5h4c3.033,0,5.5-2.468,5.5-5.5V5.5c0-3.032-2.467-5.5-5.5-5.5Z"/></svg>
