<?xml version="1.0" encoding="UTF-8"?>
<svg xmlns="http://www.w3.org/2000/svg" id="Layer_1" data-name="Layer 1" viewBox="0 0 24 24" width="512" height="512"><path d="m18.383,2.036L12.472.076c-.307-.102-.638-.102-.944,0l-5.911,1.96c-2.163.718-3.617,2.731-3.617,5.01v5.105c0,6.52,6.852,10.45,8.951,11.499,0,0,.55.35,1.052.35.458,0,.954-.268.954-.268,2.122-.854,9.043-4.211,9.043-11.581v-5.105c0-2.278-1.454-4.292-3.617-5.01Zm.617,10.115c0,5.259-5.03,7.895-6.932,8.702-1.926-.997-7.068-4.096-7.068-8.702v-5.105c0-.983.627-1.853,1.561-2.162l5.439-1.804,5.439,1.804c.934.31,1.561,1.179,1.561,2.162v5.105Zm-1,1.349c0,.828-.672,1.5-1.5,1.5-.682,0-1.257-.455-1.439-1.078l-1.113-.643c-.277.237-.597.425-.948.549v2.172c0,.553-.448,1-1,1s-1-.447-1-1v-2.172c-.35-.124-.671-.312-.948-.549l-1.113.643c-.182.623-.758,1.078-1.439,1.078-.828,0-1.5-.672-1.5-1.5s.672-1.5,1.5-1.5c.203,0,.396.04.572.113l.979-.565c-.033-.178-.051-.361-.051-.548,0-.188.018-.372.052-.551l-1.875-1.083c-.478-.276-.642-.888-.366-1.366s.885-.644,1.366-.366l1.879,1.085c.276-.236.596-.423.945-.546v-1.554c-.307-.275-.5-.674-.5-1.118,0-.811.696-1.5,1.5-1.5s1.5.689,1.5,1.5c0,.444-.193.843-.5,1.118v1.554c.349.124.669.311.945.546l1.879-1.085c.479-.277,1.089-.113,1.366.366.276.479.112,1.09-.366,1.366l-1.875,1.083c.033.179.052.363.052.551,0,.187-.018.37-.051.548l.979.565c.176-.073.369-.113.572-.113.828,0,1.5.672,1.5,1.5Z"/></svg>
