<?xml version="1.0" encoding="UTF-8"?>
<svg xmlns="http://www.w3.org/2000/svg" id="Layer_1" data-name="Layer 1" viewBox="0 0 24 24" width="512" height="512"><path d="m24,12.5c0,.828-.671,1.5-1.5,1.5h-1.5c-1.221,0-2.37-.649-2.999-1.695l-.552-.917-1.332,3.247,2.614,1.486c1.091.62,1.769,1.786,1.769,3.042v3.337c0,.828-.671,1.5-1.5,1.5s-1.5-.672-1.5-1.5v-3.337c0-.18-.097-.346-.252-.435l-4.081-2.322c-1.498-.947-2.073-2.749-1.428-4.322l1.265-3.084h-1.268c-.19,0-.362.105-.447.276l-1.447,2.895c-.371.741-1.271,1.041-2.013.671-.741-.371-1.041-1.271-.671-2.013l1.447-2.895c.597-1.193,1.796-1.935,3.13-1.935h3.993c1.221,0,2.37.649,3,1.695l1.843,3.062c.091.151.251.242.428.242h1.5c.829,0,1.5.672,1.5,1.5Zm-12.442,4.351c-.771-.309-1.642.066-1.95.835-.077.191-.259.314-.464.314h-4.143c-.552,0-1-.448-1-1s.448-1,1-1h.826c.111-1.253.174-2.595.174-4C6,5.373,4.657,0,3,0S0,5.373,0,12s1.343,12,3,12c.76,0,1.453-1.134,1.981-3h4.162c1.439,0,2.715-.863,3.25-2.199.308-.77-.066-1.643-.835-1.95Zm6.442-11.851c1.381,0,2.5-1.119,2.5-2.5s-1.119-2.5-2.5-2.5-2.5,1.119-2.5,2.5,1.119,2.5,2.5,2.5Z"/></svg>
