<?xml version="1.0" encoding="UTF-8"?>
<svg xmlns="http://www.w3.org/2000/svg" id="Layer_1" data-name="Layer 1" viewBox="0 0 24 24" width="512" height="512"><path d="M12,0C5.38,0,0,5.38,0,12s5.38,12,12,12,12-5.38,12-12S18.62,0,12,0Zm8.6,9.34c-4.76-2.88-9.72-4.38-13.08-5.14,1.32-.76,2.85-1.2,4.49-1.2,4.04,0,7.46,2.67,8.6,6.34Zm-17.26,.24c.29-1.04,.77-2.01,1.39-2.87,.76,.13,1.73,.32,2.86,.59-1.77,.8-3.18,1.59-4.26,2.28Zm8.67,11.43c-4.48,0-8.21-3.3-8.89-7.59,.58-.48,1.91-1.47,4.05-2.57-.1,.2-.16,.43-.16,.66,0,.83,.67,1.5,1.5,1.5s1.5-.67,1.5-1.5c0-.72-.51-1.32-1.18-1.47,1.01-.45,2.15-.91,3.43-1.34,1.04,.37,2.11,.81,3.21,1.31-.8,.03-1.45,.69-1.45,1.5s.67,1.5,1.5,1.5,1.5-.67,1.5-1.5c0-.33-.11-.64-.29-.89,1.42,.72,2.84,1.55,4.22,2.53-.56,4.43-4.35,7.86-8.93,7.86Zm4.76-3.69c-.29,.45-.77,.69-1.27,.69-.27,0-.55-.07-.8-.23-.04-.02-1.27-.77-2.7-.77s-2.69,.76-2.7,.77c-.7,.44-1.63,.23-2.06-.47-.44-.7-.24-1.62,.46-2.06,.2-.13,2-1.24,4.31-1.24s4.11,1.11,4.31,1.24c.7,.45,.9,1.37,.46,2.07Z"/></svg>
