<?xml version="1.0" encoding="UTF-8"?>
<svg xmlns="http://www.w3.org/2000/svg" id="Layer_1" data-name="Layer 1" viewBox="0 0 24 24" width="512" height="512"><path d="M12,24c-1.1,0-2.2-.42-3.04-1.25l-5.98-6c-.96-.96-1.25-2.4-.73-3.66,.52-1.26,1.74-2.08,3.1-2.08h1.64V3.5c0-1.93,1.57-3.5,3.5-3.5h3c1.93,0,3.5,1.57,3.5,3.5v7.5h1.64c1.37,0,2.58,.83,3.1,2.08,.52,1.26,.23,2.7-.73,3.66l-5.97,5.99s0,0,0,0c-.84,.84-1.94,1.25-3.04,1.25ZM5.36,14c-.16,0-.27,.08-.33,.23-.06,.15-.04,.28,.08,.4l5.98,6c.5,.5,1.32,.5,1.83,0l5.97-6c.12-.12,.14-.25,.08-.4s-.17-.23-.34-.23h-3.13c-.83,0-1.5-.67-1.5-1.5V3.5c0-.27-.23-.5-.5-.5h-3c-.28,0-.5,.22-.5,.5V12.5c0,.83-.67,1.5-1.5,1.5h-3.14Z"/></svg>
