<?xml version="1.0" encoding="UTF-8"?>
<svg xmlns="http://www.w3.org/2000/svg" id="Layer_1" data-name="Layer 1" viewBox="0 0 24 24">
  <path d="m11.418,16.296c.587.584.589,1.534.004,2.122l-3.353,3.367c-.784.785-1.823,1.215-2.929,1.215-.585,0-1.15-.12-1.67-.349l-.911.91c-.293.292-.677.439-1.061.439s-.768-.146-1.061-.439c-.586-.586-.586-1.536,0-2.122l.91-.909c-.229-.519-.349-1.085-.349-1.67,0-1.105.431-2.146,1.213-2.927l3.083-3.098c.585-.587,1.535-.59,2.122-.005.587.584.589,1.534.005,2.121l-3.086,3.101c-.219.218-.337.504-.337.809s.118.591.334.806c.444.445,1.166.446,1.612,0l3.351-3.365c.585-.586,1.534-.589,2.121-.004Zm12.143,5.143c.586.585.586,1.536,0,2.121-.293.293-.677.439-1.061.439s-.768-.146-1.061-.439L.439,2.561C-.146,1.975-.146,1.025.439.439,1.025-.146,1.975-.146,2.561.439l3.734,3.734,1.579-1.579c1.038-1.039,2.419-1.611,3.889-1.611,1.44,0,2.794.549,3.824,1.548l1.245-1.248c1.546-1.547,4.026-1.719,5.649-.39.907.742,1.462,1.837,1.521,3.002.058,1.167-.382,2.31-1.208,3.135l-6.814,6.828,7.581,7.581Zm-9.702-9.702l3.343-3.35-1.613-1.613-3.343,3.35,1.613,1.613Zm-5.443-5.443l1.709,1.709,3.342-3.348c-.954-.883-2.549-.864-3.472.06l-1.579,1.579Z"/>
</svg>
