<?xml version="1.0" encoding="UTF-8"?>
<svg xmlns="http://www.w3.org/2000/svg" id="Layer_1" data-name="Layer 1" viewBox="0 0 24 24">
  <path d="m12,0C5.383,0,0,5.383,0,12s5.383,12,12,12,12-5.383,12-12S18.617,0,12,0Zm0,21c-4.962,0-9-4.038-9-9S7.038,3,12,3s9,4.038,9,9-4.038,9-9,9Zm4.433-11.818l-1.528,1.069c-.333-1.293-1.51-2.251-2.905-2.251h-3c-1.654,0-3,1.346-3,3v2c0,1.654,1.346,3,3,3h3c1.396,0,2.572-.958,2.905-2.251l1.528,1.069c.66.462,1.567-.01,1.567-.816v-4.005c0-.806-.907-1.278-1.567-.816Zm-7.433,3.818v-2h3l.002,2h-3.002Z"/>
</svg>
