<?xml version="1.0" encoding="UTF-8"?>
<svg xmlns="http://www.w3.org/2000/svg" id="Layer_1" data-name="Layer 1" viewBox="0 0 24 24" width="512" height="512"><path d="M21.43,19.31c.36-.69,.57-1.48,.57-2.31,0-2.76-2.24-5-5-5s-5,2.24-5,5,2.24,5,5,5c.83,0,1.62-.21,2.31-.57l2.13,2.13c.29,.29,.68,.44,1.06,.44s.77-.15,1.06-.44c.59-.59,.59-1.54,0-2.12l-2.13-2.13Zm-4.43-.31c-1.1,0-2-.9-2-2s.9-2,2-2,2,.9,2,2-.9,2-2,2Zm-6.5,2h-1c-.83,0-1.5-.67-1.5-1.5v-2c0-.83,.67-1.5,1.5-1.5s1.5-.67,1.5-1.5-.67-1.5-1.5-1.5c-2.48,0-4.5,2.02-4.5,4.5v.5h-.5c-.83,0-1.5-.67-1.5-1.5v-6c0-.83,.67-1.5,1.5-1.5h15c.83,0,1.5,.67,1.5,1.5s.67,1.5,1.5,1.5,1.5-.67,1.5-1.5c0-2.48-2.02-4.5-4.5-4.5h-.5v-1.5c0-2.48-2.02-4.5-4.5-4.5h-5c-2.48,0-4.5,2.02-4.5,4.5v1.5h-.5C2.02,6,0,8.02,0,10.5v6c0,2.48,2.02,4.5,4.5,4.5h.76c.62,1.75,2.29,3,4.24,3h1c.83,0,1.5-.67,1.5-1.5s-.67-1.5-1.5-1.5ZM8,4.5c0-.83,.67-1.5,1.5-1.5h5c.83,0,1.5,.67,1.5,1.5v1.5H8v-1.5Z"/></svg>
