<?xml version="1.0" encoding="UTF-8"?>
<svg xmlns="http://www.w3.org/2000/svg" id="Layer_1" data-name="Layer 1" viewBox="0 0 24 24">
  <path d="m20.354,13.186c.096-.385.146-.783.146-1.186,0-2.288-1.545-4.222-3.646-4.814.096-.385.146-.783.146-1.186,0-2.757-2.243-5-5-5s-5,2.243-5,5c0,.403.05.801.146,1.186-2.101.592-3.646,2.526-3.646,4.814,0,.403.05.801.146,1.186-2.101.592-3.646,2.526-3.646,4.814,0,2.757,2.243,5,5,5,1.361,0,2.597-.547,3.5-1.433.903.886,2.139,1.433,3.5,1.433s2.597-.547,3.5-1.433c.903.886,2.139,1.433,3.5,1.433,2.757,0,5-2.243,5-5,0-2.288-1.545-4.222-3.646-4.814ZM12,4c1.105,0,2,.895,2,2s-.895,2-2,2-2-.895-2-2,.895-2,2-2Zm-7,16c-1.105,0-2-.895-2-2s.895-2,2-2,2,.895,2,2-.895,2-2,2Zm3.5-6c-1.105,0-2-.895-2-2s.895-2,2-2,2,.895,2,2-.895,2-2,2Zm3.5,6c-1.105,0-2-.895-2-2s.895-2,2-2,2,.895,2,2-.895,2-2,2Zm3.5-6c-1.105,0-2-.895-2-2s.895-2,2-2,2,.895,2,2-.895,2-2,2Zm3.5,6c-1.105,0-2-.895-2-2s.895-2,2-2,2,.895,2,2-.895,2-2,2Z"/>
</svg>
