<?xml version="1.0" encoding="UTF-8"?>
<svg xmlns="http://www.w3.org/2000/svg" id="Layer_1" data-name="Layer 1" viewBox="0 0 24 24" width="512" height="512"><path d="m18.5,0H5.5C2.468,0,0,2.468,0,5.5v13c0,3.032,2.468,5.5,5.5,5.5h13c3.032,0,5.5-2.468,5.5-5.5V5.5c0-3.032-2.468-5.5-5.5-5.5Zm2.5,18.5c0,1.379-1.121,2.5-2.5,2.5H5.5c-1.379,0-2.5-1.121-2.5-2.5V5.5c0-1.379,1.121-2.5,2.5-2.5h13c1.379,0,2.5,1.121,2.5,2.5v13Zm-2.086-11.498l-3.33,9.386c-.547,1.537-1.953,2.53-3.584,2.53s-3.037-.993-3.583-2.53l-3.331-9.386c-.276-.781.132-1.639.912-1.916.783-.276,1.639.133,1.916.912l3.33,9.386c.171.482.586.534.756.534s.585-.052.757-.534l3.329-9.386c.278-.779,1.133-1.188,1.916-.912.78.277,1.188,1.135.912,1.916Z"/></svg>
