<?xml version="1.0" encoding="UTF-8"?>
<svg xmlns="http://www.w3.org/2000/svg" id="Layer_1" data-name="Layer 1" viewBox="0 0 24 24">
  <path d="m22.396,16.67c-.005-.007-.01-.014-.015-.021l-1.115-1.56c.186-.189.344-.404.469-.642.489-.933.398-2.047-.271-3.018l-1.521-2.07c.308-.244.564-.552.75-.91.483-.933.401-2.014-.22-2.894-.04-.057-4.269-4.567-4.269-4.567-.556-.629-1.358-.989-2.203-.989-.763,0-1.481.305-2.003.801-.54-.504-1.247-.801-1.997-.801-.845,0-1.647.36-2.173.956,0,0-4.258,4.544-4.298,4.601-.621.879-.704,1.961-.22,2.894.187.361.447.671.758.917l-1.529,2.101c-.627.91-.711,2.006-.226,2.931.132.251.3.479.498.678l-1.207,1.595c-.719,1.043-.8,2.388-.21,3.51.589,1.122,1.743,1.819,3.01,1.819h4.097v.5c0,.829.671,1.5,1.5,1.5s1.5-.671,1.5-1.5v-.5h1v.5c0,.829.672,1.5,1.5,1.5s1.5-.671,1.5-1.5v-.5h4.097c1.268,0,2.421-.697,3.011-1.819.589-1.122.508-2.467-.212-3.51Zm-2.444,2.116c-.052.098-.154.214-.354.214h-11.193c-.2,0-.303-.116-.354-.214s-.089-.249-.015-.358l2.289-3.022c.344-.454.401-1.063.147-1.573-.253-.509-.771-.831-1.338-.833l2.633-3.617c.332-.457.38-1.061.124-1.563-.256-.502-.772-.819-1.337-.819h-.286s3.719-3.991,3.719-3.991l3.746,3.991h-.284c-.565,0-1.083.318-1.339.823-.255.504-.205,1.11.13,1.565l2.65,3.616c-.519.039-.982.343-1.223.81-.257.5-.213,1.102.114,1.559l2.15,3.008c.107.162.071.31.021.406Z"/>
</svg>
