<?xml version="1.0" encoding="UTF-8"?>
<svg xmlns="http://www.w3.org/2000/svg" id="Layer_1" data-name="Layer 1" viewBox="0 0 24 24" width="512" height="512"><path d="m7,8.5c0-.828.672-1.5,1.5-1.5s1.5.672,1.5,1.5-.672,1.5-1.5,1.5-1.5-.672-1.5-1.5Zm15-.343v10.343c0,3.033-2.467,5.5-5.5,5.5H7.5c-3.033,0-5.5-2.467-5.5-5.5V5.5C2,2.467,4.467,0,7.5,0h6.343c1.469,0,2.85.572,3.889,1.611l2.657,2.657c1.039,1.039,1.611,2.419,1.611,3.889ZM5,5.5v11.379l3.708-3.708c1.539-1.539,4.044-1.539,5.583,0l.615.615c.327.327.859.327,1.187,0,0,0,2.886-2.885,2.907-2.903v-1.882h-4c-1.105,0-2-.895-2-2V3h-5.5c-1.378,0-2.5,1.122-2.5,2.5Zm14,13v-3.379l-.786.786c-1.496,1.497-3.933,1.497-5.429,0l-.615-.615c-.37-.369-.971-.369-1.341,0l-5.034,5.034c.447.418,1.046.674,1.705.674h9c1.378,0,2.5-1.122,2.5-2.5Z"/></svg>
