<?xml version="1.0" encoding="UTF-8"?>
<svg xmlns="http://www.w3.org/2000/svg" id="Layer_1" data-name="Layer 1" viewBox="0 0 24 24" width="512" height="512"><path d="M18.697,24H5.244c-1.152,0-2.202-.585-2.808-1.565-.605-.98-.66-2.18-.145-3.21l2.451-4.902c.716-1.432,2.155-2.322,3.757-2.322h6.941c1.602,0,3.041,.89,3.757,2.322l2.451,4.902c.516,1.03,.461,2.23-.145,3.21-.605,.98-1.655,1.565-2.808,1.565ZM8.5,15c-.458,0-.869,.254-1.073,.663l-2.451,4.903c-.062,.124-.027,.227,.013,.292,.04,.065,.117,.143,.256,.143h13.453c.139,0,.216-.078,.256-.143,.04-.064,.075-.168,.013-.292l-2.451-4.902c-.204-.41-.615-.664-1.073-.664h-6.941Zm13.5-4.5V5.5c0-3.033-2.468-5.5-5.5-5.5H7.5C4.468,0,2,2.467,2,5.5v5c0,.829,.672,1.5,1.5,1.5s1.5-.671,1.5-1.5V5.5c0-1.378,1.121-2.5,2.5-2.5h9c1.379,0,2.5,1.122,2.5,2.5v5c0,.829,.672,1.5,1.5,1.5s1.5-.671,1.5-1.5Z"/></svg>
