<?xml version="1.0" encoding="UTF-8"?>
<svg xmlns="http://www.w3.org/2000/svg" id="Layer_1" data-name="Layer 1" viewBox="0 0 24 24" width="512" height="512"><path d="m12,0C5.383,0,0,5.383,0,12s5.383,12,12,12,12-5.383,12-12S18.617,0,12,0Zm0,21c-4.963,0-9-4.037-9-9S7.037,3,12,3s9,4.037,9,9-4.037,9-9,9Zm5-4.677c0,.828-.672,1.5-1.5,1.5h-5.864c-1.154,0-2.136-.711-2.499-1.812-.36-1.091.015-2.282.935-2.964l5.217-3.871h-4.788c-.828,0-1.5-.672-1.5-1.5s.672-1.5,1.5-1.5h5.864c1.154,0,2.136.711,2.499,1.812.36,1.091-.015,2.282-.935,2.964l-5.217,3.871h4.788c.828,0,1.5.672,1.5,1.5Z"/></svg>
