<?xml version="1.0" encoding="UTF-8"?>
<svg xmlns="http://www.w3.org/2000/svg" id="Layer_1" data-name="Layer 1" viewBox="0 0 24 24" width="512" height="512"><path d="m18.5,2h-.5v-.5c0-.828-.671-1.5-1.5-1.5s-1.5.672-1.5,1.5v.5h-6v-.5c0-.828-.671-1.5-1.5-1.5s-1.5.672-1.5,1.5v.5h-.5C2.467,2,0,4.468,0,7.5v11c0,1.911.98,3.597,2.463,4.583.182.175.398.295.626.359.728.357,1.547.557,2.411.557h13c3.033,0,5.5-2.468,5.5-5.5V7.5c0-3.032-2.467-5.5-5.5-5.5ZM3.45,19.929c-.283-.405-.45-.898-.45-1.429v-9.5h18v1.379l-5.378,5.378c-.332.332-.911.332-1.244,0l-.634-.635c-1.466-1.467-4.022-1.467-5.487,0l-4.807,4.807Zm15.05,1.071H6.621l3.757-3.757c.332-.332.911-.332,1.244,0l.634.635c1.466,1.467,4.022,1.467,5.487,0l3.257-3.257v3.879c0,1.379-1.122,2.5-2.5,2.5Zm-10.5-8.5h0c0,.828-.672,1.5-1.5,1.5s-1.5-.672-1.5-1.5h0c0-.828.672-1.5,1.5-1.5s1.5.672,1.5,1.5Z"/></svg>
