<?xml version="1.0" encoding="UTF-8"?>
<svg xmlns="http://www.w3.org/2000/svg" id="Layer_1" data-name="Layer 1" viewBox="0 0 24 24" width="512" height="512"><path d="m22.436,3h-4.757c-.619-1.746-2.287-3-4.243-3h-3c-1.956,0-3.624,1.254-4.243,3H1.436C.607,3-.064,3.671-.064,4.5s.672,1.5,1.5,1.5h.62l1.08,12.957c.236,2.828,2.644,5.043,5.481,5.043h6.639c2.838,0,5.245-2.215,5.481-5.043l1.08-12.957h.62c.828,0,1.5-.671,1.5-1.5s-.672-1.5-1.5-1.5Zm-4.689,15.708c-.106,1.286-1.201,2.292-2.491,2.292h-6.639c-1.29,0-2.385-1.007-2.491-2.292l-1.059-12.708h13.739l-1.059,12.708Zm-1.998-6.361c.61.61.178,1.653-.685,1.653h-1.563v2.501c0,.829-.672,1.5-1.5,1.5s-1.5-.671-1.5-1.5v-2.501h-1.563c-.863,0-1.295-1.043-.685-1.653l3.063-3.063c.378-.378.991-.378,1.369,0l3.063,3.063Z"/></svg>
