<?xml version="1.0" encoding="UTF-8"?>
<svg xmlns="http://www.w3.org/2000/svg" id="Layer_1" data-name="Layer 1" viewBox="0 0 24 24" width="512" height="512"><path d="M10,2.5c0-1.381,1.119-2.5,2.5-2.5s2.5,1.119,2.5,2.5-1.119,2.5-2.5,2.5-2.5-1.119-2.5-2.5Zm8,8v3c0,1.557-.795,2.93-2,3.738v5.262c0,.829-.672,1.5-1.5,1.5s-1.5-.671-1.5-1.5v-4.5h-1v4.5c0,.829-.672,1.5-1.5,1.5s-1.5-.671-1.5-1.5v-5.262c-1.205-.808-2-2.182-2-3.738v-3c0-2.481,2.019-4.5,4.5-4.5h2c2.481,0,4.5,2.019,4.5,4.5Zm-8,3c0,.827,.673,1.5,1.5,1.5h2c.827,0,1.5-.673,1.5-1.5v-3c0-.827-.673-1.5-1.5-1.5h-2c-.827,0-1.5,.673-1.5,1.5v3Z"/></svg>
