<?xml version="1.0" encoding="UTF-8"?>
<svg xmlns="http://www.w3.org/2000/svg" id="Layer_1" data-name="Layer 1" viewBox="0 0 24 24" width="512" height="512"><path d="m12,0C5.383,0,0,5.383,0,12s5.383,12,12,12,12-5.383,12-12S18.617,0,12,0Zm-3.48,20.299c.107-1.835,1.619-3.299,3.48-3.299s3.373,1.464,3.48,3.299c-1.071.451-2.247.701-3.48.701s-2.409-.25-3.48-.701Zm9.668-1.781c-.84-2.617-3.296-4.518-6.188-4.518s-5.348,1.901-6.188,4.518c-1.727-1.641-2.812-3.953-2.812-6.518C3,7.037,7.038,3,12,3s9,4.037,9,9c0,2.565-1.084,4.877-2.812,6.518Zm-2.689-10.018c0,1.933-1.567,3.5-3.5,3.5s-3.5-1.567-3.5-3.5,1.567-3.5,3.5-3.5,3.5,1.567,3.5,3.5Z"/></svg>
