<?xml version="1.0" encoding="UTF-8"?>
<svg xmlns="http://www.w3.org/2000/svg" id="Layer_1" data-name="Layer 1" viewBox="0 0 24 24" width="512" height="512"><path d="M15,13.5v-4c0-.829,.671-1.5,1.5-1.5s1.5,.671,1.5,1.5v4c0,.829-.671,1.5-1.5,1.5s-1.5-.671-1.5-1.5Zm-2.5,1.5c.829,0,1.5-.671,1.5-1.5v-4c0-.829-.671-1.5-1.5-1.5s-1.5,.671-1.5,1.5v4c0,.829,.671,1.5,1.5,1.5Zm8-7c-.829,0-1.5,.671-1.5,1.5v4c0,.829,.671,1.5,1.5,1.5s1.5-.671,1.5-1.5v-4c0-.829-.671-1.5-1.5-1.5Zm-1.5,8.662v.838c0,1.93-1.57,3.5-3.5,3.5h-5.23c-1.403,0-2.74-.529-3.763-1.489l-1.919-1.8,3.764-3.906c.797-.797,.797-2.089,0-2.886h0c-.797-.797-2.089-.797-2.886,0l-3.465,3.569,.004,.009c-.646,.658-1.004,1.525-1.004,2.449,0,.935,.364,1.814,1.06,2.508l2.394,2.247c1.582,1.483,3.647,2.301,5.816,2.301h5.23c3.584,0,6.5-2.916,6.5-6.5v-.838c-.455,.217-.964,.338-1.5,.338s-1.045-.122-1.5-.338ZM9,1.5c0-.828-.672-1.5-1.5-1.5s-1.5,.672-1.5,1.5v.5h3v-.5ZM2.958,5.5l-1.801,.838c-.291,.291-.138,.662,.274,.662H6.038v1.415c1.01-.247,2.085-.101,3,.436V4H1.431c-.411,0-.575,.394-.284,.685l1.81,.815Z"/></svg>
