<?xml version="1.0" encoding="UTF-8"?>
<svg xmlns="http://www.w3.org/2000/svg" id="Layer_1" data-name="Layer 1" viewBox="0 0 24 24" width="512" height="512"><path d="M23.565,10.944c-.586-.586-1.535-.586-2.121,0l-.196,.196c-1.959-1.959-6.736-6.736-8.375-8.375l.196-.196c.586-.585,.586-1.536,0-2.121-.586-.586-1.535-.586-2.121,0L3.948,7.448c-.586,.585-.586,1.536,0,2.121,.293,.293,.677,.439,1.061,.439s.768-.146,1.061-.439l.227-.227,3.12,3.12L.439,21.439c-.586,.585-.586,1.536,0,2.121,.293,.293,.677,.439,1.061,.439s.768-.146,1.061-.439L11.537,14.584l3.134,3.134-.227,.227c-.586,.585-.586,1.536,0,2.121,.293,.293,.677,.439,1.061,.439s.768-.146,1.061-.439l7-7c.586-.585,.586-1.536,0-2.121Zm-8.028,3.397l-5.879-5.879,2.335-2.335,5.879,5.879-2.335,2.335Z"/></svg>
