<?xml version="1.0" encoding="UTF-8"?>
<svg xmlns="http://www.w3.org/2000/svg" id="Layer_1" data-name="Layer 1" viewBox="0 0 24 24">
  <path d="m23.47,2.022l-1.493-1.493c-.613-.613-1.583-.709-2.286-.203-.787.567-1.325,1.54-3.506,1.635-.858.002-1.664.338-2.268.947L1.172,15.736c-1.56,1.56-1.56,4.097,0,5.657l1.436,1.436c.778.778,1.802,1.168,2.826,1.168s2.047-.388,2.829-1.166l12.779-12.819c.704-.706.996-1.66.904-2.583,0-1.648,1.203-2.341,1.763-3.173.47-.699.356-1.638-.239-2.233Zm-4.552,5.871l-12.775,12.815c-.391.389-1.025.388-1.414,0l-1.436-1.436c-.39-.39-.39-1.024.004-1.418l12.749-12.833c.05-.049.106-.06.146-.06.04,0,.097.011.146.06l2.58,2.581h0c.08.081.08.21,0,.291Zm-3.418,2.107c0,.828-.672,1.5-1.5,1.5s-1.5-.672-1.5-1.5.672-1.5,1.5-1.5,1.5.672,1.5,1.5Zm-3,3c0,.828-.672,1.5-1.5,1.5s-1.5-.672-1.5-1.5.672-1.5,1.5-1.5,1.5.672,1.5,1.5Zm-3,3c0,.828-.672,1.5-1.5,1.5s-1.5-.672-1.5-1.5.672-1.5,1.5-1.5,1.5.672,1.5,1.5Z"/>
</svg>
