<?xml version="1.0" encoding="UTF-8"?>
<svg xmlns="http://www.w3.org/2000/svg" id="Layer_1" data-name="Layer 1" viewBox="0 0 24 24" width="512" height="512"><path d="M22.733,9.014c-.766-.698-1.755-1.058-2.795-1.01-1.037,.049-1.993,.498-2.692,1.266l-2.438,2.68c-.647-.59-1.507-.949-2.449-.949H4.5c-2.481,0-4.5,2.019-4.5,4.5v4c0,2.481,2.019,4.5,4.5,4.5h5.414c3.03,0,5.912-1.309,7.905-3.589l5.195-5.942c1.411-1.581,1.284-4.028-.281-5.455Zm-1.967,3.469l-5.206,5.954c-1.424,1.629-3.482,2.563-5.646,2.563H4.5c-.827,0-1.5-.673-1.5-1.5v-4c0-.827,.673-1.5,1.5-1.5h7.858c.354,0,.642,.288,.642,.643,0,.317-.237,.591-.551,.635l-5.161,.737c-.82,.117-1.39,.877-1.273,1.697s.875,1.383,1.697,1.273l5.16-.737c1.619-.231,2.876-1.53,3.094-3.115l3.498-3.844c.159-.175,.376-.277,.612-.288,.23-.018,.46,.07,.635,.229,.356,.325,.385,.881,.054,1.252ZM6.025,6.975c-.661-.661-1.025-1.54-1.025-2.475,0-1.572,1.987-3.4,2.487-3.946,.775-.763,1.284-.713,2.013,0,.544,.584,2.5,2.344,2.5,3.946,0,.935-.364,1.813-1.025,2.475-.661,.661-1.54,1.025-2.475,1.025s-1.813-.364-2.475-1.025Z"/></svg>
