<?xml version="1.0" encoding="UTF-8"?>
<svg xmlns="http://www.w3.org/2000/svg" id="Layer_1" data-name="Layer 1" viewBox="0 0 24 24" width="512" height="512"><path d="M12,7c-2.76,0-5,2.24-5,5s2.24,5,5,5,5-2.24,5-5-2.24-5-5-5Zm0,7c-1.1,0-2-.9-2-2s.9-2,2-2,2,.9,2,2-.9,2-2,2Zm-1.5-11.5c0-.83,.67-1.5,1.5-1.5s1.5,.67,1.5,1.5-.67,1.5-1.5,1.5-1.5-.67-1.5-1.5Zm3,19c0,.83-.67,1.5-1.5,1.5s-1.5-.67-1.5-1.5,.67-1.5,1.5-1.5,1.5,.67,1.5,1.5ZM4,12c0,.83-.67,1.5-1.5,1.5s-1.5-.67-1.5-1.5,.67-1.5,1.5-1.5,1.5,.67,1.5,1.5Zm19,0c0,.83-.67,1.5-1.5,1.5s-1.5-.67-1.5-1.5,.67-1.5,1.5-1.5,1.5,.67,1.5,1.5Zm-6-6.5c0-.83,.67-1.5,1.5-1.5s1.5,.67,1.5,1.5-.67,1.5-1.5,1.5-1.5-.67-1.5-1.5ZM7,18.5c0,.83-.67,1.5-1.5,1.5s-1.5-.67-1.5-1.5,.67-1.5,1.5-1.5,1.5,.67,1.5,1.5ZM4,5.5c0-.83,.67-1.5,1.5-1.5s1.5,.67,1.5,1.5-.67,1.5-1.5,1.5-1.5-.67-1.5-1.5Zm16,13c0,.83-.67,1.5-1.5,1.5s-1.5-.67-1.5-1.5,.67-1.5,1.5-1.5,1.5,.67,1.5,1.5Z"/></svg>
