<?xml version="1.0" encoding="UTF-8"?>
<svg xmlns="http://www.w3.org/2000/svg" id="Layer_1" data-name="Layer 1" viewBox="0 0 24 24">
  <path d="m3,13c0,.828-.672,1.5-1.5,1.5s-1.5-.672-1.5-1.5.672-1.5,1.5-1.5,1.5.672,1.5,1.5Zm1.5-6c.828,0,1.5-.672,1.5-1.5s-.672-1.5-1.5-1.5-1.5.672-1.5,1.5.672,1.5,1.5,1.5Zm15,0c.828,0,1.5-.672,1.5-1.5s-.672-1.5-1.5-1.5-1.5.672-1.5,1.5.672,1.5,1.5,1.5Zm-7.5-3c.828,0,1.5-.672,1.5-1.5s-.672-1.5-1.5-1.5-1.5.672-1.5,1.5.672,1.5,1.5,1.5Zm-7.5,15c-.828,0-1.5.672-1.5,1.5s.672,1.5,1.5,1.5,1.5-.672,1.5-1.5-.672-1.5-1.5-1.5Zm15,0c-.828,0-1.5.672-1.5,1.5s.672,1.5,1.5,1.5,1.5-.672,1.5-1.5-.672-1.5-1.5-1.5Zm3-7.5c-.828,0-1.5.672-1.5,1.5s.672,1.5,1.5,1.5,1.5-.672,1.5-1.5-.672-1.5-1.5-1.5Zm-3.519,2.016c-.267,3.705-3.535,6.484-7.25,6.484h0c-3.718,0-6.731-3.014-6.731-6.731s2.778-6.982,6.482-7.25c4.266-.309,7.807,3.231,7.499,7.497Zm-2.981-.516c0-2.206-1.794-4-4-4s-4,1.794-4,4c0,.554.113,1.082.317,1.562l2.622-2.622c.586-.586,1.535-.586,2.121,0,.586.585.586,1.536,0,2.121l-2.622,2.622c.48.204,1.008.317,1.562.317,2.206,0,4-1.794,4-4Z"/>
</svg>
