<?xml version="1.0" encoding="UTF-8"?>
<svg xmlns="http://www.w3.org/2000/svg" id="Layer_1" data-name="Layer 1" viewBox="0 0 24 24" width="512" height="512"><path d="M12.01,23.67c-.59,0-1.2-.21-1.67-.64l-3.6-3.03h-1.24c-3.03,0-5.5-2.47-5.5-5.5V5.5C0,2.47,2.47,0,5.5,0h13C21.53,0,24,2.47,24,5.5V14.5c0,3.03-2.47,5.5-5.5,5.5h-1.17l-3.71,3.07c-.45,.4-1.02,.6-1.61,.6Zm-.32-2.9s-.02,.02-.03,.02l.03-.02Zm.59-.02h.02s-.01,0-.02,0ZM5.5,3c-1.38,0-2.5,1.12-2.5,2.5V14.5c0,1.38,1.12,2.5,2.5,2.5h1.79c.35,0,.7,.12,.97,.35l3.75,3.16,3.83-3.17c.27-.22,.61-.34,.96-.34h1.71c1.38,0,2.5-1.12,2.5-2.5V5.5c0-1.38-1.12-2.5-2.5-2.5H5.5Zm3.52,12.35c-.19,0-.39-.06-.55-.18-.31-.23-.44-.64-.32-1.01l.86-2.76-2.18-1.77c-.29-.25-.4-.65-.27-1.01,.13-.36,.48-.6,.86-.6h2.75l.97-2.61c.13-.36,.48-.6,.86-.6s.73,.24,.86,.6l.97,2.61h2.75c.38,0,.73,.24,.86,.6s.02,.77-.27,1.02l-2.17,1.77,.9,2.73c.12,.37,0,.78-.31,1.01-.31,.24-.73,.25-1.06,.04l-2.52-1.64-2.48,1.66c-.15,.1-.33,.15-.51,.15Z"/></svg>
