<?xml version="1.0" encoding="UTF-8"?>
<svg xmlns="http://www.w3.org/2000/svg" id="Layer_1" data-name="Layer 1" viewBox="0 0 24 24" width="512" height="512"><path d="M23.9,21.96l-1.55-3.96h.16c.83,0,1.5-.67,1.5-1.5s-.67-1.5-1.5-1.5h-1.34l-.79-2h2.12c.83,0,1.5-.67,1.5-1.5s-.67-1.5-1.5-1.5h-3.3l-2.73-6.95C15.74,1.2,13.99,0,12,0s-3.74,1.19-4.46,3.04l-2.73,6.95H1.5c-.83,0-1.5,.67-1.5,1.5s.67,1.5,1.5,1.5H3.62l-.79,2H1.5c-.83,0-1.5,.67-1.5,1.5s.67,1.5,1.5,1.5h.16L.1,21.96c-.3,.77,.08,1.64,.85,1.95,.77,.3,1.64-.08,1.95-.85l1.99-5.05h14.23l1.99,5.05c.23,.59,.8,.95,1.4,.95,.18,0,.37-.03,.55-.1,.77-.3,1.15-1.17,.85-1.95ZM10.33,4.14c.42-1.06,1.38-1.14,1.67-1.14s1.26,.08,1.67,1.14l2.3,5.86h-7.95l2.3-5.86ZM6.06,15l.79-2h10.3l.79,2H6.06Z"/></svg>
