<?xml version="1.0" encoding="UTF-8"?>
<svg xmlns="http://www.w3.org/2000/svg" id="Layer_1" data-name="Layer 1" viewBox="0 0 24 24" width="512" height="512"><path d="M12.5,18h-1c-.552,0-1-.448-1-1v-1c0-.552,.448-1,1-1h1c.552,0,1,.448,1,1v1c0,.552-.448,1-1,1Zm1-11v-1c0-.552-.448-1-1-1h-1c-.552,0-1,.448-1,1v1c0,.552,.448,1,1,1h1c.552,0,1-.448,1-1Zm0,5v-1c0-.552-.448-1-1-1h-1c-.552,0-1,.448-1,1v1c0,.552,.448,1,1,1h1c.552,0,1-.448,1-1Zm5.5,5v-1c0-.552-.448-1-1-1h-1c-.552,0-1,.448-1,1v1c0,.552,.448,1,1,1h1c.552,0,1-.448,1-1Zm-11,0v-1c0-.552-.448-1-1-1h-1c-.552,0-1,.448-1,1v1c0,.552,.448,1,1,1h1c.552,0,1-.448,1-1Zm11-5v-1c0-.552-.448-1-1-1h-1c-.552,0-1,.448-1,1v1c0,.552,.448,1,1,1h1c.552,0,1-.448,1-1Zm5,6.5V10.5c0-2.871-2.211-5.235-5.021-5.479-.244-2.809-2.608-5.021-5.479-5.021h-3c-3.033,0-5.5,2.468-5.5,5.5v4.522c-2.799,.253-5,2.613-5,5.478v3c0,3.032,2.467,5.5,5.5,5.5h13c3.033,0,5.5-2.468,5.5-5.5ZM6.5,13c.829,0,1.5-.672,1.5-1.5V5.5c0-1.379,1.122-2.5,2.5-2.5h3c1.378,0,2.5,1.121,2.5,2.5v1c0,.828,.671,1.5,1.5,1.5h1c1.378,0,2.5,1.121,2.5,2.5v8c0,1.379-1.122,2.5-2.5,2.5H5.5c-1.378,0-2.5-1.121-2.5-2.5v-3c0-1.379,1.122-2.5,2.5-2.5h1Z"/></svg>
