<?xml version="1.0" encoding="UTF-8"?>
<svg xmlns="http://www.w3.org/2000/svg" id="Layer_1" data-name="Layer 1" viewBox="0 0 24 24" width="512" height="512"><path d="m15.5,15.5c0,2.203-2.036,3.931-4.329,3.405-1.268-.291-2.294-1.325-2.58-2.594-.39-1.73.506-3.292,1.908-3.961v2.15c0,.828.672,1.5,1.5,1.5s1.5-.672,1.5-1.5v-2.15c1.179.563,2,1.756,2,3.15Zm-7.596-5.19c-.665-.497-.801-1.439-.302-2.102.496-.662,1.435-.797,2.098-.302l1.73,1.292c.104-.516.099-1.071-.06-1.645-.356-1.283-1.464-2.288-2.777-2.503-2.383-.391-4.415,1.627-4.05,4.006.193,1.257,1.116,2.329,2.317,2.747,1.026.357,1.969.199,2.756-.214l-1.712-1.278Zm7.614-5.278c-1.252.167-2.325,1.062-2.782,2.239-.268.689-.282,1.335-.169,1.929l1.609-1.238c.662-.51,1.613-.38,2.115.289.493.657.366,1.588-.285,2.089l-1.652,1.271c.856.445,1.899.574,3.036.047,1.115-.517,1.965-1.562,2.092-2.785.234-2.262-1.689-4.144-3.963-3.84Zm8.482.468v13c0,3.033-2.468,5.5-5.5,5.5H5.5c-3.032,0-5.5-2.467-5.5-5.5V5.5C0,2.467,2.468,0,5.5,0h13c3.032,0,5.5,2.467,5.5,5.5Zm-3,0c0-1.378-1.121-2.5-2.5-2.5H5.5c-1.379,0-2.5,1.122-2.5,2.5v13c0,1.378,1.121,2.5,2.5,2.5h13c1.379,0,2.5-1.122,2.5-2.5V5.5Z"/></svg>
