<?xml version="1.0" encoding="UTF-8"?>
<svg xmlns="http://www.w3.org/2000/svg" id="Layer_1" data-name="Layer 1" viewBox="0 0 24 24" width="512" height="512"><path d="M22,10.37v8.13c0,3.03-2.48,5.5-5.51,5.5H7.5c-1.47,0-2.85-.57-3.89-1.61-1.04-1.04-1.61-2.42-1.61-3.89V10.37c0-2.5,1.7-4.69,4.12-5.32,.8-.21,1.62,.27,1.83,1.07s-.27,1.62-1.07,1.83c-1.1,.29-1.87,1.28-1.87,2.42v8.13c0,.67,.25,1.29,.72,1.77s1.1,.73,1.77,.73h8.99c1.38,0,2.5-1.12,2.5-2.5V10.37c0-1.14-.76-2.14-1.86-2.42-.8-.21-1.29-1.02-1.08-1.83,.21-.8,1.02-1.29,1.83-1.08,2.43,.62,4.13,2.82,4.13,5.33Zm-15.1,2.1c-.57,.61-.53,1.55,.07,2.12l2.55,2.38c.66,.66,1.54,1.03,2.48,1.03s1.81-.36,2.44-.99l2.59-2.42c.61-.57,.64-1.51,.07-2.12-.57-.6-1.52-.64-2.12-.07l-1.48,1.38V1.5c0-.83-.68-1.5-1.5-1.5s-1.5,.67-1.5,1.5V13.79s-1.48-1.38-1.48-1.38c-.6-.56-1.55-.53-2.12,.07Z"/></svg>
