<?xml version="1.0" encoding="UTF-8"?>
<svg xmlns="http://www.w3.org/2000/svg" id="Layer_1" data-name="Layer 1" viewBox="0 0 24 24" width="512" height="512"><path d="M12,14c-1.66,0-3-1.34-3-3s1.34-3,3-3,3,1.34,3,3-1.34,3-3,3Zm9-6.14v10.64c0,3.03-2.47,5.5-5.5,5.5h-7c-3.03,0-5.5-2.47-5.5-5.5V7.86C1.28,7.42,0,5.86,0,4,0,1.8,1.79,0,4,0H20C22.21,0,24,1.8,24,4c0,1.86-1.28,3.41-3,3.86Zm-3,10.64V3H6v15.5c0,1.38,1.12,2.5,2.5,2.5h7c1.38,0,2.5-1.12,2.5-2.5Zm-3.5-2.5c-.83,0-1.5,.67-1.5,1.5s.67,1.5,1.5,1.5,1.5-.67,1.5-1.5-.67-1.5-1.5-1.5Zm-5,0c-.83,0-1.5,.67-1.5,1.5s.67,1.5,1.5,1.5,1.5-.67,1.5-1.5-.67-1.5-1.5-1.5Z"/></svg>
