<?xml version="1.0" encoding="UTF-8"?>
<svg xmlns="http://www.w3.org/2000/svg" id="Layer_1" data-name="Layer 1" viewBox="0 0 24 24" width="512" height="512"><path d="m10,22.5c0,.828-.672,1.5-1.5,1.5h-3c-3.032,0-5.5-2.468-5.5-5.5V5.5C0,2.468,2.468,0,5.5,0h7c3.032,0,5.5,2.468,5.5,5.5v2c0,.828-.672,1.5-1.5,1.5s-1.5-.672-1.5-1.5v-2c0-1.379-1.121-2.5-2.5-2.5h-7c-1.379,0-2.5,1.121-2.5,2.5v13c0,1.379,1.121,2.5,2.5,2.5h3c.828,0,1.5.672,1.5,1.5ZM6.5,5c-.828,0-1.5.672-1.5,1.5s.672,1.5,1.5,1.5h5c.828,0,1.5-.672,1.5-1.5s-.672-1.5-1.5-1.5h-5Zm3,5h-3c-.828,0-1.5.672-1.5,1.5s.672,1.5,1.5,1.5h3c.828,0,1.5-.672,1.5-1.5s-.672-1.5-1.5-1.5Zm-2,8c.828,0,1.5-.672,1.5-1.5s-.672-1.5-1.5-1.5h-1c-.828,0-1.5.672-1.5,1.5s.672,1.5,1.5,1.5h1Zm16.5-.5c0,3.59-2.91,6.5-6.5,6.5s-6.5-2.91-6.5-6.5,2.91-6.5,6.5-6.5,6.5,2.91,6.5,6.5Zm-2.5-2h0c-.579-.592-1.528-.603-2.121-.024l-2.382,2.327-.876-.843c-.597-.575-1.547-.556-2.121.041-.574.597-.556,1.546.041,2.121l1.192,1.147c.489.489,1.132.732,1.772.732.636,0,1.271-.24,1.751-.721l2.72-2.658c.593-.579.603-1.529.024-2.122Z"/></svg>
