<?xml version="1.0" encoding="UTF-8"?>
<svg xmlns="http://www.w3.org/2000/svg" id="Layer_1" data-name="Layer 1" viewBox="0 0 24 24" width="512" height="512"><path d="M23.561,21.439l-3.207-3.207c3.703-4.334,3.512-10.891-.573-14.994C17.703,1.149,14.94,0,12,0c-2.67,0-5.194,.948-7.192,2.687L2.561,.439C1.975-.146,1.025-.146,.439,.439S-.146,1.975,.439,2.561L21.439,23.561c.293,.293,.677,.439,1.061,.439s.768-.146,1.061-.439c.586-.586,.586-1.535,0-2.121Zm-5.338-5.338l-2.802-2.802c.416-.639,.658-1.402,.658-2.221,0-2.253-1.826-4.079-4.079-4.079-.819,0-1.582,.242-2.221,.658l-2.842-2.842c1.425-1.176,3.196-1.815,5.064-1.815,2.136,0,4.144,.836,5.654,2.354,2.92,2.934,3.11,7.589,.568,10.747Zm-2.903,5.18c.394,.729,.123,1.639-.605,2.033-.829,.448-1.768,.686-2.714,.686-1.506,0-2.928-.583-4.004-1.641l-3.734-3.465C1.85,16.473,.7,13.187,1.065,9.837c.09-.823,.834-1.416,1.654-1.328,.824,.09,1.418,.83,1.329,1.654-.267,2.442,.571,4.839,2.297,6.573l3.723,3.454c.884,.868,2.204,1.033,3.218,.485,.729-.396,1.639-.123,2.033,.605Z"/></svg>
