<?xml version="1.0" encoding="UTF-8"?>
<svg xmlns="http://www.w3.org/2000/svg" id="Layer_1" data-name="Layer 1" viewBox="0 0 24 24" width="512" height="512"><path d="M18.5,10h-3.09l1.49-3.97c.29-.78-.1-1.64-.88-1.93-.78-.29-1.64,.1-1.93,.88l-1.89,5.03h-.59l.88-8.34c.09-.82-.51-1.56-1.33-1.65-.82-.07-1.56,.51-1.65,1.33l-.87,8.27L7.49,1.29C7.37,.47,6.61-.1,5.79,.01c-.82,.11-1.39,.87-1.28,1.69l1.15,8.29h-.82l-1.94-5.04c-.3-.77-1.17-1.16-1.94-.86C.19,4.4-.2,5.27,.1,6.04l1.7,4.4c-.37,.21-.7,.48-.98,.82-.67,.8-.94,1.84-.76,2.87l.97,5.36c.48,2.62,2.75,4.52,5.41,4.52h12.06c3.03,0,5.5-2.47,5.5-5.5v-3c0-3.03-2.47-5.5-5.5-5.5Zm2.45,5H12.05c.23-1.14,1.24-2,2.45-2h4c1.21,0,2.22,.86,2.45,2ZM3.98,18.95l-.97-5.36c-.04-.2,.05-.34,.11-.41,.06-.07,.18-.18,.38-.18h6.1c-.38,.75-.6,1.6-.6,2.5v3c0,.9,.22,1.75,.6,2.5h-3.16c-1.21,0-2.24-.86-2.46-2.05Zm14.52,2.05h-4c-1.38,0-2.5-1.12-2.5-2.5v-.5h1.6l2.66,1.78c.22,.15,.48,.22,.74,.22s.52-.07,.74-.22l2.66-1.78h.6v.5c0,1.38-1.12,2.5-2.5,2.5Z"/></svg>
