<?xml version="1.0" encoding="UTF-8"?>
<svg xmlns="http://www.w3.org/2000/svg" id="Layer_1" data-name="Layer 1" viewBox="0 0 24 24" width="512" height="512"><path d="m12,6c-3.859,0-7,3.14-7,7,0,2.544,1.307,5.7,3.883,9.38.711,1.014,1.876,1.62,3.117,1.62s2.406-.605,3.117-1.62c2.576-3.68,3.883-6.836,3.883-9.38,0-3.86-3.141-7-7-7Zm.66,14.659c-.208.297-.503.341-.66.341s-.452-.044-.66-.341c-2.153-3.077-3.34-5.797-3.34-7.659,0-2.206,1.794-4,4-4s4,1.794,4,4c0,1.862-1.187,4.583-3.34,7.659Zm11.34,1.841c0,.829-.672,1.5-1.5,1.5h-.687c-1.008,0-1.926-.513-2.455-1.372-.531-.863-.575-1.919-.118-2.826,1.497-2.972,1.914-4.815,1.775-8.018-.018-.091-.027-.187-.027-.284,0-1.188-.447-2.114-.842-2.931-.332-.688-.646-1.338-.646-2.069,0-1.576.62-2.489,1.118-3.224.062-.09.124-.181.186-.276-3.007,0-7.667.004-9.325.013-4.426.023-8.223,3.827-8.465,8.481-.176,3.365.2,5.198,1.678,8.168.468.94.417,2.034-.135,2.925-.548.885-1.496,1.413-2.537,1.413h-.52c-.828,0-1.5-.671-1.5-1.5s.672-1.5,1.5-1.5h.52C.298,17.565-.185,15.218.018,11.338.341,5.125,5.476.044,11.463.013,13.198.004,18.216.001,21.197,0h.002c.986,0,1.91.53,2.41,1.385.499.851.511,1.869.032,2.723-.176.312-.36.588-.541.854-.4.589-.601.885-.601,1.539.021.087.21.479.348.764.429.886,1.062,2.2,1.134,3.919.009.051.014.103.017.155.2,3.847-.288,6.219-2.003,9.662h.505c.828,0,1.5.671,1.5,1.5Z"/></svg>
