<?xml version="1.0" encoding="UTF-8"?>
<svg xmlns="http://www.w3.org/2000/svg" id="Layer_1" data-name="Layer 1" viewBox="0 0 24 24" width="512" height="512"><path d="M23.59,8.25c-.57-.6-1.52-.63-2.12-.06l-.85,.81h-5.62v-.5c0-.83-.67-1.5-1.5-1.5s-1.5,.67-1.5,1.5v4.5c0,.55-.45,1-1,1s-1-.45-1-1v-4.72c0-1.6,1.08-2.99,2.62-3.39l4-1.03c.26-.07,.5-.2,.68-.39l.9-.9c.59-.59,.59-1.54,0-2.12-.59-.59-1.54-.59-2.12,0l-.61,.61-3.6,.93c-2.46,.64-4.27,2.63-4.74,5.05-2.39,.2-4.37,1.88-4.91,4.25l-.83,3.7-.95,.95c-.59,.59-.59,1.54,0,2.12,.29,.29,.68,.44,1.06,.44s.77-.15,1.06-.44l1.26-1.26c.2-.2,.34-.45,.4-.73l.93-4.12c.21-.95,.94-1.65,1.85-1.87v2.92c0,2.21,1.79,4,4,4s4-1.79,4-4v-1h3.98l-1.45,5.17c-.3,1.08-1.29,1.83-2.41,1.83h-5.13c-.41,0-.79,.16-1.08,.46l-1.95,2.01c-.58,.59-.56,1.54,.03,2.12,.29,.28,.67,.42,1.04,.42s.78-.15,1.08-.46l1.51-1.56h4.49c2.46,0,4.63-1.65,5.3-4.02l1.78-6.37s.03-.02,.04-.03l1.28-1.22c.6-.57,.63-1.52,.06-2.12Z"/></svg>
