<?xml version="1.0" encoding="UTF-8"?>
<svg xmlns="http://www.w3.org/2000/svg" id="Layer_1" data-name="Layer 1" viewBox="0 0 24 24">
  <path d="m18.5,1H5.5C2.467,1,0,3.467,0,6.5v11c0,3.033,2.467,5.5,5.5,5.5h13c3.033,0,5.5-2.467,5.5-5.5V6.5c0-3.033-2.467-5.5-5.5-5.5Zm2.5,6h-3.879l2.651-2.651c.734.436,1.228,1.237,1.228,2.151v.5Zm-11.879,0l3-3h3.758l-3,3h-3.758Zm-3.621-3h2.379l-3,3h-1.879v-.5c0-1.378,1.122-2.5,2.5-2.5Zm13,16H5.5c-1.378,0-2.5-1.122-2.5-2.5v-7.5h18v7.5c0,1.378-1.122,2.5-2.5,2.5Zm-3.453-4.2l-4.634,2.48c-.622.373-1.413-.075-1.413-.8v-4.961c0-.725.791-1.173,1.413-.8l4.634,2.48c.604.362.604,1.238,0,1.6Z"/>
</svg>
