<?xml version="1.0" encoding="UTF-8"?>
<svg xmlns="http://www.w3.org/2000/svg" id="Layer_1" data-name="Layer 1" viewBox="0 0 24 24" width="512" height="512"><path d="M14,12v10c0,1.105-.895,2-2,2s-2-.895-2-2V12c0-1.105,.895-2,2-2s2,.895,2,2Zm10,.348v8.151c0,1.93-1.57,3.5-3.5,3.5h-1c-1.93,0-3.5-1.57-3.5-3.5V12c0-1.125-.478-2.204-1.311-2.96-.844-.768-1.945-1.127-3.087-1.021-2.021,.193-3.603,2.045-3.603,4.217v8.264c0,1.93-1.57,3.5-3.5,3.5h-1c-1.93,0-3.5-1.57-3.5-3.5V12C0,8.753,1.276,5.712,3.593,3.437,5.909,1.164,8.943-.064,12.225,.003c6.493,.119,11.775,5.657,11.775,12.346Zm-5-.349v2h2v-1.651c0-1.276-.253-2.496-.707-3.61l-1.671,1.01c.245,.719,.378,1.478,.378,2.251Zm-13.572-2.221l-1.797-1.086c-.41,1.039-.631,2.154-.631,3.307v2h2v-1.764c0-.858,.155-1.685,.428-2.457Zm-.428,10.721v-3.5H3v3.5c0,.276,.225,.5,.5,.5h1c.275,0,.5-.224,.5-.5ZM10.5,5.17V3.134c-1.798,.304-3.473,1.136-4.805,2.444-.179,.176-.345,.362-.508,.55l1.796,1.086c.939-1.008,2.153-1.737,3.516-2.044Zm6.208,1.65c.127,.115,.242,.24,.36,.363l1.661-1.004c-1.336-1.57-3.164-2.673-5.229-3.037v2.031c1.186,.261,2.297,.819,3.208,1.647Zm4.292,13.68v-3.5h-2v3.5c0,.276,.225,.5,.5,.5h1c.275,0,.5-.224,.5-.5Z"/></svg>
