<?xml version="1.0" encoding="UTF-8"?>
<svg xmlns="http://www.w3.org/2000/svg" id="Layer_1" data-name="Layer 1" viewBox="0 0 24 24" width="512" height="512"><path d="M4,10h6c2.21,0,4-1.79,4-4h2.5c.83,0,1.5,.67,1.5,1.5v.5h-1.16c-.75,0-1.12,.91-.59,1.43l2.66,2.66c.33,.33,.86,.33,1.19,0l2.66-2.66c.53-.53,.15-1.43-.59-1.43h-1.16v-.5c0-2.48-2.02-4.5-4.5-4.5h-2.64c-.45-1.72-2-3-3.86-3H4C1.79,0,0,1.79,0,4v2c0,2.21,1.79,4,4,4Zm-1-6c0-.55,.45-1,1-1h6c.55,0,1,.45,1,1v2c0,.55-.45,1-1,1H4c-.55,0-1-.45-1-1v-2Zm21,14v2c0,2.21-1.79,4-4,4H4c-2.21,0-4-1.79-4-4v-2c0-2.21,1.79-4,4-4H20c2.21,0,4,1.79,4,4Z"/></svg>
