<?xml version="1.0" encoding="UTF-8"?>
<svg xmlns="http://www.w3.org/2000/svg" id="Layer_1" data-name="Layer 1" viewBox="0 0 24 24">
  <path d="m9.311,23.229c-.274.493-.785.771-1.312.771-.247,0-.496-.061-.727-.188C2.65,21.244,0,16.938,0,12,0,5.383,5.383,0,12,0c.574,0,1.151.041,1.713.122.82.117,1.389.878,1.271,1.697-.118.821-.875,1.395-1.698,1.271-.421-.061-.854-.091-1.287-.091C7.038,3,3,7.037,3,12c0,3.817,2.088,7.166,5.729,9.188.724.402.985,1.315.583,2.04Zm12.87-14.213c-.82.117-1.39.877-1.272,1.697.061.422.091.855.091,1.287,0,2.757-2.243,5-5,5-2.599,0-4.789-2.026-4.985-4.614-.063-.825-.789-1.445-1.609-1.382-.826.063-1.445.784-1.382,1.61.315,4.142,3.819,7.386,7.977,7.386,4.411,0,8-3.589,8-8,0-.574-.041-1.15-.122-1.713-.118-.82-.875-1.395-1.698-1.271Zm-9.155.529v.955c0,.276.224.5.5.5h.955c1.149,0,2.252-.457,3.064-1.269l5.715-5.715c.85-.85,1.013-2.236.252-3.167-.875-1.07-2.456-1.129-3.409-.176l-5.808,5.808c-.813.813-1.269,1.915-1.269,3.064Z"/>
</svg>
