<?xml version="1.0" encoding="UTF-8"?>
<svg xmlns="http://www.w3.org/2000/svg" id="Layer_1" data-name="Layer 1" viewBox="0 0 24 24" width="512" height="512"><path d="m24,22.5c0,.828-.672,1.5-1.5,1.5h-4c-.828,0-1.5-.672-1.5-1.5s.672-1.5,1.5-1.5h.5v-8H5v8h.5c.828,0,1.5.672,1.5,1.5s-.672,1.5-1.5,1.5H1.5c-.828,0-1.5-.672-1.5-1.5s.672-1.5,1.5-1.5h.5V3h-.5c-.828,0-1.5-.672-1.5-1.5S.672,0,1.5,0h4c.828,0,1.5.672,1.5,1.5s-.672,1.5-1.5,1.5h-.5v7h14V3h-.5c-.828,0-1.5-.672-1.5-1.5s.672-1.5,1.5-1.5h4c.828,0,1.5.672,1.5,1.5s-.672,1.5-1.5,1.5h-.5v18h.5c.828,0,1.5.672,1.5,1.5Z"/></svg>
