<?xml version="1.0" encoding="UTF-8"?>
<svg xmlns="http://www.w3.org/2000/svg" id="Layer_1" data-name="Layer 1" viewBox="0 0 24 24">
  <path d="m16.637,11.028c.568.604.54,1.553-.063,2.12l-3.046,2.867c-.661.652-1.541.98-2.424.98s-1.776-.33-2.455-.992l-1.167-1.024c-.622-.547-.684-1.494-.136-2.116.545-.623,1.494-.685,2.116-.136l1.225,1.077c.252.241.567.242.759.051l3.071-2.891c.604-.568,1.552-.541,2.12.063Zm6.363-6.528c0,.828-.672,1.5-1.5,1.5h-.5v12.5c0,3.032-2.468,5.5-5.5,5.5h-7c-3.032,0-5.5-2.468-5.5-5.5V6h-.5c-.828,0-1.5-.672-1.5-1.5s.672-1.5,1.5-1.5h3.757c.619-1.746,2.287-3,4.243-3h3c1.956,0,3.624,1.254,4.243,3h3.757c.828,0,1.5.672,1.5,1.5Zm-5,1.5H6v12.5c0,1.379,1.121,2.5,2.5,2.5h7c1.379,0,2.5-1.121,2.5-2.5V6Z"/>
</svg>
