<?xml version="1.0" encoding="UTF-8"?>
<svg xmlns="http://www.w3.org/2000/svg" id="Layer_1" data-name="Layer 1" viewBox="0 0 24 24" width="512" height="512"><path d="m20.39,12.039c1.287-1.57,1.217-3.888-.248-5.353l-2.829-2.829c-1.464-1.464-3.782-1.535-5.353-.248-.199-2.021-1.889-3.61-3.961-3.61h-4C1.794,0,0,1.794,0,4v14c0,3.309,2.691,6,6,6h14c2.206,0,4-1.794,4-4v-4c0-2.072-1.589-3.761-3.61-3.961Zm-5.198-6.06l2.829,2.829c.39.39.39,1.024,0,1.415l-6.021,6.021V7.757l1.778-1.778c.389-.39,1.024-.391,1.415,0Zm-12.192,3.021h6v3H3v-3Zm1-6h4c.551,0,1,.449,1,1v2H3v-2c0-.551.449-1,1-1Zm-1,15v-3h6v3c0,1.654-1.346,3-3,3s-3-1.346-3-3Zm18,2c0,.551-.449,1-1,1h-8.515l6-6h2.514c.551,0,1,.449,1,1v4Zm-15-.5c-.828,0-1.5-.672-1.5-1.5s.672-1.5,1.5-1.5,1.5.672,1.5,1.5-.672,1.5-1.5,1.5Z"/></svg>
