<?xml version="1.0" encoding="UTF-8"?>
<svg xmlns="http://www.w3.org/2000/svg" id="Layer_1" data-name="Layer 1" viewBox="0 0 24 24" width="512" height="512"><path d="M23,8.5c0-3.58-2.92-6.5-6.5-6.5h-3v-.5c0-.83-.67-1.5-1.5-1.5s-1.5,.67-1.5,1.5v.5h-3C3.92,2,1,4.92,1,8.5c0,1.21,.86,2.22,2,2.45v3.49c0,4.7,4.07,7.6,6.49,8.92,.79,.43,1.65,.64,2.51,.64s1.73-.21,2.51-.64c2.42-1.31,6.49-4.22,6.49-8.92v-3.49c1.14-.23,2-1.24,2-2.45ZM7.5,5h9c1.76,0,3.22,1.31,3.46,3H4.04c.24-1.69,1.7-3,3.46-3Zm5.58,15.72c-.68,.37-1.49,.37-2.16,0-1.84-1-4.92-3.13-4.92-6.28v-3.44h12v3.44c0,3.15-3.08,5.28-4.92,6.28Z"/></svg>
