<?xml version="1.0" encoding="UTF-8"?>
<svg xmlns="http://www.w3.org/2000/svg" id="Layer_1" data-name="Layer 1" viewBox="0 0 24 24" width="512" height="512"><path d="m17.25,0c-3.116,0-5.738,2.125-6.512,5H3.5c-.999,0-1.953.428-2.617,1.175C.221,6.922-.093,7.919.024,8.91l1.208,10.234c.327,2.768,2.675,4.855,5.462,4.855h5.61c2.787,0,5.136-2.087,5.462-4.855l1.208-10.234c.117-.992-.196-1.989-.859-2.735-.664-.747-1.618-1.175-2.617-1.175h-1.546c.631-1.184,1.864-2,3.296-2,2.068,0,3.75,1.682,3.75,3.75,0,.563-.121,1.104-.36,1.605-.356.749-.038,1.643.71,1.999.749.356,1.643.038,1.999-.71.432-.908.651-1.882.651-2.895,0-3.722-3.028-6.75-6.75-6.75Zm-4.945,21h-5.61c-1.267,0-2.334-.949-2.483-2.207l-.566-4.793h4.854c.829,0,1.5-.671,1.5-1.5s-.671-1.5-1.5-1.5H3.292l-.288-2.442c-.023-.193.067-.328.123-.39s.178-.168.374-.168h7.118c.477,2.501,2.356,4.559,4.824,5.247l-.655,5.546c-.148,1.258-1.216,2.207-2.483,2.207Zm3.568-12.832c.056.062.146.197.123.391l-.193,1.636c-.97-.41-1.727-1.208-2.08-2.194h1.776c.196,0,.318.105.374.168Z"/></svg>
