<?xml version="1.0" encoding="UTF-8"?>
<svg xmlns="http://www.w3.org/2000/svg" id="Layer_1" data-name="Layer 1" viewBox="0 0 24 24" width="512" height="512"><path d="m22.5,9h-.5v-3.5c0-3.032-2.467-5.5-5.5-5.5H7.5C4.467,0,2,2.468,2,5.5v3.5h-.5c-.829,0-1.5.672-1.5,1.5s.671,1.5,1.5,1.5h.5v3.5c0,3.032,2.467,5.5,5.5,5.5h.093l2.866,2.413c.444.396,1.003.592,1.555.592.54,0,1.073-.187,1.486-.556l2.962-2.449h.038c3.033,0,5.5-2.468,5.5-5.5v-3.5h.5c.829,0,1.5-.672,1.5-1.5s-.671-1.5-1.5-1.5Zm-3.5,6.5c0,1.379-1.122,2.5-2.5,2.5h-.577c-.349,0-.687.122-.956.344l-2.963,2.45-2.898-2.441c-.271-.228-.613-.353-.966-.353h-.64c-1.378,0-2.5-1.121-2.5-2.5V5.5c0-1.379,1.122-2.5,2.5-2.5h9c1.378,0,2.5,1.121,2.5,2.5v10Z"/><path d="m16,6h-8c-1.105,0-2,.895-2,2v5c0,1.105.895,2,2,2h8c1.105,0,2-.895,2-2v-5c0-1.105-.895-2-2-2Zm-6.5,6c-.828,0-1.5-.672-1.5-1.5s.672-1.5,1.5-1.5,1.5.672,1.5,1.5-.672,1.5-1.5,1.5Zm5,0c-.828,0-1.5-.672-1.5-1.5s.672-1.5,1.5-1.5,1.5.672,1.5,1.5-.672,1.5-1.5,1.5Z"/></svg>
