<?xml version="1.0" encoding="UTF-8"?>
<svg xmlns="http://www.w3.org/2000/svg" id="Layer_1" data-name="Layer 1" viewBox="0 0 24 24">
  <path d="m9.561,12.439c-.586-.586-1.535-.586-2.121,0-.586.585-.586,1.536,0,2.121l2,2c.293.293.677.439,1.061.439s.768-.146,1.061-.439c.586-.585.586-1.536,0-2.121l-2-2Z"/>
  <path d="m23.561.439c-.401-.401-.972-.527-1.48-.38,0,0,0-.002,0-.002,0,0-5.081,1.681-5.081,2.786,0,.17.108.973.503,1.532l-3.913,3.913c-.523-1.352-.257-2.89.813-3.963l.004-.004c.586-.586.586-1.536,0-2.121-.586-.586-1.535-.586-2.121,0-.627.626-.986.958-1.223,1.176-.595.548-1.457,1.842-1.457,1.842-.987,1.492-1.837,2.038-3.951,2.538-.271.064-.532.121-.781.176-1.271.279-2.37.52-3.142,1.292-3.797,3.797-.593,7.093,1.982,9.742l1.183,1.229c1.927,2.027,3.634,3.805,5.851,3.805,1.253,0,2.432-.569,3.602-1.739.784-.784,1.158-2.009,1.6-3.656.522-1.945,1.025-2.606,2.832-3.721.251-.155.436-.262.585-.349.825-.479.952-.606,2.508-2.162.538-.538.588-1.393.117-1.99-.471-.597-1.314-.747-1.963-.349-1.271.781-3.022.896-4.339.399l7.872-7.872c.586-.585.586-1.536,0-2.121Zm-10.509,17.387c-.176.655-.542,2.019-.824,2.313-.571.571-1.07.86-1.484.86h-.011c-.942-.012-2.263-1.401-3.662-2.873l-1.206-1.254c-3.197-3.287-3.479-4.062-2.018-5.523.196-.165,1.047-.352,1.668-.488.265-.058.542-.119.83-.187,1.68-.397,3.021-.904,4.215-1.971.289,1.046.475,1.76,1.725,3.01s2.053,1.509,3.268,1.793c-1.3,1.113-1.968,2.333-2.502,4.319Z"/>
</svg>
