<?xml version="1.0" encoding="UTF-8"?>
<svg xmlns="http://www.w3.org/2000/svg" id="Layer_1" data-name="Layer 1" viewBox="0 0 24 24" width="512" height="512"><path d="M11,20.5c0,.83-.67,1.5-1.5,1.5H5.5c-3.03,0-5.5-2.47-5.5-5.5V5.5C0,2.47,2.47,0,5.5,0h11c3.03,0,5.5,2.47,5.5,5.5v4c0,.83-.67,1.5-1.5,1.5s-1.5-.67-1.5-1.5V5.5c0-1.38-1.12-2.5-2.5-2.5H5.5c-1.38,0-2.5,1.12-2.5,2.5v11c0,1.38,1.12,2.5,2.5,2.5h4c.83,0,1.5,.67,1.5,1.5Zm-.94-12.94c.43-.43,.56-1.07,.33-1.63s-.78-.93-1.39-.93h-2.5c-.83,0-1.5,.67-1.5,1.5V14.5c0,1.38,1.12,2.5,2.5,2.5h1c.83,0,1.5-.67,1.5-1.5s-.67-1.5-1.5-1.5h-.5v-4.38l2.06-2.06Zm5.44,2.44c.83,0,1.5-.67,1.5-1.5v-.5c0-1.65-1.35-3-3-3h-.5c-.83,0-1.5,.67-1.5,1.5s.67,1.5,1.5,1.5h.5v.5c0,.83,.67,1.5,1.5,1.5Zm8.06,13.56c-.29,.29-.68,.44-1.06,.44s-.77-.15-1.06-.44l-2.13-2.13c-.69,.36-1.48,.57-2.31,.57-2.76,0-5-2.24-5-5s2.24-5,5-5,5,2.24,5,5c0,.83-.21,1.62-.57,2.31l2.13,2.13c.59,.59,.59,1.54,0,2.12Zm-4.56-6.56c0-1.1-.9-2-2-2s-2,.9-2,2,.9,2,2,2,2-.9,2-2Z"/></svg>
