<?xml version="1.0" encoding="UTF-8"?>
<svg xmlns="http://www.w3.org/2000/svg" id="Layer_1" data-name="Layer 1" viewBox="0 0 24 24" width="512" height="512"><path d="m6,22.498c0,.829-.669,1.501-1.498,1.502-1.191,0-2.377-.494-3.239-1.355-.814-.813-1.263-1.872-1.263-2.98,0-1.363.155-2.73.462-4.062l1.564-6.78c.603-2.604,2.737-4.539,5.314-4.814.807-.08,1.562.508,1.65,1.333.088.824-.508,1.562-1.332,1.651-1.327.142-2.391,1.125-2.709,2.506l-1.564,6.779c-.256,1.11-.386,2.25-.386,3.388,0,.393.208.683.382.857.296.295.723.478,1.113.478h.005c.827,0,1.499.67,1.5,1.498Zm6-15.498c.828,0,1.5-.671,1.5-1.5V1.5c0-.829-.672-1.5-1.5-1.5s-1.5.671-1.5,1.5v4c0,.829.672,1.5,1.5,1.5Zm4.5,10c-.203,0-.396.04-.572.113l-.979-.565c.033-.178.051-.361.051-.548,0-.188-.018-.372-.052-.551l1.875-1.082c.479-.276.643-.888.366-1.366-.277-.479-.89-.643-1.366-.366l-1.878,1.084c-.276-.236-.596-.423-.945-.546v-1.554c.307-.275.5-.674.5-1.118,0-.811-.586-1.5-1.5-1.5s-1.5.689-1.5,1.5c0,.444.193.843.5,1.118v1.554c-.349.124-.669.311-.945.546l-1.878-1.085c-.478-.277-1.09-.113-1.366.366-.276.478-.112,1.09.366,1.366l1.875,1.083c-.033.179-.052.363-.052.551,0,.187.018.37.051.548l-.979.565c-.176-.073-.369-.113-.572-.113-.828,0-1.5.672-1.5,1.5s.672,1.5,1.5,1.5c.682,0,1.257-.455,1.439-1.078l1.113-.643c.277.237.597.425.948.549v2.172c0,.552.447,1,1,1s1-.448,1-1v-2.172c.35-.124.671-.312.948-.549l1.113.643c.182.623.758,1.078,1.439,1.078.828,0,1.5-.672,1.5-1.5s-.672-1.5-1.5-1.5Zm7.038-1.398l-1.564-6.78c-.603-2.604-2.737-4.539-5.314-4.814-.812-.081-1.562.508-1.65,1.333-.088.824.508,1.562,1.332,1.651,1.327.142,2.391,1.125,2.709,2.506l1.564,6.778c.256,1.111.386,2.251.386,3.389,0,.393-.208.683-.382.857-.296.295-.726.478-1.116.478h-.002c-.827,0-1.499.67-1.5,1.498,0,.829.669,1.501,1.498,1.502,1.191,0,2.377-.494,3.239-1.355.814-.813,1.263-1.872,1.263-2.98,0-1.363-.155-2.73-.462-4.062Z"/></svg>
