<?xml version="1.0" encoding="UTF-8"?>
<svg xmlns="http://www.w3.org/2000/svg" id="Layer_1" data-name="Layer 1" viewBox="0 0 24 24" width="512" height="512"><path d="m17.5,0H6.5C3.467,0,1,2.467,1,5.5v13c0,3.033,2.467,5.5,5.5,5.5h12c2.378,0,4.31-1.859,4.469-4.197.02-.098.031-.199.031-.303V5.5c0-3.033-2.467-5.5-5.5-5.5Zm2.5,5.5v9.776c-.471-.168-.971-.276-1.5-.276h-5.912l1.518-2.49h3.378c.181,0,.347-.098.436-.255.088-.158.085-.351-.009-.505l-1.67-2.742,1.669-2.738c.094-.154.098-.348.009-.505-.088-.158-.255-.255-.436-.255h-3.373l-1.529-2.51h4.917c1.378,0,2.5,1.122,2.5,2.5Zm-11.071,3.508l1.521-2.498h3.099l1.521,2.498-1.526,2.502h-3.091l-1.526-2.502Zm.354,2.502h-1.878l.939-1.541.94,1.541Zm-.94-3.463l-.937-1.537h1.873l-.936,1.537Zm2.717-2.537l.94-1.544.94,1.544h-1.881Zm3.661,1h1.873l-.937,1.537-.936-1.537Zm.935,3.459l.939,1.541h-1.878l.94-1.541Zm-2.721,2.541l-.936,1.534-.936-1.534h1.871ZM6.5,3h4.917l-1.529,2.51h-3.373c-.181,0-.348.098-.436.255-.088.157-.085.351.009.505l1.669,2.738-1.67,2.742c-.094.154-.097.348-.009.505.089.157.255.255.436.255h3.378l1.518,2.49h-7.412V5.5c0-1.378,1.122-2.5,2.5-2.5Zm12,18H6.5c-1.378,0-2.5-1.122-2.5-2.5v-.5h14.5c.827,0,1.5.673,1.5,1.5s-.673,1.5-1.5,1.5Z"/></svg>
