<?xml version="1.0" encoding="UTF-8"?>
<svg xmlns="http://www.w3.org/2000/svg" id="Layer_1" data-name="Layer 1" viewBox="0 0 24 24" width="512" height="512"><path d="m18.18,20c-2.878,0-5.311-1.956-6.675-5.366l-1.737-4.188c-.519-1.298-1.709-3.446-3.922-3.446-1.623,0-2.846,1.29-2.846,3v5c0,.829-.671,1.5-1.5,1.5s-1.5-.671-1.5-1.5v-5c0-3.364,2.568-6,5.846-6,2.907,0,5.349,1.937,6.7,5.314l1.737,4.188c.526,1.317,1.724,3.498,3.896,3.498,1.607,0,2.82-1.29,2.82-3v-5c0-.829.672-1.5,1.5-1.5s1.5.671,1.5,1.5v5c0,3.364-2.557,6-5.82,6Z"/></svg>
