<?xml version="1.0" encoding="UTF-8"?>
<svg xmlns="http://www.w3.org/2000/svg" id="Layer_1" data-name="Layer 1" viewBox="0 0 24 24">
  <path d="m12.437.384c-.356-.285-.819-.393-1.267-.292-1.244.279-2.225,1.187-2.625,2.428l-1.144,3.568h-3.772c-1.599,0-2.951.981-3.446,2.501-.496,1.52.018,3.11,1.307,4.052l3.08,2.252-1.169,3.618c-.493,1.527.028,3.119,1.329,4.056.636.458,1.378.687,2.121.687.753,0,1.507-.236,2.148-.707l3.389-2.492c.385-.283.611-.731.611-1.208V1.555c0-.456-.207-.886-.563-1.171Zm-2.437,17.702l-2.776,2.042c-.231.169-.507.171-.739.004-.244-.176-.321-.412-.228-.7l1.502-4.65c.198-.616-.02-1.29-.542-1.672l-3.956-2.893c-.243-.177-.318-.413-.226-.699.094-.286.294-.431.595-.431h4.867c.652,0,1.229-.421,1.429-1.042l.074-.232v10.273Z"/>
</svg>
