<?xml version="1.0" encoding="UTF-8"?>
<svg xmlns="http://www.w3.org/2000/svg" id="Layer_1" data-name="Layer 1" viewBox="0 0 24 24" width="512" height="512"><path d="M22.271,15.114c-.89-.321-1.954-.688-3.145-1.066l2.775-10.409c.233-.875,.052-1.789-.5-2.508-.553-.719-1.389-1.131-2.295-1.131h-.276c-1.469,0-2.871,.692-3.765,1.854,0,0-6.722,7.761-6.742,7.789-.971,1.292-2.938,1.357-3.323,1.357H1.5c-.828,0-1.5,.672-1.5,1.5s.672,1.5,1.5,1.5h1c6.264,0,13.394,2.077,17.674,3.556-4.281,1.433-11.41,3.444-17.674,3.444H1.5c-.828,0-1.5,.672-1.5,1.5s.672,1.5,1.5,1.5h1c7.271,0,15.493-2.496,19.749-3.983,1.054-.369,1.738-1.328,1.743-2.443s-.67-2.08-1.721-2.459Zm-11.584-3.626s6.722-7.761,6.743-7.789c.328-.438,.852-.699,1.399-.699h.137l-2.717,10.189c-1.812-.505-3.792-.989-5.835-1.372,.093-.105,.184-.214,.272-.329Zm-4.187,7.512c-.828,0-1.5-.672-1.5-1.5s.672-1.5,1.5-1.5h4c.828,0,1.5,.672,1.5,1.5s-.672,1.5-1.5,1.5H6.5Z"/></svg>
