<?xml version="1.0" encoding="UTF-8"?>
<svg xmlns="http://www.w3.org/2000/svg" id="Layer_1" data-name="Layer 1" viewBox="0 0 24 24" width="512" height="512"><path d="m23.561,21.439l-.586-.586c.107-.752-.129-1.543-.707-2.122s-1.37-.814-2.122-.707l-.811-.811c.338-.475.625-.976.859-1.495l.94.236c.123.03.246.045.366.045.672,0,1.283-.454,1.454-1.135.202-.804-.287-1.618-1.09-1.82l-.907-.228c.049-.544.049-1.091,0-1.635l.907-.228c.803-.202,1.292-1.017,1.09-1.82-.202-.803-1.015-1.291-1.82-1.09l-.94.236c-.235-.519-.521-1.02-.859-1.495l.811-.811c.116.016.234.025.354.025,1.381,0,2.5-1.119,2.5-2.5s-1.119-2.5-2.5-2.5-2.5,1.119-2.5,2.5c0,.12.009.238.025.354l-.811.811c-.475-.338-.976-.625-1.495-.86l.236-.939c.201-.804-.287-1.618-1.09-1.82-.801-.198-1.619.286-1.82,1.09l-.227.906c-.544-.049-1.091-.049-1.635,0l-.227-.906c-.202-.804-1.015-1.288-1.82-1.09-.803.202-1.292,1.017-1.09,1.82l.236.939c-.519.235-1.02.522-1.495.86l-.81-.81c.107-.752-.129-1.543-.707-2.122s-1.37-.814-2.122-.707l-.586-.586C1.975-.146,1.025-.146.439.439S-.146,1.975.439,2.561l21,21c.293.293.677.439,1.061.439s.768-.146,1.061-.439c.586-.586.586-1.535,0-2.121Zm-7.318-13.683c1.973,1.974,2.282,4.991.926,7.291L8.952,6.831c2.3-1.356,5.317-1.048,7.291.926Zm-6.743,8.243c-.828,0-1.5-.672-1.5-1.5s.672-1.5,1.5-1.5,1.5.672,1.5,1.5-.672,1.5-1.5,1.5Zm6.5-6.5c0,.828-.672,1.5-1.5,1.5s-1.5-.672-1.5-1.5.672-1.5,1.5-1.5,1.5.672,1.5,1.5Zm-.046,11.632c.203.803-.283,1.619-1.086,1.822-.124.031-.248.046-.369.046-.67,0-1.281-.452-1.453-1.132l-.229-.905c-.551.051-1.098.051-1.636.004l-.225.899c-.171.681-.782,1.135-1.454,1.135-.121,0-.244-.015-.366-.045-.804-.202-1.292-1.017-1.09-1.82l.234-.932c-.522-.238-1.022-.527-1.495-.865l-.809.809c.016.115.025.232.025.351,0,1.379-1.119,2.497-2.5,2.497s-2.5-1.118-2.5-2.497,1.119-2.497,2.5-2.497c.12,0,.238.009.354.025l.809-.809c-.338-.473-.627-.974-.865-1.495l-.933.234c-.123.03-.246.045-.366.045-.672,0-1.283-.454-1.454-1.135-.202-.804.287-1.618,1.09-1.82l.899-.226c-.048-.539-.048-1.087.003-1.639l-.901-.226c-.804-.201-1.292-1.016-1.091-1.819.201-.805,1.016-1.292,1.819-1.091l1.279.32c1.265.318,2.085,1.533,1.911,2.826-.253,1.875.368,3.716,1.703,5.052,1.335,1.334,3.174,1.956,5.049,1.703,1.294-.171,2.504.645,2.823,1.906l.324,1.279Z"/></svg>
