<?xml version="1.0" encoding="UTF-8"?>
<svg xmlns="http://www.w3.org/2000/svg" id="Layer_1" data-name="Layer 1" viewBox="0 0 24 24" width="512" height="512"><path d="M22.5,21H13.5v-2h6.942c1.097,0,2.117-.494,2.8-1.355,.666-.839,.908-1.911,.667-2.941-1.196-5.114-5.447-8.951-10.409-9.604V3h1c.829,0,1.5-.671,1.5-1.5s-.671-1.5-1.5-1.5h-5c-.829,0-1.5,.671-1.5,1.5s.671,1.5,1.5,1.5h1v2.099C5.539,5.752,1.288,9.589,.091,14.703c-.241,1.031,.001,2.103,.667,2.942,.683,.861,1.703,1.355,2.8,1.355h6.942v2H1.5c-.829,0-1.5,.671-1.5,1.5s.671,1.5,1.5,1.5H22.5c.829,0,1.5-.671,1.5-1.5s-.671-1.5-1.5-1.5ZM3.109,15.781c-.066-.084-.137-.22-.097-.394,1.001-4.28,4.781-7.387,8.988-7.387s7.986,3.106,8.988,7.387c.041,.173-.03,.31-.097,.394-.052,.066-.201,.219-.449,.219H3.558c-.249,0-.397-.153-.449-.219Z"/></svg>
