<?xml version="1.0" encoding="UTF-8"?>
<svg xmlns="http://www.w3.org/2000/svg" id="Layer_1" data-name="Layer 1" viewBox="0 0 24 24">
  <path d="m22.5,21h-.55c-.229-1.128-1.218-1.98-2.409-1.999,2.129-2.007,3.46-4.851,3.46-8.001C23,4.935,18.065,0,12,0S1,4.935,1,11c0,3.15,1.331,5.994,3.46,8.001-1.191.019-2.18.871-2.409,1.999h-.55c-.828,0-1.5.671-1.5,1.5s.672,1.5,1.5,1.5h21c.828,0,1.5-.671,1.5-1.5s-.672-1.5-1.5-1.5ZM4,11c0-4.411,3.589-8,8-8s8,3.589,8,8c0,4.073-3.059,7.444-7,7.938v-1.938h1.641c.843,0,1.325-.963.819-1.637l-.878-1.17h.151c.732,0,1.149-.835.71-1.421l-2.414-3.219c-.495-.66-1.485-.66-1.98,0l-2.414,3.219c-.439.585-.021,1.421.71,1.421h.074l-.878,1.17c-.506.675-.025,1.637.819,1.637h1.641v1.938c-3.941-.494-7-3.865-7-7.938Zm9-4.5c0-.828.672-1.5,1.5-1.5s1.5.672,1.5,1.5-.672,1.5-1.5,1.5-1.5-.672-1.5-1.5Zm3,4c0-.828.672-1.5,1.5-1.5s1.5.672,1.5,1.5-.672,1.5-1.5,1.5-1.5-.672-1.5-1.5Zm-10-2c0-.828.672-1.5,1.5-1.5s1.5.672,1.5,1.5-.672,1.5-1.5,1.5-1.5-.672-1.5-1.5Z"/>
</svg>
