<?xml version="1.0" encoding="UTF-8"?>
<svg xmlns="http://www.w3.org/2000/svg" id="Layer_1" data-name="Layer 1" viewBox="0 0 24 24" width="512" height="512"><path d="M23.56,2.56l-3.28,3.29c-1.48,1.49-4.07,1.49-5.56,0l-1.56-1.56c-.35-.35-.96-.35-1.31,0l-3.57,3.56c-.74,.74-1.73,1.15-2.78,1.15s-2.04-.41-2.78-1.15L.44,5.56c-.58-.59-.58-1.54,0-2.12,.59-.59,1.54-.58,2.12,0l2.28,2.29c.35,.35,.96,.35,1.31,0l3.57-3.56c1.48-1.48,4.07-1.48,5.56,0l1.56,1.56c.35,.35,.96,.35,1.31,0L21.44,.44c.58-.59,1.53-.59,2.12,0s.59,1.54,0,2.12ZM6.5,13c-.83,0-1.5,.67-1.5,1.5v8c0,.83,.67,1.5,1.5,1.5s1.5-.67,1.5-1.5V14.5c0-.83-.67-1.5-1.5-1.5ZM1.5,11c-.83,0-1.5,.67-1.5,1.5v10c0,.83,.67,1.5,1.5,1.5s1.5-.67,1.5-1.5V12.5c0-.83-.67-1.5-1.5-1.5Zm10-2c-.83,0-1.5,.67-1.5,1.5v12c0,.83,.67,1.5,1.5,1.5s1.5-.67,1.5-1.5V10.5c0-.83-.67-1.5-1.5-1.5Zm5,2c-.83,0-1.5,.67-1.5,1.5v10c0,.83,.67,1.5,1.5,1.5s1.5-.67,1.5-1.5V12.5c0-.83-.67-1.5-1.5-1.5Zm5-3c-.83,0-1.5,.67-1.5,1.5v13c0,.83,.67,1.5,1.5,1.5s1.5-.67,1.5-1.5V9.5c0-.83-.67-1.5-1.5-1.5Z"/></svg>
