<?xml version="1.0" encoding="UTF-8"?>
<svg xmlns="http://www.w3.org/2000/svg" id="Layer_1" data-name="Layer 1" viewBox="0 0 24 24" width="512" height="512"><path d="M18.056,3c-2.513,0-5.056,2.347-5.056,6.833,0,1.722,.873,3.292,1.717,4.812,.658,1.185,1.339,2.411,1.339,3.355v2.5c0,1.93,1.57,3.5,3.5,3.5s3.5-1.57,3.5-3.5v-2.5c0-1.146,.197-1.924,.426-2.826,.243-.957,.519-2.042,.519-3.563,0-7.064-4.291-8.611-5.944-8.611Zm-2.056,6.833c0-2.517,1.034-3.833,2.054-3.833,.03,0,2.946,.206,2.946,5.611,0,1.146-.197,1.924-.426,2.826-.243,.957-.519,2.042-.519,3.563h-1c0-1.722-.873-3.292-1.717-4.812-.658-1.185-1.339-2.411-1.339-3.355ZM5.944,0C4.291,0,0,1.547,0,8.611c0,1.521,.275,2.606,.519,3.563,.229,.901,.426,1.68,.426,2.826v2.5c0,1.93,1.57,3.5,3.5,3.5s3.5-1.57,3.5-3.5v-2.5c0-.944,.681-2.17,1.339-3.355,.844-1.519,1.717-3.089,1.717-4.812C11,2.347,8.457,0,5.944,0Zm.717,10.188c-.844,1.519-1.717,3.089-1.717,4.812h-1c0-1.521-.275-2.606-.519-3.563-.229-.901-.426-1.68-.426-2.826,0-5.405,2.916-5.611,2.944-5.611,1.021,0,2.056,1.317,2.056,3.833,0,.944-.681,2.17-1.339,3.355Z"/></svg>
