<?xml version="1.0" encoding="UTF-8"?>
<svg xmlns="http://www.w3.org/2000/svg" id="Layer_1" data-name="Layer 1" viewBox="0 0 24 24" width="512" height="512"><path d="M15.97,9.321c-.587-1.936-2.396-3.321-4.47-3.321-2.322,0-4.311,1.735-4.626,4.038l-.816,5.989c-.137,1.001,.166,2.013,.831,2.774,.312,.358,.694,.637,1.111,.84v2.859c0,.829,.672,1.5,1.5,1.5s1.5-.671,1.5-1.5v-2.5h1v2.5c0,.829,.672,1.5,1.5,1.5s1.5-.671,1.5-1.5v-2.5h1.5c.605,0,1.152-.365,1.385-.924,.114-.274,1.115-2.734,1.115-4.576,0-2.169-1.166-4.123-3.03-5.179Zm-.514,7.679h-5.931c-.198,0-.321-.107-.377-.171s-.145-.2-.118-.396l.347-2.545,1.291,.86c.256,.17,.545,.252,.831,.252,.484,0,.96-.234,1.249-.668,.46-.689,.273-1.621-.416-2.08l-2.504-1.669,.019-.139c.112-.823,.823-1.444,1.653-1.444s1.541,.621,1.652,1.438l.015,.11c.071,.538,.428,.996,.933,1.196,1.154,.46,1.9,1.542,1.9,2.756,0,.657-.267,1.669-.544,2.5ZM9,2.5c0-1.381,1.119-2.5,2.5-2.5s2.5,1.119,2.5,2.5-1.119,2.5-2.5,2.5-2.5-1.119-2.5-2.5Z"/></svg>
