<?xml version="1.0" encoding="UTF-8"?>
<svg xmlns="http://www.w3.org/2000/svg" id="Layer_1" data-name="Layer 1" viewBox="0 0 24 24" width="512" height="512"><path d="M14.977,20.104c.146,.815-.397,1.595-1.213,1.74-.087,.016-.175,.03-.264,.043v.612c0,.828-.671,1.5-1.5,1.5s-1.5-.672-1.5-1.5v-.612c-4.316-.652-7.736-4.072-8.388-8.388h-.612c-.829,0-1.5-.672-1.5-1.5s.671-1.5,1.5-1.5h.612c.013-.087,.027-.175,.042-.262,.145-.816,.928-1.358,1.739-1.215,.816,.145,1.36,.923,1.215,1.738-.072,.407-.109,.824-.109,1.238,0,3.859,3.14,7,7,7,.417,0,.833-.036,1.236-.108,.816-.14,1.595,.396,1.74,1.213Zm8.584,1.335c.586,.586,.586,1.535,0,2.121-.293,.293-.677,.439-1.061,.439s-.768-.146-1.061-.439L.439,2.561C-.146,1.975-.146,1.025,.439,.439S1.975-.146,2.561,.439l3.509,3.509c1.307-.964,2.83-1.592,4.43-1.835v-.614c0-.828,.671-1.5,1.5-1.5s1.5,.672,1.5,1.5v.612c4.316,.652,7.736,4.072,8.388,8.388h.612c.829,0,1.5,.672,1.5,1.5s-.671,1.5-1.5,1.5h-.614c-.243,1.6-.871,3.123-1.835,4.431l3.509,3.509ZM8.225,6.104l1.462,1.462c1.884-.981,4.268-.682,5.848,.898,.944,.943,1.464,2.199,1.464,3.535,0,.819-.196,1.608-.565,2.314l1.46,1.46c.717-1.12,1.105-2.43,1.105-3.774,0-3.859-3.14-7-7-7-1.344,0-2.654,.388-3.775,1.104Z"/></svg>
