<?xml version="1.0" encoding="UTF-8"?>
<svg xmlns="http://www.w3.org/2000/svg" id="Layer_1" data-name="Layer 1" viewBox="0 0 24 24" width="512" height="512"><path d="M19.87,4.42C17.38,1.11,13.29-.52,9.18,.15,4.95,.85,1.5,3.97,.39,8.1c-.9,3.33-.17,6.85,2,9.64,.28,.36,.61,.93,.61,1.64v1.12c0,1.93,1.57,3.5,3.5,3.5h7c1.78,0,3.26-1.34,3.47-3.07,2.38-.38,4.28-2.29,4.59-4.74l.15-1.19c1.48-.09,2.28-1.3,2.28-2.45,0-1.65-3.1-6.83-4.13-8.13Zm.53,7.58c-.76,0-1.39,.56-1.49,1.31l-.32,2.5c-.16,1.25-1.22,2.19-2.48,2.19h-.61c-.83,0-1.5,.67-1.5,1.5v1c0,.28-.22,.5-.5,.5H6.5c-.28,0-.5-.22-.5-.5v-1.12c0-1.23-.43-2.44-1.24-3.48-.93-1.2-2.36-3.71-1.47-7.02,.79-2.95,3.36-5.26,6.38-5.76,.45-.07,.9-.11,1.34-.11,2.53,0,4.93,1.17,6.47,3.23l.04,.04c.97,1.19,2.65,4.25,3.27,5.72h-.39Zm-3.39,1.5c0,.83-.67,1.5-1.5,1.5-.68,0-1.26-.46-1.44-1.08l-1.11-.64c-.28,.24-.6,.42-.95,.55v2.17c0,.55-.45,1-1,1s-1-.45-1-1v-2.17c-.35-.12-.67-.31-.95-.55l-1.11,.64c-.18,.62-.76,1.08-1.44,1.08-.83,0-1.5-.67-1.5-1.5s.67-1.5,1.5-1.5c.2,0,.4,.04,.57,.11l.98-.57c-.03-.18-.05-.36-.05-.55s.02-.37,.05-.55l-1.87-1.08c-.48-.28-.64-.89-.37-1.37,.28-.48,.89-.64,1.37-.37l1.88,1.08c.28-.24,.6-.42,.94-.55v-1.55c-.31-.27-.5-.67-.5-1.12,0-.81,.64-1.47,1.45-1.5,.02,0,.03,0,.05,0s.03,0,.05,0c.8,.03,1.45,.69,1.45,1.5,0,.44-.19,.84-.5,1.12v1.55c.35,.12,.67,.31,.94,.55l1.88-1.08c.48-.28,1.09-.11,1.37,.37,.28,.48,.11,1.09-.37,1.37l-1.87,1.08c.03,.18,.05,.36,.05,.55s-.02,.37-.05,.55l.98,.57c.18-.07,.37-.11,.57-.11,.83,0,1.5,.67,1.5,1.5Z"/></svg>
