<?xml version="1.0" encoding="UTF-8"?>
<svg xmlns="http://www.w3.org/2000/svg" id="Layer_1" data-name="Layer 1" viewBox="0 0 24 24" width="512" height="512"><path d="M22,8.16c0-1.47-.57-2.85-1.61-3.89l-2.66-2.66c-1.04-1.04-2.42-1.61-3.89-1.61H7.5C4.47,0,2,2.47,2,5.5v6.5h0v6.5c0,3.03,2.47,5.5,5.5,5.5h9c3.03,0,5.5-2.47,5.5-5.5v-4.5s0,0,0,0v-5.84Zm-10,11.84h-1v1c0,.55-.45,1-1,1s-1-.45-1-1v-5c0-1.1,.9-2,2-2h1c1.65,0,3,1.35,3,3s-1.35,3-3,3ZM5,12V5.5c0-1.38,1.12-2.5,2.5-2.5h5.5V7c0,1.1,.9,2,2,2h4v3H5Zm8,5c0,.55-.45,1-1,1h-1v-2h1c.55,0,1,.45,1,1Z"/></svg>
