<?xml version="1.0" encoding="UTF-8"?>
<svg xmlns="http://www.w3.org/2000/svg" id="Layer_1" data-name="Layer 1" viewBox="0 0 24 24" width="512" height="512"><path d="m23.976,3.769l-1.976,10.867v2.865c0,3.584-2.916,6.5-6.5,6.5h-4.155c-2.344,0-4.606-.981-6.208-2.693,0,0-4.687-5.024-4.722-5.071-.522-.71-.635-1.847.164-2.646.78-.781,1.896-.703,2.596-.225.078.054.151.115.219.182l2.343,2.363c.023.023.066.071.167.029.097-.041.097-.106.097-.145v-1.148L3.861,3.79c-.16-.813.369-1.602,1.182-1.762.804-.161,1.602.368,1.762,1.182l2.167,11c.019.096.028.193.028.29v1.294c0,1.281-.765,2.426-1.948,2.917-.058.023-.115.045-.173.066l.45.481c1.035,1.106,2.499,1.742,4.016,1.742h4.155c1.93,0,3.5-1.57,3.5-3.5v-3c0-.09.008-.18.024-.269l2-11c.148-.815.927-1.357,1.744-1.207.814.148,1.355.929,1.207,1.744Zm-7.878,7.207c.091.017.182.025.271.025.711,0,1.342-.508,1.474-1.232l1.454-8c.148-.815-.393-1.596-1.207-1.744-.817-.149-1.596.392-1.744,1.208l-1.454,8c-.148.815.393,1.596,1.207,1.744Zm-5.979-1.183c.143.714.769,1.208,1.47,1.208.098,0,.195-.01.294-.029.812-.162,1.341-.951,1.18-1.764l-1.59-8c-.162-.813-.96-1.339-1.764-1.179-.812.162-1.341.951-1.18,1.764l1.59,8Z"/></svg>
