<?xml version="1.0" encoding="UTF-8"?>
<svg xmlns="http://www.w3.org/2000/svg" id="Layer_1" data-name="Layer 1" viewBox="0 0 24 24" width="512" height="512"><path d="M22.506,24H1.506C.678,24,.006,23.329,.006,22.5s.672-1.5,1.5-1.5H22.506c.828,0,1.5,.671,1.5,1.5s-.672,1.5-1.5,1.5Z"/><path d="M22.248,13.659c-.36-1.11-1.136-2.003-2.185-2.515h0l-4.945-2.414-.562-6.154c-.074-.932-.651-1.748-1.505-2.129l-1.139-.346c-1.459-.443-2.933,.642-2.944,2.167l-.025,3.448-.973-.475-.703-2.875c-.186-.752-.652-1.388-1.314-1.791C5.058,.031,3.974,.007,3.057,.509c-.92,.501-1.484,1.426-1.513,2.512v6.222c0,1.333,.74,2.533,1.933,3.13l12.804,6.408c.604,.305,1.252,.449,1.893,.449,1.532,0,3.023-.825,3.783-2.254,.548-1.029,.651-2.207,.292-3.316Zm-2.94,1.908c-.318,.601-1.072,.84-1.682,.533L4.82,9.69c-.171-.085-.276-.257-.276-.447V3.858l.68,2.778c.105,.433,.398,.796,.799,.992l12.725,6.211c.311,.152,.54,.417,.646,.745s.076,.677-.086,.982Z"/></svg>
