<?xml version="1.0" encoding="UTF-8"?>
<svg xmlns="http://www.w3.org/2000/svg" id="Layer_1" data-name="Layer 1" viewBox="0 0 24 24" width="512" height="512"><path d="m22.462,8.105L15.889,1.533c-2.144-2.145-5.633-2.145-7.778,0L1.538,8.105c-2.144,2.145-2.144,5.634,0,7.778h0l6.573,6.573c1.072,1.072,2.48,1.607,3.889,1.607s2.817-.536,3.889-1.607l6.573-6.573c2.144-2.145,2.144-5.634,0-7.778Zm-2.121,5.657l-6.573,6.573c-.975.976-2.562.974-3.536,0l-6.573-6.573h0c-.975-.975-.975-2.562,0-3.536l6.573-6.572c.975-.975,2.562-.975,3.536,0l6.572,6.572c.975.975.975,2.562,0,3.536Zm-6.841,2.737c0,.828-.672,1.5-1.5,1.5s-1.5-.672-1.5-1.5.672-1.5,1.5-1.5,1.5.672,1.5,1.5Zm0-9v5c0,.828-.671,1.5-1.5,1.5s-1.5-.672-1.5-1.5v-5c0-.828.671-1.5,1.5-1.5s1.5.672,1.5,1.5Z"/></svg>
