<?xml version="1.0" encoding="UTF-8"?>
<svg xmlns="http://www.w3.org/2000/svg" id="Layer_1" data-name="Layer 1" viewBox="0 0 24 24" width="512" height="512"><path d="m18.5,2H5.5C2.467,2,0,4.468,0,7.5v9c0,3.032,2.467,5.5,5.5,5.5h13c3.032,0,5.5-2.468,5.5-5.5V7.5c0-3.032-2.468-5.5-5.5-5.5Zm2.5,14.5c0,1.379-1.121,2.5-2.5,2.5H5.5c-1.378,0-2.5-1.121-2.5-2.5V7.5c0-1.379,1.122-2.5,2.5-2.5h13c1.379,0,2.5,1.121,2.5,2.5v9Zm-10.684-7.843c-.226-.995-1.064-1.665-2.085-1.665s-1.859.67-2.085,1.665l-1.621,7.121c-.123.538.215,1.074.753,1.196.537.129,1.074-.214,1.197-.753l.278-1.222h2.955l.278,1.222c.105.464.518.778.974.778.074,0,.148-.008.223-.025.539-.122.876-.658.753-1.196l-1.621-7.121Zm-3.108,4.343l.887-3.899c.01-.046.024-.108.135-.108s.125.062.135.108l.887,3.899h-2.045Z"/></svg>
