<?xml version="1.0" encoding="UTF-8"?>
<svg xmlns="http://www.w3.org/2000/svg" id="Layer_1" data-name="Layer 1" viewBox="0 0 24 24" width="512" height="512"><path d="M24,15v.5c0,.83-.67,1.5-1.5,1.5s-1.5-.67-1.5-1.5v-.5c0-.55-.45-1-1-1h-1v7.5c0,.83-.67,1.5-1.5,1.5s-1.5-.67-1.5-1.5v-7.5h-1c-.55,0-1,.45-1,1v.5c0,.83-.67,1.5-1.5,1.5s-1.5-.67-1.5-1.5v-.5c0-2.21,1.79-4,4-4h5c2.21,0,4,1.79,4,4ZM12,4c1.1,0,2,.9,2,2v.5c0,.83,.67,1.5,1.5,1.5s1.5-.67,1.5-1.5v-.5c0-2.76-2.24-5-5-5H5C2.24,1,0,3.24,0,6v.5c0,.83,.67,1.5,1.5,1.5s1.5-.67,1.5-1.5v-.5c0-1.1,.9-2,2-2h2V21.5c0,.83,.67,1.5,1.5,1.5s1.5-.67,1.5-1.5V4h2Z"/></svg>
