<?xml version="1.0" encoding="UTF-8"?>
<svg xmlns="http://www.w3.org/2000/svg" id="Layer_1" data-name="Layer 1" viewBox="0 0 24 24" width="512" height="512"><path d="M12,24C5.383,24,0,18.617,0,12S5.383,0,12,0s12,5.383,12,12-5.383,12-12,12Zm0-21C7.038,3,3,7.037,3,12s4.038,9,9,9,9-4.037,9-9S16.962,3,12,3Zm4.5,13.5c0-.828-.671-1.5-1.5-1.5h-3.176c.135-.08,.272-.161,.409-.24,1.801-1.055,4.267-2.5,4.264-5.437-.003-2.384-2.02-4.323-4.496-4.323s-4.5,2.019-4.5,4.5c0,.828,.671,1.5,1.5,1.5s1.5-.672,1.5-1.5,.673-1.5,1.5-1.5c.81,0,1.495,.607,1.496,1.327,.001,1.133-1.049,1.83-2.78,2.844-.968,.567-1.969,1.153-2.653,1.96-.603,.71-.735,1.674-.345,2.517,.386,.834,1.198,1.353,2.12,1.353h5.162c.829,0,1.5-.672,1.5-1.5Z"/></svg>
