<?xml version="1.0" encoding="UTF-8"?>
<svg xmlns="http://www.w3.org/2000/svg" id="Layer_1" data-name="Layer 1" viewBox="0 0 24 24" width="512" height="512"><path d="M22,8.28c0-2.36-1.92-4.28-4.28-4.28-.61,0-1.19,.13-1.72,.36v-1.45c.58-.21,1-.76,1-1.41,0-.83-.67-1.5-1.5-1.5h-7c-.83,0-1.5,.67-1.5,1.5,0,.65,.42,1.21,1,1.41V7.29c0,.17-.08,.32-.22,.42l-3.33,2.22c-1.53,1.02-2.45,2.73-2.45,4.58v4c0,3.03,2.47,5.5,5.5,5.5h9c3.03,0,5.5-2.47,5.5-5.5v-4c0-1.22-.4-2.39-1.12-3.33,.71-.78,1.12-1.8,1.12-2.89Zm-4.28-1.28c.7,0,1.28,.57,1.28,1.28,0,.38-.17,.74-.45,.98l-2.04-1.36c.16-.52,.66-.89,1.22-.89Zm1.28,11.5c0,1.38-1.12,2.5-2.5,2.5H7.5c-1.38,0-2.5-1.12-2.5-2.5v-2.5H15.5c.83,0,1.5-.67,1.5-1.5s-.67-1.5-1.5-1.5H5.5c.17-.22,.37-.42,.61-.58l3.33-2.22c.98-.65,1.56-1.74,1.56-2.91V3h2V7.29c0,1.17,.58,2.26,1.56,2.91l3.33,2.22c.7,.46,1.11,1.24,1.11,2.08v4Z"/></svg>
