<?xml version="1.0" encoding="UTF-8"?>
<svg xmlns="http://www.w3.org/2000/svg" id="Layer_1" data-name="Layer 1" viewBox="0 0 24 24" width="512" height="512"><path d="m23.213,8.181c-.02-.011-2.019-1.107-4.075-3.165-2.074-2.074-3.322-4.238-3.335-4.259-.412-.718-1.324-.97-2.046-.559-.719.411-.97,1.325-.561,2.044.015.026.115.202.296.488l-5.332,5.332c-2.038,2.038-3.16,4.747-3.16,7.629v1.188L.439,21.439c-.586.585-.586,1.536,0,2.121.293.293.677.439,1.061.439s.768-.146,1.061-.439l4.561-4.561h1.188c2.882,0,5.591-1.122,7.629-3.16l5.326-5.326c.309.19.499.293.525.307.226.122.469.179.709.179.533,0,1.049-.285,1.32-.787.394-.728.122-1.638-.605-2.032Zm-15.213,7.819v-.309c0-1.572.463-3.072,1.322-4.346l3.333,3.332c-1.274.86-2.774,1.322-4.345,1.322h-.31Zm6.878-3.342l-3.536-3.536,3.928-3.928c.501.617,1.086,1.282,1.747,1.943.61.61,1.214,1.146,1.776,1.606l-3.915,3.915Z"/></svg>
