<?xml version="1.0" encoding="UTF-8"?>
<svg xmlns="http://www.w3.org/2000/svg" id="Layer_1" data-name="Layer 1" viewBox="0 0 24 24" width="512" height="512"><path d="m11.005,9.288c.029.41-.306.746-.717.717-.539-.038-1.255-.173-1.681-.599-.426-.426-.561-1.142-.599-1.681-.029-.41.306-.746.717-.717.539.038,1.255.173,1.681.599.426.426.561,1.142.599,1.681Zm4.267-2.275c-.535.038-1.243.173-1.665.594-.422.422-.557,1.13-.594,1.665-.029.409.306.744.715.715.535-.038,1.243-.173,1.665-.594.422-.422.557-1.13.594-1.665.029-.409-.306-.744-.715-.715Zm4.226,16.987c-.783,0-1.442-.608-1.495-1.401-.118-1.79-1.059-3.444-2.508-4.482-.141.169-.278.329-.411.477-.814.906-1.909,1.406-3.083,1.406s-2.269-.5-3.084-1.406c-.133-.148-.27-.307-.411-.477-1.449,1.038-2.39,2.692-2.508,4.482-.053.793-.712,1.401-1.495,1.401-1.002,0-1.553-.771-1.499-1.599.177-2.683,1.582-5.16,3.747-6.717-1.451-2.3-2.75-5.186-2.75-7.684C4,3.589,7.589,0,12,0s8,3.589,8,8c0,2.498-1.299,5.383-2.751,7.684,2.166,1.557,3.571,4.034,3.748,6.718.054.827-.497,1.599-1.499,1.599Zm-2.498-16c0-2.757-2.243-5-5-5s-5,2.243-5,5c0,2.74,2.426,6.672,4.147,8.588.479.531,1.228.531,1.704,0,1.723-1.916,4.148-5.848,4.148-8.588Z"/></svg>
