<?xml version="1.0" encoding="UTF-8"?>
<svg xmlns="http://www.w3.org/2000/svg" id="Layer_1" data-name="Layer 1" viewBox="0 0 24 24" width="512" height="512"><path d="M2.974,2.5c0-1.381,1.119-2.5,2.5-2.5s2.5,1.119,2.5,2.5-1.119,2.5-2.5,2.5-2.5-1.119-2.5-2.5Zm19.397,14.194l-3.371,2.132v3.674c0,.828-.671,1.5-1.5,1.5s-1.5-.672-1.5-1.5v-4.5c0-.515,.264-.993,.698-1.268l2.052-1.298-1.24-5.443-1.511,2.646v1.363c0,1.654-1.346,3-3,3h-2c-1.654,0-3-1.346-3-3v-1.363l-1.511-2.646-1.24,5.443,2.052,1.298c.435,.274,.698,.753,.698,1.268v4.5c0,.828-.671,1.5-1.5,1.5s-1.5-.672-1.5-1.5v-3.674l-3.371-2.132C.405,15.92-.22,14.446,.073,13.028l.731-3.542c.42-2.03,2.229-3.503,4.302-3.503,1.573,0,3.035,.849,3.814,2.214l.662,1.16c.422-.228,.905-.357,1.418-.357h2c.513,0,.995,.129,1.418,.357l.662-1.16c.78-1.365,2.242-2.214,3.814-2.214,2.072,0,3.881,1.473,4.301,3.503l.732,3.542c.292,1.418-.333,2.892-1.557,3.666Zm-9.369-2.694l-.002-2h-2v2h2.002Zm5.498-9c1.381,0,2.5-1.119,2.5-2.5s-1.119-2.5-2.5-2.5-2.5,1.119-2.5,2.5,1.119,2.5,2.5,2.5Zm5.442,17.088l-.571-2c-.228-.797-1.057-1.257-1.854-1.03-.796,.228-1.258,1.058-1.03,1.854l.571,2c.188,.659,.789,1.088,1.441,1.088,.137,0,.275-.019,.413-.058,.796-.228,1.258-1.058,1.03-1.854ZM2.483,19.058c-.794-.225-1.627,.232-1.854,1.03L.058,22.088c-.228,.797,.234,1.627,1.03,1.854,.138,.039,.276,.058,.413,.058,.652,0,1.253-.429,1.441-1.088l.571-2c.228-.797-.234-1.627-1.03-1.854Z"/></svg>
