<?xml version="1.0" encoding="UTF-8"?>
<svg xmlns="http://www.w3.org/2000/svg" id="Layer_1" data-name="Layer 1" viewBox="0 0 24 24" width="512" height="512"><path d="M18,18.5c0,3.03-2.47,5.5-5.5,5.5H5.5C2.47,24,0,21.53,0,18.5v-7C0,8.47,2.47,6,5.5,6c.83,0,1.5,.67,1.5,1.5s-.67,1.5-1.5,1.5c-1.38,0-2.5,1.12-2.5,2.5v7c0,1.38,1.12,2.5,2.5,2.5h7c1.38,0,2.5-1.12,2.5-2.5,0-.83,.67-1.5,1.5-1.5s1.5,.67,1.5,1.5Zm5-13.45L18.58,.46c-.58-.6-1.52-.62-2.12-.04-.6,.58-.62,1.52-.04,2.12l3.33,3.46h-6.25c-3.03,0-5.5,2.47-5.5,5.5v5c0,.83,.67,1.5,1.5,1.5s1.5-.67,1.5-1.5v-5c0-1.38,1.12-2.5,2.5-2.5h6.25l-3.33,3.46c-.57,.6-.56,1.55,.04,2.12,.29,.28,.67,.42,1.04,.42,.39,0,.79-.15,1.08-.46l4.39-4.56c1.37-1.36,1.37-3.59,.02-4.93Z"/></svg>
