<?xml version="1.0" encoding="UTF-8"?>
<svg xmlns="http://www.w3.org/2000/svg" id="Layer_1" data-name="Layer 1" viewBox="0 0 24 24" width="512" height="512"><path d="m18.5,0H5.5C2.467,0,0,2.467,0,5.5v13c0,3.032,2.467,5.5,5.5,5.5h13c3.033,0,5.5-2.468,5.5-5.5V5.5c0-3.033-2.467-5.5-5.5-5.5Zm2.5,18.5c0,1.379-1.122,2.5-2.5,2.5H5.5c-1.378,0-2.5-1.121-2.5-2.5V5.5c0-1.378,1.122-2.5,2.5-2.5h13c1.378,0,2.5,1.122,2.5,2.5v13ZM12,5c-3.314,0-6.011,2.713-6.011,6.048v1.903c0,3.335,2.696,6.048,6.011,6.048s5.989-2.713,5.989-6.048v-1.903c0-3.335-2.687-6.048-5.989-6.048Zm2.989,7.952c0,1.709-1.313,3.048-2.989,3.048-1.66,0-3.011-1.367-3.011-3.048v-1.903c0-1.681,1.351-3.048,3.011-3.048,1.676,0,2.989,1.339,2.989,3.048v1.903Z"/></svg>
