<?xml version="1.0" encoding="UTF-8"?>
<svg xmlns="http://www.w3.org/2000/svg" id="Layer_1" data-name="Layer 1" viewBox="0 0 24 24" width="512" height="512"><path d="m19,3.261v-1.761c0-.828-.672-1.5-1.5-1.5s-1.5.672-1.5,1.5v.523c-.165-.015-.331-.023-.5-.023h-7c-.169,0-.335.008-.5.023v-.523c0-.828-.672-1.5-1.5-1.5s-1.5.672-1.5,1.5v1.761c-1.221,1.01-2,2.535-2,4.239v9c0,1.704.779,3.229,2,4.239v1.761c0,.828.672,1.5,1.5,1.5s1.5-.672,1.5-1.5v-.523c.165.015.331.023.5.023h7c.169,0,.335-.008.5-.023v.523c0,.828.672,1.5,1.5,1.5s1.5-.672,1.5-1.5v-1.761c1.221-1.01,2-2.535,2-4.239V7.5c0-1.704-.779-3.229-2-4.239Zm-10.5,15.739c-1.379,0-2.5-1.121-2.5-2.5V7.5c0-1.379,1.121-2.5,2.5-2.5h7c1.379,0,2.5,1.121,2.5,2.5v9c0,1.379-1.121,2.5-2.5,2.5h-7Zm6.061-6.561c.586.586.586,1.535,0,2.121-.293.293-.677.439-1.061.439s-.768-.146-1.061-.439l-1.5-1.5c-.281-.281-.439-.663-.439-1.061v-3.5c0-.828.672-1.5,1.5-1.5s1.5.672,1.5,1.5v2.879l1.061,1.061Z"/></svg>
