<?xml version="1.0" encoding="UTF-8"?>
<svg xmlns="http://www.w3.org/2000/svg" id="Layer_1" data-name="Layer 1" viewBox="0 0 24 24" width="512" height="512"><path d="m5.5,18.977c-.427,0-.851-.181-1.148-.533-.873-1.035-1.517-2.214-1.913-3.503-.244-.792.201-1.631.993-1.875.792-.243,1.631.201,1.875.993.277.901.728,1.726,1.339,2.451.534.633.453,1.58-.18,2.114-.281.237-.625.353-.966.353Zm5.262-13.868c.812-.145,1.663-.145,2.476,0,.089.016.177.023.264.023.713,0,1.346-.511,1.475-1.238.145-.816-.399-1.594-1.215-1.739-1.158-.205-2.366-.205-3.524,0-.815.145-1.359.923-1.215,1.739.145.816.928,1.36,1.739,1.215Zm9.805,7.958c-.793-.244-1.631.201-1.875.993-.28.91-.736,1.741-1.355,2.471-.536.631-.459,1.578.173,2.114.282.239.627.356.97.356.425,0,.848-.18,1.145-.529.885-1.042,1.536-2.229,1.936-3.53.244-.792-.201-1.631-.993-1.875Zm-14.553,9.323c-.015,0,.015,0,0,0h0Zm17.809-10.957c-.659-.958-1.414-1.664-2.307-2.16h0c-.989-.548-2.098-.872-3.236-.956.465-1.081.719-2.23.719-3.317s-.245-2.14-.729-3.113c-.225-.452-.75-.667-1.226-.499-.476.167-.753.662-.647,1.154.068.315.102.637.102.957,0,2.481-2.019,4.5-4.5,4.5s-4.5-2.019-4.5-4.5c0-.32.034-.642.102-.957.106-.493-.171-.988-.647-1.154-.477-.168-1.001.046-1.226.499-.484.973-.729,2.02-.729,3.113s.254,2.237.72,3.319c-1.145.086-2.254.409-3.237.954-.893.496-1.647,1.202-2.307,2.16-.286.416-.181.948.196,1.283.379.336.982.305,1.361-.029.237-.209.424-.374.65-.499,2.171-1.204,4.915-.417,6.118,1.752,1.203,2.17.417,4.915-1.752,6.118-.242.134-.692.27-1.039.374-.483.146-.782.628-.697,1.125.083.482.516.832,1,.832,1.146-.051,2.352-.37,3.259-.873,1.083-.601,2.031-1.514,2.736-2.602.686,1.09,1.62,1.993,2.717,2.602.907.503,2.084.821,3.229.872.489.01.921-.342,1.006-.838.084-.497-.238-.987-.721-1.132-.298-.09-.749-.226-.99-.36-2.17-1.204-2.956-3.948-1.753-6.118,1.203-2.169,3.949-2.956,6.118-1.752.226.125.414.29.725.564.379.333.946.331,1.324-.005.377-.335.445-.898.159-1.314Zm-11.824,2.567c-1.105,0-2-.895-2-2s.895-2,2-2,2,.895,2,2-.895,2-2,2Z"/></svg>
