<?xml version="1.0" encoding="UTF-8"?>
<svg xmlns="http://www.w3.org/2000/svg" id="Layer_1" data-name="Layer 1" viewBox="0 0 24 24" width="512" height="512"><path d="M13,6H5C2.24,6,0,8.24,0,11v8c0,2.76,2.24,5,5,5H13c2.76,0,5-2.24,5-5V11c0-2.76-2.24-5-5-5Zm2,13c0,1.1-.9,2-2,2H5c-1.1,0-2-.9-2-2V11H15v8ZM24,5.5v7.35c0,1.34-.49,2.63-1.38,3.64-.3,.34-.71,.51-1.13,.51-.35,0-.71-.12-.99-.38-.62-.55-.68-1.5-.13-2.12,.4-.46,.62-1.04,.62-1.65V5.5c0-1.38-1.12-2.5-2.5-2.5h-7.35c-.61,0-1.2,.22-1.65,.62-.62,.55-1.57,.49-2.12-.13-.55-.62-.49-1.57,.13-2.12,1-.89,2.3-1.38,3.64-1.38h7.35c3.03,0,5.5,2.47,5.5,5.5Z"/></svg>
