<?xml version="1.0" encoding="UTF-8"?>
<svg xmlns="http://www.w3.org/2000/svg" id="Layer_1" data-name="Layer 1" viewBox="0 0 24 24" width="512" height="512"><path d="M17.92,10.76c.68-.91,1.08-2.04,1.08-3.26,0-2.86-2.2-5.22-5-5.48v-.52c0-.83-.67-1.5-1.5-1.5s-1.5,.67-1.5,1.5v.5h-2v-.5c0-.83-.67-1.5-1.5-1.5s-1.5,.67-1.5,1.5v.76c-1.75,.62-3,2.29-3,4.24v11c0,1.96,1.25,3.62,3,4.24v.76c0,.83,.67,1.5,1.5,1.5s1.5-.67,1.5-1.5v-.5h2v.5c0,.83,.67,1.5,1.5,1.5s1.5-.67,1.5-1.5v-.5h1c3.31,0,6-2.69,6-6,0-2.25-1.24-4.21-3.08-5.24ZM6,6.5c0-.83,.67-1.5,1.5-1.5h6c1.38,0,2.5,1.12,2.5,2.5s-1.12,2.5-2.5,2.5H6v-3.5Zm9,12.5H7.5c-.83,0-1.5-.67-1.5-1.5v-4.5H15c1.65,0,3,1.35,3,3s-1.35,3-3,3Z"/></svg>
