<?xml version="1.0" encoding="UTF-8"?>
<svg xmlns="http://www.w3.org/2000/svg" id="Layer_1" data-name="Layer 1" viewBox="0 0 24 24" width="512" height="512"><path d="m22.717,21.016l-4.925-11.976c-.406-.948-.375-2.021.087-2.943l1.963-3.926c.253-.507.199-1.113-.14-1.568-.338-.453-.904-.679-1.463-.58l-4.14.73c-3.242.572-5.916,2.735-7.16,5.802L1.274,21.017c-.721.109-1.274.731-1.274,1.483,0,.829.671,1.5,1.5,1.5h21c.829,0,1.5-.671,1.5-1.5,0-.755-.557-1.379-1.283-1.484ZM9.727,7.667c.846-2.087,2.676-3.567,4.895-3.959l1.204-.212-.63,1.26c-.857,1.714-.916,3.707-.169,5.447l4.441,10.798H4.503l5.224-13.333Zm4.273,6.334c.307,0,.583.187.697.472l.523,1.308,1.308.523c.285.114.472.39.472.697s-.187.583-.472.697l-1.308.523-.523,1.308c-.114.285-.39.472-.697.472s-.583-.187-.697-.472l-.526-1.316-1.318-.555c-.283-.119-.464-.398-.459-.705.006-.307.198-.579.484-.687l1.299-.492.52-1.301c.114-.285.39-.472.697-.472Zm-5-2.54c.005-.255.165-.482.404-.573l1.082-.41.433-1.084c.095-.237.325-.393.58-.393s.486.156.58.393l.436,1.09,1.09.436c.237.095.393.325.393.58s-.156.486-.393.58l-1.09.436-.436,1.09c-.095.237-.325.393-.58.393s-.486-.156-.58-.393l-.439-1.097-1.099-.463c-.236-.099-.387-.332-.382-.587Z"/></svg>
