<?xml version="1.0" encoding="UTF-8"?>
<svg xmlns="http://www.w3.org/2000/svg" id="Layer_1" data-name="Layer 1" viewBox="0 0 24 24" width="512" height="512"><path d="M8,3.62c0-1.45,1.18-2.62,2.62-2.62h.38c0-.55,.45-1,1-1s1,.45,1,1h.27c1.07,0,2.06,.57,2.6,1.5,.28,.48,.11,1.09-.36,1.37-.48,.28-1.09,.11-1.37-.36-.18-.31-.51-.5-.87-.5h-2.64c-.34,0-.62,.28-.62,.62,0,.31,.22,.57,.52,.62l3.28,.55c1.27,.21,2.19,1.3,2.19,2.59,0,1.45-1.18,2.62-2.62,2.62h-.38c0,.55-.45,1-1,1s-1-.45-1-1h-.27c-1.07,0-2.06-.57-2.6-1.5-.28-.48-.11-1.09,.36-1.37,.48-.28,1.09-.11,1.37,.36,.18,.31,.51,.5,.87,.5h2.64c.34,0,.62-.28,.62-.62,0-.31-.22-.57-.52-.62l-3.29-.55c-1.27-.21-2.19-1.3-2.19-2.59Zm13.5,.38c-1.38,0-2.5,1.12-2.5,2.5v3.63c-1.25-.27-2.62,.06-3.55,.99l-3.48,3.48c-.16-.18-.31-.35-.49-.53l-2.88-2.88c-.97-.97-2.35-1.34-3.6-1.09v-3.61c0-1.38-1.12-2.5-2.5-2.5S0,5.12,0,6.5v11.01c0,2,.78,3.89,2.2,5.3l.74,.74c.29,.29,.68,.44,1.06,.44s.77-.15,1.06-.44c.58-.59,.58-1.54,0-2.12l-.74-.74c-.85-.85-1.32-1.98-1.32-3.18v-1.12l2.44,2.42c.59,.58,1.54,.58,2.12,0,.58-.59,.58-1.54,0-2.12l-2.45-2.43c-.1-.17-.14-.36-.11-.56,.02-.16,.11-.38,.35-.56,.31-.22,.81-.14,1.14,.18l2.88,2.88c1.1,1.09,1.63,2.24,1.63,3.49v2.81c0,.83,.67,1.5,1.5,1.5s1.5-.67,1.5-1.5v-2.81c0-.84-.15-1.65-.43-2.44l4.01-4.01c.31-.31,.86-.31,1.17,0,.27,.27,.32,.7,.12,1.02l-2.42,2.41c-.59,.58-.59,1.53,0,2.12,.29,.3,.68,.44,1.06,.44s.76-.14,1.06-.44l2.44-2.42v1.14c0,1.2-.47,2.33-1.32,3.18l-.74,.74c-.59,.59-.59,1.54,0,2.12,.29,.29,.68,.44,1.06,.44s.77-.15,1.06-.44l.74-.74c1.42-1.42,2.2-3.3,2.2-5.3V6.5c0-1.38-1.12-2.5-2.5-2.5Z"/></svg>
