<?xml version="1.0" encoding="UTF-8"?>
<svg xmlns="http://www.w3.org/2000/svg" id="Layer_1" data-name="Layer 1" viewBox="0 0 24 24" width="512" height="512"><path d="M18.5,3h-.63c-.45-1.72-2.01-3-3.87-3h-4c-1.86,0-3.43,1.28-3.87,3h-.63C2.47,3,0,5.47,0,8.5v10c0,3.03,2.47,5.5,5.5,5.5h13c3.03,0,5.5-2.47,5.5-5.5V8.5c0-3.03-2.47-5.5-5.5-5.5Zm2.5,15.5c0,1.38-1.12,2.5-2.5,2.5H5.5c-1.38,0-2.5-1.12-2.5-2.5V8.5c0-1.38,1.12-2.5,2.5-2.5h13c1.38,0,2.5,1.12,2.5,2.5v10Zm-3.13-5.71c.39,.39,.39,1.02,0,1.41l-3.16,3.16c-.63,.63-1.71,.18-1.71-.71v-1.66H7.5c-.83,0-1.5-.67-1.5-1.5s.67-1.5,1.5-1.5h5.5v-1.66c0-.89,1.08-1.34,1.71-.71l3.16,3.16Z"/></svg>
