<?xml version="1.0" encoding="UTF-8"?>
<svg xmlns="http://www.w3.org/2000/svg" id="Layer_1" data-name="Layer 1" viewBox="0 0 24 24" width="512" height="512"><path d="m17.298,6.191c-.184-.086-.298-.259-.298-.449v-2.742h.5c.828,0,1.5-.671,1.5-1.5s-.672-1.5-1.5-1.5H6.5c-.828,0-1.5.671-1.5,1.5s.672,1.5,1.5,1.5h.5v2.742c0,.19-.114.363-.299.45C2.567,8.144,0,12.094,0,16.5c0,1.447.28,2.86.834,4.204.827,2.002,2.807,3.296,5.043,3.296h12.246c2.236,0,4.216-1.294,5.043-3.297.554-1.342.834-2.756.834-4.203,0-4.406-2.567-8.356-6.702-10.309Zm-9.316,2.714c1.227-.579,2.019-1.82,2.019-3.163v-2.742h4v2.742c0,1.343.792,2.584,2.018,3.163,1.84.869,3.263,2.261,4.108,3.933-1.008.508-2.602,1.163-4.126,1.163-1.432,0-2.34-.403-3.391-.871-1.191-.529-2.541-1.129-4.609-1.129-1.493,0-2.96.413-4.15.885.842-1.693,2.274-3.103,4.131-3.98Zm12.411,10.653c-.355.862-1.268,1.442-2.27,1.442H5.877c-1.002,0-1.914-.58-2.27-1.441-.385-.933-.588-1.914-.606-2.917.626-.378,2.881-1.643,4.998-1.643,1.432,0,2.34.403,3.391.871,1.191.529,2.541,1.129,4.609,1.129,1.857,0,3.673-.639,4.967-1.236.022.243.033.489.033.736,0,1.052-.204,2.082-.607,3.058Z"/></svg>
