<?xml version="1.0" encoding="UTF-8"?>
<svg xmlns="http://www.w3.org/2000/svg" id="Layer_1" data-name="Layer 1" viewBox="0 0 24 24" width="512" height="512"><path d="M6.62,23c-.9,0-1.79-.34-2.48-1.02l-2.12-2.12c-.66-.66-1.02-1.54-1.02-2.47s.36-1.82,1.02-2.47l7.02-7.02-1.16-1.16c-.96-.97-1.24-2.4-.72-3.66,.52-1.25,1.74-2.06,3.1-2.06h8.36c2.36,0,4.28,1.93,4.28,4.28V13.64c0,1.36-.81,2.58-2.06,3.1-1.25,.52-2.69,.24-3.65-.71l-1.07-1.07-7.02,7.02c-.68,.68-1.58,1.02-2.47,1.02ZM10.26,4c-.16,0-.27,.07-.33,.22-.06,.14-.03,.27,.08,.39l2.22,2.22c.28,.28,.44,.66,.44,1.06s-.16,.78-.44,1.06L4.14,17.03h0c-.13,.12-.14,.28-.14,.35s.02,.23,.14,.35l2.12,2.12c.2,.2,.51,.2,.71,0L15.05,11.78c.59-.59,1.54-.59,2.12,0l2.12,2.12c.11,.11,.24,.13,.38,.07,.15-.06,.22-.17,.22-.33V5.28c0-.71-.58-1.28-1.29-1.28H10.26ZM3.08,15.97h0Z"/></svg>
