<?xml version="1.0" encoding="UTF-8"?>
<svg xmlns="http://www.w3.org/2000/svg" id="Layer_1" data-name="Layer 1" viewBox="0 0 24 24" width="512" height="512"><path d="M3,7.5v11c0,1.38,1.12,2.5,2.5,2.5h1c.83,0,1.5,.67,1.5,1.5s-.67,1.5-1.5,1.5h-1c-3.03,0-5.5-2.47-5.5-5.5V7.5C0,4.47,2.47,2,5.5,2h.35c.56-1.18,1.76-2,3.15-2h2c1.39,0,2.59,.82,3.15,2h.35c1.96,0,3.78,1.05,4.76,2.75,.42,.72,.17,1.63-.55,2.05-.24,.14-.49,.2-.75,.2-.52,0-1.02-.27-1.3-.75-.45-.77-1.28-1.25-2.17-1.25h-.35c-.56,1.18-1.76,2-3.15,2h-2c-1.39,0-2.59-.82-3.15-2h-.35c-1.38,0-2.5,1.12-2.5,2.5Zm14.5,6.5h-1c-.83,0-1.5,.67-1.5,1.5s.67,1.5,1.5,1.5h1c.83,0,1.5-.67,1.5-1.5s-.67-1.5-1.5-1.5Zm6.5-.5v6c0,2.48-2.02,4.5-4.5,4.5h-5c-2.48,0-4.5-2.02-4.5-4.5v-6c0-2.48,2.02-4.5,4.5-4.5h5c2.48,0,4.5,2.02,4.5,4.5Zm-3,0c0-.83-.67-1.5-1.5-1.5h-5c-.83,0-1.5,.67-1.5,1.5v6c0,.83,.67,1.5,1.5,1.5h5c.83,0,1.5-.67,1.5-1.5v-6Z"/></svg>
