<?xml version="1.0" encoding="UTF-8"?>
<svg xmlns="http://www.w3.org/2000/svg" id="Layer_1" data-name="Layer 1" viewBox="0 0 24 24" width="512" height="512"><path d="M12,0C5.383,0,0,5.383,0,12s5.383,12,12,12,12-5.383,12-12S18.617,0,12,0Zm0,21c-4.963,0-9-4.037-9-9S7.037,3,12,3s9,4.037,9,9-4.037,9-9,9Zm0-16c-2.481,0-4.5,2.019-4.5,4.5s2.019,4.5,4.5,4.5c.474,0,.932-.074,1.361-.211-.367,1.838-1.468,2.211-3.361,2.211-.828,0-1.5,.672-1.5,1.5s.672,1.5,1.5,1.5c4.374,0,6.5-2.257,6.5-6.9v-2.6c0-2.481-2.019-4.5-4.5-4.5Zm0,6c-.827,0-1.5-.673-1.5-1.5s.673-1.5,1.5-1.5,1.5,.673,1.5,1.5-.673,1.5-1.5,1.5Z"/></svg>
