<?xml version="1.0" encoding="UTF-8"?>
<svg xmlns="http://www.w3.org/2000/svg" id="Layer_1" data-name="Layer 1" viewBox="0 0 24 24" width="512" height="512"><path d="M22.91,11.85s-.02,.03,0,0h0Zm0,0c-1.17,1.95-3.73,2.61-5.7,1.47-.98-.56-1.67-1.47-1.96-2.56-.04-.15-.07-.31-.1-.46-1.83,2.89-5.29,8.43-6.91,11.41-.56,1.03-1.48,1.78-2.61,2.12-.41,.12-.84,.18-1.26,.18-.72,0-1.44-.18-2.09-.54-1.04-.57-1.79-1.5-2.12-2.63-.33-1.12-.2-2.31,.37-3.33,.06-.11,8.84-14.06,9.69-14.97,2.99-3.2,8.03-3.39,11.24-.42,1.56,1.45,2.46,3.4,2.52,5.47,.06,1.96-.97,4.04-1.08,4.26ZM6.9,18H3.75c-.3,.49-.51,.82-.58,.96-.18,.32-.22,.69-.12,1.04,.1,.36,.34,.65,.67,.83,.33,.18,.71,.22,1.07,.11,.35-.11,.65-.34,.82-.67,.36-.66,.8-1.43,1.29-2.28Zm3.02-5h-3c-.44,.69-.87,1.37-1.28,2h3.05c.41-.67,.82-1.34,1.23-2Zm3.13-5h-2.91c-.41,.62-.84,1.3-1.3,2h2.94c.49-.78,.92-1.47,1.26-2Zm3.98-4.91c-.32-.06-.64-.09-.97-.09-1.33,0-2.66,.53-3.64,1.58-.05,.07-.16,.21-.3,.42h3.64s1.27-1.91,1.27-1.91Zm3.96,4.58c-.03-1.16-.5-2.26-1.32-3.12l-1.48,2.23c.06,.11,.11,.22,.16,.34,.14,.39,.19,.8,.13,1.2,0,.26-.06,.53-.21,.77-.16,.27-.21,.6-.12,.9,.08,.31,.28,.57,.56,.73,.55,.32,1.26,.15,1.6-.38,.22-.46,.71-1.7,.68-2.67Z"/></svg>
