<?xml version="1.0" encoding="UTF-8"?>
<svg xmlns="http://www.w3.org/2000/svg" id="Layer_1" data-name="Layer 1" viewBox="0 0 24 24" width="512" height="512"><path d="M23.71,23.71c-.2,.2-.45,.29-.71,.29s-.51-.1-.71-.29l-6.97-6.97c-1.38-.55-2.33-1.97-2.33-3.74v-2c0-2.28,1.56-4,3.62-4h.29c1.16,0,2.26,.66,2.94,1.76,.29,.47,.14,1.09-.33,1.38s-1.09,.14-1.38-.33c-.32-.51-.76-.81-1.23-.81h-.29c-.96,0-1.62,.82-1.62,2v2c0,1.18,.67,2,1.62,2h.29c.47,0,.92-.29,1.23-.81,.29-.47,.91-.62,1.38-.33s.62,.91,.33,1.38c-.43,.69-1.02,1.21-1.7,1.5l1.86,1.86c.6-.41,.98-1.1,.98-1.86V7.5c0-1.38-1.12-2.5-2.5-2.5H6.41l2.06,2.06c.95,.17,1.81,.78,2.38,1.7,.29,.47,.14,1.09-.33,1.38-.47,.29-1.09,.14-1.38-.33-.32-.51-.76-.81-1.23-.81h-.29c-.96,0-1.62,.82-1.62,2v2c0,1.18,.67,2,1.62,2h.29c.47,0,.92-.29,1.23-.81,.29-.47,.91-.62,1.38-.33s.62,.91,.33,1.38c-.68,1.1-1.77,1.76-2.93,1.76h-.29c-2.07,0-3.62-1.72-3.62-4v-2c0-1.62,.8-2.95,2-3.59L.29,1.71C-.1,1.32-.1,.68,.29,.29S1.32-.1,1.71,.29l1.71,1.71h15.09c3.03,0,5.5,2.47,5.5,5.5v9.25c0,1.58-.71,3.01-1.86,3.98l1.56,1.56c.39,.39,.39,1.02,0,1.41Zm-9.21-4.71H5.5c-1.38,0-2.5-1.12-2.5-2.5V8.25c0-.83-.67-1.5-1.5-1.5s-1.5,.67-1.5,1.5v8.25c0,3.03,2.47,5.5,5.5,5.5H14.5c.83,0,1.5-.67,1.5-1.5s-.67-1.5-1.5-1.5Z"/></svg>
