<?xml version="1.0" encoding="UTF-8"?>
<svg xmlns="http://www.w3.org/2000/svg" id="Layer_1" data-name="Layer 1" viewBox="0 0 24 24" width="512" height="512"><path d="m18.5,0H5.5C2.467,0,0,2.467,0,5.5v13c0,3.033,2.467,5.5,5.5,5.5h13c3.033,0,5.5-2.467,5.5-5.5V5.5c0-3.033-2.467-5.5-5.5-5.5Zm2.5,18.5c0,1.378-1.122,2.5-2.5,2.5H5.5c-1.378,0-2.5-1.122-2.5-2.5V5.5c0-1.378,1.122-2.5,2.5-2.5h13c1.378,0,2.5,1.122,2.5,2.5v13Zm-3.003-5.443c.068,1.776-.748,3.499-2.239,4.66-1.081.841-2.41,1.283-3.76,1.283-.583,0-1.168-.083-1.74-.25-2.506-.735-4.257-3.122-4.257-5.803v-1.819c0-1.655.688-3.271,1.889-4.433,1.18-1.141,2.716-1.739,4.322-1.688,1.635.053,3.201.777,4.296,1.987.556.614.509,1.562-.105,2.119-.614.557-1.563.51-2.119-.105-.561-.619-1.332-.975-2.17-1.002-.778-.027-1.548.275-2.138.846-.62.6-.975,1.43-.975,2.277v1.819c0,1.359.864,2.562,2.102,2.924.988.292,2.015.1,2.813-.522.465-.361.794-.83.96-1.349h-1.375c-.829,0-1.5-.671-1.5-1.5s.671-1.5,1.5-1.5h2.5c.538,0,1.035.202,1.401.57.558.561.597,1.28.596,1.487Z"/></svg>
