<?xml version="1.0" encoding="UTF-8"?>
<svg xmlns="http://www.w3.org/2000/svg" id="Layer_1" data-name="Layer 1" viewBox="0 0 24 24" width="512" height="512"><path d="m19.866,4.416C17.675,1.503,14.237-.106,10.643.014c-.048-.005-1.163.091-1.461.14C4.951.853,1.5,3.971.389,8.099c-.897,3.333-.168,6.847,2.002,9.642.278.356.609.93.609,1.636v1.124c0,1.93,1.57,3.5,3.5,3.5h7c1.784,0,3.26-1.341,3.474-3.068,2.377-.378,4.284-2.291,4.593-4.743l.15-1.193c1.484-.087,2.283-1.303,2.283-2.449,0-1.653-3.097-6.833-4.134-8.13Zm.527,7.584c-.756,0-1.394.562-1.488,1.312l-.315,2.501c-.157,1.246-1.224,2.187-2.48,2.187h-.609c-.828,0-1.5.672-1.5,1.5v1c0,.275-.225.5-.5.5h-7c-.275,0-.5-.225-.5-.5v-1.124c0-1.232-.43-2.436-1.241-3.478-.933-1.201-2.364-3.71-1.474-7.021.734-2.726,2.989-4.892,5.715-5.601v2.999c-1.742.621-3,2.271-3,4.224,0,2.481,2.019,4.5,4.5,4.5s4.5-2.019,4.5-4.5c0-1.953-1.258-3.602-3-4.224v-3.211c2.158.263,4.141,1.381,5.48,3.17,0,0,2.02,2.265,3.303,5.765h-.39Z"/></svg>
