<?xml version="1.0" encoding="UTF-8"?>
<svg xmlns="http://www.w3.org/2000/svg" id="Layer_1" data-name="Layer 1" viewBox="0 0 24 24" width="512" height="512"><path d="m21.02,19.051v-5.051c0-4.963-4.037-9-9-9S3.02,9.037,3.02,14v5.051c-1.692.245-3,1.691-3,3.449,0,.828.672,1.5,1.5,1.5h21c.828,0,1.5-.672,1.5-1.5,0-1.758-1.308-3.204-3-3.449Zm-9-11.051c3.309,0,6,2.691,6,6v5H6.02v-5c0-3.309,2.691-6,6-6ZM.459,5.561c-.586-.586-.586-1.535,0-2.121s1.535-.586,2.121,0l1.5,1.5c.586.586.586,1.535,0,2.121-.293.293-.677.439-1.061.439s-.768-.146-1.061-.439l-1.5-1.5ZM5.097,1.975c-.262-.786.162-1.636.948-1.897s1.636.163,1.897.948l.5,1.5c.262.786-.162,1.636-.948,1.897-.157.053-.317.077-.475.077-.628,0-1.214-.397-1.423-1.025l-.5-1.5Zm14.862,5.086c-.586-.586-.586-1.535,0-2.121l1.5-1.5c.586-.586,1.535-.586,2.121,0s.586,1.535,0,2.121l-1.5,1.5c-.293.293-.677.439-1.061.439s-.768-.146-1.061-.439Zm-4.362-4.535l.5-1.5c.261-.785,1.11-1.212,1.897-.948.786.262,1.21,1.111.948,1.897l-.5,1.5c-.209.628-.795,1.025-1.423,1.025-.157,0-.317-.024-.475-.077-.786-.262-1.21-1.111-.948-1.897Zm-7.577,10.975c0-1.93,1.57-3.5,3.5-3.5.828,0,1.5.672,1.5,1.5s-.672,1.5-1.5,1.5c-.275,0-.5.225-.5.5,0,.828-.672,1.5-1.5,1.5s-1.5-.672-1.5-1.5Z"/></svg>
