<?xml version="1.0" encoding="UTF-8"?>
<svg xmlns="http://www.w3.org/2000/svg" id="Layer_1" data-name="Layer 1" viewBox="0 0 24 24" width="512" height="512"><path d="m15.5,21h-2v-2.166c3.141-.689,5.5-3.49,5.5-6.834,0-.047-.834-8.832-.834-8.832-.172-1.806-1.669-3.168-3.484-3.168h-5.363c-1.814,0-3.312,1.362-3.484,3.168,0,0-.834,8.784-.834,8.832,0,3.345,2.359,6.145,5.5,6.834v2.166h-2c-.829,0-1.5.671-1.5,1.5s.671,1.5,1.5,1.5h7c.829,0,1.5-.671,1.5-1.5s-.671-1.5-1.5-1.5ZM9.318,3h5.363c.259,0,.473.194.498.453l.147,1.547h-6.653l.147-1.547c.024-.258.238-.453.498-.453Zm-1.318,9.066l.387-4.066h7.225l.387,4.066c-.035,2.175-1.816,3.934-4,3.934s-3.964-1.759-4-3.934Z"/></svg>
