<?xml version="1.0" encoding="UTF-8"?>
<svg xmlns="http://www.w3.org/2000/svg" id="Layer_1" data-name="Layer 1" viewBox="0 0 24 24" width="512" height="512"><path d="M22,20c0,1.183-1.027,2.126-2.238,1.986-1.024-.118-1.751-1.062-1.763-2.093-.018-1.512-.487-3.149-.919-3.94-.285-.521,.241-1.118,.797-.911,1.751,.652,4.123,2.484,4.123,4.958Zm-3.242-8.683c.451-.695,.254-1.624-.44-2.075-.695-.451-1.624-.255-2.075,.44-.101,.154-.198,.242-.26,.285-.051-.046-.127-.131-.216-.271-.445-.7-1.373-.906-2.07-.462-.699,.444-.906,1.371-.463,2.07,.931,1.465,2.1,1.689,2.715,1.692h.015c1.066,0,2.111-.627,2.795-1.679Zm-8,0c.451-.695,.254-1.624-.44-2.075-.695-.451-1.624-.255-2.075,.44-.101,.154-.198,.242-.26,.285-.051-.046-.127-.131-.216-.271-.445-.7-1.373-.906-2.07-.462-.699,.444-.906,1.371-.463,2.07,.931,1.465,2.1,1.689,2.715,1.692h.015c1.066,0,2.111-.627,2.795-1.679ZM12,0C5.383,0,0,5.383,0,12s5.383,12,12,12c.964,0,1.925-.115,2.855-.342,.805-.197,1.298-1.008,1.102-1.813s-1.008-1.3-1.812-1.102c-.698,.17-1.42,.257-2.145,.257-4.963,0-9-4.038-9-9S7.037,3,12,3s9,4.038,9,9c0,.432-.03,.865-.091,1.287-.118,.82,.451,1.581,1.271,1.698,.816,.116,1.579-.451,1.697-1.271,.081-.562,.122-1.139,.122-1.713C24,5.383,18.617,0,12,0Zm-1.844,18.349c.007-.003,.752-.349,1.844-.349,1.086,0,1.828,.342,1.829,.342,.216,.107,.444,.159,.67,.159,.55,0,1.08-.304,1.343-.83,.37-.741,.07-1.642-.671-2.013-.135-.067-1.369-.658-3.171-.658s-3.036,.591-3.171,.658c-.735,.368-1.029,1.254-.67,1.994,.359,.739,1.252,1.05,1.997,.697Z"/></svg>
