<?xml version="1.0" encoding="UTF-8"?>
<svg xmlns="http://www.w3.org/2000/svg" id="Layer_1" data-name="Layer 1" viewBox="0 0 24 24" width="512" height="512"><path d="M.001,11.43C.302,5.021,5.572,0,12,0s11.698,5.021,11.999,11.43c.039,.828-.601,1.53-1.428,1.568-.024,0-.048,.002-.071,.002-.796,0-1.46-.626-1.498-1.43-.225-4.806-4.179-8.57-9.001-8.57S3.224,6.765,2.999,11.57c-.039,.828-.727,1.467-1.569,1.428C.602,12.96-.037,12.258,.001,11.43Zm13.285,9.479c-.843,.121-1.73,.121-2.573,0-.824-.119-1.58,.451-1.698,1.271-.118,.819,.452,1.58,1.271,1.697,.562,.081,1.139,.122,1.713,.122s1.151-.041,1.713-.122c.82-.117,1.389-.878,1.271-1.697-.118-.82-.873-1.395-1.698-1.271Zm-3.643-13.553c-.71-.71-2.246-.326-3.429,.857-1.184,1.184-1.568,2.719-.857,3.429,.71,.71,2.246,.326,3.429-.857,1.184-1.184,1.568-2.719,.857-3.429Zm9,4.287c.71-.71,.326-2.246-.857-3.43-1.184-1.184-2.719-1.568-3.429-.857s-.326,2.246,.857,3.429c1.184,1.184,2.719,1.568,3.429,.857Zm-6.643,.357c-1.657,0-3,1.343-3,3v1c0,1.657,1.343,3,3,3s3-1.343,3-3v-1c0-1.657-1.343-3-3-3ZM.901,15.335c-.919,.606-1.172,1.845-.57,2.767,.015,.023,1.375,2.137,1.629,4.996,.045,.511,.477,.903,.991,.903h3.011c.597,0,1.068-.523,1-1.116-.454-3.985-3.204-6.868-3.298-6.994-.664-.891-1.843-1.163-2.763-.556Zm22.202,0c-.92-.607-2.099-.335-2.763,.556-.094,.126-2.869,3.008-3.323,6.994-.068,.593,.403,1.116,1,1.116h3.037c.513,0,.945-.391,.991-.903,.253-2.858,1.614-4.973,1.629-4.996,.603-.922,.349-2.16-.57-2.767Z"/></svg>
