<?xml version="1.0" encoding="UTF-8"?>
<svg xmlns="http://www.w3.org/2000/svg" id="Layer_1" data-name="Layer 1" viewBox="0 0 24 24">
  <path d="m11,16.018c0,1.657-1.343,3-3,3s-3-1.343-3-3c0-1.108.607-2.064,1.5-2.584v-4.934c0-.828.672-1.5,1.5-1.5s1.5.672,1.5,1.5v4.934c.893.52,1.5,1.476,1.5,2.584Zm3-5.307c1.294,1.464,2,3.312,2,5.271,0,4.411-3.589,8-8,8S0,20.393,0,15.981c0-1.959.706-3.807,2-5.271v-4.692C2,2.71,4.691.019,8,.019s6,2.691,6,6v4.692Zm-1,5.271c0-1.356-.547-2.632-1.541-3.59-.293-.283-.459-.673-.459-1.08v-5.293c0-1.654-1.346-3-3-3s-3,1.346-3,3v5.293c0,.407-.166.797-.459,1.08-.994.958-1.541,2.233-1.541,3.59,0,2.757,2.243,5,5,5s5-2.243,5-5Zm4.5-12.981h5c.828,0,1.5-.672,1.5-1.5s-.672-1.5-1.5-1.5h-5c-.828,0-1.5.672-1.5,1.5s.672,1.5,1.5,1.5Zm5,2h-5c-.828,0-1.5.672-1.5,1.5s.672,1.5,1.5,1.5h5c.828,0,1.5-.672,1.5-1.5s-.672-1.5-1.5-1.5Zm0,5h-3c-.828,0-1.5.672-1.5,1.5s.672,1.5,1.5,1.5h3c.828,0,1.5-.672,1.5-1.5s-.672-1.5-1.5-1.5Z"/>
</svg>
