<?xml version="1.0" encoding="UTF-8"?>
<svg xmlns="http://www.w3.org/2000/svg" id="Layer_1" data-name="Layer 1" viewBox="0 0 24 24" width="512" height="512"><path d="m12,0C5.383,0,0,5.383,0,12s5.383,12,12,12,12-5.383,12-12S18.617,0,12,0Zm0,21c-4.962,0-9-4.037-9-9S7.038,3,12,3s9,4.037,9,9-4.038,9-9,9Zm5-13.25v7.506c0,1.208-.791,2.214-1.923,2.446-.158.032-.316.048-.472.048-.943,0-1.813-.576-2.215-1.513l-2.391-4.815v4.828c0,.828-.671,1.5-1.5,1.5s-1.5-.672-1.5-1.5v-7.5c0-1.213.778-2.22,1.892-2.448,1.091-.227,2.175.379,2.641,1.466l2.467,4.971v-4.988c0-.828.671-1.5,1.5-1.5s1.5.672,1.5,1.5Z"/></svg>
