<?xml version="1.0" encoding="UTF-8"?>
<svg xmlns="http://www.w3.org/2000/svg" id="Layer_1" data-name="Layer 1" viewBox="0 0 24 24" width="512" height="512"><path d="M11,20.5c0,.83-.67,1.5-1.5,1.5H5.5c-3.03,0-5.5-2.47-5.5-5.5V5.5C0,2.47,2.47,0,5.5,0h11c3.03,0,5.5,2.47,5.5,5.5,0,.83-.67,1.5-1.5,1.5s-1.5-.67-1.5-1.5c0-1.38-1.12-2.5-2.5-2.5H5.5c-1.38,0-2.5,1.12-2.5,2.5v11c0,1.38,1.12,2.5,2.5,2.5h4c.83,0,1.5,.67,1.5,1.5Zm-1.5-6.5h-1.5v-4.38l2.06-2.06c.43-.43,.56-1.07,.33-1.63s-.78-.93-1.39-.93h-2.5c-.83,0-1.5,.67-1.5,1.5V14.5c0,1.38,1.12,2.5,2.5,2.5h2c.83,0,1.5-.67,1.5-1.5s-.67-1.5-1.5-1.5Zm5-6c.83,0,1.5-.67,1.5-1.5s-.67-1.5-1.5-1.5h-1c-.83,0-1.5,.67-1.5,1.5s.67,1.5,1.5,1.5h1Zm9.5,10v3c0,1.66-1.34,3-3,3h-5c-1.66,0-3-1.34-3-3v-3c0-.89,.39-1.69,1-2.24v-2.26c0-2.48,2.02-4.5,4.5-4.5s4.5,2.02,4.5,4.5v2.26c.61,.55,1,1.35,1,2.24Zm-7-4.5v1.5h3v-1.5c0-.83-.67-1.5-1.5-1.5s-1.5,.67-1.5,1.5Zm3,6c0-.83-.67-1.5-1.5-1.5s-1.5,.67-1.5,1.5,.67,1.5,1.5,1.5,1.5-.67,1.5-1.5Z"/></svg>
