<?xml version="1.0" encoding="UTF-8"?>
<svg xmlns="http://www.w3.org/2000/svg" id="Layer_1" data-name="Layer 1" viewBox="0 0 24 24" width="512" height="512"><path d="m14.561,12.439c.586.586.586,1.535,0,2.121-.293.293-.677.439-1.061.439s-.768-.146-1.061-.439l-1.5-1.5c-.281-.281-.439-.663-.439-1.061v-3.5c0-.829.671-1.5,1.5-1.5s1.5.671,1.5,1.5v2.879l1.061,1.061Zm3.439,7.555v2.505c0,.828-.671,1.5-1.5,1.5s-1.5-.672-1.5-1.5v-.96c-.947.299-1.955.46-3,.46s-2.053-.161-3-.46v.96c0,.828-.671,1.5-1.5,1.5s-1.5-.672-1.5-1.5v-2.505c-2.427-1.826-4-4.73-4-7.995s1.573-6.169,4-7.995V1.5c0-.829.671-1.5,1.5-1.5s1.5.671,1.5,1.5v.96c.947-.299,1.955-.46,3-.46s2.053.161,3,.46v-.96c0-.829.671-1.5,1.5-1.5s1.5.671,1.5,1.5v2.505c2.427,1.826,4,4.73,4,7.995s-1.573,6.169-4,7.995Zm1-7.995c0-3.86-3.14-7-7-7s-7,3.14-7,7,3.14,7,7,7,7-3.141,7-7Z"/></svg>
