<?xml version="1.0" encoding="UTF-8"?>
<svg xmlns="http://www.w3.org/2000/svg" id="Layer_1" data-name="Layer 1" viewBox="0 0 24 24">
  <path d="m12,0C5.707.022.76,3.944.032,9.556c-.033.254-.039.51-.021.763,0,.681.689,2.063,1.158,2.532l6.132,6.094c-.191.306-.301.668-.301,1.055v2c0,1.105.895,2,2,2h6c1.105,0,2-.895,2-2v-2c0-.393-.114-.76-.31-1.069l6.122-6.122c.419-.419,1.159-1.309,1.159-2.599.012-.231.004-.463-.026-.694C23.221,3.926,18.285.019,12,0h0Zm-3.54,3.576c-.65,1.096-1.266,2.45-1.629,4.023-.668-.347-1.454-.599-2.331-.599-.161,0-.317.009-.47.025.964-1.577,2.515-2.784,4.43-3.449Zm-5.238,7.077c.288-.315.725-.654,1.279-.654,1.005,0,2.512,1.628,2.517,1.633l1.716,4.506s-5.492-5.46-5.512-5.485ZM12,3.721c.654.827,1.482,2.092,2.002,3.69-.622-.245-1.3-.411-2.001-.411s-1.38.166-2.001.411c.52-1.598,1.348-2.863,2.001-3.69Zm0,12.566l-2.07-5.434c.608-.426,1.396-.853,2.07-.853s1.463.427,2.07.853l-2.07,5.434Zm7.964-9.263c-.151-.016-.306-.025-.464-.025-.877,0-1.663.252-2.331.599-.362-1.573-.979-2.926-1.629-4.023,1.916.665,3.465,1.872,4.424,3.448Zm-4.682,9.072l1.701-4.464c.073-.064,1.512-1.632,2.517-1.632.535,0,.962.317,1.25.623-.019.022-5.468,5.474-5.468,5.474Z"/>
</svg>
