<?xml version="1.0" encoding="UTF-8"?>
<svg xmlns="http://www.w3.org/2000/svg" id="Layer_1" data-name="Layer 1" viewBox="0 0 24 24" width="512" height="512"><path d="m17.41,8.511l-2.776,7.666c-.44,1.122-1.469,1.823-2.634,1.823s-2.194-.701-2.62-1.785l-2.79-7.704c-.282-.779.121-1.639.899-1.921.779-.283,1.639.12,1.921.899l2.59,7.152,2.589-7.152c.282-.779,1.144-1.183,1.921-.899.779.282,1.182,1.142.899,1.921Zm6.59,2.989c0,6.617-5.383,12-12,12S0,18.117,0,11.5,5.383-.5,12-.5s12,5.383,12,12Zm-3,0c0-4.963-4.038-9-9-9S3,6.537,3,11.5s4.038,9,9,9,9-4.037,9-9Z"/></svg>
