<?xml version="1.0" encoding="UTF-8"?>
<svg xmlns="http://www.w3.org/2000/svg" id="Layer_1" data-name="Layer 1" viewBox="0 0 24 24" width="512" height="512"><path d="M23,12c0,.4-.16,.78-.44,1.06l-1.83,1.83c-.47,.47-.73,1.1-.73,1.77v1.84c0,3.03-2.47,5.5-5.5,5.5-.83,0-1.5-.67-1.5-1.5s.67-1.5,1.5-1.5c1.38,0,2.5-1.12,2.5-2.5v-1.84c0-1.47,.57-2.85,1.61-3.89l.77-.77-.77-.77c-1.04-1.04-1.61-2.42-1.61-3.89v-1.84c0-1.38-1.12-2.5-2.5-2.5-.83,0-1.5-.67-1.5-1.5s.67-1.5,1.5-1.5c3.03,0,5.5,2.47,5.5,5.5v1.84c0,.67,.26,1.3,.73,1.77l1.83,1.83c.28,.28,.44,.66,.44,1.06ZM7,7.34v-1.84c0-1.38,1.12-2.5,2.5-2.5,.83,0,1.5-.67,1.5-1.5s-.67-1.5-1.5-1.5c-3.03,0-5.5,2.47-5.5,5.5v1.84c0,.67-.26,1.3-.73,1.77l-1.83,1.83c-.28,.28-.44,.66-.44,1.06s.16,.78,.44,1.06l1.83,1.83c.47,.47,.73,1.1,.73,1.77v1.84c0,3.03,2.47,5.5,5.5,5.5,.83,0,1.5-.67,1.5-1.5s-.67-1.5-1.5-1.5c-1.38,0-2.5-1.12-2.5-2.5v-1.84c0-1.47-.57-2.85-1.61-3.89l-.77-.77,.77-.77c1.04-1.04,1.61-2.42,1.61-3.89Z"/></svg>
