<?xml version="1.0" encoding="UTF-8"?>
<svg xmlns="http://www.w3.org/2000/svg" id="Layer_1" data-name="Layer 1" viewBox="0 0 24 24" width="512" height="512"><path d="M13.8,18h-3.6c-2.32,0-4.2-1.88-4.2-4.2v-3.6c0-2.32,1.88-4.2,4.2-4.2h3.6c2.32,0,4.2,1.88,4.2,4.2v3.6c0,2.32-1.88,4.2-4.2,4.2Zm-3.6-9c-.66,0-1.2,.54-1.2,1.2v3.6c0,.66,.54,1.2,1.2,1.2h3.6c.66,0,1.2-.54,1.2-1.2v-3.6c0-.66-.54-1.2-1.2-1.2h-3.6Zm-6.58,1.5c.55-.62,.5-1.57-.12-2.12-.32-.29-.5-.69-.5-1.12v-2.76c0-.83,.67-1.5,1.5-1.5h2.76c.43,0,.83,.18,1.12,.5,.55,.62,1.5,.67,2.12,.12,.62-.55,.67-1.5,.12-2.12C9.77,.55,8.54,0,7.26,0h-2.76c-2.48,0-4.5,2.02-4.5,4.5v2.76c0,1.28,.55,2.5,1.5,3.35,.29,.26,.64,.38,1,.38,.41,0,.82-.17,1.12-.5Zm20.38,9v-2.76c0-1.28-.55-2.5-1.5-3.35-.62-.55-1.57-.5-2.12,.12-.55,.62-.5,1.57,.12,2.12,.32,.29,.5,.69,.5,1.12v2.76c0,.83-.67,1.5-1.5,1.5h-2.76c-.43,0-.83-.18-1.12-.5-.55-.62-1.5-.67-2.12-.12-.62,.55-.67,1.5-.12,2.12,.85,.95,2.08,1.5,3.35,1.5h2.76c2.48,0,4.5-2.02,4.5-4.5Z"/></svg>
