<?xml version="1.0" encoding="UTF-8"?>
<svg xmlns="http://www.w3.org/2000/svg" id="Layer_1" data-name="Layer 1" viewBox="0 0 24 24" width="512" height="512"><path d="m12,22.5c0,.829-.672,1.5-1.5,1.5h-5c-3.032,0-5.5-2.467-5.5-5.5V5.5C0,2.467,2.468,0,5.5,0h7c3.032,0,5.5,2.467,5.5,5.5v4c0,.829-.672,1.5-1.5,1.5s-1.5-.671-1.5-1.5v-4c0-1.378-1.121-2.5-2.5-2.5h-7c-1.379,0-2.5,1.122-2.5,2.5v13c0,1.378,1.121,2.5,2.5,2.5h5c.828,0,1.5.671,1.5,1.5Zm-3-12.5c.553,0,1-.448,1-1v-1h1c.553,0,1-.448,1-1s-.447-1-1-1h-1v-1c0-.552-.447-1-1-1s-1,.448-1,1v1h-1c-.553,0-1,.448-1,1s.447,1,1,1h1v1c0,.552.447,1,1,1Zm7.5,5.5c0,1.379,1.121,2.5,2.5,2.5s2.5-1.121,2.5-2.5-1.121-2.5-2.5-2.5-2.5,1.121-2.5,2.5Zm7.469,7.25c-.561-2.173-2.649-3.75-4.969-3.75s-4.408,1.577-4.969,3.75c-.077.299-.011.618.179.862.189.244.48.387.79.387h8c.31,0,.601-.143.79-.387.189-.245.256-.563.179-.862ZM6.5,11c-.828,0-1.5.672-1.5,1.5s.672,1.5,1.5,1.5,1.5-.672,1.5-1.5-.672-1.5-1.5-1.5Zm5,0c-.828,0-1.5.672-1.5,1.5s.672,1.5,1.5,1.5,1.5-.672,1.5-1.5-.672-1.5-1.5-1.5Zm-5,5c-.828,0-1.5.672-1.5,1.5s.672,1.5,1.5,1.5,1.5-.672,1.5-1.5-.672-1.5-1.5-1.5Zm5,0c-.828,0-1.5.672-1.5,1.5s.672,1.5,1.5,1.5,1.5-.672,1.5-1.5-.672-1.5-1.5-1.5Z"/></svg>
