<?xml version="1.0" encoding="UTF-8"?>
<svg xmlns="http://www.w3.org/2000/svg" id="Layer_1" data-name="Layer 1" viewBox="0 0 24 24">
  <path d="m16.637,11.028c.568.604.54,1.553-.063,2.12l-3.046,2.867c-.661.652-1.541.98-2.424.98s-1.776-.33-2.455-.992l-1.167-1.023c-.622-.547-.684-1.495-.136-2.117.546-.621,1.494-.683,2.117-.137l1.226,1.077c.251.243.565.243.759.052l3.071-2.891c.604-.568,1.552-.541,2.12.063Zm7.421-6.528c0,.828-.672,1.5-1.5,1.5h-.619l-1.08,12.957c-.236,2.828-2.644,5.043-5.481,5.043h-6.639c-2.838,0-5.246-2.215-5.481-5.043l-1.08-12.957h-.62C.729,6,.058,5.328.058,4.5s.671-1.5,1.5-1.5h4.757c.619-1.746,2.287-3,4.243-3h3c1.956,0,3.624,1.254,4.243,3h4.757c.828,0,1.5.672,1.5,1.5Zm-5.131,1.5H5.188l1.059,12.707c.107,1.286,1.202,2.293,2.492,2.293h6.639c1.29,0,2.385-1.007,2.491-2.293l1.059-12.707Z"/>
</svg>
