<?xml version="1.0" encoding="UTF-8"?>
<svg xmlns="http://www.w3.org/2000/svg" id="Layer_1" data-name="Layer 1" viewBox="0 0 24 24">
  <path d="m3,5.5c0-.828.672-1.5,1.5-1.5s1.5.672,1.5,1.5-.672,1.5-1.5,1.5-1.5-.672-1.5-1.5Zm16.5,1.5c.828,0,1.5-.672,1.5-1.5s-.672-1.5-1.5-1.5-1.5.672-1.5,1.5.672,1.5,1.5,1.5ZM1.5,11.5c-.828,0-1.5.672-1.5,1.5s.672,1.5,1.5,1.5,1.5-.672,1.5-1.5-.672-1.5-1.5-1.5Zm10.5-7.5c.828,0,1.5-.672,1.5-1.5s-.672-1.5-1.5-1.5-1.5.672-1.5,1.5.672,1.5,1.5,1.5Zm7.5,15c-.828,0-1.5.672-1.5,1.5s.672,1.5,1.5,1.5,1.5-.672,1.5-1.5-.672-1.5-1.5-1.5Zm3-7.5c-.828,0-1.5.672-1.5,1.5s.672,1.5,1.5,1.5,1.5-.672,1.5-1.5-.672-1.5-1.5-1.5Zm-18,7.5c-.828,0-1.5.672-1.5,1.5s.672,1.5,1.5,1.5,1.5-.672,1.5-1.5-.672-1.5-1.5-1.5Zm14.5-6c0,3.866-3.134,7-7,7-3.894,0-7.055-3.196-6.999-7.102.053-3.714,3.18-6.842,6.893-6.897,3.908-.058,7.106,3.104,7.106,6.999Zm-3,0c0-2.206-1.794-4-4-4s-4,1.794-4,4,1.794,4,4,4c.554,0,1.082-.113,1.562-.317l-2.622-2.622c-.586-.585-.586-1.536,0-2.121.586-.586,1.535-.586,2.121,0l2.622,2.622c.204-.48.317-1.008.317-1.562Z"/>
</svg>
