<?xml version="1.0" encoding="UTF-8"?>
<svg xmlns="http://www.w3.org/2000/svg" id="Layer_1" data-name="Layer 1" viewBox="0 0 24 24" width="512" height="512"><path d="M12.5,12c.83,0,1.5,.67,1.5,1.5s-.67,1.5-1.5,1.5-1.5-.67-1.5-1.5,.67-1.5,1.5-1.5Zm0,5c-.83,0-1.5,.67-1.5,1.5s.67,1.5,1.5,1.5,1.5-.67,1.5-1.5-.67-1.5-1.5-1.5Zm5-2c.83,0,1.5-.67,1.5-1.5s-.67-1.5-1.5-1.5-1.5,.67-1.5,1.5,.67,1.5,1.5,1.5Zm0,5c.83,0,1.5-.67,1.5-1.5s-.67-1.5-1.5-1.5-1.5,.67-1.5,1.5,.67,1.5,1.5,1.5Zm6.5-14.17v12.67c0,3.03-2.47,5.5-5.5,5.5H4.5c-2.48,0-4.5-2.02-4.5-4.5V8.5c0-2.48,2.02-4.5,4.5-4.5,2.31,0,4.22,1.75,4.47,4h2.03v-3.5c0-2.48,2.02-4.5,4.5-4.5h2.67c.94,0,1.81,.36,2.48,1.03l2.33,2.33c.66,.66,1.03,1.54,1.03,2.47ZM6,8.5c0-.83-.67-1.5-1.5-1.5s-1.5,.67-1.5,1.5v11c0,.83,.67,1.5,1.5,1.5s1.5-.67,1.5-1.5V8.5Zm8-.5h7v-2h-1.5c-.83,0-1.5-.67-1.5-1.5v-1.5h-2.5c-.83,0-1.5,.67-1.5,1.5v3.5Zm7,3H9v8.5c0,.53-.09,1.03-.26,1.5h9.76c1.38,0,2.5-1.12,2.5-2.5v-7.5Z"/></svg>
