<?xml version="1.0" encoding="UTF-8"?>
<svg xmlns="http://www.w3.org/2000/svg" id="Layer_1" data-name="Layer 1" viewBox="0 0 24 24" width="512" height="512"><path d="m18.5,0H5.5C2.468,0,0,2.468,0,5.5v9c0,3.032,2.468,5.5,5.5,5.5h1.24l3.599,3.03c.479.426,1.08.636,1.675.636.582,0,1.158-.202,1.606-.601l3.708-3.065h1.172c3.032,0,5.5-2.468,5.5-5.5V5.5c0-3.032-2.468-5.5-5.5-5.5Zm2.5,14.5c0,1.379-1.121,2.5-2.5,2.5h-1.712c-.349,0-.687.122-.956.344l-3.828,3.167-3.75-3.158c-.27-.228-.612-.353-.966-.353h-1.788c-1.379,0-2.5-1.121-2.5-2.5V5.5c0-1.379,1.121-2.5,2.5-2.5h13c1.379,0,2.5,1.121,2.5,2.5v9Zm-3-7v3.5c0,1.924-1.347,3.594-3.202,3.97-.101.021-.2.03-.3.03-.698,0-1.324-.49-1.468-1.202-.165-.812.359-1.604,1.172-1.768.447-.091.798-.544.798-1.03h-.5c-.828,0-1.5-.672-1.5-1.5v-1.5c0-1.105.895-2,2-2h1.5c.828,0,1.5.672,1.5,1.5Zm-7,0v3.5c0,1.924-1.347,3.594-3.202,3.97-.101.021-.2.03-.3.03-.698,0-1.324-.49-1.468-1.202-.165-.812.359-1.604,1.172-1.768.447-.091.798-.544.798-1.03h-.5c-.828,0-1.5-.672-1.5-1.5v-1.5c0-1.105.895-2,2-2h1.5c.828,0,1.5.672,1.5,1.5Z"/></svg>
