<?xml version="1.0" encoding="UTF-8"?>
<svg xmlns="http://www.w3.org/2000/svg" id="Layer_1" data-name="Layer 1" viewBox="0 0 24 24">
  <path d="m23.572,16.399c-.536-.876-1.469-1.399-2.494-1.399H2.921c-1.021,0-1.952.52-2.489,1.391-.529.858-.576,1.906-.126,2.802.901,1.796,3.197,4.808,8.447,4.808h6.465c5.237,0,7.553-3.001,8.467-4.79.458-.896.416-1.947-.112-2.811Zm-8.354,4.601h-6.465c-2.707,0-4.618-1.009-5.686-3l17.883-.034c-1.083,2.014-3.011,3.034-5.732,3.034Zm-1.718-8h8c.576,0,1.102-.33,1.352-.85s.18-1.137-.18-1.587L14.679.563c-.397-.498-1.065-.689-1.668-.479-.601.211-1.003.778-1.004,1.415l-.007,10c0,.398.158.779.439,1.062.281.281.663.439,1.061.439Zm1.504-7.225l3.377,4.225h-3.38l.003-4.225ZM1.13,12.11c-.241-.541-.141-1.173.255-1.613L7.38,3.83c.416-.461,1.072-.62,1.652-.397.58.222.963.778.963,1.399l.005,6.667c0,.397-.158.779-.439,1.062-.281.281-.663.439-1.061.439H2.5c-.592,0-1.129-.349-1.37-.89Z"/>
</svg>
