<?xml version="1.0" encoding="UTF-8"?>
<svg xmlns="http://www.w3.org/2000/svg" id="Layer_1" data-name="Layer 1" viewBox="0 0 24 24" width="512" height="512"><path d="M19,17.5c0,.829-.671,1.5-1.5,1.5h-7c-.829,0-1.5-.671-1.5-1.5s.671-1.5,1.5-1.5h7c.829,0,1.5,.671,1.5,1.5Zm5-12v13c0,3.033-2.467,5.5-5.5,5.5H5.5c-3.033,0-5.5-2.467-5.5-5.5V5.5C0,2.467,2.467,0,5.5,0h13c3.033,0,5.5,2.467,5.5,5.5Zm-3,0c0-1.378-1.122-2.5-2.5-2.5H5.5c-1.378,0-2.5,1.122-2.5,2.5v13c0,1.378,1.122,2.5,2.5,2.5h13c1.378,0,2.5-1.122,2.5-2.5V5.5Zm-3.906,.408c-.328-.328-.86-.328-1.188,0l-1.906,1.906-1.906-1.906c-.328-.328-.86-.328-1.188,0l-2.658,2.658c-.529,.529-.154,1.434,.594,1.434h1.158v2.5c0,.829,.671,1.5,1.5,1.5s1.5-.671,1.5-1.5v-2.5h2v2.5c0,.829,.671,1.5,1.5,1.5s1.5-.671,1.5-1.5v-2.5h1.158c.749,0,1.123-.905,.594-1.434l-2.658-2.658Z"/></svg>
