<?xml version="1.0" encoding="UTF-8"?>
<svg xmlns="http://www.w3.org/2000/svg" id="Layer_1" data-name="Layer 1" viewBox="0 0 24 24" width="512" height="512"><path d="m18,9c-3.309,0-6,3.364-6,7.5s2.691,7.5,6,7.5,6-3.364,6-7.5-2.691-7.5-6-7.5Zm-.895,3.236c.221.702.357,1.938-.454,3.608-.644,1.328-.888,2.516-.918,3.534-.448-.789-.732-1.79-.732-2.879,0-1.971.902-3.675,2.105-4.264Zm1.791,8.527c-.221-.702-.356-1.938.454-3.608.644-1.328.888-2.516.918-3.534.448.789.732,1.79.732,2.879,0,1.971-.902,3.675-2.105,4.264ZM12.461,1.54C11.255.334,9.472-.198,7.565.07c-1.773.254-3.522,1.166-4.926,2.569C-.371,5.65-.865,10.056,1.539,12.46c1,1,2.397,1.539,3.931,1.539.316,0,.639-.023.964-.069,1.773-.254,3.522-1.166,4.926-2.569,3.011-3.011,3.504-7.416,1.101-9.82Zm-4.471,1.5c.153-.021.342-.039.551-.039.312,0,.666.049,1.012.175-.339.687-1.147,1.75-3.044,2.407-1.531.53-2.616,1.275-3.39,2.045.225-.975.78-2.005,1.642-2.868.934-.934,2.11-1.561,3.229-1.721Zm-1.979,7.92c-.383.053-.988.077-1.565-.133.338-.687,1.146-1.752,3.046-2.41,1.531-.53,2.616-1.275,3.39-2.045-.225.975-.78,2.005-1.642,2.868-.934.934-2.11,1.561-3.229,1.721Z"/></svg>
