<?xml version="1.0" encoding="UTF-8"?>
<svg xmlns="http://www.w3.org/2000/svg" id="Layer_1" data-name="Layer 1" viewBox="0 0 24 24" width="512" height="512"><path d="m23.631,14.213c-.354-1.136-1.202-2.114-2.323-2.684-1.105-.563-2.343-.68-3.483-.336-.514.156-.999.405-1.444.742-.515.391-.926.864-1.227,1.387,0,0-.001-.001-.002-.002-1.248-1.232-3.06-1.647-4.714-1.036-.621.23-1.165.576-1.611,1.007-.299-.511-.705-.974-1.21-1.357-.443-.336-.928-.585-1.442-.741-1.14-.344-2.378-.226-3.482.335-1.122.57-1.969,1.548-2.324,2.685-.527,1.687-.491,3.908.108,6.601.215.97.919,1.734,1.884,2.045.29.094.589.139.887.139.695,0,1.378-.25,1.905-.72,1.186-1.059,2.134-2.093,2.838-3.094.349,1.065.882,2.214,1.597,3.442.502.86,1.403,1.373,2.411,1.373h0c1.008,0,1.908-.514,2.409-1.373.716-1.229,1.25-2.38,1.599-3.447.704,1.002,1.653,2.038,2.841,3.098.527.47,1.21.72,1.905.72.297,0,.597-.045.887-.139.964-.311,1.668-1.076,1.884-2.045.599-2.693.635-4.914.108-6.601Zm-17.277,1.709c-.365,1.108-1.431,2.504-3.012,3.948-.412-1.986-.452-3.669-.11-4.763h0c.114-.364.999-1.466,2.073-1.043s1.247,1.258,1.049,1.858Zm5.644,4.875c-.969-1.732-1.5-3.277-1.5-4.377,0-.61.451-1.421,1.502-1.421s1.498.744,1.498,1.474c0,1.097-.547,2.622-1.5,4.324Zm8.66-.928c-1.581-1.443-2.647-2.839-3.012-3.948-.197-.601-.107-1.513,1.049-1.858,1.362-.407,1.959.68,2.073,1.043h0c.341,1.094.301,2.777-.11,4.763ZM.387.494C.942-.121,1.889-.169,2.504.385c.068.061,4.121,3.615,9.496,3.615,5.435,0,9.454-3.577,9.494-3.613.615-.556,1.562-.508,2.119.107.556.614.508,1.563-.107,2.119-.131.118-2.237,1.992-5.545,3.252l.431,1.078c.308.769-.066,1.642-.835,1.95-.183.073-.371.108-.557.108-.595,0-1.159-.357-1.393-.943l-.544-1.359c-.505.099-1.027.177-1.564.229v1.573c0,.829-.671,1.5-1.5,1.5s-1.5-.671-1.5-1.5v-1.573c-.537-.052-1.059-.13-1.564-.229l-.544,1.359c-.234.586-.798.943-1.393.943-.186,0-.374-.035-.557-.108-.769-.308-1.143-1.181-.835-1.95l.431-1.078C2.731,4.604.625,2.731.494,2.613-.121,2.057-.168,1.108.387.494Z"/></svg>
