<?xml version="1.0" encoding="UTF-8"?>
<svg xmlns="http://www.w3.org/2000/svg" id="Layer_1" data-name="Layer 1" viewBox="0 0 24 24" width="512" height="512"><path d="m18.5,0H5.5C2.468,0,0,2.467,0,5.5v13c0,3.033,2.468,5.5,5.5,5.5h13c3.032,0,5.5-2.467,5.5-5.5V5.5c0-3.033-2.468-5.5-5.5-5.5Zm2.5,18.5c0,1.378-1.121,2.5-2.5,2.5H5.5c-1.379,0-2.5-1.122-2.5-2.5V5.5c0-1.378,1.121-2.5,2.5-2.5h13c1.379,0,2.5,1.122,2.5,2.5v13ZM11.5,5h-2c-1.93,0-3.5,1.57-3.5,3.5v7c0,1.93,1.57,3.5,3.5,3.5h2c3.584,0,6.5-2.916,6.5-6.5v-1c0-3.584-2.916-6.5-6.5-6.5Zm3.5,7.5c0,1.93-1.57,3.5-3.5,3.5h-2c-.275,0-.5-.224-.5-.5v-7c0-.276.225-.5.5-.5h2c1.93,0,3.5,1.57,3.5,3.5v1Z"/></svg>
