<?xml version="1.0" encoding="UTF-8"?>
<svg xmlns="http://www.w3.org/2000/svg" id="Layer_1" data-name="Layer 1" viewBox="0 0 24 24" width="512" height="512"><path d="m19,3.261v-1.761c0-.828-.672-1.5-1.5-1.5s-1.5.672-1.5,1.5v.523c-.165-.015-.331-.023-.5-.023h-7c-.169,0-.335.008-.5.023v-.523c0-.828-.672-1.5-1.5-1.5s-1.5.672-1.5,1.5v1.761c-1.221,1.01-2,2.535-2,4.239v9c0,1.704.779,3.229,2,4.239v1.761c0,.828.672,1.5,1.5,1.5s1.5-.672,1.5-1.5v-.523c.165.015.331.023.5.023h7c.169,0,.335-.008.5-.023v.523c0,.828.672,1.5,1.5,1.5s1.5-.672,1.5-1.5v-1.761c1.221-1.01,2-2.535,2-4.239V7.5c0-1.704-.779-3.229-2-4.239Zm-10.5,15.739c-1.379,0-2.5-1.121-2.5-2.5V7.5c0-1.379,1.121-2.5,2.5-2.5h7c1.379,0,2.5,1.121,2.5,2.5v9c0,1.379-1.121,2.5-2.5,2.5h-7Zm7.5-7.84c0,1.729-2.338,3.76-3.439,4.621-.331.259-.791.259-1.122,0-1.101-.861-3.439-2.891-3.439-4.621,0-1.193.895-2.16,2-2.16s2,.807,2,2c0-1.193.895-2,2-2s2,.967,2,2.16Z"/></svg>
