<?xml version="1.0" encoding="UTF-8"?>
<svg xmlns="http://www.w3.org/2000/svg" id="Layer_1" data-name="Layer 1" viewBox="0 0 24 24">
  <path d="m19,14h-2v-4h2c2.757,0,5-2.243,5-5S21.757,0,19,0s-5,2.243-5,5v2h-4v-2C10,2.243,7.757,0,5,0S0,2.243,0,5s2.243,5,5,5h2v4h-2c-2.757,0-5,2.243-5,5s2.243,5,5,5,5-2.243,5-5v-2h4v2c0,2.757,2.243,5,5,5s5-2.243,5-5-2.243-5-5-5Zm-2-9c0-1.103.897-2,2-2s2,.897,2,2-.897,2-2,2h-2v-2Zm-14,0c0-1.103.897-2,2-2s2,.897,2,2v2h-2c-1.103,0-2-.897-2-2Zm4,14c0,1.103-.897,2-2,2s-2-.897-2-2,.897-2,2-2h2v2Zm3-9h4v4h-4v-4Zm9,11c-1.103,0-2-.897-2-2v-2h2c1.103,0,2,.897,2,2s-.897,2-2,2Z"/>
</svg>
