<?xml version="1.0" encoding="UTF-8"?>
<svg xmlns="http://www.w3.org/2000/svg" id="Layer_1" data-name="Layer 1" viewBox="0 0 24 24" width="512" height="512"><path d="m22.753,6.927c1.495-1.491,1.659-3.888.375-5.455C22.41.596,21.353.062,20.226.005c-1.128-.053-2.232.368-3.031,1.165L.762,17.564c-.491.491-.762,1.144-.762,1.837s.272,1.35.765,1.84c.492.49,1.144.759,1.835.759h.013c.341,0,.69-.007.949-.016,1.957-.078,3.799-.46,5.476-1.135,2.367-.954,4.18-2.873,5.055-5.28l8.661-8.643Zm-14.837,11.14c-1.316.53-2.772.838-4.326.914l6.179-6.165,1.587,1.479c-.554,1.713-1.821,3.12-3.439,3.772Zm3.978-7.371l7.419-7.401c.204-.203.468-.312.763-.293.166.009.482.068.732.373.312.381.234,1.022-.174,1.43l-7.273,7.258-1.467-1.366Zm5.106,11.805c0,.828-.671,1.5-1.5,1.5h-2c-.829,0-1.5-.672-1.5-1.5s.671-1.5,1.5-1.5h2c.829,0,1.5.672,1.5,1.5Zm7,0c0,.828-.671,1.5-1.5,1.5h-2c-.829,0-1.5-.672-1.5-1.5s.671-1.5,1.5-1.5h2c.829,0,1.5.672,1.5,1.5Z"/></svg>
