<?xml version="1.0" encoding="UTF-8"?>
<svg xmlns="http://www.w3.org/2000/svg" id="Layer_1" data-name="Layer 1" viewBox="0 0 24 24" width="512" height="512"><path d="M23.106,21.127c-.157-.069-3.193-1.384-7.575-1.911,.397-1.727,1.158-5.909,.276-9.658-.107-.455-.221-.875-.336-1.29,2.137,1.462,4.454,1.94,5.672,2.089,.663,.082,1.342-.112,1.863-.531,.526-.422,.851-1.022,.915-1.69,.136-1.409-.013-4.046-2.538-5.883C18.922,.464,14.94,.079,13.042,0h-2.08c-1.922,.081-5.89,.468-8.344,2.253C.093,4.089-.056,6.726,.08,8.134c.064,.668,.389,1.269,.915,1.691,.444,.356,1.001,.549,1.566,.549,.099,0,.199-.006,.297-.018,.77-.094,1.98-.319,3.305-.838,.096,1.043,.321,2.045,.552,2.849,.202,.702,.698,1.28,1.36,1.584,.33,.152,.685,.229,1.04,.229,.351,0,.702-.075,1.029-.224,.84-.382,1.8-.917,2.66-1.626-.429,2.784-1.49,5.333-2.139,6.704-5.538,.257-9.589,2.013-9.771,2.093-.757,.334-1.1,1.218-.767,1.976s1.219,1.104,1.976,.77c.043-.019,4.345-1.873,9.897-1.873s9.854,1.854,9.895,1.873c.197,.087,.402,.128,.604,.128,.576,0,1.126-.334,1.374-.895,.334-.758-.009-1.644-.767-1.978Zm-3.488-16.447c.867,.63,1.315,1.508,1.338,2.617-1.042-.184-2.59-.615-3.975-1.623-1.015-.737-1.806-1.683-2.383-2.535,1.736,.206,3.796,.65,5.021,1.541Zm-15.235,0c1.222-.889,3.277-1.333,5.02-1.54-.578,.851-1.369,1.797-2.383,2.534-1.385,1.007-2.933,1.438-3.975,1.623,.022-1.108,.471-1.987,1.338-2.617Zm7.711,3.8c-.325,.877-1.277,1.764-2.649,2.481-.307-1.248-.393-2.363-.265-3.185,1.051-.842,1.889-1.807,2.533-2.719,.424,1.165,.723,2.498,.381,3.422Z"/></svg>
