<?xml version="1.0" encoding="UTF-8"?>
<svg xmlns="http://www.w3.org/2000/svg" id="Layer_1" data-name="Layer 1" viewBox="0 0 24 24" width="512" height="512"><path d="m21.49,2.509c-3.34-3.34-8.775-3.342-12.115,0-2.238,2.239-3.063,7.032-3.36,10.66-.065.792.103,1.564.432,2.263l-3.099,3.099c-.356-.327-.827-.531-1.348-.531-1.105,0-2,.895-2,2s.895,2,2,2c0,1.105.895,2,2,2s2-.895,2-2c0-.521-.204-.992-.531-1.348l3.093-3.092c.591.278,1.233.44,1.897.44.123,0,.247-.005.372-.015,1.02-.084,2.578-.252,4.215-.579.415-.083.776-.338.994-.702.217-.364.271-.803.146-1.208-.124-.404-.187-.823-.187-1.246,0-2.343,1.906-4.25,4.25-4.25.572,0,1.127.111,1.647.332.449.189.963.149,1.379-.11.414-.259.677-.703.703-1.191.131-2.432-.776-4.809-2.489-6.521Zm-1.24,4.491c-3.998,0-7.25,3.252-7.25,7.25,0,.155.005.311.015.465-.944.142-1.799.228-2.43.28-.443.033-.856-.118-1.159-.421s-.457-.726-.421-1.16c.352-4.292,1.283-7.575,2.491-8.784,1.085-1.085,2.511-1.628,3.937-1.628s2.852.543,3.937,1.628c.668.668,1.147,1.493,1.404,2.388-.173-.012-.348-.019-.523-.019Z"/></svg>
