<?xml version="1.0" encoding="UTF-8"?>
<svg xmlns="http://www.w3.org/2000/svg" id="Layer_1" data-name="Layer 1" viewBox="0 0 24 24" width="512" height="512"><path d="M12,24c-1.506,0-2.928-.583-4.004-1.64l-3.734-3.466C-.065,14.548-.065,7.543,4.219,3.238,6.297,1.15,9.061,0,12,0s5.702,1.15,7.781,3.238h0c4.284,4.305,4.284,11.31,0,15.615l-3.809,3.537c-1.045,1.028-2.467,1.61-3.973,1.61Zm0-21c-2.136,0-4.144,.836-5.654,2.354-3.124,3.138-3.124,8.245,0,11.383l3.723,3.455c1.084,1.063,2.811,1.034,3.832,.029l3.797-3.525c3.081-3.097,3.081-8.204-.043-11.342-1.511-1.518-3.52-2.354-5.654-2.354Zm0,10.828l3.414-3.414c.781-.781,.781-2.047,0-2.828h0c-.781-.781-2.047-.781-2.828,0l-3.414,3.414c-.75,.75-1.172,1.768-1.172,2.828v1.172h1.172c1.061,0,2.078-.421,2.828-1.172Z"/></svg>
