<?xml version="1.0" encoding="UTF-8"?>
<svg xmlns="http://www.w3.org/2000/svg" id="Layer_1" data-name="Layer 1" viewBox="0 0 24 24" width="512" height="512"><path d="m16.061,10.061l-1.939,1.939,1.939,1.939c.586.586.586,1.535,0,2.121-.293.293-.677.439-1.061.439s-.768-.146-1.061-.439l-1.939-1.939-1.939,1.939c-.293.293-.677.439-1.061.439s-.768-.146-1.061-.439c-.586-.586-.586-1.535,0-2.121l1.939-1.939-1.939-1.939c-.586-.586-.586-1.535,0-2.121s1.535-.586,2.121,0l1.939,1.939,1.939-1.939c.586-.586,1.535-.586,2.121,0s.586,1.535,0,2.121Zm7.939,1.939c0,6.617-5.383,12-12,12S0,18.617,0,12,5.383,0,12,0s12,5.383,12,12Zm-3,0c0-4.963-4.037-9-9-9S3,7.037,3,12s4.038,9,9,9,9-4.037,9-9Z"/></svg>
