<?xml version="1.0" encoding="UTF-8"?>
<svg xmlns="http://www.w3.org/2000/svg" id="Layer_1" data-name="Layer 1" viewBox="0 0 24 24" width="512" height="512"><path d="M11,9.5c0,.68-.45,1.25-1.06,1.44-.19,.62-.76,1.06-1.44,1.06-.83,0-1.5-.67-1.5-1.5v-1c0-.83,.67-1.5,1.5-1.5h1c.83,0,1.5,.67,1.5,1.5Zm-1.06,5.56c-.19-.62-.76-1.06-1.44-1.06-.83,0-1.5,.67-1.5,1.5v1c0,.83,.67,1.5,1.5,1.5h1c.83,0,1.5-.67,1.5-1.5,0-.68-.45-1.25-1.06-1.44Zm5.56-3.06c.83,0,1.5-.67,1.5-1.5v-1c0-.83-.67-1.5-1.5-1.5h-1c-.83,0-1.5,.67-1.5,1.5,0,.68,.45,1.25,1.06,1.44,.19,.62,.76,1.06,1.44,1.06ZM20.5,0h-3.84c-1.45,0-2.74,.82-3.27,2.08-.24,.56-.78,.92-1.38,.92s-1.15-.36-1.38-.92c-.54-1.27-1.82-2.08-3.27-2.08H3.5C1.57,0,0,1.57,0,3.5v1.88c0,1.26,.7,2.4,1.83,2.96,.11,.05,.17,.16,.17,.28v9.88c0,3.03,2.47,5.5,5.5,5.5h3c.83,0,1.5-.67,1.5-1.5s-.67-1.5-1.5-1.5h-3c-1.38,0-2.5-1.12-2.5-2.5V8.62c0-1.26-.7-2.4-1.83-2.96-.11-.05-.17-.16-.17-.28v-1.88c0-.28,.22-.5,.5-.5h3.84c.23,0,.45,.11,.51,.25,.71,1.67,2.33,2.75,4.15,2.75s3.44-1.08,4.14-2.75c.06-.14,.28-.25,.51-.25h3.84c.28,0,.5,.22,.5,.5v1.88c0,.12-.07,.22-.17,.28-1.13,.56-1.83,1.7-1.83,2.96v2.88c0,.83,.67,1.5,1.5,1.5s1.5-.67,1.5-1.5v-2.88c0-.12,.07-.22,.17-.28,1.13-.56,1.83-1.7,1.83-2.96v-1.88c0-1.93-1.57-3.5-3.5-3.5Zm1.86,16.07s-7.7-2.95-7.71-2.96c-.73-.25-1.52-.06-2.06,.48-.54,.54-.73,1.33-.46,2.1l2.94,7.67c.14,.37,.49,.62,.88,.64,.02,0,.03,0,.05,0,.38,0,.72-.21,.89-.55l1.85-3.7,3.7-1.85c.35-.18,.57-.55,.55-.94-.02-.4-.27-.74-.64-.88Z"/></svg>
