<?xml version="1.0" encoding="UTF-8"?>
<svg xmlns="http://www.w3.org/2000/svg" id="Layer_1" data-name="Layer 1" viewBox="0 0 24 24" width="512" height="512"><path d="M12,0C5.38,0,0,5.38,0,12s5.38,12,12,12,12-5.38,12-12S18.62,0,12,0Zm9,12c0,1.94-.62,3.73-1.67,5.21l-3.34-3.34c0-.25-.04-.54-.09-.87h1.1c.55,0,1-.45,1-1s-.45-1-1-1h-1.5c-.09-.37-.17-.72-.25-1.03,1.54-.13,2.75-1.41,2.75-2.97,0-.55-.45-1-1-1s-1,.45-1,1-.45,1-1,1h-.32c-.52-1.33-1.33-2-2.68-2-1.15,0-1.9,.49-2.42,1.45l-2.78-2.78c1.47-1.05,3.27-1.67,5.21-1.67,4.96,0,9,4.04,9,9Zm-18,0c0-1.94,.62-3.73,1.67-5.21l12.53,12.53c-1.47,1.05-3.27,1.67-5.21,1.67-4.96,0-9-4.04-9-9Zm9.96,5.87c-.31,.08-.63,.13-.96,.13-1.44,0-2.69-.77-3.39-1.92-.36,.15-.61,.51-.61,.92,0,.55-.45,1-1,1s-1-.45-1-1c0-1.3,.84-2.39,2-2.8v-.2c0-.27,.04-.61,.1-.99l4.86,4.86Zm-6.96-5.87c0-.29,.13-.55,.32-.73l1.73,1.73h-1.05c-.55,0-1-.45-1-1Z"/></svg>
