<?xml version="1.0" encoding="UTF-8"?>
<svg xmlns="http://www.w3.org/2000/svg" id="Layer_1" data-name="Layer 1" viewBox="0 0 24 24" width="512" height="512"><path d="M20.5,6h-5c-.828,0-1.5,.672-1.5,1.5s.672,1.5,1.5,1.5h3.379l-5.879,5.879-4.119-4.119c-1.037-1.037-2.725-1.037-3.762,0L.439,15.439c-.586,.586-.586,1.535,0,2.121s1.535,.586,2.121,0l4.439-4.439,4.119,4.119c.519,.519,1.199,.778,1.881,.778s1.362-.26,1.881-.778l6.119-6.119v3.379c0,.828,.672,1.5,1.5,1.5s1.5-.672,1.5-1.5v-5c0-1.93-1.57-3.5-3.5-3.5Z"/></svg>
