<?xml version="1.0" encoding="UTF-8"?>
<svg xmlns="http://www.w3.org/2000/svg" id="Layer_1" data-name="Layer 1" viewBox="0 0 24 24">
  <path d="m10,22.5c0,.828-.672,1.5-1.5,1.5h-1c-3.032,0-5.5-2.468-5.5-5.5V6h-.5c-.828,0-1.5-.672-1.5-1.5s.672-1.5,1.5-1.5h3.757c.619-1.746,2.287-3,4.243-3h3c1.956,0,3.624,1.254,4.243,3h3.757c.828,0,1.5.672,1.5,1.5s-.672,1.5-1.5,1.5h-.5v1.5c0,.828-.672,1.5-1.5,1.5s-1.5-.672-1.5-1.5v-1.5H5v12.5c0,1.379,1.121,2.5,2.5,2.5h1c.828,0,1.5.672,1.5,1.5Zm-1.5-14.5c-.828,0-1.5.672-1.5,1.5v4c0,.828.672,1.5,1.5,1.5s1.5-.672,1.5-1.5v-4c0-.828-.672-1.5-1.5-1.5Zm15.5,9.5c0,3.59-2.91,6.5-6.5,6.5s-6.5-2.91-6.5-6.5,2.91-6.5,6.5-6.5,6.5,2.91,6.5,6.5Zm-4.156.223l-.844-.844v-1.379c0-.828-.672-1.5-1.5-1.5s-1.5.672-1.5,1.5v1.793c0,.53.211,1.039.586,1.414l1.137,1.137c.586.586,1.535.586,2.121,0,.586-.586.586-1.535,0-2.121Z"/>
</svg>
