<?xml version="1.0" encoding="UTF-8"?>
<svg xmlns="http://www.w3.org/2000/svg" id="Layer_1" data-name="Layer 1" viewBox="0 0 24 24" width="512" height="512"><path d="m9.5,0H1.5C.671,0,0,.672,0,1.5c0,.653.417,1.208,1,1.414v16.586c0,2.481,2.019,4.5,4.5,4.5s4.5-2.019,4.5-4.5V2.914c.583-.206,1-.761,1-1.414,0-.828-.671-1.5-1.5-1.5Zm-2.5,8h-3V3h3v5Zm-1.5,13c-.827,0-1.5-.673-1.5-1.5v-8.5h3v8.5c0,.827-.673,1.5-1.5,1.5ZM24,1.5c0-.828-.671-1.5-1.5-1.5h-8c-.829,0-1.5.672-1.5,1.5,0,.653.417,1.208,1,1.414v16.586c0,2.481,2.019,4.5,4.5,4.5s4.5-2.019,4.5-4.5V2.914c.583-.206,1-.761,1-1.414Zm-4,6.5h-3V3h3v5Zm-1.5,13c-.827,0-1.5-.673-1.5-1.5v-8.5h3v8.5c0,.827-.673,1.5-1.5,1.5Z"/></svg>
