<?xml version="1.0" encoding="UTF-8"?>
<svg xmlns="http://www.w3.org/2000/svg" id="Layer_1" data-name="Layer 1" viewBox="0 0 24 24" width="512" height="512"><path d="M12.05,18.01c.57,.6,.54,1.55-.06,2.12l-3.04,2.87c-.66,.66-1.54,1-2.43,1s-1.8-.34-2.49-1.03l-3.01-2.84c-.6-.57-.63-1.52-.06-2.12,.57-.6,1.52-.63,2.12-.06l1.93,1.82V1.5c0-.83,.67-1.5,1.5-1.5s1.5,.67,1.5,1.5V19.77l1.93-1.82c.6-.57,1.55-.54,2.12,.06Zm7.95-4.01h-3c-1.65,0-3,1.35-3,3v3c0,1.65,1.35,3,3,3h3c1.65,0,3-1.35,3-3v-3c0-1.65-1.35-3-3-3Zm3.2-7.42l-2.69-4.39c-.4-.74-1.17-1.2-2.01-1.2s-1.61,.46-1.98,1.15l-2.74,4.48c-.39,.71-.37,1.56,.04,2.26,.42,.7,1.15,1.12,1.96,1.12h5.43c.81,0,1.55-.42,1.96-1.12,.42-.7,.43-1.54,.02-2.3Z"/></svg>
