<?xml version="1.0" encoding="UTF-8"?>
<svg xmlns="http://www.w3.org/2000/svg" id="Layer_1" data-name="Layer 1" viewBox="0 0 24 24" width="512" height="512"><path d="M20,24h-2.5c-.828,0-1.5-.671-1.5-1.5V14.5c0-.276-.225-.5-.5-.5h-7c-.275,0-.5,.224-.5,.5v8c0,.829-.672,1.5-1.5,1.5h-2.5c-2.206,0-4-1.794-4-4V9.886c0-1.831,.906-3.536,2.424-4.56L8.924,.941c1.869-1.262,4.283-1.262,6.152,0l6.5,4.386c1.518,1.023,2.424,2.728,2.424,4.559v10.114c0,2.206-1.794,4-4,4Zm-1-3h1c.552,0,1-.449,1-1V9.886c0-.833-.412-1.607-1.102-2.072L13.398,3.427c-.85-.573-1.947-.573-2.797,0L4.102,7.813c-.689,.466-1.102,1.24-1.102,2.073v10.114c0,.551,.448,1,1,1h1v-6.5c0-1.93,1.57-3.5,3.5-3.5h7c1.93,0,3.5,1.57,3.5,3.5v6.5Zm-5,2v-1c0-.552-.447-1-1-1h-2c-.553,0-1,.448-1,1v1c0,.552,.447,1,1,1h2c.553,0,1-.448,1-1Zm0-5v-1c0-.552-.447-1-1-1h-2c-.553,0-1,.448-1,1v1c0,.552,.447,1,1,1h2c.553,0,1-.448,1-1Z"/></svg>
