<?xml version="1.0" encoding="UTF-8"?>
<svg xmlns="http://www.w3.org/2000/svg" id="Layer_1" data-name="Layer 1" viewBox="0 0 24 24" width="512" height="512"><path d="m19.5,5h-4c-2.481,0-4.5,2.019-4.5,4.5v10c0,2.481,2.019,4.5,4.5,4.5h4c2.481,0,4.5-2.019,4.5-4.5v-10c0-2.481-2.019-4.5-4.5-4.5Zm1.5,14.5c0,.827-.673,1.5-1.5,1.5h-4c-.827,0-1.5-.673-1.5-1.5v-10c0-.827.673-1.5,1.5-1.5h4c.827,0,1.5.673,1.5,1.5v10Zm-1-2c0,1.381-1.119,2.5-2.5,2.5s-2.5-1.119-2.5-2.5,1.119-2.5,2.5-2.5,2.5,1.119,2.5,2.5Zm-4-6c0-.828.672-1.5,1.5-1.5s1.5.672,1.5,1.5-.672,1.5-1.5,1.5-1.5-.672-1.5-1.5Zm-7,3v5c0,.829-.672,1.5-1.5,1.5h-3c-.828,0-1.5-.671-1.5-1.5s.672-1.5,1.5-1.5h1.5v-2h-1.5c-2.481,0-4.5-2.019-4.5-4.5v-7C0,2.019,2.019,0,4.5,0h12c.828,0,1.5.671,1.5,1.5s-.672,1.5-1.5,1.5H4.5c-.827,0-1.5.673-1.5,1.5v7c0,.827.673,1.5,1.5,1.5h3c.828,0,1.5.671,1.5,1.5Z"/></svg>
