<?xml version="1.0" encoding="UTF-8"?>
<svg xmlns="http://www.w3.org/2000/svg" id="Layer_1" data-name="Layer 1" viewBox="0 0 24 24" width="512" height="512"><path d="m12.05,13c.232,1.141,1.24,2,2.45,2,1.381,0,2.5-1.119,2.5-2.5,0-1.209-.859-2.218-2-2.45v-5.101c1.141-.232,2-1.24,2-2.45,0-1.381-1.119-2.5-2.5-2.5-1.209,0-2.218.859-2.45,2h-7.101c-.232-1.141-1.24-2-2.45-2C1.119,0,0,1.119,0,2.5c0,1.209.859,2.218,2,2.45v5.101c-1.141.232-2,1.24-2,2.45,0,1.381,1.119,2.5,2.5,2.5,1.209,0,2.218-.859,2.45-2h7.101Zm-.05-3h-7v-5h7v5Zm12,11.5c0,1.381-1.119,2.5-2.5,2.5-1.209,0-2.218-.859-2.45-2h-7.101c-.232,1.141-1.24,2-2.45,2-1.381,0-2.5-1.119-2.5-2.5,0-1.209.859-2.218,2-2.45v-1.55c0-.828.671-1.5,1.5-1.5s1.5.672,1.5,1.5v1.5h7v-7.5c0-.104.01-.205.03-.302.151-1.237,1.192-2.198,2.47-2.198,1.381,0,2.5,1.119,2.5,2.5,0,1.209-.859,2.218-2,2.45v5.101c1.141.232,2,1.24,2,2.45Z"/></svg>
