<?xml version="1.0" encoding="UTF-8"?>
<svg xmlns="http://www.w3.org/2000/svg" id="Layer_1" data-name="Layer 1" viewBox="0 0 24 24" width="512" height="512"><path d="M22,5.644V2.5c0-.829-.672-1.5-1.5-1.5s-1.5,.671-1.5,1.5v1.089L15.076,.941c-1.869-1.262-4.283-1.262-6.152,0L2.424,5.327C.906,6.351,0,8.055,0,9.886v8.614c0,3.033,2.468,5.5,5.5,5.5h13c3.032,0,5.5-2.467,5.5-5.5V9.886c0-1.654-.739-3.204-2-4.242Zm-1,12.856c0,1.378-1.121,2.5-2.5,2.5h-3.42l1.853-5.372c.275-.797-.317-1.628-1.16-1.628h-2.87l1.369-4.497c.228-.748-.332-1.503-1.114-1.503-.392,0-.758,.197-.973,.525l-4.952,7.361c-.592,.91,.061,2.114,1.147,2.114h2.755l-1.152,3H5.5c-1.379,0-2.5-1.122-2.5-2.5V9.886c0-.833,.412-1.607,1.102-2.073L10.602,3.427c.425-.287,.912-.43,1.398-.43s.974,.143,1.398,.43l6.5,4.387c.689,.465,1.102,1.24,1.102,2.072v8.614Z"/></svg>
