<?xml version="1.0" encoding="UTF-8"?>
<svg xmlns="http://www.w3.org/2000/svg" id="Layer_1" data-name="Layer 1" viewBox="0 0 24 24" width="512" height="512"><path d="m7.5,7.5c0,1.394-.821,2.587-2,3.15v11.85c0,.828-.672,1.5-1.5,1.5s-1.5-.672-1.5-1.5v-11.85c-1.179-.563-2-1.756-2-3.15s.821-2.587,2-3.15V1.5c0-.828.672-1.5,1.5-1.5s1.5.672,1.5,1.5v2.85c1.179.563,2,1.756,2,3.15Zm6,5.85V1.5c0-.828-.672-1.5-1.5-1.5s-1.5.672-1.5,1.5v11.85c-1.179.563-2,1.756-2,3.15s.821,2.587,2,3.15v2.85c0,.828.672,1.5,1.5,1.5s1.5-.672,1.5-1.5v-2.85c1.179-.563,2-1.756,2-3.15s-.821-2.587-2-3.15Zm10-5.85c0-1.394-.821-2.587-2-3.15V1.5c0-.828-.672-1.5-1.5-1.5s-1.5.672-1.5,1.5v2.85c-1.179.563-2,1.756-2,3.15s.821,2.587,2,3.15v11.85c0,.828.672,1.5,1.5,1.5s1.5-.672,1.5-1.5v-11.85c1.179-.563,2-1.756,2-3.15Z"/></svg>
