<?xml version="1.0" encoding="UTF-8"?>
<svg xmlns="http://www.w3.org/2000/svg" id="Layer_1" data-name="Layer 1" viewBox="0 0 24 24" width="512" height="512"><path d="m14.62,7.286c-.426-1.085-1.455-1.786-2.62-1.786s-2.194.701-2.634,1.824l-2.776,7.666c-.282.779.121,1.639.899,1.921.776.283,1.639-.12,1.921-.899l.366-1.011h4.448l.366,1.011c.221.61.796.99,1.41.99.169,0,.342-.029.511-.09.779-.282,1.182-1.142.899-1.921l-2.79-7.703Zm-3.758,4.714l1.137-3.141,1.138,3.141h-2.275ZM12,0C5.383,0,0,5.383,0,12s5.383,12,12,12,12-5.383,12-12S18.617,0,12,0Zm0,21c-4.962,0-9-4.038-9-9S7.038,3,12,3s9,4.038,9,9-4.038,9-9,9Z"/></svg>
