<?xml version="1.0" encoding="UTF-8"?>
<svg xmlns="http://www.w3.org/2000/svg" id="Layer_1" data-name="Layer 1" viewBox="0 0 24 24" width="512" height="512"><path d="m12,5.5v13c0,.828-.671,1.5-1.5,1.5s-1.5-.672-1.5-1.5v-5.5H3v5.5c0,.828-.671,1.5-1.5,1.5s-1.5-.672-1.5-1.5V5.5c0-.828.671-1.5,1.5-1.5s1.5.672,1.5,1.5v4.5h6v-4.5c0-.828.671-1.5,1.5-1.5s1.5.672,1.5,1.5Zm10.5,11.5h-4.77c.367-.329.788-.682,1.222-1.045,2.247-1.881,5.043-4.222,5.043-7.158,0-2.645-2.241-4.797-4.996-4.797s-5,2.243-5,5c0,.828.671,1.5,1.5,1.5s1.5-.672,1.5-1.5c0-1.103.897-2,2-2,1.082,0,1.996.823,1.996,1.797,0,1.535-2.201,3.378-3.969,4.858-.935.782-1.818,1.522-2.429,2.243-.639.754-.779,1.776-.365,2.669.409.884,1.27,1.433,2.246,1.433h6.022c.829,0,1.5-.672,1.5-1.5s-.671-1.5-1.5-1.5Z"/></svg>
