<?xml version="1.0" encoding="UTF-8"?>
<svg xmlns="http://www.w3.org/2000/svg" id="Layer_1" data-name="Layer 1" viewBox="0 0 24 24" width="512" height="512"><path d="M10,21.5c0,.83-.67,1.5-1.5,1.5h-3c-3.03,0-5.5-2.47-5.5-5.5V6.5C0,3.47,2.47,1,5.5,1h2.53c.54,0,1.08,.13,1.56,.37l3.16,1.58c.07,.03,.15,.05,.22,.05h5.53c3.03,0,5.5,2.47,5.5,5.5v4c0,.83-.67,1.5-1.5,1.5s-1.5-.67-1.5-1.5v-4c0-.17-.02-.34-.05-.5H3v9.5c0,1.38,1.12,2.5,2.5,2.5h3c.83,0,1.5,.67,1.5,1.5Zm13.71-2.71l-3-3.16c-.63-.63-1.71-.18-1.71,.71v1.66h-5.5c-.83,0-1.5,.67-1.5,1.5s.67,1.5,1.5,1.5h5.5v1.66c0,.89,1.08,1.34,1.71,.71l3-3.16c.39-.39,.39-1.02,0-1.41Z"/></svg>
