<?xml version="1.0" encoding="UTF-8"?>
<svg xmlns="http://www.w3.org/2000/svg" id="Layer_1" data-name="Layer 1" viewBox="0 0 24 24" width="512" height="512"><path d="M10,13.5v-4c0-.83,.67-1.5,1.5-1.5s1.5,.67,1.5,1.5v4c0,.83-.67,1.5-1.5,1.5s-1.5-.67-1.5-1.5Zm5.5,1.5c.83,0,1.5-.67,1.5-1.5v-4c0-.83-.67-1.5-1.5-1.5s-1.5,.67-1.5,1.5v4c0,.83,.67,1.5,1.5,1.5ZM20.5,2c-.83,0-1.5,.67-1.5,1.5v14c0,1.93-1.57,3.5-3.5,3.5h-5.21c-1.4,0-2.74-.53-3.76-1.49l-1.92-1.8,2.77-2.9c.8-.8,.8-2.09,0-2.89s-2.09-.8-2.89,0l-2.46,2.57h0c-.65,.66-1,1.53-1,2.46s.36,1.81,1.06,2.51l2.39,2.25c1.58,1.48,3.65,2.3,5.82,2.3h5.21c3.58,0,6.5-2.92,6.5-6.5V3.5c0-.83-.67-1.5-1.5-1.5ZM8,10V1.58C8,.83,7.49,.14,6.75,.02c-.94-.15-1.75,.57-1.75,1.48V9.56c1.01-.25,2.08-.1,3,.44Z"/></svg>
