<?xml version="1.0" encoding="UTF-8"?>
<svg xmlns="http://www.w3.org/2000/svg" id="Layer_1" data-name="Layer 1" viewBox="0 0 24 24">
  <path d="m7.871,15.281c-.161-.378-.264-.751-.32-1.115-.094-.608.659-.977,1.094-.542l3.231,3.231c.435.435.066,1.187-.542,1.094-.364-.056-.736-.16-1.115-.32-1.048-.444-1.904-1.3-2.348-2.348Zm15.689,8.28c-.293.293-.677.439-1.061.439s-.768-.146-1.061-.439L.439,2.561C-.146,1.975-.146,1.025.439.439S1.975-.146,2.561.439l3.922,3.922,1.393-1.539c.472-.521,1.147-.822,1.854-.822h4.541c.706,0,1.382.301,1.854.824l2.008,2.219c2.765.34,4.867,2.658,4.867,5.457v7c0,.946-.243,1.867-.698,2.681l1.258,1.258c.586.586.586,1.535,0,2.121ZM8.607,6.486l2.588,2.588c.261-.048.53-.074.805-.074,2.485,0,4.5,2.015,4.5,4.5,0,.275-.026.544-.074.805l3.548,3.548c.017-.116.025-.235.025-.354v-7c0-1.379-1.121-2.5-2.5-2.5-.424,0-.899-.18-1.184-.493l-2.269-2.507h-4.096l-1.345,1.486Zm5.893,13.514H6.5c-1.379,0-2.5-1.121-2.5-2.5v-7c0-.828-.672-1.5-1.5-1.5s-1.5.672-1.5,1.5v7c0,3.032,2.468,5.5,5.5,5.5h8c.828,0,1.5-.672,1.5-1.5s-.672-1.5-1.5-1.5Z"/>
</svg>
