<?xml version="1.0" encoding="UTF-8"?>
<svg xmlns="http://www.w3.org/2000/svg" id="Layer_1" data-name="Layer 1" viewBox="0 0 24 24" width="512" height="512"><path d="m23.286,14.463l-5.197-9.984c-1.471-2.826-4.731-4.149-7.721-3.199-1.082-.804-2.42-1.28-3.868-1.28C2.916,0,0,2.916,0,6.5v11c0,3.584,2.916,6.5,6.5,6.5,2.279,0,4.287-1.179,5.448-2.959.819,1.276,2.046,2.217,3.509,2.678.645.203,1.304.304,1.961.304,1.032,0,2.159-.303,3.103-.794,3.179-1.655,4.42-5.587,2.765-8.767Zm-13.286,3.037c0,1.93-1.57,3.5-3.5,3.5s-3.5-1.57-3.5-3.5v-4h7v4Zm0-7H3v-4c0-1.93,1.57-3.5,3.5-3.5s3.5,1.57,3.5,3.5v4Zm2.492-6.519c1.209.057,2.342.742,2.936,1.883l1.869,3.591-4.298,2.357v-5.312c0-.893-.181-1.744-.508-2.519Zm8.367,14.536c-.281.892-.893,1.62-1.727,2.054-.829.432-1.879.568-2.772.288-.892-.281-1.62-.893-2.052-1.722l-1.308-2.512v-1.39l5.683-3.117,1.942,3.731c.432.83.515,1.777.233,2.669Z"/></svg>
