<?xml version="1.0" encoding="UTF-8"?>
<svg xmlns="http://www.w3.org/2000/svg" id="Layer_1" data-name="Layer 1" viewBox="0 0 24 24" width="512" height="512"><path d="m17.5,24H5.287c-1.317,0-2.468-.748-3.002-1.952-.534-1.204-.316-2.558.567-3.534.041-.045,7.38-6.39,7.38-6.39L2.556,5.735c-.168-.14-.304-.315-.396-.513-.532-1.129-.43-2.514.268-3.613.648-1.022,1.69-1.608,2.86-1.608h12.213c2.481,0,4.5,2.019,4.5,4.5v.5c0,.829-.672,1.5-1.5,1.5s-1.5-.671-1.5-1.5v-.5c0-.827-.673-1.5-1.5-1.5H5.287c-.052,0-.19,0-.326.215-.095.148-.143.338-.138.504l8.688,7.23c.338.282.536.698.54,1.139.004.44-.186.861-.52,1.149l-8.492,7.336c-.033.052-.065.139-.013.258.075.168.214.168.26.168h12.213c.827,0,1.5-.673,1.5-1.5v-.5c0-.829.672-1.5,1.5-1.5s1.5.671,1.5,1.5v.5c0,2.481-2.019,4.5-4.5,4.5Z"/></svg>
