<?xml version="1.0" encoding="UTF-8"?>
<svg xmlns="http://www.w3.org/2000/svg" id="Layer_1" data-name="Layer 1" viewBox="0 0 24 24" width="512" height="512"><path d="M4.5,11C2.02,11,0,8.98,0,6.5v-2C0,2.02,2.02,0,4.5,0s4.5,2.02,4.5,4.5v2c0,2.48-2.02,4.5-4.5,4.5Zm0-8c-.83,0-1.5,.67-1.5,1.5v2c0,.83,.67,1.5,1.5,1.5s1.5-.67,1.5-1.5v-2c0-.83-.67-1.5-1.5-1.5Zm5.12,20.07c.55-.62,.5-1.57-.12-2.12-.32-.29-.5-.69-.5-1.12v-2.5c0-.63,.4-1.2,1-1.41,.78-.28,1.19-1.13,.91-1.91-.28-.78-1.13-1.19-1.91-.92-1.79,.63-3,2.34-3,4.24v2.5c0,1.28,.55,2.5,1.5,3.35,.29,.26,.64,.38,1,.38,.41,0,.82-.17,1.12-.5Zm5.38-14.57V1.5c0-.61-.37-1.15-.93-1.39-.56-.23-1.21-.1-1.63,.33l-2,2c-.59,.59-.59,1.54,0,2.12,.42,.42,1.03,.54,1.56,.35v3.59c0,.83,.67,1.5,1.5,1.5s1.5-.67,1.5-1.5ZM5,22.5V14.5c0-.61-.37-1.15-.93-1.39-.56-.23-1.21-.1-1.63,.33L.44,15.44c-.59,.59-.59,1.54,0,2.12,.42,.42,1.03,.54,1.56,.35v4.59c0,.83,.67,1.5,1.5,1.5s1.5-.67,1.5-1.5Zm12.5-11.5c-3.59,0-6.5,2.91-6.5,6.5s2.91,6.5,6.5,6.5,6.5-2.91,6.5-6.5-2.91-6.5-6.5-6.5Zm1,9.3c-.45,.45-1.05,.7-1.69,.7h-.04c-.65-.01-1.26-.28-1.7-.75l-1.38-1.49c-.56-.6-.53-1.54,.06-2.1h0c.6-.58,1.56-.55,2.13,.06l.94,1.02,2.46-2.51c.59-.59,1.54-.59,2.12,0h0c.59,.59,.59,1.54,0,2.12l-2.9,2.95Z"/></svg>
