<?xml version="1.0" encoding="UTF-8"?>
<svg xmlns="http://www.w3.org/2000/svg" id="Layer_1" data-name="Layer 1" viewBox="0 0 24 24" width="512" height="512"><path d="m12.159,8h1.607l.45-1.718c.031-.118.137-.2.259-.2s.228.082.259.2l.449,1.718h1.596c.137,0,.248.111.248.248h0c0,.089-.047.17-.124.215l-1.283.742.504,1.531c.036.111-.004.232-.099.299-.095.066-.221.063-.312-.008l-1.237-.956-1.238.957c-.093.072-.223.073-.317.002-.089-.067-.126-.182-.092-.288l.499-1.56-1.289-.717c-.079-.044-.127-.126-.127-.216,0-.137.111-.248.248-.248Zm10.841-2.5v14c0,2.481-2.019,4.5-4.5,4.5H6.5c-3.033,0-5.5-2.467-5.5-5.5V5.5C1,2.467,3.467,0,6.5,0h11c3.033,0,5.5,2.467,5.5,5.5Zm-19,0v9.5h14.5c.526,0,1.031.091,1.5.257V5.5c0-1.378-1.122-2.5-2.5-2.5H6.5c-1.378,0-2.5,1.122-2.5,2.5Zm16,14c0-.827-.673-1.5-1.5-1.5H4v.5c0,1.378,1.122,2.5,2.5,2.5h12c.827,0,1.5-.673,1.5-1.5Zm-10.569-6.835c.805.346,1.369.4,2.069.269.215-.04.219-.285.06-.435-1.06-.999-1.56-1.983-1.56-3.499s.5-2.5,1.875-3.499c.177-.129.155-.395-.06-.435-.7-.132-1.578-.078-2.384.269-1.224.526-2.424,1.665-2.424,3.665s1.2,3.139,2.424,3.665Z"/></svg>
