<?xml version="1.0" encoding="UTF-8"?>
<svg xmlns="http://www.w3.org/2000/svg" id="Layer_1" data-name="Layer 1" viewBox="0 0 24 24" width="512" height="512"><path d="m18.5,0H5.5C2.468,0,0,2.467,0,5.5v9c0,3.033,2.468,5.5,5.5,5.5h1.24l3.6,3.031c.479.425,1.079.635,1.674.635.582,0,1.158-.202,1.606-.6l3.708-3.066h1.172c3.032,0,5.5-2.467,5.5-5.5V5.5c0-3.033-2.468-5.5-5.5-5.5Zm2.5,14.5c0,1.378-1.121,2.5-2.5,2.5h-1.712c-.349,0-.687.122-.956.344l-3.828,3.167-3.749-3.158c-.271-.228-.613-.353-.967-.353h-1.788c-1.379,0-2.5-1.122-2.5-2.5V5.5c0-1.378,1.121-2.5,2.5-2.5h13c1.379,0,2.5,1.122,2.5,2.5v9Zm-4.488-8.651c.761.93.598,2.317-.252,3.167l-4.728,4.728c-.813.813-1.915,1.269-3.064,1.269h-.955c-.276,0-.5-.224-.5-.5v-.955c0-1.149.457-2.252,1.269-3.064l4.82-4.82c.953-.953,2.534-.894,3.409.176Z"/></svg>
