<?xml version="1.0" encoding="UTF-8"?>
<svg xmlns="http://www.w3.org/2000/svg" id="Layer_1" data-name="Layer 1" viewBox="0 0 24 24">
  <path d="m14.688,13.26c-.666-.801-1.646-1.26-2.688-1.26h0c-1.042,0-2.022.459-2.697,1.27l-5.963,7.28c-.367.448-.443,1.068-.195,1.592.248.524.776.858,1.355.858h15c.58,0,1.107-.334,1.355-.858.248-.523.172-1.144-.195-1.592l-5.972-7.29Zm-7.021,6.74l3.948-4.82c.131-.156.297-.18.384-.18s.253.023.376.17l3.956,4.83H7.667ZM24,6.5v7c0,1.248-.429,2.469-1.208,3.439-.52.645-1.463.747-2.109.23-.646-.52-.749-1.463-.23-2.109.358-.445.548-.985.548-1.561v-7c0-1.379-1.121-2.5-2.5-2.5H5.5c-1.378,0-2.5,1.121-2.5,2.5v7c0,.575.189,1.115.548,1.562.518.646.414,1.591-.232,2.108-.277.223-.608.33-.938.33-.439,0-.875-.192-1.171-.562-.778-.971-1.207-2.192-1.207-3.438v-7C0,3.468,2.467,1,5.5,1h13c3.032,0,5.5,2.468,5.5,5.5Z"/>
</svg>
