<?xml version="1.0" encoding="UTF-8"?>
<svg xmlns="http://www.w3.org/2000/svg" id="Layer_1" data-name="Layer 1" viewBox="0 0 24 24" width="512" height="512"><path d="m13.5,11.659v10.841c0,.829-.671,1.5-1.5,1.5s-1.5-.671-1.5-1.5v-10.841c-.893-.52-1.5-1.476-1.5-2.584,0-1.657,1.343-3,3-3s3,1.343,3,3c0,1.108-.607,2.064-1.5,2.584Zm-6-2.584c0-1.202.468-2.332,1.318-3.182.586-.585.586-1.536,0-2.121-.586-.586-1.535-.586-2.121,0-1.417,1.417-2.197,3.3-2.197,5.303s.78,3.887,2.197,5.303c.293.293.677.439,1.061.439s.768-.146,1.061-.439c.586-.586.586-1.536,0-2.121-.85-.85-1.318-1.98-1.318-3.182Zm9.803-5.303c-.586-.586-1.535-.586-2.121,0-.586.585-.586,1.536,0,2.121.85.85,1.318,1.98,1.318,3.182s-.468,2.332-1.318,3.182c-.586.585-.586,1.535,0,2.121.292.293.677.439,1.061.439s.768-.146,1.061-.439c1.417-1.416,2.197-3.3,2.197-5.303s-.78-3.887-2.197-5.303Zm-11.667-1.061c.586-.586.586-1.536,0-2.121C5.05.004,4.1.004,3.515.59-1.164,5.269-1.164,12.882,3.515,17.561c.293.293.677.439,1.061.439s.768-.146,1.061-.439c.586-.585.586-1.535,0-2.121-3.508-3.509-3.508-9.219,0-12.728ZM20.485.59C19.899.004,18.95.004,18.364.59c-.586.585-.586,1.535,0,2.121,3.508,3.509,3.508,9.219,0,12.728-.586.586-.586,1.536,0,2.121.293.293.677.439,1.061.439s.768-.146,1.061-.439c4.678-4.679,4.678-12.292,0-16.97Z"/></svg>
