<?xml version="1.0" encoding="UTF-8"?>
<svg xmlns="http://www.w3.org/2000/svg" id="Layer_1" data-name="Layer 1" viewBox="0 0 24 24" width="512" height="512"><path d="m22.5,20h-6.894l6.782-6.782c1.039-1.039,1.611-2.42,1.611-3.89s-.572-2.85-1.611-3.889l-2.828-2.829c-2.144-2.143-5.634-2.143-7.783.005L1.611,12.868c-2.145,2.145-2.145,5.634,0,7.778l.742.743c1.039,1.039,2.42,1.611,3.889,1.611h16.258c.828,0,1.5-.671,1.5-1.5s-.672-1.5-1.5-1.5ZM13.903,4.732c.487-.488,1.128-.731,1.769-.731s1.28.244,1.768.731l2.828,2.829c.473.472.732,1.1.732,1.767s-.26,1.296-.732,1.768l-4.275,4.275-6.346-6.346,4.257-4.293Zm-7.661,15.268c-.658,0-1.302-.267-1.768-.732l-.742-.743c-.975-.975-.975-2.561.005-3.541l3.797-3.829,6.337,6.337-2.507,2.507h-5.122Z"/></svg>
