<?xml version="1.0" encoding="UTF-8"?>
<svg xmlns="http://www.w3.org/2000/svg" id="Layer_1" data-name="Layer 1" viewBox="0 0 24 24" width="512" height="512"><path d="M24,1.5V3.5c0,1.393-.819,2.599-2,3.162v13.838c0,1.93-1.57,3.5-3.5,3.5h-1c-.829,0-1.5-.672-1.5-1.5s.671-1.5,1.5-1.5h1c.276,0,.5-.225,.5-.5V7h-3v1.5c0,.828-.671,1.5-1.5,1.5s-1.5-.672-1.5-1.5v-1.838c-1.181-.563-2-1.769-2-3.162V1.5c0-.828,.671-1.5,1.5-1.5s1.5,.672,1.5,1.5v.5h2v-.5c0-.828,.671-1.5,1.5-1.5s1.5,.672,1.5,1.5v.5h2v-.5c0-.828,.671-1.5,1.5-1.5s1.5,.672,1.5,1.5ZM15,15.94v3.56c0,2.481-2.019,4.5-4.5,4.5H4.5c-2.481,0-4.5-2.019-4.5-4.5v-3.56c0-1.525,.689-2.939,1.89-3.881l2.573-2.013c1.788-1.398,4.286-1.399,6.075,0l2.571,2.011c1.202,.942,1.891,2.356,1.891,3.882Zm-3,0c0-.597-.27-1.15-.741-1.52l-2.571-2.011c-.35-.274-.77-.411-1.188-.411s-.838,.137-1.188,.41l-2.572,2.013c-.47,.368-.74,.922-.74,1.519v3.56c0,.827,.673,1.5,1.5,1.5h6c.827,0,1.5-.673,1.5-1.5v-3.56Zm-4,.06h-1c-.552,0-1,.448-1,1v1c0,.552,.448,1,1,1h1c.552,0,1-.448,1-1v-1c0-.552-.448-1-1-1Z"/></svg>
