<?xml version="1.0" encoding="UTF-8"?>
<svg xmlns="http://www.w3.org/2000/svg" id="Layer_1" data-name="Layer 1" viewBox="0 0 24 24" width="512" height="512"><path d="M21.83,5.172c-.735-.74-1.731-1.147-2.805-1.147-.721,0-1.438,.203-2.067,.56-.215-2.56-2.343-4.584-4.958-4.584S7.256,2.026,7.042,4.587c-.639-.356-1.359-.559-2.077-.559-1.07,0-2.062,.406-2.792,1.143-.837,.84-1.259,1.995-1.158,3.164,.098,1.172,.702,2.236,1.66,2.921,.014,.009,3.479,1.934,3.479,1.934l-.981,.981c-1.08,1.079-1.449,2.649-.966,4.096l.999,2.997c.544,1.632,2.075,2.729,3.81,2.729,.651,0,1.3-.161,1.886-.473,.426-.231,.795-.539,1.099-.9,.303,.36,.671,.667,1.096,.897,.578,.312,1.231,.476,1.887,.476,1.734,0,3.266-1.094,3.812-2.725l1.002-3.005c.48-1.446,.109-3.015-.968-4.092l-.982-.982s3.5-1.946,3.518-1.959c.92-.662,1.526-1.745,1.623-2.896,.099-1.169-.323-2.32-1.156-3.161ZM12,3c1.103,0,2,.897,2,2s-.897,2-2,2-2-.897-2-2,.897-2,2-2Zm-2.52,17.877c-.529,.28-1.245-.008-1.43-.562l-.999-2.998c-.123-.367-.033-.75,.241-1.024l1.097-1.097,1.885,.943-.476,.476c-.401,.401-.542,.996-.362,1.534l.47,1.41c.172,.517-.021,1.099-.427,1.319Zm7.469-3.562l-1,3.001c-.186,.551-.911,.839-1.43,.561-.404-.22-.596-.812-.427-1.319l.47-1.409c.18-.539,.04-1.134-.362-1.535l-.476-.476,1.885-.943,1.097,1.097c.273,.273,.364,.657,.242,1.023Zm2.691-8.543l-4.865,2.684c-.479,.264-.775,.768-.775,1.313v.194c0,.012,.003,.024,.004,.036h-4.007c0-.012,.004-.024,.004-.036v-.194c0-.547-.298-1.05-.776-1.313l-4.833-2.662c-.223-.171-.362-.427-.387-.712-.025-.292,.082-.581,.297-.797,.32-.322,.941-.333,1.392-.021,.041,.028,3.609,2.009,3.609,2.009,.679,.476,1.474,.728,2.302,.728h.793c.812,0,1.613-.248,2.262-.7,0,0,3.646-2.031,3.687-2.061,.422-.295,1.038-.272,1.356,.047,.212,.214,.32,.504,.295,.796-.022,.274-.16,.537-.355,.69Z"/></svg>
