<?xml version="1.0" encoding="UTF-8"?>
<svg xmlns="http://www.w3.org/2000/svg" id="Layer_1" data-name="Layer 1" viewBox="0 0 24 24" width="512" height="512"><path d="M15.5,13h-4.5v-4.5c0-1.93-1.57-3.5-3.5-3.5h-3C2.019,5,0,7.019,0,9.5v10c0,2.481,2.019,4.5,4.5,4.5H14.5c2.481,0,4.5-2.019,4.5-4.5v-3c0-1.93-1.57-3.5-3.5-3.5ZM3,9.5c0-.827,.673-1.5,1.5-1.5h3c.276,0,.5,.225,.5,.5v4.5h-1.285c.178-.587,.285-1.172,.285-1.5,0-.828-.672-1.5-1.5-1.5s-1.5,.672-1.5,1.5c0,.328,.106,.913,.285,1.5h-1.285v-3.5Zm5,11.5h-3.5c-.827,0-1.5-.673-1.5-1.5v-3.5h5v1.285c-.587-.178-1.172-.285-1.5-.285-.828,0-1.5,.672-1.5,1.5s.672,1.5,1.5,1.5c.328,0,.913-.106,1.5-.285v1.285Zm8-1.5c0,.827-.673,1.5-1.5,1.5h-3.5v-5h1.285c-.178,.587-.285,1.172-.285,1.5,0,.828,.672,1.5,1.5,1.5s1.5-.672,1.5-1.5c0-.328-.106-.913-.285-1.5h.785c.276,0,.5,.225,.5,.5v3ZM24,4v3.5c0,.828-.672,1.5-1.5,1.5h-1.785c.178,.587,.285,1.172,.285,1.5,0,.828-.672,1.5-1.5,1.5s-1.5-.672-1.5-1.5c0-.328,.106-.913,.285-1.5h-1.785c-.828,0-1.5-.672-1.5-1.5v-1.785c.587,.178,1.172,.285,1.5,.285,.828,0,1.5-.672,1.5-1.5s-.672-1.5-1.5-1.5c-.328,0-.913,.106-1.5,.285V1.5c0-.828,.672-1.5,1.5-1.5h3.5c2.209,0,4,1.791,4,4Z"/></svg>
