<?xml version="1.0" encoding="UTF-8"?>
<svg xmlns="http://www.w3.org/2000/svg" id="Layer_1" data-name="Layer 1" viewBox="0 0 24 24">
  <path d="m4.5,11c1.565,0,2.944-.805,3.75-2.022.806,1.216,2.185,2.022,3.75,2.022s2.944-.805,3.75-2.022c.806,1.216,2.185,2.022,3.75,2.022,2.481,0,4.5-2.019,4.5-4.5s-2.019-4.5-4.5-4.5c-1.565,0-2.944.805-3.75,2.022-.806-1.216-2.185-2.022-3.75-2.022s-2.944.805-3.75,2.022c-.806-1.216-2.185-2.022-3.75-2.022C2.019,2,0,4.019,0,6.5s2.019,4.5,4.5,4.5Zm15-6c.827,0,1.5.673,1.5,1.5s-.673,1.5-1.5,1.5-1.5-.673-1.5-1.5.673-1.5,1.5-1.5Zm-7.5,0c.827,0,1.5.673,1.5,1.5s-.673,1.5-1.5,1.5-1.5-.673-1.5-1.5.673-1.5,1.5-1.5Zm-7.5,0c.827,0,1.5.673,1.5,1.5s-.673,1.5-1.5,1.5-1.5-.673-1.5-1.5.673-1.5,1.5-1.5Z"/>
  <path d="m19.5,13c-1.565,0-2.944.805-3.75,2.022-.806-1.216-2.185-2.022-3.75-2.022s-2.944.805-3.75,2.022c-.806-1.216-2.185-2.022-3.75-2.022-2.481,0-4.5,2.019-4.5,4.5s2.019,4.5,4.5,4.5c1.565,0,2.944-.805,3.75-2.022.806,1.216,2.185,2.022,3.75,2.022s2.944-.805,3.75-2.022c.806,1.216,2.185,2.022,3.75,2.022,2.481,0,4.5-2.019,4.5-4.5s-2.019-4.5-4.5-4.5Zm-15,6c-.827,0-1.5-.673-1.5-1.5s.673-1.5,1.5-1.5,1.5.673,1.5,1.5-.673,1.5-1.5,1.5Zm7.5,0c-.827,0-1.5-.673-1.5-1.5s.673-1.5,1.5-1.5,1.5.673,1.5,1.5-.673,1.5-1.5,1.5Zm7.5,0c-.827,0-1.5-.673-1.5-1.5s.673-1.5,1.5-1.5,1.5.673,1.5,1.5-.673,1.5-1.5,1.5Z"/>
</svg>
