<?xml version="1.0" encoding="UTF-8"?>
<svg xmlns="http://www.w3.org/2000/svg" id="Layer_1" data-name="Layer 1" viewBox="0 0 24 24" width="512" height="512"><path d="m17.25,10.5c0-2.481-2.019-4.5-4.5-4.5h-2c-1.93,0-3.5,1.57-3.5,3.5v7c0,.828.672,1.5,1.5,1.5s1.5-.672,1.5-1.5v-1.5h2.323l1.085,2.171c.263.525.793.829,1.343.829.226,0,.454-.051.67-.158.741-.371,1.041-1.271.671-2.013l-.881-1.761c1.08-.823,1.789-2.109,1.789-3.568Zm-7-1c0-.275.225-.5.5-.5h2c.827,0,1.5.673,1.5,1.5s-.673,1.5-1.5,1.5h-2.5v-2.5ZM12,0C5.383,0,0,5.383,0,12s5.383,12,12,12,12-5.383,12-12S18.617,0,12,0Zm0,21c-4.963,0-9-4.037-9-9S7.037,3,12,3s9,4.037,9,9-4.037,9-9,9Z"/></svg>
