<?xml version="1.0" encoding="UTF-8"?>
<svg xmlns="http://www.w3.org/2000/svg" id="Layer_1" data-name="Layer 1" viewBox="0 0 24 24" width="512" height="512"><path d="m9.5,2.5c0-1.381,1.119-2.5,2.5-2.5s2.5,1.119,2.5,2.5-1.119,2.5-2.5,2.5-2.5-1.119-2.5-2.5Zm13.743.03l-1.418-.354-.354-1.418c-.111-.445-.511-.757-.97-.757s-.859.312-.97.757l-.351,1.406-1.404.325c-.447.103-.767.498-.775.956-.008.459.297.865.74.984l1.432.385.357,1.43c.111.445.511.757.97.757s.859-.312.97-.757l.354-1.418,1.418-.354c.445-.111.757-.511.757-.97s-.313-.859-.757-.97ZM3.697,8.528l.523-1.308,1.308-.523c.285-.114.472-.39.472-.697s-.187-.583-.472-.697l-1.308-.523-.523-1.308c-.114-.285-.39-.472-.697-.472s-.583.187-.697.472l-.52,1.301-1.299.492c-.287.108-.479.381-.484.687-.005.307.176.586.459.705l1.318.556.526,1.316c.114.285.39.472.697.472s.583-.187.697-.472Zm17.075,5.175c.439.702.227,1.628-.475,2.068-.248.154-.523.229-.796.229-.499,0-.987-.249-1.272-.703l-2.229-3.556v9.259h2.5c.828,0,1.5.672,1.5,1.5s-.672,1.5-1.5,1.5H5.5c-.828,0-1.5-.672-1.5-1.5s.672-1.5,1.5-1.5h2.5v-9.262l-2.229,3.559c-.441.702-1.365.912-2.068.475-.701-.44-.914-1.366-.475-2.068l3.307-5.276c1.064-1.541,2.755-2.427,4.561-2.427h1.809c1.806,0,3.496.886,4.522,2.37l3.345,5.333Zm-9.771-4.701v4.998h2v-4.998c-.032-.001-1.968-.001-2,0Zm2,11.998v-4h-2v4h2Z"/></svg>
