<?xml version="1.0" encoding="UTF-8"?>
<svg xmlns="http://www.w3.org/2000/svg" id="Layer_1" data-name="Layer 1" viewBox="0 0 24 24" width="512" height="512"><path d="M12,24c-1.506,0-2.928-.583-4.003-1.64l-3.734-3.466C-.066,14.548-.066,7.543,4.219,3.238,6.296,1.15,9.06,0,12,0s5.703,1.15,7.78,3.238c4.285,4.305,4.285,11.31,0,15.615l-3.808,3.537c-1.046,1.028-2.468,1.61-3.973,1.61Zm0-21c-2.136,0-4.144,.836-5.654,2.354-3.124,3.138-3.124,8.245,0,11.383l3.723,3.455c1.085,1.063,2.81,1.035,3.833,.029l3.796-3.524c3.081-3.097,3.081-8.204-.042-11.342-1.511-1.518-3.519-2.354-5.654-2.354Zm1.5,10.5v-.748c0-.596,.245-1.122,.64-1.372,1.475-.935,2.168-2.712,1.727-4.422-.353-1.363-1.461-2.472-2.825-2.825-1.229-.317-2.501-.062-3.489,.703-.986,.764-1.552,1.917-1.552,3.164,0,.829,.671,1.5,1.5,1.5s1.5-.671,1.5-1.5c0-.312,.142-.6,.389-.792,.146-.113,.455-.286,.901-.17,.314,.082,.59,.357,.671,.671,.142,.549-.128,.947-.428,1.137-1.273,.807-2.034,2.267-2.034,3.906v.748c0,.829,.671,1.5,1.5,1.5s1.5-.671,1.5-1.5Zm0,4h0c0-.828-.672-1.5-1.5-1.5h0c-.828,0-1.5,.672-1.5,1.5h0c0,.828,.672,1.5,1.5,1.5h0c.828,0,1.5-.672,1.5-1.5Z"/></svg>
