<?xml version="1.0" encoding="UTF-8"?>
<svg xmlns="http://www.w3.org/2000/svg" id="Layer_1" data-name="Layer 1" viewBox="0 0 24 24">
  <path d="m18.5,2H5.5C2.468,2,0,4.467,0,7.5v9c0,3.033,2.468,5.5,5.5,5.5h13c3.032,0,5.5-2.467,5.5-5.5V7.5c0-3.033-2.468-5.5-5.5-5.5Zm2.5,14.5c0,1.378-1.121,2.5-2.5,2.5H5.5c-1.379,0-2.5-1.122-2.5-2.5V7.5c0-1.378,1.121-2.5,2.5-2.5h13c1.379,0,2.5,1.122,2.5,2.5v9Zm-5.5-9.5h-.5c-1.103,0-2,.897-2,2v6c0,1.103.897,2,2,2h.5c1.93,0,3.5-1.57,3.5-3.5v-3c0-1.93-1.57-3.5-3.5-3.5Zm1.5,6.5c0,.827-.673,1.5-1.5,1.5h-.5s0-6,0-6h.5c.827,0,1.5.673,1.5,1.5v3Zm-9.977-3.75c0,.488.475.81,1.48,1.379,1.054.596,2.496,1.412,2.496,3.12,0,1.517-1.234,2.75-2.751,2.75h-.667c-1.056,0-2.031-.616-2.485-1.57-.237-.499-.025-1.096.474-1.333.5-.237,1.096-.025,1.333.473.124.261.391.43.679.43h.667c.414,0,.751-.337.751-.75,0-.488-.475-.81-1.48-1.379-1.054-.596-2.496-1.412-2.496-3.12,0-1.517,1.234-2.75,2.751-2.75h.644c1.056,0,2.031.616,2.485,1.57.237.499.025,1.096-.474,1.333-.501.237-1.095.024-1.333-.473-.124-.261-.391-.43-.679-.43h-.644c-.414,0-.751.337-.751.75Z"/>
</svg>
