<?xml version="1.0" encoding="UTF-8"?>
<svg xmlns="http://www.w3.org/2000/svg" id="Layer_1" data-name="Layer 1" viewBox="0 0 24 24" width="512" height="512"><path d="m16.501,5c-.816,0-1.54.141-2.205.428-.274-.172-.557-.312-.845-.419-.235-2.275-1.314-3.868-3.28-4.851-.739-.369-1.642-.07-2.013.671-.37.741-.07,1.642.671,2.013.952.476,1.444,1.13,1.607,2.212-.249.1-.494.225-.732.375-.666-.288-1.389-.428-2.205-.428C4.538,5,0,9.256,0,14.5s4.547,9.5,7.515,9.5c.64,0,1.312-.126,2.041-.37.525.169,1.375.37,2.444.37,1.08,0,1.936-.205,2.533-.369.697.245,1.354.369,1.952.369,2.968,0,7.515-4.256,7.515-9.5s-4.538-9.5-7.499-9.5Zm-.016,16c-.251,0-.591-.071-.957-.199-.342-.121-.694-.181-1.044-.181-.32,0-.639.05-.949.151-.321.104-.848.229-1.535.229-.68,0-1.205-.123-1.526-.226-.662-.213-1.352-.202-1.988.032-.244.088-.61.194-.971.194-1.091,0-4.515-2.697-4.515-6.5s3.412-6.5,4.499-6.5c.439,0,.772.065,1.082.212.858.407,1.878.329,2.657-.203.526-.357,1.001-.356,1.523,0,.781.534,1.8.611,2.66.203.308-.146.641-.211,1.08-.211,1.087,0,4.499,2.697,4.499,6.5s-3.424,6.5-4.515,6.5ZM6.584,12.858l1.21-2.42c.145-.291.425-.436.706-.436s.56.145.706.436l1.21,2.42c.262.525-.119,1.142-.706,1.142h-2.42c-.586,0-.968-.617-.706-1.142Zm7-.002l1.21-2.42c.145-.291.425-.436.706-.436s.56.145.706.436l1.21,2.42c.262.524-.119,1.142-.706,1.142h-2.42c-.586,0-.968-.617-.706-1.142Zm5.224,3.144c-.668.599-2.79,1.779-3.808,2.267v-.767c0-.552-.448-1-1-1s-1,.448-1,1v1.408c-.326.054-.658.092-1,.092-3.5,0-5.547-1.859-6.804-2.988-.443-.398-.074-1.117.51-.999.566.115,2.498.743,3.294.83v.657c0,.552.448,1,1,1s1-.448,1-1v-.519c.323.011.653.019,1,.019,2.169,0,5.123-.753,6.307-.994.573-.116.936.604.501.994Z"/></svg>
