<?xml version="1.0" encoding="UTF-8"?>
<svg xmlns="http://www.w3.org/2000/svg" id="Layer_1" data-name="Layer 1" viewBox="0 0 24 24" width="512" height="512"><path d="M18.5,24H5.5c-3.03,0-5.5-2.47-5.5-5.5v-3c0-3.03,2.47-5.5,5.5-5.5h13c3.03,0,5.5,2.47,5.5,5.5v3c0,3.03-2.47,5.5-5.5,5.5ZM5.5,13c-1.38,0-2.5,1.12-2.5,2.5v3c0,1.38,1.12,2.5,2.5,2.5h13c1.38,0,2.5-1.12,2.5-2.5v-3c0-1.38-1.12-2.5-2.5-2.5H5.5Zm18.12-4.51c.55-.62,.49-1.57-.13-2.12-1-.89-2.3-1.38-3.64-1.38H4.15c-1.34,0-2.63,.49-3.64,1.38-.62,.55-.68,1.5-.13,2.12,.55,.62,1.5,.68,2.12,.13,.46-.4,1.04-.62,1.65-.62h15.71c.61,0,1.2,.22,1.65,.62,.29,.25,.64,.38,.99,.38,.42,0,.83-.17,1.12-.51Zm0-5c.55-.62,.49-1.57-.13-2.12-1-.89-2.3-1.38-3.64-1.38H4.15C2.8,0,1.51,.49,.51,1.38-.11,1.92-.17,2.87,.38,3.49c.55,.62,1.5,.68,2.12,.13,.46-.4,1.04-.62,1.65-.62h15.71c.61,0,1.2,.22,1.65,.62,.29,.25,.64,.38,.99,.38,.42,0,.83-.17,1.12-.51ZM12,14c-3.87,0-7,1.34-7,3s3.13,3,7,3,7-1.34,7-3-3.13-3-7-3Zm0,4c-1.38,0-2.5-.45-2.5-1s1.12-1,2.5-1,2.5,.45,2.5,1-1.12,1-2.5,1Z"/></svg>
