<?xml version="1.0" encoding="UTF-8"?>
<svg xmlns="http://www.w3.org/2000/svg" id="Layer_1" data-name="Layer 1" viewBox="0 0 24 24" width="512" height="512"><path d="m18.5,0H5.5C2.468,0,0,2.468,0,5.5v9c0,3.032,2.468,5.5,5.5,5.5h1.24l3.599,3.03c.479.426,1.08.636,1.675.636.582,0,1.158-.202,1.606-.601l3.708-3.065h1.172c3.032,0,5.5-2.468,5.5-5.5V5.5c0-3.032-2.468-5.5-5.5-5.5Zm2.5,14.5c0,1.379-1.121,2.5-2.5,2.5h-1.712c-.349,0-.687.122-.956.344l-3.828,3.167-3.75-3.158c-.27-.228-.612-.353-.966-.353h-1.788c-1.379,0-2.5-1.121-2.5-2.5V5.5c0-1.379,1.121-2.5,2.5-2.5h13c1.379,0,2.5,1.121,2.5,2.5v9Zm-7.5,1c0,.828-.672,1.5-1.5,1.5s-1.5-.672-1.5-1.5.672-1.5,1.5-1.5,1.5.672,1.5,1.5Zm2.367-8.539c.487,1.894-.433,3.857-2.188,4.67-.114.053-.207.168-.226.243-.175.677-.784,1.126-1.452,1.126-.124,0-.249-.015-.375-.047-.802-.207-1.285-1.024-1.079-1.827.248-.96.947-1.789,1.871-2.218.38-.175.694-.614.544-1.198-.081-.314-.356-.591-.671-.672-.408-.104-.718.033-.865.126-.238.148-.404.38-.456.635-.166.812-.965,1.333-1.769,1.171-.812-.165-1.336-.957-1.171-1.769.215-1.058.873-1.998,1.806-2.581.96-.601,2.101-.772,3.206-.486,1.365.353,2.474,1.463,2.825,2.827Z"/></svg>
