<?xml version="1.0" encoding="UTF-8"?>
<svg xmlns="http://www.w3.org/2000/svg" id="Layer_1" data-name="Layer 1" viewBox="0 0 24 24" width="512" height="512"><path d="M7,12.5c0-.828,.672-1.5,1.5-1.5s1.5,.672,1.5,1.5-.672,1.5-1.5,1.5-1.5-.672-1.5-1.5Zm10,0c0-.828-.672-1.5-1.5-1.5s-1.5,.672-1.5,1.5,.672,1.5,1.5,1.5,1.5-.672,1.5-1.5Zm6.585-6.964c-.174,.182-4.345,4.464-11.585,4.464S.589,5.718,.415,5.536c-.572-.6-.55-1.549,.049-2.121,.599-.571,1.542-.55,2.117,.045,.027,.028,.772,.768,2.127,1.564,.334-.825,.725-1.779,.94-2.269C6.647,.478,8.338,0,9.58,0c.769,0,1.643,.316,2.406,.86,.75-.544,1.615-.86,2.38-.86,1.738,0,3.229,1.029,3.985,2.755,.216,.491,.606,1.444,.941,2.269,1.365-.803,2.112-1.549,2.128-1.565,.574-.592,1.524-.608,2.118-.037,.595,.573,.617,1.517,.047,2.114Zm-11.585,1.464c1.741,0,3.264-.308,4.557-.738-.335-.828-.739-1.814-.953-2.302-.157-.358-.527-.96-1.238-.96-.103,.003-.443,.127-.761,.4-.912,.786-2.293,.795-3.209,.021-.343-.289-.706-.419-.817-.421-.386,0-.795,.074-1.185,.96-.214,.488-.617,1.474-.952,2.302,1.293,.43,2.816,.738,4.557,.738Zm7.685,3.066c-.792,.244-1.236,1.083-.992,1.875,.204,.663,.308,1.355,.308,2.059,0,3.859-3.141,7-7,7s-7-3.141-7-7c0-.703,.104-1.396,.308-2.059,.244-.792-.2-1.631-.992-1.875-.791-.24-1.631,.2-1.875,.992-.292,.949-.44,1.939-.44,2.941,0,5.514,4.486,10,10,10s10-4.486,10-10c0-1.002-.148-1.992-.44-2.941-.243-.792-1.081-1.232-1.875-.992Zm-12.555,6.167c.849,1.282,2.372,2.767,4.871,2.767s4.016-1.484,4.865-2.767c.395-.597-.157-1.365-.877-1.214-.93,.195-1.956,.98-3.988,.981-2.032,0-3.065-.785-3.995-.981-.72-.151-1.272,.617-.877,1.214Z"/></svg>
