<?xml version="1.0" encoding="UTF-8"?>
<svg xmlns="http://www.w3.org/2000/svg" id="Layer_1" data-name="Layer 1" viewBox="0 0 24 24" width="512" height="512"><path d="M3,22.5c0,.828-.672,1.5-1.5,1.5s-1.5-.672-1.5-1.5,.672-1.5,1.5-1.5,1.5,.672,1.5,1.5Zm2-5.5c-1.105,0-2,.895-2,2s.895,2,2,2,2-.895,2-2-.895-2-2-2Zm18.959-5.761c-.28,2.511-2.11,4.708-4.557,5.467-1.251,.391-2.513,.394-3.746,.014-.133-.043-.282-.022-.377,.047-1.108,.807-2.416,1.233-3.779,1.233-2.239,0-4.293-1.131-5.493-3.026-.334-.039-.632-.068-.804-.103C1.762,14.172-.483,10.895,.09,7.408,.505,4.879,2.453,2.779,4.939,2.186c.938-.224,1.879-.244,2.794-.067,.137,.024,.294-.033,.408-.144,1.312-1.273,3.036-1.975,4.858-1.975,2.742,0,5.244,1.617,6.374,4.12,.075,.167,.245,.249,.341,.284,2.833,1.025,4.578,3.836,4.244,6.835Zm-5.266-4.015c-.932-.337-1.66-1.001-2.054-1.869-.646-1.432-2.074-2.355-3.64-2.355-1.037,0-2.02,.399-2.768,1.126-.822,.8-1.97,1.15-3.069,.938-.218-.042-.439-.063-.662-.063-.286,0-.575,.035-.865,.104-1.324,.316-2.363,1.438-2.585,2.79-.311,1.889,.896,3.661,2.748,4.037,.065,.01,.189,.016,.319,.021,.987,.047,1.893,.577,2.424,1.42,.646,1.019,1.752,1.629,2.958,1.629,.725,0,1.421-.228,2.014-.659,.858-.625,1.989-.808,3.025-.488,.646,.199,1.31,.195,1.974-.012,1.325-.411,2.314-1.59,2.464-2.934,.181-1.616-.758-3.131-2.283-3.683Z"/></svg>
