<?xml version="1.0" encoding="UTF-8"?>
<svg xmlns="http://www.w3.org/2000/svg" id="Layer_1" data-name="Layer 1" viewBox="0 0 24 24">
  <path d="m12,7c-2.757,0-5,2.243-5,5s2.243,5,5,5,5-2.243,5-5-2.243-5-5-5Zm0,7c-1.103,0-2-.897-2-2s.897-2,2-2,2,.897,2,2-.897,2-2,2Zm12.012-2c0,.754-.189,1.494-.549,2.142-.372.674-.883,1.225-1.514,1.633-.198.128-.301.346-.256.542.169.748.145,1.513-.073,2.275-.072.247-.163.482-.273.708-.26.531-.793.84-1.348.84-.222,0-.446-.049-.659-.153-.744-.364-1.052-1.263-.687-2.007.034-.069.062-.143.084-.218.076-.267.087-.531.03-.781-.323-1.42.301-2.918,1.554-3.727.211-.136.385-.326.517-.565.114-.206.174-.442.174-.688s-.06-.482-.172-.685c-.134-.243-.308-.434-.52-.57-1.252-.808-1.876-2.306-1.553-3.728.057-.248.046-.513-.032-.785-.129-.449-.519-.839-.97-.968-.27-.076-.533-.088-.783-.032-1.424.325-2.92-.302-3.729-1.554-.135-.21-.327-.384-.568-.519-.41-.227-.962-.227-1.373,0-.241.134-.432.308-.567.518-.809,1.252-2.308,1.875-3.729,1.554-.247-.056-.51-.046-.783.032-.451.129-.84.519-.97.97-.078.271-.088.535-.032.785.323,1.42-.301,2.919-1.554,3.727-.21.136-.384.327-.518.568-.112.202-.171.439-.171.686s.059.483.171.686c.134.241.308.433.52.569,1.251.807,1.876,2.306,1.552,3.728-.056.248-.045.513.033.784.021.073.049.145.083.213.364.744.057,1.643-.687,2.007-.744.366-1.642.058-2.007-.687-.111-.227-.202-.463-.272-.706-.218-.764-.243-1.528-.074-2.275.045-.198-.057-.416-.254-.543-.631-.408-1.141-.958-1.516-1.635C.178,13.494-.011,12.754-.011,12s.189-1.494.547-2.141c.375-.677.885-1.227,1.515-1.634.199-.128.301-.346.256-.542-.169-.749-.145-1.514.074-2.276.417-1.451,1.577-2.611,3.028-3.027.762-.216,1.526-.242,2.273-.073.199.043.416-.058.543-.255.406-.629.955-1.139,1.634-1.515,1.321-.732,2.961-.732,4.282,0,.677.375,1.227.885,1.634,1.514.129.198.349.296.544.256.745-.17,1.513-.144,2.272.073,1.451.416,2.611,1.575,3.028,3.026.219.765.243,1.529.074,2.275-.045.198.058.416.255.543.632.409,1.143.96,1.517,1.638.357.644.547,1.384.547,2.138Zm-7.016,9c0,1.657.157,3-1.5,3-1.03,0-2.519-1.16-3.498-2.038-.979.877-2.468,2.038-3.498,2.038-1.657,0-1.5-1.343-1.5-3s-.157-3,1.5-3c1.03,0,2.519,1.16,3.498,2.038.979-.877,2.468-2.038,3.498-2.038,1.657,0,1.5,1.343,1.5,3Z"/>
</svg>
