<?xml version="1.0" encoding="UTF-8"?>
<svg xmlns="http://www.w3.org/2000/svg" id="Layer_1" data-name="Layer 1" viewBox="0 0 24 24" width="512" height="512"><path d="m24,4.5v15c0,2.481-2.019,4.5-4.5,4.5h-3c-.829,0-1.5-.671-1.5-1.5s.671-1.5,1.5-1.5h3c.827,0,1.5-.673,1.5-1.5V4.5c0-.827-.673-1.5-1.5-1.5h-3c-.829,0-1.5-.671-1.5-1.5s.671-1.5,1.5-1.5h3c2.481,0,4.5,2.019,4.5,4.5Zm-6.161,10.303l-5.294,5.273c-.604.604-1.417.924-2.259.924-.433,0-.873-.084-1.295-.258-1.223-.503-1.985-1.607-1.99-2.879v-.863h-3.5c-1.93,0-3.5-1.57-3.5-3.5v-3c0-1.93,1.57-3.5,3.5-3.5h3.5v-.859c.006-1.278.769-2.38,1.992-2.883,1.242-.51,2.64-.249,3.556.668l5.29,5.266s.001.002.002.003c1.544,1.545,1.544,4.062,0,5.608Zm-2.12-3.487l-5.291-5.268c-.078-.079-.228-.045-.295-.017-.001,0-.132.055-.133.116v2.352c0,.829-.671,1.5-1.5,1.5H3.5c-.271,0-.5.229-.5.5v3c0,.276.224.5.5.5h5c.829,0,1.5.671,1.5,1.5v2.357c0,.056.131.11.132.11.069.029.218.062.292-.014l5.294-5.273c.374-.374.375-.987,0-1.364Z"/></svg>
