<?xml version="1.0" encoding="UTF-8"?>
<svg xmlns="http://www.w3.org/2000/svg" id="Layer_1" data-name="Layer 1" viewBox="0 0 24 24" width="512" height="512"><path d="M23,15.092v-5.184c.581-.207,1-.756,1-1.408s-.419-1.201-1-1.408v-2.092c0-.935-.364-1.813-1.025-2.475l-1.5-1.5c-1.365-1.365-3.586-1.365-4.95,0l-1.5,1.5c-.661,.661-1.025,1.54-1.025,2.475v2h-2v-2c0-.935-.364-1.813-1.025-2.475l-1.5-1.5C7.11-.34,4.889-.34,3.525,1.025l-1.5,1.5c-.661,.661-1.025,1.54-1.025,2.475v2.092c-.581,.207-1,.756-1,1.408s.419,1.201,1,1.408v5.184c-.581,.207-1,.756-1,1.408s.419,1.201,1,1.408v2.092c0,2.206,1.794,4,4,4h2c2.206,0,4-1.794,4-4v-2h2v2c0,2.206,1.794,4,4,4h2c2.206,0,4-1.794,4-4v-2.092c.581-.207,1-.756,1-1.408s-.419-1.201-1-1.408Zm-3-.092h-4v-5h4v5Zm-4-10c0-.132,.053-.26,.146-.354l1.5-1.5c.098-.098,.226-.146,.354-.146s.256,.049,.354,.146l1.5,1.5c.093,.093,.146,.222,.146,.354v2h-4v-2Zm-11.854-.354l1.5-1.5c.098-.098,.226-.146,.354-.146s.256,.049,.354,.146l1.5,1.5c.093,.093,.146,.222,.146,.354v2H4v-2c0-.132,.053-.26,.146-.354Zm3.854,5.354v5H4v-5h4Zm0,10c0,.552-.449,1-1,1h-2c-.551,0-1-.448-1-1v-2h4v2Zm3-5v-5h2v5h-2Zm8,6h-2c-.551,0-1-.448-1-1v-2h4v2c0,.552-.449,1-1,1Z"/></svg>
