<?xml version="1.0" encoding="UTF-8"?>
<svg xmlns="http://www.w3.org/2000/svg" id="Layer_1" data-name="Layer 1" viewBox="0 0 24 24" width="512" height="512"><path d="M0,7.5v-2C0,2.47,2.47,0,5.5,0h2c.83,0,1.5,.67,1.5,1.5s-.67,1.5-1.5,1.5h-2c-1.38,0-2.5,1.12-2.5,2.5v2c0,.83-.67,1.5-1.5,1.5s-1.5-.67-1.5-1.5Zm7.5,13.5h-2c-1.38,0-2.5-1.12-2.5-2.5v-2c0-.83-.67-1.5-1.5-1.5s-1.5,.67-1.5,1.5v2c0,3.03,2.47,5.5,5.5,5.5h2c.83,0,1.5-.67,1.5-1.5s-.67-1.5-1.5-1.5Zm15-6c-.83,0-1.5,.67-1.5,1.5v2c0,1.38-1.12,2.5-2.5,2.5h-2c-.83,0-1.5,.67-1.5,1.5s.67,1.5,1.5,1.5h2c3.03,0,5.5-2.47,5.5-5.5v-2c0-.83-.67-1.5-1.5-1.5ZM18.5,0h-2c-.83,0-1.5,.67-1.5,1.5s.67,1.5,1.5,1.5h2c1.38,0,2.5,1.12,2.5,2.5v2c0,.83,.67,1.5,1.5,1.5s1.5-.67,1.5-1.5v-2c0-3.03-2.47-5.5-5.5-5.5Zm-2.91,17.13c.31-.24,.43-.64,.31-1.01l-.9-2.73,2.17-1.77c.29-.25,.4-.65,.27-1.02s-.48-.6-.86-.6h-2.75l-.97-2.61c-.13-.36-.48-.6-.86-.6s-.73,.24-.86,.6l-.97,2.61h-2.75c-.38,0-.73,.24-.86,.6-.13,.36-.03,.77,.27,1.01l2.18,1.77-.86,2.76c-.12,.37,.01,.78,.32,1.01,.16,.12,.36,.18,.55,.18,.18,0,.36-.05,.51-.15l2.48-1.66,2.52,1.64c.33,.21,.75,.2,1.06-.04Z"/></svg>
