<?xml version="1.0" encoding="UTF-8"?>
<svg xmlns="http://www.w3.org/2000/svg" id="Layer_1" data-name="Layer 1" viewBox="0 0 24 24" width="512" height="512"><path d="m24,15c0-2.361-.948-4.465-1.916-6h.416c.829,0,1.5-.671,1.5-1.5s-.671-1.5-1.5-1.5H1.5c-.829,0-1.5.671-1.5,1.5s.671,1.5,1.5,1.5h.416c-.969,1.535-1.916,3.639-1.916,6,0,2.04.911,3.924,2.442,5.435-.092.27-.333.544-.961.565-.82.01-1.481.678-1.481,1.5,0,.829.671,1.5,1.5,1.5,1.101,0,2.569-.5,3.386-1.757,1.992,1.104,4.453,1.757,7.114,1.757s5.122-.653,7.114-1.757c.817,1.257,2.285,1.757,3.386,1.757.829,0,1.5-.671,1.5-1.5s-.671-1.5-1.5-1.5c-.363,0-.78-.11-.937-.57,1.528-1.51,2.437-3.392,2.437-5.43Zm-21,0c0-2.677,1.831-5.066,2.651-6h12.696c.818.938,2.653,3.339,2.653,6,0,3.252-4.122,6-9,6s-9-2.748-9-6ZM7,1.5c0-.828.672-1.5,1.5-1.5s1.5.672,1.5,1.5-.672,1.5-1.5,1.5-1.5-.672-1.5-1.5Zm7,1c0-.828.672-1.5,1.5-1.5s1.5.672,1.5,1.5-.672,1.5-1.5,1.5-1.5-.672-1.5-1.5Z"/></svg>
