<?xml version="1.0" encoding="UTF-8"?>
<svg xmlns="http://www.w3.org/2000/svg" id="Layer_1" data-name="Layer 1" viewBox="0 0 24 24" width="512" height="512"><path d="m17.937,2.27C16.007.55,13.529-.235,10.955.061,6.902.526,3.589,3.843,3.075,7.946c-.372,2.969.643,5.835,2.782,7.863.951.901,1.143,2.188,1.143,3.97v.153c0,2.243,1.804,4.067,4.021,4.067h1.957c2.218,0,4.021-1.824,4.021-4.067v-.523c0-1.669.15-2.708.942-3.415,1.943-1.735,3.058-4.234,3.058-6.857s-1.116-5.131-3.063-6.867Zm-1.992,11.486c-1.36,1.214-1.774,2.747-1.896,4.244h-4.136c-.172-1.577-.663-3.109-1.992-4.368-1.439-1.364-2.121-3.301-1.869-5.312.344-2.749,2.55-4.969,5.246-5.278.236-.027.472-.041.705-.041,1.455,0,2.832.523,3.938,1.509,1.309,1.167,2.06,2.854,2.06,4.628s-.749,3.453-2.056,4.619Zm-.973-6.291c.224,1.273-.382,2.545-1.506,3.164-.446.246-.446.318-.446.371,0,.553-.447,1-1,1s-1-.447-1-1c0-1.308,1.038-1.879,1.481-2.123.29-.159.595-.534.501-1.066-.068-.391-.402-.725-.793-.793-.309-.057-.602.023-.832.217-.228.19-.357.47-.357.766,0,.553-.447,1-1,1s-1-.447-1-1c0-.889.391-1.726,1.071-2.298.681-.571,1.577-.807,2.464-.655,1.211.214,2.204,1.207,2.417,2.418Zm-1.952,6.535h0c0,.552-.448,1-1,1s-1-.448-1-1h0c0-.552.448-1,1-1s1,.448,1,1Z"/></svg>
