<?xml version="1.0" encoding="UTF-8"?>
<svg xmlns="http://www.w3.org/2000/svg" id="Layer_1" data-name="Layer 1" viewBox="0 0 24 24" width="512" height="512"><path d="m23.561,23.561c-.293.293-.677.439-1.061.439s-.768-.146-1.061-.439l-4-4c-.586-.585-.586-1.536,0-2.121.586-.586,1.535-.586,2.121,0l4,4c.586.585.586,1.536,0,2.121Zm-2.296-13.047l-5.326,5.326c-2.038,2.038-4.747,3.16-7.629,3.16h-1.188l-4.561,4.561c-.293.293-.677.439-1.061.439s-.768-.146-1.061-.439c-.586-.585-.586-1.536,0-2.121l4.561-4.561v-1.188c0-.888.107-1.759.314-2.599l-2.578-2.578c-.309.19-.499.293-.525.307-.227.122-.47.18-.71.18-.534,0-1.051-.286-1.321-.79-.394-.729-.12-1.639.609-2.032.018-.01,2.017-1.106,4.073-3.163C6.937,2.942,8.185.778,8.197.757c.411-.717,1.325-.968,2.046-.559.719.411.97,1.325.561,2.044-.015.026-.115.202-.296.488l1.492,1.492,1.492-1.492c-.181-.286-.281-.462-.296-.488-.409-.719-.158-1.633.561-2.044.72-.411,1.635-.159,2.046.559.013.021,1.261,2.186,3.335,4.259,2.057,2.057,4.056,3.153,4.075,3.165.728.395.999,1.304.605,2.032-.271.502-.787.787-1.32.787-.24,0-.483-.058-.709-.179-.026-.014-.216-.117-.525-.307Zm-14.704-.418c.445-.731.98-1.414,1.6-2.034l1.719-1.718-1.149-1.149c-.501.617-1.086,1.282-1.747,1.943-.61.61-1.213,1.146-1.776,1.606l1.352,1.352Zm1.75,5.905c1.571,0,3.071-.462,4.345-1.322l-3.333-3.332c-.86,1.274-1.322,2.774-1.322,4.346v.309h.31Zm10.483-7.257c-.563-.46-1.166-.996-1.776-1.606-.661-.661-1.246-1.325-1.747-1.943l-3.928,3.928,3.536,3.536,3.915-3.915Z"/></svg>
