<?xml version="1.0" encoding="UTF-8"?>
<svg xmlns="http://www.w3.org/2000/svg" id="Layer_1" data-name="Layer 1" viewBox="0 0 24 24">
  <path d="m1.168,6.834C.412,6.077-.003,5.072-.003,4.003S.412,1.929,1.167,1.173c.757-.757,1.763-1.173,2.833-1.173s2.076.417,2.831,1.173l2.806,2.806c.586.586.586,1.535,0,2.121s-1.535.586-2.121,0l-2.807-2.807c-.383-.386-1.036-.383-1.419,0-.191.191-.293.438-.293.711s.102.519.293.711l2.806,2.806c.586.586.586,1.535,0,2.121-.293.293-.677.439-1.061.439s-.768-.146-1.061-.439l-2.807-2.807Zm18.911,7.587c-.586-.586-1.535-.586-2.121,0s-.586,1.535,0,2.121l2.307,2.307c.473.473.732,1.101.732,1.768v.384h-.385c-.657,0-1.302-.267-1.768-.732l-2.307-2.306c-.586-.586-1.535-.586-2.121,0s-.586,1.536,0,2.121l2.307,2.306c1.039,1.039,2.42,1.611,3.889,1.611h1.885c.828,0,1.5-.672,1.5-1.5v-1.884c0-1.469-.572-2.85-1.611-3.889l-2.307-2.307Zm-8.119,3.252c-.024,1.444-.598,2.797-1.621,3.82-1.807,1.807-6.849,2.457-7.062,2.483-.124.016-.247.023-.37.023-.767,0-1.499-.301-2.052-.854-.642-.641-.944-1.524-.831-2.423.026-.213.677-5.255,2.483-7.062,1.023-1.023,2.377-1.597,3.82-1.621L17.199,1.167c1.555-1.554,4.081-1.552,5.634,0,1.553,1.553,1.553,4.079,0,5.634l-10.874,10.872Zm-2.378-4.646c.268.187.521.398.757.634s.447.489.634.757l9.739-9.738c.383-.384.383-1.008,0-1.392-.383-.383-1.009-.384-1.392,0l-9.738,9.738Zm-1.364,2.755c-.495-.495-1.145-.742-1.795-.742s-1.3.247-1.795.742c-.556.556-1.33,3.061-1.613,5.203,2.143-.283,4.647-1.058,5.203-1.613.989-.99.989-2.6,0-3.59Z"/>
</svg>
