<?xml version="1.0" encoding="UTF-8"?>
<svg xmlns="http://www.w3.org/2000/svg" id="Layer_1" data-name="Layer 1" viewBox="0 0 24 24" width="512" height="512"><path d="m18.5,0H5.5C2.468,0,0,2.468,0,5.5v13c0,3.032,2.468,5.5,5.5,5.5h13c3.032,0,5.5-2.468,5.5-5.5V5.5c0-3.032-2.468-5.5-5.5-5.5Zm2.5,18.5c0,1.379-1.121,2.5-2.5,2.5H5.5c-1.379,0-2.5-1.121-2.5-2.5V5.5c0-1.379,1.121-2.5,2.5-2.5h13c1.379,0,2.5,1.121,2.5,2.5v13Zm-2.018-11.771l-1.604,10.421c-.152.997-.93,1.741-1.934,1.852-1.009.107-1.924-.449-2.289-1.39l-1.156-2.974-1.156,2.975c-.335.861-1.136,1.402-2.039,1.402-1.143,0-2.031-.868-2.184-1.866l-1.604-10.42c-.126-.819.436-1.585,1.254-1.711.822-.125,1.585.435,1.711,1.254l1.148,7.466,1.471-3.781c.225-.576.78-.956,1.398-.956s1.174.38,1.398.956l1.471,3.781,1.148-7.466c.126-.819.886-1.38,1.711-1.254.818.126,1.38.892,1.254,1.711Z"/></svg>
