<?xml version="1.0" encoding="UTF-8"?>
<svg xmlns="http://www.w3.org/2000/svg" id="Layer_1" data-name="Layer 1" viewBox="0 0 24 24" width="512" height="512"><path d="M18.538,9.917c.598,.573,.618,1.522,.045,2.121-.294,.308-.688,.462-1.083,.462-.373,0-.747-.138-1.038-.417l-2.962-2.838v13.255c0,.829-.671,1.5-1.5,1.5s-1.5-.671-1.5-1.5V9.245l-2.962,2.838c-.598,.574-1.548,.552-2.121-.045-.573-.598-.553-1.548,.045-2.121l4.086-3.914c.638-.639,1.517-1.003,2.452-1.003s1.814,.364,2.475,1.025l4.063,3.892ZM22,0c-.828,0-1.5,.672-1.5,1.5s.672,1.5,1.5,1.5,1.5-.672,1.5-1.5-.672-1.5-1.5-1.5ZM12,3c.828,0,1.5-.672,1.5-1.5s-.672-1.5-1.5-1.5-1.5,.672-1.5,1.5,.672,1.5,1.5,1.5Zm5,0c.828,0,1.5-.672,1.5-1.5s-.672-1.5-1.5-1.5-1.5,.672-1.5,1.5,.672,1.5,1.5,1.5Zm-10,0c.828,0,1.5-.672,1.5-1.5s-.672-1.5-1.5-1.5-1.5,.672-1.5,1.5,.672,1.5,1.5,1.5ZM2,0C1.172,0,.5,.672,.5,1.5s.672,1.5,1.5,1.5,1.5-.672,1.5-1.5-.672-1.5-1.5-1.5Z"/></svg>
