<?xml version="1.0" encoding="UTF-8"?>
<svg xmlns="http://www.w3.org/2000/svg" id="Layer_1" data-name="Layer 1" viewBox="0 0 24 24" width="512" height="512"><path d="M14,12c0,1.1-.9,2-2,2s-2-.9-2-2,.9-2,2-2,2,.9,2,2Zm-4.83-4.95c-.59-.59-1.54-.59-2.12,0-2.73,2.73-2.73,7.17,0,9.9,.29,.29,.68,.44,1.06,.44s.77-.15,1.06-.44c.59-.59,.59-1.54,0-2.12-1.56-1.56-1.56-4.1,0-5.66,.59-.59,.59-1.54,0-2.12Zm7.78,0c-.59-.59-1.54-.59-2.12,0s-.59,1.54,0,2.12c.76,.76,1.17,1.76,1.17,2.83s-.42,2.07-1.17,2.83c-.59,.59-.59,1.54,0,2.12,.29,.29,.68,.44,1.06,.44s.77-.15,1.06-.44c1.32-1.32,2.05-3.08,2.05-4.95s-.73-3.63-2.05-4.95Zm-11.31-1.41c.59-.59,.59-1.54,0-2.12-.59-.59-1.54-.59-2.12,0C-1.16,8.19-1.16,15.81,3.51,20.49c.29,.29,.68,.44,1.06,.44s.77-.15,1.06-.44c.59-.59,.59-1.54,0-2.12-3.51-3.51-3.51-9.22,0-12.73Zm14.85-2.12c-.59-.59-1.54-.59-2.12,0-.59,.59-.59,1.54,0,2.12,3.51,3.51,3.51,9.22,0,12.73-.59,.59-.59,1.54,0,2.12,.29,.29,.68,.44,1.06,.44s.77-.15,1.06-.44c4.68-4.68,4.68-12.29,0-16.97Z"/></svg>
