<?xml version="1.0" encoding="UTF-8"?>
<svg xmlns="http://www.w3.org/2000/svg" id="Layer_1" data-name="Layer 1" viewBox="0 0 24 24" width="512" height="512"><path d="m18.5,0H5.5C2.467,0,0,2.468,0,5.5v13c0,3.032,2.467,5.5,5.5,5.5h10.343c1.469,0,2.85-.572,3.889-1.611l2.657-2.656c1.039-1.039,1.611-2.42,1.611-3.89V5.5c0-3.032-2.467-5.5-5.5-5.5ZM5.5,21c-1.378,0-2.5-1.121-2.5-2.5V5.5c0-1.379,1.122-2.5,2.5-2.5h13c1.378,0,2.5,1.121,2.5,2.5,0,0-.002,10.448-.005,10.5h-2.995c-1.105,0-2,.895-2,2v2.994c-.052.003-10.5.006-10.5.006Zm10-7.5h-2v2c0,.828-.671,1.5-1.5,1.5s-1.5-.672-1.5-1.5v-2h-2c-.829,0-1.5-.672-1.5-1.5s.671-1.5,1.5-1.5h2v-2c0-.828.671-1.5,1.5-1.5s1.5.672,1.5,1.5v2h2c.829,0,1.5.672,1.5,1.5s-.671,1.5-1.5,1.5Z"/></svg>
