<?xml version="1.0" encoding="UTF-8"?>
<svg xmlns="http://www.w3.org/2000/svg" id="Layer_1" data-name="Layer 1" viewBox="0 0 24 24" width="512" height="512"><path d="M9.63,22c-.87,0-1.73-.34-2.38-.99,0,0-6-5.97-6-5.97-1.67-1.67-1.67-4.4,0-6.07L7.26,2.99c.96-.96,2.4-1.25,3.66-.73,1.26,.52,2.08,1.74,2.08,3.1v1.64h7.5c1.93,0,3.5,1.57,3.5,3.5v3c0,1.93-1.57,3.5-3.5,3.5h-7.5v1.64c0,1.37-.82,2.58-2.09,3.1-.42,.17-.85,.25-1.28,.25ZM3.38,12.92l6,5.97c.12,.12,.25,.14,.4,.08,.15-.06,.23-.17,.23-.34v-3.13c0-.83,.67-1.5,1.5-1.5h9c.27,0,.5-.23,.5-.5v-3c0-.28-.22-.5-.5-.5H11.5c-.83,0-1.5-.67-1.5-1.5v-3.14c0-.16-.08-.27-.23-.33-.15-.06-.28-.04-.4,.08L3.38,11.09c-.5,.5-.5,1.33,0,1.83Z"/></svg>
