<?xml version="1.0" encoding="UTF-8"?>
<svg xmlns="http://www.w3.org/2000/svg" id="Layer_1" data-name="Layer 1" viewBox="0 0 24 24" width="512" height="512"><path d="M16,13.5v-4c0-.829,.671-1.5,1.5-1.5s1.5,.671,1.5,1.5v4c0,.829-.671,1.5-1.5,1.5s-1.5-.671-1.5-1.5Zm-2.5,1.5c.829,0,1.5-.671,1.5-1.5v-4c0-.829-.671-1.5-1.5-1.5s-1.5,.671-1.5,1.5v4c0,.829,.671,1.5,1.5,1.5ZM22.5,2c-.829,0-1.5,.671-1.5,1.5v14c0,1.93-1.57,3.5-3.5,3.5h-5.155c-1.517,0-2.98-.635-4.021-1.748l-.448-.474c.059-.021,.118-.043,.176-.067,1.184-.491,1.949-1.635,1.949-2.917V1.5c0-.829-.671-1.5-1.5-1.5s-1.5,.671-1.5,1.5V15.794c0,.039,0,.105-.097,.145-.096,.042-.143-.006-.168-.031l-3.343-3.363c-.067-.067-.14-.127-.218-.181-.7-.479-1.817-.555-2.593,.223-.802,.8-.69,1.938-.166,2.649,.036,.049,.075,.096,.117,.14l5.605,5.93c1.601,1.711,3.863,2.693,6.207,2.693h5.155c3.584,0,6.5-2.916,6.5-6.5V3.5c0-.829-.671-1.5-1.5-1.5Z"/></svg>
