<?xml version="1.0" encoding="UTF-8"?>
<svg xmlns="http://www.w3.org/2000/svg" id="Layer_1" data-name="Layer 1" viewBox="0 0 24 24" width="512" height="512"><path d="m17,6.5c0,.828-.671,1.5-1.5,1.5h-2v6.5c0,.828-.671,1.5-1.5,1.5s-1.5-.672-1.5-1.5v-6.5h-2c-.829,0-1.5-.672-1.5-1.5s.671-1.5,1.5-1.5h7c.829,0,1.5.672,1.5,1.5Zm7-1v9c0,3.032-2.467,5.5-5.5,5.5h-1.172l-3.708,3.065c-.448.399-1.024.601-1.606.601-.595,0-1.196-.21-1.675-.636l-3.598-3.03h-1.241c-3.033,0-5.5-2.468-5.5-5.5V5.5C0,2.468,2.467,0,5.5,0h13c3.033,0,5.5,2.468,5.5,5.5Zm-3,0c0-1.379-1.122-2.5-2.5-2.5H5.5c-1.378,0-2.5,1.121-2.5,2.5v9c0,1.379,1.122,2.5,2.5,2.5h1.789c.354,0,.696.125.966.353l3.749,3.158,3.83-3.167c.269-.222.607-.344.956-.344h1.711c1.378,0,2.5-1.121,2.5-2.5V5.5Z"/></svg>
