<?xml version="1.0" encoding="UTF-8"?>
<svg xmlns="http://www.w3.org/2000/svg" id="Layer_1" data-name="Layer 1" viewBox="0 0 24 24" width="512" height="512"><path d="M17.5,0H6.5C3.468,0,1,2.468,1,5.5v14c0,2.481,2.019,4.5,4.5,4.5h12c3.032,0,5.5-2.468,5.5-5.5V5.5c0-3.032-2.468-5.5-5.5-5.5ZM6.5,3h11c1.379,0,2.5,1.121,2.5,2.5V15H5.5c-.526,0-1.031,.091-1.5,.257V5.5c0-1.379,1.121-2.5,2.5-2.5Zm11,18H5.5c-.827,0-1.5-.673-1.5-1.5s.673-1.5,1.5-1.5h14.5v.5c0,1.379-1.121,2.5-2.5,2.5ZM6,9c0-2.001,.98-3.773,2.485-4.863,.455-.329,1.095,.089,.967,.637-.224,.959-.374,2.053-.429,3.226h1.993c.086-2.554,.494-4.487,.983-4.487s.897,1.933,.983,4.487h1.993c-.055-1.173-.205-2.268-.429-3.226-.128-.547,.512-.966,.967-.637,1.506,1.09,2.485,2.862,2.485,4.863s-.98,3.773-2.485,4.863c-.455,.329-1.095-.09-.967-.637,.224-.958,.374-2.053,.429-3.226h-1.992c-.085,2.566-.493,4.513-.984,4.513s-.899-1.946-.984-4.513h-1.992c.055,1.173,.205,2.268,.429,3.226,.128,.547-.512,.966-.967,.637-1.506-1.09-2.485-2.862-2.485-4.863Z"/></svg>
