<?xml version="1.0" encoding="UTF-8"?>
<svg xmlns="http://www.w3.org/2000/svg" id="Layer_1" data-name="Layer 1" viewBox="0 0 24 24" width="512" height="512"><path d="m13.5,12c0,.828-.672,1.5-1.5,1.5s-1.5-.672-1.5-1.5.672-1.5,1.5-1.5,1.5.672,1.5,1.5Zm3.5-1.5c-.828,0-1.5.672-1.5,1.5s.672,1.5,1.5,1.5,1.5-.672,1.5-1.5-.672-1.5-1.5-1.5Zm-10,0c-.828,0-1.5.672-1.5,1.5s.672,1.5,1.5,1.5,1.5-.672,1.5-1.5-.672-1.5-1.5-1.5Zm17,1.825v6.357c0,2.933-2.386,5.318-5.318,5.318h-5.647C6.061,24,.47,19.208.029,12.853c-.241-3.475,1.027-6.876,3.479-9.332C5.96,1.065,9.356-.208,12.835.028c6.261.426,11.165,5.827,11.165,12.296Zm-3,0c0-4.898-3.676-8.984-8.368-9.303-.206-.014-.412-.021-.617-.021-2.391,0-4.689.944-6.383,2.64-1.839,1.842-2.79,4.395-2.609,7.004.335,4.841,4.546,8.355,10.012,8.355h5.647c1.278,0,2.318-1.04,2.318-2.318v-6.357Z"/></svg>
