<?xml version="1.0" encoding="UTF-8"?>
<svg xmlns="http://www.w3.org/2000/svg" id="Layer_1" data-name="Layer 1" viewBox="0 0 24 24" width="512" height="512"><path d="m17.561,8.561l-3.439,3.439,3.439,3.439c.586.585.586,1.536,0,2.121-.293.293-.677.439-1.061.439s-.768-.146-1.061-.439l-3.439-3.439-3.439,3.439c-.293.293-.677.439-1.061.439s-.768-.146-1.061-.439c-.586-.585-.586-1.536,0-2.121l3.439-3.439-3.439-3.439c-.586-.585-.586-1.536,0-2.121.586-.586,1.535-.586,2.121,0l3.439,3.439,3.439-3.439c.586-.586,1.535-.586,2.121,0,.586.585.586,1.536,0,2.121ZM1.5,0C.672,0,0,.671,0,1.5v21c0,.829.672,1.5,1.5,1.5s1.5-.671,1.5-1.5V1.5c0-.829-.672-1.5-1.5-1.5Zm21,0c-.828,0-1.5.671-1.5,1.5v21c0,.829.672,1.5,1.5,1.5s1.5-.671,1.5-1.5V1.5c0-.829-.672-1.5-1.5-1.5Z"/></svg>
