<?xml version="1.0" encoding="UTF-8"?>
<svg xmlns="http://www.w3.org/2000/svg" id="Layer_1" data-name="Layer 1" viewBox="0 0 24 24" width="512" height="512"><path d="m21.281,16.368l2.671-12.293c.17-1.017-.115-2.051-.781-2.838-.667-.786-1.64-1.237-2.671-1.237h-9c-1.93,0-3.5,1.57-3.5,3.5v12.757c-1.746.619-3,2.287-3,4.243,0,1.93,1.57,3.5,3.5,3.5h12c1.93,0,3.5-1.57,3.5-3.5,0-1.849-1.121-3.441-2.719-4.132ZM11.5,3h9c.202,0,.325.111.382.177.056.066.145.207.125.333l-2.716,12.49h-7.291v-3h1.5c.828,0,1.5-.671,1.5-1.5s-.672-1.5-1.5-1.5h-1.5v-2h1.5c.828,0,1.5-.671,1.5-1.5s-.672-1.5-1.5-1.5h-1.5v-1.5c0-.276.225-.5.5-.5Zm9,18h-12c-.275,0-.5-.224-.5-.5,0-.827.673-1.5,1.5-1.5h10c.827,0,1.5.673,1.5,1.5,0,.276-.225.5-.5.5Zm-15.595-5.053l-1.038.053c-.747,0-1.416-.314-1.906-.804C-.75,12.485-.556,5.321,1.961,2.804c.49-.49,1.159-.805,1.906-.804l1.038.053c.605,0,1.095.49,1.095,1.095l-.205,1.56c0,.605-.49,1.095-1.095,1.095l-1.578.148c-.868,1.939-.91,3.968,0,6.099l1.578.148c.605,0,1.095.49,1.095,1.095l.205,1.56c0,.605-.49,1.095-1.095,1.095Z"/></svg>
