<?xml version="1.0" encoding="UTF-8"?>
<svg xmlns="http://www.w3.org/2000/svg" id="Layer_1" data-name="Layer 1" viewBox="0 0 24 24" width="512" height="512"><path d="M22.781,12.905l-.296-.71c-.583-1.4-1.724-2.442-3.104-2.915l-.286-1.144c-.167-.669-.766-1.137-1.455-1.137h-2.219c-.689,0-1.288,.468-1.455,1.137l-.277,1.109c-1.428,.454-2.614,1.514-3.212,2.95l-.296,.71c-.783,1.881-1.181,3.866-1.181,5.902v.192c0,1.304,.836,2.415,2,2.828v.172c0,1.105,.895,2,2,2s2-.895,2-2h3c0,1.105,.895,2,2,2s2-.895,2-2v-.185c1.144-.423,1.962-1.525,1.962-2.815v-.192c0-2.036-.397-4.021-1.181-5.902Zm-9.535,.444c.342-.82,1.136-1.35,2.023-1.35h2.423c.888,0,1.682,.529,2.023,1.35l.296,.71c.264,.633,.473,1.281,.627,1.94H12.323c.154-.659,.363-1.307,.627-1.94l.296-.71Zm-5.246-1.85c0,.828-.672,1.5-1.5,1.5h-1.5v2.5c0,.275,.225,.5,.5,.5,.828,0,1.5,.672,1.5,1.5v2c0,.828-.672,1.5-1.5,1.5s-1.5-.672-1.5-1.5v-.838c-1.182-.562-2-1.769-2-3.162v-2.5h-.5c-.828,0-1.5-.672-1.5-1.5v-1c0-.828,.672-1.5,1.5-1.5h.5v-2.974C2,3.669,3.5,1.575,5.733,.815c3.166-1.082,6.365-1.083,9.535,0,1.501,.51,2.711,1.645,3.316,3.111,.19,.463,.139,.99-.14,1.406-.279,.416-.746,.666-1.247,.666h-5.198v.5c0,.828-.672,1.5-1.5,1.5s-1.5-.672-1.5-1.5v-.5H5v4h1.5c.828,0,1.5,.672,1.5,1.5Z"/></svg>
