<?xml version="1.0" encoding="UTF-8"?>
<svg xmlns="http://www.w3.org/2000/svg" id="Layer_1" data-name="Layer 1" viewBox="0 0 24 24" width="512" height="512"><path d="m18.5,0H5.5C2.467,0,0,2.467,0,5.5v9c0,3.033,2.467,5.5,5.5,5.5h1.241l3.598,3.031c.479.425,1.08.635,1.674.635.583,0,1.159-.202,1.607-.6l3.708-3.066h1.172c3.033,0,5.5-2.467,5.5-5.5V5.5c0-3.033-2.467-5.5-5.5-5.5Zm2.5,14.5c0,1.378-1.122,2.5-2.5,2.5h-1.711c-.349,0-.687.122-.956.344l-3.83,3.167-3.749-3.158c-.271-.228-.613-.353-.966-.353h-1.789c-1.378,0-2.5-1.122-2.5-2.5V5.5c0-1.378,1.122-2.5,2.5-2.5h13c1.378,0,2.5,1.122,2.5,2.5v9Zm-4.939-6.465l-1.965,1.965,1.965,1.965c.586.586.586,1.536,0,2.121-.293.293-.677.439-1.061.439s-.768-.146-1.061-.439l-1.965-1.965-1.965,1.965c-.293.293-.677.439-1.061.439s-.768-.146-1.061-.439c-.586-.585-.586-1.535,0-2.121l1.965-1.965-1.965-1.965c-.586-.586-.586-1.536,0-2.121.586-.586,1.535-.586,2.121,0l1.965,1.965,1.965-1.965c.586-.586,1.535-.586,2.121,0,.586.585.586,1.535,0,2.121Z"/></svg>
