<?xml version="1.0" encoding="UTF-8"?>
<svg xmlns="http://www.w3.org/2000/svg" id="Layer_1" data-name="Layer 1" viewBox="0 0 24 24" width="512" height="512"><path d="m10,12c0-1.105.895-2,2-2s2,.895,2,2-.895,2-2,2-2-.895-2-2Zm3.94,4.413c-.666-.218-1.41-.413-1.94-.413-.526,0-1.264.192-1.927.408-.911.297-1.454,1.229-1.277,2.171l.856,3.854c.203.915,1.015,1.566,1.952,1.566h.846c.945,0,1.761-.662,1.957-1.586l.813-3.846c.167-.937-.375-1.859-1.28-2.154Zm4.266-1.228c1.394-2.72.89-5.988-1.256-8.134-1.322-1.322-3.08-2.051-4.95-2.051s-3.628.729-4.95,2.051c-2.146,2.146-2.65,5.414-1.256,8.134.378.735,1.28,1.028,2.02.65.737-.378,1.028-1.282.65-2.02-.798-1.556-.514-3.422.708-4.644,1.512-1.512,4.146-1.512,5.657,0,1.221,1.222,1.506,3.088.708,4.644-.378.737-.086,1.642.65,2.02.219.112.453.165.683.165.545,0,1.071-.298,1.336-.815Zm2.279-11.67C15.807-1.165,8.193-1.165,3.515,3.515-1.164,8.193-1.164,15.807,3.515,20.485c.332.332.687.647,1.056.938.275.218.603.323.929.323.443,0,.882-.195,1.178-.57.513-.65.402-1.594-.248-2.106-.278-.22-.545-.457-.794-.706-3.509-3.51-3.509-9.219,0-12.729s9.219-3.508,12.729,0c3.509,3.51,3.509,9.219.001,12.727-.253.253-.521.491-.796.708-.649.514-.76,1.457-.246,2.107.514.648,1.458.76,2.107.246.364-.288.718-.604,1.054-.938,4.679-4.679,4.679-12.292,0-16.971Z"/></svg>
