<?xml version="1.0" encoding="UTF-8"?>
<svg xmlns="http://www.w3.org/2000/svg" id="Layer_1" data-name="Layer 1" viewBox="0 0 24 24" width="512" height="512"><path d="m22.5,8.5c.829,0,1.5-.672,1.5-1.5v-.5c0-3.032-2.467-5.5-5.5-5.5h-8c-3.033,0-5.5,2.468-5.5,5.5v7c0,3.032,2.467,5.5,5.5,5.5h8c3.033,0,5.5-2.468,5.5-5.5v-.5c0-.828-.671-1.5-1.5-1.5s-1.5-.673-1.5-1.5.673-1.5,1.5-1.5Zm-1.602,5.706c-.305,1.035-1.265,1.794-2.398,1.794h-8c-1.378,0-2.5-1.121-2.5-2.5v-7c0-1.379,1.122-2.5,2.5-2.5h8c1.134,0,2.093.759,2.398,1.794-1.693.647-2.898,2.288-2.898,4.206s1.206,3.559,2.898,4.206Zm-2.398,8.294c0,.828-.671,1.5-1.5,1.5h-6.5C4.71,24,0,19.29,0,13.5v-5c0-.828.671-1.5,1.5-1.5s1.5.672,1.5,1.5v5c0,4.136,3.364,7.5,7.5,7.5h6.5c.829,0,1.5.672,1.5,1.5Zm-1.5-12.5c0,.552-.448,1-1,1h-1l-1.911,2.421c-.195.357-.569.579-.975.579h-.138c-.382,0-.644-.384-.506-.74l.879-2.26h-1.001c-.442,0-.862-.195-1.147-.533l-1.096-1.3c-.297-.52.078-1.167.677-1.167.207,0,.405.082.551.228l1.11.772h.923l-.891-2.258c-.141-.356.122-.742.505-.742h.117c.407,0,.781.222.975.579l1.929,2.421h1c.552,0,1,.448,1,1Z"/></svg>
