<?xml version="1.0" encoding="UTF-8"?>
<svg xmlns="http://www.w3.org/2000/svg" id="Layer_1" data-name="Layer 1" viewBox="0 0 24 24" width="512" height="512"><path d="m23.057,10.607l-4.599-1.84,2.29-3.436c.396-.595.318-1.387-.188-1.893-.504-.505-1.295-.585-1.893-.188l-3.435,2.29-1.84-4.599c-.228-.569-.779-.943-1.393-.943s-1.165.374-1.393.943l-1.84,4.599-3.435-2.29c-.597-.398-1.388-.317-1.893.188-.506.505-.584,1.298-.188,1.893l2.29,3.436-4.599,1.84c-.57.228-.943.779-.943,1.393s.373,1.165.943,1.393l4.599,1.84-2.29,3.436c-.396.595-.318,1.387.188,1.893.29.29.674.439,1.062.439.287,0,.577-.083.831-.252l3.435-2.29,1.84,4.599c.228.569.779.943,1.393.943s1.165-.374,1.393-.943l1.84-4.599,3.435,2.29c.254.169.544.252.831.252.388,0,.771-.149,1.062-.439.506-.505.584-1.298.188-1.893l-2.29-3.436,4.599-1.84c.57-.228.943-.779.943-1.393s-.373-1.165-.943-1.393Zm-8.613,3c-.382.152-.684.454-.836.835l-1.607,4.018-1.607-4.018c-.152-.381-.454-.683-.836-.835l-4.018-1.607,4.018-1.607c.382-.152.684-.454.836-.835l1.607-4.018,1.607,4.018c.152.381.454.683.836.835l4.018,1.607-4.018,1.607Z"/></svg>
