<?xml version="1.0" encoding="UTF-8"?>
<svg xmlns="http://www.w3.org/2000/svg" id="Layer_1" data-name="Layer 1" viewBox="0 0 24 24" width="512" height="512"><path d="m23.128,2.46c-.718-.876-1.775-1.41-2.902-1.467-1.127-.052-2.232.368-3.03,1.165L.762,18.553c-.491.491-.762,1.144-.762,1.837s.271,1.349.766,1.84c.491.49,1.144.759,1.835.759h.013c.341,0,.689-.007.949-.016,1.957-.078,3.799-.46,5.475-1.135,2.366-.954,4.18-2.873,5.056-5.28l8.661-8.643c1.494-1.491,1.658-3.887.374-5.455ZM7.916,19.055c-1.315.53-2.772.838-4.326.914l6.18-6.165,1.586,1.479c-.554,1.713-1.82,3.121-3.439,3.772Zm12.719-13.263l-7.274,7.258-1.466-1.366,7.42-7.402c.202-.202.442-.303.762-.292.166.009.481.068.731.373.312.381.235,1.022-.173,1.43Z"/></svg>
