<?xml version="1.0" encoding="UTF-8"?>
<svg xmlns="http://www.w3.org/2000/svg" id="Layer_1" data-name="Layer 1" viewBox="0 0 24 24" width="512" height="512"><path d="m17,4.5c0-1.381,1.119-2.5,2.5-2.5s2.5,1.119,2.5,2.5-1.119,2.5-2.5,2.5-2.5-1.119-2.5-2.5Zm-9,5.5c1.105,0,2-.895,2-2s-.895-2-2-2-2,.895-2,2,.895,2,2,2Zm5.5,2c0-.828-.672-1.5-1.5-1.5s-1.5.672-1.5,1.5.672,1.5,1.5,1.5,1.5-.672,1.5-1.5Zm10.282-2.284c-.157-.814-.949-1.348-1.757-1.188-.813.157-1.346.943-1.188,1.757.108.562.163,1.139.163,1.716,0,4.963-4.037,9-9,9S3,16.963,3,12,7.037,3,12,3c.577,0,1.154.055,1.716.163.804.156,1.6-.374,1.757-1.188.157-.813-.375-1.6-1.188-1.757-.748-.145-1.517-.218-2.284-.218C5.383,0,0,5.383,0,12s5.383,12,12,12,12-5.383,12-12c0-.768-.073-1.536-.218-2.284Zm-11.726-3.417c-.226.797.237,1.626,1.035,1.852,1.712.484,2.908,2.067,2.908,3.85,0,2.206-1.794,4-4,4-1.782,0-3.365-1.196-3.85-2.908-.226-.798-1.056-1.263-1.852-1.035-.798.226-1.261,1.055-1.035,1.852.849,2.998,3.618,5.092,6.736,5.092,3.859,0,7-3.141,7-7,0-3.118-2.094-5.888-5.092-6.736-.794-.227-1.626.237-1.852,1.035Z"/></svg>
