<?xml version="1.0" encoding="UTF-8"?>
<svg xmlns="http://www.w3.org/2000/svg" id="Layer_1" data-name="Layer 1" viewBox="0 0 24 24" width="512" height="512"><path d="m18.129,10.897c1.14-.917,1.871-2.323,1.871-3.897,0-2.757-2.243-5-5-5-1.643,0-3.104.797-4.016,2.025C9.362,1.857,6.589,0,1.5,0,.671,0,0,.671,0,1.5s.671,1.5,1.5,1.5c1.377,0,2.52.156,3.477.428-1.752.778-2.977,2.535-2.977,4.572,0,1.678.831,3.165,2.103,4.073-2.238,1.708-4.103,4.122-4.103,7.427,0,2.481,2.019,4.5,4.5,4.5s4.5-2.019,4.5-4.5c0-3.963,1.868-6.415,3-7.537,1.132,1.122,3,3.573,3,7.537,0,2.481,2.019,4.5,4.5,4.5s4.5-2.019,4.5-4.5c0-4.151-2.942-6.898-5.871-8.603Zm-9.129-2.897c0,1.103-.897,2-2,2s-2-.897-2-2,.897-2,2-2,2,.897,2,2Zm6-3c1.103,0,2,.897,2,2s-.897,2-2,2-2-.897-2-2,.897-2,2-2Zm-9,14.5c0,.827-.673,1.5-1.5,1.5s-1.5-.673-1.5-1.5c0-2.72,2.088-4.665,4.291-5.96-.741,1.576-1.291,3.555-1.291,5.96Zm13.5,1.5c-.827,0-1.5-.673-1.5-1.5,0-2.405-.55-4.384-1.291-5.96,2.203,1.295,4.291,3.24,4.291,5.96,0,.827-.673,1.5-1.5,1.5Z"/></svg>
