<?xml version="1.0" encoding="UTF-8"?>
<svg xmlns="http://www.w3.org/2000/svg" id="Layer_1" data-name="Layer 1" viewBox="0 0 24 24">
  <path d="m23.561,21.439l-5.678-5.678,1.526-2.439c.71-1.047.784-2.392.191-3.51-.592-1.118-1.747-1.812-3.01-1.812l-2.705-.002,1.058-4.59c.376-1.317-.185-2.659-1.336-3.191-1.095-.505-2.361-.106-3.101,1.008l-2.756,4.404L2.561.439C1.975-.146,1.025-.146.439.439S-.146,1.975.439,2.561l21,21c.293.293.677.439,1.061.439s.768-.146,1.061-.439c.586-.586.586-1.535,0-2.121Zm-6.973-10.439c.204,0,.309.118.361.217.052.1.091.253-.053.468l-1.19,1.901-2.587-2.587,3.469.002Zm-2.184,8.353c.444.444.522,1.135.189,1.667l-1.099,1.755c-.527.793-1.321,1.224-2.129,1.224-.327,0-.656-.07-.972-.216-1.151-.532-1.712-1.874-1.336-3.191l1.057-4.588h-2.558c-1,0-1.997-.365-2.664-1.109-1.086-1.211-1.168-2.935-.301-4.214,0,0,.408-.732,1.088-.052l8.725,8.725Z"/>
</svg>
