<?xml version="1.0" encoding="UTF-8"?>
<svg xmlns="http://www.w3.org/2000/svg" id="Layer_1" data-name="Layer 1" viewBox="0 0 24 24" width="512" height="512"><path d="M24,6.5v11.015c0,2.003-.78,3.887-2.197,5.303l-.743,.743c-.293,.293-.677,.439-1.061,.439s-.768-.146-1.061-.439c-.586-.585-.586-1.536,0-2.121l.743-.743c.85-.85,1.318-1.98,1.318-3.182v-1.145l-2.443,2.425c-.292,.291-.675,.436-1.057,.436-.386,0-.771-.148-1.064-.443-.584-.588-.58-1.538,.008-2.121l2.423-2.405c.195-.322,.148-.746-.123-1.017-.314-.313-.86-.313-1.173,0l-4.012,4.012c.28,.781,.429,1.593,.429,2.436v2.81c0,.829-.671,1.5-1.5,1.5s-1.5-.671-1.5-1.5v-2.81c0-1.254-.532-2.396-1.627-3.492l-2.876-2.876c-.323-.324-.824-.401-1.137-.178-.245,.174-.325,.398-.35,.557-.03,.196,.008,.391,.11,.558l2.45,2.431c.588,.583,.592,1.534,.008,2.122-.584,.588-1.534,.591-2.122,.008l-2.443-2.425v1.119c0,1.202,.468,2.332,1.318,3.182l.743,.743c.586,.585,.586,1.536,0,2.121-.293,.293-.677,.439-1.061,.439s-.768-.146-1.061-.439l-.743-.743c-1.417-1.417-2.197-3.3-2.197-5.303V6.5c0-1.378,1.122-2.5,2.5-2.5s2.5,1.122,2.5,2.5v3.602c1.255-.264,2.618,.111,3.605,1.099l2.876,2.876c.173,.173,.331,.349,.486,.527l3.482-3.482c.93-.93,2.303-1.255,3.551-.988v-3.634c0-1.378,1.122-2.5,2.5-2.5s2.5,1.122,2.5,2.5Z"/></svg>
