<?xml version="1.0" encoding="UTF-8"?>
<svg xmlns="http://www.w3.org/2000/svg" id="Layer_1" data-name="Layer 1" viewBox="0 0 24 24" width="512" height="512"><path d="M21.424,19.43c-2.292,2.904-5.728,4.57-9.424,4.57C5.383,24,0,18.617,0,12S5.383,0,12,0c4.622,0,8.883,2.701,10.856,6.882,.354,.749,.033,1.644-.716,1.997-.75,.353-1.644,.032-1.997-.716-1.48-3.137-4.677-5.163-8.144-5.163C7.038,3,3,7.037,3,12s4.038,9,9,9c2.772,0,5.349-1.25,7.069-3.43,.513-.65,1.456-.761,2.107-.248,.65,.514,.762,1.457,.249,2.107Zm.576-8.43h-7c-1.105,0-2,.895-2,2s.895,2,2,2h7c1.105,0,2-.895,2-2s-.895-2-2-2Zm-13.999,6.947c.252,0,.508-.063,.743-.197,.695-.397,1.375-.658,2.021-.773,.815-.146,1.358-.926,1.212-1.741-.146-.815-.93-1.355-1.741-1.212-.983,.177-1.986,.554-2.979,1.121-.719,.411-.969,1.328-.558,2.047,.277,.484,.783,.756,1.304,.756Zm5.999-9.947c0,1.105,.895,2,2,2s2-.895,2-2-.895-2-2-2-2,.895-2,2Zm-4,0c0-1.105-.895-2-2-2s-2,.895-2,2,.895,2,2,2,2-.895,2-2Z"/></svg>
