<?xml version="1.0" encoding="UTF-8"?>
<svg xmlns="http://www.w3.org/2000/svg" id="Layer_1" data-name="Layer 1" viewBox="0 0 24 24" width="512" height="512"><path d="M24,12c0,6.617-5.383,12-12,12-3.076,0-6-1.162-8.236-3.272-.602-.569-.63-1.518-.061-2.121,.568-.602,1.518-.629,2.121-.061,1.676,1.583,3.87,2.454,6.177,2.454,4.962,0,9-4.038,9-9S16.962,3,12,3c-3.398,0-6.471,1.881-8.02,4.91-.377,.738-1.282,1.029-2.018,.653-.738-.377-1.03-1.281-.653-2.018C3.373,2.508,7.469,0,12,0c6.617,0,12,5.383,12,12Zm-6.274-3.039c.092,.026,.184,.039,.275,.039,.435,0,.835-.287,.961-.726,.152-.531-.156-1.084-.687-1.236-.965-.276-1.977-.941-2.46-1.62-.32-.449-.945-.554-1.395-.233-.449,.321-.554,.945-.233,1.395,.746,1.045,2.135,1.979,3.54,2.38Zm-9.54-3.542c-.484,.678-1.496,1.344-2.46,1.62-.531,.151-.839,.705-.687,1.236,.125,.439,.526,.726,.961,.726,.091,0,.183-.013,.275-.039,1.404-.401,2.793-1.335,3.54-2.38,.321-.45,.216-1.074-.233-1.395-.45-.32-1.074-.216-1.395,.233Zm-.186,3.581c-1.105,0-2,.895-2,2s.895,2,2,2,2-.895,2-2-.895-2-2-2Zm8,4c1.105,0,2-.895,2-2s-.895-2-2-2-2,.895-2,2,.895,2,2,2Zm-11,1.5c0-1.403-1.184-3.372-1.922-4.235-.303-.355-.849-.353-1.151,.004-.738,.874-1.927,2.861-1.927,4.231,0,1.381,1.119,2.5,2.5,2.5s2.5-1.119,2.5-2.5Zm3.036,1.46c-.178,.51,.224,1.04,.765,1.04,.33,0,.741,0,1.198,0,0,0,.001-.005,.001-.005v.605c0,1.2,.8,2.4,2,2.4s2-1.2,2-2.4v-.6c.452,0,.859,0,1.185,0,.538,0,.941-.524,.768-1.033-.487-1.432-2.04-2.966-3.954-2.966s-3.463,1.531-3.963,2.96Z"/></svg>
