<?xml version="1.0" encoding="UTF-8"?>
<svg xmlns="http://www.w3.org/2000/svg" id="Layer_1" data-name="Layer 1" viewBox="0 0 24 24" width="512" height="512"><path d="M20.5,12h-6.085l-2.305-3.155c-.844-1.155-2.203-1.845-3.633-1.845h-.977c-2.481,0-4.5,2.019-4.5,4.5v.551c-1.692,.245-3,1.691-3,3.449v3c0,3.033,2.467,5.5,5.5,5.5h13c3.033,0,5.5-2.467,5.5-5.5v-3c0-1.93-1.57-3.5-3.5-3.5Zm-6.5,3v6h-4v-6h4Zm-6.5-5h.977c.477,0,.93,.23,1.211,.615l1.012,1.385H6v-.5c0-.827,.673-1.5,1.5-1.5ZM3,18.5v-3c0-.276,.224-.5,.5-.5h3.5v6h-1.5c-1.378,0-2.5-1.122-2.5-2.5Zm18,0c0,1.378-1.122,2.5-2.5,2.5h-1.5v-6h3.5c.276,0,.5,.224,.5,.5v3ZM5,2.5c0-1.381,1.119-2.5,2.5-2.5s2.5,1.119,2.5,2.5-1.119,2.5-2.5,2.5-2.5-1.119-2.5-2.5Zm14-.829v-.167c-.003-.829,.667-1.502,1.495-1.504h.004c.827,0,1.498,.669,1.5,1.496v.171c0,.516,.2,.997,.562,1.359,.928,.927,1.439,2.161,1.439,3.474,0,.829-.671,1.5-1.5,1.5s-1.5-.671-1.5-1.5c0-.512-.199-.992-.56-1.353-.929-.929-1.44-2.164-1.44-3.476Zm-3.56,4.168c-.929-.929-1.44-2.164-1.44-3.476v-.864c0-.829,.671-1.5,1.5-1.5s1.5,.671,1.5,1.5v.864c0,.511,.199,.992,.561,1.354,.928,.927,1.439,2.161,1.439,3.474v.308c0,.829-.671,1.5-1.5,1.5s-1.5-.671-1.5-1.5v-.308c0-.512-.199-.992-.56-1.353Z"/></svg>
