<?xml version="1.0" encoding="UTF-8"?>
<svg xmlns="http://www.w3.org/2000/svg" id="Layer_1" data-name="Layer 1" viewBox="0 0 24 24" width="512" height="512"><path d="m8.914,16.056l-5.623,4.944h5.209c.829,0,1.5.672,1.5,1.5s-.671,1.5-1.5,1.5H2.813c-1.232,0-2.279-.76-2.667-1.935-.383-1.16-.014-2.377.94-3.121l5.623-4.944H1.5c-.829,0-1.5-.672-1.5-1.5s.671-1.5,1.5-1.5h5.687c1.232,0,2.279.759,2.667,1.935.383,1.16.014,2.377-.94,3.121Zm13.586,2.944h-1.41l2.064-1.923c.737-.601,1.029-1.594.728-2.505-.311-.94-1.183-1.572-2.17-1.572h-3.212c-.829,0-1.5.672-1.5,1.5s.671,1.5,1.5,1.5h1.41l-2.064,1.923c-.737.601-1.029,1.594-.728,2.505.311.94,1.183,1.572,2.17,1.572h3.212c.829,0,1.5-.672,1.5-1.5s-.671-1.5-1.5-1.5Zm-2.5-9.5c0-.829-.671-1.5-1.5-1.5h-3.692l4.207-3.379c.89-.661,1.253-1.813.904-2.868-.352-1.065-1.301-1.753-2.418-1.753h-5c-.829,0-1.5.671-1.5,1.5s.671,1.5,1.5,1.5h3.743l-4.206,3.379c-.89.66-1.254,1.812-.905,2.868.352,1.065,1.301,1.753,2.418,1.753h4.95c.829,0,1.5-.671,1.5-1.5Z"/></svg>
