<?xml version="1.0" encoding="UTF-8"?>
<svg xmlns="http://www.w3.org/2000/svg" id="Layer_1" data-name="Layer 1" viewBox="0 0 24 24" width="512" height="512"><path d="M22.39,6.62c-1.04-1.04-2.42-1.62-3.89-1.62h-.5v-1C18,1.79,16.21,0,14,0H4C1.79,0,0,1.8,0,4.01v14.64c0,1.05,1.14,1.71,2.05,1.19l4.05-2.32c.48,2.55,2.72,4.48,5.4,4.48h5.5l4.44,1.86c.06,.02,.12,.05,.18,.06,.17,.05,.34,.07,.5,.07,1.03,0,1.87-.84,1.87-1.87V10.51c0-1.47-.57-2.85-1.61-3.89ZM5.14,11.51c-.28-.48-.11-1.09,.36-1.37,.48-.28,1.09-.11,1.37,.36,.18,.31,.51,.5,.87,.5h2.64c.34,0,.62-.28,.62-.62,0-.31-.22-.57-.52-.62l-3.28-.55c-1.27-.21-2.19-1.3-2.19-2.59,0-1.45,1.18-2.62,2.62-2.62h.38c0-.55,.45-1,1-1s1,.45,1,1h.27c1.07,0,2.06,.57,2.6,1.5,.28,.48,.11,1.09-.36,1.37-.48,.28-1.09,.11-1.37-.36-.18-.31-.51-.5-.87-.5h-2.64c-.34,0-.62,.28-.62,.62,0,.31,.22,.57,.52,.62l3.28,.55c1.27,.21,2.19,1.3,2.19,2.59,0,1.45-1.18,2.62-2.62,2.62h-.38c0,.55-.45,1-1,1s-1-.45-1-1h-.27c-1.07,0-2.06-.57-2.6-1.5Zm15.86,8.92l-3.11-1.31c-.18-.08-.38-.12-.58-.12h-5.8c-1.21,0-2.22-.86-2.45-2h4.95c2.21,0,4-1.79,4-4v-5h.5c.66,0,1.29,.26,1.76,.74,.47,.47,.74,1.1,.74,1.76v9.92Z"/></svg>
