<?xml version="1.0" encoding="UTF-8"?>
<svg xmlns="http://www.w3.org/2000/svg" id="Layer_1" data-name="Layer 1" viewBox="0 0 24 24" width="512" height="512"><path d="m22,17.337V5.5c0-3.032-2.468-5.5-5.5-5.5h-4.681c-2.319,0-4.4,1.467-5.181,3.649L.087,21.995c-.278.78.129,1.639.908,1.918.167.06.337.087.505.087.616,0,1.193-.382,1.413-.995l3.93-11.005h12.157v5.337c-1.182.562-2,1.767-2,3.163,0,1.933,1.567,3.5,3.5,3.5s3.5-1.567,3.5-3.5c0-1.396-.818-2.601-2-3.163ZM7.914,9l1.55-4.342c.354-.991,1.3-1.658,2.354-1.658h4.681c1.379,0,2.5,1.121,2.5,2.5v3.5H7.914Z"/></svg>
