<?xml version="1.0" encoding="UTF-8"?>
<svg xmlns="http://www.w3.org/2000/svg" id="Layer_1" data-name="Layer 1" viewBox="0 0 24 24" width="512" height="512"><path d="M22.5,21c-.275,0-.725-.192-1.159-.379-.68-.291-1.45-.621-2.341-.621s-1.661,.33-2.341,.621c-.435,.187-.884,.379-1.159,.379s-.725-.192-1.159-.379c-.68-.291-1.45-.621-2.341-.621-.805,0-1.51,.269-2.14,.536l2.942-6.641,6.268,2.81c.442,.198,.912,.297,1.382,.297,.533,0,1.064-.127,1.555-.38,.914-.472,1.553-1.32,1.752-2.326,1.104-5.58-1.599-11.035-6.573-13.265C12.079-1.259,5.979,.325,2.675,4.795c-.623,.842-.828,1.906-.562,2.919,.263,1.001,.952,1.816,1.89,2.237l6.061,2.717-3.4,7.676c-.505-.19-1.056-.343-1.664-.343-.891,0-1.661,.33-2.341,.621-.435,.187-.884,.379-1.159,.379-.829,0-1.5,.671-1.5,1.5s.671,1.5,1.5,1.5c.891,0,1.661-.33,2.341-.621,.435-.187,.884-.379,1.159-.379s.725,.192,1.159,.379c.68,.291,1.45,.621,2.341,.621s1.661-.33,2.341-.621c.435-.187,.884-.379,1.159-.379s.725,.192,1.159,.379c.68,.291,1.45,.621,2.341,.621s1.661-.33,2.341-.621c.435-.187,.884-.379,1.159-.379s.725,.192,1.159,.379c.68,.291,1.45,.621,2.341,.621,.829,0,1.5-.671,1.5-1.5s-.671-1.5-1.5-1.5ZM5.015,6.953c-.02-.077-.037-.227,.072-.375,1.692-2.289,4.468-3.57,7.269-3.57,1.225,0,2.456,.246,3.602,.759,3.691,1.655,5.689,5.744,4.857,9.945-.026,.135-.116,.207-.186,.243-.062,.033-.188,.075-.332,.011L5.23,7.213c-.138-.062-.193-.176-.215-.26Z"/></svg>
