<?xml version="1.0" encoding="UTF-8"?>
<svg xmlns="http://www.w3.org/2000/svg" id="Layer_1" data-name="Layer 1" viewBox="0 0 24 24" width="512" height="512"><path d="M24,12c0,6.617-5.383,12-12,12S0,18.617,0,12c0-1.375,.23-2.723,.686-4.007,.276-.78,1.132-1.189,1.915-.913,.781,.277,1.189,1.134,.913,1.915-.341,.961-.514,1.972-.514,3.005,0,4.962,4.037,9,9,9s9-4.038,9-9c0-1.011-.166-2.002-.492-2.946-.271-.783,.144-1.637,.926-1.908,.782-.271,1.637,.143,1.908,.927,.437,1.26,.658,2.582,.658,3.928ZM1,3.5C1,.455,7.892,0,12,0s11,.455,11,3.5-6.892,3.5-11,3.5S1,6.545,1,3.5Zm4.858,0c1.417,.272,3.494,.5,6.142,.5s4.725-.228,6.142-.5c-1.417-.272-3.494-.5-6.142-.5s-4.725,.228-6.142,.5Zm2.109,8.307c.01-.046,.021-.09,.032-.134,.012,.043,.022,.088,.032,.134,.147,.708,.771,1.193,1.466,1.193,.103,0,.206-.011,.31-.032,.811-.17,1.33-.965,1.16-1.775-.321-1.538-1.388-3.193-2.968-3.193s-2.646,1.655-2.968,3.193c-.17,.811,.35,1.605,1.16,1.775,.805,.168,1.606-.349,1.775-1.161Zm11-.614c-.321-1.538-1.388-3.193-2.968-3.193s-2.646,1.655-2.968,3.193c-.17,.811,.35,1.605,1.16,1.775,.804,.168,1.606-.349,1.775-1.161,.01-.046,.021-.09,.032-.134,.012,.043,.022,.088,.032,.134,.147,.708,.771,1.193,1.466,1.193,.103,0,.206-.011,.31-.032,.811-.17,1.33-.965,1.16-1.775Zm-6.968,7.807c3.068,0,5.457-2.336,5.557-2.436,.586-.582,.589-1.525,.01-2.114-.579-.589-1.527-.595-2.118-.02-.017,.016-1.631,1.569-3.448,1.569s-3.432-1.554-3.443-1.564c-.587-.584-1.538-.58-2.121,.008-.584,.588-.58,1.538,.008,2.121,.1,.1,2.488,2.436,5.557,2.436Z"/></svg>
