<?xml version="1.0" encoding="UTF-8"?>
<svg xmlns="http://www.w3.org/2000/svg" id="Layer_1" data-name="Layer 1" viewBox="0 0 24 24" width="512" height="512"><path d="m20,22.5c0,.828-.672,1.5-1.5,1.5H5.5c-.828,0-1.5-.672-1.5-1.5s.672-1.5,1.5-1.5h13c.828,0,1.5.672,1.5,1.5Zm-5.5-6.5h-5c-.828,0-1.5.672-1.5,1.5s.672,1.5,1.5,1.5h5c.828,0,1.5-.672,1.5-1.5s-.672-1.5-1.5-1.5ZM23.243,2.53l-1.418-.354-.354-1.418c-.111-.445-.511-.757-.97-.757s-.859.312-.97.757l-.351,1.406-1.404.325c-.447.103-.767.498-.775.956-.008.459.297.865.74.984l1.432.385.357,1.43c.111.445.511.757.97.757s.859-.312.97-.757l.354-1.418,1.418-.354c.445-.111.757-.511.757-.97s-.313-.859-.757-.97ZM5.528,17.697c.285-.114.472-.39.472-.697s-.187-.583-.472-.697l-1.308-.523-.523-1.308c-.114-.285-.39-.472-.697-.472s-.583.187-.697.472l-.52,1.301-1.299.492c-.287.108-.479.381-.484.687-.005.307.176.586.459.705l1.318.556.526,1.316c.114.285.39.472.697.472s.583-.187.697-.472l.523-1.308,1.308-.523Zm6.472-12.697c1.381,0,2.5-1.119,2.5-2.5s-1.119-2.5-2.5-2.5-2.5,1.119-2.5,2.5,1.119,2.5,2.5,2.5Zm-6.233,4.673l.903-1.304c1.026-1.483,2.717-2.369,4.521-2.369h1.809c1.806,0,3.496.886,4.522,2.37l.884,1.276c.472.681.302,1.615-.38,2.087-.283.197-.611.281-.931.264v.502c0,.828-.672,1.5-1.5,1.5h-7c-.828,0-1.5-.672-1.5-1.5v-.476c-.032.002-.064.003-.097.003-.295,0-.593-.087-.854-.267-.681-.473-.851-1.407-.379-2.088Zm5.425-.673c-.385,0-.759.089-1.096.253v1.747h4v-1.747c-.337-.164-.71-.253-1.096-.253h-1.809Z"/></svg>
