<?xml version="1.0" encoding="UTF-8"?>
<svg xmlns="http://www.w3.org/2000/svg" id="Layer_1" data-name="Layer 1" viewBox="0 0 24 24" width="512" height="512"><path d="M8,14c-1.105,0-2-.895-2-2s.895-2,2-2,2,.895,2,2-.895,2-2,2Zm9-5.5c0-1.381-1.119-2.5-2.5-2.5s-2.5,1.119-2.5,2.5,1.119,2.5,2.5,2.5,2.5-1.119,2.5-2.5ZM12,0C5.383,0,0,5.383,0,12c0,3.159,1.218,6.142,3.429,8.398,.581,.593,1.53,.602,2.121,.021,.592-.58,.602-1.529,.021-2.121-1.658-1.692-2.571-3.929-2.571-6.298C3,7.038,7.037,3,12,3s9,4.038,9,9c0,3.809-2.411,7.22-6,8.488-.781,.276-1.19,1.133-.914,1.914,.218,.616,.796,1,1.414,1,.166,0,.335-.028,.5-.086,4.785-1.691,8-6.239,8-11.316C24,5.383,18.617,0,12,0Zm3,18.471c2.889-1.215,3.891-3.919,3.997-5.399,.001-.015-.006-.022-.007-.035,.01-.275-.083-.551-.297-.756-.396-.382-1.03-.372-1.414,.026-3.179,3.302-8.296,3.692-8.347,3.696-.527,.036-.919,.477-.921,.996h-.012v2.001c0,1.5,1,3,2.5,3s2.5-1.5,2.5-3v-1.847c.64-.214,1.314-.479,2-.812v2.13Z"/></svg>
