<?xml version="1.0" encoding="UTF-8"?>
<svg xmlns="http://www.w3.org/2000/svg" id="Layer_1" data-name="Layer 1" viewBox="0 0 24 24" width="512" height="512"><path d="m22.942,9.175l-3.18-5.448c-.982-1.682-2.803-2.727-4.75-2.727h-6.025c-1.947,0-3.768,1.045-4.751,2.728l-3.178,5.446c-1.005,1.72-.999,3.854.015,5.571l3.281,5.553c.984,1.667,2.799,2.702,4.735,2.702h5.82c1.937,0,3.751-1.035,4.735-2.702l3.282-5.554c1.013-1.716,1.019-3.85.015-5.57Zm-2.592,1.512s0,0,0,0c.059.101.11.206.154.313h-2.209l-2.351-4.027,1.09-1.942c.049.067.094.136.136.208l3.179,5.447Zm-10.036.313h-2.287l1.166-1.997,1.121,1.997Zm.605-3.009h2.162l-1.081,1.926-1.081-1.926Zm-.65,5.009l-1.069,1.905-1.126-1.905h2.195Zm1.731,1.003l1.116,1.989h-2.232l1.116-1.989Zm1.731-1.003h2.204l-1.13,1.913-1.074-1.913Zm-.045-2l1.125-2.005,1.17,2.005h-2.295Zm1.327-7c.1,0,.2.006.298.018l-1.107,1.973h-4.407l-1.107-1.973c.098-.012.198-.018.298-.018h6.025Zm-8.186,1.241c.042-.073.088-.143.137-.21l1.094,1.95-2.346,4.019h-2.218c.044-.107.095-.212.155-.313l3.178-5.446Zm-3.171,7.979c-.042-.072-.081-.145-.115-.219h2.211l2.316,3.921-1.083,1.929c-.017-.026-.033-.052-.049-.079l-3.28-5.553Zm5.434,6.781c-.147,0-.292-.013-.435-.039l1.106-1.97h4.477l1.106,1.97c-.142.025-.287.039-.434.039h-5.82Zm7.974-1.228c-.016.027-.032.053-.049.079l-1.079-1.922,2.322-3.929h2.201c-.034.074-.073.147-.115.219l-3.281,5.553Z"/></svg>
