<?xml version="1.0" encoding="UTF-8"?>
<svg xmlns="http://www.w3.org/2000/svg" id="Layer_1" data-name="Layer 1" viewBox="0 0 24 24" width="512" height="512"><path d="m23.23.771c-1.44-1.442-4.131-.847-7.999,1.766-1.014-.347-2.101-.536-3.231-.536C6.486,2,2,6.486,2,12c0,1.13.189,2.217.536,3.231C-.076,19.1-.671,21.789.771,23.23c.518.519,1.183.778,2.003.778,1.204,0,2.742-.561,4.642-1.685.439-.26.891-.548,1.353-.859,1.014.347,2.101.536,3.232.536,5.514,0,10-4.486,10-10,0-1.13-.189-2.218-.536-3.232.311-.462.598-.914.858-1.353,1.891-3.192,2.188-5.366.908-6.645Zm-11.23,4.229c2.555,0,4.795,1.377,6.017,3.428-1.143,1.529-2.627,3.269-4.474,5.116-1.847,1.847-3.587,3.331-5.116,4.474-2.05-1.222-3.427-3.462-3.427-6.017,0-3.86,3.141-7,7-7ZM3.014,20.999c.067-.452.355-1.355,1.174-2.764.465.581.993,1.109,1.574,1.575-1.251.736-2.205,1.124-2.748,1.189Zm9.01-1.999c1.208-1.008,2.436-2.131,3.64-3.335,1.204-1.204,2.328-2.432,3.336-3.64-.013,3.841-3.136,6.962-6.976,6.975Zm6.211-14.812c1.409-.819,2.312-1.107,2.764-1.174-.065.543-.454,1.497-1.189,2.749-.465-.581-.993-1.109-1.574-1.574Z"/></svg>
