<?xml version="1.0" encoding="UTF-8"?>
<svg xmlns="http://www.w3.org/2000/svg" id="Layer_1" data-name="Layer 1" viewBox="0 0 24 24" width="512" height="512"><path d="M10.36,23c-1.36,0-2.58-.81-3.1-2.07-.52-1.25-.24-2.69,.72-3.65l1.17-1.17L2.12,9.09c-1.36-1.36-1.36-3.58,0-4.95l2.12-2.12c1.37-1.36,3.59-1.36,4.95,0l7.02,7.02,1.06-1.06c.97-.96,2.4-1.24,3.66-.72,1.25,.52,2.06,1.74,2.06,3.1v8.35c0,2.36-1.92,4.28-4.28,4.28H10.36s0,0,0,0ZM6.72,3.99c-.13,0-.26,.05-.35,.15l-2.12,2.12c-.12,.12-.14,.28-.14,.35s.02,.23,.14,.35L12.33,15.05c.59,.59,.59,1.54,0,2.12l-2.22,2.22c-.11,.11-.13,.24-.07,.38,.06,.15,.17,.22,.33,.22h8.35c.71,0,1.28-.58,1.28-1.29V10.36c0-.16-.07-.27-.22-.33-.15-.06-.27-.03-.39,.08l-2.12,2.12c-.59,.59-1.54,.59-2.12,0L7.08,4.14c-.1-.1-.23-.15-.35-.15Z"/></svg>
