<?xml version="1.0" encoding="UTF-8"?>
<svg xmlns="http://www.w3.org/2000/svg" id="Layer_1" data-name="Layer 1" viewBox="0 0 24 24" width="512" height="512"><path d="M23.987,11.43c.039,.828-.601,1.53-1.428,1.569-.834,.049-1.53-.601-1.569-1.428-.225-4.806-4.174-8.57-8.99-8.57C7.038,3,3,7.038,3,12s4.038,9,9,9c.725,0,1.446-.086,2.145-.257,.807-.198,1.616,.298,1.813,1.102,.196,.805-.297,1.617-1.102,1.813-.931,.227-1.892,.342-2.855,.342C5.383,24,0,18.617,0,12S5.383,0,12,0c6.421,0,11.687,5.021,11.987,11.43Zm-5.987-2.43c0-1.105-.895-2-2-2s-2,.895-2,2,.895,2,2,2,2-.895,2-2Zm-10,2c1.105,0,2-.895,2-2s-.895-2-2-2-2,.895-2,2,.895,2,2,2Zm10.927,3.269c-.738,.874-1.927,2.861-1.927,4.231,0,1.381,1.119,2.5,2.5,2.5s2.5-1.119,2.5-2.5c0-1.403-1.184-3.372-1.922-4.235-.303-.355-.849-.353-1.151,.004Zm-6.927,3.731c.634,0,1.285-.099,1.934-.295,.793-.239,1.242-1.076,1.002-1.87-.239-.793-1.076-1.241-1.87-1.002-.367,.111-.726,.167-1.066,.167-1.817,0-3.432-1.554-3.443-1.564-.587-.584-1.539-.58-2.121,.008-.583,.588-.58,1.538,.008,2.121,.1,.1,2.488,2.436,5.557,2.436Z"/></svg>
