<?xml version="1.0" encoding="UTF-8"?>
<svg xmlns="http://www.w3.org/2000/svg" id="Layer_1" data-name="Layer 1" viewBox="0 0 24 24" width="512" height="512"><path d="M.015,11.428C.321,5.026,5.586,.012,12,.012s11.679,5.015,11.985,11.416c.04,.828-.599,1.531-1.426,1.57-.024,0-.049,.002-.073,.002-.796,0-1.459-.625-1.497-1.428-.23-4.801-4.179-8.561-8.989-8.561S3.241,6.771,3.011,11.572c-.039,.827-.717,1.46-1.57,1.426-.827-.039-1.466-.742-1.426-1.57Zm12.424,9.562c-.291,.012-.586,.012-.877,0-.826-.056-1.526,.61-1.561,1.438s.609,1.526,1.438,1.561c.187,.008,.373,.012,.562,.012s.375-.004,.562-.012c.828-.034,1.472-.733,1.438-1.561-.034-.828-.745-1.494-1.561-1.438Zm2.344-12.367c.622-.78,1.452-1.458,2.065-1.686,.519-.192,.782-.768,.59-1.285-.191-.518-.769-.785-1.285-.59-1.436,.533-2.609,1.906-2.935,2.314-.344,.432-.273,1.061,.159,1.405,.184,.146,.404,.218,.622,.218,.294,0,.586-.129,.783-.377Zm-5.564,0c.197,.248,.489,.377,.783,.377,.218,0,.438-.071,.622-.218,.433-.345,.503-.974,.159-1.405-.325-.408-1.499-1.781-2.935-2.314-.515-.194-1.094,.071-1.285,.59-.192,.518,.071,1.093,.59,1.285,.613,.228,1.443,.905,2.065,1.686Zm-3.218,2.877c0,.828,.672,1.5,1.5,1.5h2c.828,0,1.5-.672,1.5-1.5s-.672-1.5-1.5-1.5h-2c-.828,0-1.5,.672-1.5,1.5Zm8.5,1.5h2c.828,0,1.5-.672,1.5-1.5s-.672-1.5-1.5-1.5h-2c-.828,0-1.5,.672-1.5,1.5s.672,1.5,1.5,1.5Zm-5.309,1.053c-1.331,.595-3.06,1.392-4.417,2.098-.321-.672-.979-1.151-1.774-1.151-1.105,0-2,.895-2,2,0,.415,.126,.8,.343,1.12-.78,.273-1.343,1.007-1.343,1.88,0,1.105,.895,2,2,2,.017,0,.033-.005,.05-.005,.23,1.143,1.239,2.005,2.45,2.005s2.22-.862,2.45-2.005c.017,0,.033,.005,.05,.005,1.105,0,2-.895,2-2,0-.959-.676-1.759-1.578-1.953,.817-1.018,1.726-2.181,2.454-3.121,.365-.471-.141-1.115-.685-.872Zm13.466,4.067c.216-.32,.343-.705,.343-1.12,0-1.105-.895-2-2-2-.795,0-1.453,.479-1.774,1.151-1.357-.707-3.086-1.504-4.417-2.098-.544-.243-1.049,.401-.685,.872,.728,.94,1.637,2.103,2.454,3.121-.901,.194-1.578,.994-1.578,1.953,0,1.105,.895,2,2,2,.017,0,.033-.005,.05-.005,.23,1.143,1.239,2.005,2.45,2.005s2.22-.862,2.45-2.005c.017,0,.033,.005,.05,.005,1.105,0,2-.895,2-2,0-.873-.563-1.608-1.343-1.88Z"/></svg>
