<?xml version="1.0" encoding="UTF-8"?>
<svg xmlns="http://www.w3.org/2000/svg" id="Layer_1" data-name="Layer 1" viewBox="0 0 24 24" width="512" height="512"><path d="m6,20c0,.486-.349.937-.795,1.029-.687.137-1.205.743-1.205,1.471,0,.828.672,1.5,1.5,1.5h13c.828,0,1.5-.672,1.5-1.5,0-.727-.518-1.334-1.205-1.471-.446-.092-.795-.543-.795-1.029,0-.513.826-.927.862-.952,1.832-1.287,4.19-3.489,5.022-6.668.276-1.059.052-2.163-.617-3.029s-1.68-1.364-2.774-1.364h-1.729s4.504-3.719,4.504-3.719c.976-.976.976-2.559,0-3.536s-2.559-.976-3.536,0l-5.997,7.26-10.235.008c-1.094,0-2.104.497-2.773,1.364s-.894,1.971-.617,3.029c.827,3.162,3.191,5.364,5.028,6.655.036.025.862.414.862.952m14.982-8.38c-.466,1.781-1.812,3.533-3.796,4.938-1.266.752-1.816,1.673-2.041,2.441h-6.29c-.226-.768-.775-1.689-2.041-2.441-1.419-1.006-3.211-2.668-3.802-4.925-.055-.208.033-.363.09-.437.057-.073.184-.197.399-.197l16.993-.013c.215,0,.342.124.398.197.057.074.145.229.09.437Z"/></svg>
