<?xml version="1.0" encoding="UTF-8"?>
<svg xmlns="http://www.w3.org/2000/svg" id="Layer_1" data-name="Layer 1" viewBox="0 0 24 24">
  <path d="m21,3.5c0-.828.672-1.5,1.5-1.5s1.5.672,1.5,1.5-.672,1.5-1.5,1.5-1.5-.672-1.5-1.5ZM2,6h-.5c-.829,0-1.5.672-1.5,1.5s.671,1.5,1.5,1.5h.5c.551,0,1,.448,1,1s-.449,1-1,1h-.5c-.829,0-1.5.672-1.5,1.5s.671,1.5,1.5,1.5h.5c.551,0,1,.448,1,1s-.449,1-1,1h-.5c-.829,0-1.5.672-1.5,1.5s.671,1.5,1.5,1.5h.5c2.206,0,4-1.794,4-4,0-.945-.33-1.815-.88-2.5.55-.685.88-1.555.88-2.5,0-2.206-1.794-4-4-4Zm13,9c0,2.206-1.794,4-4,4s-4-1.794-4-4v-4.167c0-2.665,2.168-4.833,4.833-4.833h.667c.829,0,1.5.672,1.5,1.5s-.671,1.5-1.5,1.5h-.667c-1.011,0-1.833.822-1.833,1.833v.294c.32-.083.655-.127,1-.127,2.206,0,4,1.794,4,4Zm-3,0c0-.552-.449-1-1-1s-1,.448-1,1,.449,1,1,1,1-.448,1-1Zm12-5v5c0,2.206-1.794,4-4,4s-4-1.794-4-4v-5c0-2.206,1.794-4,4-4s4,1.794,4,4Zm-3,0c0-.552-.449-1-1-1s-1,.448-1,1v5c0,.552.449,1,1,1s1-.448,1-1v-5Z"/>
</svg>
