<?xml version="1.0" encoding="UTF-8"?>
<svg xmlns="http://www.w3.org/2000/svg" id="Layer_1" data-name="Layer 1" viewBox="0 0 24 24" width="512" height="512"><path d="m17.5,3h-4.5v-.5c0-.829-.671-1.5-1.5-1.5s-1.5.671-1.5,1.5v.5h-2v-1.5c0-.829-.671-1.5-1.5-1.5s-1.5.671-1.5,1.5v1.757c-1.746.619-3,2.287-3,4.243v4.597c0,1.244.428,2.464,1.205,3.436l.685.856c.071.088.11.199.11.312v1.798c0,3.033,2.467,5.5,5.5,5.5h5c3.033,0,5.5-2.467,5.5-5.5v-1.798c0-.113.039-.224.11-.312l.685-.856c.777-.972,1.205-2.192,1.205-3.436v-4.597c0-2.481-2.019-4.5-4.5-4.5Zm1.5,9.097c0,.565-.195,1.12-.548,1.562l-.685.856c-.495.618-.767,1.395-.767,2.187v1.798c0,1.378-1.122,2.5-2.5,2.5h-5c-1.378,0-2.5-1.122-2.5-2.5v-1.798c0-.792-.272-1.568-.767-2.187l-.685-.856c-.353-.442-.548-.997-.548-1.562v-4.597c0-.827.673-1.5,1.5-1.5h11c.827,0,1.5.673,1.5,1.5v4.597Zm-2-3.097v2c0,.552-.448,1-1,1h-8c-.552,0-1-.448-1-1v-2c0-.552.448-1,1-1h8c.552,0,1,.448,1,1Z"/></svg>
