<?xml version="1.0" encoding="UTF-8"?>
<svg xmlns="http://www.w3.org/2000/svg" id="Layer_1" data-name="Layer 1" viewBox="0 0 24 24" width="512" height="512"><path d="M17.898,10.194l.63-1.212c.531-1.023,.628-2.191,.271-3.289-.349-1.074-1.089-1.948-2.088-2.468,0,0-2.753-1.687-2.784-1.703C8.407-1.345,4.256,.476,2.273,1.818c-.861,.583-1.337,1.549-1.273,2.583,.063,1.027,.65,1.921,1.532,2.369l4.251,2.32L.209,21.107c-.485,.976-.099,2.161,.868,2.664,.993,.516,2.215,.117,2.712-.885l6.497-11.883,1.881,1.026c.617,.314,1.276,.464,1.927,.464,1.546,0,3.044-.84,3.803-2.299Zm-2.032-2.596l-.63,1.211c-.32,.62-1.089,.864-1.668,.567L4.097,4.207c1.754-1.135,4.595-2.006,8.402-.047,0,0,2.769,1.695,2.808,1.715,.307,.153,.534,.418,.641,.744,.105,.327,.077,.675-.081,.979Zm8.127-1.102h0c0,.829-.671,1.5-1.5,1.5s-1.5-.671-1.5-1.5h0c0-.829,.672-1.5,1.5-1.5s1.5,.671,1.5,1.5Zm-4.318,7.075c.511,.652,.396,1.595-.256,2.105h0c-.652,.511-1.595,.396-2.105-.256h0c-.511-.653-.396-1.595,.256-2.106h0c.652-.511,1.595-.396,2.105,.256h0Zm3.125-1.838h0c-.407,.722-1.321,.977-2.043,.57h0c-.722-.407-.977-1.322-.57-2.043h0c.407-.722,1.321-.977,2.043-.57h0c.722,.407,.977,1.322,.57,2.043Z"/></svg>
