<?xml version="1.0" encoding="UTF-8"?>
<svg xmlns="http://www.w3.org/2000/svg" id="Layer_1" data-name="Layer 1" viewBox="0 0 24 24">
  <path d="m17.5,2H6.5C2.916,2,0,4.916,0,8.5v7c0,3.584,2.916,6.5,6.5,6.5h11c3.584,0,6.5-2.916,6.5-6.5v-7c0-3.584-2.916-6.5-6.5-6.5Zm3.5,13.5c0,1.93-1.57,3.5-3.5,3.5H6.5c-1.93,0-3.5-1.57-3.5-3.5v-7c0-1.93,1.57-3.5,3.5-3.5h11c1.93,0,3.5,1.57,3.5,3.5v7Zm-10-7.5v8c0,.552-.448,1-1,1s-1-.448-1-1v-3h-2v3c0,.552-.448,1-1,1s-1-.448-1-1v-8c0-.552.448-1,1-1s1,.448,1,1v3h2v-3c0-.552.448-1,1-1s1,.448,1,1Zm4.5-1h-.5c-1.103,0-2,.897-2,2v6c0,1.103.897,2,2,2h.5c1.93,0,3.5-1.57,3.5-3.5v-3c0-1.93-1.57-3.5-3.5-3.5Zm1.5,6.5c0,.827-.673,1.5-1.5,1.5h-.5s0-6,0-6h.5c.827,0,1.5.673,1.5,1.5v3Z"/>
</svg>
