<?xml version="1.0" encoding="UTF-8"?>
<svg xmlns="http://www.w3.org/2000/svg" id="Layer_1" data-name="Layer 1" viewBox="0 0 24 24" width="512" height="512"><path d="M23.52,16.6l-2.59,2.41c-.62,.62-1.5,.99-2.44,.99s-1.81-.36-2.48-1.03l-2.55-2.38c-.61-.57-.64-1.51-.07-2.12,.57-.61,1.52-.64,2.12-.07l1.48,1.38v-6.28c0-1.38-1.12-2.5-2.5-2.5h-1c-.83,0-1.5-.67-1.5-1.5s.67-1.5,1.5-1.5h1c3.03,0,5.5,2.47,5.5,5.5v6.28l1.48-1.38c.6-.57,1.55-.53,2.12,.07,.56,.61,.53,1.55-.07,2.12Zm-13.02,.4h-1c-1.38,0-2.5-1.12-2.5-2.5v-6.28l1.48,1.38c.29,.27,.66,.4,1.02,.4,.4,0,.8-.16,1.1-.48,.56-.61,.53-1.55-.07-2.12l-2.55-2.38c-.66-.66-1.54-1.03-2.48-1.03s-1.81,.36-2.44,.99L.48,7.4c-.61,.57-.64,1.51-.07,2.12s1.51,.64,2.12,.07l1.48-1.38v6.28c0,3.03,2.47,5.5,5.5,5.5h1c.83,0,1.5-.67,1.5-1.5s-.67-1.5-1.5-1.5Z"/></svg>
