<?xml version="1.0" encoding="UTF-8"?>
<svg xmlns="http://www.w3.org/2000/svg" id="Layer_1" data-name="Layer 1" viewBox="0 0 24 24" width="512" height="512"><path d="M18.5,24H5.5c-3.033,0-5.5-2.468-5.5-5.5V5.5C0,2.467,2.467,0,5.5,0h13c3.032,0,5.5,2.467,5.5,5.5v13c0,3.032-2.468,5.5-5.5,5.5ZM5.5,3c-1.378,0-2.5,1.122-2.5,2.5v13c0,1.379,1.122,2.5,2.5,2.5h13c1.379,0,2.5-1.121,2.5-2.5V5.5c0-1.378-1.121-2.5-2.5-2.5H5.5Zm4.499,16c-.252,0-.508-.063-.744-.198-.719-.411-.968-1.327-.557-2.047l5.009-8.755h-5.207c-.829,0-1.5-.671-1.5-1.5s.671-1.5,1.5-1.5h5.898c.907,0,1.734,.461,2.212,1.233,.477,.771,.52,1.717,.114,2.529l-5.423,9.483c-.277,.483-.783,.755-1.303,.755Z"/></svg>
