<?xml version="1.0" encoding="UTF-8"?>
<svg xmlns="http://www.w3.org/2000/svg" id="Layer_1" data-name="Layer 1" viewBox="0 0 24 24" width="512" height="512"><path d="m12.984,10.208l-2.071,1.104c.052.222.087.45.087.687s-.034.466-.087.687l2.071,1.104c.533-.487,1.237-.792,2.016-.792,1.657,0,3,1.343,3,3s-1.343,3-3,3-3-1.343-3-3c0-.152.023-.297.045-.443l-2.225-1.187c-.506.389-1.132.63-1.819.63-1.657,0-3-1.343-3-3s1.343-3,3-3c.688,0,1.313.24,1.819.63l2.225-1.187c-.022-.146-.045-.291-.045-.443,0-1.657,1.343-3,3-3s3,1.343,3,3-1.343,3-3,3c-.779,0-1.482-.305-2.016-.792Zm11.016-4.708v13c0,3.033-2.468,5.5-5.5,5.5H5.5c-3.032,0-5.5-2.467-5.5-5.5V5.5C0,2.467,2.468,0,5.5,0h13c3.032,0,5.5,2.467,5.5,5.5Zm-3,0c0-1.378-1.121-2.5-2.5-2.5H5.5c-1.379,0-2.5,1.122-2.5,2.5v13c0,1.378,1.121,2.5,2.5,2.5h13c1.379,0,2.5-1.122,2.5-2.5V5.5Z"/></svg>
