<?xml version="1.0" encoding="UTF-8"?>
<svg xmlns="http://www.w3.org/2000/svg" id="Layer_1" data-name="Layer 1" viewBox="0 0 24 24" width="512" height="512"><path d="M23.32,6.35c-.67-.86-1.67-1.35-2.76-1.35H8.48l-.26-1.96c-.23-1.73-1.72-3.04-3.47-3.04h-.25c-.83,0-1.5,.67-1.5,1.5s.67,1.5,1.5,1.5h.25c.25,0,.46,.19,.5,.43l1.54,11.53c.23,1.73,1.72,3.04,3.47,3.04h7.25c2.53,0,4.72-1.71,5.34-4.17l1.12-4.49c.26-1.05,.03-2.15-.64-3Zm-2.27,2.27l-1.12,4.49c-.28,1.11-1.28,1.89-2.43,1.89h-7.25c-.25,0-.46-.19-.5-.43l-.88-6.57h11.68c.21,0,.34,.12,.39,.19,.06,.07,.14,.22,.09,.43ZM0,7.5c0-.83,.67-1.5,1.5-1.5h1c.83,0,1.5,.67,1.5,1.5s-.67,1.5-1.5,1.5H1.5c-.83,0-1.5-.67-1.5-1.5ZM5,15.5c0,.83-.67,1.5-1.5,1.5H1.5c-.83,0-1.5-.67-1.5-1.5s.67-1.5,1.5-1.5H3.5c.83,0,1.5,.67,1.5,1.5Zm6,6.5c0,1.1-.9,2-2,2s-2-.9-2-2,.9-2,2-2,2,.9,2,2Zm9,0c0,1.1-.9,2-2,2s-2-.9-2-2,.9-2,2-2,2,.9,2,2ZM0,11.5c0-.83,.67-1.5,1.5-1.5h1.46c.83,0,1.5,.67,1.5,1.5s-.67,1.5-1.5,1.5H1.5c-.83,0-1.5-.67-1.5-1.5Z"/></svg>
