<?xml version="1.0" encoding="UTF-8"?>
<svg xmlns="http://www.w3.org/2000/svg" id="Layer_1" data-name="Layer 1" viewBox="0 0 24 24" width="512" height="512"><path d="M18.5,0H5.5C2.467,0,0,2.467,0,5.5v13c0,3.033,2.467,5.5,5.5,5.5h13c3.033,0,5.5-2.467,5.5-5.5V5.5c0-3.033-2.467-5.5-5.5-5.5Zm2.5,18.5c0,1.378-1.122,2.5-2.5,2.5H5.5c-1.378,0-2.5-1.122-2.5-2.5V5.5c0-1.378,1.122-2.5,2.5-2.5h13c1.378,0,2.5,1.122,2.5,2.5v13Zm-4-11.5v2.769c0,2.234-1.474,4.131-3.5,4.77v1.461h1c.829,0,1.5,.671,1.5,1.5s-.671,1.5-1.5,1.5h-5c-.829,0-1.5-.671-1.5-1.5s.671-1.5,1.5-1.5h1v-1.464c-2.071-.673-3.5-2.728-3.5-4.99v-2.546c0-1.105,.895-2,2-2h1.783s-1.689,2.838-1.713,2.917c-.147,.487-.055,1.021,.249,1.43s.788,.653,1.297,.653h2.068l-1.032,1.473c-.291,.469-.146,1.086,.323,1.377,.164,.102,.346,.15,.526,.15,.334,0,.662-.168,.851-.473l1.38-2.037c.327-.493,.357-1.123,.077-1.645s-.821-.846-1.413-.846h-2.079l1.798-3h1.885c1.105,0,2,.895,2,2Z"/></svg>
