<?xml version="1.0" encoding="UTF-8"?>
<svg xmlns="http://www.w3.org/2000/svg" id="Layer_1" data-name="Layer 1" viewBox="0 0 24 24" width="512" height="512"><path d="M19.5,0H4.5C2.02,0,0,2.02,0,4.5V15.51c0,2.48,2.02,4.5,4.5,4.5h2.46l3.41,2.88c.47,.42,1.06,.62,1.64,.62s1.14-.2,1.58-.59l3.52-2.91h2.39c2.48,0,4.5-2.02,4.5-4.5V4.5c0-2.48-2.02-4.5-4.5-4.5Zm1.5,15.51c0,.83-.67,1.5-1.5,1.5h-2.93c-.35,0-.69,.12-.96,.34l-3.61,2.99-3.53-2.98c-.27-.23-.61-.35-.97-.35h-3c-.83,0-1.5-.67-1.5-1.5V4.5c0-.83,.67-1.5,1.5-1.5h15c.83,0,1.5,.67,1.5,1.5V15.51Zm-5-3.12c0,1.45-1.18,2.62-2.62,2.62h-.38c0,.55-.45,1-1,1s-1-.45-1-1h-.27c-1.07,0-2.06-.57-2.6-1.5-.28-.48-.11-1.09,.36-1.37,.48-.28,1.09-.11,1.37,.36,.18,.31,.51,.5,.87,.5h2.64c.34,0,.62-.28,.62-.62,0-.31-.22-.57-.52-.62l-3.29-.55c-1.27-.21-2.19-1.3-2.19-2.59,0-1.45,1.18-2.62,2.62-2.62h.38c0-.55,.45-1,1-1s1,.45,1,1h.27c1.07,0,2.06,.57,2.6,1.5,.28,.48,.11,1.09-.36,1.37-.48,.28-1.09,.11-1.37-.36-.18-.31-.51-.5-.87-.5h-2.64c-.34,0-.62,.28-.62,.62,0,.31,.22,.57,.52,.62l3.29,.55c1.27,.21,2.19,1.3,2.19,2.59Z"/></svg>
