<?xml version="1.0" encoding="UTF-8"?>
<svg xmlns="http://www.w3.org/2000/svg" id="Layer_1" data-name="Layer 1" viewBox="0 0 24 24" width="512" height="512"><path d="m23.561,21.439l-2.561-2.56V5.5c0-2.481-2.019-4.5-4.5-4.5H7.5c-1.179,0-2.292.458-3.121,1.258L2.561.44C1.975-.146,1.025-.146.439.44S-.146,1.976.439,2.561l21,21c.293.293.677.439,1.061.439s.768-.146,1.061-.439c.586-.586.586-1.535,0-2.121ZM7.5,4h9c.827,0,1.5.673,1.5,1.5v10.379L6.502,4.381c.272-.243.625-.38.998-.38Zm4.112,14.506l-3.178,3.512c-.623.659-1.452,1.007-2.299,1.007-.389,0-.781-.073-1.159-.223-1.201-.478-1.977-1.621-1.977-2.913v-8.389c0-.829.671-1.5,1.5-1.5s1.5.671,1.5,1.5v8.389c0,.041,0,.091.085.125.085.035.119-.003.146-.032l3.156-3.489c.557-.614,1.504-.662,2.119-.105.614.556.662,1.505.106,2.119Z"/></svg>
