<?xml version="1.0" encoding="UTF-8"?>
<svg xmlns="http://www.w3.org/2000/svg" id="Layer_1" data-name="Layer 1" viewBox="0 0 24 24" width="512" height="512"><path d="M13.5,18h-3c-1.379,0-2.5-1.121-2.5-2.5v-3c0-1.379,1.121-2.5,2.5-2.5h3c1.379,0,2.5,1.121,2.5,2.5v3c0,1.379-1.121,2.5-2.5,2.5Zm-2.5-3h2v-2h-2v2Zm7.5,9H5.5c-3.032,0-5.5-2.468-5.5-5.5V9.886c0-1.83,.906-3.534,2.424-4.559L8.924,.941c1.867-1.262,4.284-1.262,6.153,0l6.499,4.386c1.518,1.024,2.424,2.729,2.424,4.559v8.614c0,3.032-2.468,5.5-5.5,5.5ZM12,2.997c-.486,0-.974,.144-1.397,.431L4.102,7.813c-.689,.466-1.102,1.24-1.102,2.072v8.614c0,1.379,1.121,2.5,2.5,2.5h13c1.379,0,2.5-1.121,2.5-2.5V9.886c0-.832-.412-1.606-1.102-2.072L13.398,3.428c-.425-.287-.912-.431-1.398-.431Z"/></svg>
