<?xml version="1.0" encoding="UTF-8"?>
<svg xmlns="http://www.w3.org/2000/svg" id="Layer_1" data-name="Layer 1" viewBox="0 0 24 24" width="512" height="512"><path d="M12,0C5.383,0,0,5.383,0,12s5.383,12,12,12,12-5.383,12-12S18.617,0,12,0Zm0,21c-4.963,0-9-4.037-9-9S7.037,3,12,3s9,4.037,9,9-4.037,9-9,9Zm6.962-12.726c-.126,.439-.526,.726-.961,.726-.092,0-.184-.013-.275-.038-1.403-.401-2.793-1.336-3.539-2.381-.321-.449-.217-1.074,.232-1.395,.449-.322,1.073-.218,1.395,.232,.484,.678,1.497,1.344,2.461,1.619,.531,.152,.839,.705,.688,1.236Zm-12.688,.688c-.092,.025-.184,.038-.275,.038-.435,0-.835-.286-.961-.726-.151-.531,.156-1.084,.688-1.236,.964-.275,1.977-.941,2.461-1.619,.321-.449,.946-.554,1.395-.232,.449,.32,.554,.945,.232,1.395-.746,1.045-2.136,1.979-3.539,2.381Zm2.126,6.738c-.271,.202-.586,.3-.899,.3-.456,0-.906-.207-1.201-.6-.497-.663-.362-1.604,.3-2.101l.4-.3-.4-.3c-.662-.497-.797-1.438-.3-2.101,.498-.662,1.438-.795,2.101-.3l2,1.5c.377,.283,.6,.729,.6,1.2s-.223,.917-.6,1.2l-2,1.5Zm9-3l-.4,.3,.4,.3c.662,.497,.797,1.438,.3,2.101-.295,.393-.745,.6-1.201,.6-.313,0-.629-.098-.899-.3l-2-1.5c-.377-.283-.6-.729-.6-1.2s.223-.917,.6-1.2l2-1.5c.665-.495,1.604-.362,2.101,.3,.497,.663,.362,1.604-.3,2.101Zm-1.559,5.971c-.263,.525-.793,.829-1.343,.829-.226,0-.454-.051-.67-.158,0,0-.743-.342-1.829-.342-1.092,0-1.837,.346-1.844,.349-.746,.354-1.638,.042-1.997-.697-.359-.738-.065-1.625,.67-1.993,.135-.067,1.369-.658,3.171-.658s3.036,.591,3.171,.658c.741,.371,1.041,1.271,.671,2.013Z"/></svg>
