<?xml version="1.0" encoding="UTF-8"?>
<svg xmlns="http://www.w3.org/2000/svg" id="Layer_1" data-name="Layer 1" viewBox="0 0 24 24" width="512" height="512"><path d="M16.628,12.778c-.155,.125-1.601,1.222-4.628,1.222s-4.473-1.097-4.628-1.222c-.43-.347-.497-.977-.15-1.406,.346-.427,.967-.495,1.395-.159,.042,.031,1.108,.787,3.383,.787,2.312,0,3.374-.78,3.385-.788,.437-.33,1.062-.252,1.397,.178s.271,1.045-.154,1.388ZM1.229,11.71c.812,.148,1.596-.389,1.746-1.204C3.774,6.157,7.569,3,12,3s8.226,3.157,9.025,7.506c.133,.723,.763,1.229,1.473,1.229,.09,0,.181-.008,.273-.025,.815-.149,1.354-.931,1.204-1.746C22.915,4.19,17.879,0,12,0S1.085,4.19,.025,9.964c-.15,.815,.389,1.597,1.204,1.746Zm21.366,6.482l-1.84,1.84-.985-.985,3.631-3.631c.323-.323,.323-.847,0-1.171-.323-.323-.847-.323-1.171,0l-3.697,3.697-1.002-1.002,3.024-3.024c.323-.323,.323-.847,0-1.171s-.847-.323-1.171,0l-4.377,4.377v-1.119c0-.552-.448-1-1-1s-1,.448-1,1v3.58c0,.811,.186,1.625,.612,2.316,.863,1.401,2.292,2.102,3.722,2.102,1.11,0,2.219-.422,3.064-1.267,0,0,3.424-3.441,3.426-3.47,.24-.324,.228-.777-.066-1.071-.323-.323-.847-.323-1.171,0Zm-12.595-3.189c-.552,0-1,.448-1,1v1.119l-4.377-4.377c-.323-.323-.847-.323-1.171,0s-.323,.847,0,1.171l3.024,3.024-1.002,1.002-3.697-3.697c-.323-.323-.847-.323-1.171,0-.323,.323-.323,.847,0,1.171l3.631,3.631-.985,.985-1.84-1.84c-.323-.323-.847-.323-1.171,0-.294,.294-.042,1.139,.026,1.207l3.334,3.334c.845,.845,1.954,1.267,3.064,1.267,1.43,0,2.858-.701,3.722-2.102,.425-.69,.612-1.505,.612-2.316v-3.58c0-.552-.448-1-1-1Zm-2-9.502c-1.536,0-2.535,1.36-2.923,2.526-.262,.786,.163,1.635,.949,1.897,.787,.264,1.635-.162,1.897-.949,.016-.047,.043-.11,.078-.178,.03,.062,.057,.123,.077,.178,.209,.629,.794,1.026,1.423,1.026,.157,0,.317-.025,.474-.078,.786-.262,1.211-1.111,.949-1.897-.388-1.166-1.387-2.526-2.923-2.526Zm8,0c-1.536,0-2.535,1.36-2.923,2.526-.262,.786,.163,1.635,.949,1.897,.788,.264,1.635-.162,1.897-.949,.016-.047,.043-.11,.078-.178,.03,.062,.057,.123,.077,.178,.209,.629,.794,1.026,1.423,1.026,.157,0,.317-.025,.474-.078,.786-.262,1.211-1.111,.949-1.897-.388-1.166-1.387-2.526-2.923-2.526Z"/></svg>
