<?xml version="1.0" encoding="UTF-8"?>
<svg xmlns="http://www.w3.org/2000/svg" id="Layer_1" data-name="Layer 1" viewBox="0 0 24 24" width="512" height="512"><path d="m15,4.5c0-.829.672-1.5,1.5-1.5h1.5v-1.5c0-.829.672-1.5,1.5-1.5s1.5.671,1.5,1.5v1.5h1.5c.828,0,1.5.671,1.5,1.5s-.672,1.5-1.5,1.5h-1.5v1.5c0,.829-.672,1.5-1.5,1.5s-1.5-.671-1.5-1.5v-1.5h-1.5c-.828,0-1.5-.671-1.5-1.5Zm7.935,11.6c.701.7,1.065,1.579,1.065,2.514,0,.916-.349,1.777-.984,2.433,0,0-.93,1.067-.954,1.092-1.199,1.201-2.819,1.862-4.562,1.862C9.977,24,0,14.023,0,6.5c0-1.743.662-3.363,1.863-4.562.024-.024,1.091-.954,1.091-.954,1.367-1.324,3.556-1.309,4.907.042l2.152,2.318c.622.62.986,1.499.986,2.434s-.364,1.814-1.025,2.475l-.389.395c1.274,2.677,3.169,4.578,5.756,5.776l.41-.403c1.322-1.318,3.625-1.315,4.945.005l2.237,2.074Zm-1.935,2.514c0-.077-.019-.226-.146-.353l-2.237-2.075c-.168-.167-.316-.186-.395-.186-.077,0-.226.019-.354.146l-1.135,1.117c-.418.413-1.039.541-1.587.332-4.1-1.564-7.038-4.498-8.732-8.717-.223-.553-.096-1.186.322-1.611l1.108-1.127c.137-.136.155-.285.155-.362s-.019-.226-.146-.353l-2.152-2.319c-.155-.155-.472-.154-.668.041-.024.024-1.083.948-1.083.948-.613.629-.95,1.481-.95,2.405,0,6.399,8.99,14.5,14.5,14.5.924,0,1.776-.337,2.405-.95,0,0,.924-1.06.948-1.084.128-.127.146-.276.146-.353Z"/></svg>
