<?xml version="1.0" encoding="UTF-8"?>
<svg xmlns="http://www.w3.org/2000/svg" id="Layer_1" data-name="Layer 1" viewBox="0 0 24 24">
  <path d="m19.5,0h-10c-2.481,0-4.5,2.019-4.5,4.5v9c0,2.481,2.019,4.5,4.5,4.5h10c2.481,0,4.5-2.019,4.5-4.5V4.5c0-2.481-2.019-4.5-4.5-4.5Zm-.5,8h2v2h-2v-2Zm2-3.5v.5h-2v-2h.5c.827,0,1.5.673,1.5,1.5Zm-13,3.5h2v2h-2v-2Zm1.5-5h.5v2h-2v-.5c0-.827.673-1.5,1.5-1.5Zm-1.5,10.5v-.5h2v2h-.5c-.827,0-1.5-.673-1.5-1.5Zm5,1.5V3h3v12h-3Zm6.5,0h-.5v-2h2v.5c0,.827-.673,1.5-1.5,1.5Zm-1.5,6.5c0,.828-.671,1.5-1.5,1.5H5.5c-3.033,0-5.5-2.468-5.5-5.5v-8c0-.828.671-1.5,1.5-1.5s1.5.672,1.5,1.5v8c0,1.379,1.122,2.5,2.5,2.5h11c.829,0,1.5.672,1.5,1.5Z"/>
</svg>
