<?xml version="1.0" encoding="UTF-8"?>
<svg xmlns="http://www.w3.org/2000/svg" id="Layer_1" data-name="Layer 1" viewBox="0 0 24 24" width="512" height="512"><path d="M23.56,17.56l-1.94,1.95,1.94,1.93c.59,.58,.59,1.53,0,2.12-.29,.29-.68,.44-1.06,.44s-.77-.15-1.06-.44l-1.94-1.93-1.91,1.92c-.29,.29-.68,.44-1.06,.44s-.77-.15-1.06-.44c-.59-.58-.59-1.53,0-2.12l1.91-1.92-1.94-1.93c-.59-.58-.59-1.53,0-2.12,.58-.59,1.54-.59,2.12,0l1.94,1.93,1.94-1.95c.58-.59,1.54-.59,2.12,0,.59,.58,.59,1.53,0,2.12ZM18.5,3h-5.53c-.08,0-.15-.02-.22-.05l-3.16-1.58c-.48-.24-1.02-.37-1.56-.37h-2.53C2.47,1,0,3.47,0,6.5v11c0,3.03,2.47,5.5,5.5,5.5h6c.83,0,1.5-.67,1.5-1.5s-.67-1.5-1.5-1.5H5.5c-1.38,0-2.5-1.12-2.5-2.5V8H20.95c.03,.16,.05,.33,.05,.5v3c0,.83,.67,1.5,1.5,1.5s1.5-.67,1.5-1.5v-3c0-3.03-2.47-5.5-5.5-5.5Z"/></svg>
