<?xml version="1.0" encoding="UTF-8"?>
<svg xmlns="http://www.w3.org/2000/svg" id="Layer_1" data-name="Layer 1" viewBox="0 0 24 24" width="512" height="512"><path d="M.439,2.561C-.146,1.975-.146,1.025,.439,.439,1.025-.146,1.975-.146,2.561,.439l7,7c.586,.585,.586,1.536,0,2.121-.293,.293-.677,.439-1.061,.439s-.768-.146-1.061-.439L.439,2.561ZM20.5,0h-4c-.828,0-1.5,.671-1.5,1.5s.672,1.5,1.5,1.5h2.379L.439,21.439c-.586,.585-.586,1.536,0,2.121,.293,.293,.677,.439,1.061,.439s.768-.146,1.061-.439L21,5.121v2.379c0,.829,.672,1.5,1.5,1.5s1.5-.671,1.5-1.5V3.5c0-1.93-1.57-3.5-3.5-3.5Zm2,15c-.828,0-1.5,.671-1.5,1.5v2.379l-4.439-4.439c-.586-.586-1.535-.586-2.121,0-.586,.585-.586,1.536,0,2.121l4.439,4.439h-2.379c-.828,0-1.5,.671-1.5,1.5s.672,1.5,1.5,1.5h4c1.93,0,3.5-1.57,3.5-3.5v-4c0-.829-.672-1.5-1.5-1.5Z"/></svg>
