<?xml version="1.0" encoding="UTF-8"?>
<svg xmlns="http://www.w3.org/2000/svg" id="Layer_1" data-name="Layer 1" viewBox="0 0 24 24" width="512" height="512"><path d="M17,14.5c0,2.481-2.019,4.5-4.5,4.5h-4c-.828,0-1.5-.671-1.5-1.5s.672-1.5,1.5-1.5h4c.827,0,1.5-.673,1.5-1.5s-.673-1.5-1.5-1.5h-2c-.828,0-1.5-.671-1.5-1.5s.672-1.5,1.5-1.5h1.5c.552,0,1-.449,1-1s-.448-1-1-1h-3.5c-.828,0-1.5-.671-1.5-1.5s.672-1.5,1.5-1.5h3.5c2.206,0,4,1.794,4,4,0,.76-.213,1.471-.582,2.077,.968,.826,1.582,2.054,1.582,3.423Zm7-9v13c0,3.033-2.468,5.5-5.5,5.5H5.5c-3.032,0-5.5-2.467-5.5-5.5V5.5C0,2.467,2.468,0,5.5,0h13c3.032,0,5.5,2.467,5.5,5.5Zm-3,0c0-1.378-1.121-2.5-2.5-2.5H5.5c-1.379,0-2.5,1.122-2.5,2.5v13c0,1.378,1.121,2.5,2.5,2.5h13c1.379,0,2.5-1.122,2.5-2.5V5.5Z"/></svg>
