<?xml version="1.0" encoding="UTF-8"?>
<svg xmlns="http://www.w3.org/2000/svg" id="Layer_1" data-name="Layer 1" viewBox="0 0 24 24" width="512" height="512"><path d="M22,5.644V2.5c0-.828-.672-1.5-1.5-1.5s-1.5,.672-1.5,1.5v1.089L15.077,.941c-1.869-1.262-4.286-1.262-6.153,0L2.424,5.327C.906,6.352,0,8.056,0,9.886v8.614c0,3.032,2.468,5.5,5.5,5.5h13c3.032,0,5.5-2.468,5.5-5.5V9.886c0-1.653-.739-3.202-2-4.242Zm-1,12.856c0,1.379-1.121,2.5-2.5,2.5H5.5c-1.379,0-2.5-1.121-2.5-2.5V9.886c0-.832,.412-1.606,1.102-2.072L10.603,3.428c.424-.287,.911-.431,1.397-.431s.974,.144,1.398,.431l6.5,4.386c.689,.466,1.102,1.24,1.102,2.072v8.614Z"/></svg>
