<?xml version="1.0" encoding="UTF-8"?>
<svg xmlns="http://www.w3.org/2000/svg" id="Layer_1" data-name="Layer 1" viewBox="0 0 24 24" width="512" height="512"><path d="M10,2.5c0-1.381,1.119-2.5,2.5-2.5s2.5,1.119,2.5,2.5-1.119,2.5-2.5,2.5-2.5-1.119-2.5-2.5Zm7.111,16.301c-.312,.358-.694,.637-1.111,.84v2.859c0,.829-.672,1.5-1.5,1.5s-1.5-.671-1.5-1.5v-2.5h-1v2.5c0,.829-.672,1.5-1.5,1.5s-1.5-.671-1.5-1.5v-2.859c-.418-.203-.799-.482-1.111-.84-.665-.762-.968-1.773-.831-2.774l.816-5.989c.315-2.302,2.304-4.038,4.626-4.038s4.311,1.735,4.626,4.037l.816,5.991c.137,1.001-.166,2.012-.831,2.774Zm-7.081-2.369c-.026,.196,.062,.332,.118,.396s.179,.171,.377,.171h3.949c.198,0,.321-.107,.377-.171s.145-.2,.118-.396l-.816-5.99c-.112-.822-.823-1.443-1.653-1.443s-1.541,.621-1.653,1.444l-.816,5.989Z"/></svg>
