<?xml version="1.0" encoding="UTF-8"?>
<svg xmlns="http://www.w3.org/2000/svg" id="Layer_1" data-name="Layer 1" viewBox="0 0 24 24" width="512" height="512"><path d="m13,20.5c0,.828-.672,1.5-1.5,1.5s-1.5-.672-1.5-1.5.672-1.5,1.5-1.5,1.5.672,1.5,1.5Zm2.367-8.539c-.352-1.365-1.46-2.475-2.825-2.827-1.23-.319-2.502-.062-3.49.703-.986.764-1.552,1.917-1.552,3.163,0,.828.671,1.5,1.5,1.5s1.5-.672,1.5-1.5c0-.312.142-.601.389-.792.146-.112.453-.285.902-.17.314.081.589.357.671.672.151.585-.164,1.023-.543,1.198-.925.429-1.625,1.258-1.872,2.218-.207.803.276,1.62,1.079,1.827.125.032.251.047.375.047.668,0,1.277-.449,1.452-1.126.02-.075.112-.19.227-.243,1.756-.812,2.676-2.777,2.188-4.67Zm2.444-6.038c-.149-.03-.265-.116-.324-.242C15.901,2.335,12.23.468,8.558,1.141c-3.349.612-5.975,3.286-6.533,6.652-.165.993-.154,1.985.034,2.952.02.103-.046.248-.161.353-1.188,1.08-1.897,2.727-1.897,4.402,0,3.584,2.916,6.5,6.5,6.5.829,0,1.5-.672,1.5-1.5s-.671-1.5-1.5-1.5c-1.93,0-3.5-1.57-3.5-3.5,0-.82.359-1.677.916-2.183.891-.81,1.308-2.015,1.088-3.145-.119-.613-.126-1.249-.02-1.888.347-2.09,2.038-3.813,4.114-4.193,2.372-.436,4.656.719,5.678,2.875.469.988,1.36,1.68,2.446,1.897,2.188.437,3.777,2.386,3.777,4.636,0,2.76-2.026,5.131-4.712,5.515-.82.118-1.39.878-1.272,1.698.107.748.749,1.287,1.483,1.287.071,0,.143-.005.214-.015,4.155-.595,7.288-4.242,7.288-8.485,0-3.676-2.604-6.862-6.189-7.577Z"/></svg>
