<?xml version="1.0" encoding="UTF-8"?>
<svg xmlns="http://www.w3.org/2000/svg" id="Layer_1" data-name="Layer 1" viewBox="0 0 24 24" width="512" height="512"><path d="m23,2.5c0-1.381-1.119-2.5-2.5-2.5H3.5C2.119,0,1,1.119,1,2.5c0,1.209.859,2.218,2,2.45v13.55c0,3.032,2.467,5.5,5.5,5.5h7c3.033,0,5.5-2.468,5.5-5.5V4.95c1.141-.232,2-1.24,2-2.45Zm-7.5,18.5h-7c-1.378,0-2.5-1.121-2.5-2.5v-2.5h2.5c.829,0,1.5-.672,1.5-1.5s-.671-1.5-1.5-1.5h-2.5v-2h2.5c.829,0,1.5-.672,1.5-1.5s-.671-1.5-1.5-1.5h-2.5v-3h12v13.5c0,1.379-1.122,2.5-2.5,2.5Z"/></svg>
