<?xml version="1.0" encoding="UTF-8"?>
<svg xmlns="http://www.w3.org/2000/svg" id="Layer_1" data-name="Layer 1" viewBox="0 0 24 24" width="512" height="512"><path d="M22.732,9.013c-.768-.699-1.765-1.052-2.797-1.008-1.036,.048-1.991,.498-2.69,1.265l-2.438,2.679c-.646-.589-1.507-.949-2.449-.949H4.5c-2.481,0-4.5,2.019-4.5,4.5v4c0,2.481,2.019,4.5,4.5,4.5h5.414c3.029,0,5.91-1.308,7.904-3.589l5.196-5.943c1.41-1.581,1.283-4.027-.282-5.455Zm-1.966,3.469l-5.206,5.955c-1.425,1.629-3.482,2.563-5.646,2.563H4.5c-.827,0-1.5-.673-1.5-1.5v-4c0-.827,.673-1.5,1.5-1.5h7.857c.354,0,.643,.288,.643,.642,0,.317-.237,.591-.551,.636l-5.161,.737c-.82,.117-1.391,.877-1.273,1.697,.118,.82,.88,1.39,1.697,1.273l5.162-.737c1.618-.231,2.875-1.531,3.093-3.115l3.497-3.843c.159-.175,.376-.277,.612-.288,.231-.006,.463,.071,.636,.229,.356,.325,.385,.881,.055,1.252ZM5,7h1v1c0,.552,.448,1,1,1h2c.552,0,1-.448,1-1v-1h1c.552,0,1-.448,1-1v-2C12,1.663,9.986-.212,7.601,.019c-2.078,.202-3.601,2.07-3.601,4.158v1.822c0,.552,.448,1,1,1ZM10,3c.552,0,1,.448,1,1s-.448,1-1,1-1-.448-1-1,.448-1,1-1Zm-4,0c.552,0,1,.448,1,1s-.448,1-1,1-1-.448-1-1,.448-1,1-1Z"/></svg>
