<?xml version="1.0" encoding="UTF-8"?>
<svg xmlns="http://www.w3.org/2000/svg" id="Layer_1" data-name="Layer 1" viewBox="0 0 24 24" width="512" height="512"><path d="m12,0C5.383,0,0,5.383,0,12s5.383,12,12,12,12-5.383,12-12S18.617,0,12,0Zm0,21c-4.962,0-9-4.037-9-9S7.038,3,12,3s9,4.038,9,9-4.038,9-9,9Zm4.404-9.43c.555.557.595,1.269.594,1.473,0,2.892-2.128,5.144-4.95,5.232-.05.002-.1.003-.15.003-.451,0-.902-.065-1.343-.193-2.094-.615-3.554-2.604-3.554-4.835v-2.403c0-1.377.573-2.722,1.571-3.688.983-.951,2.27-1.447,3.605-1.406,1.114.036,2.159.426,3.021,1.127.643.523.74,1.468.217,2.11-.522.643-1.467.742-2.11.217-.349-.284-.772-.441-1.226-.457-.525-.024-1.027.183-1.42.564-.418.404-.657.962-.657,1.532v2.403c0,.91.574,1.714,1.396,1.955.183.053.369.071.556.072.769-.024,1.542-.433,1.875-1.277h-.328c-.829,0-1.5-.672-1.5-1.5s.671-1.5,1.5-1.5h1.5c.54,0,1.038.203,1.404.57Z"/></svg>
