<?xml version="1.0" encoding="UTF-8"?>
<svg xmlns="http://www.w3.org/2000/svg" id="Layer_1" data-name="Layer 1" viewBox="0 0 24 24" width="512" height="512"><path d="m21.385,6.43l-1.205-2.978c-.849-2.097-2.868-3.452-5.146-3.452h-6.068c-2.277,0-4.297,1.355-5.146,3.452l-1.205,2.979c-.646,1.599-.787,3.331-.41,5.009l1.855,8.258c.57,2.533,2.795,4.303,5.411,4.303h5.057c2.616,0,4.841-1.77,5.412-4.303l1.854-8.258c.378-1.678.236-3.41-.409-5.01Zm-2.518,4.352l-1.854,8.258c-.261,1.154-1.282,1.961-2.485,1.961h-5.057c-1.203,0-2.225-.807-2.484-1.961l-1.855-8.258c-.243-1.081-.151-2.196.265-3.227l1.205-2.978c.388-.958,1.315-1.577,2.364-1.577h6.068c1.049,0,1.977.619,2.364,1.577l1.205,2.977c.416,1.031.508,2.146.264,3.228Zm-2.867-.781c0,.828-.672,1.5-1.5,1.5h-1v4c0,.828-.672,1.5-1.5,1.5s-1.5-.672-1.5-1.5v-4h-1c-.828,0-1.5-.672-1.5-1.5s.672-1.5,1.5-1.5h1v-1c0-.828.672-1.5,1.5-1.5s1.5.672,1.5,1.5v1h1c.828,0,1.5.672,1.5,1.5Z"/></svg>
