<?xml version="1.0" encoding="UTF-8"?>
<svg xmlns="http://www.w3.org/2000/svg" id="Layer_1" data-name="Layer 1" viewBox="0 0 24 24" width="512" height="512"><path d="m22,9.5c0,3.398-1.764,6.619-4.603,8.405-.604.38-1.085,1.062-1.432,2.026-.448,1.242-1.275,2.293-2.394,3.041-1.017.681-2.218,1.02-3.42,1.02-1.296,0-2.593-.395-3.658-1.178-1.853-1.363-2.503-3.643-2.494-5.322.005-.826.675-1.492,1.5-1.492h.008c.829.004,1.497.68,1.492,1.508-.005.969.386,2.237,1.271,2.889,1.054.775,2.548.808,3.632.082.583-.39,1.011-.93,1.239-1.564.578-1.61,1.473-2.805,2.657-3.55,1.944-1.223,3.2-3.525,3.2-5.865,0-2.045-.934-3.93-2.563-5.172-1.634-1.246-3.747-1.636-5.802-1.071-2.406.66-4.206,2.788-4.587,5.421,0,0-.067.458-.052.736.048.827-.583,1.537-1.41,1.584-.847.03-1.537-.585-1.584-1.411-.033-.559.077-1.338.077-1.338C3.631,4.434,6.285,1.338,9.843.363c2.963-.812,6.03-.237,8.414,1.58,2.379,1.814,3.743,4.569,3.743,7.558Zm-9.5-1.5c.827,0,1.5.673,1.5,1.5s.672,1.5,1.5,1.5,1.5-.671,1.5-1.5c0-2.481-2.019-4.5-4.5-4.5s-4.5,2.019-4.5,4.5v1.501c0,.544.202,1.046.57,1.413.543.543,1.229.586,1.427.586h.003c0,.03-.021.076-.039.101-.756.291-1.146,1.131-.875,1.899.218.616.796,1,1.414,1,.166,0,.335-.028.5-.086,1.178-.416,2-1.614,2-2.914s-.835-2.415-2-2.828v-.672c0-.827.673-1.5,1.5-1.5Z"/></svg>
