<?xml version="1.0" encoding="UTF-8"?>
<svg xmlns="http://www.w3.org/2000/svg" id="Layer_1" data-name="Layer 1" viewBox="0 0 24 24" width="512" height="512"><path d="m15,24h-.028c-.735-.015-1.353-.56-1.457-1.288l-1.515-10.605-1.515,10.605c-.104.729-.722,1.273-1.457,1.288h-.028c-.724,0-1.346-.518-1.476-1.231l-1.655-9.104-.903,4.154c-.144.66-.711,1.144-1.385,1.18-.665.026-1.29-.382-1.504-1.023L.077,11.975c-.262-.786.162-1.636.948-1.897s1.636.163,1.897.948l.272.816,1.339-6.16c.152-.699.79-1.147,1.491-1.182.716.013,1.322.528,1.45,1.231l1.347,7.406,1.692-11.85c.106-.739.739-1.288,1.485-1.288s1.379.549,1.485,1.288l1.692,11.85,1.347-7.406c.128-.703.734-1.219,1.45-1.231.693-.015,1.339.482,1.491,1.182l1.339,6.16.272-.816c.261-.785,1.112-1.212,1.897-.948.786.262,1.21,1.111.948,1.897l-2,6c-.214.641-.837,1.05-1.504,1.023-.674-.036-1.241-.52-1.385-1.18l-.903-4.154-1.655,9.104c-.13.714-.752,1.231-1.476,1.231Z"/></svg>
