<?xml version="1.0" encoding="UTF-8"?>
<svg xmlns="http://www.w3.org/2000/svg" id="Layer_1" data-name="Layer 1" viewBox="0 0 24 24">
  <path d="m24,5.5c0-3.033-2.467-5.5-5.5-5.5H5.5C2.467,0,0,2.467,0,5.5v1c0,.951.382,1.815,1,2.447v9.553c0,3.033,2.467,5.5,5.5,5.5h11c3.033,0,5.5-2.467,5.5-5.5v-9.553c.618-.632,1-1.495,1-2.447v-1Zm-21,0c0-1.378,1.122-2.5,2.5-2.5h13c1.378,0,2.5,1.122,2.5,2.5v1c0,.276-.224.5-.5.5H3.5c-.276,0-.5-.224-.5-.5v-1Zm14.5,15.5H6.5c-1.378,0-2.5-1.122-2.5-2.5v-8.5h16v8.5c0,1.378-1.122,2.5-2.5,2.5Zm-1.5-6.8c0,1.643-2.034,3.553-3.201,4.514-.465.383-1.132.383-1.597,0-1.167-.961-3.201-2.871-3.201-4.514,0-1.215.895-2.2,2-2.2s2,.985,2,2.2c0-1.215.895-2.2,2-2.2s2,.985,2,2.2Z"/>
</svg>
