<?xml version="1.0" encoding="UTF-8"?>
<svg xmlns="http://www.w3.org/2000/svg" id="Layer_1" data-name="Layer 1" viewBox="0 0 24 24" width="512" height="512"><path d="m9.5,9h-1c-1.93,0-3.5,1.57-3.5,3.5v1.551c-.165-.024-.329-.051-.5-.051h-1c-1.93,0-3.5,1.57-3.5,3.5v3c0,1.93,1.57,3.5,3.5,3.5h6c1.93,0,3.5-1.57,3.5-3.5v-8c0-1.93-1.57-3.5-3.5-3.5Zm-6.5,11.5v-3c0-.275.225-.5.5-.5h1c.275,0,.5.225.5.5v3.5h-1.5c-.275,0-.5-.225-.5-.5Zm7,0c0,.275-.225.5-.5.5h-1.5v-8.5c0-.276.225-.501.5-.501h1c.275,0,.5.225.5.501v8Z"/></svg>
