<?xml version="1.0" encoding="UTF-8"?>
<svg xmlns="http://www.w3.org/2000/svg" id="Layer_1" data-name="Layer 1" viewBox="0 0 24 24">
  <path d="m15,16.018c0,1.657-1.343,3-3,3s-3-1.343-3-3c0-1.108.607-2.064,1.5-2.584v-6.934c0-.829.672-1.5,1.5-1.5s1.5.671,1.5,1.5v6.934c.893.52,1.5,1.476,1.5,2.584Zm5-.037c0,4.411-3.589,8-8,8s-8-3.589-8-8c0-1.959.706-3.807,2-5.271v-4.692C6,2.71,8.691.019,12,.019s6,2.691,6,6v4.692c1.294,1.463,2,3.312,2,5.271Zm-3,0c0-1.357-.547-2.632-1.541-3.589-.293-.283-.459-.672-.459-1.08v-5.293c0-1.654-1.346-3-3-3s-3,1.346-3,3v5.293c0,.408-.166.797-.459,1.08-.994.958-1.541,2.232-1.541,3.589,0,2.757,2.243,5,5,5s5-2.243,5-5Z"/>
</svg>
