<?xml version="1.0" encoding="UTF-8"?>
<svg xmlns="http://www.w3.org/2000/svg" id="Layer_1" data-name="Layer 1" viewBox="0 0 24 24" width="512" height="512"><path d="m4,2.5c0-1.379,1.121-2.5,2.5-2.5s2.5,1.121,2.5,2.5-1.121,2.5-2.5,2.5-2.5-1.121-2.5-2.5Zm18.5,18.5h-1.554l-2.394-4.789c-.678-1.355-2.063-2.211-3.578-2.211h-4.747c-.237,0-.441-.166-.489-.397l-.383-1.603h5.145c.829,0,1.5-.672,1.5-1.5s-.671-1.5-1.5-1.5h-5.75c-.037,0-.074.002-.111.005l-.433-1.812c-.146-.695-.758-1.192-1.468-1.192h0c-.952,0-1.663.876-1.468,1.807l1.532,6.41c.34,1.621,1.769,2.782,3.426,2.782h4.747c.379,0,.725.214.894.553l2.394,4.789c.508,1.016,1.547,1.658,2.683,1.658h1.554c.828,0,1.5-.672,1.5-1.5s-.672-1.5-1.5-1.5Zm-9.072-2h-3.283c-2.589,0-4.827-1.805-5.376-4.335l-1.803-7.483c-.15-.69-.76-1.182-1.466-1.182-.956,0-1.668.883-1.466,1.817l1.803,7.484c.847,3.909,4.306,6.698,8.305,6.698h3.285c1.115,0,1.84-1.173,1.342-2.171-.254-.508-.773-.829-1.342-.829Z"/></svg>
