<?xml version="1.0" encoding="UTF-8"?>
<svg xmlns="http://www.w3.org/2000/svg" id="Layer_1" data-name="Layer 1" viewBox="0 0 24 24">
  <path d="m23.901,23.034c-.228.598-.797.966-1.401.966-.178,0-.358-.032-.534-.099l-9.966-3.797-9.966,3.797c-.176.067-.356.099-.534.099-.604,0-1.174-.368-1.401-.966-.295-.774.093-1.641.867-1.936l6.82-2.598L.966,15.902c-.774-.295-1.162-1.162-.867-1.936.295-.774,1.164-1.16,1.936-.868l9.966,3.797,9.966-3.797c.775-.293,1.642.094,1.936.868.295.774-.093,1.641-.867,1.936l-6.82,2.598,6.82,2.598c.774.295,1.162,1.162.867,1.936ZM6.375,9.881c-.95-2.283.052-4.33,1.125-5.656.28-.346.827-.283,1.007.123.254.575-.045,1.721.777,1.721,1.137,0,.808-3.581,2.077-5.728.225-.381.748-.455,1.078-.161,2.05,1.829,5.562,4.532,5.562,7.699h0c0,3.208-2.507,5.831-5.669,6.016-2.642.155-4.939-1.57-5.956-4.014Zm4.058,1.459c.813.948,2.271.948,3.083,0,.703-.819.566-2.072-.197-2.835h0l-.894-.894c-.249-.249-.652-.249-.901,0l-.894.894c-.763.763-.899,2.015-.197,2.835Z"/>
</svg>
