<?xml version="1.0" encoding="UTF-8"?>
<svg xmlns="http://www.w3.org/2000/svg" id="Layer_1" data-name="Layer 1" viewBox="0 0 24 24">
  <path d="m7,1.5c0,.828-.671,1.5-1.5,1.5-1.378,0-2.5,1.121-2.5,2.5,0,.828-.671,1.5-1.5,1.5s-1.5-.672-1.5-1.5C0,2.468,2.467,0,5.5,0c.829,0,1.5.672,1.5,1.5ZM1.5,15c.829,0,1.5-.672,1.5-1.5v-3c0-.828-.671-1.5-1.5-1.5s-1.5.672-1.5,1.5v3c0,.828.671,1.5,1.5,1.5Zm4,6c-1.378,0-2.5-1.121-2.5-2.5,0-.828-.671-1.5-1.5-1.5s-1.5.672-1.5,1.5c0,3.032,2.467,5.5,5.5,5.5.829,0,1.5-.672,1.5-1.5s-.671-1.5-1.5-1.5Zm17-4c-.829,0-1.5.672-1.5,1.5,0,1.379-1.122,2.5-2.5,2.5-.829,0-1.5.672-1.5,1.5s.671,1.5,1.5,1.5c3.033,0,5.5-2.468,5.5-5.5,0-.828-.671-1.5-1.5-1.5Zm0-8c-.829,0-1.5.672-1.5,1.5v3c0,.828.671,1.5,1.5,1.5s1.5-.672,1.5-1.5v-3c0-.828-.671-1.5-1.5-1.5Zm-4-6c1.378,0,2.5,1.121,2.5,2.5,0,.828.671,1.5,1.5,1.5s1.5-.672,1.5-1.5c0-3.032-2.467-5.5-5.5-5.5-.829,0-1.5.672-1.5,1.5s.671,1.5,1.5,1.5ZM13.5,0h-3c-.829,0-1.5.672-1.5,1.5s.671,1.5,1.5,1.5h3c.829,0,1.5-.672,1.5-1.5s-.671-1.5-1.5-1.5Zm0,21h-3c-.829,0-1.5.672-1.5,1.5s.671,1.5,1.5,1.5h3c.829,0,1.5-.672,1.5-1.5s-.671-1.5-1.5-1.5Z"/>
</svg>
