<?xml version="1.0" encoding="UTF-8"?>
<svg xmlns="http://www.w3.org/2000/svg" id="Layer_1" data-name="Layer 1" viewBox="0 0 24 24" width="512" height="512"><path d="M16,17.5c0,.828-.672,1.5-1.5,1.5h-5c-.828,0-1.5-.672-1.5-1.5s.672-1.5,1.5-1.5h5c.828,0,1.5,.672,1.5,1.5Zm2.317-6.258c-.695-.451-1.624-.255-2.075,.44-.101,.154-.198,.242-.26,.285-.051-.047-.127-.132-.216-.271-.445-.7-1.373-.905-2.07-.463-.699,.444-.906,1.371-.463,2.07,.93,1.465,2.1,1.689,2.714,1.693h.015c1.067,0,2.111-.627,2.796-1.68,.451-.694,.254-1.624-.44-2.075Zm-7.56,2.075c.451-.694,.254-1.624-.44-2.075-.696-.451-1.624-.255-2.075,.44-.101,.154-.198,.242-.26,.285-.051-.047-.127-.132-.216-.271-.445-.7-1.372-.905-2.07-.463-.699,.444-.906,1.371-.463,2.07,.93,1.465,2.1,1.689,2.714,1.693h.015c1.067,0,2.111-.627,2.796-1.68Zm13.242-1.317c0,6.617-5.383,12-12,12S0,18.617,0,12,5.383,0,12,0s12,5.383,12,12Zm-3,0c0-4.963-4.037-9-9-9S3,7.037,3,12s4.037,9,9,9,9-4.037,9-9Zm-3.274-3.038c.092,.025,.184,.038,.275,.038,.435,0,.835-.286,.961-.726,.151-.531-.156-1.084-.688-1.236-.964-.275-1.977-.941-2.461-1.619-.321-.45-.945-.555-1.395-.232-.449,.32-.554,.945-.232,1.395,.746,1.045,2.136,1.979,3.539,2.381Zm-11.727,.038c.092,0,.184-.013,.275-.038,1.403-.401,2.793-1.336,3.539-2.381,.321-.449,.217-1.074-.232-1.395-.447-.321-1.073-.217-1.395,.232-.484,.678-1.497,1.344-2.461,1.619-.531,.152-.839,.705-.688,1.236,.126,.439,.526,.726,.961,.726Z"/></svg>
