<?xml version="1.0" encoding="UTF-8"?>
<svg xmlns="http://www.w3.org/2000/svg" id="Layer_1" data-name="Layer 1" viewBox="0 0 24 24" width="512" height="512"><path d="m12,14.052c-.756.91-1.764,1.617-2.944,2.01l-1.081.36c-.157.053-.317.078-.475.078-.628,0-1.214-.397-1.423-1.026-.262-.786.162-1.635.948-1.897l1.081-.36c1.432-.478,2.394-1.812,2.394-3.321V1.5c0-.829.672-1.5,1.5-1.5s1.5.671,1.5,1.5v8.396c0,1.509.962,2.843,2.394,3.321l1.081.36c.786.262,1.21,1.111.948,1.897-.209.629-.795,1.026-1.423,1.026-.157,0-.317-.025-.475-.078l-1.081-.36c-1.18-.393-2.188-1.1-2.944-2.01Zm-2.158,3.987c-.814-.19-1.614.313-1.803,1.119-.132.566-.563,1.011-1.146,1.166l-2.138.605c-.141.046-.303.057-.427.07-.346,0-.689-.144-.94-.396-.177-.176-.388-.482-.388-.94,0-1.137.13-2.277.386-3.388l1.564-6.779c.308-1.334,1.408-2.343,2.736-2.51.822-.103,1.405-.853,1.302-1.675-.103-.822-.854-1.402-1.675-1.302-2.571.322-4.696,2.256-5.287,4.811L.462,15.603c-.307,1.332-.462,2.698-.462,4.062,0,1.159.45,2.247,1.268,3.063.811.809,1.926,1.272,3.062,1.272h.007c.464,0,.925-.076,1.301-.204l2.049-.578c1.635-.436,2.89-1.729,3.275-3.377.188-.807-.312-1.613-1.119-1.802Zm13.696-2.438l-1.564-6.78c-.591-2.555-2.716-4.488-5.287-4.811-.816-.1-1.572.479-1.675,1.302-.104.822.479,1.572,1.302,1.675,1.328.167,2.429,1.175,2.736,2.509l1.564,6.778c.256,1.111.386,2.251.386,3.389,0,.458-.211.764-.388.94-.251.251-.595.396-.94.396h-.002c-.143,0-.285-.024-.492-.091l-2.092-.59c-.562-.149-.993-.594-1.125-1.16-.189-.806-.989-1.31-1.803-1.119-.807.188-1.308.995-1.119,1.802.386,1.647,1.641,2.941,3.254,3.371l2.003.563c.445.149.88.226,1.375.225,1.136,0,2.251-.463,3.062-1.272.817-.816,1.268-1.904,1.268-3.063,0-1.363-.155-2.73-.462-4.062Z"/></svg>
