<?xml version="1.0" encoding="UTF-8"?>
<svg xmlns="http://www.w3.org/2000/svg" id="Layer_1" data-name="Layer 1" viewBox="0 0 24 24" width="512" height="512"><path d="m19.5,13h-.81c-.439-1.599-1.283-3.022-2.409-4.16l1.085-1.085c1.186.786,2.607,1.245,4.134,1.245.828,0,1.5-.672,1.5-1.5s-.672-1.5-1.5-1.5c-2.481,0-4.5-2.019-4.5-4.5,0-.828-.672-1.5-1.5-1.5s-1.5.672-1.5,1.5c0,1.527.459,2.948,1.245,4.134l-1.412,1.412c-.875-.448-1.825-.765-2.824-.925l-.009-.642c-.012-.828-.698-1.454-1.521-1.479-.829.013-1.49.693-1.479,1.521l.009.6C3.475,6.852,0,10.792,0,15.529v2.971c0,2.481,2.019,4.5,4.5,4.5h15c2.481,0,4.5-2.019,4.5-4.5v-1c0-2.481-2.019-4.5-4.5-4.5ZM3,18.5v-2.971c0-3.596,2.921-6.529,6.515-6.529,3.985,0,5.582,2.991,6.007,4h-.021c-2.481,0-4.5,2.019-4.5,4.5v2.5h-6.5c-.827,0-1.5-.673-1.5-1.5Zm18,0c0,.827-.673,1.5-1.5,1.5h-5.5v-2.5c0-.827.673-1.5,1.5-1.5h4c.827,0,1.5.673,1.5,1.5v1Zm-13-2c0,.828-.672,1.5-1.5,1.5s-1.5-.672-1.5-1.5.672-1.5,1.5-1.5,1.5.672,1.5,1.5Z"/></svg>
