<?xml version="1.0" encoding="UTF-8"?>
<svg xmlns="http://www.w3.org/2000/svg" id="Layer_1" data-name="Layer 1" viewBox="0 0 24 24">
  <path d="m12,0C5.271,0,0,3.733,0,8.5v7c0,4.767,5.271,8.5,12,8.5s12-3.733,12-8.5v-7C24,3.733,18.729,0,12,0Zm-1.744,10.819c.031-.048.339-.707.424-.979.395.105.831.16,1.32.16s.925-.055,1.32-.16c.085.272.393.931.424.979.786,1.205,1.954,1.89,3.133,2.273-1.416.572-3.096.908-4.877.908s-3.462-.336-4.877-.908c1.18-.383,2.347-1.068,3.133-2.273Zm10.744-2.319c0,.72-.241,1.413-.674,2.05-1.146.048-3.182-.121-4.023-1.302-.313-.672-.27-1.242.298-2.539.304-.565,1.088-2.203,1.178-2.388,1.957,1.018,3.222,2.527,3.222,4.179Zm-6.089-5.192c-.38.751-.721,1.433-1.001,2.069-.758,1.405-1.13,1.623-1.91,1.623s-1.152-.218-1.91-1.623c-.28-.636-.621-1.318-1.001-2.069.918-.199,1.898-.308,2.911-.308s1.993.109,2.911.308Zm-8.689,1.014c.089.186.874,1.823,1.178,2.388.567,1.297.61,1.867.298,2.539-.841,1.182-2.877,1.354-4.022,1.304-.434-.638-.675-1.331-.675-2.052,0-1.651,1.265-3.161,3.222-4.179Zm5.778,16.679c-4.879,0-9-2.519-9-5.5v-1.322c2.182,1.741,5.38,2.822,9,2.822s6.818-1.081,9-2.822v1.322c0,2.981-4.121,5.5-9,5.5Z"/>
</svg>
