<?xml version="1.0" encoding="UTF-8"?>
<svg xmlns="http://www.w3.org/2000/svg" id="Layer_1" data-name="Layer 1" viewBox="0 0 24 24" width="512" height="512"><path d="M17,2.5c0-1.38,1.12-2.5,2.5-2.5s2.5,1.12,2.5,2.5-1.12,2.5-2.5,2.5-2.5-1.12-2.5-2.5Zm5.62,12.69c-.46-.74-1.25-1.19-2.13-1.19h-4.09l2.3-4.97c.41-.88,.34-1.9-.18-2.72-.52-.82-1.42-1.31-2.39-1.31h-4.43c-1.7,0-3.29,.99-4.04,2.52l-1.14,2.32c-.37,.74-.06,1.64,.69,2.01,.21,.1,.44,.15,.66,.15,.55,0,1.09-.31,1.35-.84l1.14-2.32c.25-.51,.78-.84,1.35-.84h.92l-2.37,5.1c-.4,.85-.33,1.84,.18,2.63s1.37,1.27,2.32,1.27h1.17c-.44,2.31-2.47,4.07-4.91,4.07-2.76,0-5-2.24-5-5,0-.98,.28-1.93,.82-2.75,.46-.69,.27-1.62-.43-2.08-.69-.45-1.62-.27-2.08,.43-.86,1.31-1.32,2.83-1.32,4.4,0,4.41,3.59,8,8,8,4.1,0,7.48-3.1,7.94-7.07h2.73l-2.5,4.81c-.38,.73-.1,1.64,.64,2.02,.22,.12,.46,.17,.69,.17,.54,0,1.06-.29,1.33-.81l2.91-5.58c.39-.78,.35-1.69-.11-2.43Z"/></svg>
