<?xml version="1.0" encoding="UTF-8"?>
<svg xmlns="http://www.w3.org/2000/svg" id="Layer_1" data-name="Layer 1" viewBox="0 0 24 24">
  <path d="m18.754,4.006l-2.253-3.004c-.469-.627-1.217-1.002-2.001-1.002h-5c-.784,0-1.532.375-2,1l-2.255,3.006c-2.915.133-5.246,2.547-5.246,5.494v9c0,3.032,2.467,5.5,5.5,5.5h13c3.033,0,5.5-2.468,5.5-5.5v-9c0-2.947-2.331-5.361-5.246-5.494Zm2.246,14.494c0,1.379-1.122,2.5-2.5,2.5H5.5c-1.378,0-2.5-1.121-2.5-2.5v-9c0-1.379,1.122-2.5,2.5-2.5h.5c.472,0,.917-.223,1.2-.6l2.551-3.4h4.499l2.551,3.4c.283.377.728.6,1.2.6h.5c1.378,0,2.5,1.121,2.5,2.5v9Zm-4.333-1.229c-1.146,1.416-2.847,2.229-4.667,2.229-1.484,0-2.87-.535-3.94-1.469l-.742.742c-.486.486-1.318.142-1.318-.546v-3.454c0-.426.346-.772.772-.772h3.454c.688,0,1.032.832.546,1.318l-.58.58c.51.385,1.138.602,1.807.602.91,0,1.761-.406,2.334-1.115.521-.645,1.465-.744,2.11-.223.644.521.743,1.466.222,2.109Zm1.333-8.498v3.454c0,.426-.346.772-.772.772h-3.454c-.688,0-1.032-.832-.546-1.318l.58-.58c-.51-.385-1.138-.602-1.807-.602-.91,0-1.76.406-2.334,1.115-.521.643-1.465.744-2.109.223-.644-.521-.744-1.465-.223-2.109,1.146-1.416,2.846-2.229,4.666-2.229,1.484,0,2.87.535,3.94,1.469l.742-.742c.486-.486,1.318-.142,1.318.546Z"/>
</svg>
