<?xml version="1.0" encoding="UTF-8"?>
<svg xmlns="http://www.w3.org/2000/svg" id="Layer_1" data-name="Layer 1" viewBox="0 0 24 24">
  <path d="m18.5,6h-5.668l8.272-3.183c.773-.297,1.159-1.166.861-1.938-.298-.773-1.163-1.16-1.938-.861L3.524,6.367c-2.059.796-3.524,2.796-3.524,5.133v7c0,3.033,2.467,5.5,5.5,5.5h13c3.033,0,5.5-2.467,5.5-5.5v-7c0-3.033-2.467-5.5-5.5-5.5Zm2.5,12.5c0,1.378-1.122,2.5-2.5,2.5H5.5c-1.378,0-2.5-1.122-2.5-2.5v-7c0-1.378,1.122-2.5,2.5-2.5h13c1.378,0,2.5,1.122,2.5,2.5v7Zm-11-1c0,.829-.671,1.5-1.5,1.5h-1.961c-.829,0-1.5-.671-1.5-1.5s.671-1.5,1.5-1.5h1.961c.829,0,1.5.671,1.5,1.5Zm0-5c0,.829-.671,1.5-1.5,1.5h-1.961c-.829,0-1.5-.671-1.5-1.5s.671-1.5,1.5-1.5h1.961c.829,0,1.5.671,1.5,1.5Zm9,2.5c0,1.933-1.567,3.5-3.5,3.5s-3.5-1.567-3.5-3.5,1.567-3.5,3.5-3.5,3.5,1.567,3.5,3.5Z"/>
</svg>
