<?xml version="1.0" encoding="UTF-8"?>
<svg xmlns="http://www.w3.org/2000/svg" id="Layer_1" data-name="Layer 1" viewBox="0 0 24 24" width="512" height="512"><path d="M12,0C5.383,0,0,5.383,0,12s5.383,12,12,12,12-5.383,12-12S18.617,0,12,0Zm0,21c-4.963,0-9-4.037-9-9S7.037,3,12,3s9,4.037,9,9-4.037,9-9,9Zm6.233-5.646l-1.275,1.845c-.353,.504-.888,.792-1.474,.797-.56,0-1.125-.273-1.481-.765l-.266-.37-.269,.372c-.354,.489-.889,.768-1.468,.768s-1.113-.278-1.466-.765l-.271-.375-.264,.366c-.358,.494-.923,.771-1.483,.769-.586-.005-1.121-.293-1.47-.791l-1.279-1.851c-.472-.682-.301-1.616,.38-2.087,.681-.473,1.615-.303,2.087,.38l.317,.459,.244-.338c.71-.979,2.231-.974,2.934-.004l.271,.375,.268-.371c.708-.978,2.229-.976,2.934-.004l.247,.342,.317-.459c.472-.682,1.405-.853,2.087-.38,.681,.471,.852,1.405,.38,2.087ZM6.6,9.3l.4-.3-.4-.3c-.662-.497-.797-1.438-.3-2.101,.498-.662,1.438-.795,2.101-.3l2,1.5c.377,.283,.6,.729,.6,1.2s-.223,.917-.6,1.2l-2,1.5c-.271,.202-.586,.3-.899,.3-.456,0-.906-.207-1.201-.6-.497-.663-.362-1.604,.3-2.101Zm6.4-.3c0-.472,.223-.917,.6-1.2l2-1.5c.665-.495,1.604-.362,2.101,.3,.497,.663,.362,1.604-.3,2.101l-.4,.3,.4,.3c.662,.497,.797,1.438,.3,2.101-.295,.393-.745,.6-1.201,.6-.313,0-.629-.098-.899-.3l-2-1.5c-.377-.283-.6-.729-.6-1.2Z"/></svg>
