<?xml version="1.0" encoding="UTF-8"?>
<svg xmlns="http://www.w3.org/2000/svg" id="Layer_1" data-name="Layer 1" viewBox="0 0 24 24">
  <path d="m17.578,8.386l-.578-.116v-4.137c0-2.016-1.436-3.77-3.339-4.08-1.171-.192-2.356.136-3.252.898-.896.762-1.409,1.873-1.409,3.048v3.145c-.589.179-1.139.486-1.605.907-.315.285-.583.613-.797.972l-4.375,4.315c-.786.781-1.221,1.821-1.223,2.929s.429,2.151,1.213,2.935l2.308,2.308c1.604,1.605,3.739,2.49,6.01,2.49h5.97c3.032,0,5.5-2.467,5.5-5.5v-4.721c0-2.613-1.859-4.881-4.422-5.393Zm1.422,10.114c0,1.378-1.121,2.5-2.5,2.5h-5.97c-1.469,0-2.85-.572-3.889-1.611l-2.308-2.308c-.216-.216-.335-.503-.334-.808,0-.305.12-.591.333-.802l1.667-1.645v1.674c0,.829.672,1.5,1.5,1.5s1.5-.671,1.5-1.5v-4.312c0-.474.253-.773.403-.909.259-.233.603-.349.942-.311.424.047.844-.093,1.159-.378.315-.284.495-.689.495-1.114v-4.477c0-.294.129-.572.353-.763.132-.112.409-.293.826-.223.461.075.821.566.821,1.119v5.366c0,.715.505,1.331,1.206,1.471l1.784.357c1.164.233,2.01,1.264,2.01,2.452v4.721Z"/>
</svg>
