<?xml version="1.0" encoding="UTF-8"?>
<svg xmlns="http://www.w3.org/2000/svg" id="Layer_1" data-name="Layer 1" viewBox="0 0 24 24" width="512" height="512"><path d="M23.01,16.06c1.33,1.33,1.33,3.55-.04,4.91l-2.38,2.55c-.3,.32-.7,.48-1.1,.48-.37,0-.73-.13-1.02-.4-.61-.57-.64-1.51-.07-2.12l1.38-1.48h-5.03c-1.53,0-3-.64-4.04-1.77l-4.37-4.73H1.5c-.83,0-1.5-.67-1.5-1.5s.67-1.5,1.5-1.5H6.34l4.37-4.73c1.04-1.12,2.51-1.77,4.04-1.77h5.03l-1.38-1.48c-.57-.61-.53-1.55,.07-2.12,.61-.56,1.55-.53,2.12,.07l2.41,2.59c1.33,1.33,1.33,3.55-.04,4.91l-2.38,2.55c-.3,.32-.7,.48-1.1,.48-.37,0-.73-.13-1.02-.4-.61-.57-.64-1.51-.07-2.12l1.38-1.48h-5.03c-.7,0-1.37,.29-1.84,.8l-3.87,4.2,3.87,4.2c.47,.51,1.14,.8,1.84,.8h5.03l-1.38-1.48c-.57-.61-.53-1.55,.07-2.12,.61-.56,1.55-.53,2.12,.07l2.41,2.59Z"/></svg>
