<?xml version="1.0" encoding="UTF-8"?>
<svg xmlns="http://www.w3.org/2000/svg" id="Layer_1" data-name="Layer 1" viewBox="0 0 24 24" width="512" height="512"><path d="m18.5,4h-3.5v-1c0-1.654-1.346-3-3-3s-3,1.346-3,3v1h-3.5C2.467,4,0,6.468,0,9.5v9c0,3.032,2.467,5.5,5.5,5.5h13c3.033,0,5.5-2.468,5.5-5.5v-9c0-3.032-2.467-5.5-5.5-5.5Zm2.5,14.5c0,1.379-1.122,2.5-2.5,2.5H5.5c-1.378,0-2.5-1.121-2.5-2.5v-9c0-1.379,1.122-2.5,2.5-2.5h3.769c.346.597.992,1,1.731,1h2c.739,0,1.385-.403,1.731-1h3.769c1.378,0,2.5,1.121,2.5,2.5v9Zm-11.5-7c0-1.379,1.121-2.5,2.5-2.5s2.5,1.121,2.5,2.5-1.121,2.5-2.5,2.5-2.5-1.121-2.5-2.5Zm6.475,6.5c.062.239.009.494-.143.69-.152.195-.384.31-.632.31h-6.4c-.248,0-.48-.114-.632-.31-.152-.196-.205-.45-.143-.69.448-1.739,2.119-3,3.975-3s3.526,1.262,3.975,3Z"/></svg>
