<?xml version="1.0" encoding="UTF-8"?>
<svg xmlns="http://www.w3.org/2000/svg" id="Layer_1" data-name="Layer 1" viewBox="0 0 24 24" width="512" height="512"><path d="M10,2.5c0-1.381,1.119-2.5,2.5-2.5s2.5,1.119,2.5,2.5-1.119,2.5-2.5,2.5-2.5-1.119-2.5-2.5Zm10.526,12.094c-.289,.271-.658,.406-1.026,.406-.4,0-.799-.159-1.094-.474l-.782-.833,.318,2.334c.136,1.002-.167,2.013-.832,2.774-.312,.358-.693,.636-1.111,.839v2.859c0,.829-.671,1.5-1.5,1.5s-1.5-.671-1.5-1.5v-2.5h-1v2.5c0,.829-.671,1.5-1.5,1.5s-1.5-.671-1.5-1.5v-2.859c-.417-.203-.799-.481-1.111-.839-.665-.761-.968-1.772-.832-2.774l.318-2.334-.782,.833c-.295,.314-.694,.473-1.094,.473-.368,0-.737-.135-1.026-.406-.604-.567-.634-1.517-.067-2.121,0,0,4.755-5.038,4.783-5.063,.854-.865,2.025-1.41,3.311-1.41s2.457,.544,3.311,1.409c.028,.026,4.783,5.064,4.783,5.064,.567,.604,.537,1.553-.067,2.12Zm-8.026-5.594c-.83,0-1.541,.62-1.653,1.443l-.817,5.99c-.027,.196,.063,.333,.119,.396,.056,.064,.179,.171,.377,.171h3.948c.198,0,.321-.107,.377-.171,.056-.063,.146-.2,.119-.396l-.817-5.99c-.112-.823-.823-1.443-1.653-1.443Z"/></svg>
