<?xml version="1.0" encoding="UTF-8"?>
<svg xmlns="http://www.w3.org/2000/svg" id="Layer_1" data-name="Layer 1" viewBox="0 0 24 24" width="512" height="512"><path d="M7,18.5c0,.829-.671,1.5-1.5,1.5-3.033,0-5.5-2.467-5.5-5.5v-5c0-3.033,2.467-5.5,5.5-5.5,.829,0,1.5,.671,1.5,1.5s-.671,1.5-1.5,1.5c-1.378,0-2.5,1.122-2.5,2.5v5c0,1.378,1.122,2.5,2.5,2.5,.829,0,1.5,.671,1.5,1.5Zm5.593-8h-2.142l2.331-4.283c.396-.728,.126-1.639-.601-2.035-.727-.396-1.638-.127-2.035,.601,0,0-3.012,5.559-3.042,5.657-.22,.728-.091,1.489,.354,2.089,.451,.608,1.186,.971,1.964,.971h2.235l-2.149,4.333c-.368,.742-.065,1.642,.677,2.01,.214,.106,.441,.157,.666,.157,.552,0,1.083-.306,1.345-.834l2.463-4.966c.438-.733,.456-1.65,.043-2.421-.424-.79-1.231-1.28-2.109-1.28Zm10.407-2.5h-1.208c-.655-2.306-2.78-4-5.292-4-.828,0-1.5,.671-1.5,1.5s.672,1.5,1.5,1.5c1.379,0,2.5,1.122,2.5,2.5v5c0,1.378-1.121,2.5-2.5,2.5-.828,0-1.5,.671-1.5,1.5s.672,1.5,1.5,1.5c2.513,0,4.637-1.694,5.292-4h1.208c.552,0,1-.448,1-1v-6c0-.552-.448-1-1-1Z"/></svg>
