<?xml version="1.0" encoding="UTF-8"?>
<svg xmlns="http://www.w3.org/2000/svg" id="Layer_1" data-name="Layer 1" viewBox="0 0 24 24" width="512" height="512"><path d="M2.498,6.244l-.387-1.356-1.356-.387c-1.007-.288-1.007-1.715,0-2.003l1.356-.387,.387-1.356c.288-1.007,1.715-1.007,2.003,0l.387,1.356,1.356,.387c1.007,.288,1.007,1.715,0,2.003l-1.356,.387-.387,1.356c-.288,1.007-1.715,1.007-2.003,0Zm17.498,4.628c.641,1.237,1.004,2.64,1.004,4.127,0,4.962-4.038,9-9,9S3,19.962,3,15,7.038,6,12,6c1.497,0,2.911,.368,4.154,1.018,0,0,.287-.328,.312-.352,.885-.885,2.326-.886,3.212,0l.657,.657c.886,.887,.885,2.328,0,3.213l-.338,.339Zm-1.996,4.127c0-3.309-2.691-6-6-6s-6,2.691-6,6,2.691,6,6,6,6-2.691,6-6ZM24,3.5C24,1.887,22.69,.002,19,.002,14.273,.002,10.296,1.004,10.129,1.046c-.802,.205-1.287,1.021-1.082,1.824,.205,.803,1.023,1.286,1.823,1.083,.038-.009,3.796-.951,8.13-.951,1.475,0,1.961,.407,2,.498,0,.334,.008,.323-.167,.561-.243,.266-.391,.621-.391,1.009,0,.828,.672,1.5,1.5,1.5,.482,0,.91-.227,1.185-.58,.242-.269,.873-1.105,.873-2.49Z"/></svg>
