<?xml version="1.0" encoding="UTF-8"?>
<svg xmlns="http://www.w3.org/2000/svg" id="Layer_1" data-name="Layer 1" viewBox="0 0 24 24" width="512" height="512"><path d="M17.28,23c-.9,0-1.79-.34-2.47-1.02l-7.02-7.02-1.06,1.06c-.97,.96-2.41,1.24-3.66,.72-1.25-.52-2.06-1.74-2.06-3.1V5.28c0-2.36,1.92-4.28,4.28-4.28H13.64s0,0,0,0c1.36,0,2.58,.81,3.1,2.06,.52,1.25,.24,2.69-.72,3.65l-1.17,1.17,7.02,7.02c.66,.66,1.02,1.54,1.02,2.47s-.36,1.82-1.02,2.47l-2.12,2.12c-.68,.68-1.58,1.02-2.48,1.02ZM7.78,11.33c.4,0,.78,.16,1.06,.44l8.08,8.08c.2,.2,.51,.2,.71,0l2.12-2.12c.13-.13,.14-.28,.14-.35s-.02-.23-.14-.35h0S11.67,8.94,11.67,8.94c-.28-.28-.44-.66-.44-1.06s.16-.78,.44-1.06l2.23-2.22c.11-.11,.13-.24,.07-.38-.06-.15-.17-.22-.33-.22H5.28c-.71,0-1.28,.58-1.28,1.28V13.64c0,.16,.07,.27,.22,.33,.15,.06,.28,.04,.39-.08l2.12-2.12c.28-.28,.66-.44,1.06-.44Z"/></svg>
