<?xml version="1.0" encoding="UTF-8"?>
<svg xmlns="http://www.w3.org/2000/svg" id="Layer_1" data-name="Layer 1" viewBox="0 0 24 24" width="512" height="512"><path d="M2,3C2,1.343,3.343,0,5,0s3,1.343,3,3-1.343,3-3,3-3-1.343-3-3Zm13,3c1.657,0,3-1.343,3-3s-1.343-3-3-3-3,1.343-3,3,1.343,3,3,3Zm-9.047,2.126c-.207-.802-1.023-1.285-1.826-1.079C1.735,7.663,0,9.956,0,12.5c0,.829,.671,1.5,1.5,1.5s1.5-.671,1.5-1.5c0-1.177,.806-2.272,1.874-2.547,.803-.207,1.286-1.024,1.079-1.826Zm2.174,6.921c-2.391,.615-4.126,2.908-4.126,5.453,0,.829,.671,1.5,1.5,1.5s1.5-.671,1.5-1.5c0-1.177,.806-2.272,1.874-2.547,.803-.207,1.286-1.024,1.079-1.826s-1.023-1.284-1.826-1.079Zm15.405,5.505c-.28,.475-.78,.739-1.294,.739-.259,0-.521-.067-.76-.208l-.648-.382c-.523,.471-1.144,.825-1.83,1.043v.755c0,.829-.671,1.5-1.5,1.5s-1.5-.671-1.5-1.5v-.755c-.686-.218-1.307-.572-1.83-1.043l-.648,.382c-.239,.141-.501,.208-.76,.208-.514,0-1.014-.264-1.294-.739-.42-.714-.183-1.633,.531-2.054l.638-.376c-.084-.362-.138-.735-.138-1.123s.054-.76,.138-1.123l-.638-.376c-.714-.42-.952-1.34-.531-2.054,.421-.714,1.34-.95,2.054-.531l.648,.382c.523-.471,1.144-.825,1.83-1.043v-.755c0-.829,.671-1.5,1.5-1.5s1.5,.671,1.5,1.5v.755c.686,.218,1.307,.572,1.83,1.043l.648-.382c.714-.418,1.633-.183,2.054,.531,.42,.714,.183,1.633-.531,2.054l-.638,.376c.084,.362,.138,.735,.138,1.123s-.054,.76-.138,1.123l.638,.376c.714,.42,.952,1.34,.531,2.054Zm-4.532-3.552c0-.827-.673-1.5-1.5-1.5s-1.5,.673-1.5,1.5,.673,1.5,1.5,1.5,1.5-.673,1.5-1.5Zm-6.838-8.066c-.663-.7-1.655-1.083-2.737-.88-1.182,.221-2.149,1.186-2.37,2.368-.249,1.332,.384,2.531,1.411,3.141,.311,.185,.705,.031,.855-.298,.62-1.358,1.565-2.536,2.74-3.43,.288-.219,.35-.638,.101-.901Z"/></svg>
