<?xml version="1.0" encoding="UTF-8"?>
<svg xmlns="http://www.w3.org/2000/svg" id="Layer_1" data-name="Layer 1" viewBox="0 0 24 24" width="512" height="512"><path d="M8,11c-1.105,0-2-.895-2-2s.895-2,2-2,2,.895,2,2-.895,2-2,2Zm10-2c0-1.105-.895-2-2-2s-2,.895-2,2,.895,2,2,2,2-.895,2-2ZM12,0C5.383,0,0,5.383,0,12s5.383,12,12,12c1.8,0,3.53-.389,5.144-1.156,.749-.356,1.066-1.25,.711-1.999-.355-.748-1.254-1.065-1.998-.711-1.209,.575-2.506,.866-3.856,.866-4.963,0-9-4.038-9-9S7.037,3,12,3s9,4.038,9,9c0,.144-.003,.287-.01,.429-.039,.828,.6,1.53,1.428,1.569,.825,.034,1.529-.601,1.568-1.428,.009-.189,.014-.379,.014-.571C24,5.383,18.617,0,12,0ZM6,14.5v1c0,.829,.672,1.5,1.5,1.5s1.5-.671,1.5-1.5v-1c0-.829-.672-1.5-1.5-1.5s-1.5,.671-1.5,1.5Zm5.5,2.5c.828,0,1.5-.671,1.5-1.5v-1c0-.829-.672-1.5-1.5-1.5s-1.5,.671-1.5,1.5v1c0,.829,.672,1.5,1.5,1.5Zm2.5-2.5v1c0,.829,.672,1.5,1.5,1.5s1.5-.671,1.5-1.5v-1c0-.829-.672-1.5-1.5-1.5s-1.5,.671-1.5,1.5Zm4.897,.501c-.414,0-.75,.336-.75,.75,0,.088,.462,2.673,1.439,3.664,.387,.392,.902,.585,1.414,.585s1.024-.195,1.414-.585c.78-.78,.78-2.048,0-2.828-.816-.711-2.941-1.586-3.518-1.586Z"/></svg>
