<?xml version="1.0" encoding="UTF-8"?>
<svg xmlns="http://www.w3.org/2000/svg" id="Layer_1" data-name="Layer 1" viewBox="0 0 24 24" width="512" height="512"><path d="M22,5.644V2.5c0-.828-.671-1.5-1.5-1.5s-1.5,.672-1.5,1.5v1.089L15.077,.941c-1.869-1.262-4.285-1.261-6.153,0L2.423,5.327C.906,6.352,0,8.056,0,9.886v8.614c0,3.032,2.467,5.5,5.5,5.5h3c.829,0,1.5-.672,1.5-1.5V14.5c0-.275,.224-.5,.5-.5h3c.276,0,.5,.225,.5,.5v8c0,.828,.671,1.5,1.5,1.5h3c3.033,0,5.5-2.468,5.5-5.5V9.886c0-1.653-.739-3.202-2-4.242ZM5.5,21c-1.207,0-2.217-.86-2.45-2h3.95v2h-1.5Zm1.5-6.5v1.5H3v-2H7.036c-.023,.163-.036,.33-.036,.5Zm-4-3.5v-1.114c0-.832,.412-1.606,1.102-2.072L10.602,3.428c.85-.574,1.947-.574,2.796,0l6.5,4.386c.69,.466,1.102,1.24,1.102,2.072v1.114H3Zm18,3v2h-4v-1.5c0-.17-.012-.337-.036-.5h4.036Zm-2.5,7h-1.5v-2h3.95c-.232,1.14-1.242,2-2.45,2ZM13.5,7.5c0,.828-.672,1.5-1.5,1.5s-1.5-.672-1.5-1.5,.672-1.5,1.5-1.5,1.5,.672,1.5,1.5Z"/></svg>
