<?xml version="1.0" encoding="UTF-8"?>
<svg xmlns="http://www.w3.org/2000/svg" id="Layer_1" data-name="Layer 1" viewBox="0 0 24 24">
  <path d="m18.5,0h-3c-3.033,0-5.5,2.467-5.5,5.5v13c0,3.033,2.467,5.5,5.5,5.5h3c3.033,0,5.5-2.467,5.5-5.5V5.5c0-3.033-2.467-5.5-5.5-5.5Zm2.5,18.5c0,1.378-1.122,2.5-2.5,2.5h-3c-1.378,0-2.5-1.122-2.5-2.5V5.5c0-1.378,1.122-2.5,2.5-2.5h3c1.378,0,2.5,1.122,2.5,2.5v13ZM8,4.5v15c0,.829-.671,1.5-1.5,1.5s-1.5-.671-1.5-1.5V4.5c0-.829.671-1.5,1.5-1.5s1.5.671,1.5,1.5Zm-5,3v9c0,.829-.671,1.5-1.5,1.5s-1.5-.671-1.5-1.5V7.5c0-.829.671-1.5,1.5-1.5s1.5.671,1.5,1.5Z"/>
</svg>
