<?xml version="1.0" encoding="UTF-8"?>
<svg xmlns="http://www.w3.org/2000/svg" id="Layer_1" data-name="Layer 1" viewBox="0 0 24 24" width="512" height="512"><path d="m17.415,12.465c.78.78.78,2.049,0,2.829l-2.121,2.121c-.39.39-.902.585-1.414.585s-1.024-.195-1.414-.585l-2.122-2.121c-.778-.78-.778-2.048,0-2.828l2.123-2.122c.779-.78,2.049-.78,2.828,0l2.121,2.121Zm-4.466-4.9c-.199-.894-.996-1.565-1.949-1.565h-3c-1.103,0-2,.897-2,2v3c0,.953.671,1.749,1.564,1.949.133-.789.495-1.547,1.101-2.154l2.125-2.124c.594-.594,1.345-.969,2.159-1.105Zm11.029-1.63l-1.087,11.193c-.325,3.347-3.106,5.872-6.47,5.872H7.578c-3.363,0-6.145-2.524-6.47-5.872L.021,5.935c-.123-1.26.295-2.521,1.146-3.459.852-.938,2.066-1.476,3.333-1.476h15c1.267,0,2.481.538,3.333,1.476.851.938,1.269,2.199,1.146,3.459Zm-2.986-.291c.042-.427-.094-.836-.382-1.153-.287-.317-.682-.492-1.11-.492H4.5c-.429,0-.823.175-1.11.492-.288.317-.424.726-.382,1.152l1.087,11.194c.175,1.802,1.673,3.162,3.483,3.162h8.844c1.811,0,3.309-1.359,3.483-3.162l1.087-11.193Z"/></svg>
