<?xml version="1.0" encoding="UTF-8"?>
<svg xmlns="http://www.w3.org/2000/svg" id="Layer_1" data-name="Layer 1" viewBox="0 0 24 24" width="512" height="512"><path d="M20.5,13h-3.5c-.83,0-1.5,.67-1.5,1.5s-.67,1.5-1.5,1.5h-4c-.83,0-1.5-.67-1.5-1.5s-.67-1.5-1.5-1.5H3.5c-1.93,0-3.5,1.57-3.5,3.5v2c0,3.03,2.47,5.5,5.5,5.5h13c3.03,0,5.5-2.47,5.5-5.5v-2c0-1.93-1.57-3.5-3.5-3.5Zm.5,5.5c0,1.38-1.12,2.5-2.5,2.5H5.5c-1.38,0-2.5-1.12-2.5-2.5v-2c0-.28,.22-.5,.5-.5h2.26c.62,1.75,2.29,3,4.24,3h4c1.96,0,3.62-1.25,4.24-3h2.26c.28,0,.5,.22,.5,.5v2ZM20.5,0h-3.5c-.83,0-1.5,.67-1.5,1.5s-.67,1.5-1.5,1.5h-4c-.83,0-1.5-.67-1.5-1.5s-.67-1.5-1.5-1.5H3.5C1.57,0,0,1.57,0,3.5v2c0,3.03,2.47,5.5,5.5,5.5h13c3.03,0,5.5-2.47,5.5-5.5V3.5c0-1.93-1.57-3.5-3.5-3.5Zm.5,5.5c0,1.38-1.12,2.5-2.5,2.5H5.5c-1.38,0-2.5-1.12-2.5-2.5V3.5c0-.28,.22-.5,.5-.5h2.26c.62,1.75,2.29,3,4.24,3h4c1.96,0,3.62-1.25,4.24-3h2.26c.28,0,.5,.22,.5,.5v2Z"/></svg>
