<?xml version="1.0" encoding="UTF-8"?>
<svg xmlns="http://www.w3.org/2000/svg" id="Layer_1" data-name="Layer 1" viewBox="0 0 24 24" width="512" height="512"><path d="M24,17.75c0,2.16-2.82,4.85-4.22,5.98-.45,.36-1.1,.36-1.55,0-1.4-1.13-4.22-3.81-4.22-5.98,0-1.52,1.12-2.75,2.5-2.75,1.22,0,2.27,.96,2.49,2.22h0c.22-1.27,1.29-2.22,2.51-2.22,1.38,0,2.5,1.23,2.5,2.75ZM18.5,2h-5.53c-.08,0-.15-.02-.22-.05L9.59,.37c-.48-.24-1.02-.37-1.56-.37h-2.53C2.47,0,0,2.47,0,5.5v11c0,3.03,2.47,5.5,5.5,5.5h5c.83,0,1.5-.67,1.5-1.5s-.67-1.5-1.5-1.5H5.5c-1.38,0-2.5-1.12-2.5-2.5V7H20.95c.03,.16,.05,.33,.05,.5v4c0,.83,.67,1.5,1.5,1.5s1.5-.67,1.5-1.5V7.5c0-3.03-2.47-5.5-5.5-5.5Z"/></svg>
