<?xml version="1.0" encoding="UTF-8"?>
<svg xmlns="http://www.w3.org/2000/svg" id="Layer_1" data-name="Layer 1" viewBox="0 0 24 24" width="512" height="512"><path d="m19.5,2h-3.592c.056-.157.092-.324.092-.5,0-.829-.671-1.5-1.5-1.5H1.5C.671,0,0,.671,0,1.5s.671,1.5,1.5,1.5h.5v18h-.5c-.829,0-1.5.671-1.5,1.5s.671,1.5,1.5,1.5h13c.829,0,1.5-.671,1.5-1.5,0-.176-.036-.343-.092-.5h3.592c2.481,0,4.5-2.019,4.5-4.5V6.5c0-2.481-2.019-4.5-4.5-4.5Zm-5.5,5v-2h2v2h-2Zm0,12v-2h2v2h-2Zm0-5v-4h7v4h-7Zm7-7.5v.5h-2v-2h.5c.827,0,1.5.673,1.5,1.5ZM5,3h6v18h-6V3Zm14.5,16h-.5v-2h2v.5c0,.827-.673,1.5-1.5,1.5Z"/></svg>
