<?xml version="1.0" encoding="UTF-8"?>
<svg xmlns="http://www.w3.org/2000/svg" id="Layer_1" data-name="Layer 1" viewBox="0 0 24 24" width="512" height="512"><path d="M12,17h-3.5c-.83,0-1.5-.67-1.5-1.5v-3.5c0-2.76,2.24-5,5-5h3.5c.83,0,1.5,.67,1.5,1.5v3.5c0,2.76-2.24,5-5,5Zm-2-3h2c1.1,0,2-.9,2-2v-2h-2c-1.1,0-2,.9-2,2v2ZM15.73,4.88c.72-.4,.99-1.31,.59-2.04-.5-.9-1.24-1.65-2.15-2.15-.72-.4-1.64-.14-2.04,.59-.4,.72-.14,1.64,.59,2.04,.41,.23,.75,.57,.98,.98,.27,.49,.79,.77,1.31,.77,.25,0,.5-.06,.73-.19ZM4.87,15.73c.4-.72,.14-1.64-.58-2.04-.41-.23-.75-.57-.98-.98-.4-.72-1.32-.99-2.04-.58-.72,.4-.99,1.31-.58,2.04,.5,.9,1.24,1.65,2.15,2.15,.23,.13,.48,.19,.73,.19,.53,0,1.04-.28,1.31-.77ZM3.31,4.29c.23-.41,.57-.75,.98-.98,.72-.4,.99-1.31,.58-2.04-.4-.73-1.31-.99-2.04-.59C1.93,1.19,1.19,1.93,.69,2.83c-.4,.72-.14,1.64,.58,2.04,.23,.13,.48,.19,.73,.19,.53,0,1.04-.28,1.31-.77Zm19.41,7.58c.72-.4,.99-1.31,.59-2.04-.5-.9-1.24-1.65-2.15-2.15-.72-.4-1.64-.14-2.04,.59-.4,.72-.14,1.64,.59,2.04,.41,.23,.75,.57,.98,.98,.27,.49,.79,.77,1.31,.77,.25,0,.5-.06,.73-.19Zm-10.85,10.85c.4-.72,.14-1.64-.58-2.04-.41-.23-.75-.57-.98-.98-.4-.72-1.32-.99-2.04-.58-.72,.4-.99,1.31-.58,2.04,.5,.9,1.24,1.65,2.15,2.15,.23,.13,.48,.19,.73,.19,.53,0,1.04-.28,1.31-.77Zm9.29,.59c.9-.5,1.65-1.24,2.15-2.15,.4-.72,.14-1.64-.59-2.04-.72-.4-1.64-.14-2.04,.59-.23,.41-.57,.75-.98,.98-.72,.4-.99,1.31-.59,2.04,.27,.49,.79,.77,1.31,.77,.25,0,.5-.06,.73-.19ZM7,1.5c0,.83,.67,1.5,1.5,1.5s1.5-.67,1.5-1.5S9.33,0,8.5,0s-1.5,.67-1.5,1.5ZM0,8.49c0,.83,.67,1.5,1.5,1.5s1.5-.67,1.5-1.5-.67-1.5-1.5-1.5-1.5,.67-1.5,1.5Zm17,14.01c0-.83-.67-1.5-1.5-1.5s-1.5,.67-1.5,1.5,.67,1.5,1.5,1.5,1.5-.67,1.5-1.5Zm7-6.99c0-.83-.67-1.5-1.5-1.5s-1.5,.67-1.5,1.5,.67,1.5,1.5,1.5,1.5-.67,1.5-1.5Z"/></svg>
