<?xml version="1.0" encoding="UTF-8"?>
<svg xmlns="http://www.w3.org/2000/svg" id="Layer_1" data-name="Layer 1" viewBox="0 0 24 24" width="512" height="512"><path d="M14,12.5v5c0,.83-.67,1.5-1.5,1.5s-1.5-.67-1.5-1.5v-5c0-.28-.22-.5-.5-.5-.83,0-1.5-.67-1.5-1.5s.67-1.5,1.5-1.5c1.93,0,3.5,1.57,3.5,3.5Zm-2-4.5c.83,0,1.5-.67,1.5-1.5s-.67-1.5-1.5-1.5-1.5,.67-1.5,1.5,.67,1.5,1.5,1.5Zm12-2.5v13c0,3.03-2.47,5.5-5.5,5.5H5.5c-3.03,0-5.5-2.47-5.5-5.5V5.5C0,2.47,2.47,0,5.5,0h13c3.03,0,5.5,2.47,5.5,5.5Zm-3,0c0-1.38-1.12-2.5-2.5-2.5H5.5c-1.38,0-2.5,1.12-2.5,2.5v13c0,1.38,1.12,2.5,2.5,2.5h13c1.38,0,2.5-1.12,2.5-2.5V5.5Z"/></svg>
