<?xml version="1.0" encoding="UTF-8"?>
<svg xmlns="http://www.w3.org/2000/svg" id="Layer_1" data-name="Layer 1" viewBox="0 0 24 24" width="512" height="512"><path d="M24,7.5v6c0,.83-.67,1.5-1.5,1.5s-1.5-.67-1.5-1.5V7.5c0-.17-.02-.34-.05-.5H3.05c-.03,.16-.05,.33-.05,.5v9c0,1.38,1.12,2.5,2.5,2.5h6c.83,0,1.5,.67,1.5,1.5s-.67,1.5-1.5,1.5H5.5c-3.03,0-5.5-2.47-5.5-5.5V7.5C0,4.47,2.47,2,5.5,2h13c3.03,0,5.5,2.47,5.5,5.5Zm-7.45,5.77c-.81-.81-1.92-1.27-3.06-1.27h-.95c-.28,0-.5,.22-.5,.5v.95c0,1.15,.46,2.25,1.27,3.06l6.81,6.81c.95,.95,2.53,.89,3.41-.18,.76-.93,.6-2.32-.25-3.17l-6.71-6.71Z"/></svg>
