<?xml version="1.0" encoding="UTF-8"?>
<svg xmlns="http://www.w3.org/2000/svg" id="Layer_1" data-name="Layer 1" viewBox="0 0 24 24" width="512" height="512"><path d="m14,5.5v13c0,.828-.671,1.5-1.5,1.5s-1.5-.672-1.5-1.5v-5.5h-6v5.5c0,.828-.671,1.5-1.5,1.5s-1.5-.672-1.5-1.5V5.5c0-.828.671-1.5,1.5-1.5s1.5.672,1.5,1.5v4.5h6v-4.5c0-.828.671-1.5,1.5-1.5s1.5.672,1.5,1.5Zm7.074-1.386c-.562-.233-1.206-.104-1.635.325l-3,3c-.586.586-.586,1.535,0,2.121s1.535.586,2.121,0l.439-.439v9.379c0,.828.671,1.5,1.5,1.5s1.5-.672,1.5-1.5V5.5c0-.606-.365-1.153-.926-1.386Z"/></svg>
