<?xml version="1.0" encoding="UTF-8"?>
<svg xmlns="http://www.w3.org/2000/svg" id="Layer_1" data-name="Layer 1" viewBox="0 0 24 24" width="512" height="512"><path d="M23.56,21.44l-.6-.6c.03-.11,.04-.22,.04-.34v-1c0-2-1.32-3.68-3.12-4.26,.07-.44,.12-.89,.12-1.35,0-.26-.03-.56-.08-.89h1.58c.83,0,1.5-.67,1.5-1.5s-.67-1.5-1.5-1.5h-2.33c-.22-.7-.45-1.39-.68-2h0c2.48,0,4.5-2.02,4.5-4.5,0-.83-.67-1.5-1.5-1.5s-1.5,.67-1.5,1.5-.67,1.5-1.5,1.5h-1.25c-1.1-1.84-3.08-3-5.25-3s-3.98,1.07-5.1,2.78L2.56,.44C1.97-.15,1.03-.15,.44,.44-.15,1.02-.15,1.98,.44,2.56L21.44,23.56c.29,.29,.68,.44,1.06,.44s.77-.15,1.06-.44c.59-.59,.59-1.54,0-2.12ZM9.12,6.93c.5-1.17,1.63-1.93,2.88-1.93s2.38,.76,2.88,1.92c.55,1.27,2.12,5.64,2.12,6.96,0,.31-.03,.61-.09,.9l-7.81-7.81s.02-.04,.02-.05Zm5.84,13.05c.19,.81-.3,1.62-1.11,1.81-.6,.15-1.23,.22-1.85,.22-2.91,0-5.46-1.59-6.86-3.95-.66,.16-1.14,.75-1.14,1.45,0,.83-.67,1.5-1.5,1.5s-1.5-.67-1.5-1.5c0-2,1.32-3.67,3.12-4.26-.07-.44-.12-.89-.12-1.35,0-.25,.02-.55,.07-.88h-1.57c-.83,0-1.5-.68-1.5-1.5s.67-1.5,1.5-1.5h1.6c.86,0,1.68,.37,2.24,1.03,.57,.66,.83,1.55,.7,2.42-.02,.17-.04,.32-.04,.44,0,2.82,2.24,5.11,5,5.11,.39,0,.78-.05,1.15-.14,.81-.19,1.62,.3,1.81,1.11Z"/></svg>
