<?xml version="1.0" encoding="UTF-8"?>
<svg xmlns="http://www.w3.org/2000/svg" id="Layer_1" data-name="Layer 1" viewBox="0 0 24 24" width="512" height="512"><path d="m9.658,12.744l3.029-3.029c.208-.208.39-.431.549-.666l1.323-.051c.828-.032,1.473-.729,1.441-1.557s-.736-1.46-1.557-1.441l-.475.018c-.057-.488-.194-.968-.411-1.42l1.022-1.057c.576-.596.56-1.545-.036-2.121-.596-.574-1.545-.559-2.121.036l-.994,1.029c-.454-.214-.937-.347-1.427-.399v-.587c0-.829-.671-1.5-1.5-1.5s-1.5.671-1.5,1.5v1.33c-.232.157-.452.337-.657.542l-.44.44-.824-.854c-.575-.596-1.524-.612-2.121-.037-.596.575-.613,1.525-.037,2.121l.861.892-.467.467c-.188.188-.355.389-.503.599h-1.311c-.829,0-1.5.671-1.5,1.5s.671,1.5,1.5,1.5h.523c.049.516.187,1.024.413,1.501l-.968.967c-.586.585-.586,1.536,0,2.122.293.293.677.439,1.061.439s.768-.146,1.061-.439l.966-.966c.595.284,1.251.434,1.93.434,1.198,0,2.325-.467,3.172-1.314Zm.908-5.15l-3.029,3.029c-.561.561-1.539.562-2.101,0-.579-.579-.579-1.522,0-2.101l3.029-3.029c.29-.29.67-.434,1.051-.434s.761.145,1.05.434c.579.579.579,1.522,0,2.101Zm13.434,7.848c-.032-.828-.729-1.453-1.557-1.441l-.476.018c-.057-.488-.194-.969-.41-1.42l1.022-1.057c.576-.595.56-1.545-.036-2.121-.595-.576-1.545-.561-2.121.036l-.993,1.026c-.591-.279-1.242-.427-1.915-.427-1.198,0-2.325.467-3.172,1.314l-3.029,3.029c-.187.187-.356.388-.505.6h-1.309c-.829,0-1.5.671-1.5,1.5s.671,1.5,1.5,1.5h.52c.049.52.187,1.022.406,1.486l-.968.935c-.596.575-.612,1.525-.037,2.121.294.305.687.458,1.079.458.375,0,.751-.14,1.042-.421l.999-.965c.463.222.957.36,1.459.414v.471c0,.829.671,1.5,1.5,1.5s1.5-.671,1.5-1.5v-1.214c.232-.157.452-.337.657-.542l.454-.454.8.8c.293.293.677.439,1.061.439s.768-.146,1.061-.439c.586-.585.586-1.536,0-2.121l-.8-.8.454-.454c.207-.207.39-.43.548-.665l1.324-.051c.828-.032,1.473-.729,1.441-1.557Zm-10.564,1.079l3.029-3.029c.281-.28.654-.435,1.051-.435s.77.154,1.05.435c.579.58.579,1.522,0,2.102l-3.029,3.028c-.579.579-1.522.579-2.101,0h0c-.281-.281-.435-.654-.435-1.05s.155-.77.435-1.051Z"/></svg>
