<?xml version="1.0" encoding="UTF-8"?>
<svg xmlns="http://www.w3.org/2000/svg" id="Layer_1" data-name="Layer 1" viewBox="0 0 24 24" width="512" height="512"><path d="M17.579,8.386l-3.579-.716v-3.537C14,2.118,12.564,.364,10.661,.054c-1.17-.19-2.356,.136-3.251,.898-.896,.762-1.41,1.873-1.41,3.048v1H2.473c-.412,0-.575,.394-.284,.685l1.81,.815-1.801,.838c-.291,.291-.138,.662,.274,.662h3.527v1.397l-3.778,3.942c-.786,.781-1.22,1.821-1.222,2.93s.429,2.15,1.212,2.934l2.308,2.308c1.605,1.605,3.74,2.49,6.011,2.49h5.969c3.033,0,5.5-2.467,5.5-5.5v-4.721c0-2.613-1.859-4.881-4.421-5.393ZM9,4c0-.294,.129-.572,.353-.763,.132-.112,.417-.29,.826-.223,.46,.075,.821,.566,.821,1.119v.866h-2v-1Zm10,14.5c0,1.378-1.122,2.5-2.5,2.5h-5.969c-1.469,0-2.851-.572-3.889-1.611l-2.308-2.308c-.215-.216-.334-.502-.333-.808,0-.305,.12-.591,.362-.833l1.638-1.708v1.268c0,.829,.671,1.5,1.5,1.5s1.5-.671,1.5-1.5v-7h2v.9c0,.715,.505,1.331,1.206,1.471l4.785,.957c1.165,.233,2.01,1.264,2.01,2.452v4.721Z"/></svg>
