<?xml version="1.0" encoding="UTF-8"?>
<svg xmlns="http://www.w3.org/2000/svg" id="Layer_1" data-name="Layer 1" viewBox="0 0 24 24" width="512" height="512"><path d="m19.735,10H4.265c-1.326,0-2.6.631-3.407,1.688C.065,12.727-.194,14.036.146,15.28c.689,2.522,2.083,4.767,4.031,6.49,1.626,1.438,3.799,2.229,6.119,2.229h3.408c2.32,0,4.493-.792,6.119-2.23,1.948-1.723,3.341-3.967,4.031-6.489.34-1.244.081-2.554-.712-3.593-.807-1.057-2.081-1.688-3.407-1.688Zm1.226,4.489c-.535,1.958-1.616,3.698-3.125,5.033-1.077.953-2.544,1.478-4.131,1.478h-3.408c-1.587,0-3.054-.524-4.131-1.477-1.51-1.336-2.59-3.076-3.125-5.034-.125-.458.074-.812.204-.981.247-.322.619-.508,1.022-.508h15.47c.403,0,.775.186,1.022.508.13.17.329.523.204.981ZM3.002,2.583c-.046-.827.587-1.535,1.415-1.581L22.417.002c.824-.031,1.535.588,1.581,1.415s-.587,1.535-1.415,1.581c0,0-18.056,1.002-18.084,1.002-.79,0-1.452-.618-1.496-1.417Zm-.002,3.917c0-.828.671-1.5,1.5-1.5h18c.829,0,1.5.672,1.5,1.5s-.671,1.5-1.5,1.5H4.5c-.829,0-1.5-.672-1.5-1.5Z"/></svg>
