<?xml version="1.0" encoding="UTF-8"?>
<svg xmlns="http://www.w3.org/2000/svg" id="Layer_1" data-name="Layer 1" viewBox="0 0 24 24">
  <path d="m23.271,8.174c-.456-.692-1.386-.881-2.078-.426-.691.456-.882,1.387-.426,2.078.156.237.232.457.232.674,0,1.427-3.506,3.5-9,3.5s-9-2.073-9-3.5c0-1.199,2.707-3.119,7.602-3.453.827-.056,1.451-.771,1.395-1.598-.056-.826-.774-1.465-1.598-1.395C4.275,4.472,0,7.122,0,10.5v7c0,3.706,5.159,6.5,12,6.5s12-2.794,12-6.5v-7c0-.811-.245-1.594-.729-2.326Zm-12.771,12.773c-.903-.065-1.739-.187-2.5-.35v-3.939c.794.142,1.63.243,2.5.297v3.993Zm3-3.993c.87-.054,1.706-.154,2.5-.297v3.939c-.761.164-1.597.285-2.5.35v-3.993Zm-10.5.546v-2.61c.594.36,1.264.681,2,.957v3.727c-1.287-.657-2-1.432-2-2.075Zm16,2.075v-3.727c.736-.277,1.406-.598,2-.957v2.61c0,.643-.713,1.418-2,2.075Zm-6.621-9.079c-.551-.619-.494-1.566.125-2.117L21.504.379c.619-.552,1.568-.495,2.117.125.551.619.494,1.566-.125,2.117l-9,8c-.285.254-.642.379-.995.379-.414,0-.826-.17-1.122-.504Z"/>
</svg>
