<?xml version="1.0" encoding="UTF-8"?>
<svg xmlns="http://www.w3.org/2000/svg" id="Layer_1" data-name="Layer 1" viewBox="0 0 24 24" width="512" height="512"><path d="m0,1.5C0,.672.671,0,1.5,0h8c.829,0,1.5.672,1.5,1.5s-.671,1.5-1.5,1.5H1.5c-.829,0-1.5-.672-1.5-1.5Zm4,5.5v2.5c0,.828.671,1.5,1.5,1.5s1.5-.672,1.5-1.5v-2.5h2.5c.829,0,1.5-.672,1.5-1.5s-.671-1.5-1.5-1.5H1.5c-.829,0-1.5.672-1.5,1.5s.671,1.5,1.5,1.5h2.5Zm10.5,5c1.381,0,2.5-1.119,2.5-2.5V3.648l4-.572v2.974c-1.141.232-2,1.24-2,2.45,0,1.381,1.119,2.5,2.5,2.5s2.5-1.119,2.5-2.5c0,0,0-.001,0-.002s0-.001,0-.002V2.5c0-.725-.314-1.413-.862-1.889-.548-.476-1.273-.688-1.992-.587l-5,.715c-1.224.175-2.146,1.239-2.146,2.476v3.835c-1.141.232-2,1.24-2,2.45,0,1.381,1.119,2.5,2.5,2.5Zm8,9c-.828,0-1.5.672-1.5,1.5s.672,1.5,1.5,1.5,1.5-.672,1.5-1.5-.672-1.5-1.5-1.5Zm-5.5-5.5c0-.828-.672-1.5-1.5-1.5s-1.5.672-1.5,1.5.672,1.5,1.5,1.5,1.5-.672,1.5-1.5Zm6.521-1.1c-.607-.562-1.557-.527-2.12.079l-6.5,7c-.564.606-.529,1.556.079,2.12.289.268.655.4,1.02.4.403,0,.804-.161,1.1-.479l6.5-7c.564-.606.529-1.556-.079-2.12Zm-10.96,7.039c.586.586.586,1.535,0,2.121-.293.293-.677.439-1.061.439s-.768-.146-1.061-.439l-1.082-1.081c-1.13.855-2.458,1.521-3.858,1.521-2.649,0-4.5-1.645-4.5-4,0-.381,0-1.468,2.627-3.859-.357-.498-.627-1.065-.627-1.641,0-1.379,1.122-2.5,2.5-2.5s2.5,1.121,2.5,2.5c0,.6-.294,1.191-.674,1.705l2.075,2.075c.351-.413.646-.804.853-1.113.461-.687,1.392-.873,2.08-.412.688.46.874,1.39.415,2.078-.118.177-.552.811-1.217,1.578l1.029,1.029Zm-5.35-1.107l-1.769-1.769c-.675.644-1.241,1.268-1.431,1.593.097.692.851.844,1.489.844.529,0,1.122-.266,1.71-.668Z"/></svg>
