<?xml version="1.0" encoding="UTF-8"?>
<svg xmlns="http://www.w3.org/2000/svg" id="Layer_1" data-name="Layer 1" viewBox="0 0 24 24" width="512" height="512"><path d="m24,13.5v9c0,.828-.672,1.5-1.5,1.5s-1.5-.672-1.5-1.5v-1.5H3v1.5c0,.828-.672,1.5-1.5,1.5s-1.5-.672-1.5-1.5V5.5c0-.828.672-1.5,1.5-1.5s1.5.672,1.5,1.5v10.5h7v-2.5c0-1.903,1.205-3.608,3-4.243.78-.276,1.638.133,1.914.914s-.133,1.638-.914,1.914c-.598.212-1,.78-1,1.415v2.5h8v-2.5c0-.635-.402-1.203-1-1.415-.781-.276-1.19-1.133-.914-1.914s1.134-1.19,1.914-.914c1.795.635,3,2.34,3,4.243Zm-15,0c0-1.381-1.119-2.5-2.5-2.5s-2.5,1.119-2.5,2.5,1.119,2.5,2.5,2.5,2.5-1.119,2.5-2.5Zm.5-7.5h3c.502,0,.97-.251,1.248-.668l.445-.668,1.422,3.413c.202.484.642.828,1.161.906.074.011.149.017.224.017.441,0,.865-.195,1.152-.54l2.05-2.46h2.298c.828,0,1.5-.672,1.5-1.5s-.672-1.5-1.5-1.5h-3c-.445,0-.867.197-1.152.54l-.915,1.098-1.548-3.715c-.213-.511-.689-.862-1.24-.916-.556-.056-1.085.201-1.393.661l-1.555,2.332h-2.197c-.828,0-1.5.672-1.5,1.5s.672,1.5,1.5,1.5Z"/></svg>
