<?xml version="1.0" encoding="UTF-8"?>
<svg xmlns="http://www.w3.org/2000/svg" id="Layer_1" data-name="Layer 1" viewBox="0 0 24 24" width="512" height="512"><path d="M3,10.5c0-1.93,1.57-3.5,3.5-3.5s3.5,1.57,3.5,3.5-1.57,3.5-3.5,3.5-3.5-1.57-3.5-3.5Zm3.5,5.5c-3.58,0-6.5,2.92-6.5,6.5,0,.83,.67,1.5,1.5,1.5s1.5-.67,1.5-1.5c0-1.93,1.57-3.5,3.5-3.5s3.5,1.57,3.5,3.5c0,.83,.67,1.5,1.5,1.5s1.5-.67,1.5-1.5c0-3.58-2.92-6.5-6.5-6.5ZM18.5,0H9.96c-1.96,0-3.78,1.05-4.76,2.75-.41,.72-.17,1.63,.55,2.05,.71,.41,1.63,.17,2.05-.55,.45-.77,1.28-1.25,2.17-1.25h8.54c1.38,0,2.5,1.12,2.5,2.5v7c0,1.38-1.12,2.5-2.5,2.5h-4c-.83,0-1.5,.67-1.5,1.5s.67,1.5,1.5,1.5h4c3.03,0,5.5-2.47,5.5-5.5V5.5c0-3.03-2.47-5.5-5.5-5.5Zm-6.06,12.56c.29,.29,.68,.44,1.06,.44s.77-.15,1.06-.44l2.15-2.15,.84,.84c.54,.54,1.45,.16,1.45-.6v-3.8c0-.47-.38-.85-.85-.85h-3.8c-.76,0-1.14,.91-.6,1.45l.84,.84-2.15,2.15c-.59,.59-.59,1.54,0,2.12Z"/></svg>
