<?xml version="1.0" encoding="UTF-8"?>
<svg xmlns="http://www.w3.org/2000/svg" id="Layer_1" data-name="Layer 1" viewBox="0 0 24 24">
  <path d="m16.481,12.475c0,1.879-2.365,4.163-3.666,5.225-.489.399-1.179.399-1.668,0-1.301-1.062-3.666-3.346-3.666-5.225,0-1.367,1.007-2.475,2.25-2.475s2.25,1.108,2.25,2.475c0-1.367,1.007-2.475,2.25-2.475s2.25,1.108,2.25,2.475Zm7.519-2.589v8.614c0,3.033-2.468,5.5-5.5,5.5H5.5c-3.032,0-5.5-2.467-5.5-5.5v-8.614c0-1.831.906-3.536,2.424-4.56L8.924.941c1.869-1.262,4.283-1.262,6.152,0l6.5,4.386c1.518,1.023,2.424,2.728,2.424,4.559Zm-3,0c0-.833-.412-1.607-1.102-2.072l-6.5-4.387c-.425-.287-.912-.43-1.398-.43s-.974.143-1.398.43l-6.5,4.386c-.689.466-1.102,1.24-1.102,2.073v8.614c0,1.378,1.121,2.5,2.5,2.5h13c1.379,0,2.5-1.122,2.5-2.5v-8.614Z"/>
</svg>
