<?xml version="1.0" encoding="UTF-8"?>
<svg xmlns="http://www.w3.org/2000/svg" id="Layer_1" data-name="Layer 1" viewBox="0 0 24 24" width="512" height="512"><path d="M4.91,18c-.22,.62-.8,1-1.41,1-.17,0-.33-.03-.5-.09-1.79-.63-3-2.34-3-4.24v-6.04c0-1.7,.77-3.28,2.11-4.33L6.11,1.17c2-1.56,4.78-1.56,6.78,0l1.11,.87v-.54c0-.83,.67-1.5,1.5-1.5s1.5,.67,1.5,1.5v2.89c.45,.37,.84,.81,1.16,1.31,.44,.7,.23,1.63-.47,2.07-.7,.44-1.63,.23-2.07-.47-.15-.25-.35-.46-.58-.64l-4-3.13c-.91-.71-2.17-.71-3.08,0L3.96,6.66c-.61,.48-.96,1.2-.96,1.97v6.04c0,.63,.4,1.2,1,1.41,.78,.28,1.19,1.13,.91,1.91Zm19.09,4c0,1.1-.9,2-2,2H8c-1.1,0-2-.9-2-2,0-.74,.4-1.39,1-1.73v-5.77c0-2.48,2.02-4.5,4.5-4.5h7c2.48,0,4.5,2.02,4.5,4.5v5.77c.6,.35,1,.99,1,1.73Zm-5.59-2h1.59v-5.5c0-.83-.67-1.5-1.5-1.5h-7c-.83,0-1.5,.67-1.5,1.5v5.5h1.59c.27,0,.52,.11,.71,.29l.41,.41c.19,.19,.44,.29,.71,.29h3.17c.27,0,.52-.11,.71-.29l.41-.41c.19-.19,.44-.29,.71-.29Z"/></svg>
