<?xml version="1.0" encoding="UTF-8"?>
<svg xmlns="http://www.w3.org/2000/svg" id="Layer_1" data-name="Layer 1" viewBox="0 0 24 24" width="512" height="512"><path d="M15.5,5h-2v-1.94c2.574,.203,4.488,.85,4.51,.857,.162,.057,.327,.083,.49,.083,.621,0,1.203-.389,1.417-1.01,.271-.782-.144-1.637-.927-1.907-.127-.045-3.171-1.083-6.99-1.083S5.137,1.038,5.01,1.083c-.783,.271-1.198,1.125-.927,1.907,.271,.784,1.129,1.201,1.907,.927,.023-.007,1.922-.655,4.51-.857v1.94h-2c-3.032,0-5.5,2.468-5.5,5.5v6c0,2.259,1.37,4.205,3.323,5.05l-.102,.167c-.433,.706-.211,1.63,.496,2.062,.244,.149,.515,.221,.782,.221,.504,0,.997-.255,1.28-.717l.786-1.283h4.87l.786,1.283c.283,.462,.775,.717,1.28,.717,.268,0,.538-.071,.782-.221,.707-.433,.929-1.356,.496-2.062l-.102-.167c1.953-.845,3.323-2.791,3.323-5.05v-6c0-3.032-2.468-5.5-5.5-5.5ZM6,13v-2.5c0-.171,.017-.338,.05-.5h4.45v3H6Zm7.5,0v-3h4.45c.033,.162,.05,.329,.05,.5v2.5h-4.5Zm2,6h-7c-1.379,0-2.5-1.121-2.5-2.5v-.5h2v.5c0,.828,.672,1.5,1.5,1.5s1.5-.672,1.5-1.5v-.5h2v.5c0,.828,.672,1.5,1.5,1.5s1.5-.672,1.5-1.5v-.5h2v.5c0,1.379-1.121,2.5-2.5,2.5Z"/></svg>
