<?xml version="1.0" encoding="UTF-8"?>
<svg xmlns="http://www.w3.org/2000/svg" id="Layer_1" data-name="Layer 1" viewBox="0 0 24 24">
  <path d="m18,8c0,1.105-.895,2-2,2s-2-.895-2-2,.895-2,2-2,2,.895,2,2Zm5.561,15.561c-.293.293-.677.439-1.061.439s-.768-.146-1.061-.439L.439,2.561C-.146,1.975-.146,1.025.439.439S1.975-.146,2.561.439l1.258,1.258c.814-.454,1.735-.698,2.681-.698h11c3.033,0,5.5,2.468,5.5,5.5v11c0,.946-.243,1.868-.698,2.681l1.258,1.258c.586.586.586,1.535,0,2.121ZM6.146,4.025l13.828,13.828c.017-.116.025-.235.025-.354V6.5c0-1.379-1.122-2.5-2.5-2.5H6.5c-.119,0-.237.009-.354.025Zm9.108,16.179l-6.755-6.755c-.538-.538-1.41-.538-1.948,0l-2.551,2.551v-6.5c0-.828-.671-1.5-1.5-1.5s-1.5.672-1.5,1.5v8c0,3.032,2.467,5.5,5.5,5.5h8c.829,0,1.5-.672,1.5-1.5,0-.553-.3-1.036-.745-1.296Z"/>
</svg>
