<?xml version="1.0" encoding="UTF-8"?>
<svg xmlns="http://www.w3.org/2000/svg" id="Layer_1" data-name="Layer 1" viewBox="0 0 24 24" width="512" height="512"><path d="M12,0C5.383,0,0,5.383,0,12s5.383,12,12,12,12-5.383,12-12S18.617,0,12,0Zm0,3c3.525,0,6.574,2.042,8.05,5h-1.402c-.564-1.178-1.758-2-3.149-2-1.93,0-3.5,1.57-3.5,3.5,0,.992,.419,1.884,1.085,2.522,.134,.184,.403,.807,.48,1.038-.309,.254-1.165,.44-1.565,.44s-1.256-.186-1.565-.44c.077-.231,.343-.849,.477-1.036,.667-.638,1.088-1.531,1.088-2.524,0-1.93-1.57-3.5-3.5-3.5-1.391,0-2.585,.822-3.149,2h-1.402c1.476-2.958,4.526-5,8.05-5Zm3.5,8c-.827,0-1.5-.673-1.5-1.5s.673-1.5,1.5-1.5,1.5,.673,1.5,1.5-.673,1.5-1.5,1.5Zm-7,0c-.827,0-1.5-.673-1.5-1.5s.673-1.5,1.5-1.5,1.5,.673,1.5,1.5-.673,1.5-1.5,1.5Zm3.5,10c-4.963,0-9-4.037-9-9,0-.338,.022-.671,.059-1h2.292c.497,1.039,1.487,1.787,2.669,1.951-.008,.073-.02,.148-.02,.213,0,.157,.022,.304,.054,.447l-1.138,.708c-.357,.222-.523,.632-.454,1.023,.001,.007,.007,.014,.008,.021,.023,.114,.058,.227,.123,.332,.002,.003,.005,.006,.008,.009,.002,.003,.002,.006,.003,.008,.19,.301,.515,.465,.846,.465,.183,0,.368-.05,.534-.155l1.001-.635,.32-.199c.122,.076,.247,.145,.376,.209l-.576,1.153c-.247,.494-.047,1.095,.447,1.342,.144,.071,.296,.105,.446,.105,.367,0,.72-.202,.896-.553l.736-1.471c.134,.014,.261,.024,.37,.024s.236-.01,.37-.024l.736,1.471c.176,.351,.528,.553,.896,.553,.15,0,.303-.034,.446-.105,.494-.247,.694-.848,.447-1.342l-.576-1.153c.129-.064,.255-.133,.376-.209l.32,.199,1.001,.635c.166,.105,.352,.155,.534,.155,.331,0,.655-.164,.846-.465,.002-.003,.002-.006,.003-.008,.002-.003,.005-.006,.008-.009,.066-.106,.103-.221,.125-.337,.001-.006,.005-.011,.006-.017,.069-.391-.096-.802-.454-1.023l-1.138-.708c.032-.143,.054-.29,.054-.447,0-.065-.012-.141-.02-.213,1.182-.164,2.172-.912,2.669-1.951h2.292c.037,.329,.059,.662,.059,1,0,4.963-4.037,9-9,9Z"/></svg>
