<?xml version="1.0" encoding="UTF-8"?>
<svg xmlns="http://www.w3.org/2000/svg" id="Layer_1" data-name="Layer 1" viewBox="0 0 24 24" width="512" height="512"><path d="M17.5,21c-.827,0-1.5-.673-1.5-1.5v-1.589c.162,.057,.331,.089,.5,.089,.418,0,.835-.174,1.131-.515,.544-.625,.479-1.572-.146-2.116-.817-.712-2.988-2.369-5.485-2.369s-4.668,1.657-5.485,2.369c-.625,.544-.69,1.492-.146,2.116,.416,.478,1.068,.625,1.631,.426v1.589c0,.827-.673,1.5-1.5,1.5s-1.5,.671-1.5,1.5,.671,1.5,1.5,1.5h11c.829,0,1.5-.671,1.5-1.5s-.671-1.5-1.5-1.5Zm-6.757,0c.166-.469,.257-.974,.257-1.5v-3.333c.338-.104,.676-.167,1-.167s.662,.064,1,.167v3.333c0,.526,.091,1.031,.257,1.5h-2.514Zm-6.743-1.5c0,.828-.672,1.5-1.5,1.5s-1.5-.672-1.5-1.5,.672-1.5,1.5-1.5,1.5,.672,1.5,1.5Zm20,3c0,.828-.672,1.5-1.5,1.5s-1.5-.672-1.5-1.5,.672-1.5,1.5-1.5,1.5,.672,1.5,1.5Zm-3.501-2.834c-.306,0-.614-.093-.88-.287-.67-.487-.819-1.425-.332-2.095,1.121-1.543,1.713-3.37,1.713-5.284,0-4.962-4.038-9-9-9S3,7.038,3,12c0,.726,.086,1.448,.256,2.144,.197,.805-.296,1.616-1.101,1.813-.809,.197-1.617-.296-1.813-1.101-.227-.929-.342-1.89-.342-2.856C0,5.383,5.383,0,12,0s12,5.383,12,12c0,2.551-.791,4.988-2.287,7.047-.293,.404-.751,.618-1.215,.618ZM6.6,9.3l.4-.3-.4-.3c-.663-.497-.797-1.438-.3-2.1,.498-.663,1.439-.796,2.1-.3l2,1.5c.378,.284,.6,.728,.6,1.2s-.222,.917-.6,1.2l-2,1.5c-.27,.202-.585,.3-.899,.3-.456,0-.906-.207-1.201-.6-.497-.663-.362-1.603,.3-2.1Zm10.8-.6l-.4,.3,.4,.3c.663,.497,.797,1.438,.3,2.1-.295,.393-.745,.6-1.201,.6-.313,0-.629-.098-.899-.3l-2-1.5c-.378-.284-.6-.728-.6-1.2s.222-.917,.6-1.2l2-1.5c.663-.496,1.603-.362,2.1,.3s.362,1.603-.3,2.1Z"/></svg>
