<?xml version="1.0" encoding="UTF-8"?>
<svg xmlns="http://www.w3.org/2000/svg" id="Layer_1" data-name="Layer 1" viewBox="0 0 24 24" width="512" height="512"><path d="m22.233,5.174c-.647.413-1.422.889-2.233,1.35v-3.024c0-.828-.671-1.5-1.5-1.5s-1.5.672-1.5,1.5v3.5h-2v-2.424c0-1.074-.466-2.082-1.278-2.765-.783-.657-1.804-.932-2.801-.76-1.415.247-2.896.62-4.295,1.12-1.746-.691-3.78-1.042-5.626-1.172C.213.945-.322,1.806.105,2.469c.382.594,1.237,1.369,1.815,2.287-1.18,1.046-1.92,2.293-1.92,3.744,0,1.565.862,2.895,2.209,3.989,0,0-2.042,5.369-2.054,5.41-.348,1.219-.11,2.498.653,3.51s1.928,1.592,3.195,1.592c1.786,0,3.357-1.188,3.847-2.898l1.637-4.443c.482.111.961.207,1.433.29.196.034.393.051.588.051.801,0,1.584-.282,2.213-.811.812-.683,1.278-1.69,1.278-2.765v-2.424h2v3.5c0,.828.671,1.5,1.5,1.5s1.5-.672,1.5-1.5v-3.024c.812.461,1.586.937,2.233,1.35.767.489,1.767-.062,1.767-.972v-4.709c0-.91-1-1.461-1.767-.972ZM4.972,19.255c-.117.438-.515.745-.969.745-.435,0-.688-.25-.8-.398-.108-.144-.27-.437-.176-.83l1.785-4.689c.571.27,1.171.516,1.787.736,0,0-1.615,4.391-1.627,4.436Zm7.028-6.831c0,.265-.146.415-.208.468-.074.062-.198.133-.354.102-4.652-.813-8.437-2.829-8.437-4.493s3.785-3.68,8.437-4.493c.026-.005.293.05.354.102.062.053.208.203.208.468v7.848Z"/></svg>
