<?xml version="1.0" encoding="UTF-8"?>
<svg xmlns="http://www.w3.org/2000/svg" id="Layer_1" data-name="Layer 1" viewBox="0 0 24 24" width="512" height="512"><path d="M12.5,24H5.5c-.828,0-1.5-.671-1.5-1.5s.672-1.5,1.5-1.5h7c1.228,0,2.375-.485,3.23-1.367,.854-.881,1.305-2.043,1.268-3.272-.072-2.405-2.203-4.361-4.75-4.361H5.5c-.828,0-1.5-.671-1.5-1.5V4.5C4,2.019,6.019,0,8.5,0h9c.828,0,1.5,.671,1.5,1.5s-.672,1.5-1.5,1.5H8.5c-.827,0-1.5,.673-1.5,1.5v4.5h5.248c4.152,0,7.628,3.262,7.748,7.271,.062,2.047-.688,3.983-2.113,5.452-1.425,1.469-3.337,2.278-5.383,2.278Z"/></svg>
