<?xml version="1.0" encoding="UTF-8"?>
<svg xmlns="http://www.w3.org/2000/svg" id="Layer_1" data-name="Layer 1" viewBox="0 0 24 24" width="512" height="512"><path d="M5.004,24.002c-.551,0-1.102-.2-1.531-.599l-1.969-1.83c-1.989-1.988-1.989-5.16-.04-7.109,.945-.944,2.201-1.464,3.536-1.464s2.591,.52,3.535,1.464c.945,.944,1.465,2.2,1.465,3.536s-.52,2.591-1.465,3.536l-1.995,1.865c-.431,.401-.983,.602-1.536,.602Zm-.004-8.002c-.534,0-1.037,.208-1.415,.586-.779,.779-.779,2.048,0,2.828l1.418,1.316,1.447-1.352c.341-.342,.549-.844,.549-1.378s-.208-1.037-.586-1.415c-.378-.377-.88-.585-1.414-.585Zm14.004-4.998c-.551,0-1.101-.199-1.53-.598l-1.97-1.832c-1.989-1.987-1.989-5.159-.04-7.109,.945-.944,2.201-1.464,3.536-1.464s2.591,.52,3.535,1.464c.945,.944,1.465,2.2,1.465,3.536s-.52,2.591-1.465,3.536l-1.995,1.865c-.431,.401-.983,.602-1.536,.602Zm-.004-8.002c-.534,0-1.037,.208-1.415,.586-.779,.779-.779,2.048,0,2.828l1.418,1.317,1.447-1.353c.341-.342,.549-.844,.549-1.378s-.208-1.037-.586-1.415c-.378-.377-.88-.585-1.414-.585Zm5,16.5c0-2.481-2.019-4.5-4.5-4.5h-4c-.827,0-1.5-.673-1.5-1.5,0-.432,.178-.83,.5-1.119,.617-.553,.669-1.501,.116-2.118-.552-.617-1.501-.67-2.118-.116-.952,.853-1.499,2.075-1.499,3.353,0,2.481,2.019,4.5,4.5,4.5h4c.827,0,1.5,.673,1.5,1.5s-.673,1.5-1.5,1.5H11.5c-.829,0-1.5,.671-1.5,1.5s.671,1.5,1.5,1.5h8c2.481,0,4.5-2.019,4.5-4.5Z"/></svg>
