<?xml version="1.0" encoding="UTF-8"?>
<svg xmlns="http://www.w3.org/2000/svg" id="Layer_1" data-name="Layer 1" viewBox="0 0 24 24" width="512" height="512"><path d="M13.5,22.5c0,.83-.67,1.5-1.5,1.5s-1.5-.67-1.5-1.5,.67-1.5,1.5-1.5,1.5,.67,1.5,1.5Zm3.5-1.5c-.83,0-1.5,.67-1.5,1.5s.67,1.5,1.5,1.5,1.5-.67,1.5-1.5-.67-1.5-1.5-1.5Zm5,0c-.83,0-1.5,.67-1.5,1.5s.67,1.5,1.5,1.5,1.5-.67,1.5-1.5-.67-1.5-1.5-1.5Zm-15,0c-.83,0-1.5,.67-1.5,1.5s.67,1.5,1.5,1.5,1.5-.67,1.5-1.5-.67-1.5-1.5-1.5Zm-5,0c-.83,0-1.5,.67-1.5,1.5s.67,1.5,1.5,1.5,1.5-.67,1.5-1.5-.67-1.5-1.5-1.5ZM14.48,1.03c-.66-.66-1.54-1.03-2.48-1.03s-1.81,.36-2.45,1L4.96,5.42c-.6,.58-.62,1.52-.04,2.12s1.52,.61,2.12,.04l3.46-3.33v13.25c0,.83,.67,1.5,1.5,1.5s1.5-.67,1.5-1.5V4.25l3.46,3.33c.29,.28,.67,.42,1.04,.42,.39,0,.79-.15,1.08-.46,.57-.6,.56-1.55-.04-2.12L14.48,1.03Z"/></svg>
