<?xml version="1.0" encoding="UTF-8"?>
<svg xmlns="http://www.w3.org/2000/svg" id="Layer_1" data-name="Layer 1" viewBox="0 0 24 24">
  <path d="m22,12c0-1.565-.805-2.944-2.022-3.75,1.216-.806,2.022-2.185,2.022-3.75,0-2.481-2.019-4.5-4.5-4.5s-4.5,2.019-4.5,4.5c0,1.565.805,2.944,2.022,3.75-1.216.806-2.022,2.185-2.022,3.75s.805,2.944,2.022,3.75c-1.216.806-2.022,2.185-2.022,3.75,0,2.481,2.019,4.5,4.5,4.5s4.5-2.019,4.5-4.5c0-1.565-.805-2.944-2.022-3.75,1.216-.806,2.022-2.185,2.022-3.75Zm-3,0c0,.827-.673,1.5-1.5,1.5s-1.5-.673-1.5-1.5.673-1.5,1.5-1.5,1.5.673,1.5,1.5Zm-1.5-9c.827,0,1.5.673,1.5,1.5s-.673,1.5-1.5,1.5-1.5-.673-1.5-1.5.673-1.5,1.5-1.5Zm0,18c-.827,0-1.5-.673-1.5-1.5s.673-1.5,1.5-1.5,1.5.673,1.5,1.5-.673,1.5-1.5,1.5Z"/>
  <path d="m11,4.5c0-2.481-2.019-4.5-4.5-4.5S2,2.019,2,4.5c0,1.565.805,2.944,2.022,3.75-1.216.806-2.022,2.185-2.022,3.75s.805,2.944,2.022,3.75c-1.216.806-2.022,2.185-2.022,3.75,0,2.481,2.019,4.5,4.5,4.5s4.5-2.019,4.5-4.5c0-1.565-.805-2.944-2.022-3.75,1.216-.806,2.022-2.185,2.022-3.75s-.805-2.944-2.022-3.75c1.216-.806,2.022-2.185,2.022-3.75Zm-4.5-1.5c.827,0,1.5.673,1.5,1.5s-.673,1.5-1.5,1.5-1.5-.673-1.5-1.5.673-1.5,1.5-1.5Zm0,7.5c.827,0,1.5.673,1.5,1.5s-.673,1.5-1.5,1.5-1.5-.673-1.5-1.5.673-1.5,1.5-1.5Zm0,10.5c-.827,0-1.5-.673-1.5-1.5s.673-1.5,1.5-1.5,1.5.673,1.5,1.5-.673,1.5-1.5,1.5Z"/>
</svg>
