<?xml version="1.0" encoding="UTF-8"?>
<svg xmlns="http://www.w3.org/2000/svg" id="Layer_1" data-name="Layer 1" viewBox="0 0 24 24" width="512" height="512"><path d="M23.51,21.39c.61,.56,.66,1.5,.11,2.12-.3,.33-.7,.49-1.11,.49-.36,0-.72-.13-1.01-.39L12,15.02,2.51,23.61c-.61,.56-1.56,.51-2.12-.11-.56-.62-.51-1.56,.11-2.12L10.5,12.33V1.5c0-.83,.67-1.5,1.5-1.5s1.5,.67,1.5,1.5V12.33l10.01,9.05ZM17.5,3c.83,0,1.5-.67,1.5-1.5s-.67-1.5-1.5-1.5-1.5,.67-1.5,1.5,.67,1.5,1.5,1.5Zm5,5c.83,0,1.5-.67,1.5-1.5s-.67-1.5-1.5-1.5-1.5,.67-1.5,1.5,.67,1.5,1.5,1.5Zm-13,12c-.83,0-1.5,.67-1.5,1.5s.67,1.5,1.5,1.5,1.5-.67,1.5-1.5-.67-1.5-1.5-1.5Zm6,1c-.83,0-1.5,.67-1.5,1.5s.67,1.5,1.5,1.5,1.5-.67,1.5-1.5-.67-1.5-1.5-1.5ZM6.5,8c.83,0,1.5-.67,1.5-1.5s-.67-1.5-1.5-1.5-1.5,.67-1.5,1.5,.67,1.5,1.5,1.5ZM1.5,3c.83,0,1.5-.67,1.5-1.5S2.33,0,1.5,0,0,.67,0,1.5s.67,1.5,1.5,1.5Zm.5,9.5c0,.83,.67,1.5,1.5,1.5s1.5-.67,1.5-1.5-.67-1.5-1.5-1.5-1.5,.67-1.5,1.5Zm16,0c0,.83,.67,1.5,1.5,1.5s1.5-.67,1.5-1.5-.67-1.5-1.5-1.5-1.5,.67-1.5,1.5Z"/></svg>
