<?xml version="1.0" encoding="UTF-8"?>
<svg xmlns="http://www.w3.org/2000/svg" id="Layer_1" data-name="Layer 1" viewBox="0 0 24 24">
  <path d="m23.816,8.589c-.495-1.52-1.848-2.502-3.446-2.502h-3.772l-1.145-3.57c-.491-1.529-1.847-2.517-3.453-2.517s-2.962.988-3.454,2.519l-1.144,3.568h-3.772c-1.599,0-2.951.981-3.446,2.501-.496,1.52.018,3.11,1.307,4.052l3.08,2.252-1.169,3.618c-.493,1.527.028,3.119,1.329,4.056,1.279.922,2.994.917,4.27-.02l3-2.207,3,2.205c.651.48,1.399.72,2.148.72.737,0,1.475-.232,2.12-.697,1.302-.938,1.823-2.53,1.33-4.056l-1.169-3.619,3.079-2.251c1.29-.942,1.804-2.532,1.308-4.051Zm-3.078,1.629l-3.955,2.892c-.522.382-.74,1.056-.542,1.672l1.503,4.651c.093.287.016.522-.229.699-.247.177-.493.175-.736-.004l-3.89-2.859c-.265-.194-.576-.292-.889-.292V3c.303,0,.504.146.596.434l1.479,4.611c.199.621.776,1.042,1.429,1.042h4.867c.301,0,.501.145.595.432.093.286.018.521-.227.699Z"/>
</svg>
