<?xml version="1.0" encoding="UTF-8"?>
<svg xmlns="http://www.w3.org/2000/svg" id="Layer_1" data-name="Layer 1" viewBox="0 0 24 24" width="512" height="512"><path d="M0,5.5c0-.83,.67-1.5,1.5-1.5h7.84c.67,0,1.3-.26,1.77-.73l1.66-1.66c1.04-1.04,2.42-1.61,3.89-1.61h5.84c.83,0,1.5,.67,1.5,1.5s-.67,1.5-1.5,1.5h-5.84c-.67,0-1.3,.26-1.77,.73l-1.66,1.66c-1.04,1.04-2.42,1.61-3.89,1.61H1.5c-.83,0-1.5-.67-1.5-1.5Zm22.5,15.5H13.66c-.67,0-1.3-.26-1.77-.73l-4.66-4.66c-1.04-1.04-2.42-1.61-3.89-1.61H1.5c-.83,0-1.5,.67-1.5,1.5s.67,1.5,1.5,1.5h1.84c.67,0,1.3,.26,1.77,.73l4.66,4.66c1.04,1.04,2.42,1.61,3.89,1.61h8.84c.83,0,1.5-.67,1.5-1.5s-.67-1.5-1.5-1.5Zm1.5-10.5c0-.83-.67-1.5-1.5-1.5H1.5c-.83,0-1.5,.67-1.5,1.5s.67,1.5,1.5,1.5h7.88l4.39,4.39c1.04,1.04,2.42,1.61,3.89,1.61h4.84c.83,0,1.5-.67,1.5-1.5s-.67-1.5-1.5-1.5h-4.84c-.67,0-1.3-.26-1.77-.73l-2.27-2.27h8.88c.83,0,1.5-.67,1.5-1.5Z"/></svg>
