<?xml version="1.0" encoding="UTF-8"?>
<svg xmlns="http://www.w3.org/2000/svg" id="Layer_1" data-name="Layer 1" viewBox="0 0 24 24" width="512" height="512"><path d="M17,1.925c0-1.063,.784-1.925,1.75-1.925s1.75,.862,1.75,1.925c0-1.063,.784-1.925,1.75-1.925s1.75,.862,1.75,1.925c0,1.514-1.974,3.288-2.957,4.077-.316,.254-.769,.254-1.085,0-.983-.789-2.957-2.562-2.957-4.077ZM5.25,17c-.966,0-1.75,.862-1.75,1.925,0-1.063-.784-1.925-1.75-1.925s-1.75,.862-1.75,1.925c0,1.514,1.974,3.288,2.957,4.077,.316,.254,.769,.254,1.085,0,.983-.789,2.957-2.562,2.957-4.077,0-1.063-.784-1.925-1.75-1.925ZM21.844,8.043c-.805,.197-1.298,1.009-1.101,1.814,.171,.695,.257,1.417,.257,2.143,0,4.962-4.037,9-9,9-.727,0-1.448-.086-2.144-.256-.807-.195-1.617,.296-1.813,1.101-.197,.805,.296,1.617,1.101,1.813,.929,.227,1.89,.342,2.856,.342,6.617,0,12-5.383,12-12,0-.967-.115-1.928-.343-2.857-.197-.805-1.016-1.298-1.813-1.1ZM1.604,15c.071,0,.143-.005,.215-.015,.82-.118,1.39-.878,1.271-1.698-.061-.421-.091-.854-.091-1.287C3,7.038,7.037,3,12,3c.432,0,.865,.031,1.287,.091,.815,.117,1.58-.451,1.697-1.272,.118-.82-.451-1.58-1.271-1.698-.562-.081-1.139-.122-1.713-.122C5.383,0,0,5.383,0,12c0,.574,.041,1.151,.122,1.713,.107,.748,.748,1.287,1.482,1.287Zm6.363-4.193c.01-.046,.021-.09,.032-.134,.012,.043,.022,.088,.032,.134,.147,.708,.771,1.193,1.466,1.193,.103,0,.206-.011,.31-.032,.811-.17,1.33-.965,1.16-1.775-.321-1.538-1.388-3.193-2.968-3.193s-2.646,1.655-2.968,3.193c-.17,.811,.35,1.605,1.16,1.775,.805,.167,1.606-.349,1.775-1.161Zm5.064-.614c-.17,.811,.35,1.605,1.16,1.775,.804,.167,1.606-.349,1.775-1.161,.01-.046,.021-.09,.032-.134,.012,.043,.022,.088,.032,.134,.147,.708,.771,1.193,1.466,1.193,.103,0,.206-.011,.31-.032,.811-.17,1.33-.965,1.16-1.775-.321-1.538-1.388-3.193-2.968-3.193s-2.646,1.655-2.968,3.193Zm-1.032,8.807c3.068,0,5.457-2.336,5.557-2.436,.586-.582,.589-1.525,.01-2.114-.579-.589-1.527-.595-2.118-.02-.017,.016-1.631,1.569-3.448,1.569s-3.432-1.554-3.443-1.564c-.587-.584-1.538-.58-2.121,.008-.584,.588-.58,1.538,.008,2.121,.1,.1,2.488,2.436,5.557,2.436Z"/></svg>
