<?xml version="1.0" encoding="UTF-8"?>
<svg xmlns="http://www.w3.org/2000/svg" id="Layer_1" data-name="Layer 1" viewBox="0 0 24 24" width="512" height="512"><path d="M19.255,.725c-1.253-.48-2.517-.725-3.755-.725h-7.5c-1.378,0-3.256,.725-3.256,.725C1.906,1.816,0,4.621,0,7.704v10.796c0,1.379,1.121,2.5,2.5,2.5h2.551c.245,1.692,1.691,3,3.449,3h7c1.758,0,3.204-1.308,3.449-3h2.551c1.379,0,2.5-1.121,2.5-2.5V7.704c0-3.083-1.906-5.888-4.745-6.979ZM3,7.704c0-1.851,1.134-3.53,2.819-4.179,0,0,1.362-.525,2.181-.525h.857l2.055,3.596-2.912,5.177v-3.273c0-.828-.672-1.5-1.5-1.5s-1.5,.672-1.5,1.5v9.5H3V7.704Zm13,12.796c0,.275-.225,.5-.5,.5h-7c-.275,0-.5-.225-.5-.5v-4.5h2.125c-.073,.425-.125,.919-.125,1.5,0,.828,.672,1.5,1.5,1.5,.176,0,.343-.036,.5-.092,.157,.056,.324,.092,.5,.092,.828,0,1.5-.672,1.5-1.5,0-.581-.052-1.075-.125-1.5h2.125v4.5Zm5-2.5h-2V8.5c0-.828-.672-1.5-1.5-1.5s-1.5,.672-1.5,1.5v4.5h-5.247L16.347,3.055c.603,.076,1.216,.234,1.833,.471,1.687,.648,2.82,2.328,2.82,4.179v10.296Z"/></svg>
