<?xml version="1.0" encoding="UTF-8"?>
<svg xmlns="http://www.w3.org/2000/svg" id="Layer_1" data-name="Layer 1" viewBox="0 0 24 24">
  <path d="m22.965,6.019c.667-.665,1.035-1.55,1.035-2.492s-.366-1.828-1.032-2.494c-1.373-1.373-3.609-1.373-4.983,0l-1.438,1.438c-.836.836-2.718.598-3.986-.099-1.181-.65-2.684-.426-3.651.542-.587.587-.911,1.367-.911,2.197s.323,1.61.91,2.197l.945.945-7.683,7.919c-1.184,1.185-1.468,2.933-.853,4.389l-.878.878c-.586.586-.586,1.535,0,2.121.293.293.677.439,1.061.439s.768-.146,1.061-.439l.878-.878c.495.209,1.025.314,1.555.314,1.029,0,2.061-.395,2.851-1.184l7.668-7.902,1.18,1.179c.587.587,1.367.91,2.197.91s1.61-.323,2.196-.909c.97-.969,1.193-2.471.542-3.653-.697-1.267-.933-3.149-.097-3.985l1.435-1.434Zm-12.691,8.981h-2.785l4.488-4.625,1.413,1.413-3.116,3.212ZM20.846,3.895l-1.438,1.438c-1.935,1.933-1.67,5.263-.445,7.637-.036.035-.116.034-.151,0l-7.781-7.781c-.036-.035-.037-.115.084-.187,2.29,1.26,5.619,1.524,7.553-.409l1.438-1.438c.204-.203.536-.203.74,0,.133.134.153.29.153.371s-.02.237-.154.37Z"/>
</svg>
