<?xml version="1.0" encoding="UTF-8"?>
<svg xmlns="http://www.w3.org/2000/svg" id="Layer_1" data-name="Layer 1" viewBox="0 0 24 24" width="512" height="512"><path d="M21.43,12.58c-.65-.99-1.74-1.58-2.93-1.58h-5V5.16c1.95,.4,3.74,1.56,4.73,3.14,.44,.7,1.37,.92,2.07,.48,.7-.44,.92-1.36,.48-2.07-1.53-2.45-4.29-4.16-7.27-4.6v-.61c0-.83-.67-1.5-1.5-1.5s-1.5,.67-1.5,1.5v.61C5.7,2.84,2.01,7,2.01,12s3.69,9.17,8.49,9.89v.61c0,.83,.67,1.5,1.5,1.5s1.5-.67,1.5-1.5v-.61c3.59-.52,6.84-2.83,8.21-5.98,.47-1.09,.37-2.33-.28-3.33Zm-16.42-.58c0-3.34,2.35-6.14,5.49-6.84v13.67c-3.14-.69-5.49-3.49-5.49-6.84Zm13.95,2.71c-.9,2.06-3.06,3.65-5.46,4.14v-4.85h5c.24,0,.36,.14,.42,.23,.06,.09,.14,.26,.04,.48Z"/></svg>
