<?xml version="1.0" encoding="UTF-8"?>
<svg xmlns="http://www.w3.org/2000/svg" id="Layer_1" data-name="Layer 1" viewBox="0 0 24 24" width="512" height="512"><path d="M16.5,0h-3.461c-.027,0-.054,0-.081,0H7.5c-1.93,0-3.5,1.57-3.5,3.5v6.5c0,3.898,2.803,7.154,6.5,7.858v3.142h-2c-.829,0-1.5,.672-1.5,1.5s.671,1.5,1.5,1.5h7c.829,0,1.5-.672,1.5-1.5s-.671-1.5-1.5-1.5h-2v-3.142c3.697-.704,6.5-3.96,6.5-7.858V3.5c0-1.93-1.57-3.5-3.5-3.5Zm.5,10c0,2.757-2.243,5-5,5s-5-2.243-5-5V3.5c0-.275,.224-.5,.5-.5h2.603l-1.302,1.842c-.093,.131-.164,.276-.21,.43-.193,.638-.072,1.338,.325,1.874,.397,.535,1.032,.854,1.699,.854h1.169l-1.06,1.71c-.437,.704-.22,1.629,.484,2.065,.246,.152,.52,.225,.789,.225,.502,0,.993-.252,1.276-.71l1.874-3.023c.429-.647,.468-1.474,.101-2.158-.367-.684-1.078-1.108-1.854-1.108h-1.032l1.413-2h2.723c.276,0,.5,.225,.5,.5v6.5Z"/></svg>
