<?xml version="1.0" encoding="UTF-8"?>
<svg xmlns="http://www.w3.org/2000/svg" id="Layer_1" data-name="Layer 1" viewBox="0 0 24 24" width="512" height="512"><path d="m.002,11.975l8.566,8.574c-3.684-.967-6.117-3.383-7.599-5.491C.321,14.136,0,13.056.002,11.975Zm.967-3.059c-.17.242-.315.496-.44.757l11.308,11.308c.055,0,.107.006.163.006,1.244,0,2.439-.159,3.577-.474L2.326,7.263c-.477.514-.936,1.055-1.357,1.654Zm22.591,14.644c-.293.293-.677.439-1.061.439s-.768-.146-1.061-.439L.439,2.561C-.146,1.975-.146,1.025.439.439,1.025-.146,1.975-.146,2.561.439l3.804,3.804c1.726-.825,3.617-1.243,5.635-1.243,5.672,0,9.129,3.224,11.031,5.929,1.291,1.837,1.291,4.305,0,6.142-.827,1.177-1.766,2.194-2.802,3.037l3.332,3.332c.586.585.586,1.536,0,2.121ZM8.661,6.54l1.776,1.776c1.456-.617,3.203-.332,4.391.855s1.472,2.934.855,4.391l2.409,2.409c.918-.704,1.751-1.583,2.484-2.626.565-.805.565-1.887,0-2.692-1.492-2.123-4.192-4.654-8.576-4.654-1.178,0-2.295.181-3.339.54Z"/></svg>
