<?xml version="1.0" encoding="UTF-8"?>
<svg xmlns="http://www.w3.org/2000/svg" id="Layer_1" data-name="Layer 1" viewBox="0 0 24 24" width="512" height="512"><path d="M20.39,4.27l-2.66-2.66c-1.04-1.04-2.42-1.61-3.89-1.61H7.5C4.47,0,2,2.47,2,5.5v13c0,3.03,2.47,5.5,5.5,5.5h9c3.03,0,5.5-2.47,5.5-5.5V8.16c0-1.47-.57-2.85-1.61-3.89Zm-3.89,16.73H7.5c-1.38,0-2.5-1.12-2.5-2.5V5.5c0-1.38,1.12-2.5,2.5-2.5h5.5V7c0,1.1,.9,2,2,2h4v9.5c0,1.38-1.12,2.5-2.5,2.5Zm.5-9v6c0,.55-.45,1-1,1s-1-.45-1-1v-4c-.26,0-.51-.1-.71-.29-.39-.39-.39-1.02,0-1.41l1-1c.29-.29,.71-.37,1.09-.22,.37,.15,.62,.52,.62,.92Zm-7-1c-1.65,0-3,1.35-3,3v2c0,1.65,1.35,3,3,3s3-1.35,3-3v-2c0-1.65-1.35-3-3-3Zm1,5c0,.55-.45,1-1,1s-1-.45-1-1v-2c0-.55,.45-1,1-1s1,.45,1,1v2Z"/></svg>
