<?xml version="1.0" encoding="UTF-8"?>
<svg xmlns="http://www.w3.org/2000/svg" id="Layer_1" data-name="Layer 1" viewBox="0 0 24 24" width="512" height="512"><path d="M12,0C5.383,0,0,5.383,0,12s5.383,12,12,12,12-5.383,12-12S18.617,0,12,0Zm0,3c2.657,0,5.041,1.164,6.689,3h-2.189c-.953,0-1.816,.385-2.448,1.005-.018,0-.034-.005-.052-.005h-4c-.018,0-.034,.005-.052,.005-.632-.62-1.495-1.005-2.448-1.005h-2.189c1.649-1.836,4.033-3,6.689-3Zm7,6.5c0,.828-.672,1.5-1.5,1.5s-1.5-.672-1.5-1.5,.672-1.5,1.5-1.5,1.5,.672,1.5,1.5Zm-11,0c0,.828-.672,1.5-1.5,1.5s-1.5-.672-1.5-1.5,.672-1.5,1.5-1.5,1.5,.672,1.5,1.5Zm4,11.5c-4.834,0-8.779-3.834-8.981-8.62,.564,.389,1.245,.62,1.981,.62h2.5c1.758,0,3.204-1.308,3.449-3h2.101c.245,1.692,1.691,3,3.449,3h2.5c.735,0,1.417-.23,1.981-.62-.202,4.786-4.146,8.62-8.981,8.62Zm4.771-5.297c.44,.701,.229,1.627-.474,2.067-1.018,.639-2.242,1.229-4.297,1.229-1.378,0-2.799-.399-4.226-1.187-.725-.401-.988-1.313-.588-2.039,.401-.726,1.312-.987,2.039-.588,.99,.548,1.897,.813,2.774,.813,1.233,0,1.925-.282,2.703-.771,.699-.439,1.626-.229,2.067,.474Z"/></svg>
