<?xml version="1.0" encoding="UTF-8"?>
<svg xmlns="http://www.w3.org/2000/svg" id="Layer_1" data-name="Layer 1" viewBox="0 0 24 24">
  <path d="m16,9.5V1.5c0-.829.671-1.5,1.5-1.5s1.5.671,1.5,1.5v8c0,.829-.671,1.5-1.5,1.5s-1.5-.671-1.5-1.5Zm-3.5,1.5c.829,0,1.5-.671,1.5-1.5V1.5c0-.829-.671-1.5-1.5-1.5s-1.5.671-1.5,1.5v8c0,.829.671,1.5,1.5,1.5ZM22.5,2c-.829,0-1.5.671-1.5,1.5v12c0,3.033-2.467,5.5-5.5,5.5h-1.984c-2.374,0-4.678-.812-6.523-2.266.019-.008.039-.016.058-.023,1.184-.49,1.949-1.635,1.949-2.917V3.5c0-.829-.671-1.5-1.5-1.5s-1.5.671-1.5,1.5v12.294c0,.039,0,.104-.097.145-.096.041-.142-.006-.167-.03,0,0-2.483-2.491-2.562-2.545-.7-.479-1.817-.556-2.593.223-.802.8-.69,1.938-.166,2.649.034.046,3.197,3.45,3.197,3.45,2.55,2.741,6.159,4.313,9.903,4.313h1.984c4.687,0,8.5-3.813,8.5-8.5V3.5c0-.829-.671-1.5-1.5-1.5Z"/>
</svg>
