<?xml version="1.0" encoding="UTF-8"?>
<svg xmlns="http://www.w3.org/2000/svg" id="Layer_1" data-name="Layer 1" viewBox="0 0 24 24" width="512" height="512"><path d="M18.5,24h-6c-1.96,0-3.78-1.05-4.76-2.75-.41-.72-.17-1.63,.55-2.05,.72-.42,1.63-.17,2.05,.55,.45,.77,1.28,1.25,2.17,1.25h6c1.38,0,2.5-1.12,2.5-2.5v-6c0-.89-.48-1.72-1.25-2.17-.72-.42-.96-1.33-.55-2.05,.42-.72,1.33-.96,2.05-.55,1.7,.98,2.75,2.81,2.75,4.76v6c0,3.03-2.47,5.5-5.5,5.5Zm-4.34-7.69c.9-.5,1.65-1.24,2.15-2.15,.4-.72,.14-1.64-.59-2.04-.72-.4-1.64-.14-2.04,.59-.23,.41-.57,.75-.98,.98-.72,.4-.99,1.31-.59,2.04,.27,.49,.79,.77,1.31,.77,.25,0,.5-.06,.73-.19Zm1.56-11.44c.72-.4,.99-1.31,.59-2.04-.5-.9-1.24-1.65-2.15-2.15-.72-.4-1.64-.14-2.04,.59-.4,.72-.14,1.64,.59,2.04,.41,.23,.75,.57,.98,.98,.27,.49,.79,.77,1.31,.77,.25,0,.5-.06,.73-.19ZM4.88,15.73c.4-.72,.14-1.64-.59-2.04-.41-.23-.75-.57-.98-.98-.4-.73-1.32-.98-2.04-.59-.72,.4-.99,1.31-.59,2.04,.5,.9,1.24,1.65,2.15,2.15,.23,.13,.48,.19,.73,.19,.53,0,1.04-.28,1.31-.77ZM3.31,4.29c.23-.41,.57-.75,.98-.98,.72-.4,.99-1.31,.59-2.04-.4-.72-1.32-.99-2.04-.59C1.93,1.19,1.19,1.93,.69,2.84c-.4,.72-.14,1.64,.59,2.04,.23,.13,.48,.19,.73,.19,.53,0,1.04-.28,1.31-.77ZM7,1.5c0,.83,.67,1.5,1.5,1.5s1.5-.67,1.5-1.5-.67-1.5-1.5-1.5-1.5,.67-1.5,1.5Zm0,14c0,.83,.67,1.5,1.5,1.5s1.5-.67,1.5-1.5-.67-1.5-1.5-1.5-1.5,.67-1.5,1.5ZM1.5,10c.83,0,1.5-.67,1.5-1.5s-.67-1.5-1.5-1.5-1.5,.67-1.5,1.5,.67,1.5,1.5,1.5Zm14,0c.83,0,1.5-.67,1.5-1.5s-.67-1.5-1.5-1.5-1.5,.67-1.5,1.5,.67,1.5,1.5,1.5Z"/></svg>
