<?xml version="1.0" encoding="UTF-8"?>
<svg xmlns="http://www.w3.org/2000/svg" id="Layer_1" data-name="Layer 1" viewBox="0 0 24 24" width="512" height="512"><path d="m18.5,0h-4.671c-.935,0-1.814.364-2.475,1.025l-1.828,1.828c-.095.095-.22.146-.354.146h-2.171v-.5c0-.828-.671-1.5-1.5-1.5s-1.5.672-1.5,1.5v.713C1.695,3.869,0,5.988,0,8.5v10c0,3.032,2.467,5.5,5.5,5.5h13c3.033,0,5.5-2.468,5.5-5.5V5.5c0-3.032-2.467-5.5-5.5-5.5ZM5.5,6h3.671c.935,0,1.814-.364,2.475-1.025l1.828-1.828c.095-.095.22-.146.354-.146h4.671c1.378,0,2.5,1.121,2.5,2.5v6.5h-3.713c-.655-2.305-2.775-4-5.287-4s-4.632,1.695-5.287,4h-3.713v-3.5c0-1.379,1.122-2.5,2.5-2.5Zm9,7.5c0,1.379-1.122,2.5-2.5,2.5s-2.5-1.121-2.5-2.5,1.122-2.5,2.5-2.5,2.5,1.121,2.5,2.5Zm4,7.5H5.5c-1.378,0-2.5-1.121-2.5-2.5v-3.5h3.713c.655,2.305,2.775,4,5.287,4s4.632-1.695,5.287-4h3.713v3.5c0,1.379-1.122,2.5-2.5,2.5Z"/></svg>
