<?xml version="1.0" encoding="UTF-8"?>
<svg xmlns="http://www.w3.org/2000/svg" id="Layer_1" data-name="Layer 1" viewBox="0 0 24 24" width="512" height="512"><path d="M18.5,1H10.5c-3.03,0-5.5,2.47-5.5,5.5v6c0,3.03,2.47,5.5,5.5,5.5h8c3.03,0,5.5-2.47,5.5-5.5V6.5c0-3.03-2.47-5.5-5.5-5.5Zm2.5,11.5c0,1.38-1.12,2.5-2.5,2.5H10.5c-1.38,0-2.5-1.12-2.5-2.5V6.5c0-.17,.02-.34,.05-.5h12.9c.03,.16,.05,.33,.05,.5v6Zm-4,9c0,.83-.67,1.5-1.5,1.5H5.5c-3.03,0-5.5-2.47-5.5-5.5V8.5c0-.83,.67-1.5,1.5-1.5s1.5,.67,1.5,1.5v9c0,1.38,1.12,2.5,2.5,2.5H15.5c.83,0,1.5,.67,1.5,1.5Z"/></svg>
