<?xml version="1.0" encoding="UTF-8"?>
<svg xmlns="http://www.w3.org/2000/svg" id="Layer_1" data-name="Layer 1" viewBox="0 0 24 24" width="512" height="512"><path d="M22.5,21h-1.5V6.5c0-2.481-2.019-4.5-4.5-4.5h-1.258c-.243-.363-.541-.694-.889-.979C13.307,.163,11.946-.179,10.617,.089l-3.598,.72c-2.329,.466-4.02,2.527-4.02,4.902v15.289H1.5c-.829,0-1.5,.672-1.5,1.5s.671,1.5,1.5,1.5H22.5c.829,0,1.5-.672,1.5-1.5s-.671-1.5-1.5-1.5Zm-4.5-14.5v14.5h-2V5h.5c.827,0,1.5,.673,1.5,1.5Zm-12-.789c0-.95,.676-1.774,1.608-1.961l3.598-.72c.444-.087,.897,.025,1.246,.312,.349,.285,.549,.708,.549,1.159V21H6V5.711Zm6,6.789c0,.828-.672,1.5-1.5,1.5s-1.5-.672-1.5-1.5,.672-1.5,1.5-1.5,1.5,.672,1.5,1.5Z"/></svg>
