<?xml version="1.0" encoding="UTF-8"?>
<svg xmlns="http://www.w3.org/2000/svg" id="Layer_1" data-name="Layer 1" viewBox="0 0 24 24" width="512" height="512"><path d="m13.5,17.5c0,.828-.672,1.5-1.5,1.5s-1.5-.672-1.5-1.5.672-1.5,1.5-1.5,1.5.672,1.5,1.5Zm-1.5-12.5c-.828,0-1.5.672-1.5,1.5v7c0,.828.672,1.5,1.5,1.5s1.5-.672,1.5-1.5v-7c0-.828-.672-1.5-1.5-1.5Zm12,.5v13c0,3.032-2.468,5.5-5.5,5.5H5.5c-3.032,0-5.5-2.468-5.5-5.5V5.5C0,2.468,2.468,0,5.5,0h13c3.032,0,5.5,2.468,5.5,5.5Zm-3,0c0-1.379-1.121-2.5-2.5-2.5H5.5c-1.379,0-2.5,1.121-2.5,2.5v13c0,1.379,1.121,2.5,2.5,2.5h13c1.379,0,2.5-1.121,2.5-2.5V5.5Z"/></svg>
