<?xml version="1.0" encoding="UTF-8"?>
<svg xmlns="http://www.w3.org/2000/svg" id="Layer_1" data-name="Layer 1" viewBox="0 0 24 24" width="512" height="512"><path d="M23.94,5.3c-.33-1.91-2.03-3.3-4.04-3.3H4.1c-2.01,0-3.71,1.39-4.04,3.3-.29,1.71,.52,3.35,1.94,4.16l-.03,8.03c0,2.48,2.02,4.5,4.5,4.5h11.04c2.48,0,4.5-2.02,4.5-4.5V9.47c1.42-.81,2.23-2.45,1.94-4.17ZM4.96,17.51l.04-9.05c0-.72-.5-1.33-1.2-1.48-.47-.1-.89-.56-.78-1.17,.08-.45,.55-.81,1.08-.81H13.03c.54,.02,.97,.46,.97,1,0,.47-.34,.89-.8,.98-.7,.14-1.2,.76-1.2,1.47v9.05c0,.83-.67,1.5-1.5,1.5H6.46c-.83,0-1.5-.67-1.5-1.49ZM20.2,6.98c-.7,.14-1.2,.76-1.2,1.47v9.05c0,.83-.67,1.5-1.5,1.5h-2.76c.17-.47,.26-.97,.26-1.5V9.46c1.21-.7,2-2.01,2-3.46,0-.35-.04-.68-.13-1h3.03c.53,0,1,.36,1.08,.81,.1,.61-.31,1.07-.78,1.17Z"/></svg>
