<?xml version="1.0" encoding="UTF-8"?>
<svg xmlns="http://www.w3.org/2000/svg" id="Layer_1" data-name="Layer 1" viewBox="0 0 24 24" width="512" height="512"><path d="m6.5,15H1.5c-.829,0-1.5-.671-1.5-1.5s.671-1.5,1.5-1.5h4.197l1.555-2.332c.296-.445.798-.699,1.341-.665.534.033,1.009.348,1.249.826l1.844,3.688.566-.849c.278-.417.747-.668,1.248-.668h2c.829,0,1.5.671,1.5,1.5s-.671,1.5-1.5,1.5h-1.197l-1.555,2.332c-.279.419-.749.668-1.248.668-.579,0-1.103-.351-1.342-.829l-1.844-3.688-.566.849c-.278.417-.747.668-1.248.668Zm13.889-10.732l-2.657-2.657c-1.039-1.039-2.419-1.611-3.889-1.611h-6.343C4.467,0,2,2.467,2,5.5v3c0,.829.671,1.5,1.5,1.5s1.5-.671,1.5-1.5v-3c0-1.378,1.122-2.5,2.5-2.5h5.5v4c0,1.105.895,2,2,2h4v9.5c0,1.378-1.122,2.5-2.5,2.5H7.5c-1.378,0-2.5-1.122-2.5-2.5,0-.829-.671-1.5-1.5-1.5s-1.5.671-1.5,1.5c0,3.033,2.467,5.5,5.5,5.5h9c3.033,0,5.5-2.467,5.5-5.5v-10.343c0-1.469-.572-2.85-1.611-3.889Z"/></svg>
