<?xml version="1.0" encoding="UTF-8"?>
<svg xmlns="http://www.w3.org/2000/svg" id="Layer_1" data-name="Layer 1" viewBox="0 0 24 24" width="512" height="512"><path d="M22.5,0c-.828,0-1.5,.672-1.5,1.5v.5h-4v-.5c0-.828-.672-1.5-1.5-1.5s-1.5,.672-1.5,1.5v2.5c0,.886,.387,1.684,1,2.234v4.766h-6V6.234c.613-.55,1-1.347,1-2.234V1.5c0-.828-.672-1.5-1.5-1.5s-1.5,.672-1.5,1.5v.5H3v-.5c0-.828-.672-1.5-1.5-1.5S0,.672,0,1.5v2.5c0,.886,.387,1.684,1,2.234v12.766c0,2.757,2.243,5,5,5h12c2.757,0,5-2.243,5-5V6.234c.613-.55,1-1.347,1-2.234V1.5c0-.828-.672-1.5-1.5-1.5Zm-4.5,21h-4v-3c0-1.105-.895-2-2-2s-2,.895-2,2v3H6c-1.103,0-2-.897-2-2V7h2v5.5c0,.828,.672,1.5,1.5,1.5h9c.828,0,1.5-.672,1.5-1.5V7h2v12c0,1.103-.897,2-2,2Z"/></svg>
