<?xml version="1.0" encoding="UTF-8"?>
<svg xmlns="http://www.w3.org/2000/svg" id="Layer_1" data-name="Layer 1" viewBox="0 0 24 24" width="512" height="512"><path d="M8.02,19c1.78,0,3.48-.76,4.7-2.13l7.1-8.52c1.65-1.9,1.55-4.79-.23-6.58l-.37-.37c-1.78-1.78-4.67-1.88-6.55-.25L4.09,8.31c-1.33,1.18-2.09,2.88-2.09,4.66v3.9l-1.56,1.56c-.59,.59-.59,1.54,0,2.12,.29,.29,.68,.44,1.06,.44s.77-.15,1.06-.44l1.56-1.56h3.9Zm-1.97-8.41L14.61,3.45c.72-.62,1.81-.59,2.49,.09l.37,.37c.67,.67,.71,1.77,.07,2.51l-7.09,8.5c-.23,.25-.49,.47-.78,.64l-4.22-4.22c.16-.28,.37-.53,.6-.74Zm17.95,11.91c0,.83-.67,1.5-1.5,1.5H5.5c-.83,0-1.5-.67-1.5-1.5s.67-1.5,1.5-1.5H22.5c.83,0,1.5,.67,1.5,1.5Z"/></svg>
