<?xml version="1.0" encoding="UTF-8"?>
<svg xmlns="http://www.w3.org/2000/svg" id="Layer_1" data-name="Layer 1" viewBox="0 0 24 24" width="512" height="512"><path d="M17.5,0H6.5C3.47,0,1,2.47,1,5.5v14c0,2.48,2.02,4.5,4.5,4.5h12c3.03,0,5.5-2.47,5.5-5.5V5.5c0-3.03-2.47-5.5-5.5-5.5Zm-1.5,8.5c0,.28-.22,.5-.5,.5h-1c-.28,0-.5-.22-.5-.5s.22-.5,.5-.5h1c.28,0,.5,.22,.5,.5Zm-3-3c0,.31,.06,.61,.16,.89-.7,.44-1.16,1.22-1.16,2.11,0,1.36,1.09,2.47,2.45,2.5,.02,0,.03,0,.05,0,.28,0,.5,.22,.5,.5s-.22,.5-.5,.5h-.5c-.55,0-1,.45-1,1s.45,1,1,1h.5c1.38,0,2.5-1.12,2.5-2.5,0-.31-.06-.61-.16-.89,.7-.44,1.16-1.22,1.16-2.11,0-1.36-1.09-2.47-2.45-2.5-.02,0-.03,0-.05,0-.28,0-.5-.22-.5-.5s.22-.5,.5-.5h.5c.55,0,1-.45,1-1s-.45-1-1-1h1.5c1.38,0,2.5,1.12,2.5,2.5V15H10V3h5.5c-1.38,0-2.5,1.12-2.5,2.5ZM6.5,3h.5V15h-1.5c-.53,0-1.03,.09-1.5,.26V5.5c0-1.38,1.12-2.5,2.5-2.5Zm11,18H5.5c-.83,0-1.5-.67-1.5-1.5s.67-1.5,1.5-1.5h14.5v.5c0,1.38-1.12,2.5-2.5,2.5Z"/></svg>
