<?xml version="1.0" encoding="UTF-8"?>
<svg xmlns="http://www.w3.org/2000/svg" id="Layer_1" data-name="Layer 1" viewBox="0 0 24 24">
  <path d="m23.103.711c-.584-.532-1.365-.784-2.14-.692-4.731.56-7.477,3.44-8.963,6.477C10.514,3.458,7.768.578,3.038.019c-.776-.09-1.557.16-2.141.692C.308,1.249-.02,2.012,0,2.806c0,0,0,0,0,0,.087,3.384,1.192,6.071,3.283,7.985,2.362,2.163,5.393,2.758,7.216,2.912v8.796c0,.829.672,1.5,1.5,1.5s1.5-.671,1.5-1.5v-8.796c1.823-.154,4.854-.75,7.216-2.912,2.091-1.915,3.196-4.601,3.283-7.985,0,0,0,0,0,0,.02-.793-.308-1.557-.897-2.095ZM5.295,8.565c-1.397-1.287-2.165-3.144-2.283-5.523,5.122.777,6.748,5.169,7.26,7.622-1.405-.177-3.438-.682-4.977-2.098Zm13.41,0c-1.538,1.417-3.572,1.922-4.976,2.098.512-2.455,2.138-6.845,7.259-7.622-.118,2.379-.886,4.236-2.283,5.523Z"/>
</svg>
