<?xml version="1.0" encoding="UTF-8"?>
<svg xmlns="http://www.w3.org/2000/svg" id="Layer_1" data-name="Layer 1" viewBox="0 0 24 24" width="512" height="512"><path d="m22,10.5c0-4.136-3.364-7.5-7.5-7.5h-5c-1.177,0-2.272-.806-2.548-1.874-.206-.803-1.029-1.292-1.826-1.078-.803.206-1.285,1.024-1.078,1.826.49,1.907,2.05,3.397,3.951,3.922l-.004,8.204c0,.558-.229,1.295-1.996,2.082-2.328.662-4.003,2.921-4.002,5.428l.003.995c.003.826.674,1.495,1.5,1.495h.005c.828-.003,1.497-.676,1.495-1.505l-.003-.991c0-.63.23-1.237.608-1.707,2.325,1.314,4.591,2.203,8.895,2.203,4.133,0,7.495-3.364,7.495-7.497l.005-4.003Zm-3.013-.343c-.44-.096-.936-.157-1.487-.157-1.277,0-2.146.332-2.843.599-.608.233-1.048.401-1.771.401-.777,0-1.439-.204-1.89-.396l.002-4.604h3.501c2.367,0,4.312,1.836,4.487,4.157Zm-4.487,8.843c-2.639,0-4.304-.36-5.795-.997,1.521-1.042,2.29-2.383,2.29-4.003v-.237c.556.14,1.192.237,1.892.237,1.277,0,2.146-.332,2.843-.599.608-.233,1.048-.401,1.771-.401.676,0,1.174.153,1.497.299v1.202c-.001,2.48-2.018,4.499-4.497,4.499Z"/></svg>
