<?xml version="1.0" encoding="UTF-8"?>
<svg xmlns="http://www.w3.org/2000/svg" id="Layer_1" data-name="Layer 1" viewBox="0 0 24 24" width="512" height="512"><path d="m22,16v-7.5c0-3.033-2.467-5.5-5.5-5.5H7.5c-3.033,0-5.5,2.467-5.5,5.5v7.5c-1.105,0-2,.895-2,2v1.154c0,1.02.827,1.846,1.846,1.846h20.308c1.02,0,1.846-.827,1.846-1.846v-1.154c0-1.105-.895-2-2-2Zm-7.231,1h-5.538l-.923-1h-3.308v-7.5c0-1.378,1.122-2.5,2.5-2.5h9c1.378,0,2.5,1.122,2.5,2.5v7.5h-3.308l-.923,1Zm1.231-5.5c0,.829-.671,1.5-1.5,1.5h-1v1c0,.829-.671,1.5-1.5,1.5s-1.5-.671-1.5-1.5v-1h-1c-.829,0-1.5-.671-1.5-1.5s.671-1.5,1.5-1.5h1v-1c0-.829.671-1.5,1.5-1.5s1.5.671,1.5,1.5v1h1c.829,0,1.5.671,1.5,1.5Z"/></svg>
