<?xml version="1.0" encoding="UTF-8"?>
<svg xmlns="http://www.w3.org/2000/svg" id="Layer_1" data-name="Layer 1" viewBox="0 0 24 24" width="512" height="512"><path d="M18.5,3h-5.53c-.08,0-.16-.02-.22-.05l-3.16-1.58c-.48-.24-1.02-.37-1.56-.37h-2.53C2.47,1,0,3.47,0,6.5v11c0,3.03,2.47,5.5,5.5,5.5h13c3.03,0,5.5-2.47,5.5-5.5V8.5c0-3.03-2.47-5.5-5.5-5.5Zm2.5,14.5c0,1.38-1.12,2.5-2.5,2.5H5.5c-1.38,0-2.5-1.12-2.5-2.5V8H20.95c.03,.16,.05,.33,.05,.5v9Zm-3.13-3.71c.39,.39,.39,1.02,0,1.41l-3.16,3.16c-.63,.63-1.71,.18-1.71-.71v-1.66H7.5c-.83,0-1.5-.67-1.5-1.5s.67-1.5,1.5-1.5h5.5v-1.66c0-.89,1.08-1.34,1.71-.71l3.16,3.16Z"/></svg>
