<?xml version="1.0" encoding="UTF-8"?>
<svg xmlns="http://www.w3.org/2000/svg" id="Layer_1" data-name="Layer 1" viewBox="0 0 24 24" width="512" height="512"><path d="M14,8c0,1.105-.895,2-2,2s-2-.895-2-2,.895-2,2-2,2,.895,2,2Zm10,2.735v7.765c0,3.033-2.467,5.5-5.5,5.5h-.301c-.932,0-1.599-.753-1.709-1.679-.036-.303-.165-.597-.387-.839l-2.061-2.232,2.061-2.232c.562-.609,.524-1.558-.084-2.12-.608-.562-1.558-.523-2.12,.084l-1.898,2.056-1.898-2.056c-.561-.608-1.51-.646-2.12-.084-.608,.562-.646,1.511-.084,2.12l2.061,2.232-1.992,2.158c-.28,.303-.436,.699-.445,1.092-.004,.83-.678,1.5-1.507,1.5h-.515c-3.033,0-5.5-2.467-5.5-5.5v-7.765c0-.892,.261-1.755,.756-2.497L3.576,4.01c.485-.729,1.167-1.295,1.972-1.64L10.228,.364c1.126-.482,2.418-.483,3.545,0l4.68,2.005c.804,.345,1.486,.912,1.971,1.641l2.82,4.229c.495,.741,.756,1.604,.756,2.496Zm-3,0c0-.297-.087-.585-.252-.832l-2.82-4.23c-.162-.243-.389-.432-.656-.546l-4.681-2.006c-.376-.162-.807-.162-1.181,0l-4.681,2.006c-.268,.115-.495,.303-.657,.546l-2.82,4.23c-.165,.247-.252,.535-.252,.832v7.765c0,1.207,.86,2.217,2,2.45v-5.45c0-1.933,1.567-3.5,3.5-3.5h7c1.933,0,3.5,1.567,3.5,3.5v5.45c1.14-.232,2-1.242,2-2.45v-7.765Zm-11.292,13.265h4.604l-2.312-2.539-2.292,2.539Z"/></svg>
