<?xml version="1.0" encoding="UTF-8"?>
<svg xmlns="http://www.w3.org/2000/svg" id="Layer_1" data-name="Layer 1" viewBox="0 0 24 24" width="512" height="512"><path d="M24,12c0,6.617-5.383,12-12,12S0,18.617,0,12c0-.574,.041-1.15,.122-1.713,.118-.82,.877-1.391,1.698-1.271,.82,.117,1.39,.877,1.272,1.697-.061,.422-.091,.855-.091,1.287,0,4.963,4.038,9,9,9s9-4.037,9-9S16.962,3,12,3c-.727,0-1.448,.086-2.143,.257-.807,.198-1.617-.295-1.814-1.101-.197-.804,.295-1.616,1.1-1.813,.929-.228,1.89-.343,2.857-.343,6.617,0,12,5.383,12,12Zm-14.5-2h-3c-.829,0-1.5,.672-1.5,1.5s.671,1.5,1.5,1.5h3c.829,0,1.5-.672,1.5-1.5s-.671-1.5-1.5-1.5Zm8,3c.829,0,1.5-.672,1.5-1.5s-.671-1.5-1.5-1.5h-3c-.829,0-1.5,.672-1.5,1.5s.671,1.5,1.5,1.5h3ZM3.5,7c1.381,0,2.5-1.119,2.5-2.5,0-1.403-1.184-3.372-1.922-4.235-.303-.355-.849-.353-1.151,.004-.738,.874-1.927,2.861-1.927,4.231,0,1.381,1.119,2.5,2.5,2.5Zm5.329,8.658c-.735,.368-1.029,1.255-.67,1.993,.36,.741,1.255,1.049,1.998,.697,.007-.003,.751-.349,1.844-.349,1.086,0,1.829,.342,1.829,.342,.215,.107,.444,.158,.67,.158,.55,0,1.08-.304,1.343-.829,.37-.741,.07-1.642-.671-2.013-.135-.067-1.369-.658-3.171-.658s-3.036,.591-3.171,.658Z"/></svg>
