<?xml version="1.0" encoding="UTF-8"?>
<svg xmlns="http://www.w3.org/2000/svg" id="Layer_1" data-name="Layer 1" viewBox="0 0 24 24" width="512" height="512"><path d="m15.992,4.832c-.085-1.025-.946-1.832-1.992-1.832h-.271c.17-.294.268-.636.268-1,0-1.105-.895-2-2-2s-2,.895-2,2c0,.364.098.706.268,1h-.266c-1.047,0-1.907.808-1.992,1.832-3.533,1.544-6.008,5.072-6.008,9.168,0,5.514,4.486,10,10,10s10-4.486,10-10c0-4.096-2.475-7.623-6.008-9.168Zm-3.992,2.168c3.671,0,6.691,2.84,6.977,6.439l-1.725-1.725c-.903-.904-2.375-.904-3.284.005l-1.974,1.994-1.975-1.995c-.905-.903-2.375-.902-3.278,0l-1.72,1.72c.287-3.599,3.307-6.439,6.977-6.439Zm0,14c-2.78,0-5.186-1.628-6.315-3.981l2.694-2.694,1.976,1.996c.876.877,2.398.883,3.285-.005l1.976-1.996,2.699,2.699c-1.129,2.353-3.535,3.981-6.315,3.981Z"/></svg>
