<?xml version="1.0" encoding="UTF-8"?>
<svg xmlns="http://www.w3.org/2000/svg" id="Layer_1" data-name="Layer 1" viewBox="0 0 24 24" width="512" height="512"><path d="m17.967,14.074c-.633-.534-1.578-.454-2.113.179-.427.506-.461,1.211-.135,1.747h-7.304c1.248-.967,2.743-1.807,4.32-2.692,4.343-2.439,9.266-5.203,9.266-11.808,0-.829-.672-1.5-1.5-1.5H3.5c-.828,0-1.5.671-1.5,1.5,0,3.38,1.319,6.136,4.033,8.426.281.237.624.354.966.354.427,0,.851-.181,1.147-.533.427-.506.461-1.211.135-1.747h7.304c-1.248.967-2.743,1.806-4.32,2.692-4.343,2.439-9.266,5.203-9.266,11.808,0,.829.672,1.5,1.5,1.5h17c.828,0,1.5-.671,1.5-1.5,0-3.38-1.319-6.136-4.033-8.426Zm.244-9.074H5.785c-.32-.625-.539-1.287-.662-2h13.751c-.129.735-.356,1.397-.664,2Zm-12.421,14h12.425c.32.625.539,1.287.662,2H5.126c.13-.735.356-1.397.663-2Z"/></svg>
