<?xml version="1.0" encoding="UTF-8"?>
<svg xmlns="http://www.w3.org/2000/svg" id="Layer_1" data-name="Layer 1" viewBox="0 0 24 24" width="512" height="512"><path d="M12,0C5.383,0,0,5.383,0,12s5.383,12,12,12,12-5.383,12-12S18.617,0,12,0Zm0,21c-4.963,0-9-4.038-9-9S7.037,3,12,3s9,4.038,9,9-4.037,9-9,9ZM6.059,9.5c-.354,0-.698-.189-.879-.522-.265-.485-.085-1.092,.4-1.356,1.133-.617,2.076-1.41,2.588-2.177,.307-.459,.928-.585,1.387-.277,.46,.307,.584,.928,.277,1.387-.938,1.407-2.469,2.373-3.297,2.823-.151,.083-.315,.122-.477,.122Zm7.941,.5c0-1.657,.672-3,1.5-3s1.5,1.343,1.5,3-.672,3-1.5,3-1.5-1.343-1.5-3Zm-4.271-1.786c.708-.426,1.631-.196,2.058,.514s.196,1.632-.515,2.058l-2.5,1.5c-.241,.145-.508,.214-.771,.214-.509,0-1.006-.259-1.287-.728-.427-.71-.196-1.632,.515-2.058l2.5-1.5Zm9.027,8.107c-.293,.447-1.863,2.679-4.063,2.679-1.414,0-2.347-.955-2.965-1.586-.104-.107-.243-.249-.355-.352-.09,.053-.203,.129-.29,.187-.449,.299-1.128,.752-2.082,.752-1.596,0-2.847-1.216-3.081-1.46-.574-.597-.556-1.547,.041-2.121,.595-.572,1.539-.555,2.114,.034,.252,.253,.71,.547,.926,.547,.066-.014,.278-.155,.418-.248,.449-.299,1.128-.752,2.082-.752,1.086,0,1.8,.73,2.373,1.316,.2,.205,.668,.684,.819,.684,.382,0,1.161-.723,1.552-1.321,.454-.694,1.383-.887,2.077-.435,.693,.453,.888,1.383,.435,2.076Z"/></svg>
