<?xml version="1.0" encoding="UTF-8"?>
<svg xmlns="http://www.w3.org/2000/svg" id="Layer_1" data-name="Layer 1" viewBox="0 0 24 24" width="512" height="512"><path d="m19.5,0h-10c-2.481,0-4.5,2.019-4.5,4.5v10c0,2.523,2.061,4.5,4.692,4.5h7.565c1.185,0,2.344-.48,3.182-1.318l2.242-2.242c.838-.838,1.318-1.998,1.318-3.183v-7.757c0-2.481-2.019-4.5-4.5-4.5Zm-11.5,14.5V4.5c0-.827.673-1.5,1.5-1.5h10c.827,0,1.5.673,1.5,1.5v6.5h-3c-1.105,0-2,.895-2,2v3h-6.308c-.98,0-1.692-.631-1.692-1.5Zm9,8c0,.828-.672,1.5-1.5,1.5h-6.001C4.332,24,.071,19.797,0,14.63v-6.109c-.011-.828.651-1.509,1.479-1.521.866.016,1.509.672,1.521,1.5v6.089c.048,3.535,2.964,6.411,6.499,6.411h6.001c.828,0,1.5.672,1.5,1.5Z"/></svg>
