<?xml version="1.0" encoding="UTF-8"?>
<svg xmlns="http://www.w3.org/2000/svg" id="Layer_1" data-name="Layer 1" viewBox="0 0 24 24">
  <path d="m23.4,7.3l-1.226-.919.79-3.556c.111-.5-.041-1.023-.404-1.386-.362-.363-.887-.515-1.386-.404l-3.556.79-.919-1.226C16.405.207,15.937-.019,15.444,0c-.491.019-.943.277-1.208.691l-2.359,3.69-1.591-2.653c-.223-.371-.595-.628-1.021-.705-.424-.077-.865.035-1.203.305l-1.452,1.162-1.051-1.051c-.428-.429-1.074-.559-1.635-.325-.561.232-.926.779-.926,1.386v1.5h-1.5c-.523,0-1.008.272-1.28.718s-.293,1.002-.054,1.467l2.797,5.443c.055.119.049.258.02.312l-1.749,2.755c-.262.413-.306.929-.118,1.381.188.452.586.784,1.064.888l2.244.491-3.983,3.983c-.586.585-.586,1.536,0,2.121.293.293.677.439,1.061.439s.768-.146,1.061-.439l3.983-3.983.491,2.244c.104.478.436.875.888,1.064.452.188.967.145,1.381-.118l2.696-1.713c.113-.065.253-.07.315-.044l5.5,2.825c.215.11.45.166.685.166.271,0,.542-.074.782-.22.446-.272.718-.757.718-1.28v-1.5h1.5c.607,0,1.154-.365,1.386-.926.232-.561.104-1.206-.325-1.635l-1.051-1.051,1.162-1.452c.276-.345.386-.794.3-1.228-.086-.434-.359-.808-.746-1.021l-2.601-1.437,3.714-2.507c.402-.271.648-.721.66-1.206.012-.485-.211-.946-.6-1.237Zm-6.529,3.196c-.586.469-.91,1.195-.867,1.944s.449,1.434,1.154,1.872l2.06,1.139-.889,1.111c-.346.432-.416,1.002-.224,1.49-.637.173-1.105.755-1.105,1.447v.544l-3.372-1.73c-.445-.206-.924-.31-1.409-.31-.6,0-1.207.159-1.768.48l-.945.6-.443-2.026,3.497-3.497c.586-.585.586-1.536,0-2.121-.586-.586-1.535-.586-2.121,0l-3.497,3.497-2.028-.444.637-1.004c.545-.955.595-2.12.107-3.174l-1.703-3.315h.543c.692,0,1.274-.468,1.447-1.105.488.192,1.057.123,1.49-.224l1.16-.928,1.299,2.167c.398.636,1.083,1.042,1.832,1.085.741.048,1.475-.28,1.944-.867.033-.041,1.926-2.998,1.926-2.998l.202.269c.354.472.954.692,1.525.564l2.199-.489-.489,2.199c-.128.575.093,1.172.564,1.525l.314.235s-3.012,2.036-3.043,2.061Z"/>
</svg>
