<?xml version="1.0" encoding="UTF-8"?>
<svg xmlns="http://www.w3.org/2000/svg" id="Layer_1" data-name="Layer 1" viewBox="0 0 24 24" width="512" height="512"><path d="m23.561,21.439l-2.113-2.113c.98-1.014,1.552-2.384,1.552-3.826V6.5c0-3.032-2.468-5.5-5.5-5.5H6.5c-.941,0-1.867.244-2.681.698L2.561.439C1.975-.146,1.025-.146.439.439S-.146,1.975.439,2.561l21,21c.293.293.677.439,1.061.439s.768-.146,1.061-.439c.586-.586.586-1.535,0-2.121ZM6.5,4h11c1.379,0,2.5,1.121,2.5,2.5v9c0,.639-.248,1.248-.673,1.706L6.146,4.025c.116-.016.234-.025.354-.025Zm8.656,16.135c.527.639.438,1.584-.201,2.111l-1.456,1.203c-.412.369-.945.557-1.484.557-.553,0-1.112-.196-1.558-.594l-2.864-2.412h-1.093c-3.032,0-5.5-2.468-5.5-5.5v-6c0-.828.672-1.5,1.5-1.5s1.5.672,1.5,1.5v6c0,1.379,1.121,2.5,2.5,2.5h1.641c.354,0,.696.125.967.353l2.897,2.441,1.04-.86c.638-.529,1.583-.438,2.111.201Z"/></svg>
