<?xml version="1.0" encoding="UTF-8"?>
<svg xmlns="http://www.w3.org/2000/svg" id="Layer_1" data-name="Layer 1" viewBox="0 0 24 24" width="512" height="512"><path d="m21.02,19.051v-10.051C21.02,4.037,16.982,0,12.02,0S3.02,4.037,3.02,9v10.051c-1.692.245-3,1.691-3,3.449,0,.828.672,1.5,1.5,1.5h21c.828,0,1.5-.672,1.5-1.5,0-1.758-1.308-3.204-3-3.449ZM6.02,9c0-3.309,2.691-6,6-6s6,2.691,6,6v10H6.02v-10Zm7-2.5c0,.828-.672,1.5-1.5,1.5-.275,0-.5.225-.5.5,0,.828-.672,1.5-1.5,1.5s-1.5-.672-1.5-1.5c0-1.93,1.57-3.5,3.5-3.5.828,0,1.5.672,1.5,1.5Z"/></svg>
