<?xml version="1.0" encoding="UTF-8"?>
<svg xmlns="http://www.w3.org/2000/svg" id="Layer_1" data-name="Layer 1" viewBox="0 0 24 24">
  <path d="m20.82,18.699c.003-.024,1.06-12.699,1.06-12.699h.62c.829,0,1.5-.672,1.5-1.5s-.671-1.5-1.5-1.5h-4.757c-.619-1.746-2.287-3-4.243-3h-3c-1.956,0-3.624,1.254-4.243,3h-1.136L2.561.439C1.975-.146,1.025-.146.439.439S-.146,1.975.439,2.561l21,21c.293.293.677.439,1.061.439s.768-.146,1.061-.439c.586-.586.586-1.535,0-2.121l-2.74-2.74Zm-2.777-2.777L8.121,6h10.749l-.827,9.922Zm-2.043,6.578c0,.828-.671,1.5-1.5,1.5h-5.819c-2.838,0-5.246-2.215-5.481-5.043l-.611-7.332c-.069-.826.544-1.551,1.37-1.62.831-.053,1.551.545,1.619,1.37l.611,7.332c.107,1.286,1.202,2.293,2.492,2.293h5.819c.829,0,1.5.672,1.5,1.5Z"/>
</svg>
