<?xml version="1.0" encoding="UTF-8"?>
<svg xmlns="http://www.w3.org/2000/svg" id="Layer_1" data-name="Layer 1" viewBox="0 0 24 24" width="512" height="512"><path d="M24,12c0,1.797-.388,3.525-1.153,5.139-.355,.749-1.248,1.07-1.998,.713-.749-.355-1.068-1.25-.713-1.998,.573-1.209,.864-2.505,.864-3.854,0-4.963-4.038-9-9-9S3,7.037,3,12c0,3.158,1.61,6.029,4.308,7.682,.707,.433,.929,1.356,.496,2.062-.283,.462-.776,.717-1.281,.717-.267,0-.538-.071-.782-.221C2.146,20.038,0,16.21,0,12,0,5.383,5.383,0,12,0s12,5.383,12,12ZM15,5c-1.105,0-2,.895-2,2s.895,2,2,2,2-.895,2-2-.895-2-2-2Zm-6,4c1.105,0,2-.895,2-2s-.895-2-2-2-2,.895-2,2,.895,2,2,2Zm9.212,11.384l-.681,.872c-.382,.473-.949,.744-1.556,.744h-.975c-.551,0-1-.448-1-1v-1.5s0-.5,.5-.5,.5,.5,.5,.5v.5c0,.553,.448,1,1,1s1-.447,1-1c0-1.654-1.346-3-3-3h-1v-5c0-.553-.448-1-1-1s-1,.447-1,1v5.78c-.609,.549-1,1.337-1,2.22v1c0,1.654,1.346,3,3,3h2.975c1.214,0,2.348-.542,3.122-1.499l.691-.885c.34-.436,.263-1.064-.172-1.404-.435-.339-1.064-.263-1.404,.172ZM9.34,12.052c-.485-.327-.783-.616-.783-.616-.587-.582-1.538-.58-2.121,.007-.584,.588-.581,1.538,.007,2.122,.048,.048,.496,.485,1.217,.974,.258,.174,.55,.257,.839,.257,.481,0,.954-.231,1.244-.66,.464-.687,.284-1.618-.402-2.083Zm5.319,0c-.686,.465-.866,1.396-.402,2.083,.29,.429,.763,.66,1.244,.66,.289,0,.581-.083,.839-.257,.721-.488,1.168-.926,1.217-.974,.586-.582,.588-1.525,.009-2.114-.579-.588-1.528-.596-2.119-.019-.003,.002-.302,.292-.788,.62Z"/></svg>
