<?xml version="1.0" encoding="UTF-8"?>
<svg xmlns="http://www.w3.org/2000/svg" id="Layer_1" data-name="Layer 1" viewBox="0 0 24 24" width="512" height="512"><path d="m18.5,0H5.5C2.468,0,0,2.468,0,5.5v13c0,3.032,2.468,5.5,5.5,5.5h13c3.032,0,5.5-2.468,5.5-5.5V5.5c0-3.032-2.468-5.5-5.5-5.5Zm2.5,18.5c0,1.379-1.121,2.5-2.5,2.5H5.5c-1.379,0-2.5-1.121-2.5-2.5V5.5c0-1.379,1.121-2.5,2.5-2.5h13c1.379,0,2.5,1.121,2.5,2.5v13Zm-3.339-11.05l-3.723,4.55,3.723,4.55c.524.642.43,1.587-.211,2.111-.279.228-.615.339-.949.339-.435,0-.865-.188-1.162-.55l-3.339-4.081-3.339,4.081c-.297.362-.728.55-1.162.55-.334,0-.67-.111-.949-.339-.641-.524-.735-1.47-.211-2.111l3.723-4.55-3.723-4.55c-.524-.642-.43-1.587.211-2.111.643-.523,1.586-.43,2.111.211l3.339,4.081,3.339-4.081c.525-.641,1.469-.734,2.111-.211.641.524.735,1.47.211,2.111Z"/></svg>
