<?xml version="1.0" encoding="UTF-8"?>
<svg xmlns="http://www.w3.org/2000/svg" id="Layer_1" data-name="Layer 1" viewBox="0 0 24 24" width="512" height="512"><path d="M13,2.5V1.5c0-.828,.672-1.5,1.5-1.5s1.5,.672,1.5,1.5v1c0,.828-.672,1.5-1.5,1.5s-1.5-.672-1.5-1.5Zm-4.248,1.832c.289,.434,.765,.668,1.25,.668,.286,0,.575-.081,.831-.252,.689-.459,.875-1.391,.416-2.08l-.667-1c-.46-.689-1.39-.877-2.08-.416-.689,.459-.875,1.391-.416,2.08l.667,1Zm9.416,.416c.256,.171,.545,.252,.831,.252,.484,0,.96-.234,1.249-.668l.667-1c.46-.688,.273-1.62-.416-2.08s-1.621-.273-2.08,.416l-.667,1c-.46,.688-.273,1.62,.416,2.08Zm5.832,10.752v1c0,2.133-1.221,3.986-3,4.898v1.102c0,.828-.672,1.5-1.5,1.5s-1.5-.672-1.5-1.5v-.5H6v.5c0,.828-.671,1.5-1.5,1.5s-1.5-.672-1.5-1.5v-1.102c-1.779-.912-3-2.765-3-4.898v-1c0-3.032,2.467-5.5,5.5-5.5h3.708c.654-2.306,2.779-4,5.292-4,2.572,0,4.737,1.775,5.336,4.164,2.389,.599,4.164,2.764,4.164,5.336Zm-12-4c0,1.379,1.121,2.5,2.5,2.5s2.5-1.121,2.5-2.5-1.121-2.5-2.5-2.5-2.5,1.121-2.5,2.5Zm-2.796-1.486h0Zm0,2.973h0Zm11.796,2.513c0-.946-.528-1.771-1.305-2.195-.749,2.149-2.795,3.695-5.195,3.695-2.513,0-4.637-1.694-5.292-4h-3.708c-1.378,0-2.5,1.121-2.5,2.5v1c0,1.379,1.122,2.5,2.5,2.5h13c1.379,0,2.5-1.121,2.5-2.5v-1Zm-15.5-1.5c-.828,0-1.5,.672-1.5,1.5s.672,1.5,1.5,1.5,1.5-.672,1.5-1.5-.672-1.5-1.5-1.5Z"/></svg>
