<?xml version="1.0" encoding="UTF-8"?>
<svg xmlns="http://www.w3.org/2000/svg" id="Layer_1" data-name="Layer 1" viewBox="0 0 24 24">
  <path d="m15.947,21.77c.219.799-.252,1.624-1.051,1.843-.941.257-1.916.388-2.896.388-2.94,0-5.704-1.149-7.781-3.238C1.459,17.989.366,13.91,1.367,10.117c.211-.801,1.028-1.282,1.833-1.067.801.211,1.279,1.032,1.067,1.833-.73,2.767.066,5.742,2.078,7.764,1.51,1.518,3.519,2.354,5.654,2.354.713,0,1.421-.095,2.104-.282.802-.219,1.625.253,1.843,1.052Zm7.614,1.791c-.293.293-.677.439-1.061.439s-.768-.146-1.061-.439L.439,2.561C-.146,1.975-.146,1.025.439.439S1.975-.146,2.561.439l3.239,3.239,2.227-2.068c1.044-1.027,2.466-1.61,3.973-1.61s2.928.582,4.004,1.64l3.734,3.466c3.757,3.774,4.298,9.615,1.436,13.947l2.387,2.387c.586.586.586,1.535,0,2.121ZM7.922,5.801l11.069,11.069c1.716-3.09,1.224-7.034-1.337-9.606l-3.723-3.454c-1.085-1.064-2.81-1.036-3.833-.03l-2.177,2.022Z"/>
</svg>
