<?xml version="1.0" encoding="UTF-8"?>
<svg xmlns="http://www.w3.org/2000/svg" id="Layer_1" data-name="Layer 1" viewBox="0 0 24 24" width="512" height="512"><path d="m18.5,0H5.5C2.467,0,0,2.468,0,5.5v13c0,3.032,2.467,5.5,5.5,5.5h13c3.033,0,5.5-2.468,5.5-5.5V5.5c0-3.032-2.467-5.5-5.5-5.5Zm2.5,18.5c0,1.379-1.122,2.5-2.5,2.5H5.5c-1.378,0-2.5-1.121-2.5-2.5V5.5c0-1.379,1.122-2.5,2.5-2.5h13c1.378,0,2.5,1.121,2.5,2.5v13Zm-3.3-11.1l-4.2,5.6v4.499c0,.828-.671,1.5-1.5,1.5s-1.5-.672-1.5-1.5v-4.499l-4.2-5.6c-.497-.663-.362-1.604.3-2.101.662-.495,1.603-.362,2.1.3l3.3,4.4,3.3-4.4c.498-.662,1.438-.795,2.1-.3.663.497.797,1.438.3,2.101Z"/></svg>
