<?xml version="1.0" encoding="UTF-8"?>
<svg xmlns="http://www.w3.org/2000/svg" id="Layer_1" data-name="Layer 1" viewBox="0 0 24 24" width="512" height="512"><path d="M24,11.05c0-1.54-.75-3.02-2.01-4.04-.11-1.81-1.43-3.32-3.2-3.83-.25-.8-.72-1.52-1.37-2.09C16.48,.26,15.24-.13,14.03,.04c-.77,.1-1.47,.43-2.03,.92-.57-.49-1.26-.82-2.03-.92-1.21-.17-2.44,.22-3.39,1.05-.65,.57-1.12,1.3-1.37,2.09-1.77,.51-3.08,2.02-3.2,3.83-1.26,1.01-2.01,2.49-2.01,4.04,0,.84,.2,1.65,.58,2.39-.38,.74-.58,1.55-.58,2.39,0,1.73,.85,3.33,2.25,4.32,.81,2.3,2.97,3.86,5.45,3.86,1.7,0,3.23-.74,4.3-1.91,1.06,1.17,2.59,1.91,4.3,1.91,2.49,0,4.65-1.56,5.45-3.86,1.4-.99,2.25-2.59,2.25-4.32,0-.84-.2-1.65-.58-2.39,.38-.74,.58-1.55,.58-2.39ZM7.7,21c-1.3,0-2.42-.89-2.72-2.17-.1-.42-.37-.78-.75-.98-.76-.41-1.24-1.19-1.24-2.03,0-.66,.29-1.15,.53-1.44,.44-.55,.44-1.33,0-1.88-.24-.3-.53-.79-.53-1.44,0-.78,.48-1.52,1.28-1.97,.56-.31,.85-.94,.74-1.57-.01-.08-.03-.16-.03-.24,0-.76,.78-1.27,1.5-1.27,.83,0,1.5-.67,1.5-1.5,0-.42,.2-.85,.55-1.15,.16-.14,.46-.35,.86-.35,.59,0,1.09,.64,1.09,1.27v13.94c0,1.54-1.25,2.8-2.8,2.8Zm12.77-6.63c.24,.3,.53,.79,.53,1.44,0,.84-.47,1.62-1.24,2.03-.38,.2-.66,.56-.75,.99-.29,1.28-1.41,2.17-2.72,2.17-1.54,0-2.8-1.25-2.8-2.8V4.27c0-.62,.42-1.19,.94-1.26,.48-.06,.84,.18,1.02,.34,.34,.3,.55,.73,.55,1.15,0,.83,.67,1.5,1.5,1.5,.73,0,1.5,.51,1.5,1.27,0,.08-.01,.16-.03,.24-.11,.63,.19,1.26,.74,1.57,.8,.45,1.28,1.19,1.28,1.97,0,.65-.29,1.15-.53,1.44-.44,.55-.44,1.33,0,1.88Z"/></svg>
