<?xml version="1.0" encoding="UTF-8"?>
<svg xmlns="http://www.w3.org/2000/svg" id="Layer_1" data-name="Layer 1" viewBox="0 0 24 24" width="512" height="512"><path d="m16.5,2.5c0-1.381,1.119-2.5,2.5-2.5s2.5,1.119,2.5,2.5-1.119,2.5-2.5,2.5-2.5-1.119-2.5-2.5Zm6.78,17.394c-.568.651-1.389,1.045-2.28,1.1v1.507c0,.828-.672,1.5-1.5,1.5h-1c-.828,0-1.5-.672-1.5-1.5v-1.507c-.891-.055-1.713-.449-2.28-1.1-.553-.634-.805-1.464-.693-2.277l1.179-8.314c.22-1.598,1.625-3.302,3.795-3.302s3.575,1.704,3.796,3.309l1.177,8.302s0,.004,0,.006c.111.813-.141,1.644-.693,2.277Zm-6.271-1.947c.036.024.104.054.206.054h3.568c.102,0,.17-.029.206-.054l-1.166-8.223c-.04-.296-.33-.724-.824-.724s-.784.428-.823.717l-1.167,8.229ZM4,5c1.381,0,2.5-1.119,2.5-2.5S5.381,0,4,0,1.5,1.119,1.5,2.5s1.119,2.5,2.5,2.5Zm4,5v5c0,1.304-.836,2.415-2,2.828v4.672c0,.828-.672,1.5-1.5,1.5h-1c-.828,0-1.5-.672-1.5-1.5v-4.672c-1.164-.413-2-1.524-2-2.828v-5c0-2.206,1.794-4,4-4s4,1.794,4,4Zm-5,5.002l2-.002v-5c0-.552-.448-1-1-1s-1,.448-1,1v5.002ZM11.5,0c-.828,0-1.5.672-1.5,1.5v21c0,.828.672,1.5,1.5,1.5s1.5-.672,1.5-1.5V1.5c0-.828-.672-1.5-1.5-1.5Z"/></svg>
