<?xml version="1.0" encoding="UTF-8"?>
<svg xmlns="http://www.w3.org/2000/svg" id="Layer_1" data-name="Layer 1" viewBox="0 0 24 24" width="512" height="512"><path d="m3,6C3,2.691,5.691,0,9,0c.687,0,1.36.115,2.001.342.78.276,1.189,1.134.913,1.915s-1.131,1.189-1.915.913c-.318-.112-.654-.17-.999-.17-1.654,0-3,1.346-3,3s1.346,3,3,3c.228,0,.452-.024.667-.074.812-.183,1.611.321,1.796,1.13.184.808-.322,1.611-1.13,1.796-.433.099-.882.148-1.333.148-3.309,0-6-2.691-6-6Zm19.493,3.197c-1.091,1.146-2.626,1.803-4.211,1.803h-2.782c-1.242,0-2.5-.972-2.5-2.828v-2.458c0-1.584.656-3.117,1.801-4.207C15.893.467,17.312-.072,18.772.007c2.837.139,5.082,2.384,5.221,5.221.072,1.469-.461,2.879-1.5,3.97Zm-1.496-3.823c-.063-1.288-1.083-2.308-2.371-2.371-.641-.029-1.265.209-1.757.677-.552.526-.869,1.268-.869,2.034v2.286h2.282c.769,0,1.511-.317,2.038-.871.468-.491.708-1.114.677-1.755Zm-.997,17.626c0,.553-.447,1-1,1H1c-.553,0-1-.447-1-1,0-3.525,2.042-6.574,5-8.05v3.328c-.595.346-1,.984-1,1.723,0,1.105.895,2,2,2s2-.895,2-2c0-.738-.405-1.376-1-1.723v-4.046c.644-.147,1.312-.232,2-.232h2c.338,0,.671.022,1,.059v4.125c-1.161.414-2,1.514-2,2.816v1c0,.553.447,1,1,1s1-.447,1-1v-1c0-.552.448-1,1-1s1,.448,1,1v1c0,.553.447,1,1,1s1-.447,1-1v-1c0-1.302-.839-2.402-2-2.816v-3.659c3.49,1.239,6,4.565,6,8.475Z"/></svg>
