<?xml version="1.0" encoding="UTF-8"?>
<svg xmlns="http://www.w3.org/2000/svg" id="Layer_1" data-name="Layer 1" viewBox="0 0 24 24" width="512" height="512"><path d="M10.5,17c-1.1,0-2.05-.37-2.84-.97-.52,.43-1.12,.75-1.8,.92-.12,.03-.24,.05-.36,.05-.67,0-1.28-.46-1.45-1.14-.2-.8,.29-1.62,1.09-1.82,.24-.06,.46-.18,.65-.35-.52-1.06-.79-2.21-.79-3.19,0-1.38,1.12-2.5,2.5-2.5s2.5,1.12,2.5,2.5c0,1.02-.2,2.09-.6,3.07,.33,.26,.7,.43,1.1,.43,.25,0,.47-.07,.66-.17-.1-.27-.16-.55-.16-.83,0-1.1,.9-2,2-2s2,.9,2,2c0,1.2-1.53,4-4.5,4Zm-2,2h-3c-1.38,0-2.5-1.12-2.5-2.5V5.5c0-1.38,1.12-2.5,2.5-2.5h4.5v3c0,1.1,.9,2,2,2h3v1.5c0,.83,.67,1.5,1.5,1.5s1.5-.67,1.5-1.5v-1.76c0-1.2-.47-2.33-1.32-3.18l-3.24-3.24c-.85-.85-1.98-1.32-3.18-1.32H5.5C2.47,0,0,2.47,0,5.5v11c0,3.03,2.47,5.5,5.5,5.5h3c.83,0,1.5-.67,1.5-1.5s-.67-1.5-1.5-1.5Zm15.01-6.15c-.88-1.07-2.46-1.13-3.41-.18l-6.81,6.81c-.81,.81-1.27,1.92-1.27,3.06v.95c0,.28,.22,.5,.5,.5h.95c1.15,0,2.25-.46,3.06-1.27l6.71-6.71c.85-.85,1.01-2.24,.25-3.17Z"/></svg>
