<?xml version="1.0" encoding="UTF-8"?>
<svg xmlns="http://www.w3.org/2000/svg" id="Layer_1" data-name="Layer 1" viewBox="0 0 24 24" width="512" height="512"><path d="M22.5,8c-.829,0-1.5,.672-1.5,1.5v.5h-2V1.5c0-.828-.671-1.5-1.5-1.5s-1.5,.672-1.5,1.5v.5h-2.5v-.5c0-.828-.671-1.5-1.5-1.5s-1.5,.672-1.5,1.5v.5h-2.5v-.5c0-.828-.671-1.5-1.5-1.5s-1.5,.672-1.5,1.5V10H3v-.5c0-.828-.671-1.5-1.5-1.5s-1.5,.672-1.5,1.5v9.5c0,2.757,2.243,5,5,5h14c2.757,0,5-2.243,5-5V9.5c0-.828-.671-1.5-1.5-1.5Zm-12.5-1c0-1.105,.895-2,2-2s2,.895,2,2v3h-4v-3Zm9,14h-4v-2c0-1.657-1.343-3-3-3s-3,1.343-3,3v2H5c-1.103,0-2-.897-2-2v-6H21v6c0,1.103-.897,2-2,2Z"/></svg>
