<?xml version="1.0" encoding="UTF-8"?>
<svg xmlns="http://www.w3.org/2000/svg" id="Layer_1" data-name="Layer 1" viewBox="0 0 24 24" width="512" height="512"><path d="M12,0C5.383,0,0,5.383,0,12s5.383,12,12,12,12-5.383,12-12S18.617,0,12,0Zm0,21c-4.963,0-9-4.037-9-9S7.037,3,12,3s9,4.037,9,9-4.037,9-9,9Zm-2.025-8.077l-3,1c-.157,.053-.317,.077-.475,.077-.628,0-1.214-.397-1.423-1.025-.262-.786,.162-1.636,.948-1.897l3-1c.787-.262,1.637,.163,1.897,.948,.262,.786-.162,1.636-.948,1.897Zm8.948,.052c-.209,.628-.795,1.025-1.423,1.025-.157,0-.317-.024-.475-.077l-3-1c-.786-.262-1.21-1.111-.948-1.897,.261-.785,1.11-1.212,1.897-.948l3,1c.786,.262,1.21,1.111,.948,1.897Zm-3.081,4.696c-.263,.525-.793,.829-1.343,.829-.226,0-.454-.051-.67-.158,0,0-.743-.342-1.829-.342-1.092,0-1.837,.346-1.844,.349-.746,.355-1.638,.043-1.997-.697-.359-.738-.065-1.625,.67-1.993,.135-.067,1.369-.658,3.171-.658s3.036,.591,3.171,.658c.741,.371,1.041,1.271,.671,2.013Z"/></svg>
