<?xml version="1.0" encoding="UTF-8"?>
<svg xmlns="http://www.w3.org/2000/svg" id="Layer_1" data-name="Layer 1" viewBox="0 0 24 24" width="512" height="512"><path d="m22.5,21h-.5V7.278c0-2.535-1.898-4.669-4.416-4.966l-4.084-.48v-.332c0-.829-.672-1.5-1.5-1.5s-1.5.671-1.5,1.5v.332l-4.085.48c-2.517.296-4.415,2.431-4.415,4.966v13.722h-.5c-.828,0-1.5.671-1.5,1.5s.672,1.5,1.5,1.5h21c.828,0,1.5-.671,1.5-1.5s-.672-1.5-1.5-1.5ZM5,7.278c0-.484.173-.931.464-1.279.012,0,.024,0,.036,0h13c.012,0,.024,0,.036,0,.29.348.464.796.464,1.279v13.722H5V7.278Zm6,7.222v1c0,.828-.672,1.5-1.5,1.5h-1c-.828,0-1.5-.672-1.5-1.5v-1c0-.828.672-1.5,1.5-1.5h1c.828,0,1.5.672,1.5,1.5Zm-4-4.5v-1c0-.552.448-1,1-1s1,.448,1,1v1c0,.552-.448,1-1,1s-1-.448-1-1Zm6-1v1c0,.552-.448,1-1,1s-1-.448-1-1v-1c0-.552.448-1,1-1s1,.448,1,1Zm4,0v1c0,.552-.448,1-1,1s-1-.448-1-1v-1c0-.552.448-1,1-1s1,.448,1,1Z"/></svg>
