<?xml version="1.0" encoding="UTF-8"?>
<svg xmlns="http://www.w3.org/2000/svg" id="Layer_1" data-name="Layer 1" viewBox="0 0 24 24" width="512" height="512"><path d="M24,13.5c0-.83-.67-1.5-1.5-1.5h-1.5c0-1.1-.9-2-2-2h-2c-1.1,0-2,.9-2,2h-1.5c-.83,0-1.5,.67-1.5,1.5,0,.65,.42,1.21,1,1.41v5.59c0,1.93,1.57,3.5,3.5,3.5h3c1.93,0,3.5-1.57,3.5-3.5v-5.59c.58-.21,1-.76,1-1.41Zm-4.5,7.5h-3c-.28,0-.5-.22-.5-.5v-5.5h4v5.5c0,.28-.22,.5-.5,.5Zm-8.5-.5c0,.83-.67,1.5-1.5,1.5H5.5c-3.03,0-5.5-2.47-5.5-5.5V5.5C0,2.47,2.47,0,5.5,0h11c3.03,0,5.5,2.47,5.5,5.5v1c0,.83-.67,1.5-1.5,1.5s-1.5-.67-1.5-1.5v-1c0-1.38-1.12-2.5-2.5-2.5H5.5c-1.38,0-2.5,1.12-2.5,2.5v11c0,1.38,1.12,2.5,2.5,2.5h4c.83,0,1.5,.67,1.5,1.5Zm-3-10.88v4.38h.5c.83,0,1.5,.67,1.5,1.5s-.67,1.5-1.5,1.5h-1c-1.38,0-2.5-1.12-2.5-2.5V6.5c0-.83,.67-1.5,1.5-1.5h2.5c.61,0,1.15,.37,1.39,.93,.23,.56,.1,1.21-.33,1.63l-2.06,2.06Zm7.5-4.62c.83,0,1.5,.67,1.5,1.5s-.67,1.5-1.5,1.5h-2c-.83,0-1.5-.67-1.5-1.5s.67-1.5,1.5-1.5h2Z"/></svg>
