<?xml version="1.0" encoding="UTF-8"?>
<svg xmlns="http://www.w3.org/2000/svg" id="Layer_1" data-name="Layer 1" viewBox="0 0 24 24" width="512" height="512"><path d="M1.354,12.134l5.311,3.532c.582,.388,1.261,.583,1.941,.583,.611,0,1.223-.157,1.766-.475l11.44-6.693c2-1.073,2.782-3.51,1.782-5.546-.502-1.023-1.375-1.782-2.458-2.138-1.083-.355-2.235-.263-3.247,.266-.018,.009-.036,.019-.054,.029l-4.766,2.735L8.485,.61C7.774,.004,6.789-.165,5.916,.169l-1.043,.557c-1.349,.72-1.625,2.536-.551,3.624l3.209,3.255-.751,.431-2.781-1.021c-.726-.265-1.515-.233-2.22,.091-.951,.44-1.575,1.326-1.671,2.369-.096,1.042,.356,2.026,1.248,2.659Zm5.047-1.04c.417,.153,.878,.114,1.264-.107l11.631-6.674c.283-.141,.603-.162,.903-.064,.309,.102,.557,.317,.701,.609,.285,.58,.062,1.274-.556,1.607l-11.488,6.72c-.166,.097-.368,.093-.53-.016l-4.594-3.056,2.668,.98Z"/><path d="M22.505,21H1.505C.677,21,.005,21.672,.005,22.5s.671,1.5,1.5,1.5H22.505c.829,0,1.5-.672,1.5-1.5s-.671-1.5-1.5-1.5Z"/></svg>
