<?xml version="1.0" encoding="UTF-8"?>
<svg xmlns="http://www.w3.org/2000/svg" id="Layer_1" data-name="Layer 1" viewBox="0 0 24 24">
  <path d="m22.5,21h-.5v-.5c0-2.481-2.019-4.5-4.5-4.5h-1.5v-.5c0-.827.673-1.5,1.5-1.5h2.25c2.343,0,4.25-1.907,4.25-4.25s-1.907-4.25-4.25-4.25h-2.464c-1.174-.461-5.426-2.225-8.501-4.766C7.897,0,6.703-.15,5.667.337c-1.028.485-1.667,1.496-1.667,2.639v8.104c0,1.143.639,2.154,1.667,2.639.402.189.828.282,1.25.282.666,0,1.325-.231,1.868-.68,3.212-2.653,7.734-4.47,8.647-4.822h2.318c.689,0,1.25.561,1.25,1.25s-.561,1.25-1.25,1.25h-2.25c-2.481,0-4.5,2.019-4.5,4.5v.5h-6.5c-2.481,0-4.5,2.019-4.5,4.5v.5h-.5c-.829,0-1.5.671-1.5,1.5s.671,1.5,1.5,1.5h21c.829,0,1.5-.671,1.5-1.5s-.671-1.5-1.5-1.5ZM7,10.906V3.15c2.023,1.646,4.416,2.967,6.303,3.878-1.887.911-4.278,2.232-6.303,3.878Zm-2,9.594c0-.827.673-1.5,1.5-1.5h11c.827,0,1.5.673,1.5,1.5v.5H5v-.5Z"/>
</svg>
