<?xml version="1.0" encoding="UTF-8"?>
<svg xmlns="http://www.w3.org/2000/svg" id="Layer_1" data-name="Layer 1" viewBox="0 0 24 24" width="512" height="512"><path d="m5.207,5.604l.793.396v2c0,3.309,2.691,6,6,6s6-2.691,6-6v-2l.793-.396c.74-.37,1.207-1.126,1.207-1.954,0-.976-.648-1.834-1.587-2.101L13.698.209C13.14.07,12.57,0,12,0s-1.14.07-1.698.209l-4.715,1.34c-.939.267-1.587,1.125-1.587,2.101,0,.827.467,1.584,1.207,1.954Zm9.793,2.396c0,1.654-1.346,3-3,3s-3-1.346-3-3v-.214c.833.123,1.818.214,3,.214s2.167-.091,3-.214v.214Zm-5.5-4.5c.188-.312.519-.485.858-.485.175,0,.352.046.514.143l1.128.677,1.128-.677c.161-.097.338-.143.514-.143.34,0,.671.173.858.485.284.474.131,1.088-.343,1.372l-1.643.985c-.158.095-.336.142-.514.142s-.356-.047-.514-.142l-1.643-.985c-.474-.284-.627-.898-.343-1.372Zm10.212,20.485c-.072.01-.143.015-.214.015-.734,0-1.376-.54-1.483-1.288-.33-2.312-2.113-4.025-4.515-4.538v4.326c0,.828-.671,1.5-1.5,1.5s-1.5-.672-1.5-1.5v-4.326c-2.402.513-4.185,2.225-4.515,4.538-.117.82-.876,1.389-1.697,1.273-.82-.117-1.39-.877-1.273-1.697.613-4.291,4.308-7.288,8.985-7.288s8.372,2.997,8.985,7.288c.117.82-.453,1.58-1.273,1.697Z"/></svg>
