<?xml version="1.0" encoding="UTF-8"?>
<svg xmlns="http://www.w3.org/2000/svg" id="Layer_1" data-name="Layer 1" viewBox="0 0 24 24" width="512" height="512"><path d="m21,22.5c0,.828-.671,1.5-1.5,1.5s-1.5-.672-1.5-1.5c0-1.379-1.122-2.5-2.5-2.5h-7c-1.378,0-2.5,1.121-2.5,2.5,0,.828-.671,1.5-1.5,1.5s-1.5-.672-1.5-1.5c0-3.032,2.467-5.5,5.5-5.5h7c3.033,0,5.5,2.468,5.5,5.5Zm1-15v2c0,.828-.671,1.5-1.5,1.5h-.528c-.25,2.247-2.16,4-4.472,4h-7c-2.312,0-4.223-1.753-4.472-4h-.528c-.829,0-1.5-.672-1.5-1.5v-2c0-.828.671-1.5,1.5-1.5h.528c.25-2.247,2.16-4,4.472-4h2v-.5c0-.828.671-1.5,1.5-1.5s1.5.672,1.5,1.5v.5h2c2.312,0,4.223,1.753,4.472,4h.528c.829,0,1.5.672,1.5,1.5Zm-5-1c0-.827-.673-1.5-1.5-1.5h-7c-.827,0-1.5.673-1.5,1.5v4c0,.827.673,1.5,1.5,1.5h7c.827,0,1.5-.673,1.5-1.5v-4Zm-7.5.5c-.828,0-1.5.672-1.5,1.5s.672,1.5,1.5,1.5,1.5-.672,1.5-1.5-.672-1.5-1.5-1.5Zm5,0c-.828,0-1.5.672-1.5,1.5s.672,1.5,1.5,1.5,1.5-.672,1.5-1.5-.672-1.5-1.5-1.5Z"/></svg>
