<?xml version="1.0" encoding="UTF-8"?>
<svg xmlns="http://www.w3.org/2000/svg" id="Layer_1" data-name="Layer 1" viewBox="0 0 24 24" width="512" height="512"><path d="M9,20.5c0,.83-.67,1.5-1.5,1.5h-2c-3.03,0-5.5-2.47-5.5-5.5V5.5C0,2.47,2.47,0,5.5,0H15.26c.93,0,1.83,.38,2.49,1.04l3.24,3.26c.65,.66,1.01,1.53,1.01,2.46v.73c0,.83-.67,1.5-1.5,1.5s-1.5-.67-1.5-1.5v-.73c0-.13-.05-.26-.14-.35l-3.24-3.27c-.09-.09-.22-.15-.35-.15h-.26v2.5c0,.83-.67,1.5-1.5,1.5H6.5c-.83,0-1.5-.67-1.5-1.5V3.05c-1.14,.23-2,1.24-2,2.45v11c0,1.38,1.12,2.5,2.5,2.5h2c.83,0,1.5,.67,1.5,1.5Zm2.85-9.34c.69-.62,.44-1.8-.45-2.04-.54-.15-1.14-.17-1.76-.02-1.27,.31-2.29,1.36-2.56,2.64-.21,.99,0,1.93,.49,2.67,.52,.79,1.73,.67,2.09-.2,.5-1.18,1.25-2.22,2.19-3.05Zm12.15,6.34c0,3.59-2.91,6.5-6.5,6.5s-6.5-2.91-6.5-6.5,2.91-6.5,6.5-6.5,6.5,2.91,6.5,6.5Zm-2.28-.68l-3.06-3.06c-.61-.61-1.65-.18-1.65,.68v1.56h-2.5c-.83,0-1.5,.67-1.5,1.5s.67,1.5,1.5,1.5h2.5v1.56c0,.86,1.04,1.29,1.65,.68l3.06-3.06c.38-.38,.38-.99,0-1.37Z"/></svg>
