<?xml version="1.0" encoding="UTF-8"?>
<svg xmlns="http://www.w3.org/2000/svg" id="Layer_1" data-name="Layer 1" viewBox="0 0 24 24" width="512" height="512"><path d="m22.828,7.823c.756-.755,1.172-1.76,1.172-2.829s-.416-2.073-1.171-2.828c-1.511-1.512-4.147-1.511-5.656,0L1.538,17.785c-.977.976-1.538,2.328-1.538,3.709,0,.817.653,1.484,1.47,1.5,0,0,1.854.009,2.089,0,3.999-.159,7.436-1.565,9.942-4.072l2.138-2.16s.744.75.843.841c.6.553,1.533.524,2.099-.063.565-.589.556-1.522-.021-2.1l-.193-.193c-.349-.388-.546-.877-.558-1.398-.014-.591.211-1.152.633-1.58l4.385-4.446Zm-11.453,8.982c-2.424,2.424-5.55,3.074-7.795,3.184.025-.028.051-.055.077-.082l7.568-7.561,2.293,2.292-2.143,2.166Zm4.932-6.643c-.529.536-.927,1.163-1.18,1.844l-1.779-1.78,5.945-5.939c.377-.378,1.036-.378,1.414,0,.189.188.293.439.293.707s-.104.518-.3.714l-4.393,4.454Z"/></svg>
