<?xml version="1.0" encoding="UTF-8"?>
<svg xmlns="http://www.w3.org/2000/svg" id="Layer_1" data-name="Layer 1" viewBox="0 0 24 24" width="512" height="512"><path d="M23.56,21.44l-2.54-2.54c.57-.21,.98-.75,.98-1.39,0-.82-.67-1.49-1.49-1.49-.64,0-1.18,.41-1.39,.98l-1.11-1.11s.02-.06,.03-.1l.15-1.82c1.18-.19,1.82-1.1,1.82-1.97,0-1.65-3.08-5.91-3.39-6.29C14.54,2.94,11.13,1.57,7.7,2.12c-.9,.15-1.77,.44-2.59,.87L2.56,.44C1.97-.15,1.03-.15,.44,.44-.15,1.02-.15,1.98,.44,2.56L21.44,23.56c.29,.29,.68,.44,1.06,.44s.77-.15,1.06-.44c.59-.59,.59-1.54,0-2.12ZM8.18,5.09c2.35-.38,4.61,.52,6.06,2.46,.69,.86,1.66,2.39,2.25,3.48-.64,.13-1.14,.67-1.19,1.35l-.06,.74L7.4,5.28c.26-.08,.52-.15,.78-.19Zm12.82,8.41c0-.83,.67-1.5,1.5-1.5s1.5,.67,1.5,1.5-.67,1.5-1.5,1.5-1.5-.67-1.5-1.5Zm-7,5v.5c0,1.65-1.35,3-3,3H6c-1.68,0-3-1.38-3-3.14v-.95c0-.36-.13-.7-.39-1C.83,14.82-.07,12.58,0,10.45c.03-.76,.21-1.53,.6-2.52,.31-.77,1.18-1.15,1.95-.84,.77,.3,1.15,1.18,.84,1.95-.26,.65-.38,1.13-.4,1.52-.06,1.74,1,3.36,1.9,4.42,.71,.83,1.1,1.88,1.1,2.95v.95c0,.1,.02,.15,.03,.15l4.97-.02v-.5c0-.83,.67-1.5,1.5-1.5s1.5,.67,1.5,1.5Z"/></svg>
