<?xml version="1.0" encoding="UTF-8"?>
<svg xmlns="http://www.w3.org/2000/svg" id="Layer_1" data-name="Layer 1" viewBox="0 0 24 24" width="512" height="512"><path d="M23,8h-1.208c-.655-2.306-2.779-4-5.292-4H5.5C2.467,4,0,6.467,0,9.5v5c0,3.033,2.467,5.5,5.5,5.5h11c2.513,0,4.638-1.694,5.292-4h1.208c.552,0,1-.448,1-1v-6c0-.552-.448-1-1-1Zm-4,6.5c0,1.378-1.122,2.5-2.5,2.5H5.5c-1.378,0-2.5-1.122-2.5-2.5v-5c0-1.378,1.122-2.5,2.5-2.5h11c1.378,0,2.5,1.122,2.5,2.5v5Zm-10-4v3c0,.829-.671,1.5-1.5,1.5h-1c-.829,0-1.5-.671-1.5-1.5v-3c0-.829,.671-1.5,1.5-1.5h1c.829,0,1.5,.671,1.5,1.5Z"/></svg>
