<?xml version="1.0" encoding="UTF-8"?>
<svg xmlns="http://www.w3.org/2000/svg" id="Layer_1" data-name="Layer 1" viewBox="0 0 24 24">
  <path d="m12,3c1.381,0,2.5,1.119,2.5,2.5s-1.119,2.5-2.5,2.5-2.5-1.119-2.5-2.5,1.119-2.5,2.5-2.5Zm10.553,13.999c-.018,0-.396-.029-.553-.085v.586c0,.828-.671,1.5-1.5,1.5-.175,0-.344-.03-.5-.086v1.569c0,1.017-.301,1.699-.518,2.031-.605.93-1.63,1.485-2.74,1.485H7.283c-1.11,0-2.135-.556-2.74-1.485-.358-.55-.529-1.816-.529-1.816l-.014-1.785c-.156.055-.325.086-.5.086-.829,0-1.5-.672-1.5-1.5v-.586c-.156.055-.324.086-.499.086-.018,0-.036,0-.054,0-.828-.029-1.476-.724-1.446-1.552l.021-.733c.087-3.259.233-8.714,3.978-8.714,3.124,0,5.773,2.756,6.661,3.794.874.271,1.805.271,2.679,0,.888-1.039,3.537-3.794,6.661-3.794,3.745,0,3.891,5.455,3.978,8.714l.021.733c.029.828-.619,1.522-1.446,1.552ZM3.5,14c.829,0,1.5.672,1.5,1.5v.586c.156-.055.325-.086.5-.086.116,0,.228.013.336.038l2.157-4.721c-.932-.974-2.539-2.318-3.994-2.318-.367.191-.807,1.243-.955,5.07.143-.046.296-.07.455-.07Zm13.468,6.878c.014-.022.032-.218.032-.218-.003-.01-.007-.021-.012-.031l-3.57-7.765c-.932.18-1.903.181-2.833,0l-3.555,7.779c-.031.07-.024.154.027.233.053.081.129.122.226.122h9.459c.097,0,.173-.041.226-.122Zm3.532-6.878c.159,0,.311.025.455.07-.148-3.827-.588-4.88-.941-5.072-1.464.002-3.073,1.344-4.005,2.318l2.17,4.719c.104-.023.211-.035.322-.035.175,0,.344.03.5.086v-.586c0-.828.671-1.5,1.5-1.5ZM8,4.25c.552,0,1-.447,1-1,0-.44,1.139-1.25,3-1.25s3,.81,3,1.25c0,.553.448,1,1,1s1-.447,1-1c0-1.853-2.149-3.25-5-3.25s-5,1.397-5,3.25c0,.553.448,1,1,1Z"/>
</svg>
