<?xml version="1.0" encoding="UTF-8"?>
<svg xmlns="http://www.w3.org/2000/svg" id="Layer_1" data-name="Layer 1" viewBox="0 0 24 24" width="512" height="512"><path d="m18.5,2h-.5v-.5c0-.829-.672-1.5-1.5-1.5s-1.5.671-1.5,1.5v.5h-6v-.5c0-.829-.672-1.5-1.5-1.5s-1.5.671-1.5,1.5v.5h-.5C2.468,2,0,4.467,0,7.5v11c0,3.032,2.468,5.5,5.5,5.5h13c3.032,0,5.5-2.468,5.5-5.5V7.5c0-3.033-2.468-5.5-5.5-5.5Zm0,19H5.5c-1.379,0-2.5-1.121-2.5-2.5v-9.5h18v9.5c0,1.379-1.121,2.5-2.5,2.5Zm-2.63-5.292l-3.163,3.163c-.391.391-1.024.391-1.414,0l-3.163-3.163c-.63-.63-.184-1.707.707-1.707h1.663v-1.501c0-.829.672-1.5,1.5-1.5s1.5.671,1.5,1.5v1.501h1.663c.891,0,1.337,1.077.707,1.707Z"/></svg>
