<?xml version="1.0" encoding="UTF-8"?>
<svg xmlns="http://www.w3.org/2000/svg" id="Layer_1" data-name="Layer 1" viewBox="0 0 24 24">
  <path d="m24,4.5c0,.829-.672,1.5-1.5,1.5h-1.5v3.5c0,2.133-1.492,3.925-3.488,4.385,1.978,1.529,3.31,3.86,3.485,6.517.054.827-.572,1.541-1.398,1.595-.034.002-.067.003-.101.003-.783,0-1.442-.608-1.495-1.402-.126-1.926-1.167-3.595-2.683-4.598h-6.64c-1.515,1.003-2.556,2.673-2.683,4.598-.055.827-.753,1.452-1.596,1.398-.826-.054-1.452-.768-1.398-1.595.175-2.656,1.507-4.988,3.485-6.517-1.996-.46-3.488-2.252-3.488-4.385v-3.5h-1.5c-.828,0-1.5-.671-1.5-1.5s.672-1.5,1.5-1.5h1.5v-.5c0-.829.672-1.5,1.5-1.5s1.5.671,1.5,1.5v.5h1.5c.828,0,1.5.671,1.5,1.5s-.672,1.5-1.5,1.5h-1.5v3.5c0,.827.673,1.5,1.5,1.5h.5c0-1.105.895-2,2-2h4c1.105,0,2,.895,2,2h.5c.827,0,1.5-.673,1.5-1.5v-3.5h-1.5c-.828,0-1.5-.671-1.5-1.5s.672-1.5,1.5-1.5h1.5v-.5c0-.829.672-1.5,1.5-1.5s1.5.671,1.5,1.5v.5h1.5c.828,0,1.5.671,1.5,1.5Z"/>
</svg>
