<?xml version="1.0" encoding="UTF-8"?>
<svg xmlns="http://www.w3.org/2000/svg" id="Layer_1" data-name="Layer 1" viewBox="0 0 24 24" width="512" height="512"><path d="m19.78,3.238c-2.077-2.088-4.84-3.238-7.78-3.238s-5.703,1.149-7.781,3.237C-.065,7.543-.065,14.548,4.262,18.895l3.734,3.465c1.076,1.058,2.498,1.641,4.004,1.641s2.928-.583,3.973-1.61l3.808-3.536c4.284-4.306,4.284-11.311,0-15.615Zm-2.084,13.457l-3.796,3.525c-1.021,1.006-2.748,1.036-3.832-.03l-3.723-3.454c-3.124-3.138-3.124-8.244,0-11.382,1.511-1.519,3.519-2.354,5.654-2.354s4.144.836,5.653,2.354h0c3.124,3.139,3.124,8.245.043,11.342Zm-4.196-10.195v5c0,.828-.672,1.5-1.5,1.5s-1.5-.672-1.5-1.5v-5c0-.828.672-1.5,1.5-1.5s1.5.672,1.5,1.5Zm0,9c0,.828-.672,1.5-1.5,1.5s-1.5-.672-1.5-1.5.672-1.5,1.5-1.5,1.5.672,1.5,1.5Z"/></svg>
