<?xml version="1.0" encoding="UTF-8"?>
<svg xmlns="http://www.w3.org/2000/svg" id="Layer_1" data-name="Layer 1" viewBox="0 0 24 24" width="512" height="512"><path d="M18.5,22h-4.721c-2.613,0-4.881-1.859-5.393-4.422l-.716-3.578h-3.537C2.118,14,.364,12.564,.054,10.661c-.19-1.171,.137-2.356,.898-3.251,.762-.896,1.873-1.41,3.048-1.41h5.397l3.968-3.804c.755-.76,1.795-1.194,2.903-1.196h.008c1.105,0,2.145,.43,2.927,1.212l2.308,2.309c1.605,1.604,2.49,3.739,2.49,6.01v5.969c0,3.033-2.467,5.5-5.5,5.5ZM4,9c-.294,0-.572,.129-.763,.353-.112,.131-.29,.414-.223,.826,.075,.46,.566,.821,1.119,.821h4.766c.715,0,1.331,.505,1.471,1.206l.957,4.784c.233,1.165,1.264,2.01,2.452,2.01h4.721c1.378,0,2.5-1.122,2.5-2.5v-5.969c0-1.469-.572-2.851-1.611-3.889l-2.308-2.309c-.215-.215-.501-.333-.806-.333h-.002c-.305,0-.591,.12-.807,.336l-1.735,1.664h1.268c.829,0,1.5,.671,1.5,1.5s-.671,1.5-1.5,1.5H4Z"/></svg>
