<?xml version="1.0" encoding="UTF-8"?>
<svg xmlns="http://www.w3.org/2000/svg" id="Layer_1" data-name="Layer 1" viewBox="0 0 24 24" width="512" height="512"><path d="M22.979,6.646c-.857-1.046-2.126-1.646-3.479-1.646h-2.499v-.5c0-1.379-1.121-2.5-2.5-2.5h-1v-.5c0-.828-.672-1.5-1.5-1.5s-1.5,.672-1.5,1.5v.5h-1c-1.379,0-2.5,1.121-2.5,2.5v.5h-2.499c-1.354,0-2.622,.601-3.479,1.646C.163,7.693-.177,9.055,.089,10.382l.72,3.599c.466,2.329,2.527,4.02,4.902,4.02h1.289v2.5c0,1.93,1.57,3.5,3.5,3.5h3c1.93,0,3.5-1.57,3.5-3.5v-2.5h1.289c2.375,0,4.437-1.69,4.902-4.02l.72-3.599c.266-1.327-.074-2.688-.933-3.735ZM7,12H3.471l-.441-2.206c-.088-.442,.025-.896,.312-1.245,.285-.349,.708-.549,1.159-.549h2.499v4Zm7,8.5c0,.275-.225,.5-.5,.5h-3c-.275,0-.5-.225-.5-.5v-2.5h4v2.5Zm0-8.5h-4v-4h4v4Zm6.97-2.206l-.441,2.206h-3.529v-4h2.499c.451,0,.874,.2,1.159,.549,.286,.349,.399,.803,.312,1.245Z"/></svg>
