<?xml version="1.0" encoding="UTF-8"?>
<svg xmlns="http://www.w3.org/2000/svg" id="Layer_1" data-name="Layer 1" viewBox="0 0 24 24" width="512" height="512"><path d="M23.71,22.29l-1.56-1.56c1.14-.97,1.86-2.4,1.86-3.98V7.5c0-3.03-2.47-5.5-5.5-5.5H3.41L1.71,.29C1.32-.1,.68-.1,.29,.29S-.1,1.32,.29,1.71L6.35,7.76c-.2,.25-.36,.55-.44,.89l-1.62,7.12c-.12,.54,.21,1.07,.75,1.2,.53,.12,1.07-.21,1.2-.75l.28-1.22h2.96l.28,1.22c.11,.46,.52,.78,.97,.78,.07,0,.15,0,.22-.02,.54-.12,.88-.66,.75-1.2l-1.62-7.12c-.19-.84-.82-1.44-1.63-1.61l-2.05-2.05h12.09c1.38,0,2.5,1.12,2.5,2.5v9.25c0,.76-.38,1.45-.98,1.86l-2.11-2.11c1.24-.68,2.09-1.98,2.09-3.49v-2c0-2.21-1.79-4-4-4h-1c-1.1,0-2,.9-2,2v6c0,1.1,.9,2,2,2h.59l6.71,6.71c.2,.2,.45,.29,.71,.29s.51-.1,.71-.29c.39-.39,.39-1.02,0-1.41ZM6.98,13l.89-3.9s.03-.1,.12-.1c0,0,0,0,.01,0s0,0,.01,0c.09,0,.11,.06,.12,.1l.89,3.9h-2.05Zm8.02-4h1c1.1,0,2,.9,2,2v2c0,1.1-.9,2-2,2h-1v-6Zm1,11.5c0,.83-.67,1.5-1.5,1.5H5.5c-3.03,0-5.5-2.47-5.5-5.5V8.25c0-.83,.67-1.5,1.5-1.5s1.5,.67,1.5,1.5v8.25c0,1.38,1.12,2.5,2.5,2.5H14.5c.83,0,1.5,.67,1.5,1.5Z"/></svg>
