<?xml version="1.0" encoding="UTF-8"?>
<svg xmlns="http://www.w3.org/2000/svg" id="Layer_1" data-name="Layer 1" viewBox="0 0 24 24" width="512" height="512"><path d="M22,1.5c0,.83-.67,1.5-1.5,1.5h-7V7.82l4.46-1.72c.77-.29,1.64,.09,1.94,.86,.3,.77-.09,1.64-.86,1.94l-5.54,2.13v1.79l4.46-1.72c.77-.29,1.64,.09,1.94,.86,.3,.77-.09,1.64-.86,1.94l-5.54,2.13v6.47c0,.83-.67,1.5-1.5,1.5s-1.5-.67-1.5-1.5v-5.32l-4.46,1.72c-.18,.07-.36,.1-.54,.1-.6,0-1.17-.37-1.4-.96-.3-.77,.09-1.64,.86-1.94l5.54-2.13v-1.79l-4.46,1.72c-.18,.07-.36,.1-.54,.1-.6,0-1.17-.37-1.4-.96-.3-.77,.09-1.64,.86-1.94l5.54-2.13V3H3.5c-.83,0-1.5-.67-1.5-1.5s.67-1.5,1.5-1.5H20.5c.83,0,1.5,.67,1.5,1.5Z"/></svg>
