<?xml version="1.0" encoding="utf-8"?>
<!-- Generator: Adobe Illustrator 27.2.0, SVG Export Plug-In . SVG Version: 6.00 Build 0)  -->
<svg xmlns="http://www.w3.org/2000/svg" xmlns:xlink="http://www.w3.org/1999/xlink" version="1.1" id="Layer_1" x="0px" y="0px" viewBox="0 0 24 24" style="enable-background:new 0 0 24 24;" xml:space="preserve">
<path d="M8.5,24L8.5,24c-0.7,0-1.3-0.5-1.5-1.2l-1.6-7.3L5,17.8C4.8,18.5,4.2,19,3.4,19c-0.7,0-1.3-0.6-1.4-1.3L0,4  c-0.2-0.9,0.1-2,0.7-2.8S2.4,0,3.4,0h17.2c1,0,2,0.4,2.6,1.2S24.1,3,23.9,4l-2.5,17.7C21.4,22.4,20.8,23,20,23  c-0.7,0-1.3-0.5-1.5-1.2l-1.7-7.2l-0.9,3.3c-0.2,0.6-0.8,1.1-1.4,1.1s-1.3-0.4-1.4-1.1l-1-3.5L10,22.9C9.8,23.5,9.2,24,8.5,24  L8.5,24z M5.5,7L5.5,7C6.2,7,6.8,7.5,7,8.2l1.6,7.7l1.9-7.7C10.7,7.5,11.3,7,12,7h0c0.7,0,1.3,0.4,1.4,1.1l1.1,3.8l1.1-3.8  C15.7,7.4,16.3,7,17,7h0c0.7,0,1.3,0.5,1.4,1.2l1.3,5.6L21,3.5c0-0.2,0-0.3-0.1-0.4c0-0.1-0.2-0.2-0.3-0.2H3.4  C3.3,3,3.1,3.1,3.1,3.2C3.1,3.2,3,3.3,3,3.5l0.8,5.7l0.2-1C4.2,7.5,4.8,7,5.5,7L5.5,7z"/>
</svg>
