<?xml version="1.0" encoding="UTF-8"?>
<svg xmlns="http://www.w3.org/2000/svg" id="Layer_1" data-name="Layer 1" viewBox="0 0 24 24" width="512" height="512"><path d="M10.76,23c-.71,0-1.41-.25-1.98-.72C4.68,18.79,0,14.22,0,9.5c-.08-2.03,.65-4.04,2.01-5.45,1.28-1.33,3.06-2.06,5-2.06,2.46,.05,4.69,1.39,5.89,3.49,.25,.38,1.09,1.82,1.1,3.99h0v10.27c0,1.25-.74,2.41-1.89,2.94-.44,.2-.9,.3-1.35,.3ZM6.98,4.99c-1.11,0-2.09,.4-2.81,1.14-.79,.82-1.22,2.03-1.17,3.31,0,3.99,5.79,8.91,7.69,10.52,.04,.03,.07,.05,.15,.02,.04-.02,.16-.08,.16-.23V9.48c0-1.44-.67-2.44-.69-2.48-.67-1.21-1.94-1.98-3.33-2.01Z"/></svg>
