<?xml version="1.0" encoding="UTF-8"?>
<svg xmlns="http://www.w3.org/2000/svg" id="Layer_1" data-name="Layer 1" viewBox="0 0 24 24" width="512" height="512"><path d="m10,14.5c0,.828-.672,1.5-1.5,1.5s-1.5-.672-1.5-1.5.672-1.5,1.5-1.5,1.5.672,1.5,1.5Zm-.5-7.5c-.828,0-1.5.672-1.5,1.5s.672,1.5,1.5,1.5,1.5-.672,1.5-1.5-.672-1.5-1.5-1.5Zm6,5c-.828,0-1.5.672-1.5,1.5s.672,1.5,1.5,1.5,1.5-.672,1.5-1.5-.672-1.5-1.5-1.5Zm8.5,0c0,1.556-.71,2.993-1.948,3.944-.092.07-.183.185-.167.297.232,1.575-.278,3.122-1.4,4.244-1.122,1.12-2.669,1.629-4.244,1.4-.119-.022-.228.075-.297.166-.952,1.238-2.389,1.948-3.944,1.948s-2.992-.71-3.944-1.948c-.07-.091-.181-.192-.296-.166-1.578.228-3.123-.278-4.245-1.4s-1.632-2.669-1.4-4.245c.016-.111-.075-.226-.166-.295-1.239-.952-1.949-2.39-1.949-3.945s.71-2.993,1.949-3.944c.09-.07.182-.185.166-.297-.232-1.575.278-3.122,1.399-4.244,1.122-1.122,2.67-1.633,4.245-1.4.108.014.227-.075.297-.167.951-1.237,2.388-1.948,3.943-1.948s2.993.71,3.944,1.949c.07.091.191.176.297.166,1.576-.235,3.122.278,4.244,1.399,1.122,1.123,1.632,2.67,1.4,4.245-.016.112.076.227.167.297,1.237.951,1.948,2.388,1.948,3.943Zm-3,0c0-.616-.283-1.186-.776-1.565-.978-.751-1.478-1.944-1.307-3.112.092-.628-.109-1.243-.554-1.688-.444-.444-1.061-.645-1.687-.553-1.172.173-2.361-.33-3.112-1.306-.759-.988-2.373-.987-3.13,0-.751.977-1.941,1.479-3.112,1.307-.629-.092-1.243.11-1.688.554-.444.444-.646,1.059-.553,1.687.171,1.168-.329,2.361-1.306,3.112-.494.379-.777.95-.777,1.565s.283,1.187.776,1.565c.977.749,1.479,1.941,1.307,3.111-.093.629.109,1.243.553,1.688.444.443,1.059.644,1.688.553.152-.022.305-.033.457-.033,1.014,0,2.001.489,2.655,1.34.758.986,2.372.986,3.13,0,.751-.979,1.946-1.478,3.113-1.307.628.091,1.243-.109,1.687-.553.444-.444.646-1.059.553-1.687-.172-1.171.33-2.363,1.308-3.113.492-.378.774-.949.774-1.564Z"/></svg>
