<?xml version="1.0" encoding="UTF-8"?>
<svg xmlns="http://www.w3.org/2000/svg" id="Layer_1" data-name="Layer 1" viewBox="0 0 24 24" width="512" height="512"><path d="M18.274,1.99l-1.274,.01c-1.058,0-1.585-.376-2.316-.897-.311-.222-.633-.451-1.01-.661-1.059-.589-2.32-.588-3.377,0-.386,.214-.71,.448-1.024,.674-.712,.513-1.227,.884-2.272,.884l-1.274-.01c-2.193,0-3.726,1.455-3.726,3.538v6.852c0,5.519,4.918,9.269,7.77,10.965,.479,.292,1.078,.656,2.232,.656,1.171,0,1.877-.322,2.557-.68,2.779-1.47,7.441-4.846,7.441-10.94V5.528c0-2.083-1.532-3.538-3.726-3.538Zm.726,10.39c0,4.522-3.661,7.134-5.843,8.288-.477,.251-.671,.333-1.155,.333-.313,0-.501-.113-.834-.315-2.304-1.37-6.168-4.271-6.168-8.305v-1.379h14v1.379Zm0-4.379H5v-2.472c0-.252,0-.538,.726-.538l1.274,.01c2.014,0,3.177-.838,4.026-1.451,.238-.171,.471-.343,.728-.486h.002c.148-.084,.308-.084,.46,0,.255,.142,.488,.312,.727,.482,.861,.614,2.041,1.455,4.058,1.455l1.274-.01c.726,0,.726,.286,.726,.538v2.472Z"/></svg>
