<?xml version="1.0" encoding="UTF-8"?>
<svg xmlns="http://www.w3.org/2000/svg" id="Layer_1" data-name="Layer 1" viewBox="0 0 24 24" width="512" height="512"><path d="M17.5,17.5c0,.829-.672,1.5-1.5,1.5H8c-.828,0-1.5-.671-1.5-1.5s.672-1.5,1.5-1.5h8c.828,0,1.5,.671,1.5,1.5Zm5.5-12v13c0,3.033-2.468,5.5-5.5,5.5H6.5c-3.032,0-5.5-2.467-5.5-5.5V5.5C1,2.467,3.468,0,6.5,0h11c3.032,0,5.5,2.467,5.5,5.5Zm-3,0c0-1.378-1.121-2.5-2.5-2.5H6.5c-1.379,0-2.5,1.122-2.5,2.5v13c0,1.378,1.121,2.5,2.5,2.5h11c1.379,0,2.5-1.122,2.5-2.5V5.5Zm-4.485-.363c-.455-.329-1.095,.089-.967,.637,.224,.959,.374,2.053,.429,3.226h-1.993c-.086-2.554-.494-4.487-.983-4.487s-.897,1.933-.983,4.487h-1.993c.055-1.173,.205-2.268,.429-3.226,.128-.547-.512-.966-.967-.637-1.506,1.09-2.485,2.862-2.485,4.863s.98,3.773,2.485,4.863c.455,.329,1.095-.09,.967-.637-.224-.958-.374-2.053-.429-3.226h1.992c.085,2.566,.493,4.513,.984,4.513s.899-1.946,.984-4.513h1.992c-.055,1.173-.205,2.268-.429,3.226-.128,.547,.512,.966,.967,.637,1.506-1.09,2.485-2.862,2.485-4.863s-.98-3.773-2.485-4.863Z"/></svg>
