<?xml version="1.0" encoding="UTF-8"?>
<svg xmlns="http://www.w3.org/2000/svg" id="Layer_1" data-name="Layer 1" viewBox="0 0 24 24" width="512" height="512"><path d="m7,13c.353,0,.686.072,1,.184v5.633c-.314.112-.647.184-1,.184-1.657,0-3-1.343-3-3s1.343-3,3-3Zm1-7.723c-.295-.172-.634-.277-1-.277-1.105,0-2,.895-2,2s.895,2,2,2c.366,0,.705-.106,1-.277v-3.445Zm16,.223v13c0,3.033-2.468,5.5-5.5,5.5h-3c-3.032,0-5.5-2.467-5.5-5.5V5.5c0-3.033,2.468-5.5,5.5-5.5h3c3.032,0,5.5,2.467,5.5,5.5Zm-3,0c0-1.378-1.121-2.5-2.5-2.5h-3c-1.379,0-2.5,1.122-2.5,2.5v13c0,1.378,1.121,2.5,2.5,2.5h3c1.379,0,2.5-1.122,2.5-2.5V5.5ZM9,1.5c0-.829-.672-1.5-1.5-1.5h-2C2.468,0,0,2.467,0,5.5v13c0,3.033,2.468,5.5,5.5,5.5h2c.828,0,1.5-.671,1.5-1.5s-.672-1.5-1.5-1.5h-2c-1.379,0-2.5-1.122-2.5-2.5V5.5c0-1.378,1.121-2.5,2.5-2.5h2c.828,0,1.5-.671,1.5-1.5Zm8,11.5c-1.657,0-3,1.343-3,3s1.343,3,3,3,3-1.343,3-3-1.343-3-3-3Zm0-4c1.105,0,2-.895,2-2s-.895-2-2-2-2,.895-2,2,.895,2,2,2Z"/></svg>
