<?xml version="1.0" encoding="UTF-8"?>
<svg xmlns="http://www.w3.org/2000/svg" id="Layer_1" data-name="Layer 1" viewBox="0 0 24 24">
  <path d="m23.335,13.122c-.575-.713-1.43-1.122-2.344-1.122h-1.491c-.828,0-1.5.671-1.5,1.5s.672,1.5,1.5,1.5l1.501-.012c-.733,3.391-4.165,5.424-7.501,5.901v-5.889h1c.828,0,1.5-.671,1.5-1.5s-.672-1.5-1.5-1.5h-1v-3.276c1.742-.621,3-2.271,3-4.224,0-2.481-2.019-4.5-4.5-4.5s-4.5,2.019-4.5,4.5c0,1.953,1.258,3.602,3,4.224v3.276h-1c-.829,0-1.5.671-1.5,1.5s.671,1.5,1.5,1.5h1v5.889c-3.335-.477-6.766-2.508-7.491-5.889h1.491c.829,0,1.5-.671,1.5-1.5s-.671-1.5-1.5-1.5h-1.491c-.914,0-1.769.409-2.344,1.123-.57.707-.788,1.618-.597,2.5,1.189,5.5,6.903,8.378,11.933,8.378s10.744-2.878,11.933-8.378c.19-.882-.027-1.793-.598-2.5ZM12,3c.827,0,1.5.673,1.5,1.5s-.673,1.5-1.5,1.5-1.5-.673-1.5-1.5.673-1.5,1.5-1.5Z"/>
</svg>
