<?xml version="1.0" encoding="UTF-8"?>
<svg xmlns="http://www.w3.org/2000/svg" id="Layer_1" data-name="Layer 1" viewBox="0 0 24 24" width="512" height="512"><path d="m19.799,23.97c-.101.021-.201.03-.301.03-.698,0-1.323-.49-1.468-1.201-.556-2.736-3.148-4.799-6.03-4.799s-5.475,2.062-6.03,4.799c-.165.812-.963,1.333-1.769,1.171-.812-.165-1.336-.956-1.171-1.769.847-4.173,4.619-7.201,8.97-7.201s8.123,3.028,8.97,7.201c.165.812-.359,1.604-1.171,1.769Zm-4.279-2.397c-.272-.666-.66-1.321-1.132-1.887-.216-.26-.61-.258-.825.002-.479.579-.873,1.268-1.146,2.075-.168.529-.315,1.133-.414,1.818-.048.332.338.548.595.332.532-.446,1.251-.97,1.726-.97.361,0,.785.205,1.15.462.248.175.58-.046.518-.343-.105-.503-.253-.97-.472-1.49ZM4,7c0-.839.517-1.557,1.25-1.854.815-2.963,3.533-5.146,6.75-5.146s5.935,2.183,6.75,5.146c.733.297,1.25,1.015,1.25,1.854s-.517,1.557-1.25,1.854c-.815,2.963-3.533,5.146-6.75,5.146s-5.935-2.183-6.75-5.146c-.733-.297-1.25-1.015-1.25-1.854Zm11.463,2h-6.927c.693,1.195,1.985,2,3.463,2s2.771-.805,3.463-2Zm-6.927-4h6.927c-.693-1.195-1.985-2-3.463-2s-2.771.805-3.463,2Z"/></svg>
