<?xml version="1.0" encoding="UTF-8"?>
<svg xmlns="http://www.w3.org/2000/svg" id="Layer_1" data-name="Layer 1" viewBox="0 0 24 24" width="512" height="512"><path d="m9.5,0h-4C3.019,0,1,2.019,1,4.5v15c0,2.481,2.019,4.5,4.5,4.5h4c.828,0,1.5-.671,1.5-1.5V1.5c0-.829-.672-1.5-1.5-1.5Zm-5.5,10h4v4h-4v-4Zm1.5-7h2.5v4h-4v-2.5c0-.827.673-1.5,1.5-1.5Zm0,18c-.827,0-1.5-.673-1.5-1.5v-2.5h4v4h-2.5ZM18.5,0h-4c-.828,0-1.5.671-1.5,1.5v21c0,.829.672,1.5,1.5,1.5h4c2.481,0,4.5-2.019,4.5-4.5V4.5c0-2.481-2.019-4.5-4.5-4.5Zm-2.5,10h4v4h-4v-4Zm2.5-7c.827,0,1.5.673,1.5,1.5v2.5h-4V3h2.5Zm0,18h-2.5v-4h4v2.5c0,.827-.673,1.5-1.5,1.5Z"/></svg>
