<?xml version="1.0" encoding="UTF-8"?>
<svg xmlns="http://www.w3.org/2000/svg" id="Layer_1" data-name="Layer 1" viewBox="0 0 24 24" width="512" height="512"><path d="M14.061,1.079c.233-.794,1.064-1.252,1.861-1.018,2.013,.589,3.401,1.975,4.015,4.006,.239,.793-.209,1.63-1.002,1.87-.145,.043-.291,.064-.434,.064-.644,0-1.24-.418-1.436-1.067-.324-1.072-.936-1.687-1.985-1.994-.795-.232-1.251-1.066-1.018-1.861ZM4.921,21.061c-1.049-.307-1.662-.922-1.985-1.994-.24-.793-1.078-1.243-1.87-1.002-.793,.24-1.242,1.077-1.002,1.87,.614,2.031,2.002,3.417,4.015,4.006,.141,.042,.283,.061,.422,.061,.649,0,1.248-.425,1.439-1.079,.233-.795-.223-1.628-1.018-1.861Zm4.466-10.583c.292,.292,.676,.438,1.059,.438s.769-.147,1.062-.441c.585-.586,.584-1.536-.003-2.121L5.533,2.398c-.586-.585-1.537-.584-2.121,.003-.585,.586-.584,1.536,.003,2.121l5.972,5.956Zm-3.253,3.1c.292,.292,.676,.438,1.059,.438s.769-.147,1.062-.441c.585-.586,.584-1.536-.003-2.121L2.586,5.803c-.586-.585-1.536-.585-2.121,.003-.585,.586-.584,1.536,.003,2.121l5.666,5.65Zm14.543-7.55c-.983,.16-1.664,1.083-1.664,2.08v1.451L10.88,1.438c-.586-.586-1.537-.584-2.121,.002-.585,.586-.584,1.536,.002,2.121l9.759,9.743c1.254,1.255,1.254,3.296,0,4.551l-1.804,1.804c-1.785,1.784-4.69,1.785-6.478-.002L2.558,12.014c-.587-.585-1.537-.582-2.121,.005-.584,.587-.583,1.537,.005,2.121l7.677,7.641c1.478,1.478,3.418,2.216,5.359,2.216s3.882-.739,5.359-2.216l1.804-1.804c.151-.151,.292-.307,.423-.469v.031c1.248-1.247,1.936-2.94,1.936-4.704v-6.836c0-1.215-1.07-2.176-2.323-1.973Z"/></svg>
