<?xml version="1.0" encoding="UTF-8"?>
<svg xmlns="http://www.w3.org/2000/svg" id="Layer_1" data-name="Layer 1" viewBox="0 0 24 24" width="512" height="512"><path d="M14,8V3c0-1.105,.895-2,2-2h5c1.105,0,2,.895,2,2v5c0,1.105-.895,2-2,2h-5c-1.105,0-2-.895-2-2Zm9.441,12.563l-3.49-5.7c-.624-1.152-2.277-1.152-2.901,0l-3.49,5.7c-.596,1.099,.2,2.437,1.451,2.437h6.981c1.251,0,2.047-1.337,1.451-2.437ZM8.268,.744c-.974-.975-2.56-.975-3.529-.006L.945,4.489c-.589,.582-.594,1.532-.012,2.121,.583,.589,1.532,.595,2.122,.012l1.945-1.923V22.555c0,.828,.671,1.5,1.5,1.5s1.5-.672,1.5-1.5V4.698l1.945,1.923c.292,.289,.674,.434,1.055,.434,.504,0,1.006-.251,1.305-.754,.357-.6,.187-1.379-.309-1.87L8.268,.744Z"/></svg>
