<?xml version="1.0" encoding="UTF-8"?>
<svg xmlns="http://www.w3.org/2000/svg" id="Layer_1" data-name="Layer 1" viewBox="0 0 24 24">
  <path d="m23.177.819c-.63-.628-1.535-.922-2.419-.792-3.512.53-10.193,2.211-15.471,7.505-1.568,1.571-2.41,3.748-2.311,5.97.065,1.459.543,2.86,1.343,4.058l-3.879,3.879c-.586.586-.586,1.535,0,2.121.293.293.677.439,1.061.439s.768-.146,1.061-.439l3.86-3.86c1.312.896,2.842,1.339,4.383,1.339,2.147,0,4.313-.855,5.933-2.528,5.279-5.453,6.816-12.509,7.231-15.288.134-.892-.155-1.768-.791-2.403ZM5.973,13.368c-.062-1.385.462-2.74,1.438-3.718h0c4.553-4.566,10.346-6.104,13.551-6.618-.184,1.145-.558,2.932-1.287,4.968h-3.932c-1.201,0-2.331.468-3.182,1.318l-6.06,6.06c-.312-.616-.495-1.296-.527-2.011Zm11.282-.368h-4.133l1.56-1.56c.284-.284.661-.44,1.062-.44h2.645c-.335.665-.713,1.334-1.134,2Zm-8.646,4.513l1.513-1.513h4.847c-.129.142-.252.286-.387.425-1.618,1.67-4.073,2.064-5.973,1.088Z"/>
</svg>
