<?xml version="1.0" encoding="UTF-8"?>
<svg xmlns="http://www.w3.org/2000/svg" id="Layer_1" data-name="Layer 1" viewBox="0 0 24 24" width="512" height="512"><path d="M5,6.5c0-.83,.67-1.5,1.5-1.5s1.5,.67,1.5,1.5-.67,1.5-1.5,1.5-1.5-.67-1.5-1.5Zm19-1V13.5c0,3.03-2.47,5.5-5.5,5.5h-5v2h3c.83,0,1.5,.67,1.5,1.5s-.67,1.5-1.5,1.5H7.5c-.83,0-1.5-.67-1.5-1.5s.67-1.5,1.5-1.5h3v-2H5.5c-3.03,0-5.5-2.47-5.5-5.5V5.5C0,2.47,2.47,0,5.5,0h13c3.03,0,5.5,2.47,5.5,5.5ZM3,13.5c0,.4,.1,.78,.26,1.12l4.99-4.99c1.51-1.51,3.97-1.51,5.49,0l.63,.64c.34,.34,.9,.34,1.24,0l5.31-5.31c-.25-1.11-1.25-1.94-2.44-1.94H5.5c-1.38,0-2.5,1.12-2.5,2.5V13.5Zm18,0v-4.38l-3.26,3.26c-1.51,1.51-3.97,1.51-5.49,0l-.63-.64c-.34-.34-.9-.34-1.24,0l-4.26,4.26h12.38c1.38,0,2.5-1.12,2.5-2.5Z"/></svg>
