<?xml version="1.0" encoding="UTF-8"?>
<svg xmlns="http://www.w3.org/2000/svg" id="Layer_1" data-name="Layer 1" viewBox="0 0 24 24">
  <path d="m23.733,20.086c.472.682.301,1.615-.38,2.087-1.368.946-2.946,1.87-5.854,1.87-1.432,0-2.76-.539-3.739-1.519-.98-.979-1.52-2.282-1.52-3.667s.54-2.688,1.52-3.668l6.964-6.965c.189-.188.292-.439.292-.707s-.104-.519-.293-.707c-.377-.377-1.037-.379-1.414,0l-12.5,12.5c-1.51,1.512-4.146,1.512-5.657,0C.398,18.555-.018,17.551-.018,16.482s.416-2.073,1.171-2.828L10.213,4.701c.183-.184.287-.435.287-.701s-.104-.518-.293-.707c-.378-.379-1.037-.379-1.414,0l-6.241,6.142c-.59.58-1.539.574-2.122-.018-.581-.59-.573-1.54.017-2.121L6.68,1.163c.747-.747,1.751-1.163,2.82-1.163s2.073.416,2.829,1.172c1.559,1.56,1.559,4.097,0,5.656L3.269,15.781c-.183.183-.286.434-.286.701s.104.519.293.707c.377.377,1.037.379,1.414,0l12.5-12.5c1.51-1.512,4.146-1.512,5.657,0,.755.756,1.171,1.76,1.171,2.828s-.416,2.073-1.171,2.828l-6.964,6.965c-.413.413-.641.962-.641,1.547s.228,1.133.641,1.546c.413.412.987.64,1.618.64,2.051,0,3.052-.579,4.146-1.337.68-.474,1.615-.302,2.087.38Z"/>
</svg>
