<?xml version="1.0" encoding="UTF-8"?>
<svg xmlns="http://www.w3.org/2000/svg" id="Layer_1" data-name="Layer 1" viewBox="0 0 24 24" width="512" height="512"><path d="M24,12c0,6.617-5.383,12-12,12-2.551,0-4.988-.791-7.047-2.286-.67-.487-.819-1.425-.332-2.096,.486-.67,1.423-.819,2.095-.332,1.543,1.121,3.37,1.714,5.284,1.714,4.962,0,9-4.037,9-9S16.962,3,12,3c-3.148,0-6.015,1.603-7.668,4.287-.435,.705-1.36,.926-2.064,.49-.706-.435-.925-1.358-.491-2.064C3.981,2.136,7.803,0,12,0c6.617,0,12,5.383,12,12Zm-6.274-3.038c.092,.025,.184,.038,.275,.038,.435,0,.835-.286,.961-.726,.152-.531-.156-1.084-.687-1.236-.965-.275-1.977-.941-2.46-1.619-.32-.448-.945-.555-1.395-.232-.449,.32-.554,.945-.233,1.395,.746,1.045,2.135,1.979,3.54,2.381Zm-9.54-3.543c-.484,.678-1.496,1.344-2.46,1.619-.531,.152-.839,.705-.687,1.236,.125,.439,.526,.726,.961,.726,.091,0,.183-.013,.275-.038,1.404-.401,2.793-1.336,3.54-2.381,.321-.449,.216-1.074-.233-1.395-.45-.321-1.074-.217-1.395,.232Zm-.186,4.581c-1.105,0-2,.895-2,2s.895,2,2,2,2-.895,2-2-.895-2-2-2Zm8,4c1.105,0,2-.895,2-2s-.895-2-2-2-2,.895-2,2,.895,2,2,2ZM3.078,10.265c-.303-.355-.849-.353-1.151,.004-.738,.874-1.927,2.861-1.927,4.231,0,1.381,1.119,2.5,2.5,2.5s2.5-1.119,2.5-2.5c0-1.403-1.184-3.372-1.922-4.235Zm5.751,5.393c-.735,.368-1.029,1.255-.67,1.993,.359,.74,1.254,1.049,1.998,.697,.007-.003,.751-.349,1.844-.349,1.086,0,1.829,.342,1.829,.342,.215,.107,.444,.158,.67,.158,.55,0,1.08-.304,1.343-.829,.37-.741,.07-1.642-.671-2.013-.135-.067-1.369-.658-3.171-.658s-3.036,.591-3.171,.658Z"/></svg>
