<?xml version="1.0" encoding="UTF-8"?>
<svg xmlns="http://www.w3.org/2000/svg" id="Layer_1" data-name="Layer 1" viewBox="0 0 24 24" width="512" height="512"><path d="M21.5,17H2.5c-.83,0-1.5-.67-1.5-1.5s.67-1.5,1.5-1.5H21.5c.83,0,1.5,.67,1.5,1.5s-.67,1.5-1.5,1.5Zm1.5,4v-.5c0-.83-.67-1.5-1.5-1.5H2.5c-.83,0-1.5,.67-1.5,1.5v.5c0,1.65,1.35,3,3,3H20c1.65,0,3-1.35,3-3Zm-.58-9.9c.48-.57,.67-1.31,.54-2.04C22.03,3.81,17.42,0,12,0S1.99,3.81,1.03,9.06c-.13,.73,.06,1.47,.54,2.04,.48,.57,1.18,.9,1.93,.9H20.5c.74,0,1.44-.33,1.92-.9ZM12,3c3.76,0,6.98,2.49,7.89,6H4.12c.92-3.46,4.21-6,7.88-6Z"/></svg>
