<?xml version="1.0" encoding="UTF-8"?>
<svg xmlns="http://www.w3.org/2000/svg" id="Layer_1" data-name="Layer 1" viewBox="0 0 24 24" width="512" height="512"><path d="m17.5,16H3c-1.654,0-3,1.346-3,3v2c0,1.654,1.346,3,3,3h14.5c.829,0,1.5-.672,1.5-1.5v-5c0-.828-.671-1.5-1.5-1.5Zm-14.5,3h4v2H3v-2Zm13,2h-6v-2h6v2Zm8-3.5v5c0,.828-.671,1.5-1.5,1.5s-1.5-.672-1.5-1.5v-5c0-.828.671-1.5,1.5-1.5s1.5.672,1.5,1.5Zm-5-5.68v.68c0,.828-.671,1.5-1.5,1.5s-1.5-.672-1.5-1.5v-.68c0-.524-.279-1.018-.729-1.287l-1.601-.961c-1.647-.988-2.67-2.795-2.67-4.716v-1.356c0-.828.671-1.5,1.5-1.5s1.5.672,1.5,1.5v1.356c0,.873.465,1.694,1.213,2.144l1.602.961c1.348.81,2.185,2.288,2.185,3.859Zm5-1.556v.235c0,.828-.671,1.5-1.5,1.5s-1.5-.672-1.5-1.5v-.235c0-.873-.465-1.694-1.213-2.144l-2.087-1.252c-1.049-.631-1.7-1.78-1.7-3.002V1.5c0-.828.671-1.5,1.5-1.5s1.5.672,1.5,1.5v2.367c0,.178.091.339.244.431l2.085,1.251c1.647.988,2.67,2.795,2.67,4.716Z"/></svg>
