<?xml version="1.0" encoding="UTF-8"?>
<svg xmlns="http://www.w3.org/2000/svg" id="Layer_1" data-name="Layer 1" viewBox="0 0 24 24" width="512" height="512"><path d="M12.44,4.56c-.59-.59-.59-1.54,0-2.12l1-1c.59-.59,1.54-.59,2.12,0,.59,.59,.59,1.54,0,2.12l-1,1c-.29,.29-.68,.44-1.06,.44s-.77-.15-1.06-.44Zm-8,0c.29,.29,.68,.44,1.06,.44s.77-.15,1.06-.44c.59-.59,.59-1.54,0-2.12l-1-1c-.59-.59-1.54-.59-2.12,0-.59,.59-.59,1.54,0,2.12l1,1Zm5.06-.56c.83,0,1.5-.67,1.5-1.5V1.5c0-.83-.67-1.5-1.5-1.5s-1.5,.67-1.5,1.5v1c0,.83,.67,1.5,1.5,1.5ZM3.2,15.61c.59,.59,1.54,.59,2.12,0s.59-1.54,0-2.12l-2.73-2.73c-.59-.59-1.54-.59-2.12,0-.59,.59-.59,1.54,0,2.12l2.73,2.73Zm3.15-3.15c.59,.59,1.54,.59,2.12,0,.59-.59,.59-1.54,0-2.12l-2.91-2.91c-.59-.59-1.54-.59-2.12,0-.59,.59-.59,1.54,0,2.12l2.91,2.91Zm15.31-5.45c-.98,.16-1.66,1.08-1.66,2.08v5.82c0,1.5-.54,2.95-1.52,4.08-1,1.16-2.13,2.45-2.13,2.45-.59,.59-.59,1.54,0,2.12,.29,.29,.68,.44,1.06,.44s.77-.15,1.06-.44l3.16-3.59c.27-.27,.51-.57,.73-.88,1.05-1.21,1.64-2.75,1.64-4.37v-5.74c0-1.21-1.08-2.18-2.34-1.97Zm-3.66,7.72v-5.74c0-1.21-1.08-2.18-2.34-1.97-.98,.16-1.66,1.08-1.66,2.08v.46l-3.13-3.13c-.59-.59-1.54-.59-2.12,0-.59,.59-.59,1.54,0,2.12l4.76,4.76c.61,.61,.94,1.42,.94,2.28s-.33,1.67-.94,2.28l-1.8,1.8c-.86,.87-2.01,1.34-3.24,1.34s-2.37-.48-3.24-1.34l-2.68-2.66c-.59-.58-1.54-.58-2.12,0-.58,.59-.58,1.54,0,2.12l2.68,2.66c1.43,1.43,3.33,2.22,5.36,2.22s3.93-.79,5.36-2.22l1.8-1.8c.27-.27,.52-.57,.73-.88,1.05-1.21,1.64-2.75,1.64-4.36Z"/></svg>
