<?xml version="1.0" encoding="UTF-8"?>
<svg xmlns="http://www.w3.org/2000/svg" id="Layer_1" data-name="Layer 1" viewBox="0 0 24 24" width="512" height="512"><path d="M12,24c-.75,0-1.78-.06-3.08-.18C4.27,23.4,.6,19.73,.18,15.08c-.12-1.3-.18-2.33-.18-3.08s.06-1.78,.18-3.08C.6,4.27,4.27,.6,8.92,.18c1.3-.12,2.33-.18,3.08-.18s1.78,.06,3.08,.18c4.65,.42,8.32,4.1,8.74,8.74,.12,1.3,.18,2.33,.18,3.08s-.06,1.78-.18,3.08h0c-.42,4.64-4.1,8.32-8.74,8.74-1.3,.12-2.33,.18-3.08,.18Zm0-21c-.66,0-1.6,.06-2.81,.17-3.2,.29-5.73,2.82-6.02,6.02-.11,1.21-.17,2.15-.17,2.81s.06,1.6,.16,2.81c.29,3.2,2.82,5.73,6.02,6.02,1.21,.11,2.15,.17,2.81,.17s1.6-.06,2.81-.17c3.2-.29,5.73-2.82,6.02-6.02h0c.11-1.21,.16-2.15,.16-2.81s-.06-1.6-.16-2.81c-.29-3.2-2.82-5.73-6.02-6.02-1.21-.11-2.15-.17-2.81-.17Z"/></svg>
