<?xml version="1.0" encoding="UTF-8"?>
<svg xmlns="http://www.w3.org/2000/svg" id="Layer_1" data-name="Layer 1" viewBox="0 0 24 24" width="512" height="512"><path d="M14.719,20.118c.49,.667,.347,1.606-.32,2.097-.718,.527-1.558,.79-2.398,.79s-1.681-.263-2.397-.79l-6.435-4.729c-.426-.313-.951-.485-1.479-.485h-.188c-.828,0-1.5-.671-1.5-1.5s.672-1.5,1.5-1.5h.188c1.162,0,2.319,.379,3.256,1.068l6.435,4.729c.371,.272,.87,.273,1.243,0,.665-.49,1.605-.347,2.097,.321Zm8.842,1.322c.586,.585,.586,1.536,0,2.121-.293,.293-.677,.439-1.061,.439s-.768-.146-1.061-.439L.439,2.561C-.146,1.975-.146,1.025,.439,.439,1.025-.146,1.975-.146,2.561,.439l1.735,1.735,1.193-.597c.757-.378,1.604-.578,2.45-.578,1.405,0,2.716,.507,3.728,1.429l.343,.313,.346-.297c1.556-1.468,4.146-1.871,6.155-.866l2.104,1.052c.483,.242,1.024,.37,1.565,.37h.319c.828,0,1.5,.671,1.5,1.5s-.672,1.5-1.5,1.5h-.319c-1.004,0-2.01-.237-2.907-.686l-2.104-1.052c-.907-.455-2.067-.285-2.808,.412l-.823,.707c.481-.095,.995,.022,1.363,.399l8.673,8.896c.421,.432,.542,1.074,.308,1.63-.234,.556-.778,.917-1.382,.917h-.188c-.528,0-1.054,.172-1.479,.485l-.589,.413,3.318,3.318ZM9.717,4.711l-.071-.064c-.768-.699-1.969-.809-2.815-.385l-.299,.149,1.633,1.633,1.552-1.333Zm9.907,10.211l-5.861-6.012-1.433,1.299,5.759,5.759,.995-.696c.174-.127,.354-.244,.541-.349Z"/></svg>
