<?xml version="1.0" encoding="UTF-8"?>
<svg xmlns="http://www.w3.org/2000/svg" id="Layer_1" data-name="Layer 1" viewBox="0 0 24 24" width="512" height="512"><path d="M24,22.5c0,.83-.67,1.5-1.5,1.5H5.51s0,0,0,0c-1.46,0-2.84-.57-3.88-1.61-1.04-1.04-1.61-2.42-1.61-3.89V1.5C0,.67,.67,0,1.5,0s1.5,.67,1.5,1.5V18.49c0,.67,.26,1.3,.73,1.77,.47,.47,1.1,.73,1.77,.73H22.5c.83,0,1.5,.68,1.5,1.51Zm-6-8.5v1.5c0,.83,.67,1.5,1.5,1.5s1.5-.67,1.5-1.5v-1.5c1.1,0,2-.9,2-2V5c0-1.1-.9-2-2-2V1.5c0-.83-.67-1.5-1.5-1.5s-1.5,.67-1.5,1.5v1.5c-1.1,0-2,.9-2,2v7c0,1.1,.9,2,2,2Zm-10,2v1.5c0,.83,.67,1.5,1.5,1.5s1.5-.67,1.5-1.5v-1.5c1.1,0,2-.9,2-2V5c0-1.1-.9-2-2-2V1.5c0-.83-.67-1.5-1.5-1.5s-1.5,.67-1.5,1.5v1.5c-1.1,0-2,.9-2,2V14c0,1.1,.9,2,2,2Z"/></svg>
