<?xml version="1.0" encoding="UTF-8"?>
<svg xmlns="http://www.w3.org/2000/svg" id="Layer_1" data-name="Layer 1" viewBox="0 0 24 24">
  <path d="m22.5,4c-.156,0-.305.024-.447.068l1.507-1.507c.586-.586.586-1.535,0-2.121s-1.535-.586-2.121,0l-1.507,1.507c.044-.141.068-.291.068-.447,0-.828-.672-1.5-1.5-1.5s-1.5.672-1.5,1.5.672,1.5,1.5,1.5c.156,0,.305-.024.447-.068l-2.844,2.844c-1.544-1.117-3.44-1.776-5.487-1.776-.191,0-.382.007-.57.021-1.429.106-2.596,1.137-2.903,2.562-.159.732-.525,1.401-1.06,1.935-.702.703-1.637,1.11-2.632,1.146-1.335.048-2.477.843-2.909,2.027-.359.986-.542,1.971-.542,2.925,0,2.047.659,3.942,1.776,5.487l-1.337,1.337c-.586.586-.586,1.535,0,2.121.293.293.677.439,1.061.439s.768-.146,1.061-.439l1.337-1.337c1.544,1.117,3.44,1.776,5.487,1.776.955,0,1.94-.183,2.93-.544,1.226-.446,2.019-1.63,2.021-3.016,0-1.045.408-2.027,1.147-2.768.532-.532,1.201-.898,1.933-1.058,1.472-.319,2.534-1.545,2.582-2.986l.004-.245c0-2.047-.659-3.942-1.776-5.487l2.844-2.844c-.044.141-.068.291-.068.447,0,.828.672,1.5,1.5,1.5s1.5-.672,1.5-1.5-.672-1.5-1.5-1.5Zm-5.5,9.384l-.002.151c-.002.041-.088.12-.222.148-1.296.283-2.477.929-3.416,1.868h0c-1.305,1.307-2.024,3.042-2.025,4.886,0,.117-.043.192-.048.2-.659.24-1.3.362-1.902.362-1.218,0-2.357-.343-3.326-.937l.503-.503c.586-.586.586-1.535,0-2.121s-1.535-.586-2.121,0l-.503.503c-.594-.969-.937-2.108-.937-3.326,0-.603.121-1.241.356-1.89.013-.016.085-.061.201-.064,1.757-.062,3.407-.78,4.647-2.022.94-.939,1.586-2.121,1.869-3.42.011-.046.054-.196.197-.206.115-.009.229-.014.345-.014,1.218,0,2.357.343,3.326.937l-4.503,4.503c-.586.586-.586,1.535,0,2.121.293.293.677.439,1.061.439s.768-.146,1.061-.439l4.503-4.503c.594.969.937,2.108.937,3.326Z"/>
</svg>
