<?xml version="1.0" encoding="UTF-8"?>
<svg xmlns="http://www.w3.org/2000/svg" id="Layer_1" data-name="Layer 1" viewBox="0 0 24 24" width="512" height="512"><path d="M20,14H4c-2.21,0-4,1.79-4,4v2c0,2.21,1.79,4,4,4H20c2.21,0,4-1.79,4-4v-2c0-2.21-1.79-4-4-4Zm1,6c0,.55-.45,1-1,1H4c-.55,0-1-.45-1-1v-2c0-.55,.45-1,1-1H20c.55,0,1,.45,1,1v2ZM0,6v-2C0,1.79,1.79,0,4,0h6c1.86,0,3.41,1.28,3.86,3h2.64c2.48,0,4.5,2.02,4.5,4.5v.5h1.16c.75,0,1.12,.91,.59,1.43l-2.66,2.66c-.33,.33-.86,.33-1.19,0l-2.66-2.66c-.53-.53-.15-1.43,.59-1.43h1.16v-.5c0-.83-.67-1.5-1.5-1.5h-2.5c0,2.21-1.79,4-4,4H4C1.79,10,0,8.21,0,6Z"/></svg>
