<?xml version="1.0" encoding="UTF-8"?>
<svg xmlns="http://www.w3.org/2000/svg" id="Layer_1" data-name="Layer 1" viewBox="0 0 24 24" width="512" height="512"><path d="M13.5,1.5V22.5c0,.83-.67,1.5-1.5,1.5s-1.5-.67-1.5-1.5V1.5c0-.83,.67-1.5,1.5-1.5s1.5,.67,1.5,1.5Zm-4.5,10.5c0,.74-.32,1.45-.87,1.94l-4.3,4.41c-.47,.43-1.03,.65-1.6,.65-.3,0-.6-.06-.89-.19-.82-.36-1.34-1.17-1.34-2.06V7.25c0-.89,.53-1.7,1.34-2.06,.81-.36,1.77-.2,2.43,.4l4.43,4.53c.48,.43,.8,1.13,.8,1.88Zm-3.16,0l-2.84-2.91v5.82l2.84-2.91ZM24,7.25v9.5c0,.89-.53,1.7-1.34,2.06-.29,.13-.6,.19-.9,.19-.55,0-1.1-.2-1.52-.59l-4.43-4.53c-.48-.43-.8-1.13-.8-1.88s.32-1.45,.87-1.94l4.3-4.41c.72-.66,1.67-.82,2.48-.46,.82,.36,1.34,1.17,1.34,2.06Z"/></svg>
