<?xml version="1.0" encoding="UTF-8"?>
<svg xmlns="http://www.w3.org/2000/svg" id="Layer_1" data-name="Layer 1" viewBox="0 0 24 24" width="512" height="512"><path d="M20.292,24h-1.792c-.829,0-1.5-.672-1.5-1.5s.671-1.5,1.5-1.5h1.792c.38,0,.561-.26,.621-.372,.06-.111,.176-.405-.035-.722-.019-.027-2.679-4.659-2.679-4.659-.267-.465-.266-1.035,.002-1.499,.269-.463,.763-.748,1.298-.748h.179l-2.562-3.636c-.323-.458-.363-1.058-.105-1.555,.164-.317,.432-.559,.75-.692l-2.762-3.907-2.933,4.155c-.478,.677-1.414,.839-2.091,.359-.676-.478-.837-1.413-.359-2.09L12.876,1.02c.521-.658,1.266-1.004,2.097-1.02,.885,.016,1.63,.361,2.099,.95l3.466,4.902c.563,.869,.602,1.907,.136,2.762-.059,.109-.125,.213-.198,.311l2.053,2.914c.566,.848,.617,1.893,.154,2.758-.208,.389-.503,.711-.854,.948l1.575,2.744c.73,1.131,.79,2.564,.153,3.754-.646,1.207-1.897,1.957-3.266,1.957Zm-5.292-4.5v-3.56c0-1.525-.689-2.939-1.891-3.882l-2.571-2.011c-1.789-1.4-4.287-1.399-6.075,0l-2.573,2.013c-1.201,.941-1.89,2.355-1.89,3.881v3.56c0,2.481,2.019,4.5,4.5,4.5h6c2.481,0,4.5-2.019,4.5-4.5Zm-6.312-7.09l2.571,2.011c.471,.369,.741,.923,.741,1.52v3.56c0,.827-.673,1.5-1.5,1.5H4.5c-.827,0-1.5-.673-1.5-1.5v-3.56c0-.597,.27-1.15,.74-1.519l2.572-2.013c.35-.273,.769-.41,1.188-.41s.838,.137,1.188,.411Zm.312,5.59v-1c0-.552-.448-1-1-1h-1c-.552,0-1,.448-1,1v1c0,.552,.448,1,1,1h1c.552,0,1-.448,1-1Z"/></svg>
