<?xml version="1.0" encoding="UTF-8"?>
<svg xmlns="http://www.w3.org/2000/svg" id="Layer_1" data-name="Layer 1" viewBox="0 0 24 24" width="512" height="512"><path d="m22.802,5.352c-.699-.441-1.581-.466-2.421-.065-.369.176-.688.404-1.026.646-.407.291-.833.578-1.354.784v-.216c0-.828-.672-1.5-1.5-1.5s-1.5.672-1.5,1.5v.5h-2v-.5c0-.828-.672-1.5-1.5-1.5s-1.5.672-1.5,1.5v.5h-2v-.5c0-.828-.672-1.5-1.5-1.5s-1.5.672-1.5,1.5v.904c-1.077.306-2.12.737-2.95,1.13-1.245.589-2.05,1.863-2.05,3.246v1.504c0,1.357.744,2.581,1.943,3.194,1.358.694,3.425,1.521,5.557,1.521h9c1.059,0,2.06.631,2.864,1.138.345.218.67.423.99.576.398.189.806.284,1.198.284.437,0,.855-.117,1.224-.35.776-.49,1.223-1.423,1.224-2.56l.025-9.174c0-1.139-.446-2.073-1.224-2.563Zm-1.801,11.272c-.012-.008-.024-.016-.037-.023-1.011-.638-2.538-1.601-4.464-1.601H7.5c-1.616,0-3.319-.747-4.191-1.193-.19-.097-.309-.297-.309-.522v-1.504c0-.232.128-.438.333-.535,1.673-.791,3.191-1.245,4.167-1.245h9c2.26,0,3.617-.927,4.524-1.574l-.023,8.198Zm-8.001-4.124c0,.828-.672,1.5-1.5,1.5s-1.5-.672-1.5-1.5.672-1.5,1.5-1.5,1.5.672,1.5,1.5Zm-5,0c0,.828-.672,1.5-1.5,1.5s-1.5-.672-1.5-1.5.672-1.5,1.5-1.5,1.5.672,1.5,1.5Zm8.5-1.5c.828,0,1.5.672,1.5,1.5s-.672,1.5-1.5,1.5-1.5-.672-1.5-1.5.672-1.5,1.5-1.5Z"/></svg>
