<?xml version="1.0" encoding="UTF-8"?>
<svg xmlns="http://www.w3.org/2000/svg" id="Layer_1" data-name="Layer 1" viewBox="0 0 24 24" width="512" height="512"><path d="m13,7c0-1.103.897-2,2-2s2,.897,2,2-.897,2-2,2-2-.897-2-2Zm-.874,5.768c.114.146.288.232.474.232h4.8c.186,0,.36-.086.474-.232.114-.147.154-.338.107-.517-.336-1.304-1.59-2.25-2.981-2.25s-2.645.946-2.981,2.25c-.046.18-.006.371.107.517Zm10.874-7.268v13c0,3.033-2.468,5.5-5.5,5.5H5.5c-2.481,0-4.5-2.019-4.5-4.5V5.5C1,2.467,3.468,0,6.5,0h11c3.032,0,5.5,2.467,5.5,5.5Zm-5.5-2.5h-7.5v12h10V5.5c0-1.378-1.121-2.5-2.5-2.5Zm-13.5,2.5v9.757c.469-.166.974-.257,1.5-.257h1.5V3h-.5c-1.379,0-2.5,1.122-2.5,2.5Zm16,13v-.5H5.5c-.827,0-1.5.673-1.5,1.5s.673,1.5,1.5,1.5h12c1.379,0,2.5-1.122,2.5-2.5Z"/></svg>
