<?xml version="1.0" encoding="UTF-8"?>
<svg xmlns="http://www.w3.org/2000/svg" id="Layer_1" data-name="Layer 1" viewBox="0 0 24 24" width="512" height="512"><path d="m11.5,11.5c0,.828-.672,1.5-1.5,1.5s-1.5-.672-1.5-1.5v-3c0-.828.672-1.5,1.5-1.5s1.5.672,1.5,1.5v3Zm-3,4c0,.828.672,1.5,1.5,1.5s1.5-.672,1.5-1.5-.672-1.5-1.5-1.5-1.5.672-1.5,1.5Zm5.616,2.162c-1.201.875-2.625,1.338-4.116,1.338-3.859,0-7-3.141-7-7s3.141-7,7-7c2.744,0,5.249,1.616,6.382,4.118.341.755,1.23,1.089,1.984.748.755-.341,1.09-1.229.748-1.984-1.616-3.573-5.194-5.882-9.114-5.882C4.486,2,0,6.486,0,12s4.486,10,10,10c2.131,0,4.165-.662,5.884-1.914.669-.487.816-1.426.328-2.096-.487-.669-1.427-.817-2.096-.328Zm9.466-7.701c-.575-.599-1.524-.617-2.121-.043l-3.014,2.896c-.245.247-.647.246-.938-.043l-1.492-1.375c-.607-.561-1.558-.521-2.12.087-.561.609-.522,1.559.087,2.12l1.448,1.332c.711.711,1.646,1.065,2.576,1.065.924,0,1.845-.35,2.539-1.044l2.992-2.875c.598-.574.616-1.524.043-2.121Z"/></svg>
