<?xml version="1.0" encoding="UTF-8"?>
<svg xmlns="http://www.w3.org/2000/svg" id="Layer_1" data-name="Layer 1" viewBox="0 0 24 24" width="512" height="512"><path d="M24,12c0,4.197-2.136,8.019-5.713,10.223-.245,.151-.518,.223-.786,.223-.503,0-.995-.253-1.278-.713-.435-.705-.215-1.629,.49-2.064,2.685-1.653,4.287-4.52,4.287-7.668,0-4.962-4.037-9-9-9S3,7.038,3,12c0,1.351,.291,2.648,.865,3.856,.355,.748,.038,1.643-.71,1.999-.749,.357-1.644,.038-1.999-.71-.768-1.613-1.156-3.344-1.156-5.144C0,5.383,5.383,0,12,0s12,5.383,12,12Zm-6-1c0-1.105-.895-2-2-2s-2,.895-2,2,.895,2,2,2,2-.895,2-2Zm-1.046,3.951c-.133-.423-.524-.695-.945-.695-.098,0-.198,.015-.297,.046l-6.196,1.955,.482-.921c.256-.489,.067-1.094-.423-1.349-.148-.077-.306-.114-.463-.114-.36,0-.708,.195-.887,.537l-1.659,3.172c-.376,.719-.588,1.527-.531,2.336,.116,1.642,1.057,2.925,2.324,3.587,.613,.32,1.302,.495,2.009,.495,.428,0,.863-.064,1.293-.199l1.309-.436c.612-.204,1.025-.776,1.026-1.422l.005-5.029,2.302-.721c.522-.164,.813-.719,.649-1.242Zm-8.954-2.951c1.105,0,2-.895,2-2s-.895-2-2-2-2,.895-2,2,.895,2,2,2Zm-1.18-4.666c.021-.014,.538-.334,1.449-.334,1.106,0,2.085,.764,2.104,.779,.185,.149,.406,.221,.626,.221,.291,0,.579-.126,.777-.369,.348-.429,.283-1.059-.146-1.407-.154-.125-1.559-1.224-3.361-1.224-1.535,0-2.464,.606-2.564,.675-.45,.308-.562,.915-.263,1.37,.299,.456,.918,.582,1.378,.29Z"/></svg>
