<?xml version="1.0" encoding="UTF-8"?>
<svg xmlns="http://www.w3.org/2000/svg" id="Layer_1" data-name="Layer 1" viewBox="0 0 24 24" width="512" height="512"><path d="M20.14,15.4c-.74-.38-1.64-.09-2.02,.64-.8,1.55-2.37,2.63-4.12,2.89V5.06c1.78,.26,3.36,1.37,4.16,2.97,.37,.74,1.27,1.05,2.01,.67,.74-.37,1.04-1.27,.68-2.01-1.3-2.61-3.92-4.37-6.84-4.65v-.54c0-.83-.67-1.5-1.5-1.5s-1.5,.67-1.5,1.5v.51c-4.45,.24-8,3.93-8,8.44v3.09c0,4.51,3.55,8.2,8,8.44v.51c0,.83,.67,1.5,1.5,1.5s1.5-.67,1.5-1.5v-.54c2.87-.28,5.47-2,6.78-4.54,.38-.74,.09-1.64-.64-2.02Zm-14.14-1.86v-3.09c0-2.85,2.2-5.2,5-5.43v13.96c-2.8-.23-5-2.58-5-5.43Z"/></svg>
