<?xml version="1.0" encoding="UTF-8"?>
<svg xmlns="http://www.w3.org/2000/svg" id="Layer_1" data-name="Layer 1" viewBox="0 0 24 24" width="512" height="512"><path d="M18.5,0H5.5C2.468,0,0,2.467,0,5.5v13c0,3.032,2.468,5.5,5.5,5.5h13c3.032,0,5.5-2.468,5.5-5.5V5.5c0-3.033-2.468-5.5-5.5-5.5Zm2.5,18.5c0,1.379-1.121,2.5-2.5,2.5H5.5c-1.379,0-2.5-1.121-2.5-2.5V5.5c0-1.378,1.121-2.5,2.5-2.5h13c1.379,0,2.5,1.122,2.5,2.5v13Zm-9,.5c2.481,0,4.5-2.019,4.5-4.5s-2.019-4.5-4.5-4.5c-.474,0-.932,.074-1.361,.211,.367-1.838,1.468-2.211,3.361-2.211,.828,0,1.5-.672,1.5-1.5s-.672-1.5-1.5-1.5c-4.374,0-6.5,2.257-6.5,6.9v2.6c0,2.481,2.019,4.5,4.5,4.5Zm0-6c.827,0,1.5,.673,1.5,1.5s-.673,1.5-1.5,1.5-1.5-.673-1.5-1.5,.673-1.5,1.5-1.5Z"/></svg>
