<?xml version="1.0" encoding="UTF-8"?>
<svg xmlns="http://www.w3.org/2000/svg" id="Layer_1" data-name="Layer 1" viewBox="0 0 24 24">
  <path d="m17.582,8.461c.573.597.555,1.547-.043,2.121l-4.605,4.424c-.668.659-1.552.989-2.439.989s-1.774-.33-2.451-.992l-1.546-1.387c-.616-.554-.667-1.502-.113-2.118.554-.616,1.502-.667,2.118-.113l1.592,1.43c.24.232.555.231.747.042l4.62-4.438c.597-.575,1.546-.555,2.121.042Zm5.663,6.319l-3.224,5.5c-.982,1.677-2.801,2.719-4.745,2.719h-6.551c-1.944,0-3.762-1.042-4.745-2.719L.757,14.781c-1.005-1.715-1.005-3.846,0-5.562L3.981,3.719c.982-1.677,2.801-2.719,4.745-2.719h6.551c1.944,0,3.763,1.042,4.745,2.719l3.224,5.5c1.005,1.715,1.005,3.846,0,5.561Zm-2.588-4.045l-3.224-5.5c-.447-.762-1.273-1.236-2.157-1.236h-6.551c-.883,0-1.71.474-2.156,1.236l-3.224,5.5c-.457.78-.457,1.749,0,2.528l3.224,5.5c.447.762,1.273,1.236,2.157,1.236h6.551c.884,0,1.71-.474,2.157-1.236l3.224-5.5c.456-.78.456-1.749,0-2.529Z"/>
</svg>
