<?xml version="1.0" encoding="UTF-8"?>
<svg xmlns="http://www.w3.org/2000/svg" id="Layer_1" data-name="Layer 1" viewBox="0 0 24 24" width="512" height="512"><path d="m20,9.616v.021c0,.34-.276.616-.616.616h-.316c-.121,1.275-.617,2.731-1.607,3.866.542.329,1.192.564,1.984.639.315.03.555.296.555.613v.021c0,.366-.316.648-.68.613-1.137-.109-2.059-.489-2.808-1.022-.753.538-1.686.915-2.832,1.022-.364.034-.679-.248-.679-.614v-.021c0-.321.248-.584.568-.614.788-.075,1.438-.307,1.977-.635-.329-.377-.605-.79-.83-1.22-.215-.411.09-.903.553-.903.228,0,.44.123.545.325.184.352.415.69.692,1,.818-.92,1.192-2.108,1.303-3.071h-4.191c-.34,0-.616-.276-.616-.616v-.021c0-.34.276-.616.616-.616h2.257v-.384c0-.34.276-.616.616-.616h.021c.34,0,.616.276.616.616v.384h2.257c.34,0,.616.276.616.616Zm-14.014-.216c-.038,0-.071.026-.079.063l-.811,3.437h1.757l-.787-3.437c-.009-.037-.041-.063-.079-.063Zm18.014-.9v7c0,3.033-2.468,5.5-5.5,5.5H5.5C2.463,21,0,18.538,0,15.5v-7C0,5.462,2.463,3,5.5,3h13c3.032,0,5.5,2.467,5.5,5.5Zm-15.196,6.644l-1.363-5.948c-.107-.464-.403-.886-.842-1.07-.919-.385-1.855.155-2.056,1.021l-1.413,5.993c-.104.439.23.86.681.86h0c.324,0,.606-.223.681-.539l.274-1.161h2.409l.265,1.157c.073.318.356.543.682.543h.002c.449,0,.782-.418.682-.856Zm12.196-6.644c0-1.378-1.121-2.5-2.5-2.5h-6.5v12h6.5c1.379,0,2.5-1.122,2.5-2.5v-7Z"/></svg>
