<?xml version="1.0" encoding="UTF-8"?>
<svg xmlns="http://www.w3.org/2000/svg" id="Layer_1" data-name="Layer 1" viewBox="0 0 24 24" width="512" height="512"><path d="m23.437,2.328l-.582-.465c-1.502-1.202-3.388-1.863-5.31-1.863h-4.545c-2.206,0-4,1.794-4,4v1.445c-3.135,1.306-6,4.197-6,8.244v4.811c0,3.032,2.468,5.5,5.5,5.5h7c3.032,0,5.5-2.468,5.5-5.5v-4.811c0-4.047-2.865-6.938-6-8.244v-2.445h2.545c1.243,0,2.464.428,3.436,1.206l.583.466c.646.517,1.592.41,2.108-.235.518-.647.412-1.591-.235-2.108Zm-5.437,11.361v4.811c0,1.379-1.121,2.5-2.5,2.5h-7c-1.379,0-2.5-1.121-2.5-2.5v-4.811c0-3.071,2.502-4.962,4.728-5.689h2.544c2.226.727,4.728,2.619,4.728,5.689Zm-4.5-.189h1c.828,0,1.5.672,1.5,1.5s-.672,1.5-1.5,1.5h-1v1c0,.828-.672,1.5-1.5,1.5s-1.5-.672-1.5-1.5v-1h-1c-.828,0-1.5-.672-1.5-1.5s.672-1.5,1.5-1.5h1v-1c0-.828.672-1.5,1.5-1.5s1.5.672,1.5,1.5v1Z"/></svg>
