<?xml version="1.0" encoding="UTF-8"?>
<svg xmlns="http://www.w3.org/2000/svg" id="Layer_1" data-name="Layer 1" viewBox="0 0 24 24" width="512" height="512"><path d="m23.502,10.594c-1.975-3.353-4.476-5.777-6.158-6.928-.642-.438-1.388-.684-2.085-.662-1.029.008-1.957.39-2.612,1.077l-.647.678-.647-.678c-.666-.697-1.557-1.08-2.51-1.08-.794,0-1.532.217-2.132.627-1.579,1.08-4.149,3.549-6.197,6.954-.738,1.226-.68,2.771.148,3.936.769,1.083,4.931,6.483,11.338,6.483s10.57-5.41,11.339-6.495c.819-1.155.883-2.69.163-3.911Zm-15.098-4.49c.045-.031.179-.104.438-.104.089,0,.221.026.341.152l1.049,1.099c.923.967,2.613.967,3.536,0l1.048-1.099c.115-.121.317-.147.466-.148.062.002.232.046.368.138,1.4.957,3.494,3,5.208,5.877-2.158-.439-5.622-1.019-8.859-1.019s-6.681.57-8.84,1.003c1.674-2.741,3.831-4.933,5.244-5.9Zm3.596,11.896c-4.58,0-7.868-3.872-8.713-4.978,2.166.43,5.548.978,8.713.978s6.535-.544,8.701-.973c-.863,1.128-4.143,4.973-8.701,4.973Z"/></svg>
