<?xml version="1.0" encoding="UTF-8"?>
<svg xmlns="http://www.w3.org/2000/svg" id="Layer_1" data-name="Layer 1" viewBox="0 0 24 24" width="512" height="512"><path d="M.798,7.818L.011,1.518C-.041,1.104,.101,.69,.396,.396S1.1-.04,1.518,.011L7.818,.798c.675,.084,1.182,.658,1.182,1.339,0,3.079-3.784,6.862-6.862,6.862-.681,0-1.255-.507-1.339-1.182Zm20.202,4.182c-.405,0-.795,.09-1.156,.266-.745,.362-1.055,1.261-.692,2.005,.167,.344,.447,.594,.774,.729h-4.976c-.119-.566-.599-1-1.199-1h-2.083c-.919,0-1.667,.747-1.667,1.667v1.667c0,.919,.748,1.667,1.667,1.667h2.083c.601,0,1.08-.434,1.199-1h6.051c1.654,0,3-1.346,3-3s-1.346-3-3-3Zm-4.758-3.317c-.101,.154-.198,.242-.26,.285-.051-.047-.127-.132-.216-.271-.445-.699-1.373-.906-2.07-.463-.699,.444-.906,1.371-.463,2.07,.93,1.465,2.1,1.689,2.714,1.693h.015c1.067,0,2.111-.627,2.796-1.68,.451-.694,.254-1.624-.44-2.075-.695-.451-1.624-.255-2.075,.44Zm-8,0c-.113,.175-.224,.264-.282,.3-.755-.242-1.576,.143-1.861,.894-.295,.774,.093,1.641,.867,1.936,.323,.123,.655,.183,.987,.183,1.058,0,2.107-.604,2.805-1.677,.451-.694,.254-1.624-.44-2.075-.695-.451-1.624-.255-2.075,.44ZM12.43,3.01c3.67,.173,6.833,2.523,8.059,5.99,.218,.615,.796,1,1.414,1,.166,0,.335-.027,.5-.086,.781-.276,1.19-1.133,.914-1.914C21.683,3.378,17.465,.243,12.57,.014c-.861-.039-1.53,.601-1.568,1.428-.039,.827,.601,1.53,1.428,1.568Zm3.407,17.134c-1.203,.568-2.494,.856-3.837,.856-4.816,0-8.765-3.765-8.99-8.57-.039-.827-.728-1.466-1.568-1.428-.827,.038-1.467,.74-1.428,1.568,.3,6.409,5.565,11.43,11.986,11.43,1.789,0,3.512-.385,5.118-1.144,.749-.354,1.069-1.248,.716-1.997-.354-.749-1.249-1.069-1.997-.716Z"/></svg>
