<?xml version="1.0" encoding="UTF-8"?>
<svg xmlns="http://www.w3.org/2000/svg" id="Layer_1" data-name="Layer 1" viewBox="0 0 24 24" width="512" height="512"><path d="M22.5,22H1.5c-.83,0-1.5-.67-1.5-1.5s.67-1.5,1.5-1.5H22.5c.83,0,1.5,.67,1.5,1.5s-.67,1.5-1.5,1.5Zm1.5-18.5c0-.83-.67-1.5-1.5-1.5H1.5c-.83,0-1.5,.67-1.5,1.5s.67,1.5,1.5,1.5H22.5c.83,0,1.5-.67,1.5-1.5Zm-4,9.5v-2c0-2.21-1.79-4-4-4H8c-2.21,0-4,1.79-4,4v2c0,2.21,1.79,4,4,4h8c2.21,0,4-1.79,4-4Zm-4-3c.55,0,1,.45,1,1v2c0,.55-.45,1-1,1H8c-.55,0-1-.45-1-1v-2c0-.55,.45-1,1-1h8Z"/></svg>
