<?xml version="1.0" encoding="UTF-8"?>
<svg xmlns="http://www.w3.org/2000/svg" id="Layer_1" data-name="Layer 1" viewBox="0 0 24 24">
  <path d="m24,16c0-.678-.196-1.327-.556-1.884.037-.202.056-.408.056-.616,0-1.578-1.05-2.916-2.488-3.351-.255-.455-.603-.843-1.012-1.15v-.999C20,3.589,16.411,0,12,0S4,3.589,4,8v1.015c-.406.305-.758.682-1.012,1.134-1.438.435-2.488,1.773-2.488,3.351,0,.208.019.414.056.616-.36.557-.556,1.206-.556,1.884,0,.699.212,1.375.594,1.944-.062.262-.094.532-.094.806,0,1.578,1.05,2.916,2.488,3.351.649,1.155,1.875,1.899,3.262,1.899,2.068,0,3.75-1.683,3.75-3.75v-8.25c0-1.811-1.29-3.326-3-3.674v-.326c0-2.757,2.243-5,5-5s5,2.243,5,5v.326c-1.71.348-3,1.863-3,3.674v8.25c0,2.067,1.682,3.75,3.75,3.75,1.387,0,2.612-.744,3.262-1.899,1.438-.435,2.488-1.772,2.488-3.351,0-.273-.032-.544-.094-.806.382-.569.594-1.245.594-1.944Zm-17,4.25c0,.413-.336.75-.75.75-.346,0-.652-.246-.728-.585-.154-.688-.765-1.171-1.462-1.171-.034,0-.064,0-.105.004-.254-.023-.454-.238-.454-.498,0-.102.029-.196.086-.28.458-.675.292-1.592-.372-2.064-.064-.046-.214-.177-.214-.405,0-.197.121-.324.192-.382.564-.455.723-1.249.376-1.886-.046-.083-.068-.159-.068-.232,0-.261.2-.476.455-.498.024.002.047.003.067.004.709-.016,1.343-.473,1.5-1.171.076-.338.382-.584.728-.584.414,0,.75.336.75.75v8.25Zm13.786-3.845c-.665.473-.83,1.39-.372,2.064.057.084.086.179.086.28,0,.26-.2.475-.454.498-.011,0-.021-.002-.03-.002-.722-.028-1.377.457-1.538,1.169-.076.339-.383.585-.729.585-.414,0-.75-.337-.75-.75v-8.25c0-.414.336-.75.75-.75.346,0,.652.246.728.584.154.686.763,1.171,1.463,1.171.032,0,.064,0,.104-.004.254.022.455.237.455.498,0,.073-.022.149-.068.232-.347.637-.188,1.431.376,1.886.071.058.192.185.192.382,0,.229-.149.359-.214.405Z"/>
</svg>
