<?xml version="1.0" encoding="UTF-8"?>
<svg xmlns="http://www.w3.org/2000/svg" id="Layer_1" data-name="Layer 1" viewBox="0 0 24 24">
  <path d="m23.691,11.089l-5.299-6.93c-1.034-1.352-2.667-2.159-4.369-2.159H5C2.243,2,0,4.243,0,7v10c0,2.757,2.243,5,5,5h9.023c1.702,0,3.335-.807,4.369-2.159l5.299-6.93c.411-.538.411-1.285,0-1.822Zm-7.682,6.93c-.47.615-1.213.981-1.986.981H5c-1.103,0-2-.897-2-2V7c0-1.103.897-2,2-2h9.023c.773,0,1.517.367,1.986.981l4.602,6.019-4.602,6.019Zm-2.449-7.458l-1.439,1.439,1.439,1.439c.586.585.586,1.536,0,2.121-.293.293-.677.439-1.061.439s-.768-.146-1.061-.439l-1.439-1.439-1.439,1.439c-.293.293-.677.439-1.061.439s-.768-.146-1.061-.439c-.586-.585-.586-1.536,0-2.121l1.439-1.439-1.439-1.439c-.586-.585-.586-1.536,0-2.121.586-.586,1.535-.586,2.121,0l1.439,1.439,1.439-1.439c.586-.586,1.535-.586,2.121,0,.586.585.586,1.536,0,2.121Z"/>
</svg>
