<?xml version="1.0" encoding="UTF-8"?>
<svg xmlns="http://www.w3.org/2000/svg" id="Layer_1" data-name="Layer 1" viewBox="0 0 24 24" width="512" height="512"><path d="m12,0C5.383,0,0,5.383,0,12s5.383,12,12,12,12-5.383,12-12S18.617,0,12,0Zm9,12c0,1.941-.624,3.735-1.672,5.207l-2.207-2.207h.879c.552,0,1-.448,1-1v-2c0-.552-.448-1-1-1h-4.879l-6.328-6.328c1.472-1.049,3.266-1.672,5.207-1.672,4.962,0,9,4.037,9,9Zm-18,0c0-1.941.624-3.735,1.672-5.207l12.534,12.534c-1.472,1.049-3.266,1.672-5.207,1.672-4.962,0-9-4.037-9-9Zm9-6c0-.553.448-1,1-1,.546,0,.99.438,1,.981.031.061.187.207.498.307l1.616.52c1.163.373,1.886,1.214,1.886,2.192,0,.553-.448,1-1,1s-1-.447-1-1c-.017-.028-.172-.184-.498-.288l-1.616-.52c-1.163-.373-1.886-1.214-1.886-2.192Zm-5.95,5l4,4h-4.051c-.552,0-1-.448-1-1v-2c0-1,1.05-1,1.05-1Z"/></svg>
