<?xml version="1.0" encoding="UTF-8"?>
<svg xmlns="http://www.w3.org/2000/svg" id="Layer_1" data-name="Layer 1" viewBox="0 0 24 24" width="512" height="512"><path d="M24,12c0,6.617-5.383,12-12,12-2.847,0-5.607-1.015-7.773-2.857-.631-.537-.707-1.483-.17-2.115,.537-.629,1.483-.706,2.114-.17,1.623,1.382,3.693,2.143,5.829,2.143,4.962,0,9-4.037,9-9S16.962,3,12,3c-3.148,0-6.015,1.603-7.668,4.287-.435,.706-1.36,.926-2.064,.49-.706-.435-.925-1.358-.491-2.064C3.981,2.136,7.803,0,12,0c6.617,0,12,5.383,12,12Zm-6.274-3.038c.092,.025,.184,.038,.275,.038,.435,0,.835-.286,.961-.726,.152-.531-.156-1.084-.687-1.236-.965-.275-1.977-.941-2.46-1.619-.32-.448-.945-.555-1.395-.232-.449,.32-.554,.945-.233,1.395,.746,1.045,2.135,1.979,3.54,2.381Zm-9.54-3.543c-.484,.678-1.496,1.344-2.46,1.619-.531,.152-.839,.705-.687,1.236,.125,.439,.526,.726,.961,.726,.091,0,.183-.013,.275-.038,1.404-.401,2.793-1.336,3.54-2.381,.321-.449,.216-1.074-.233-1.395-.45-.321-1.074-.217-1.395,.232Zm-.186,4.581c-1.105,0-2,.895-2,2s.895,2,2,2,2-.895,2-2-.895-2-2-2Zm8,4c1.105,0,2-.895,2-2s-.895-2-2-2-2,.895-2,2,.895,2,2,2Zm-11,.5c0-1.403-1.184-3.372-1.922-4.235-.303-.355-.849-.353-1.151,.004-.738,.874-1.927,2.861-1.927,4.231,0,1.381,1.119,2.5,2.5,2.5s2.5-1.119,2.5-2.5Zm3.158,2.737c-.448,.786,.111,1.763,1.015,1.763h5.599c.904,0,1.462-.977,1.015-1.763-.671-1.178-2.232-2.235-3.814-2.237-1.582,.002-3.143,1.059-3.814,2.237Z"/></svg>
