<?xml version="1.0" encoding="UTF-8"?>
<svg xmlns="http://www.w3.org/2000/svg" id="Layer_1" data-name="Layer 1" viewBox="0 0 24 24" width="512" height="512"><path d="m22,8.157v10.343c0,3.033-2.468,5.5-5.5,5.5H7.5c-2.511,0-4.701-1.697-5.326-4.126-.207-.802.275-1.62,1.078-1.827.797-.208,1.62.276,1.826,1.079.284,1.104,1.28,1.874,2.422,1.874h9c1.379,0,2.5-1.122,2.5-2.5v-9.5h-4c-1.105,0-2-.895-2-2V3h-5.5c-1.379,0-2.5,1.122-2.5,2.5v4c0,.829-.672,1.5-1.5,1.5s-1.5-.671-1.5-1.5v-4C2,2.467,4.468,0,7.5,0h6.343c1.47,0,2.851.572,3.89,1.611l2.656,2.657c1.039,1.039,1.611,2.42,1.611,3.889Zm-14,9.407c0,.863,1.043,1.295,1.653.685l3.063-3.063c.378-.378.378-.991,0-1.369l-3.063-3.063c-.61-.61-1.653-.178-1.653.685v1.563H1.5c-.828,0-1.5.671-1.5,1.5s.672,1.5,1.5,1.5h6.5v1.563Z"/></svg>
