<?xml version="1.0" encoding="UTF-8"?>
<svg xmlns="http://www.w3.org/2000/svg" id="Layer_1" data-name="Layer 1" viewBox="0 0 24 24" width="512" height="512"><path d="M13,18.5c0,.829-.671,1.5-1.5,1.5H5.5c-3.033,0-5.5-2.467-5.5-5.5v-5c0-.829,.671-1.5,1.5-1.5s1.5,.671,1.5,1.5v5c0,1.378,1.122,2.5,2.5,2.5h6c.829,0,1.5,.671,1.5,1.5Zm8.647-2.5c-.288,.814-.741,1.574-1.318,2.208l3.232,3.232c.586,.585,.586,1.536,0,2.121-.293,.293-.677,.439-1.061,.439s-.768-.146-1.061-.439L.439,2.561C-.146,1.975-.146,1.025,.439,.439,1.025-.146,1.975-.146,2.561,.439l3.561,3.561h10.379c2.513,0,4.637,1.694,5.292,4h1.208c.552,0,1,.448,1,1v6c0,.552-.448,1-1,1h-1.353Zm-3.442,.083c.485-.58,.796-1.354,.796-2.083v-4.5c0-1.378-1.121-2.5-2.5-2.5h-7.379l9.083,9.083Z"/></svg>
