<?xml version="1.0" encoding="UTF-8"?>
<svg xmlns="http://www.w3.org/2000/svg" id="Layer_1" data-name="Layer 1" viewBox="0 0 24 24" width="512" height="512"><path d="M19.5,24h-3c-2.48,0-4.5-2.02-4.5-4.5v-1c0-.28-.22-.5-.5-.5h-3.5c-1.13,0-2.21-.48-2.97-1.32-.76-.84-1.13-1.96-1.01-3.09,.2-1.98,2.05-3.59,4.12-3.59h1.86c.29,0,.55-.12,.74-.33,.11-.12,.29-.39,.25-.78-.05-.49-.56-.89-1.14-.89H4c-1.13,0-2.21-.48-2.97-1.32C.28,5.85-.09,4.72,.02,3.59,.22,1.61,2.07,0,4.14,0h7.54c3.52,0,6.79,1.75,8.74,4.68l1.82,2.73c1.15,1.73,1.76,3.74,1.76,5.82v6.27c0,2.48-2.02,4.5-4.5,4.5ZM8.14,13c-.51,0-1.09,.46-1.14,.89-.04,.39,.14,.66,.25,.78,.19,.21,.46,.33,.74,.33h3.5c1.93,0,3.5,1.57,3.5,3.5v1c0,.83,.67,1.5,1.5,1.5h3c.83,0,1.5-.67,1.5-1.5v-6.27c0-1.49-.44-2.92-1.26-4.16l-1.82-2.73c-1.39-2.09-3.73-3.34-6.24-3.34H4.14c-.51,0-1.09,.46-1.14,.89-.04,.39,.14,.66,.25,.78,.19,.21,.46,.33,.74,.33h5.86c2.11,0,3.92,1.58,4.12,3.59,.11,1.13-.26,2.25-1.01,3.09s-1.84,1.32-2.97,1.32h-1.86Z"/></svg>
