<?xml version="1.0" encoding="UTF-8"?>
<svg xmlns="http://www.w3.org/2000/svg" id="Layer_1" data-name="Layer 1" viewBox="0 0 24 24" width="512" height="512"><path d="m17.5,11c-3.584,0-6.5,2.916-6.5,6.5s2.916,6.5,6.5,6.5,6.5-2.916,6.5-6.5-2.916-6.5-6.5-6.5Zm0,3c.412,0,.808.072,1.176.203l-4.472,4.472c-.132-.368-.203-.763-.203-1.176,0-1.93,1.57-3.5,3.5-3.5Zm0,7c-.412,0-.808-.072-1.176-.203l4.472-4.472c.132.368.203.763.203,1.176,0,1.93-1.57,3.5-3.5,3.5Zm-7.5-11.5v-3c0-1.93-1.57-3.5-3.5-3.5s-3.5,1.57-3.5,3.5v4h5.5c.829,0,1.5.672,1.5,1.5s-.671,1.5-1.5,1.5H3v4c0,1.93,1.57,3.5,3.5,3.5.487,0,.958-.098,1.399-.29.76-.333,1.644.015,1.975.773s-.015,1.644-.774,1.975c-.822.359-1.697.542-2.601.542-3.584,0-6.5-2.916-6.5-6.5V6.5C0,2.916,2.916,0,6.5,0s6.5,2.916,6.5,6.5v3c0,.828-.671,1.5-1.5,1.5s-1.5-.672-1.5-1.5Z"/></svg>
