<?xml version="1.0" encoding="UTF-8"?>
<svg xmlns="http://www.w3.org/2000/svg" id="Layer_1" data-name="Layer 1" viewBox="0 0 24 24" width="512" height="512"><path d="M15.5,0h-7C5.467,0,3,2.467,3,5.5v13c0,3.033,2.467,5.5,5.5,5.5h7c3.033,0,5.5-2.467,5.5-5.5V5.5c0-3.033-2.467-5.5-5.5-5.5Zm2.5,18.5c0,1.378-1.122,2.5-2.5,2.5h-.5v-3.086c.583-.206,1-.761,1-1.414,0-.829-.671-1.5-1.5-1.5h-5c-.829,0-1.5,.671-1.5,1.5,0,.653,.417,1.208,1,1.414v3.086h-.5c-1.378,0-2.5-1.122-2.5-2.5V5.5c0-1.378,1.122-2.5,2.5-2.5h7c1.378,0,2.5,1.122,2.5,2.5v13Zm-7-7.5v1c0,.552-.448,1-1,1h-1c-.552,0-1-.448-1-1v-1c0-.552,.448-1,1-1h1c.552,0,1,.448,1,1Zm5,0v1c0,.552-.448,1-1,1h-1c-.552,0-1-.448-1-1v-1c0-.552,.448-1,1-1h1c.552,0,1,.448,1,1Zm-5-5v1c0,.552-.448,1-1,1h-1c-.552,0-1-.448-1-1v-1c0-.552,.448-1,1-1h1c.552,0,1,.448,1,1Zm5,0v1c0,.552-.448,1-1,1h-1c-.552,0-1-.448-1-1v-1c0-.552,.448-1,1-1h1c.552,0,1,.448,1,1Z"/></svg>
