<?xml version="1.0" encoding="UTF-8"?>
<svg xmlns="http://www.w3.org/2000/svg" id="Layer_1" data-name="Layer 1" viewBox="0 0 24 24">
  <path d="m23.487,1.602l-1.088-1.088c-.604-.604-1.557-.685-2.254-.19l-1.15.899c-.636.497-1.045,1.23-1.134,2.032l-.095.859-1.886,1.886h-6.879C4.038,6,0,10.037,0,15c0,2.404.936,4.664,2.637,6.365,1.7,1.699,3.96,2.635,6.363,2.635,4.962,0,9-4.037,9-9v-6.879l1.886-1.886.859-.095c.802-.089,1.535-.498,2.032-1.134l.899-1.15c.495-.697.414-1.649-.19-2.254Zm-8.487,13.398c0,3.309-2.691,6-6,6-1.602,0-3.109-.624-4.243-1.757-1.133-1.134-1.757-2.641-1.757-4.243,0-3.309,2.691-6,6-6h3.879l-3.102,3.102c-.248-.066-.508-.102-.777-.102-1.657,0-3,1.343-3,3s1.343,3,3,3,3-1.343,3-3c0-.269-.036-.529-.102-.777l3.102-3.102v3.879Z"/>
</svg>
