<?xml version="1.0" encoding="UTF-8"?>
<svg xmlns="http://www.w3.org/2000/svg" id="Layer_1" data-name="Layer 1" viewBox="0 0 24 24" width="512" height="512"><path d="M16,9.5V1.5c0-.829,.672-1.5,1.5-1.5s1.5,.671,1.5,1.5V9.5c0,.829-.672,1.5-1.5,1.5s-1.5-.671-1.5-1.5Zm-3.5,1.5c.828,0,1.5-.671,1.5-1.5V1.5c0-.829-.672-1.5-1.5-1.5s-1.5,.671-1.5,1.5V9.5c0,.829,.672,1.5,1.5,1.5ZM22.5,2c-.828,0-1.5,.671-1.5,1.5v14c0,1.93-1.57,3.5-3.5,3.5h-6.155c-1.517,0-2.98-.635-4.016-1.742l-.45-.481c.058-.021,.115-.042,.173-.066,1.184-.491,1.948-1.635,1.948-2.917V3.5c0-.829-.672-1.5-1.5-1.5s-1.5,.671-1.5,1.5V15.794c0,.039,0,.104-.097,.145-.102,.041-.144-.006-.167-.029,0,0-2.483-2.492-2.562-2.545-.699-.478-1.815-.556-2.596,.225-.799,.799-.687,1.937-.164,2.646,.035,.047,4.722,5.071,4.722,5.071,1.602,1.711,3.864,2.693,6.208,2.693h6.155c3.584,0,6.5-2.916,6.5-6.5V3.5c0-.829-.672-1.5-1.5-1.5ZM12,14.5c0,.828,.672,1.5,1.5,1.5s1.5-.672,1.5-1.5-.672-1.5-1.5-1.5-1.5,.672-1.5,1.5Zm5,0c0,.828,.672,1.5,1.5,1.5s1.5-.672,1.5-1.5-.672-1.5-1.5-1.5-1.5,.672-1.5,1.5Zm-.5,5.5c.828,0,1.5-.672,1.5-1.5s-.672-1.5-1.5-1.5-1.5,.672-1.5,1.5,.672,1.5,1.5,1.5Zm-5,0c.828,0,1.5-.672,1.5-1.5s-.672-1.5-1.5-1.5-1.5,.672-1.5,1.5,.672,1.5,1.5,1.5Z"/></svg>
