<?xml version="1.0" encoding="UTF-8"?>
<svg xmlns="http://www.w3.org/2000/svg" id="Layer_1" data-name="Layer 1" viewBox="0 0 24 24" width="512" height="512"><path d="M10.49,24c-.25,0-.51-.03-.76-.08C4,22.67,0,17.77,0,12S4,1.33,9.73,.08c1.05-.23,2.13,.03,2.97,.7,.83,.67,1.3,1.66,1.3,2.72V20.5c0,1.06-.47,2.05-1.3,2.72-.63,.51-1.41,.78-2.21,.78Zm0-21s-.08,0-.12,.01C6.03,3.96,3,7.65,3,12s3.03,8.04,7.37,8.99c.22,.05,.38-.04,.45-.1,.08-.07,.18-.19,.18-.39V3.5c0-.2-.1-.32-.18-.39-.06-.05-.17-.12-.33-.12Z"/></svg>
