<?xml version="1.0" encoding="UTF-8"?>
<svg xmlns="http://www.w3.org/2000/svg" id="Layer_1" data-name="Layer 1" viewBox="0 0 24 24" width="512" height="512"><path d="M17.765,18.192c.294,.294,.307,.747,.066,1.071-.003,.029-3.426,3.47-3.426,3.47-.845,.845-1.954,1.267-3.064,1.267-1.43,0-2.858-.701-3.722-2.102-.425-.69-.612-1.505-.612-2.316v-3.58c0-.552,.448-1,1-1s1,.448,1,1v1.119l4.377-4.377c.323-.323,.847-.323,1.171,0s.323,.847,0,1.171l-3.024,3.024,1.002,1.002,3.697-3.697c.323-.323,.847-.323,1.171,0,.323,.323,.323,.847,0,1.171l-3.631,3.631,.985,.985,1.84-1.84c.323-.323,.847-.323,1.171,0ZM12,0C5.383,0,0,5.383,0,12c0,2.552,.791,4.988,2.287,7.048,.293,.404,.75,.618,1.215,.618,.305,0,.614-.093,.88-.286,.67-.487,.819-1.425,.332-2.096-1.121-1.543-1.713-3.37-1.713-5.284C3,7.037,7.038,3,12,3s9,4.037,9,9c0,1.497-.375,2.979-1.083,4.284-.395,.729-.125,1.639,.603,2.034,.727,.395,1.638,.125,2.034-.603,.946-1.744,1.446-3.72,1.446-5.716C24,5.383,18.617,0,12,0ZM7.968,10.807c.01-.046,.02-.09,.032-.134,.012,.044,.022,.088,.032,.134,.148,.708,.771,1.193,1.467,1.193,.102,0,.205-.01,.308-.031,.811-.17,1.331-.965,1.162-1.775-.321-1.538-1.387-3.193-2.968-3.193s-2.647,1.655-2.968,3.193c-.169,.811,.351,1.605,1.162,1.775,.81,.166,1.605-.351,1.775-1.162Zm8.032-3.807c-1.581,0-2.647,1.655-2.968,3.193-.169,.811,.351,1.605,1.162,1.775,.81,.166,1.605-.351,1.775-1.162,.01-.046,.02-.09,.032-.134,.012,.044,.022,.088,.032,.134,.148,.708,.771,1.193,1.467,1.193,.102,0,.205-.01,.308-.031,.811-.17,1.331-.965,1.162-1.775-.321-1.538-1.387-3.193-2.968-3.193Z"/></svg>
