<?xml version="1.0" encoding="UTF-8"?>
<svg xmlns="http://www.w3.org/2000/svg" id="Layer_1" data-name="Layer 1" viewBox="0 0 24 24" width="512" height="512"><path d="m16.492,15.371c.311-.657.5-1.383.5-2.158v-2.426c0-2.777-2.239-5.037-4.992-5.037s-5.008,2.26-5.008,5.037v2.426c0,2.777,2.246,5.037,5.008,5.037.896,0,1.725-.258,2.452-.677l.237.237c.293.293.677.439,1.061.439s.768-.146,1.061-.439c.586-.586.586-1.535,0-2.121l-.319-.319Zm-4.492-.121c-1.126,0-2.008-.895-2.008-2.037v-2.426c0-1.143.882-2.037,2.008-2.037,1.117,0,1.992.895,1.992,2.037v2.084l-.182-.182c-.586-.586-1.535-.586-2.121,0s-.586,1.535,0,2.121l.428.428c-.04.002-.077.012-.117.012Zm0-15.25C5.383,0,0,5.383,0,12s5.383,12,12,12,12-5.383,12-12S18.617,0,12,0Zm0,21c-4.963,0-9-4.037-9-9S7.037,3,12,3s9,4.037,9,9-4.037,9-9,9Z"/></svg>
