<?xml version="1.0" encoding="UTF-8"?>
<svg xmlns="http://www.w3.org/2000/svg" id="Layer_1" data-name="Layer 1" viewBox="0 0 24 24" width="512" height="512"><path d="M12.01,23.67c-.59,0-1.2-.21-1.67-.64l-3.6-3.03h-1.24c-3.03,0-5.5-2.47-5.5-5.5V5.5C0,2.47,2.47,0,5.5,0h13C21.53,0,24,2.47,24,5.5V14.5c0,3.03-2.47,5.5-5.5,5.5h-1.17l-3.71,3.07c-.45,.4-1.02,.6-1.61,.6Zm-.32-2.9s-.02,.02-.03,.02l.03-.02Zm.59-.02h.02s-.01,0-.02,0ZM5.5,3c-1.38,0-2.5,1.12-2.5,2.5V14.5c0,1.38,1.12,2.5,2.5,2.5h1.79c.35,0,.7,.12,.97,.35l3.75,3.16,3.83-3.17c.27-.22,.61-.34,.96-.34h1.71c1.38,0,2.5-1.12,2.5-2.5V5.5c0-1.38-1.12-2.5-2.5-2.5H5.5Zm3,3c-.83,0-1.5,.67-1.5,1.5s.67,1.5,1.5,1.5,1.5-.67,1.5-1.5-.67-1.5-1.5-1.5Zm7,0c-.83,0-1.5,.67-1.5,1.5s.67,1.5,1.5,1.5,1.5-.67,1.5-1.5-.67-1.5-1.5-1.5Zm1.56,7.06c.58-.58,.59-1.51,.02-2.1-.57-.59-1.52-.6-2.12-.04-.05,.04-1.16,1.08-2.96,1.08s-2.91-1.03-2.94-1.07c-.59-.58-1.54-.58-2.12,.01-.58,.59-.58,1.54,.01,2.12,.2,.2,2.04,1.93,5.06,1.93s4.86-1.74,5.06-1.93Z"/></svg>
