<?xml version="1.0" encoding="UTF-8"?>
<svg xmlns="http://www.w3.org/2000/svg" id="Layer_1" data-name="Layer 1" viewBox="0 0 24 24" width="512" height="512"><path d="M23.56,21.44l-1.56-1.56s0-7.49,0-7.54c.63-.77,1.01-1.76,1.01-2.84,0-.13-.02-.26-.05-.39l-1.15-4.23c-.71-2.32-2.83-3.88-5.26-3.88H7.45c-1.19,0-2.33,.38-3.26,1.07L2.56,.44C1.97-.15,1.03-.15,.44,.44-.15,1.02-.15,1.98,.44,2.56L21.44,23.56c.29,.29,.68,.44,1.06,.44s.77-.15,1.06-.44c.59-.59,.59-1.54,0-2.12Zm-4.56-4.56l-3.22-3.22c.53,.22,1.11,.34,1.72,.34h1c.17,0,.34,0,.5-.03v2.91ZM7.45,4h.55v.5c0,.83,.67,1.5,1.5,1.5s1.5-.67,1.5-1.5v-.5h2v.5c0,.83,.67,1.5,1.5,1.5s1.5-.67,1.5-1.5v-.5h.55c1.1,0,2.06,.71,2.38,1.72l1.07,3.95c-.08,.75-.72,1.33-1.49,1.33h-1c-.83,0-1.5-.67-1.5-1.5s-.67-1.5-1.5-1.5-1.5,.67-1.5,1.5c0,.37-.14,.73-.38,1L6.37,4.25c.33-.16,.7-.25,1.09-.25Zm6.11,14.44c.28,.28,.44,.66,.44,1.06,0,1.93-1.57,3.5-3.5,3.5H5.5c-1.93,0-3.5-1.57-3.5-3.5,0,0,0-7.11,0-7.16-.63-.77-1.01-1.76-1.01-2.84,0-.83,.67-1.5,1.5-1.5s1.5,.67,1.5,1.5,.67,1.5,1.5,1.5,1.5,.67,1.5,1.5-.67,1.5-1.5,1.5c-.17,0-.34,0-.5-.03v3.03h6.5c.4,0,.78,.16,1.06,.44l1,1Z"/></svg>
