<?xml version="1.0" encoding="UTF-8"?>
<svg xmlns="http://www.w3.org/2000/svg" id="Layer_1" data-name="Layer 1" viewBox="0 0 24 24" width="512" height="512"><path d="m20.697,17.479c-.621-1.517-2.025-2.467-3.675-2.479h-3.521v-2h2c.829,0,1.5-.672,1.5-1.5s-.671-1.5-1.5-1.5h-2v-2h4c.829,0,1.5-.672,1.5-1.5s-.671-1.5-1.5-1.5h-4v-2h5c.829,0,1.5-.672,1.5-1.5s-.671-1.5-1.5-1.5H5.5c-.829,0-1.5.672-1.5,1.5s.671,1.5,1.5,1.5h5v2h-4c-.829,0-1.5.672-1.5,1.5s.671,1.5,1.5,1.5h4v2h-2c-.829,0-1.5.672-1.5,1.5s.671,1.5,1.5,1.5h2v2h-3.533c-1.639.013-3.042.963-3.664,2.479-.622,1.517-.288,3.179.872,4.338l.571.571c1.04,1.039,2.421,1.611,3.889,1.611h6.729c1.468,0,2.85-.572,3.889-1.611l.572-.571c1.159-1.159,1.493-2.821.871-4.338Zm-2.993,2.217l-.571.571c-.473.472-1.101.732-1.768.732h-6.729c-.667,0-1.295-.261-1.768-.732l-.571-.571c-.422-.422-.292-.896-.217-1.08.075-.184.315-.611.899-.616h.021c.487,0,.939.351,1.03.798.145.712.77,1.202,1.469,1.202.099,0,.199-.01.299-.03.812-.164,1.337-.956,1.172-1.768-.014-.068-.03-.135-.047-.202h2.154c-.017.067-.033.134-.047.202-.165.812.36,1.604,1.172,1.768.101.021.201.03.299.03.699,0,1.324-.49,1.469-1.202.091-.447.543-.798,1.03-.798h.01c.596.005.836.433.911.616.075.185.205.658-.217,1.08Z"/></svg>
