<?xml version="1.0" encoding="UTF-8"?>
<svg xmlns="http://www.w3.org/2000/svg" id="Layer_1" data-name="Layer 1" viewBox="0 0 24 24" width="512" height="512"><path d="M23.973,11.664c-.16-.983-1.083-1.664-2.08-1.664l-6.961,.015-.968-5.015h2.035v.5c0,.828,.671,1.5,1.5,1.5s1.5-.672,1.5-1.5V1.5c0-.828-.671-1.5-1.5-1.5s-1.5,.672-1.5,1.5v.5h-2.614l-.043-.224c-.199-1.031-1.101-1.776-2.152-1.776-1.146,0-2.085,.879-2.182,2h-1.009c-.829,0-1.5,.672-1.5,1.5s.671,1.5,1.5,1.5h1v5H4l-1.599-2.414c-.243-.366-.653-.586-1.092-.586-.723,0-1.31,.586-1.31,1.31v7.381c0,.723,.586,1.31,1.31,1.31h.015c.441,0,.853-.222,1.095-.591l1.581-2.409h5v5h-1.5c-.829,0-1.5,.672-1.5,1.5s.671,1.5,1.5,1.5h1.51c.103,1.121,1.045,2,2.193,2,1.058,0,1.966-.752,2.164-1.79l.04-.21h2.593v.5c0,.828,.671,1.5,1.5,1.5s1.5-.672,1.5-1.5v-4c0-.828-.671-1.5-1.5-1.5s-1.5,.672-1.5,1.5v.5h-2.021l.953-5,7.068-.015c1.215,0,2.176-1.068,1.973-2.321Z"/></svg>
