<?xml version="1.0" encoding="UTF-8"?>
<svg xmlns="http://www.w3.org/2000/svg" id="Layer_1" data-name="Layer 1" viewBox="0 0 24 24" width="512" height="512"><path d="m12,14c3.309,0,6-2.691,6-6V3.5c0-1.93-1.57-3.5-3.5-3.5h-5c-1.93,0-3.5,1.57-3.5,3.5v4.5c0,3.309,2.691,6,6,6Zm0-3c-1.654,0-3-1.346-3-3h6c0,1.654-1.346,3-3,3Zm-2-8h1v-1c0-.552.448-1,1-1s1,.448,1,1v1h1c.552,0,1,.448,1,1s-.448,1-1,1h-1v1c0,.552-.448,1-1,1s-1-.448-1-1v-1h-1c-.552,0-1-.448-1-1s.448-1,1-1Zm11,19.5c0,.828-.672,1.5-1.5,1.5s-1.5-.672-1.5-1.5c0-1.4-.499-2.548-1.525-3.51l-3.397,3.554c-.284.295-.646.474-1.09.456-.41-.004-.801-.175-1.082-.475l-3.272-3.491c-1.1.973-1.633,2.123-1.633,3.466,0,.828-.672,1.5-1.5,1.5s-1.5-.672-1.5-1.5c0-2.189.869-4.11,2.582-5.709.584-.546,1.352-.839,2.155-.787.807.037,1.577.405,2.112,1.01l2.168,2.312,2.284-2.356c.491-.556,1.262-.923,2.069-.96.8-.031,1.57.244,2.154.791,1.642,1.538,2.475,3.456,2.475,5.699Z"/></svg>
