<?xml version="1.0" encoding="UTF-8"?>
<svg xmlns="http://www.w3.org/2000/svg" id="Layer_1" data-name="Layer 1" viewBox="0 0 24 24" width="512" height="512"><path d="m21,18c-.367,0-.719.066-1.044.187l-2.755-2.565,3.889-3.622h1.41c.828,0,1.5-.672,1.5-1.5s-.672-1.5-1.5-1.5h-12.696c-1.21,0-2.354-.642-2.985-1.675L2.78.718C2.347.011,1.425-.21.718.22.011.652-.212,1.575.22,2.282l4.038,6.607c1.001,1.638,2.697,2.746,4.57,3.035l3.97,3.697-2.755,2.566c-.325-.121-.677-.188-1.044-.188-1.654,0-3,1.346-3,3s1.346,3,3,3,3-1.346,3-3c0-.169-.015-.334-.042-.496l3.042-2.833,3.042,2.832c-.027.161-.042.327-.042.496,0,1.657,1.343,3,3,3s3-1.343,3-3-1.343-3-3-3Zm-7.688-6h3.376l-1.688,1.572-1.688-1.572Z"/></svg>
