<?xml version="1.0" encoding="UTF-8"?>
<svg xmlns="http://www.w3.org/2000/svg" id="Layer_1" data-name="Layer 1" viewBox="0 0 24 24" width="512" height="512"><path d="M13.74,23H5.39c-2.36,0-4.28-1.92-4.28-4.28V10.36c0-1.36,.81-2.57,2.06-3.1,1.25-.52,2.69-.24,3.65,.71l1.07,1.07L14.91,2.02c1.36-1.37,3.58-1.37,4.95,0l2.12,2.12c.66,.66,1.02,1.54,1.02,2.47s-.36,1.82-1.02,2.47l-7.02,7.02,1.16,1.16c.96,.97,1.24,2.4,.72,3.66-.52,1.25-1.74,2.06-3.1,2.06ZM4.47,10s-.1,.01-.15,.03c-.15,.06-.22,.17-.22,.33v8.36c0,.71,.58,1.28,1.29,1.28H13.74c.16,0,.27-.07,.33-.21,.06-.14,.04-.27-.08-.39l-2.22-2.22c-.59-.59-.59-1.54,0-2.12L19.86,6.97s0,0,0,0c.12-.12,.14-.27,.14-.35s-.02-.23-.14-.35l-2.12-2.12c-.2-.2-.51-.2-.71,0L8.95,12.22c-.59,.59-1.54,.59-2.12,0l-2.12-2.12c-.07-.07-.15-.1-.23-.1Z"/></svg>
