<?xml version="1.0" encoding="UTF-8"?>
<svg xmlns="http://www.w3.org/2000/svg" id="Layer_1" data-name="Layer 1" viewBox="0 0 24 24" width="512" height="512"><path d="m21.347,16.244c-.336-2.126-.977-3.945-1.593-5.321,2.398-.367,4.246-2.425,4.246-4.924,0-2.757-2.243-5-5-5-.258,0-.507.038-.755.076-1.408-.701-2.834-1.076-4.245-1.076C10.651,0,3.96,3.478,2.124,16.489c-1.257.675-2.124,1.987-2.124,3.511,0,1.068.416,2.073,1.172,2.829.755.755,1.759,1.171,2.827,1.171h16.002c2.205-.002,3.999-1.797,3.999-4.001,0-1.068-.416-2.073-1.172-2.829-.424-.425-.932-.729-1.481-.925Zm-.347-10.244c0,1.103-.897,2-2,2s-2-.897-2-2,.897-2,2-2,2,.897,2,2Zm-7-3c.313,0,.631.036.95.091-.592.821-.95,1.821-.95,2.909,0,1.484.663,2.805,1.694,3.722.027.049.05.1.084.147.02.028,1.742,2.498,2.48,6.129H5.239C6.991,5.404,12.088,3,14,3Zm6,17.998H3.999c-.267.001-.518-.103-.706-.291-.188-.189-.293-.44-.293-.708,0-.551.449-1,1-1h16s0-.001,0-.001c.267,0,.518.104.706.292.188.189.293.44.293.708,0,.551-.449,1-1,1Z"/></svg>
