<?xml version="1.0" encoding="UTF-8"?>
<svg xmlns="http://www.w3.org/2000/svg" id="Layer_1" data-name="Layer 1" viewBox="0 0 24 24" width="512" height="512"><path d="m14.5,24c-.095,0-.189-.009-.284-.027-2.877-.555-5.765-2.276-7.573-4.473h-1.143c-3.032,0-5.5-2.467-5.5-5.5v-3.5c0-3.033,2.468-5.5,5.5-5.5h.771C8.09,2.539,11.118.625,14.216.027c.44-.088.894.031,1.239.316.345.285.545.709.545,1.157v21c0,.448-.2.872-.545,1.157-.271.224-.609.343-.955.343ZM5.5,8c-1.379,0-2.5,1.122-2.5,2.5v3.5c0,1.378,1.121,2.5,2.5,2.5h1.885c.49,0,.949.239,1.229.641.978,1.398,2.618,2.627,4.386,3.348V3.511c-1.919.786-3.671,2.178-4.658,3.777-.273.442-.757.712-1.276.712h-1.565Z"/></svg>
