<?xml version="1.0" encoding="UTF-8"?>
<svg xmlns="http://www.w3.org/2000/svg" id="Layer_1" data-name="Layer 1" viewBox="0 0 24 24" width="512" height="512"><path d="M12,0C5.383,0,0,5.383,0,12s5.383,12,12,12,12-5.383,12-12S18.617,0,12,0Zm0,21c-4.962,0-9-4.037-9-9S7.038,3,12,3s9,4.037,9,9-4.038,9-9,9Zm7.061-10.061c.586,.586,.586,1.535,0,2.121-.293,.293-.677,.439-1.061,.439s-.768-.146-1.061-.439l-.939-.939-.939,.939c-.293,.293-.677,.439-1.061,.439s-.768-.146-1.061-.439c-.586-.586-.586-1.535,0-2.121l.939-.939-.939-.939c-.586-.586-.586-1.535,0-2.121s1.535-.586,2.121,0l.939,.939,.939-.939c.586-.586,1.535-.586,2.121,0s.586,1.535,0,2.121l-.939,.939,.939,.939Zm-10.121,2.121l-.939-.939-.939,.939c-.293,.293-.677,.439-1.061,.439s-.768-.146-1.061-.439c-.586-.586-.586-1.535,0-2.121l.939-.939-.939-.939c-.586-.586-.586-1.535,0-2.121s1.535-.586,2.121,0l.939,.939,.939-.939c.586-.586,1.535-.586,2.121,0s.586,1.535,0,2.121l-.939,.939,.939,.939c.586,.586,.586,1.535,0,2.121-.293,.293-.677,.439-1.061,.439s-.768-.146-1.061-.439Zm6.025,4.164c.13,.382-.173,.775-.576,.775-1.151,0-3.63,0-4.788,0-.405,0-.707-.397-.573-.78,.375-1.072,1.532-2.22,2.972-2.22s2.6,1.15,2.965,2.224Z"/></svg>
