<?xml version="1.0" encoding="UTF-8"?>
<svg xmlns="http://www.w3.org/2000/svg" id="Layer_1" data-name="Layer 1" viewBox="0 0 24 24" width="512" height="512"><path d="m13.5,9v6h1c.828,0,1.5.672,1.5,1.5s-.672,1.5-1.5,1.5h-5c-.829,0-1.5-.672-1.5-1.5s.671-1.5,1.5-1.5h1v-6h-1c-.829,0-1.5-.671-1.5-1.5s.671-1.5,1.5-1.5h5c.828,0,1.5.671,1.5,1.5s-.672,1.5-1.5,1.5h-1Zm10.5,3c0,6.617-5.383,12-12,12S0,18.617,0,12,5.383,0,12,0s12,5.383,12,12Zm-3,0c0-4.962-4.037-9-9-9S3,7.038,3,12s4.038,9,9,9,9-4.037,9-9Z"/></svg>
