<?xml version="1.0" encoding="UTF-8"?>
<svg xmlns="http://www.w3.org/2000/svg" id="Layer_1" data-name="Layer 1" viewBox="0 0 24 24" width="512" height="512"><path d="m17,15c0,1.105-.895,2-2,2v-4c1.105,0,2,.895,2,2Zm5-6.843v10.343c0,3.033-2.468,5.5-5.5,5.5H7.5c-3.032,0-5.5-2.467-5.5-5.5V5.5C2,2.467,4.468,0,7.5,0h6.343c1.47,0,2.851.572,3.89,1.611l2.656,2.657c1.039,1.039,1.611,2.42,1.611,3.889Zm-3,10.343v-9.5h-4c-1.105,0-2-.895-2-2V3h-5.5c-1.379,0-2.5,1.122-2.5,2.5v13c0,1.378,1.121,2.5,2.5,2.5h9c1.379,0,2.5-1.122,2.5-2.5Zm-7-7.5c-.929.231-2.886,2-2.886,2h-.614c-.828,0-1.5.672-1.5,1.5v.936c0,.828.672,1.5,1.5,1.5h.614s1.956,1.769,2.886,2,1-.5,1-1v-5.936c0-.5-.071-1.231-1-1Z"/></svg>
