<?xml version="1.0" encoding="UTF-8"?>
<svg xmlns="http://www.w3.org/2000/svg" id="Layer_1" data-name="Layer 1" viewBox="0 0 24 24" width="512" height="512"><path d="M20.39,4.27l-2.66-2.66c-1.04-1.04-2.42-1.61-3.89-1.61H7.5C4.47,0,2,2.47,2,5.5v13c0,3.03,2.47,5.5,5.5,5.5h9c3.03,0,5.5-2.47,5.5-5.5V8.16c0-1.47-.57-2.85-1.61-3.89Zm-5.17,16.09c.35,.42,.3,1.05-.13,1.41-.19,.16-.41,.23-.64,.23-.29,0-.57-.12-.77-.36l-1.73-2.08-1.73,2.08c-.2,.24-.48,.36-.77,.36-.23,0-.45-.08-.64-.23-.42-.35-.48-.98-.13-1.41l1.97-2.36-1.97-2.36c-.35-.42-.3-1.05,.13-1.41,.43-.35,1.06-.3,1.41,.13l1.73,2.08,1.73-2.08c.35-.42,.98-.48,1.41-.13,.42,.35,.48,.98,.13,1.41l-1.97,2.36,1.97,2.36ZM5,12V5.5c0-1.38,1.12-2.5,2.5-2.5h5.5V7c0,1.1,.9,2,2,2h4v3H5Z"/></svg>
