<?xml version="1.0" encoding="UTF-8"?>
<svg xmlns="http://www.w3.org/2000/svg" id="Layer_1" data-name="Layer 1" viewBox="0 0 24 24" width="512" height="512"><path d="M20.19,15.4c-.74-.38-1.64-.09-2.02,.64-.75,1.45-2.23,2.5-3.88,2.84l3.71-11.14c.05,.09,.11,.19,.16,.29,.37,.74,1.27,1.05,2.01,.67,.74-.37,1.04-1.27,.68-2.01-.44-.88-1.02-1.66-1.72-2.32l.8-2.4c.26-.79-.16-1.64-.95-1.9-.78-.26-1.63,.16-1.9,.95l-.55,1.65c-.53-.22-1.09-.4-1.67-.51l.06-.19c.26-.79-.16-1.64-.95-1.9-.78-.26-1.64,.16-1.9,.95l-.32,.97h-.3C6.79,2,3,5.79,3,10.45v3.09c0,2.49,1.09,4.74,2.81,6.29l-.73,2.19c-.26,.79,.16,1.64,.95,1.9,.16,.05,.32,.08,.47,.08,.63,0,1.21-.4,1.42-1.03l.51-1.53c.54,.21,1.1,.36,1.69,.45l-.04,.13c-.26,.79,.16,1.64,.95,1.9,.16,.05,.32,.08,.47,.08,.63,0,1.21-.4,1.42-1.03l.33-.98c3.19-.03,6.16-1.82,7.58-4.58,.38-.74,.09-1.64-.64-2.02Zm-14.19-1.86v-3.09c0-2.76,2.07-5.05,4.74-5.41l-3.83,11.5c-.57-.86-.9-1.89-.9-3Zm3.38,5.05L13.9,5.05c.59,.08,1.15,.24,1.68,.49l-4.48,13.45c-.6-.04-1.17-.18-1.71-.4Z"/></svg>
