<?xml version="1.0" encoding="UTF-8"?>
<svg xmlns="http://www.w3.org/2000/svg" id="Layer_1" data-name="Layer 1" viewBox="0 0 24 24" width="512" height="512"><path d="m12.058,17.026l4.451,4.451c-.946,1.478-2.555,2.524-4.405,2.524-2.413,0-4.426-1.773-5.077-3.974h-.525c-1.677,0-3.241-.75-4.291-2.059-1.049-1.308-1.442-2.997-1.079-4.634l1.44-5.794,2.475,2.475-.986,3.969c-.166.744.013,1.512.49,2.106.477.595,1.188.936,1.95.936h5.557Zm11.502,6.535c-.293.293-.677.439-1.061.439s-.768-.146-1.061-.439L.439,2.561C-.146,1.975-.146,1.025.439.439,1.025-.146,1.975-.146,2.561.439l2.451,2.451c1.727-1.803,4.15-2.891,6.815-2.891,4.226,0,7.968,2.844,9.099,6.916l1.871,6.138c.464,1.67.128,3.42-.92,4.8-.277.364-.592.685-.938.962l2.623,2.623c.586.585.586,1.536,0,2.121ZM7.144,5.023l11.645,11.645c.266-.161.503-.373.698-.63.477-.627.629-1.422.418-2.182l-1.871-6.138c-.771-2.778-3.325-4.719-6.208-4.719-1.84,0-3.506.764-4.683,2.023Z"/></svg>
