<?xml version="1.0" encoding="UTF-8"?>
<svg xmlns="http://www.w3.org/2000/svg" id="Layer_1" data-name="Layer 1" viewBox="0 0 24 24" width="512" height="512"><path d="m12,0C5.383,0,0,5.383,0,12s5.383,12,12,12,12-5.383,12-12S18.617,0,12,0Zm0,21c-4.963,0-9-4.037-9-9S7.037,3,12,3s9,4.037,9,9-4.037,9-9,9Zm5-6.47c0,1.913-1.557,3.47-3.47,3.47h-2.53c-.95,0-2.927,0-3.842-1.829-.37-.741-.07-1.642.671-2.013.743-.369,1.642-.069,2.013.671.085.171.837.171,1.158.171h2.53c.259,0,.47-.211.47-.47,0-.208-.14-.394-.34-.451l-4.173-1.287c-1.451-.412-2.487-1.783-2.487-3.325,0-1.911,1.556-3.467,3.467-3.467h2.533c.95,0,2.927,0,3.842,1.829.37.741.07,1.642-.671,2.013-.74.369-1.642.07-2.013-.671-.085-.171-.837-.171-1.158-.171h-2.533c-.258,0-.467.209-.467.467,0,.207.14.392.34.448l4.178,1.289c1.45.418,2.482,1.789,2.482,3.326Z"/></svg>
