<?xml version="1.0" encoding="UTF-8"?>
<svg xmlns="http://www.w3.org/2000/svg" id="Layer_1" data-name="Layer 1" viewBox="0 0 24 24" width="512" height="512"><path d="m16.5,0H7.5C4.467,0,2,2.467,2,5.5v9c0,2.571,1.775,4.729,4.162,5.329-.46.595-.828,1.26-1.075,1.979-.37,1.079.481,2.192,1.663,2.192h10.5c1.181,0,2.033-1.113,1.663-2.192-.246-.719-.615-1.384-1.075-1.979,2.387-.6,4.162-2.758,4.162-5.329V5.5c0-3.033-2.467-5.5-5.5-5.5Zm2.5,14.5c0,1.378-1.122,2.5-2.5,2.5H7.5c-1.378,0-2.5-1.122-2.5-2.5V5.5c0-1.378,1.122-2.5,2.5-2.5h9c1.378,0,2.5,1.122,2.5,2.5v9Zm-7-9.5c-2.757,0-5,2.243-5,5s2.243,5,5,5,5-2.243,5-5-2.243-5-5-5Zm0,7c-1.103,0-2-.897-2-2s.897-2,2-2,2,.897,2,2-.897,2-2,2Z"/></svg>
