<?xml version="1.0" encoding="UTF-8"?>
<svg xmlns="http://www.w3.org/2000/svg" id="Layer_1" data-name="Layer 1" viewBox="0 0 24 24" width="512" height="512"><path d="M5.44,12.44l-3.36,3.35c-.45,.45-1.21,.01-1.05-.61l1.43-5.38c.33-1.1,1.26-1.91,2.4-2.09l3.88-.62,4.18,4.18-.62,3.87c-.18,1.14-1,2.07-2.1,2.4l-5.39,1.41c-.62,.16-1.06-.6-.6-1.05l3.36-3.34c.59-.59,.59-1.54,0-2.12-.59-.59-1.54-.59-2.12,0Zm13.78-7.9c1.04-1.04,1.04-2.72,0-3.76s-2.72-1.04-3.76,0l-4.39,4.39,3.76,3.76,4.39-4.39Zm.78,11.46h-1c-.55,0-1-.45-1-1s.45-1,1-1h3.5c.83,0,1.5-.67,1.5-1.5s-.67-1.5-1.5-1.5h-3.5c-2.21,0-4,1.79-4,4s1.79,4,4,4h1c.55,0,1,.45,1,1s-.45,1-1,1H1.5c-.83,0-1.5,.67-1.5,1.5s.67,1.5,1.5,1.5H20c2.21,0,4-1.79,4-4s-1.79-4-4-4Z"/></svg>
