<?xml version="1.0" encoding="UTF-8"?>
<svg xmlns="http://www.w3.org/2000/svg" id="Layer_1" data-name="Layer 1" viewBox="0 0 24 24" width="512" height="512"><path d="M12,0C5.383,0,0,5.383,0,12s5.383,12,12,12,12-5.383,12-12S18.617,0,12,0Zm0,21c-4.962,0-9-4.037-9-9S7.038,3,12,3s9,4.037,9,9-4.038,9-9,9Zm5-5.5c0,.828-.671,1.5-1.5,1.5h-7c-.829,0-1.5-.672-1.5-1.5s.671-1.5,1.5-1.5h7c.829,0,1.5,.672,1.5,1.5Zm1-5.5c0,1.105-.895,2-2,2s-2-.895-2-2,.895-2,2-2,2,.895,2,2Zm-10,2c-1.105,0-2-.895-2-2s.895-2,2-2,2,.895,2,2-.895,2-2,2Zm-2-6c0-.553,.448-1,1-1h3c.552,0,1,.447,1,1s-.448,1-1,1h-3c-.552,0-1-.447-1-1Zm12.556,1.064c-.311,.455-.935,.573-1.39,.261-.008-.004-.525-.325-1.436-.325-1.112,0-2.094,.771-2.104,.779-.184,.146-.405,.218-.624,.218-.293,0-.583-.127-.78-.372-.345-.429-.28-1.054,.147-1.401,.154-.125,1.559-1.224,3.361-1.224,1.534,0,2.464,.605,2.564,.675,.456,.312,.573,.934,.261,1.39Z"/></svg>
