<?xml version="1.0" encoding="UTF-8"?>
<svg xmlns="http://www.w3.org/2000/svg" id="Layer_1" data-name="Layer 1" viewBox="0 0 24 24" width="512" height="512"><circle cx="11.5" cy="6.5" r="1.5"/><circle cx="12.5" cy="17.5" r="1.5"/><path d="M12,0C5.38,0,0,5.38,0,12s5.38,12,12,12,12-5.38,12-12S18.62,0,12,0ZM6.21,18.88c-1.96-1.65-3.21-4.12-3.21-6.88C3,7.14,6.87,3.18,11.7,3.02c1.83,.26,3.3,1.88,3.3,3.73s-1.38,3.49-3.21,3.77c-3.3,.47-5.79,3.37-5.79,6.73,0,.56,.08,1.1,.21,1.63Zm6.1,2.11c-1.83-.26-3.3-1.88-3.3-3.73s1.38-3.5,3.22-3.77c3.29-.49,5.78-3.39,5.78-6.73,0-.56-.08-1.1-.21-1.63,1.96,1.65,3.21,4.12,3.21,6.88,0,4.86-3.87,8.82-8.7,8.98Z"/></svg>
