<?xml version="1.0" encoding="UTF-8"?>
<svg xmlns="http://www.w3.org/2000/svg" id="Layer_1" data-name="Layer 1" viewBox="0 0 24 24" width="512" height="512"><path d="M22.5,0c-1.172,0-2.269,.575-2.938,1.545l-5.814,8.5c-1.173-.089-2.363,.4-3.125,1.424l-.601,.847c-.029-.117-.057-.23-.081-.338-.259-1.157-1.262-1.968-2.438-1.97l-4.191-.009h-.005c-1.162,0-2.188,.822-2.439,1.955l-.1,.444C.389,14.079-.002,15.815,0,18.521c.003,3.021,2.47,5.479,5.5,5.479h1.055c2.354,0,4.565-1.151,5.9-3.058l3.909-5.378c.548-.784,.752-1.733,.574-2.673-.094-.498-.294-.954-.574-1.357L22.034,3.244c.105-.153,.279-.244,.466-.244,.828,0,1.5-.672,1.5-1.5s-.672-1.5-1.5-1.5ZM13.922,13.824l-3.908,5.376c-.79,1.127-2.083,1.8-3.459,1.8h-1.055c-1.354,0-2.499-1.136-2.5-2.48-.002-2.372,.32-3.803,.694-5.461l.013-.058,3.396,.007c.08,.317,.177,.664,.276,1.021,.15,.536,.31,1.1,.418,1.61,.14,.671,.664,1.193,1.334,1.333,.674,.136,1.363-.135,1.759-.692l2.16-3.047c.168-.225,.483-.28,.714-.125,.161,.106,.211,.259,.226,.341,.016,.081,.025,.241-.068,.376Z"/></svg>
