<?xml version="1.0" encoding="UTF-8"?>
<svg xmlns="http://www.w3.org/2000/svg" id="Layer_1" data-name="Layer 1" viewBox="0 0 24 24" width="512" height="512"><path d="M18.5,24H5.5c-3.033,0-5.5-2.467-5.5-5.5V5.5C0,2.467,2.467,0,5.5,0h13c3.033,0,5.5,2.467,5.5,5.5v13c0,3.033-2.467,5.5-5.5,5.5ZM5.5,3c-1.378,0-2.5,1.122-2.5,2.5v13c0,1.378,1.122,2.5,2.5,2.5h13c1.378,0,2.5-1.122,2.5-2.5V5.5c0-1.378-1.122-2.5-2.5-2.5H5.5Zm8.5,14.5V6.5c0-.607-.365-1.154-.926-1.386-.561-.234-1.207-.104-1.635,.325l-3,3c-.586,.585-.586,1.536,0,2.121,.586,.586,1.535,.586,2.121,0l.439-.439v7.379c0,.829,.671,1.5,1.5,1.5s1.5-.671,1.5-1.5Z"/></svg>
