<?xml version="1.0" encoding="UTF-8"?>
<svg xmlns="http://www.w3.org/2000/svg" id="Layer_1" data-name="Layer 1" viewBox="0 0 24 24" width="512" height="512"><path d="m9,12c0,.829-.672,1.5-1.5,1.5h-1.5v1.5c0,.829-.672,1.5-1.5,1.5s-1.5-.671-1.5-1.5v-1.5h-1.5c-.828,0-1.5-.671-1.5-1.5s.672-1.5,1.5-1.5h1.5v-1.5c0-.829.672-1.5,1.5-1.5s1.5.671,1.5,1.5v1.5h1.5c.828,0,1.5.671,1.5,1.5Zm-6,9c0,1.657,1.343,3,3,3h2v-5H3v2ZM8,0h-2c-1.657,0-3,1.343-3,3v2h5V0Zm12.566,4.126l-.477-2.5c-.206-1.085-1.253-1.797-2.338-1.591l-1.672.317c-.684.13-1.219.595-1.47,1.193-.513-.918-1.482-1.546-2.609-1.546h-2v5h5.967l4.599-.874Zm.375,1.964l-5.601,1.064,2.169,10.859,5.601-1.064-2.169-10.859Zm-10.941,17.909h2c1.657,0,3-1.343,3-3v-2h-5v5Zm13.964-2.692l-.479-2.393-5.601,1.064.48,2.396c.207,1.084,1.254,1.796,2.338,1.59l1.672-.317c1.086-.206,1.798-1.254,1.591-2.34Zm-13.964-4.308h5V7h-5v10Z"/></svg>
