<?xml version="1.0" encoding="UTF-8"?>
<svg xmlns="http://www.w3.org/2000/svg" id="Layer_1" data-name="Layer 1" viewBox="0 0 24 24" width="512" height="512"><path d="M22.5,10.5h-.5V1.5c0-.83-.67-1.5-1.5-1.5s-1.5,.67-1.5,1.5V10.5h-6.18L6.95,1.24C6.3,.23,5.09-.23,3.93,.11c-1.16,.34-1.93,1.38-1.93,2.58v7.81h-.5c-.83,0-1.5,.67-1.5,1.5s.67,1.5,1.5,1.5h.5v9c0,.83,.67,1.5,1.5,1.5s1.5-.67,1.5-1.5V13.5h6.18l5.87,9.26c.65,1.01,1.86,1.47,3.02,1.13,1.16-.34,1.93-1.38,1.93-2.58v-7.81h.5c.83,0,1.5-.67,1.5-1.5s-.67-1.5-1.5-1.5Zm-17.5,0V3.76l4.27,6.74H5Zm14,9.74l-4.27-6.74h4.27v6.74Z"/></svg>
