<?xml version="1.0" encoding="UTF-8"?>
<svg xmlns="http://www.w3.org/2000/svg" id="Layer_1" data-name="Layer 1" viewBox="0 0 24 24">
  <path d="m8,10.5v3c0,.829-.672,1.5-1.5,1.5s-1.5-.671-1.5-1.5v-3c0-.829.672-1.5,1.5-1.5s1.5.671,1.5,1.5Zm2.5-4.5c-.828,0-1.5.671-1.5,1.5v9c0,.829.672,1.5,1.5,1.5s1.5-.671,1.5-1.5V7.5c0-.829-.672-1.5-1.5-1.5Zm4,2c-.828,0-1.5.671-1.5,1.5v5c0,.829.672,1.5,1.5,1.5s1.5-.671,1.5-1.5v-5c0-.829-.672-1.5-1.5-1.5Zm9.5,4c0,6.617-5.383,12-12,12S0,18.617,0,12,5.383,0,12,0s12,5.383,12,12Zm-3,0c0-4.962-4.037-9-9-9S3,7.038,3,12s4.037,9,9,9,9-4.038,9-9Zm-2.5-1c-.828,0-1.5.672-1.5,1.5s.672,1.5,1.5,1.5,1.5-.672,1.5-1.5-.672-1.5-1.5-1.5Z"/>
</svg>
