<?xml version="1.0" encoding="UTF-8"?>
<svg xmlns="http://www.w3.org/2000/svg" id="Layer_1" data-name="Layer 1" viewBox="0 0 24 24" width="512" height="512"><path d="M22.752,7.219c-.771-.369-1.663-.268-2.331,.265-.043,.034-1.44,1.423-1.44,1.423-.098-.729-.55-1.36-1.229-1.688-.771-.369-1.663-.268-2.331,.265-.043,.034-1.44,1.423-1.44,1.423-.098-.729-.55-1.36-1.229-1.688-.771-.369-1.663-.268-2.331,.265-.063,.051-1.689,1.842-1.689,1.842l-1.51-6.96c-.296-1.37-1.529-2.365-2.932-2.365h-1.29C1.346,0,0,1.346,0,3v15.5c0,3.032,2.468,5.5,5.5,5.5h13c3.032,0,5.5-2.468,5.5-5.5V9.204c0-.854-.479-1.614-1.248-1.985Zm-1.752,11.281c0,1.379-1.121,2.5-2.5,2.5H5.5c-1.379,0-2.5-1.121-2.5-2.5V3h1.29l2.129,9.818c.119,.549,.536,.986,1.079,1.131s1.123-.026,1.5-.443l2.002-2.217v1.211c0,.606,.365,1.153,.925,1.386,.557,.23,1.204,.105,1.634-.323l2.441-2.434v1.371c0,.606,.365,1.153,.925,1.386,.558,.23,1.204,.105,1.634-.323l2.441-2.434v7.371Zm-12-1.5v1c0,.552-.448,1-1,1h-1c-.552,0-1-.448-1-1v-1c0-.552,.448-1,1-1h1c.552,0,1,.448,1,1Zm5,0v1c0,.552-.448,1-1,1h-1c-.552,0-1-.448-1-1v-1c0-.552,.448-1,1-1h1c.552,0,1,.448,1,1Zm4-1c.552,0,1,.448,1,1v1c0,.552-.448,1-1,1h-1c-.552,0-1-.448-1-1v-1c0-.552,.448-1,1-1h1Z"/></svg>
