<?xml version="1.0" encoding="UTF-8"?>
<svg xmlns="http://www.w3.org/2000/svg" id="Layer_1" data-name="Layer 1" viewBox="0 0 24 24" width="512" height="512"><path d="M12,16.5v5c0,.83-.67,1.5-1.5,1.5H6.5c-.83,0-1.5-.67-1.5-1.5s.67-1.5,1.5-1.5h2.5v-2h-3.5c-3.03,0-5.5-2.47-5.5-5.5V6.5C0,3.47,2.47,1,5.5,1h11c2.51,0,4.7,1.7,5.33,4.13,.21,.8-.28,1.62-1.08,1.83-.8,.2-1.62-.28-1.83-1.08-.28-1.1-1.28-1.87-2.42-1.87H5.5c-1.38,0-2.5,1.12-2.5,2.5v6c0,1.38,1.12,2.5,2.5,2.5h5c.83,0,1.5,.67,1.5,1.5Zm12-3.5v7c0,2.21-1.79,4-4,4h-2c-2.21,0-4-1.79-4-4v-7c0-2.21,1.79-4,4-4h2c2.21,0,4,1.79,4,4Zm-3,0c0-.55-.45-1-1-1h-2c-.55,0-1,.45-1,1v7c0,.55,.45,1,1,1h2c.55,0,1-.45,1-1v-7Z"/></svg>
