<?xml version="1.0" encoding="UTF-8"?>
<svg xmlns="http://www.w3.org/2000/svg" id="Layer_1" data-name="Layer 1" viewBox="0 0 24 24">
  <path d="m24,4.5c0-1.202-.469-2.333-1.317-3.182s-1.98-1.318-3.183-1.318c-1.099,0-2.138.392-2.956,1.107-.908-.745-1.906-1.107-3.044-1.107-2.307,0-4.213,1.744-4.471,3.994-.045,0-.309.006-.309.006-2.444,0-4.46,1.866-4.697,4.249-.008.002-.016.005-.023.008-1.795.635-3,2.34-3,4.243,0,1.553,1.505,4.089,2.62,5.759l-3.18,3.18c-.586.586-.586,1.535,0,2.121.293.293.677.439,1.061.439s.768-.146,1.061-.439l3.18-3.18c1.67,1.115,4.206,2.62,5.759,2.62,1.903,0,3.608-1.205,4.243-3.001.003-.007.006-.015.008-.022,2.383-.237,4.249-2.253,4.249-4.697,0-.095-.003-.198-.007-.306,2.25-.247,4.007-2.159,4.007-4.474,0-1.137-.362-2.135-1.107-3.044.717-.819,1.107-1.857,1.107-2.956Zm-3.524,4.745c.372.412.524.775.524,1.255,0,.827-.673,1.5-1.515,1.5-.702,0-1.377.296-1.853.812-.478.518-.719,1.219-.661,1.923.017.192.028.385.028.544,0,.949-.771,1.721-1.72,1.721-.674,0-1.874.252-2.365,2-.212.598-.78,1-1.412,1-.502-.017-2.001-.782-3.591-1.791l5.648-5.648c.586-.586.586-1.535,0-2.121s-1.535-.586-2.121,0l-5.648,5.648c-1.009-1.588-1.774-3.087-1.791-3.588,0-.635.402-1.203,1.062-1.433,1.686-.474,1.938-1.674,1.938-2.348,0-.948.771-1.72,1.721-1.72,0,0,.537-.016.657-.005.681.057,1.342-.161,1.834-.614.508-.468.788-1.131.788-1.881,0-.827.673-1.5,1.5-1.5.479,0,.843.152,1.253.523,1.562,1.414,2.866.736,3.688-.084.564-.566,1.554-.567,2.12,0,.283.282.439.659.439,1.06s-.156.777-.439,1.061c-.82.82-1.5,2.125-.085,3.685Z"/>
</svg>
