<?xml version="1.0" encoding="UTF-8"?>
<svg xmlns="http://www.w3.org/2000/svg" id="Layer_1" data-name="Layer 1" viewBox="0 0 24 24" width="512" height="512"><path d="m22.5,13H1.5c-.829,0-1.5.671-1.5,1.5v4c0,2.481,2.019,4.5,4.5,4.5h15c2.481,0,4.5-2.019,4.5-4.5v-4c0-.829-.671-1.5-1.5-1.5Zm-8.5,3v4h-4v-4h4Zm-11,2.5v-2.5h4v4h-2.5c-.827,0-1.5-.673-1.5-1.5Zm18,0c0,.827-.673,1.5-1.5,1.5h-2.5v-4h4v2.5Zm-1.5-17.5H4.5C2.019,1,0,3.019,0,5.5v4c0,.829.671,1.5,1.5,1.5h21c.829,0,1.5-.671,1.5-1.5v-4c0-2.481-2.019-4.5-4.5-4.5Zm-5.5,3v4h-4v-4h4Zm-11,1.5c0-.827.673-1.5,1.5-1.5h2.5v4H3v-2.5Zm18,2.5h-4v-4h2.5c.827,0,1.5.673,1.5,1.5v2.5Z"/></svg>
