<?xml version="1.0" encoding="UTF-8"?>
<svg xmlns="http://www.w3.org/2000/svg" id="Layer_1" data-name="Layer 1" viewBox="0 0 24 24" width="512" height="512"><path d="m18.5,0H5.5C2.467,0,0,2.467,0,5.5v13c0,3.033,2.467,5.5,5.5,5.5h13c3.033,0,5.5-2.467,5.5-5.5V5.5c0-3.033-2.467-5.5-5.5-5.5Zm2.5,18.5c0,1.378-1.122,2.5-2.5,2.5H5.5c-1.378,0-2.5-1.122-2.5-2.5V5.5c0-1.378,1.122-2.5,2.5-2.5h13c1.378,0,2.5,1.122,2.5,2.5v13Zm-5.417-10.887c-.545-1.537-1.952-2.53-3.583-2.53s-3.038.993-3.583,2.531l-3.33,9.385c-.277.781.131,1.638.912,1.915.778.278,1.638-.131,1.915-.912l.71-2.001h6.753l.71,2.001c.218.615.796.999,1.414.999.167,0,.336-.028.501-.087.781-.277,1.189-1.134.912-1.915l-3.33-9.386Zm-5.895,5.387l1.555-4.383c.171-.482.586-.534.756-.534s.585.052.756.534l1.555,4.384h-4.624Z"/></svg>
