<?xml version="1.0" encoding="UTF-8"?>
<svg xmlns="http://www.w3.org/2000/svg" id="Layer_1" data-name="Layer 1" viewBox="0 0 24 24" width="512" height="512"><path d="m22.5,20h-9v-2h7.348c1.738,0,3.152-1.414,3.152-3.152,0-6.215-4.578-11.513-10.5-12.255v-1.093c0-.829-.671-1.5-1.5-1.5s-1.5.671-1.5,1.5v1.091c-2.453.301-4.739,1.349-6.607,3.062C1.419,7.921,0,11.146,0,14.5v.474c0,1.668,1.357,3.026,3.026,3.026h7.474v2H1.5c-.829,0-1.5.671-1.5,1.5s.671,1.5,1.5,1.5h21c.829,0,1.5-.671,1.5-1.5s-.671-1.5-1.5-1.5ZM3,15v-.5c0-2.516,1.064-4.935,2.92-6.636,1.678-1.538,3.806-2.363,6.065-2.365.005,0,.01,0,.016,0,.004,0,.007,0,.011,0,.264,0,.531.013.799.035,4.592.399,8.19,4.49,8.19,9.313,0,.083-.068.152-.152.152H3Z"/></svg>
