<?xml version="1.0" encoding="UTF-8"?>
<svg xmlns="http://www.w3.org/2000/svg" id="Layer_1" data-name="Layer 1" viewBox="0 0 24 24" width="512" height="512"><path d="M23.716,11.315l-3.063-3.063c-.61-.61-1.653-.178-1.653,.685v1.563h-1v-1c0-.829-.671-1.5-1.5-1.5s-1.5,.671-1.5,1.5v1h-1.166c-.689-3.141-3.49-5.5-6.834-5.5C3.14,5,0,8.14,0,12s3.14,7,7,7c3.345,0,6.145-2.359,6.834-5.5h1.166v1c0,.829,.671,1.5,1.5,1.5s1.5-.671,1.5-1.5v-1h1v1.563c0,.863,1.043,1.295,1.653,.685l3.063-3.063c.378-.378,.378-.991,0-1.369ZM7,16c-2.206,0-4-1.794-4-4s1.794-4,4-4,4,1.794,4,4-1.794,4-4,4Z"/></svg>
