<?xml version="1.0" encoding="UTF-8"?>
<svg xmlns="http://www.w3.org/2000/svg" id="Layer_1" data-name="Layer 1" viewBox="0 0 24 24" width="512" height="512"><path d="m18.068,6.447c.582.59.574,1.54-.016,2.121l-5.793,5.707c-.482.482-1.119.724-1.757.724s-1.282-.244-1.771-.732l-2.776-2.69c-.595-.577-.61-1.526-.033-2.121.578-.595,1.526-.609,2.121-.033l2.453,2.378,5.45-5.369c.59-.582,1.542-.573,2.121.016Zm5.932-1.109v9c0,3.033-2.468,5.5-5.5,5.5h-1.172l-3.708,3.065c-.448.399-1.024.601-1.607.601-.594,0-1.195-.21-1.674-.635l-3.598-3.031h-1.241c-3.033,0-5.5-2.467-5.5-5.5V5.338C0,2.305,2.467-.162,5.5-.162h13c3.032,0,5.5,2.467,5.5,5.5Zm-3,0c0-1.378-1.121-2.5-2.5-2.5H5.5c-1.378,0-2.5,1.122-2.5,2.5v9c0,1.378,1.122,2.5,2.5,2.5h1.789c.354,0,.696.125.966.353l3.749,3.158,3.829-3.167c.27-.223.607-.344.956-.344h1.712c1.379,0,2.5-1.122,2.5-2.5V5.338Z"/></svg>
