<?xml version="1.0" encoding="UTF-8"?>
<svg xmlns="http://www.w3.org/2000/svg" id="Layer_1" data-name="Layer 1" viewBox="0 0 24 24" width="512" height="512"><path d="m24,2.5v-.412c0-.827-.492-1.572-1.254-1.898-.753-.324-1.619-.168-2.212.396-.279.267-.646.414-1.034.414H7.193C4.093,1,1.354,2.863.216,5.746c-.374.948-.253,2.021.325,2.872.364.535.875.936,1.459,1.165v9.267c-1.141.232-2,1.24-2,2.45,0,1.381,1.119,2.5,2.5,2.5h20c.828,0,1.5-.672,1.5-1.5v-2c0-.828-.672-1.5-1.5-1.5h-2.5v-9.868c2.377-1.259,4-3.759,4-6.632ZM7,19h-2v-9h2v9Zm5,0h-2v-9h2v9Zm5,0h-2v-9h1.502c.167,0,.333-.006.498-.017v9.017Zm-.498-12H3.148c-.065,0-.104-.038-.142-.152.683-1.729,2.326-2.848,4.187-2.848h12.307c.448,0,.888-.065,1.307-.192-.562,1.846-2.279,3.192-4.305,3.192Z"/></svg>
