<?xml version="1.0" encoding="UTF-8"?>
<svg xmlns="http://www.w3.org/2000/svg" id="Layer_1" data-name="Layer 1" viewBox="0 0 24 24" width="512" height="512"><path d="m23.561,7.439c-.586-.586-1.535-.586-2.121,0l-1.439,1.439-4.879-4.879,1.439-1.439c.586-.585.586-1.536,0-2.121-.586-.586-1.535-.586-2.121,0l-2.282,2.282-5.333,2.133c-1.626.651-2.841,1.988-3.334,3.668L.129,19.98c-.324,1.101-.021,2.289.791,3.1.597.597,1.397.918,2.216.918.295,0,.592-.042.884-.127l11.458-3.361c1.68-.493,3.018-1.708,3.668-3.334l2.133-5.333,2.282-2.282c.586-.585.586-1.536,0-2.121Zm-7.2,8.621c-.307.766-.936,1.338-1.728,1.57l-8.693,2.55,4.216-4.216c.114.016.226.035.344.035,1.381,0,2.5-1.119,2.5-2.5s-1.119-2.5-2.5-2.5-2.5,1.119-2.5,2.5c0,.118.019.231.035.344l-4.216,4.216,2.55-8.693c.232-.791.804-1.42,1.57-1.727l4.7-1.88,5.601,5.601-1.88,4.699Z"/></svg>
