<?xml version="1.0" encoding="UTF-8"?>
<svg xmlns="http://www.w3.org/2000/svg" id="Layer_1" data-name="Layer 1" viewBox="0 0 24 24" width="512" height="512"><path d="M12,24C5.383,24,0,18.617,0,12S5.383,0,12,0s12,5.383,12,12-5.383,12-12,12Zm0-21C7.037,3,3,7.037,3,12s4.037,9,9,9,9-4.037,9-9S16.963,3,12,3Zm3.902,13.753c.763-.805,1.15-1.857,1.092-2.966-.11-2.123-1.927-3.787-4.136-3.787h-1.858v-1h3.5c.828,0,1.5-.672,1.5-1.5s-.672-1.5-1.5-1.5h-4c-1.379,0-2.5,1.121-2.5,2.5v3c0,.828,.672,1.5,1.5,1.5h3.358c.591,0,1.113,.432,1.14,.944,.015,.278-.082,.543-.272,.743-.19,.201-.448,.312-.726,.312h-3.5c-.828,0-1.5,.672-1.5,1.5s.672,1.5,1.5,1.5h3.5c1.093,0,2.15-.455,2.902-1.247Z"/></svg>
