<?xml version="1.0" encoding="UTF-8"?>
<svg xmlns="http://www.w3.org/2000/svg" id="Layer_1" data-name="Layer 1" viewBox="0 0 24 24" width="512" height="512"><path d="M17.92,10.76c.68-.91,1.08-2.04,1.08-3.26,0-3.03-2.47-5.5-5.5-5.5h-1.5v-.5c0-.83-.67-1.5-1.5-1.5s-1.5,.67-1.5,1.5v.5h-1.5c-2.48,0-4.5,2.02-4.5,4.5v11c0,2.48,2.02,4.5,4.5,4.5h1.5v.5c0,.83,.67,1.5,1.5,1.5s1.5-.67,1.5-1.5v-.5h3c3.31,0,6-2.69,6-6,0-2.25-1.24-4.21-3.08-5.24Zm-4.42-5.76c1.38,0,2.5,1.12,2.5,2.5s-1.12,2.5-2.5,2.5h-1.5V5h1.5Zm-7.5,1.5c0-.83,.67-1.5,1.5-1.5h1.5v5h-3v-3.5Zm1.5,12.5c-.83,0-1.5-.67-1.5-1.5v-4.5h3v6h-1.5Zm7.5,0h-3v-6h3c1.65,0,3,1.35,3,3s-1.35,3-3,3Z"/></svg>
