<?xml version="1.0" encoding="UTF-8"?>
<svg xmlns="http://www.w3.org/2000/svg" id="Layer_1" data-name="Layer 1" viewBox="0 0 24 24" width="512" height="512"><path d="m19.735,10h-6.735v-2h9.5c.829,0,1.5-.672,1.5-1.5s-.671-1.5-1.5-1.5h-9.5v-1.47l9.583-.532c.827-.046,1.46-.754,1.415-1.581S23.245-.029,22.417.002L4.417,1.002c-.827.046-1.46.754-1.415,1.581.044.799.706,1.417,1.496,1.417.028,0,.501-.025.501-.025v1.025h-.5c-.829,0-1.5.672-1.5,1.5s.671,1.5,1.5,1.5h.5v2h-.735c-1.326,0-2.6.631-3.407,1.688C.065,12.727-.194,14.036.146,15.28c.689,2.522,2.083,4.767,4.031,6.49,1.626,1.438,3.799,2.229,6.119,2.229h3.408c2.32,0,4.493-.792,6.119-2.23,1.948-1.723,3.341-3.967,4.031-6.489.34-1.244.081-2.554-.712-3.593-.807-1.057-2.081-1.688-3.407-1.688ZM8,3.808l2-.111v1.303h-2v-1.192Zm0,4.192h2v2h-2v-2Zm12.96,6.489c-.535,1.958-1.616,3.698-3.125,5.033-1.077.953-2.544,1.478-4.131,1.478h-3.408c-1.587,0-3.054-.524-4.131-1.477-1.51-1.336-2.59-3.076-3.125-5.034-.125-.458.074-.812.204-.981.247-.322.619-.508,1.022-.508h15.47c.403,0,.775.186,1.022.508.13.17.329.523.204.981Z"/></svg>
