<?xml version="1.0" encoding="UTF-8"?>
<svg xmlns="http://www.w3.org/2000/svg" id="Layer_1" data-name="Layer 1" viewBox="0 0 24 24" width="512" height="512"><path d="M22.5,13h-.4l1.88-11.26c.14-.82-.42-1.59-1.23-1.73-.82-.14-1.59,.42-1.73,1.23l-1.96,11.75h-4.71l-.89-3.84c-.16-.68-.76-1.16-1.46-1.16s-1.3,.48-1.46,1.16l-.89,3.84H4.94L2.98,1.25C2.84,.43,2.07-.12,1.25,.01,.44,.15-.12,.92,.02,1.74L1.9,13h-.4c-.83,0-1.5,.67-1.5,1.5s.67,1.5,1.5,1.5h.9l.79,4.71c.3,1.81,1.74,3.13,3.57,3.27,1.83,.15,3.46-.93,4.04-2.67,.01-.04,1.21-5.18,1.21-5.18,0,0,1.19,5.13,1.21,5.18,.55,1.64,2.01,2.69,3.71,2.69,.11,0,.22,0,.33-.01,1.83-.14,3.27-1.46,3.57-3.27l.79-4.71h.9c.83,0,1.5-.67,1.5-1.5s-.67-1.5-1.5-1.5Zm-15.51,7.99c-.22-.02-.74-.13-.85-.77l-.7-4.22h3.51l-1.02,4.41c-.22,.57-.72,.6-.94,.58Zm10.87-.77c-.11,.65-.63,.76-.85,.77-.21,.02-.72,0-.94-.58l-1.02-4.41h3.51l-.7,4.22Z"/></svg>
