<?xml version="1.0" encoding="UTF-8"?>
<svg xmlns="http://www.w3.org/2000/svg" id="Layer_1" data-name="Layer 1" viewBox="0 0 24 24" width="512" height="512"><path d="M12,0C5.383,0,0,5.383,0,12s5.383,12,12,12,12-5.383,12-12S18.617,0,12,0Zm0,21c-4.962,0-9-4.038-9-9S7.038,3,12,3s9,4.038,9,9-4.038,9-9,9Zm7-11c0,1.105-.895,2-2,2s-2-.895-2-2h-1c-.552,0-1-.448-1-1s.448-1,1-1h3c1.105,0,2,.895,2,2Zm-12,0h-1c-.552,0-1-.448-1-1s.448-1,1-1h3c1.105,0,2,.895,2,2s-.895,2-2,2-2-.895-2-2Zm9.203,7.396c-.294,.396-.747,.604-1.204,.604-.312,0-.625-.097-.895-.297-.001,0-.987-.703-2.104-.703s-2.103,.702-2.113,.709c-.668,.482-1.605,.339-2.092-.326-.487-.665-.352-1.594,.31-2.086,.178-.133,1.802-1.297,3.896-1.297s3.717,1.164,3.896,1.297c.665,.495,.802,1.435,.308,2.099Z"/></svg>
