<?xml version="1.0" encoding="UTF-8"?>
<svg xmlns="http://www.w3.org/2000/svg" id="Layer_1" data-name="Layer 1" viewBox="0 0 24 24" width="512" height="512"><path d="m23.004,9.594h0l-2.003-2.003v-1.091c0-1.93-1.57-3.5-3.5-3.5h-1.091l-2.003-2.003c-1.285-1.285-3.527-1.285-4.812,0l-2.003,2.003h-1.091c-1.93,0-3.5,1.57-3.5,3.5v1.091l-2.004,2.003c-1.326,1.327-1.326,3.485,0,4.812l2.003,2.003v1.091c0,1.93,1.57,3.5,3.5,3.5h1.091l2.003,2.003c.643.643,1.497.997,2.406.997s1.764-.354,2.406-.997l2.003-2.003h1.091c1.93,0,3.5-1.57,3.5-3.5v-1.091l2.004-2.003c1.326-1.327,1.326-3.485,0-4.812Zm-2.122,2.691l-2.443,2.442c-.281.281-.439.663-.439,1.061v1.712c0,.275-.224.5-.5.5h-1.712c-.398,0-.779.158-1.061.439l-2.442,2.442c-.157.156-.413.156-.57,0l-2.442-2.442c-.281-.281-.663-.439-1.061-.439h-1.712c-.276,0-.5-.225-.5-.5v-1.712c0-.397-.158-.779-.439-1.061l-2.442-2.442c-.157-.157-.157-.413,0-.57l2.443-2.442c.281-.281.439-.663.439-1.061v-1.712c0-.275.224-.5.5-.5h1.712c.398,0,.779-.158,1.061-.439l2.442-2.442c.157-.156.413-.156.57,0l2.442,2.442c.281.281.663.439,1.061.439h1.712c.276,0,.5.225.5.5v1.712c0,.397.158.779.439,1.061l2.442,2.442c.157.157.157.413,0,.57Zm-5.929-2.82c.223,1.272-.382,2.543-1.506,3.164-.188.103-.447.563-.447.876v.495c0,.553-.448,1-1,1s-1-.447-1-1v-.495c0-1.033.637-2.163,1.481-2.628.29-.159.595-.535.502-1.066-.069-.392-.402-.725-.793-.793-.306-.057-.602.021-.832.216-.228.19-.358.47-.358.767,0,.553-.448,1-1,1s-1-.447-1-1c0-.889.391-1.727,1.072-2.299.68-.572,1.578-.814,2.463-.653,1.209.211,2.204,1.205,2.417,2.417Zm-1.953,7.535c0,.552-.448,1-1,1s-1-.448-1-1,.448-1,1-1,1,.448,1,1Z"/></svg>
