<?xml version="1.0" encoding="UTF-8"?>
<svg xmlns="http://www.w3.org/2000/svg" id="Layer_1" data-name="Layer 1" viewBox="0 0 24 24" width="512" height="512"><path d="M21.852,18.858c-2.246,3.219-5.928,5.142-9.848,5.142C5.383,24,0,18.617,0,12S5.383,0,12,0c3.412,0,6.672,1.458,8.947,4,.553,.617,.501,1.565-.117,2.118s-1.566,.499-2.117-.117c-1.707-1.907-4.152-3-6.709-3C7.037,3,3,7.038,3,12s4.037,9,9,9c2.944,0,5.706-1.442,7.391-3.858,.475-.68,1.409-.845,2.089-.372,.68,.474,.846,1.409,.372,2.089ZM6,9.002c0,1.104,.895,1.998,1.998,1.998s1.998-.895,1.998-1.998-.895-1.998-1.998-1.998-1.998,.895-1.998,1.998Zm7.996-.002c0,1.105,.895,2,2,2s2-.895,2-2-.895-2-2-2-2,.895-2,2Zm9.706-.046c-.677-1.074-2.112-1.251-3.024-.448l-5.756,5.069c-.98-.374-1.959-.575-2.922-.575-1.364,0-2.784,.398-4.22,1.184-.727,.397-.994,1.309-.597,2.036,.273,.499,.787,.781,1.317,.781,.244,0,.49-.06,.719-.185,.99-.541,1.924-.815,2.779-.816,.003,0,.005,0,.008,0,1.993,0,3.485,1.137,3.626,1.23,.428,.282,.991,.247,1.367-.102l1.162-1.077-.819-.939c-.365-.414-.325-1.046,.089-1.411,.414-.365,1.046-.325,1.411,.089l.819,.939,1.646-1.45-.834-.956c-.365-.414-.325-1.046,.089-1.411,.414-.365,1.046-.325,1.411,.089l.834,.956,.435-.383c.747-.658,.988-1.779,.457-2.622Z"/></svg>
