<?xml version="1.0" encoding="UTF-8"?>
<svg xmlns="http://www.w3.org/2000/svg" id="Layer_1" data-name="Layer 1" viewBox="0 0 24 24">
  <path d="m10,19.501s0,0,0,0c0-.828-.671-1.5-1.5-1.5h-4c-.609,0-.982-.336-1.15-.537-.168-.2-.434-.627-.327-1.227l1.103-6.176c.213-1.194,1.248-2.061,2.461-2.061h8.825c.89,0,1.72.479,2.166,1.251.416.717,1.332.963,2.049.548s.963-1.332.548-2.05c-.907-1.568-2.538-2.576-4.327-2.72.089-.33.151-.671.151-1.029,0-2.206-1.794-4-4-4h-2c-2.206,0-4,1.794-4,4,0,.362.064.705.154,1.039-2.476.196-4.537,2.013-4.98,4.495L.071,15.709c-.235,1.315.123,2.656.98,3.68.857,1.024,2.114,1.611,3.45,1.611h2.172c.424,1.514,1.647,2.734,3.251,2.96.496.07.978.048,1.431-.051.437-.096.645-.599.367-.95-.783-.99-1.477-2.169-1.722-3.458Zm0-16.501h2c.551,0,1,.448,1,1s-.449,1-1,1h-2c-.551,0-1-.448-1-1s.449-1,1-1Zm8,9c-3.314,0-6,2.686-6,6s2.686,6,6,6,6-2.686,6-6-2.686-6-6-6Zm3,7h-2v2c0,.553-.448,1-1,1s-1-.447-1-1v-2h-2c-.552,0-1-.447-1-1s.448-1,1-1h2v-2c0-.553.448-1,1-1s1,.447,1,1v2h2c.552,0,1,.447,1,1s-.448,1-1,1Z"/>
</svg>
