<?xml version="1.0" standalone="no"?>
<!DOCTYPE svg PUBLIC "-//W3C//DTD SVG 20010904//EN"
 "http://www.w3.org/TR/2001/REC-SVG-20010904/DTD/svg10.dtd">
<svg version="1.0" xmlns="http://www.w3.org/2000/svg"
 width="865.000000pt" height="450.000000pt" viewBox="0 0 865.000000 450.000000"
 preserveAspectRatio="xMidYMid meet">
<metadata>
Created by potrace 1.16, written by Peter Selinger 2001-2019
</metadata>
<g transform="translate(0.000000,450.000000) scale(0.100000,-0.100000)"
fill="#000000" stroke="none">
<path d="M3311 4233 c-24 -29 -31 -33 -31 -18 0 18 0 18 -14 0 -8 -11 -12 -23
-10 -26 2 -4 -4 -10 -13 -13 -12 -5 -14 -9 -6 -14 6 -4 13 -16 15 -27 1 -11 9
-26 16 -33 6 -7 12 -20 12 -29 0 -8 15 -28 33 -44 24 -21 28 -29 15 -29 -10 0
-26 10 -38 22 -11 12 -20 17 -20 11 0 -6 7 -16 15 -23 8 -7 15 -17 15 -22 0
-5 9 -19 21 -31 11 -12 37 -43 57 -69 20 -27 42 -48 50 -48 12 0 12 2 1 17
-13 15 -12 15 8 5 30 -16 44 -15 37 3 -4 8 -1 15 6 15 9 0 7 7 -5 20 -10 11
-15 20 -10 20 4 0 -1 8 -12 18 -10 9 -13 13 -6 8 7 -5 13 -5 13 0 0 5 27 10
60 11 60 2 110 6 110 10 0 1 -10 19 -22 40 -23 41 -83 103 -99 103 -6 0 -8 4
-4 9 11 18 -53 52 -100 53 -58 1 -59 26 -1 42 36 10 38 12 21 26 -10 8 -28 13
-41 12 -13 -2 -24 1 -24 7 0 21 -19 11 -49 -26z"/>
<path d="M2797 4246 c-3 -8 -4 -27 -2 -43 2 -15 2 -22 -1 -15 -5 10 -9 10 -20
1 -10 -8 -14 -8 -14 0 0 7 -19 11 -49 11 -58 0 -106 -33 -116 -79 -3 -16 -15
-37 -26 -47 -24 -21 -24 -34 -1 -34 9 0 27 -11 39 -24 28 -29 63 -40 63 -20 0
8 3 13 8 12 14 -4 79 46 101 77 11 17 29 40 39 51 32 34 35 70 10 95 -13 12
-17 19 -10 15 6 -4 12 -2 12 3 0 16 -27 13 -33 -3z"/>
<path d="M2367 4053 c-15 -2 -25 -8 -22 -13 3 -5 13 -6 22 -3 30 12 3 -17 -35
-36 -41 -21 -121 -89 -85 -71 37 17 37 12 -1 -30 -41 -45 -45 -55 -17 -40 11
5 26 10 33 10 16 0 21 -39 8 -55 -33 -40 -47 -321 -21 -405 16 -52 14 -129 -4
-136 -8 -4 -15 -10 -15 -15 0 -5 -9 -18 -20 -29 l-20 -20 -1 33 -1 32 -9 -32
c-5 -18 -14 -33 -19 -33 -10 0 5 60 17 69 12 9 14 69 3 76 -5 3 -12 -11 -15
-32 -3 -21 -11 -56 -17 -78 l-11 -40 -8 28 c-4 16 -5 35 -2 43 3 8 0 14 -6 14
-6 0 -11 -6 -11 -12 0 -7 -3 -22 -6 -34 -4 -14 6 -32 36 -64 39 -41 41 -42 55
-24 14 18 14 18 14 -6 0 -14 -6 -52 -13 -85 -12 -56 -11 -61 6 -67 19 -8 24
-33 8 -43 -5 -3 -10 -11 -10 -16 0 -5 11 -2 25 7 28 18 48 11 23 -9 -18 -14
-58 -72 -58 -83 0 -4 9 1 20 11 21 19 28 7 8 -13 -7 -7 -8 -12 -2 -12 6 0 15
5 21 11 8 8 14 6 22 -9 8 -15 8 -23 0 -28 -8 -5 -8 -8 0 -14 13 -8 -7 -100
-22 -100 -4 0 -5 -4 -2 -10 14 -23 32 4 40 60 0 3 7 15 16 28 14 19 18 20 23
7 3 -8 3 -36 -1 -60 -3 -25 -1 -50 4 -57 19 -24 25 -146 9 -176 -7 -15 -19
-38 -25 -52 -6 -14 -10 -18 -7 -9 2 9 1 21 -3 28 -5 8 -15 -3 -29 -32 -47
-100 -36 -131 18 -52 31 45 49 61 31 26 -6 -10 -7 -22 -3 -26 4 -5 1 -5 -5 -1
-7 4 -13 3 -13 -3 0 -5 -15 -24 -32 -40 -34 -31 -28 -43 8 -16 26 20 39 19 23
-2 -13 -16 -12 -17 4 -4 9 8 15 16 13 19 -3 2 0 14 7 26 6 11 12 32 13 46 3
54 4 60 15 60 6 0 8 -7 5 -16 -3 -8 1 -25 9 -38 14 -21 13 -25 -9 -49 -13 -15
-27 -35 -31 -46 -3 -10 -14 -21 -24 -24 -10 -2 -25 -18 -34 -36 -15 -29 -15
-30 3 -21 10 6 22 15 25 20 4 6 10 8 15 5 5 -3 16 2 24 11 19 18 20 11 4 -19
-10 -20 -10 -21 7 -7 10 8 26 33 36 56 9 23 22 44 27 48 12 7 6 202 -7 254
-11 43 -10 97 3 109 5 4 7 1 3 -8 -3 -9 -1 -21 5 -27 6 -6 6 -12 -1 -16 -5 -4
-8 -12 -6 -19 2 -7 6 -25 9 -40 6 -24 8 -26 21 -13 8 8 15 25 15 37 0 17 14 5
60 -52 59 -73 69 -89 51 -89 -5 0 0 -19 11 -41 15 -31 19 -58 17 -108 -2 -36
-6 -70 -10 -76 -4 -5 -9 -23 -12 -40 -3 -16 -10 -43 -16 -59 -8 -20 -9 -32 -1
-40 5 -5 10 -14 10 -18 0 -4 -9 1 -20 12 -22 22 -25 46 -11 83 18 46 -4 47
-39 2 -19 -24 -41 -42 -47 -40 -7 2 -20 -7 -29 -20 -9 -14 -20 -23 -24 -20 -5
3 -12 0 -16 -6 -4 -7 -3 -9 4 -5 5 3 12 0 14 -6 3 -8 12 0 21 17 9 17 16 25
17 18 0 -7 -12 -25 -26 -40 -14 -15 -22 -22 -18 -14 4 9 3 12 -3 8 -15 -10
-34 -67 -22 -67 15 0 10 -22 -7 -35 -23 -17 -22 -81 3 -135 11 -25 30 -66 41
-93 12 -26 28 -54 37 -63 16 -17 21 -39 6 -29 -21 12 4 -74 41 -145 l40 -75
-33 30 -32 30 27 -37 c16 -21 32 -36 36 -33 5 3 16 -5 25 -17 12 -18 17 -20
24 -10 7 11 9 11 14 -2 9 -22 158 -118 173 -112 7 3 29 -13 48 -35 37 -41 48
-76 21 -65 -12 4 -13 2 -6 -13 11 -19 39 -36 54 -32 5 1 11 -8 14 -19 3 -11 9
-20 14 -20 5 0 15 -11 21 -25 15 -33 26 -32 21 3 -3 25 -2 24 13 -8 38 -79 35
-70 48 -213 2 -21 6 -41 10 -44 18 -18 -15 -107 -44 -118 -12 -5 -13 -4 -2 6
18 19 15 34 -5 18 -15 -13 -15 -12 -5 8 7 12 12 26 12 32 0 23 -16 9 -38 -32
-19 -36 -21 -47 -12 -74 l11 -31 81 -1 c44 -1 85 -4 90 -7 6 -4 8 2 3 17 l-7
24 24 -26 c13 -15 47 -32 81 -42 56 -15 59 -15 78 4 10 10 19 23 19 27 0 20
84 90 147 123 57 30 73 44 99 90 66 112 129 166 249 213 39 15 82 40 96 54 50
51 89 82 104 82 8 0 15 4 15 8 0 5 25 17 55 27 32 11 55 25 55 33 0 8 6 12 13
9 8 -3 20 -1 28 5 10 6 3 8 -23 6 -21 -2 -35 -2 -33 1 8 7 50 31 68 37 21 8
23 24 2 24 -8 0 -15 5 -15 10 0 6 -9 10 -21 10 -14 0 -19 5 -16 14 3 8 -1 17
-8 20 -10 4 -13 14 -9 36 6 27 4 30 -20 30 -14 0 -26 4 -26 9 0 5 -9 11 -20
14 -11 3 -20 10 -20 16 0 8 6 9 19 2 27 -15 36 1 9 17 -13 7 -15 11 -6 8 10
-3 20 -1 23 4 6 10 -49 42 -58 34 -3 -3 -15 -3 -27 1 -27 8 -18 19 18 21 41 2
44 3 36 15 -3 6 -1 15 6 19 9 6 6 11 -11 21 -22 11 -23 11 -10 -4 12 -15 11
-17 -5 -17 -30 0 -47 16 -50 45 -2 23 -1 25 13 13 14 -11 15 -10 8 12 -4 14
-10 31 -12 38 -3 6 2 12 12 12 9 0 13 5 10 11 -4 6 2 19 14 30 11 10 18 26 15
33 -3 8 0 25 7 38 7 13 13 35 14 50 2 27 -12 29 -43 5 -9 -7 -11 -5 -6 8 6 14
4 16 -7 10 -27 -17 -104 -75 -122 -93 -10 -9 -22 -17 -26 -17 -5 0 -35 -25
-67 -56 -125 -119 -194 -179 -208 -179 -7 0 -16 -7 -20 -15 -3 -8 -11 -15 -17
-15 -8 0 -7 5 2 17 12 15 10 15 -16 -2 -43 -27 -102 -55 -117 -55 -7 0 7 12
32 27 56 33 146 99 155 113 3 5 1 10 -6 10 -8 0 -8 4 2 16 8 9 21 13 35 10 13
-4 26 -2 29 4 4 6 -1 7 -12 3 -16 -6 -16 -5 -4 10 8 10 21 15 30 12 10 -3 35
4 57 15 21 10 32 19 24 20 -8 0 -28 -7 -44 -15 -42 -22 -44 -11 -6 32 35 41
76 61 125 62 20 1 26 4 17 10 -8 4 -14 11 -15 15 -3 10 32 28 41 22 5 -3 16
10 25 29 16 33 37 47 37 25 0 -5 7 -10 15 -10 19 0 65 50 65 72 0 9 6 19 13
21 7 4 6 6 -4 6 -9 1 -22 -12 -29 -29 -7 -16 -17 -30 -22 -30 -5 0 -4 10 3 21
6 12 9 38 5 58 -5 36 -5 36 12 14 11 -15 22 -20 30 -14 10 6 8 13 -7 32 -11
13 -20 21 -21 17 0 -4 -10 3 -23 15 -13 12 -21 26 -19 30 2 5 -4 17 -14 28
-17 19 -17 20 0 13 10 -4 17 -3 14 2 -29 61 -38 92 -43 150 -4 47 -2 63 4 49
13 -28 14 -25 27 115 7 84 7 85 21 50 l13 -35 -5 45 c-4 35 -3 40 5 25 8 -16
9 -13 4 15 -3 19 -6 53 -6 74 l-1 40 -29 -35 c-24 -28 -28 -40 -24 -71 3 -20
9 -44 13 -54 5 -13 3 -15 -7 -9 -8 5 -11 3 -8 -6 3 -8 -1 -29 -8 -48 -17 -41
-17 -44 -3 -35 7 4 10 2 8 -5 -3 -7 -8 -11 -13 -9 -4 2 -14 -8 -21 -22 -11
-20 -14 -21 -15 -7 0 10 -4 15 -10 12 -14 -8 -13 -3 6 34 14 28 18 59 15 124
-2 41 3 77 9 67 5 -7 21 5 44 33 33 40 35 47 25 75 -7 21 -7 37 0 49 5 11 6
25 1 33 -5 9 -5 19 1 27 7 8 7 18 0 32 -15 27 -14 31 9 31 26 0 27 47 3 97
-13 29 -14 36 -3 43 8 5 18 6 23 3 4 -3 11 4 14 16 6 23 23 29 23 7 0 -22 67
-148 100 -189 18 -20 41 -42 53 -49 12 -6 5 5 -15 24 -21 19 -38 42 -38 50 0
9 -9 44 -21 79 -22 70 -21 115 6 229 21 89 11 215 -22 279 -20 39 -21 42 -3
21 l20 -25 -6 39 c-3 22 -10 50 -15 63 -11 30 -12 46 -1 39 8 -5 -8 82 -22
119 -14 35 -24 69 -30 97 -5 24 -46 57 -78 64 -5 1 -9 3 -10 4 -8 7 -47 6 -42
-2 3 -4 9 -6 14 -3 5 3 11 1 15 -5 12 -19 -34 -10 -53 10 l-19 21 5 -27 c3
-17 1 -25 -5 -21 -25 16 -42 -152 -28 -286 3 -36 1 -46 -8 -41 -6 4 -4 -2 6
-13 9 -11 17 -24 17 -29 0 -5 -5 -2 -10 6 -8 10 -9 -5 -4 -50 4 -36 10 -69 14
-75 4 -5 7 -37 7 -70 1 -53 0 -57 -10 -30 -5 17 -14 36 -20 43 -7 9 -4 12 9
12 16 0 16 2 4 10 -8 5 -11 12 -8 16 4 3 1 13 -7 20 -18 18 -31 18 -16 0 10
-11 8 -16 -5 -24 -16 -9 -16 -13 -2 -48 9 -24 20 -38 29 -36 8 2 11 0 7 -4 -4
-4 -2 -14 5 -22 10 -13 9 -15 -7 -9 -15 6 -17 5 -8 -6 9 -10 7 -19 -8 -35 -11
-12 -22 -36 -24 -54 -2 -21 -9 -34 -20 -36 -9 -2 -16 -9 -16 -17 0 -7 -10 -15
-22 -19 -13 -3 -38 -19 -57 -36 -30 -28 -33 -35 -28 -73 4 -25 2 -36 -3 -27
-16 26 -19 5 -4 -25 9 -19 10 -25 3 -17 -21 20 -32 14 -24 -15 6 -24 5 -25
-11 -12 -16 13 -16 12 -5 -9 7 -13 10 -26 7 -29 -3 -3 -8 2 -12 11 -3 9 -10
16 -16 16 -5 0 -6 -4 -3 -10 3 -5 2 -10 -3 -10 -5 0 -13 -10 -16 -22 l-6 -23
-16 25 c-10 17 -13 19 -9 5 18 -50 18 -58 4 -53 -8 3 -13 13 -11 23 3 13 -1
16 -12 12 -9 -4 -16 -1 -16 6 0 9 -11 12 -35 9 -23 -3 -35 -9 -35 -19 0 -13
-3 -13 -15 -3 -19 16 -19 6 0 -24 13 -19 13 -23 1 -23 -8 0 -12 6 -8 15 3 10
1 13 -6 8 -7 -4 -12 -17 -12 -29 0 -18 -2 -19 -10 -7 -5 8 -10 25 -10 38 0 21
-2 20 -31 -13 -17 -19 -35 -33 -39 -30 -5 3 -11 1 -15 -5 -10 -16 -25 -12 -25
7 0 14 -3 13 -16 -5 -8 -12 -20 -19 -26 -16 -6 4 -15 0 -20 -7 -7 -11 -11 -11
-15 -1 -7 17 -26 15 -19 -3 3 -8 1 -15 -4 -15 -6 0 -10 5 -10 11 0 6 -9 9 -20
6 -11 -3 -23 -1 -26 4 -3 5 -17 7 -32 4 -15 -3 -55 -6 -89 -6 -64 -1 -69 -3
-54 -28 7 -11 10 -10 18 4 8 13 14 2 28 -52 11 -37 19 -71 20 -75 0 -3 4 -10
9 -15 5 -5 6 -3 2 5 -4 6 -3 12 3 12 6 0 20 -23 32 -51 12 -28 25 -45 29 -39
22 36 53 -219 34 -285 l-6 -20 16 20 c12 15 11 9 -3 -22 -12 -23 -32 -54 -46
-69 -14 -15 -25 -31 -25 -36 0 -5 -8 -8 -18 -6 -23 4 -72 -28 -72 -47 0 -20 6
-19 45 11 21 15 51 27 77 30 41 4 41 4 13 -6 -16 -6 -55 -23 -85 -38 -30 -15
-56 -28 -58 -29 -3 -1 -10 -29 -11 -48 -1 -6 -10 -16 -20 -22 -17 -10 -20 -10
-20 5 -2 62 -7 77 -26 77 -20 0 -182 151 -173 160 10 10 84 -53 122 -102 l38
-51 46 52 c25 28 49 51 53 51 4 0 11 4 16 9 5 5 3 6 -4 2 -17 -10 -16 2 1 20
17 16 30 19 21 4 -3 -5 -4 -10 -1 -10 12 0 56 88 56 111 -1 24 -1 24 -25 -6
-28 -34 -32 -28 -10 15 20 38 10 43 -73 36 -59 -5 -63 -4 -37 6 l30 12 -50 12
-50 12 53 1 c28 1 52 6 52 11 0 9 -16 12 -77 13 -13 1 -23 4 -23 8 0 9 20 23
35 25 6 0 16 2 23 2 6 1 12 8 12 15 0 15 -4 16 -68 21 -35 3 -42 1 -38 -11 4
-10 -1 -9 -19 5 -14 11 -40 23 -60 26 -19 4 -37 11 -40 16 -9 15 71 12 140 -4
33 -8 62 -13 64 -11 2 2 -4 12 -13 21 -12 11 -26 14 -46 10 -22 -4 -30 -2 -30
9 0 8 7 15 17 15 9 0 13 3 10 7 -4 3 -1 13 6 21 10 13 6 14 -33 8 -24 -4 -50
-12 -57 -18 -17 -14 -25 -6 -17 16 3 9 16 16 28 15 75 -7 91 8 72 66 -21 69
-29 85 -41 85 -8 0 -11 8 -8 20 7 25 -5 26 -23 3 -12 -16 -13 -14 -8 15 4 21
3 32 -5 32 -16 0 -15 -127 2 -134 6 -4 2 -4 -10 -2 -35 6 -28 -1 22 -23 25
-11 45 -22 45 -25 0 -3 -26 -3 -57 -2 -32 2 -63 0 -69 -5 -12 -10 -54 0 -54
13 0 5 5 6 10 3 6 -3 10 2 10 13 0 13 10 22 32 28 19 6 32 17 34 29 12 67 15
119 8 112 -4 -4 -14 7 -21 24 -12 30 -14 31 -27 14 -9 -13 -15 -15 -20 -6 -4
6 -12 9 -17 6 -5 -4 -9 1 -9 9 0 9 -8 16 -17 16 -15 0 -16 2 -3 10 10 7 12 12
4 18 -6 4 -12 32 -13 62 -3 79 -18 125 -45 144 -51 33 -73 61 -72 91 1 58 -15
158 -34 209 -28 76 -42 173 -28 192 29 40 58 293 37 320 -5 6 -7 25 -5 42 2
18 -1 32 -6 32 -5 0 -6 4 -3 10 9 14 15 70 7 69 -4 -1 -19 -4 -35 -6z m163
-1995 c-4 -43 0 -69 9 -64 11 7 18 -19 27 -104 4 -36 15 -83 25 -105 17 -37
17 -41 2 -52 -10 -8 -12 -13 -5 -13 7 0 12 -7 12 -15 0 -8 -3 -15 -6 -15 -21
0 -64 84 -64 125 0 12 -7 39 -15 59 -9 22 -15 62 -13 104 1 38 -2 75 -7 83 -8
12 -6 12 8 0 15 -12 17 -11 17 3 0 9 3 16 6 16 3 0 5 -10 4 -22z m433 -90
c-25 -28 -43 -62 -43 -82 0 -11 10 -16 33 -16 34 -1 75 -19 77 -35 1 -5 9 -9
18 -7 14 2 14 1 3 -7 -10 -6 -23 -3 -42 11 -15 11 -34 18 -43 15 -8 -3 -17 -1
-19 6 -3 8 -10 7 -23 -5 -12 -12 -14 -18 -6 -18 7 0 11 -3 9 -7 -3 -5 14 -7
36 -7 23 1 30 -1 15 -3 -33 -5 -34 -9 -11 -37 14 -17 13 -16 -9 2 -16 15 -28
20 -33 13 -3 -6 -2 -11 3 -11 9 0 14 -18 26 -89 3 -13 9 -28 15 -34 6 -6 11
-20 11 -30 0 -16 5 -18 28 -13 l27 7 -24 -19 c-14 -12 -20 -22 -13 -26 18 -11
2 -47 -18 -41 -12 4 -27 -6 -48 -32 -16 -21 -30 -42 -31 -47 0 -5 -13 -11 -28
-12 -16 -2 -39 -6 -53 -9 -19 -4 -21 -3 -10 4 8 6 15 16 15 23 0 6 13 13 28
13 15 1 33 8 40 15 10 10 7 10 -13 1 -20 -10 -18 -5 11 21 33 30 40 41 49 73
2 6 9 15 17 20 15 11 8 45 -9 45 -5 0 -7 -4 -3 -9 5 -10 -34 -95 -41 -88 -2 2
3 25 12 51 9 26 14 58 11 71 -2 14 -1 25 4 25 4 0 3 14 -2 30 -6 17 -15 30
-19 30 -5 0 -11 13 -15 29 -5 23 -10 28 -23 23 -16 -5 -15 -4 1 18 9 14 20 32
23 40 18 52 62 119 78 120 5 0 0 -10 -11 -22z m87 -984 c0 -15 8 -36 17 -46
15 -17 15 -18 1 -13 -14 6 -15 1 -7 -36 6 -23 12 -46 15 -51 3 -4 0 -8 -6 -8
-6 0 -8 -5 -4 -11 4 -7 8 -26 10 -43 2 -17 6 -42 10 -56 8 -35 -3 -21 -20 26
-8 21 -15 31 -15 22 -1 -9 4 -29 10 -44 10 -27 9 -28 -9 -11 -27 25 -39 107
-29 202 3 32 -3 53 -29 102 -19 34 -34 66 -34 73 0 6 20 -9 45 -33 32 -32 45
-53 45 -73z"/>
<path d="M2790 4028 c-61 -26 -120 -92 -120 -134 0 -14 -5 -35 -11 -46 -8 -15
-8 -22 0 -27 7 -5 8 -17 2 -37 -6 -20 -4 -43 4 -68 8 -21 12 -47 10 -57 -2
-11 1 -19 7 -19 6 0 9 -3 6 -6 -4 -3 -2 -19 3 -36 4 -17 5 -36 1 -42 -11 -18
-8 -40 8 -57 8 -9 17 -15 20 -13 3 1 6 -6 6 -17 0 -22 -7 -24 -23 -8 -8 8 -13
7 -18 -2 -5 -8 -4 -10 3 -5 8 4 12 0 12 -11 0 -19 -18 -47 -53 -85 -18 -19
-23 -41 -16 -67 7 -24 -20 -23 -45 2 -14 14 -27 23 -29 21 -2 -2 -4 2 -5 9 -6
44 -16 77 -24 77 -6 0 -7 7 -4 16 4 9 2 22 -3 28 -5 6 -11 20 -13 31 -3 11 -5
-1 -6 -27 0 -27 4 -48 9 -48 4 0 6 -14 2 -30 -6 -34 51 -218 74 -235 7 -5 20
-42 28 -82 26 -124 49 -161 61 -98 6 33 24 59 24 35 0 -6 4 -9 9 -6 5 3 14 -1
21 -9 10 -12 9 -20 -4 -40 -9 -14 -13 -24 -9 -23 12 4 53 -35 53 -50 0 -7 4
-10 10 -7 5 3 20 -1 34 -10 19 -13 25 -13 30 -3 5 10 7 10 12 1 8 -18 24 -16
24 3 0 13 4 12 25 -5 27 -20 73 -20 86 1 5 7 8 7 13 0 9 -15 45 -11 39 5 -3 7
2 13 11 13 9 0 16 7 16 15 0 23 19 18 30 -7 8 -22 9 -22 9 -3 1 12 -5 27 -11
34 -11 12 -10 13 6 7 18 -6 19 -5 4 11 -8 10 -19 25 -23 33 -8 13 -7 13 11 0
10 -8 33 -30 50 -47 33 -35 61 -42 70 -18 4 8 12 15 20 15 8 0 14 -7 14 -15 0
-21 17 -19 30 5 6 11 19 20 30 20 10 0 23 7 28 16 7 13 10 13 21 1 6 -8 21
-13 31 -10 25 7 51 -13 43 -33 -3 -8 1 -14 11 -14 13 0 14 5 6 26 -13 33 -13
34 4 34 8 0 18 9 21 20 3 11 10 20 14 20 4 0 8 10 8 22 1 13 8 27 16 33 8 5
14 12 14 15 1 14 24 81 45 135 18 45 25 83 27 151 2 88 2 91 -28 123 -17 18
-35 29 -42 26 -8 -5 -8 -10 0 -18 15 -15 14 -27 -3 -21 -20 8 -29 -13 -29 -68
1 -26 -3 -45 -8 -42 -5 3 -9 11 -9 19 0 8 -5 17 -12 21 -7 4 -8 3 -4 -4 4 -7
2 -12 -3 -12 -6 0 -21 -11 -33 -25 -11 -13 -25 -22 -30 -19 -4 3 -8 0 -8 -7 0
-6 -8 -9 -19 -6 -12 3 -22 -1 -25 -10 -4 -9 -13 -12 -25 -8 -17 5 -22 -1 -31
-34 -11 -41 -24 -52 -33 -28 -2 6 -8 -5 -12 -25 -4 -21 -14 -43 -23 -50 -13
-11 -15 -10 -9 5 3 9 2 17 -3 17 -6 0 -10 6 -10 13 0 17 -42 57 -59 57 -6 0
-17 -13 -22 -30 -6 -16 -15 -30 -19 -30 -5 0 -9 -8 -10 -17 -2 -50 -13 -113
-19 -113 -5 0 -16 9 -26 20 -17 18 -19 19 -30 3 -14 -18 -35 -21 -183 -25 -50
-2 -92 0 -92 4 0 5 -4 7 -9 5 -5 -1 -9 1 -10 5 -1 5 -13 34 -27 65 -25 58 -34
136 -20 181 9 27 21 28 47 4 11 -11 45 -25 77 -32 31 -7 69 -18 83 -26 18 -9
29 -10 36 -3 6 6 45 15 87 20 86 11 139 1 174 -31 26 -25 32 -25 32 -1 0 11 5
23 10 26 6 3 10 15 10 26 0 10 6 19 14 19 8 0 17 7 20 16 4 11 1 14 -13 9 -13
-4 -25 2 -37 17 -11 13 -26 22 -35 20 -12 -2 -16 6 -17 34 -1 20 -5 41 -10 48
-5 6 -12 20 -15 31 -6 19 -6 19 6 1 7 -11 20 -27 29 -37 12 -12 13 -19 5 -22
-9 -3 -8 -8 2 -18 10 -11 15 -11 18 -1 3 6 9 9 15 6 6 -4 5 2 -1 15 -7 11 -16
21 -21 21 -6 0 -10 5 -10 11 0 6 6 9 14 6 25 -10 26 21 4 60 -14 23 -17 34 -8
28 22 -13 51 -14 41 -1 -5 6 -7 19 -5 29 2 18 2 18 -19 0 -12 -10 -19 -14 -15
-9 4 5 1 14 -6 20 -12 9 -11 14 7 31 11 11 17 15 13 8 -3 -6 -3 -14 2 -17 15
-9 9 27 -7 46 -19 22 -35 24 -27 3 3 -8 2 -15 -2 -15 -4 0 -13 14 -19 30 -12
31 -6 39 15 18 9 -9 12 -9 12 -1 0 7 -4 14 -9 18 -6 3 -4 17 5 33 14 27 17
115 3 107 -16 -11 -29 23 -19 49 16 42 12 49 -15 29 -13 -10 -25 -27 -25 -38
-1 -16 -4 -15 -18 10 -28 50 -76 114 -86 115 -5 0 -14 6 -20 14 -7 9 -38 17
-81 20 -59 5 -79 2 -125 -16z"/>
<path d="M4150 3225 c-9 -29 -9 -46 4 -88 8 -28 17 -69 20 -91 3 -21 8 -41 11
-45 11 -10 71 71 89 120 15 45 15 51 1 76 l-16 28 5 -35 c5 -33 5 -34 -9 -16
-8 11 -15 27 -15 36 0 23 -41 60 -47 42 -4 -9 -8 -10 -18 -2 -10 8 -16 3 -25
-25z"/>
<path d="M2202 2640 c-28 -50 -39 -51 -35 -2 l3 37 -14 -29 c-9 -21 -15 -25
-20 -15 -3 8 -3 4 0 -9 4 -16 -1 -28 -18 -42 -21 -18 -22 -19 -4 -20 18 0 16
-3 -9 -30 -26 -27 -27 -30 -9 -30 11 0 26 6 34 13 12 10 12 9 1 -5 -7 -10 -20
-18 -28 -18 -8 0 -11 -5 -8 -10 4 -6 1 -17 -5 -25 -10 -12 -9 -15 3 -15 9 0
19 -9 22 -20 4 -11 11 -18 16 -14 5 3 7 10 4 15 -3 5 1 6 10 3 8 -4 23 0 33 7
9 7 6 1 -7 -14 -28 -31 -22 -35 15 -11 22 15 24 15 18 0 -3 -9 -4 -16 0 -16
12 0 38 51 51 100 12 45 12 51 -1 46 -18 -7 -18 6 1 51 8 19 15 45 15 57 -1
19 -2 19 -13 4 -7 -9 -17 -25 -24 -35 -9 -15 -10 -10 -6 25 3 23 4 42 2 42 -2
0 -14 -18 -27 -40z"/>
<path d="M5005 1960 c6 -37 5 -42 -9 -37 -19 8 -21 -4 -3 -22 8 -10 9 -15 1
-18 -6 -2 -10 -20 -8 -40 1 -20 -2 -45 -7 -55 -6 -12 -6 -25 2 -39 6 -13 7
-19 1 -15 -6 3 -12 0 -15 -6 -3 -9 -18 -1 -43 22 -22 20 -30 24 -18 10 11 -14
29 -38 39 -55 l18 -30 -28 25 -28 25 21 -36 c35 -59 26 -56 -39 12 -36 38 -51
49 -36 28 42 -59 67 -108 58 -114 -5 -2 -11 2 -15 10 -3 8 -10 15 -16 15 -6 0
3 -28 20 -62 29 -60 30 -62 5 -33 -14 17 -25 25 -25 19 0 -5 4 -14 9 -20 4 -5
11 -24 15 -43 l6 -33 -20 23 c-18 21 -17 16 5 -36 14 -33 33 -70 41 -83 8 -12
12 -27 9 -33 -4 -5 -1 -8 6 -7 7 2 22 -20 34 -49 12 -29 24 -50 27 -47 3 3 11
-18 18 -45 7 -28 16 -51 21 -51 5 0 9 5 9 10 0 6 10 4 23 -5 13 -8 27 -12 30
-8 4 3 7 -2 7 -13 0 -16 2 -17 10 -4 9 15 4 140 -7 170 -8 20 -10 40 -18 150
-5 73 -4 92 5 80 9 -12 11 -8 6 18 -3 18 -1 32 4 32 6 0 10 -11 10 -25 0 -28
16 -35 17 -7 2 30 -59 215 -67 203 -17 -28 -34 23 -37 108 -3 96 -13 143 -32
149 -10 3 -12 -5 -6 -38z"/>
<path d="M5506 1868 c3 -4 -9 -8 -25 -8 -17 0 -31 -5 -31 -11 0 -8 -5 -8 -15
1 -8 7 -15 8 -15 3 0 -14 22 -33 40 -33 32 0 40 -21 16 -44 -12 -11 -17 -18
-12 -13 23 17 29 5 7 -13 -13 -11 -18 -20 -12 -20 12 0 15 -59 5 -109 -4 -18
-11 -28 -18 -25 -6 3 -3 -1 7 -9 9 -8 17 -18 17 -24 0 -5 14 -27 30 -50 24
-33 27 -42 15 -47 -22 -8 -18 -34 8 -47 12 -7 24 -12 27 -13 8 0 68 -66 60
-66 -4 0 -18 11 -31 25 -23 24 -49 33 -49 18 0 -5 16 -18 35 -31 36 -23 43
-36 25 -47 -6 -3 -7 1 -4 9 3 9 1 16 -5 16 -6 0 -11 -4 -11 -10 0 -5 -5 -10
-11 -10 -8 0 -9 4 0 13 11 14 5 27 -12 27 -6 0 -8 -3 -4 -6 3 -3 -3 -15 -14
-27 -26 -28 -27 -57 -1 -34 23 21 46 22 38 2 -3 -8 -1 -15 4 -15 6 0 10 5 10
11 0 8 4 8 14 0 17 -14 6 -76 -19 -100 -15 -15 -16 -15 -9 2 3 10 1 17 -5 17
-6 0 -11 -5 -11 -10 0 -6 -14 -3 -31 6 -30 15 -32 15 -25 -1 6 -17 5 -17 -19
-1 -22 15 -29 15 -43 4 -13 -11 -15 -11 -9 5 3 9 2 17 -3 17 -6 0 -10 -5 -10
-11 0 -15 -42 -7 -64 14 -21 18 -41 23 -31 7 10 -16 -6 -12 -29 7 -16 13 -15
11 3 -9 13 -15 27 -25 31 -23 4 3 14 -3 21 -12 8 -9 28 -25 44 -35 27 -18 28
-19 5 -13 -14 4 -36 14 -50 24 -52 36 -63 32 -26 -9 32 -36 45 -60 31 -60 -2
0 -20 14 -39 30 l-34 30 2 -24 c0 -13 4 -22 8 -20 4 3 5 -2 2 -10 -4 -10 -1
-16 7 -16 7 0 9 -3 6 -6 -4 -4 -14 -1 -23 7 -15 12 -16 11 -9 -10 4 -13 3 -21
-2 -18 -4 3 -7 -13 -6 -36 l2 -42 -15 50 c-15 50 -72 170 -60 128 18 -67 18
-68 7 -53 -8 12 -11 8 -12 -20 -1 -19 -2 -41 -2 -47 1 -7 -3 -13 -8 -13 -5 0
-9 19 -10 43 0 34 -2 38 -9 20 -8 -20 -17 -80 -19 -126 -1 -10 -5 -16 -10 -13
-4 3 -6 -5 -4 -17 3 -14 -2 -29 -11 -37 -14 -11 -16 -10 -10 4 3 9 1 16 -5 16
-14 0 -14 -14 -1 -61 11 -39 39 -55 61 -35 9 8 11 7 7 -4 -5 -13 26 -15 246
-13 340 4 829 -13 946 -31 52 -9 109 -18 127 -20 l32 -5 -33 30 c-23 20 -49
31 -82 35 -27 4 -62 13 -77 21 -16 8 -31 12 -35 9 -3 -3 -11 3 -18 13 -15 20
-64 34 -64 18 0 -6 -8 -3 -18 6 -10 10 -28 17 -39 17 -11 0 -37 7 -56 15 -49
20 -57 19 -27 -5 39 -31 3 -24 -68 12 -61 32 -73 50 -37 56 10 3 15 0 11 -7
-4 -6 -3 -11 3 -11 5 0 12 4 16 10 3 5 -16 15 -42 23 -41 12 -45 15 -25 21 12
4 22 12 22 19 0 8 3 8 12 -1 15 -15 32 -16 23 -2 -3 6 -1 10 6 10 7 0 24 10
37 23 20 17 24 18 19 5 -3 -10 -2 -20 3 -23 6 -4 10 -3 10 2 0 4 19 17 42 28
31 15 58 19 107 18 170 -7 269 -1 348 18 87 21 122 19 162 -13 16 -12 40 -18
78 -18 36 0 67 -7 96 -22 23 -13 58 -27 77 -33 31 -9 35 -15 42 -55 10 -55 3
-62 -16 -17 -26 63 -68 72 -119 27 -19 -16 -39 -30 -45 -30 -6 0 -14 -9 -17
-20 -3 -11 -13 -20 -21 -20 -8 0 -12 4 -9 10 3 6 -1 7 -9 4 -9 -3 -16 -10 -16
-14 0 -13 30 -20 48 -11 9 4 35 11 57 15 l40 7 -35 -23 c-47 -30 -54 -38 -71
-76 -11 -26 -19 -32 -37 -29 -12 2 -25 0 -29 -6 -3 -5 -2 -7 4 -4 6 4 10 -6 9
-23 -1 -17 -3 -30 -6 -30 -3 0 -7 -10 -7 -22 -1 -13 -8 -25 -14 -27 -7 -2 3
-11 22 -21 19 -9 33 -22 31 -29 -1 -7 7 -15 18 -18 11 -3 20 -10 20 -15 0 -6
9 -8 20 -5 10 3 25 -2 31 -10 17 -19 58 -14 96 14 17 13 35 23 40 23 13 0 34
52 40 102 4 37 1 54 -16 83 -13 22 -16 35 -9 33 7 -2 22 -22 33 -44 18 -35 20
-37 23 -15 4 23 5 23 75 16 40 -3 92 -10 117 -15 25 -5 67 -11 93 -13 48 -5
48 -4 28 14 -23 21 -36 25 -25 7 4 -6 3 -8 -3 -5 -5 3 -34 9 -64 11 -107 11
-139 22 -139 47 0 11 -7 22 -15 25 -8 4 -15 10 -15 15 0 5 13 3 29 -5 16 -9
44 -18 62 -21 62 -11 94 -14 81 -9 -6 3 -10 10 -6 15 3 5 -3 9 -13 9 -21 0
-66 29 -46 30 6 0 15 -4 18 -10 3 -5 15 -10 26 -10 11 0 18 4 15 9 -5 7 21 2
142 -29 31 -8 33 -7 18 9 -9 10 -16 20 -16 23 0 9 202 -60 214 -73 8 -8 5 -9
-11 -4 -42 12 -23 -4 35 -31 31 -14 64 -31 72 -38 8 -7 26 -16 39 -19 24 -6
24 -6 5 12 -19 19 -120 87 -191 129 -42 25 -52 54 -28 86 12 16 17 17 30 6 8
-7 12 -16 9 -21 -3 -5 -1 -9 5 -9 5 0 9 9 8 19 0 11 -4 18 -8 15 -4 -2 -17 9
-29 26 -20 28 -40 32 -40 9 0 -6 4 -8 9 -4 21 12 21 -17 1 -33 -13 -11 -22
-29 -22 -45 0 -25 -2 -26 -14 -10 -10 13 -13 14 -14 4 0 -22 -14 -3 -26 37
l-12 37 -1 -39 -1 -39 -30 38 c-16 21 -30 32 -30 24 0 -11 -2 -11 -10 1 -8 13
-10 12 -10 -2 0 -24 -12 -23 -28 2 -7 12 -17 18 -23 15 -5 -4 -16 -1 -24 5
-12 10 -15 9 -15 -5 0 -16 -2 -16 -22 -2 -23 16 -112 70 -154 93 -19 10 -62
20 -114 26 -8 1 -21 9 -30 18 -8 10 -31 23 -50 30 -19 7 -50 24 -68 37 -17 13
-36 22 -40 19 -4 -2 -46 13 -92 35 -47 22 -86 39 -88 39 -2 -1 -28 8 -58 21
-41 16 -58 19 -63 10 -6 -8 -24 -3 -66 19 -32 17 -52 24 -45 15 11 -13 6 -13
-36 2 -27 9 -63 22 -81 30 -40 17 -48 17 -33 -2 6 -8 10 -20 8 -26 -2 -7 -20
2 -43 22 -22 19 -35 27 -28 19 8 -10 9 -21 3 -30 -8 -13 -10 -13 -10 1 0 8 -7
24 -16 35 -15 19 -16 19 -9 -1 5 -17 3 -17 -19 4 -32 30 -32 33 -1 25 31 -8
33 3 3 16 -13 6 -40 21 -61 35 l-38 26 14 -28 c7 -15 12 -34 11 -40 -1 -7 -3
-32 -4 -55 -2 -33 -4 -36 -7 -15 -2 15 -9 25 -14 22 -5 -4 -9 -3 -10 2 -1 18
-8 39 -18 63 -9 21 -10 17 -5 -22 9 -69 -3 -59 -17 14 -9 44 -14 56 -19 42 -4
-10 -3 -22 2 -25 7 -4 7 -9 0 -13 -5 -3 -13 -25 -16 -48 -4 -24 -11 -50 -17
-58 -8 -12 -9 -10 -4 8 3 12 2 22 -3 22 -13 0 -10 18 7 50 l14 25 -22 -19
c-21 -19 -21 -19 -15 -1 6 15 4 17 -14 13 -19 -5 -20 -3 -10 21 13 35 19 83 9
77 -5 -3 -14 -26 -21 -50 -14 -49 -7 -101 12 -90 7 5 9 2 5 -9 -3 -9 0 -38 7
-65 9 -38 10 -53 1 -66 -16 -21 -25 -10 -25 28 0 17 -9 42 -19 55 l-19 24 -7
-32 -7 -32 -19 22 c-12 14 -17 31 -13 48 4 22 3 24 -7 10 -19 -26 -59 22 -59
72 0 40 -15 61 -24 32 -2 -10 -2 0 1 21 4 29 3 37 -7 31 -9 -6 -10 0 -5 25 5
23 4 30 -4 26 -14 -9 -14 0 -1 24 11 20 3 53 -10 45 -5 -3 -6 -13 -4 -23 3 -9
-5 -42 -16 -72 -12 -30 -18 -41 -15 -25 3 17 10 62 14 100 5 39 12 77 16 86 3
10 2 20 -4 23 -5 3 -13 -8 -16 -26 -10 -43 -16 -53 -25 -38 -4 7 -2 27 5 44
24 60 -4 139 -35 101 -7 -8 -16 -13 -20 -10 -4 2 -16 -5 -26 -18 l-19 -22 23
19 c32 28 27 3 -8 -34 -16 -18 -30 -27 -30 -22 0 6 5 14 10 17 6 3 10 11 10
16 0 6 -4 7 -10 4 -23 -14 -7 7 36 49 40 38 44 45 28 50 -28 8 -84 4 -78 -6z"/>
<path d="M5333 1863 c-15 -5 -18 -34 -4 -30 13 3 52 -44 45 -55 -3 -5 -1 -15
5 -22 9 -10 8 -15 -2 -19 -10 -4 -14 2 -14 21 0 14 -9 31 -19 38 -11 7 -23 17
-29 22 -6 5 -15 3 -22 -7 -6 -9 -20 -16 -30 -16 -28 0 -20 -88 12 -137 29 -44
32 -56 8 -37 -15 11 -14 10 1 -9 20 -23 32 -30 21 -12 -9 15 2 12 30 -6 16
-10 25 -12 25 -5 0 8 6 8 20 -1 31 -20 46 3 25 36 -17 26 -41 26 -31 0 3 -8 4
-14 2 -14 -3 0 -11 -3 -19 -6 -20 -7 -30 23 -16 48 9 16 13 18 20 7 12 -21 23
-3 22 38 -1 25 2 32 8 22 5 -8 9 -26 9 -40 0 -15 8 -37 18 -48 17 -22 17 -21
16 23 0 26 3 46 8 46 5 0 6 5 3 10 -4 6 -12 7 -18 4 -9 -5 -9 -4 0 6 6 7 9 18
7 25 -3 7 -1 16 5 20 21 12 11 27 -14 23 -15 -3 -25 -1 -24 6 3 27 -2 35 -17
29 -12 -4 -15 -2 -12 8 4 12 -14 41 -24 38 -2 0 -9 -3 -15 -6z"/>
<path d="M2015 1683 c6 -54 19 -99 32 -110 8 -6 15 -15 15 -20 1 -20 11 -33
25 -33 13 0 13 -3 3 -15 -11 -14 -10 -14 16 -5 28 11 28 11 9 -9 -12 -14 -14
-21 -5 -21 12 0 11 -27 -4 -90 -5 -23 -4 -24 9 -6 7 10 19 15 25 11 6 -4 18
-1 27 7 15 12 15 11 0 -12 -20 -29 -22 -57 -4 -63 9 -3 8 -8 -3 -23 -14 -17
-14 -18 2 -6 12 10 15 22 11 44 -3 16 -1 33 4 37 5 3 15 15 21 26 14 25 16 1
1 -28 -10 -21 -9 -21 10 1 26 30 45 19 37 -20 -3 -18 -2 -27 4 -23 6 3 10 1
10 -5 0 -6 5 -8 11 -4 8 5 8 8 0 14 -9 5 -8 10 2 19 12 9 16 7 21 -11 11 -42
23 -53 40 -39 13 11 17 11 22 -3 5 -12 10 -14 19 -6 9 8 15 8 20 0 3 -5 1 -10
-4 -10 -19 0 -12 -56 9 -75 22 -20 27 -7 9 27 -15 28 -6 31 19 8 12 -12 22
-17 23 -13 0 4 9 -17 19 -47 l19 -55 -3 46 c-2 45 -18 76 -72 134 -20 21 -39
57 -49 91 -3 11 -17 31 -30 44 l-25 24 6 -35 c3 -19 15 -47 26 -63 12 -16 15
-25 8 -21 -6 4 -25 27 -40 52 -15 24 -58 71 -94 104 -52 48 -69 70 -77 104 -7
29 -17 45 -31 48 -14 4 -16 2 -10 -6 10 -12 33 -87 27 -87 -12 0 -92 96 -84
100 5 4 1 14 -9 23 -18 16 -19 16 -17 0z"/>
<path d="M2093 1332 c-23 -26 -45 -43 -49 -39 -5 5 -2 12 6 17 8 6 10 10 5 10
-6 0 -20 -7 -32 -15 -19 -13 -22 -13 -27 0 -3 8 -9 15 -13 14 -24 -4 -35 2
-29 17 5 14 1 15 -29 10 -20 -4 -35 -3 -35 3 0 5 -17 1 -37 -9 -21 -10 -51
-23 -66 -29 -15 -6 -25 -16 -22 -21 3 -6 -1 -7 -10 -4 -9 4 -15 3 -13 -2 4
-17 -37 -71 -50 -66 -8 2 -22 -5 -32 -15 -11 -13 -37 -22 -71 -26 -29 -4 -55
-11 -59 -17 -3 -6 -26 -16 -51 -23 -31 -9 -43 -18 -41 -29 3 -18 -31 -33 -49
-22 -7 4 -9 3 -5 -4 3 -5 0 -13 -6 -15 -10 -4 -10 -6 0 -6 8 -1 10 -6 5 -13
-9 -14 -10 -20 -12 -47 0 -11 -8 -26 -16 -35 -8 -8 -13 -21 -10 -28 8 -19 -22
-88 -41 -95 -8 -3 -13 -11 -10 -18 2 -7 -6 -28 -20 -46 -16 -22 -24 -27 -24
-16 0 9 -7 17 -16 17 -10 0 -14 6 -10 15 8 22 -2 18 -15 -6 -8 -15 -8 -19 0
-15 17 11 13 -10 -4 -24 -11 -9 -15 -9 -15 -1 0 7 -19 -12 -42 -40 -24 -29
-51 -53 -61 -55 -10 -1 -27 -10 -37 -19 -15 -13 -23 -14 -39 -5 -12 6 -19 15
-16 19 2 5 -5 12 -18 16 -21 7 -21 7 -2 12 38 10 77 45 72 64 -4 15 -2 17 13
9 15 -8 22 -5 34 12 8 12 12 26 9 31 -3 6 -2 7 3 4 6 -3 15 3 22 13 17 27 -3
35 -28 10 -11 -11 -20 -32 -20 -46 0 -14 -4 -23 -10 -19 -6 4 -8 10 -5 15 3 5
-3 10 -12 13 -15 3 -14 6 7 16 l25 11 -27 -5 c-14 -3 -34 -7 -45 -10 -10 -3
-7 0 7 7 14 7 34 22 45 33 l20 21 -15 -21 c-15 -20 -15 -20 7 -2 12 11 27 16
32 12 6 -3 11 0 11 7 0 8 3 9 8 3 12 -17 29 -15 44 3 12 15 11 16 -4 3 -10 -7
-18 -9 -18 -3 0 6 -12 9 -27 7 -16 -2 -33 1 -39 6 -6 5 -19 6 -29 3 -12 -5
-13 -9 -5 -14 9 -5 6 -10 -9 -15 -24 -7 -42 2 -25 13 6 4 14 16 18 27 6 17 4
17 -21 -5 -15 -14 -22 -18 -15 -10 19 22 14 35 -6 17 -10 -10 -22 -14 -25 -10
-4 3 -7 -1 -7 -10 0 -10 -8 -17 -19 -17 -11 0 -23 -5 -27 -11 -4 -8 1 -9 16
-4 15 5 20 4 16 -4 -4 -6 -16 -11 -27 -11 -11 0 -22 -7 -26 -16 -4 -11 -8 -12
-13 -4 -5 8 -11 6 -20 -5 -11 -13 -10 -14 5 -8 14 5 17 3 12 -10 -9 -25 7 -21
18 5 14 31 33 34 31 4 0 -13 -4 -22 -8 -20 -4 2 -9 0 -13 -6 -3 -5 1 -10 9
-10 9 0 16 -5 16 -11 0 -13 -69 -79 -80 -76 -4 1 -39 -32 -78 -73 -51 -54 -71
-70 -72 -56 0 10 6 24 14 30 7 6 17 24 20 40 6 26 5 28 -9 16 -13 -11 -15 -10
-12 8 2 12 7 25 12 29 4 5 5 1 1 -7 -4 -8 1 -4 12 10 12 14 18 27 15 30 -3 3
-8 -1 -10 -7 -3 -7 -12 -13 -21 -13 -12 0 -10 6 9 28 l24 27 -27 -24 c-16 -14
-26 -26 -23 -29 2 -3 -5 -16 -15 -30 -11 -13 -20 -30 -20 -37 0 -7 -6 -18 -14
-24 -7 -6 -17 -26 -21 -44 -5 -22 -9 -26 -12 -15 -4 16 -6 16 -19 3 -21 -20
-35 -19 -27 2 6 16 4 16 -15 -1 -12 -11 -22 -14 -22 -8 0 6 -7 9 -15 6 -11 -5
-13 -2 -8 12 5 13 3 16 -10 11 -15 -6 -39 13 -36 29 5 31 -2 56 -16 50 -9 -3
-15 0 -15 9 0 8 -5 15 -11 15 -6 0 0 15 13 32 12 18 22 38 20 45 -1 6 14 23
33 36 20 14 32 27 27 31 -12 7 -109 -56 -143 -94 -29 -31 -63 -44 -39 -14 12
13 10 14 -13 3 -25 -11 -25 -13 -9 -25 17 -14 15 -15 -27 -17 -13 -1 -26 -8
-29 -15 -3 -11 0 -12 17 -2 17 8 24 8 35 -2 11 -11 9 -20 -10 -50 -13 -21 -34
-42 -46 -49 l-23 -12 23 25 c12 13 22 28 22 33 0 4 -11 -4 -25 -19 -13 -14
-30 -26 -36 -26 -7 0 -2 11 11 25 27 28 13 33 -28 9 -18 -11 -14 -5 13 20 46
41 42 44 -17 16 -43 -21 -63 -19 -36 3 22 17 30 57 12 57 -8 0 -14 4 -14 10 0
16 -28 0 -45 -27 l-16 -24 25 16 c22 15 26 15 26 2 0 -8 -13 -29 -30 -47 -30
-32 -41 -58 -19 -44 7 4 10 1 7 -7 -7 -22 24 -49 57 -49 17 0 37 -6 43 -13 9
-8 67 -13 196 -15 168 -3 198 -1 367 28 101 17 247 44 324 60 334 68 398 80
545 99 85 12 164 21 175 21 11 1 22 6 26 12 4 5 28 13 55 15 27 3 55 10 62 16
8 6 27 5 57 -3 49 -14 195 -5 195 11 0 5 15 9 33 9 17 -1 59 3 91 8 33 5 69 7
80 4 15 -4 18 -1 13 11 -5 13 -1 17 14 17 26 0 75 34 90 62 9 16 8 19 -3 12
-8 -5 -7 1 5 19 9 14 17 29 17 32 0 11 -29 5 -33 -7 -4 -8 -6 -9 -6 -2 -1 6 6
17 14 24 8 7 15 22 15 34 -1 20 -1 20 -15 2 -7 -10 -19 -15 -25 -11 -8 5 -10
2 -6 -11 3 -11 1 -26 -4 -34 -8 -13 -10 -12 -11 5 -1 11 -2 26 -2 34 1 9 -2
10 -10 2 -23 -23 -26 -10 -5 27 l22 37 -27 -24 c-29 -26 -33 -23 -16 12 l10
22 -18 -21 c-10 -12 -23 -30 -30 -40 -11 -16 -12 -16 -7 -1 4 12 1 17 -12 17
-18 1 -18 1 0 15 11 8 16 18 11 22 -4 5 -10 2 -12 -4 -9 -24 -23 -13 -17 12 4
15 2 25 -5 25 -6 0 -11 -8 -12 -17 0 -13 -3 -11 -10 7 -7 18 -12 21 -18 11 -5
-8 -10 1 -15 27 -6 43 -30 73 -39 50 -3 -7 -3 18 -1 56 3 39 8 75 10 80 3 6
-2 2 -10 -9 -9 -11 -15 -24 -12 -30 2 -6 -5 -11 -15 -11 -11 0 -19 7 -19 14 0
8 -6 12 -14 9 -8 -3 -17 1 -20 9 -4 11 -11 12 -24 5 -16 -8 -18 -3 -20 47 -3
83 -4 102 -6 101 0 -1 -20 -22 -43 -47z"/>
<path d="M2810 1146 c0 -2 7 -20 15 -40 20 -48 29 -124 13 -108 -7 7 -13 22
-15 34 -2 12 -8 27 -14 33 -8 7 -9 3 -4 -14 5 -16 4 -21 -4 -17 -6 4 -11 24
-11 44 -1 30 -3 34 -11 20 -14 -25 -17 -168 -3 -182 6 -6 9 -18 7 -26 -2 -8 2
-5 10 8 l14 24 16 -24 16 -23 7 23 c3 12 10 22 15 22 6 0 14 10 20 23 9 22 9
21 5 -3 -2 -14 -7 -34 -11 -45 l-8 -20 17 20 c17 20 17 20 10 -5 -3 -14 -14
-32 -25 -40 -10 -8 -23 -26 -28 -40 -7 -19 -10 -21 -10 -6 -1 16 -5 15 -36
-10 -19 -16 -48 -39 -65 -52 -16 -13 -28 -28 -24 -33 9 -16 24 -10 34 14 l9
22 0 -22 c1 -28 4 -28 39 -5 l27 17 -23 -32 c-25 -35 -24 -43 2 -17 9 8 16 11
16 5 0 -5 -5 -13 -11 -16 -14 -10 38 -36 56 -28 8 3 15 9 15 15 0 5 4 7 10 3
5 -3 6 -13 3 -22 -4 -11 -3 -14 5 -9 16 10 15 32 -3 49 -13 13 -12 18 5 40 27
34 49 185 29 198 -10 6 -11 9 -1 9 16 0 16 67 -1 77 -7 4 -23 37 -35 73 -11
36 -21 59 -22 52 0 -10 -4 -10 -16 2 -14 15 -34 22 -34 12z"/>
<path d="M8447 872 c5 -10 2 -13 -6 -8 -7 5 -18 1 -26 -10 -11 -15 -16 -17
-26 -6 -16 15 -55 16 -64 2 -4 -6 -14 -9 -23 -6 -19 6 -45 -11 -54 -36 -5 -12
0 -18 19 -23 14 -3 32 -12 39 -20 12 -12 12 -15 -3 -24 -17 -10 -17 -12 1 -25
10 -8 15 -19 11 -25 -11 -18 15 -12 54 11 20 13 43 23 51 23 10 0 14 8 12 23
-3 23 13 31 21 10 3 -8 6 -5 6 5 1 10 6 15 11 12 6 -4 10 15 10 48 0 46 -3 56
-19 60 -15 3 -18 1 -14 -11z"/>
<path d="M3560 575 c-6 -8 -9 -18 -6 -24 7 -11 -14 -62 -23 -56 -4 2 -8 -5 -8
-16 -1 -11 2 -17 8 -14 11 8 12 -45 0 -64 -5 -7 -14 -11 -20 -7 -6 4 -18 -3
-28 -15 -10 -12 -28 -31 -40 -42 -23 -21 -31 -57 -13 -57 5 0 7 6 4 13 -2 7 6
22 20 34 13 11 26 27 28 34 3 8 8 11 11 8 4 -3 -1 -16 -10 -29 -10 -14 -16
-37 -14 -52 4 -42 -7 -52 -36 -33 -23 16 -25 15 -30 -4 -3 -12 -9 -19 -13 -16
-4 3 -14 -2 -21 -11 -11 -14 -10 -18 6 -30 14 -10 15 -14 4 -14 -12 -1 -12 -2
1 -9 8 -5 60 -15 115 -21 158 -19 354 5 398 48 l20 20 -22 30 c-11 17 -21 35
-21 41 0 5 -7 14 -17 19 -14 9 -14 11 6 22 13 6 20 14 17 17 -3 3 -12 0 -21
-7 -21 -17 -19 -1 3 24 15 17 13 17 -13 -3 -28 -21 -30 -21 -42 -5 -7 10 -13
28 -13 40 0 13 -4 26 -10 29 -5 3 -10 -3 -10 -13 0 -25 -23 -44 -44 -36 -9 3
-16 1 -16 -6 0 -6 -4 -9 -10 -5 -5 3 -7 13 -4 23 3 9 -2 6 -10 -8 -19 -32 -20
-46 -2 -31 11 9 15 9 19 -1 4 -10 6 -10 6 0 1 6 6 12 12 12 5 0 7 -5 4 -10 -4
-6 0 -22 9 -35 18 -27 21 -55 7 -55 -16 0 -22 18 -9 23 8 3 6 6 -4 6 -13 1
-18 -7 -18 -23 0 -19 4 -23 20 -19 11 3 20 0 20 -6 0 -6 -5 -11 -10 -11 -7 0
-7 -6 -1 -19 9 -17 7 -18 -22 -17 -18 1 -32 6 -32 11 0 6 -4 16 -9 23 -4 7 -5
24 -2 38 8 29 -4 32 -22 4 -7 -11 -17 -20 -24 -20 -6 0 0 13 15 28 36 37 34
50 -5 47 -18 -2 -32 -8 -30 -14 1 -6 -2 -11 -8 -11 -5 0 -10 -6 -10 -14 0 -25
-18 -27 -19 -3 -5 80 1 162 12 170 9 7 9 10 -1 14 -10 4 -10 8 -1 19 6 8 7 14
2 14 -5 0 -8 20 -8 45 1 25 1 45 0 45 -2 0 -8 -7 -15 -15z"/>
</g>
</svg>
