<svg width="1160" height="205" viewBox="0 0 1160 205" fill="none" xmlns="http://www.w3.org/2000/svg">
<path d="M268.959 30.5942C260.508 27.8844 249.581 32.2783 241.675 41.5589C239.683 43.9053 238.393 45.8173 236.866 48.6578C234.469 53.1458 233.155 57.7135 232.985 62.2661C232.886 64.9217 233.181 67.1381 233.96 69.4592C234.99 72.5291 236.513 74.7354 238.885 76.6171C239.995 77.4956 242.385 78.6635 243.804 79.0227C246.622 79.7313 249.399 79.746 252.564 79.0818C258.864 77.7384 265.157 73.6993 270.278 67.7036C272.56 65.0278 274.168 62.5267 275.758 59.157C277.946 54.5144 278.916 50.5108 278.886 46.1329C278.876 43.647 278.618 42.0596 277.869 39.8283C276.873 36.8383 275.39 34.652 273.124 32.8351C272.369 32.2212 269.899 30.8886 268.959 30.5942Z" fill="black"/>
<path d="M225.115 11.8889C223.261 11.2501 221.947 11.0056 220.439 11.0008C215.255 11.0063 209.907 13.8471 205.503 18.9293C203.461 21.2757 202.077 23.3774 200.571 26.4275C197.955 31.6792 196.628 37.0506 196.561 42.6265C196.523 46.011 196.944 48.9512 197.859 51.7016C199.181 55.6401 201.26 58.5851 204.131 60.5416C207.657 62.9624 212.432 63.3014 216.943 61.4639C221.224 59.7114 225.147 56.3215 228.547 51.4242C229.672 49.7917 232.238 44.6648 232.848 42.7878C235.329 35.2249 235.623 28.2163 233.738 22.3011C232.229 17.6089 229.88 14.4792 226.415 12.5377C225.875 12.2432 225.295 11.9537 225.115 11.8889Z" fill="black"/>
<path d="M178.005 27.7675C175.716 26.999 173.978 26.8544 171.861 27.2439C167.793 27.9931 163.829 30.9387 160.588 35.6413C159.622 37.0292 157.658 40.8981 157.057 42.6053C156.124 45.2311 155.386 48.1415 155.012 50.7473C153.59 60.6712 156.004 70.2903 161.168 75.3616C162.34 76.5196 163.045 77.0087 164.635 77.8023C165.82 78.3812 166.279 78.5609 167.104 78.7355C168.218 78.98 170.026 79.0597 171.02 78.9198C174.639 78.4203 178.006 76.3733 181.104 72.8088C182.738 70.9317 183.301 70.0282 184.962 66.6934C186.364 63.8529 186.508 63.5135 187.024 61.8511C187.981 58.7511 188.519 56.0155 188.782 52.9554C189.63 43.0066 186.648 33.9017 181.125 29.5743C180.42 29.0102 178.605 27.9671 178.005 27.7675Z" fill="black"/>
<path d="M276.388 84.8401C268.608 82.5646 257.875 87.0183 250.268 95.675C246.586 99.8585 243.94 104.846 242.932 109.478C241.705 115.124 242.835 120.101 246.023 123.201C246.904 124.064 247.579 124.538 248.749 125.122C250.059 125.776 251.083 126.1 252.572 126.345C255.519 126.819 258.72 126.459 262.178 125.281C264.249 124.582 265.527 123.997 267.482 122.879C272.31 120.128 276.537 116.179 279.857 111.317C280.853 109.869 282.892 105.85 283.373 104.408C284.569 100.803 284.962 97.8831 284.616 94.9928C284.189 91.4137 282.494 88.3738 279.893 86.527C279.078 85.958 277.358 85.1246 276.388 84.8401Z" fill="black"/>
<path d="M210.768 86.0694C206.06 84.0931 199.734 82.5312 196.483 82.5415C194.245 82.5467 192.678 82.9113 187.797 84.5641C185.816 85.2332 183.585 85.9273 182.846 86.107C180.735 86.6114 176.905 87.0561 170.224 87.5609C159.444 88.3756 155.829 88.9899 153.845 90.3429C151.506 91.9305 149.459 94.4367 147.828 97.7115C146.515 100.322 145.84 102.429 145.481 105.005C145.127 107.496 145.236 109.308 145.901 111.958C148.108 120.739 154.837 128.785 166.741 136.871C170.947 139.731 175.178 142.241 186.203 148.43C190.478 150.826 199.373 155.303 202.077 156.416C212.949 160.907 220.932 162.274 228.411 160.896C230.268 160.551 233.212 159.627 234.549 158.948C236.809 157.82 238.349 156.158 239.751 153.342C240.591 151.655 241.107 150.167 241.523 148.28C242.541 143.578 242.364 140.348 240.857 136.03C240.143 133.979 239.546 132.671 237.359 128.338C235.087 123.826 234.329 122.113 233.575 119.742C232.916 117.681 232.593 116.073 231.869 111.361C231.261 107.343 230.791 105.201 230.108 103.24C229.389 101.198 228.687 99.8752 227.505 98.3378C223.724 93.4212 217.587 88.9241 210.768 86.0694Z" fill="black"/>
<path d="M60.7534 158.073H0V0H60.1365C76.3786 0 90.4104 3.16455 102.232 9.49363C114.105 15.7713 123.254 24.8275 129.679 36.6624C136.155 48.4458 139.393 62.5705 139.393 79.0363C139.393 95.5023 136.181 109.653 129.756 121.487C123.331 133.271 114.234 142.327 102.463 148.656C90.6931 154.934 76.7897 158.073 60.7534 158.073ZM42.8665 121.642H59.2114C67.0241 121.642 73.6801 120.381 79.1798 117.86C84.7308 115.339 88.9456 110.991 91.824 104.816C94.7536 98.6411 96.2185 90.048 96.2185 79.0363C96.2185 68.0248 94.728 59.4317 91.7468 53.2569C88.817 47.0823 84.4996 42.7343 78.7942 40.2128C73.1404 37.6916 66.2016 36.4308 57.9778 36.4308H42.8665V121.642ZM352.589 205C340.716 205 330.539 203.302 322.058 199.906C313.628 196.562 307.076 191.93 302.398 186.014C297.773 180.147 295.178 173.406 294.611 165.791H335.628C336.038 168.312 337.066 170.345 338.711 171.888C340.356 173.432 342.463 174.539 345.033 175.208C347.655 175.928 350.584 176.288 353.822 176.288C359.323 176.288 363.872 174.95 367.47 172.275C371.118 169.599 372.943 164.762 372.943 157.764V137.696H371.71C370.168 141.71 367.804 145.132 364.617 147.962C361.43 150.74 357.601 152.876 353.128 154.368C348.657 155.809 343.749 156.529 338.402 156.529C329.974 156.529 322.213 154.574 315.119 150.663C308.079 146.752 302.424 140.552 298.158 132.062C293.943 123.572 291.836 112.483 291.836 98.7955C291.836 84.4908 294.046 72.8617 298.466 63.9084C302.937 54.9549 308.694 48.3944 315.737 44.2263C322.83 40.0585 330.281 37.9745 338.095 37.9745C343.954 37.9745 349.093 39.0037 353.514 41.0619C357.935 43.0686 361.635 45.77 364.617 49.1661C367.597 52.5108 369.859 56.1899 371.401 60.2034H372.326V39.5182H414.884V157.764C414.884 167.798 412.289 176.313 407.097 183.313C401.958 190.361 394.71 195.739 385.356 199.444C376.001 203.147 365.08 205 352.589 205ZM354.131 126.273C358.037 126.273 361.379 125.192 364.154 123.031C366.981 120.819 369.14 117.68 370.629 113.615C372.171 109.498 372.943 104.558 372.943 98.7955C372.943 92.9296 372.171 87.9125 370.629 83.7447C369.14 79.5252 366.981 76.3092 364.154 74.0967C361.379 71.8325 358.037 70.7006 354.131 70.7006C350.225 70.7006 346.883 71.8325 344.108 74.0967C341.384 76.3092 339.278 79.5252 337.787 83.7447C336.347 87.9125 335.628 92.9296 335.628 98.7955C335.628 104.662 336.347 109.653 337.787 113.769C339.278 117.834 341.384 120.947 344.108 123.108C346.883 125.218 350.225 126.273 354.131 126.273ZM479.165 158.073V0H547.32C559.039 0 569.292 2.31553 578.082 6.94656C586.871 11.5776 593.707 18.0868 598.59 26.4741C603.473 34.8614 605.914 44.6638 605.914 55.8812C605.914 67.2014 603.395 77.0039 598.359 85.2883C593.373 93.5728 586.357 99.9532 577.312 104.43C568.317 108.907 557.806 111.145 545.778 111.145H505.07V77.8015H537.143C542.181 77.8015 546.472 76.9267 550.019 75.1772C553.616 73.3762 556.366 70.8291 558.267 67.5359C560.221 64.2428 561.198 60.3578 561.198 55.8812C561.198 51.353 560.221 47.4939 558.267 44.3036C556.366 41.0619 553.616 38.5921 550.019 36.894C546.472 35.1445 542.181 34.2697 537.143 34.2697H522.032V158.073H479.165ZM664.818 0V158.073H622.26V0H664.818ZM719.499 159.925C711.944 159.925 705.261 158.69 699.454 156.22C693.697 153.699 689.173 149.891 685.884 144.797C682.596 139.703 680.95 133.219 680.95 125.347C680.95 118.863 682.055 113.332 684.265 108.752C686.475 104.121 689.56 100.339 693.517 97.4061C697.474 94.4733 702.074 92.2349 707.317 90.6912C712.612 89.1475 718.317 88.1441 724.433 87.6811C731.063 87.1664 736.384 86.549 740.392 85.8285C744.453 85.0567 747.384 84.0019 749.182 82.664C750.981 81.2747 751.88 79.4481 751.88 77.1839V76.8752C751.88 73.7878 750.698 71.4209 748.334 69.7743C745.969 68.1277 742.936 67.3045 739.237 67.3045C735.177 67.3045 731.861 68.205 729.291 70.0059C726.772 71.7554 725.256 74.4568 724.742 78.1102H685.576C686.09 70.9064 688.378 64.2686 692.438 58.1967C696.55 52.0735 702.537 47.1852 710.402 43.5318C718.266 39.8269 728.083 37.9745 739.853 37.9745C748.334 37.9745 755.941 38.9778 762.675 40.9848C769.407 42.9401 775.138 45.6929 779.867 49.2434C784.596 52.7424 788.193 56.8588 790.661 61.5928C793.18 66.2753 794.439 71.3695 794.439 76.8752V158.073H754.655V141.401H753.731C751.366 145.826 748.488 149.402 745.096 152.13C741.754 154.857 737.926 156.838 733.608 158.073C729.342 159.308 724.638 159.925 719.499 159.925ZM733.377 133.065C736.615 133.065 739.648 132.396 742.475 131.058C745.354 129.72 747.691 127.791 749.49 125.27C751.29 122.748 752.189 119.687 752.189 116.085V106.205C751.058 106.668 749.85 107.106 748.566 107.517C747.331 107.929 745.995 108.315 744.556 108.675C743.169 109.035 741.678 109.37 740.085 109.678C738.542 109.987 736.924 110.27 735.227 110.527C731.939 111.042 729.24 111.891 727.132 113.075C725.076 114.207 723.534 115.622 722.506 117.32C721.529 118.966 721.041 120.819 721.041 122.877C721.041 126.17 722.198 128.691 724.511 130.441C726.823 132.19 729.779 133.065 733.377 133.065ZM857.332 91.3859V158.073H814.774V39.5182H855.173V62.0558H856.406C858.976 54.5433 863.499 48.6516 869.975 44.3809C876.504 40.1099 884.11 37.9745 892.797 37.9745C901.175 37.9745 908.448 39.9041 914.615 43.7633C920.835 47.571 925.64 52.8195 929.032 59.5088C932.477 66.1981 934.173 73.8393 934.121 82.4324V158.073H891.562V91.3859C891.615 85.5198 890.124 80.9145 887.091 77.5699C884.109 74.2252 879.947 72.553 874.601 72.553C871.107 72.553 868.049 73.3248 865.426 74.8685C862.857 76.3607 860.877 78.5218 859.49 81.3519C858.102 84.1305 857.383 87.4751 857.332 91.3859ZM1011.87 160.234C999.231 160.234 988.333 157.816 979.184 152.979C970.088 148.09 963.071 141.092 958.137 131.985C953.255 122.825 950.813 111.865 950.813 99.1042C950.813 86.8577 953.281 76.1549 958.215 66.9956C963.149 57.8365 970.113 50.7098 979.108 45.6157C988.103 40.5215 998.717 37.9745 1010.95 37.9745C1019.89 37.9745 1027.99 39.3638 1035.24 42.1425C1042.48 44.921 1048.68 48.9603 1053.82 54.2603C1058.96 59.5088 1062.91 65.8893 1065.69 73.402C1068.47 80.9145 1069.85 89.3791 1069.85 98.7955V108.675H964.073V85.2111H1030.69C1030.64 81.815 1029.76 78.8305 1028.07 76.2578C1026.42 73.6335 1024.19 71.6011 1021.36 70.1603C1018.58 68.668 1015.42 67.9219 1011.87 67.9219C1008.43 67.9219 1005.27 68.668 1002.39 70.1603C999.513 71.6011 997.201 73.6078 995.452 76.1805C993.756 78.7534 992.857 81.7635 992.754 85.2111V110.527C992.754 114.335 993.551 117.731 995.145 120.716C996.738 123.7 999.024 126.041 1002.01 127.74C1004.99 129.438 1008.59 130.287 1012.8 130.287C1015.73 130.287 1018.4 129.875 1020.82 129.052C1023.28 128.228 1025.39 127.045 1027.14 125.501C1028.89 123.906 1030.17 122.002 1031 119.789H1069.85C1068.52 128.022 1065.35 135.175 1060.37 141.247C1055.38 147.267 1048.78 151.949 1040.55 155.294C1032.38 158.587 1022.82 160.234 1011.87 160.234ZM1157.84 39.5182V70.3917H1079.82V39.5182H1157.84ZM1094.93 11.1145H1137.49V119.944C1137.49 121.591 1137.77 122.98 1138.33 124.112C1138.9 125.192 1139.77 126.016 1140.96 126.582C1142.14 127.096 1143.65 127.354 1145.5 127.354C1146.79 127.354 1148.28 127.199 1149.98 126.891C1151.72 126.582 1153.01 126.324 1153.83 126.119L1160 156.066C1158.1 156.632 1155.37 157.327 1151.83 158.15C1148.33 158.973 1144.17 159.514 1139.34 159.771C1129.57 160.285 1121.37 159.282 1114.74 156.761C1108.11 154.188 1103.13 150.148 1099.79 144.643C1096.44 139.137 1094.83 132.242 1094.93 123.957V11.1145Z" fill="black"/>
</svg>
